<svg xmlns="http://www.w3.org/2000/svg" xmlns:xlink="http://www.w3.org/1999/xlink" width="74.054" height="74.054" viewBox="0 0 74.054 74.054">
  <defs>
    <linearGradient id="linear-gradient" x1="0.974" y1="0.238" x2="-0.052" y2="0.609" gradientUnits="objectBoundingBox">
      <stop offset="0" stop-color="#fff"/>
      <stop offset="1" stop-color="#ffffff" stop-opacity="0.071"/>
    </linearGradient>
  </defs>
  <g id="Business_App" data-name="Business App" transform="translate(-1296 -1768)">
    <g id="Angular_Development" data-name="Angular Development" transform="translate(1121.529 407)">
      <circle id="Ellipse_379" data-name="Ellipse 379" cx="37.027" cy="37.027" r="37.027" transform="translate(174.471 1361)" opacity="0.42" fill="url(#linear-gradient)"/>
    </g>
    <g id="Business_Application" data-name="Business Application" transform="translate(1336.5 1995.029)">
      <g id="Group_65377" data-name="Group 65377" transform="translate(-62.162 -255.314)">
        <path id="Path_52028" data-name="Path 52028" d="M135.485,116.4l-3.174-3.174,1.488-1.153a.588.588,0,0,0-.2-1.03l-.74-.209c0-.025,0-.049,0-.074v-6.085a1.175,1.175,0,0,0-1.175-1.175h-3.8v-5.5a6.879,6.879,0,0,0,0-13.12V71.9a4.114,4.114,0,0,0-4.114-4.114H103.959A4.114,4.114,0,0,0,99.846,71.9v2.381a6.8,6.8,0,0,0-2.4,1.416,6.886,6.886,0,0,0,2.4,11.607V103.5H96.193a1.175,1.175,0,0,0-1.175,1.175v6.085a1.175,1.175,0,0,0,1.175,1.175h3.652v.69a4.114,4.114,0,0,0,4.114,4.114h19.813a4.113,4.113,0,0,0,3.684-2.282l.6,2.128a.588.588,0,0,0,1.03.2l1.153-1.488,3.174,3.174a.588.588,0,0,0,.831,0l1.241-1.241a.588.588,0,0,0,0-.831Z" transform="translate(-43.347 -25.596)" fill="#00c" opacity="0.1"/>
        <g id="Group_65361" data-name="Group 65361" transform="translate(51.671 39.373)">
          <g id="Group_65357" data-name="Group 65357">
            <g id="Group_65356" data-name="Group 65356">
              <g id="Group_65355" data-name="Group 65355" transform="translate(4.827)">
                <g id="Group_65354" data-name="Group 65354">
                  <path id="Path_52029" data-name="Path 52029" d="M164.13,47.9V88.622a4.114,4.114,0,0,1-4.114,4.114H140.2a4.114,4.114,0,0,1-4.114-4.114V47.9A4.114,4.114,0,0,1,140.2,43.79h19.813A4.114,4.114,0,0,1,164.13,47.9Z" transform="translate(-136.089 -43.79)" fill="#fff"/>
                  <path id="Path_52030" data-name="Path 52030" d="M144.618,132.424a.576.576,0,0,1-.662.663l-2.153-.356a6.9,6.9,0,0,1-5.712.574V120.28a6.883,6.883,0,0,1,8.171,9.992Z" transform="translate(-136.089 -110.964)" fill="#fff3ee"/>
                  <path id="Path_52031" data-name="Path 52031" d="M307.326,210.735v13.121a6.9,6.9,0,0,1-5.564-.623l-2.153.357a.577.577,0,0,1-.662-.663l.356-2.153a6.882,6.882,0,0,1,8.023-10.039Z" transform="translate(-279.285 -190.83)" fill="#fee"/>
                  <path id="Path_52032" data-name="Path 52032" d="M181.782,110.516h-20.1a1.175,1.175,0,0,1-1.175-1.175v-5.636a1.175,1.175,0,0,1,1.175-1.175h20.1a1.175,1.175,0,0,1,1.175,1.175v5.636A1.176,1.176,0,0,1,181.782,110.516Z" transform="translate(-157.638 -95.625)" fill="#ffd9d9"/>
                  <path id="Path_52033" data-name="Path 52033" d="M182.958,193.545v5.636a1.176,1.176,0,0,1-1.175,1.175h-20.1a1.176,1.176,0,0,1-1.175-1.175v-5.636a1.176,1.176,0,0,1,1.175-1.175h20.1A1.176,1.176,0,0,1,182.958,193.545Z" transform="translate(-157.639 -174.905)" fill="#ffd9d9"/>
                  <path id="Path_52034" data-name="Path 52034" d="M166.167,196.365a.576.576,0,0,1-.662.663l-2.153-.356a6.868,6.868,0,0,1-2.842.914v-4.041a1.176,1.176,0,0,1,1.175-1.175h4.871a6.835,6.835,0,0,1-.745,1.843Z" transform="translate(-157.639 -174.905)" fill="#ffb3b3"/>
                  <path id="Path_52035" data-name="Path 52035" d="M136.085,347.571V356.7a4.093,4.093,0,0,0,.595,2.131h26.851a4.093,4.093,0,0,0,.595-2.131v-9.126Z" transform="translate(-136.085 -311.864)" fill="#ffe8dc"/>
                  <g id="Group_65352" data-name="Group 65352" transform="translate(2.906 35.707)">
                    <g id="Group_65351" data-name="Group 65351">
                      <path id="Path_52036" data-name="Path 52036" d="M160.8,347.571v13.06a4.14,4.14,0,0,0,1.208.18h19.813a4.14,4.14,0,0,0,1.208-.18v-13.06Z" transform="translate(-160.805 -347.571)" fill="#b3b3ff"/>
                    </g>
                  </g>
                  <g id="Group_65353" data-name="Group 65353" transform="translate(2.906)">
                    <path id="Path_52037" data-name="Path 52037" d="M160.8,347.571h22.229v11.257H160.8Z" transform="translate(-160.805 -311.864)" fill="#9494ff"/>
                    <path id="Path_52038" data-name="Path 52038" d="M206.31,43.786H191.233l1.116,2.819a1.175,1.175,0,0,0,1.093.743H204.1a1.176,1.176,0,0,0,1.093-.743Z" transform="translate(-187.657 -43.786)" fill="#9494ff"/>
                  </g>
                </g>
              </g>
              <path id="Path_52039" data-name="Path 52039" d="M131.686,356.007H96.193a1.175,1.175,0,0,1-1.175-1.175v-6.085a1.175,1.175,0,0,1,1.175-1.175h35.493a1.175,1.175,0,0,1,1.175,1.175v6.085A1.176,1.176,0,0,1,131.686,356.007Z" transform="translate(-95.018 -311.864)" fill="#ffab66"/>
            </g>
          </g>
          <g id="Group_65360" data-name="Group 65360" transform="translate(9.657 38.139)">
            <g id="Group_65358" data-name="Group 65358" transform="translate(4.702)">
              <path id="Path_52040" data-name="Path 52040" d="M225.718,369.441h-7.95a.588.588,0,1,1,0-1.175h7.95a.588.588,0,0,1,0,1.175Z" transform="translate(-217.18 -368.266)" fill="#fff3ee"/>
            </g>
            <g id="Group_65359" data-name="Group 65359" transform="translate(0 2.396)">
              <path id="Path_52041" data-name="Path 52041" d="M195.121,389.823H177.768a.588.588,0,1,1,0-1.175h17.354a.588.588,0,1,1,0,1.175Z" transform="translate(-177.18 -388.648)" fill="#fff3ee"/>
            </g>
          </g>
        </g>
        <g id="Group_65364" data-name="Group 65364" transform="translate(51.844 45.5)">
          <g id="Group_65362" data-name="Group 65362" transform="translate(0 0)">
            <path id="Path_52042" data-name="Path 52042" d="M109.319,106.273a6.885,6.885,0,1,0-2.459,2.459l2.153.356a.576.576,0,0,0,.662-.662Z" transform="translate(-96.494 -95.914)" fill="#ffab66"/>
            <path id="Path_52043" data-name="Path 52043" d="M134.225,124.752h.187v1.257h-1.168a.618.618,0,0,0,0,1.235h1.168v.311a.618.618,0,0,0,1.235,0v-.311h.187a1.864,1.864,0,1,0,0-3.728h-.187V122.26h1.168a.618.618,0,0,0,0-1.235h-1.168v-.311a.618.618,0,0,0-1.235,0v.311h-.187a1.864,1.864,0,0,0,0,3.728Zm1.61,0a.629.629,0,1,1,0,1.257h-.187v-1.257Zm-1.61-2.493h.187v1.257h-.187a.629.629,0,1,1,0-1.257Z" transform="translate(-128.145 -117.254)" fill="#fff"/>
          </g>
          <g id="Group_65363" data-name="Group 65363" transform="translate(23.727 10.637)">
            <path id="Path_52044" data-name="Path 52044" d="M299.3,196.768a6.885,6.885,0,1,1,2.459,2.459l-2.153.356a.576.576,0,0,1-.662-.662Z" transform="translate(-298.359 -186.409)" fill="#ff6c6c"/>
            <path id="Path_52045" data-name="Path 52045" d="M336.091,215.246h.187V216.5H335.11a.618.618,0,0,0,0,1.235h1.168v.311a.618.618,0,1,0,1.235,0v-.311h.187a1.864,1.864,0,0,0,0-3.728h-.187v-1.257h1.168a.618.618,0,0,0,0-1.235h-1.168v-.311a.618.618,0,1,0-1.235,0v.311h-.187a1.864,1.864,0,0,0,0,3.728Zm1.61,0a.629.629,0,1,1,0,1.257h-.187v-1.257Zm-1.61-2.493h.187v1.257h-.187a.629.629,0,0,1,0-1.257Z" transform="translate(-330.011 -207.748)" fill="#fff"/>
          </g>
        </g>
        <g id="Group_65365" data-name="Group 65365" transform="translate(51.083 38.785)">
          <path id="Path_52046" data-name="Path 52046" d="M367.262,397.371l-6.709-1.892a.588.588,0,0,0-.725.725l1.892,6.709a.588.588,0,0,0,1.03.2l1.153-1.488,3.174,3.174a.588.588,0,0,0,.831,0l1.241-1.241a.588.588,0,0,0,0-.831l-3.174-3.174,1.488-1.153A.588.588,0,0,0,367.262,397.371Z" transform="translate(-328.094 -353.533)" fill="#9494ff"/>
          <path id="Path_52047" data-name="Path 52047" d="M131.488,87.565l-2.7-2.7.961-.744a1.175,1.175,0,0,0-.4-2.06h0l-.308-.087V76.255a1.765,1.765,0,0,0-1.763-1.763h-3.213v-4.5a7.471,7.471,0,0,0,2.359-12.505,7.334,7.334,0,0,0-2.359-1.444V43.487a4.707,4.707,0,0,0-4.7-4.7H99.547a4.707,4.707,0,0,0-4.7,4.7v1.979a7.328,7.328,0,0,0-2.21,1.384,7.473,7.473,0,0,0,8.62,12.082l1.948.322a1.164,1.164,0,0,0,1.338-1.338l-.322-1.948a7.461,7.461,0,0,0-8.2-10.867V43.487a3.53,3.53,0,0,1,3.526-3.526h19.813a3.53,3.53,0,0,1,3.526,3.526V55.708a7.459,7.459,0,0,0-8.049,10.9l-.322,1.948a1.164,1.164,0,0,0,1.338,1.338l1.948-.322a7.446,7.446,0,0,0,5.086.766v4.157H96.021V61.814a.588.588,0,1,0-1.175,0V74.492H91.781a1.765,1.765,0,0,0-1.763,1.763V82.34A1.765,1.765,0,0,0,91.781,84.1h3.064v.1a4.707,4.707,0,0,0,4.7,4.7h19.813a4.686,4.686,0,0,0,3.454-1.519l.264.937a1.175,1.175,0,0,0,2.06.4l.745-.961,2.7,2.7a1.175,1.175,0,0,0,1.662,0l1.241-1.241a1.175,1.175,0,0,0,0-1.662ZM101.9,47.719a6.331,6.331,0,0,1,1.2,7.842.587.587,0,0,0-.073.394l.354,2.137-2.137-.354a.589.589,0,0,0-.394.073A6.287,6.287,0,1,1,101.9,47.719Zm16.3,20.729a.588.588,0,0,0-.393-.073l-2.137.354.354-2.137a.588.588,0,0,0-.073-.394,6.3,6.3,0,0,1,9.671-7.844,6.3,6.3,0,0,1-7.422,10.093Zm1.153,19.284H99.547a3.53,3.53,0,0,1-3.526-3.526v-.1h23.352a.588.588,0,1,0,0-1.175H91.781a.588.588,0,0,1-.588-.588V76.255a.588.588,0,0,1,.588-.588h35.493a.588.588,0,0,1,.588.588v5.384l-5.226-1.474a1.175,1.175,0,0,0-1.45,1.45l1.227,4.35A3.527,3.527,0,0,1,119.359,87.732Zm10.057,1.9-3.174-3.174a.587.587,0,0,0-.415-.172h-.037a.588.588,0,0,0-.427.227l-1.153,1.488L122.317,81.3l6.709,1.892-1.488,1.153a.588.588,0,0,0-.056.88l3.174,3.174Z" transform="translate(-90.018 -38.785)" fill="#00c"/>
        </g>
        <g id="Group_65373" data-name="Group 65373" transform="translate(59.824 66.975)">
          <g id="Group_65369" data-name="Group 65369" transform="translate(7.755 0)">
            <g id="Group_65366" data-name="Group 65366">
              <path id="Path_52048" data-name="Path 52048" d="M230.951,279.793h1.714a.588.588,0,1,0,0-1.175h-1.714a.588.588,0,1,0,0,1.175Z" transform="translate(-230.363 -278.618)" fill="#6c6cff"/>
            </g>
            <g id="Group_65367" data-name="Group 65367" transform="translate(0 2.161)">
              <path id="Path_52049" data-name="Path 52049" d="M230.951,298.175h5.24a.588.588,0,0,0,0-1.175h-5.24a.588.588,0,0,0,0,1.175Z" transform="translate(-230.363 -297)" fill="#6c6cff"/>
            </g>
            <g id="Group_65368" data-name="Group 65368" transform="translate(0 4.321)">
              <path id="Path_52050" data-name="Path 52050" d="M230.951,316.557h5.24a.588.588,0,1,0,0-1.175h-5.24a.588.588,0,1,0,0,1.175Z" transform="translate(-230.363 -315.382)" fill="#6c6cff"/>
            </g>
          </g>
          <g id="Group_65372" data-name="Group 65372" transform="translate(0 0.235)">
            <g id="Group_65370" data-name="Group 65370">
              <path id="Path_52051" data-name="Path 52051" d="M166.4,285.327h-.627a1.389,1.389,0,0,1-1.387-1.387v-1.934a1.389,1.389,0,0,1,1.387-1.387h.627a1.389,1.389,0,0,1,1.387,1.387v1.934A1.389,1.389,0,0,1,166.4,285.327Zm-.627-3.533a.212.212,0,0,0-.212.212v1.934a.212.212,0,0,0,.212.212h.627a.212.212,0,0,0,.212-.212v-1.934a.212.212,0,0,0-.212-.212Z" transform="translate(-164.385 -280.618)" fill="#ff9d33"/>
            </g>
            <g id="Group_65371" data-name="Group 65371" transform="translate(4.174)">
              <path id="Path_52052" data-name="Path 52052" d="M201.121,285.327a.588.588,0,0,1-.588-.588v-2.946h-.052a.588.588,0,1,1,0-1.175h.64a.588.588,0,0,1,.588.588v3.534A.588.588,0,0,1,201.121,285.327Z" transform="translate(-199.893 -280.618)" fill="#ff9d33"/>
            </g>
          </g>
        </g>
        <path id="Path_52053" data-name="Path 52053" d="M47.719,417.986a.585.585,0,0,1-.416-.172l-1.234-1.234a.587.587,0,0,1,0-.831l1.234-1.234a.588.588,0,0,1,.831,0l1.234,1.234a.587.587,0,0,1,0,.831l-1.234,1.234A.585.585,0,0,1,47.719,417.986Zm-.4-1.822.4.4.4-.4-.4-.4Z" transform="translate(0 -331.414)" fill="#ff9c33"/>
        <path id="Path_52054" data-name="Path 52054" d="M91.84,227.84a.585.585,0,0,1-.416-.172l-1.234-1.234a.587.587,0,0,1,0-.831l1.234-1.234a.587.587,0,0,1,.831,0L93.49,225.6a.587.587,0,0,1,0,.831l-1.234,1.234a.585.585,0,0,1-.416.172Zm-.4-1.822.4.4.4-.4-.4-.4Z" transform="translate(-38.935 -163.618)" fill="#ff6c6c"/>
        <g id="Group_65374" data-name="Group 65374" transform="translate(86.579 46.16)">
          <path id="Path_52055" data-name="Path 52055" d="M394.59,105.054a.587.587,0,0,1-.345-.112l-.417-.3-.417.3a.588.588,0,0,1-.9-.657l.159-.491-.417-.3a.588.588,0,0,1,.346-1.063h.516l.159-.49a.588.588,0,0,1,1.118,0l.159.49h.516a.588.588,0,0,1,.346,1.063l-.417.3.159.491a.588.588,0,0,1-.559.769Z" transform="translate(-392.006 -101.531)" fill="#ff9c33"/>
        </g>
        <g id="Group_65375" data-name="Group 65375" transform="translate(88.753 70.005)">
          <path id="Path_52056" data-name="Path 52056" d="M413.09,307.918a.587.587,0,0,1-.345-.112l-.417-.3-.417.3a.588.588,0,0,1-.9-.657l.159-.491-.417-.3a.588.588,0,0,1,.346-1.063h.516l.159-.491a.588.588,0,0,1,1.118,0l.159.491h.516a.588.588,0,0,1,.346,1.063l-.417.3.159.491a.588.588,0,0,1-.559.769Z" transform="translate(-410.506 -304.395)" fill="#ff9c33"/>
        </g>
        <g id="Group_65376" data-name="Group 65376" transform="translate(47.602 56.25)">
          <path id="Path_52057" data-name="Path 52057" d="M62.982,190.893a.587.587,0,0,1-.345-.112l-.417-.3-.417.3a.588.588,0,0,1-.9-.657l.159-.49-.417-.3a.588.588,0,0,1,.346-1.063H61.5l.159-.491a.588.588,0,0,1,1.118,0l.159.491h.516a.588.588,0,0,1,.346,1.063l-.417.3.159.49a.588.588,0,0,1-.559.769Z" transform="translate(-60.398 -187.37)" fill="#6c6cff"/>
        </g>
      </g>
    </g>
  </g>
</svg>
