<svg xmlns="http://www.w3.org/2000/svg" width="103.722" height="103.739" viewBox="0 0 103.722 103.739">
  <g id="objective-c" transform="translate(0)">
    <path id="Path_21305" data-name="Path 21305" d="M51.719,103.739C23.854,103.739.22,80.2,0,52.137A51.122,51.122,0,0,1,14.933,15.664,51.974,51.974,0,0,1,51.855,0,51.243,51.243,0,0,1,88.233,15.109a51.292,51.292,0,0,1,15.489,36.27,52.115,52.115,0,0,1-51.6,52.341ZM51.864,2.753a49.27,49.27,0,0,0-34.98,14.863A48.423,48.423,0,0,0,2.7,52.149c.206,26.577,22.6,48.867,48.989,48.867h.351a49.4,49.4,0,0,0,48.95-49.606A48.609,48.609,0,0,0,86.3,17.053,48.382,48.382,0,0,0,51.884,2.735Zm-40.25,64.3v-30.3h7.369v2.714H15.074V64.387h3.909V67.1ZM36.651,51.6c0,5.526-3.352,8.673-7.9,8.673s-7.575-3.542-7.575-8.388c0-5.063,3.179-8.634,7.819-8.634s7.637,3.719,7.637,8.347Zm-12.3.244c0,3.352,1.682,6.013,4.574,6.013s4.547-2.714,4.547-6.134c0-3.109-1.534-6.04-4.547-6.04s-4.6,2.836-4.6,6.234Zm14.853-8.021a25.034,25.034,0,0,1,4.372-.367A7.8,7.8,0,0,1,48.3,44.5a3.459,3.459,0,0,1,1.713,3.082A3.833,3.833,0,0,1,47.3,51.152a4.149,4.149,0,0,1,3.323,4.072,4.273,4.273,0,0,1-1.587,3.393c-1.168,1.032-3.109,1.534-6.11,1.534a29.066,29.066,0,0,1-3.693-.217Zm2.987,6.5h1.534c2.076,0,3.245-.976,3.245-2.374S45.8,45.7,43.89,45.7a7.956,7.956,0,0,0-1.713.124Zm0,7.575a13.573,13.573,0,0,0,1.587.068c1.928,0,3.637-.733,3.637-2.714s-1.655-2.714-3.732-2.714H42.194Zm14.36-14.294h3V54.339c0,4.547-2.2,6.068-5.429,6.068a8.648,8.648,0,0,1-2.539-.413l.367-2.415a6.584,6.584,0,0,0,1.86.3c1.713,0,2.714-.784,2.714-3.637Zm11.559,8.917V54.6H61.868V52.523ZM82.67,59.582a10.424,10.424,0,0,1-4.248.733c-5.226,0-8.4-3.272-8.4-8.281a8.277,8.277,0,0,1,8.8-8.7,9.495,9.495,0,0,1,4.072.733l-.665,2.388a8.025,8.025,0,0,0-3.23-.619c-3.352,0-5.769,2.105-5.769,6.068,0,3.612,2.13,5.945,5.742,5.945a8.412,8.412,0,0,0,3.272-.611Zm9.443-22.915V67.05H84.745V64.335h3.909V39.385h-3.93V36.666Z" transform="translate(0 0)" fill="#f1592a"/>
  </g>
</svg>
