<svg xmlns="http://www.w3.org/2000/svg" width="153.428" height="136.115" viewBox="0 0 153.428 136.115">
  <g id="react-native" transform="translate(1.367 1.396)">
    <path id="Path_21961" data-name="Path 21961" d="M24.918,35.39A14.057,14.057,0,1,1,38.975,49.447,14.027,14.027,0,0,1,24.918,35.39Z" transform="translate(36.372 31.139)" fill="#00d8ff" fill-rule="evenodd"/>
    <g id="Group_65422" data-name="Group 65422" transform="translate(0 0)">
      <path id="Path_21962" data-name="Path 21962" d="M75.347,15.428c18.873,0,36.405,2.708,49.626,7.258,15.929,5.483,25.721,13.8,25.721,21.323,0,7.846-10.38,16.674-27.484,22.341-12.93,4.287-29.949,6.521-47.865,6.521-18.369,0-35.764-2.1-48.839-6.567C9.962,60.646,0,51.7,0,44.009,0,36.544,9.352,28.3,25.054,22.822,38.324,18.2,56.289,15.428,75.347,15.428Z" transform="translate(0 22.52)" fill="none" stroke="#00d8ff" stroke-linecap="round" stroke-linejoin="round" stroke-width="2.734" fill-rule="evenodd"/>
      <path id="Path_21963" data-name="Path 21963" d="M32.415,52.322c9.43-16.349,20.533-30.185,31.08-39.364C76.2,1.9,88.3-2.432,94.817,1.328c6.794,3.918,9.258,17.321,5.623,34.969-2.747,13.344-9.312,29.2-18.263,44.722C73,96.931,62.492,110.951,52.09,120.044c-13.164,11.509-25.89,15.673-32.556,11.829-6.466-3.726-8.941-15.948-5.837-32.288,2.622-13.806,9.2-30.751,18.718-47.26Z" transform="translate(18.05 0)" fill="none" stroke="#00d8ff" stroke-linecap="round" stroke-linejoin="round" stroke-width="2.734" fill-rule="evenodd"/>
      <path id="Path_21964" data-name="Path 21964" d="M32.416,80.968C22.962,64.639,16.522,48.1,13.839,34.382,10.6,17.851,12.892,5.213,19.4,1.44c6.789-3.931,19.631.63,33.1,12.593C62.695,23.078,73.156,36.685,82.131,52.19c9.2,15.9,16.1,32,18.784,45.555C104.31,114.9,101.56,128,94.9,131.859c-6.462,3.741-18.283-.219-30.891-11.068C53.363,111.628,41.967,97.463,32.416,80.968Z" transform="translate(18.075 0.09)" fill="none" stroke="#00d8ff" stroke-linecap="round" stroke-linejoin="round" stroke-width="2.734" fill-rule="evenodd"/>
    </g>
  </g>
</svg>
