<svg xmlns="http://www.w3.org/2000/svg" xmlns:xlink="http://www.w3.org/1999/xlink" width="160" height="160" viewBox="0 0 160 160">
  <defs>
    <linearGradient id="linear-gradient" x1="1" y1="0.638" x2="-0.024" y2="0.308" gradientUnits="objectBoundingBox">
      <stop offset="0" stop-color="#fff"/>
      <stop offset="1" stop-color="#cae4fc"/>
    </linearGradient>
    <linearGradient id="linear-gradient-2" x1="0.258" y1="0.258" x2="0.864" y2="0.864" gradientUnits="objectBoundingBox">
      <stop offset="0" stop-color="#31a2fc"/>
      <stop offset="1" stop-color="#04427d"/>
    </linearGradient>
    <linearGradient id="linear-gradient-3" x1="0.576" y1="1.051" x2="0.396" y2="-0.246" gradientUnits="objectBoundingBox">
      <stop offset="0" stop-color="#00aefc" stop-opacity="0"/>
      <stop offset="1" stop-color="#18cffc"/>
    </linearGradient>
    <linearGradient id="linear-gradient-4" x1="0.581" y1="0.581" x2="2.07" y2="1.774" gradientUnits="objectBoundingBox">
      <stop offset="0" stop-color="#e5f3ff"/>
      <stop offset="1" stop-color="#b3ccff"/>
    </linearGradient>
    <linearGradient id="linear-gradient-5" x1="0.251" y1="0.449" x2="1.416" y2="0.585" xlink:href="#linear-gradient-4"/>
    <linearGradient id="linear-gradient-6" x1="0.646" y1="0.368" x2="1.034" y2="-0.39" gradientUnits="objectBoundingBox">
      <stop offset="0" stop-color="#3f3cee" stop-opacity="0"/>
      <stop offset="1" stop-color="#2f43bc"/>
    </linearGradient>
    <linearGradient id="linear-gradient-7" x1="0.66" y1="0.704" x2="0.351" y2="0.349" xlink:href="#linear-gradient-6"/>
    <linearGradient id="linear-gradient-8" x1="-11.915" y1="42.224" x2="-11.268" y2="42.872" gradientUnits="objectBoundingBox">
      <stop offset="0" stop-color="#f9f7fc"/>
      <stop offset="1" stop-color="#f0ddfc"/>
    </linearGradient>
    <linearGradient id="linear-gradient-9" x1="-13.956" y1="50.911" x2="-14.498" y2="50.369" gradientUnits="objectBoundingBox">
      <stop offset="0" stop-color="#e9edf5" stop-opacity="0"/>
      <stop offset="1" stop-color="#fff"/>
    </linearGradient>
    <linearGradient id="linear-gradient-10" x1="-11.712" y1="64.214" x2="-11.024" y2="62.272" gradientUnits="objectBoundingBox">
      <stop offset="0" stop-color="#f0ddfc" stop-opacity="0"/>
      <stop offset="0.289" stop-color="#c8b7e0" stop-opacity="0.29"/>
      <stop offset="0.591" stop-color="#a595c8" stop-opacity="0.592"/>
      <stop offset="0.84" stop-color="#8f81b8" stop-opacity="0.839"/>
      <stop offset="1" stop-color="#8779b3"/>
    </linearGradient>
    <linearGradient id="linear-gradient-11" x1="-11.875" y1="42.2" x2="-11.609" y2="42.582" xlink:href="#linear-gradient-10"/>
    <linearGradient id="linear-gradient-12" x1="-12.143" y1="41.403" x2="-11.496" y2="42.051" xlink:href="#linear-gradient-8"/>
    <linearGradient id="linear-gradient-13" x1="-14.229" y1="49.929" x2="-14.771" y2="49.386" xlink:href="#linear-gradient-9"/>
    <linearGradient id="linear-gradient-14" x1="-11.94" y1="62.968" x2="-11.252" y2="61.026" xlink:href="#linear-gradient-10"/>
    <linearGradient id="linear-gradient-15" x1="-12.103" y1="41.379" x2="-11.837" y2="41.761" xlink:href="#linear-gradient-10"/>
    <linearGradient id="linear-gradient-16" x1="-5.045" y1="37.348" x2="-4.397" y2="37.996" xlink:href="#linear-gradient-8"/>
    <linearGradient id="linear-gradient-17" x1="-5.723" y1="45.069" x2="-6.266" y2="44.528" xlink:href="#linear-gradient-9"/>
    <linearGradient id="linear-gradient-18" x1="-7.355" y1="37.73" x2="-6.31" y2="36.451" xlink:href="#linear-gradient-10"/>
    <linearGradient id="linear-gradient-19" x1="-5.004" y1="37.324" x2="-4.739" y2="37.706" xlink:href="#linear-gradient-10"/>
    <linearGradient id="linear-gradient-20" x1="-4.034" y1="37.766" x2="-3.386" y2="38.414" xlink:href="#linear-gradient-8"/>
    <linearGradient id="linear-gradient-21" x1="-4.512" y1="45.571" x2="-5.054" y2="45.029" xlink:href="#linear-gradient-9"/>
    <linearGradient id="linear-gradient-22" x1="-5.818" y1="38.148" x2="-4.774" y2="36.87" xlink:href="#linear-gradient-10"/>
    <linearGradient id="linear-gradient-23" x1="-3.993" y1="37.743" x2="-3.727" y2="38.124" xlink:href="#linear-gradient-10"/>
    <linearGradient id="linear-gradient-24" x1="-3.065" y1="32.427" x2="-2.849" y2="32.92" gradientUnits="objectBoundingBox">
      <stop offset="0" stop-color="#ffda45"/>
      <stop offset="0.304" stop-color="#ffce3e"/>
      <stop offset="0.856" stop-color="#ffae2b"/>
      <stop offset="1" stop-color="#ffa425"/>
    </linearGradient>
    <linearGradient id="linear-gradient-25" x1="-3.435" y1="40.144" x2="-3.444" y2="38.559" gradientUnits="objectBoundingBox">
      <stop offset="0" stop-color="#ffda45" stop-opacity="0"/>
      <stop offset="1" stop-color="#b53759"/>
    </linearGradient>
    <linearGradient id="linear-gradient-26" x1="6.723" y1="18.928" x2="7.087" y2="19.22" xlink:href="#linear-gradient-24"/>
    <linearGradient id="linear-gradient-27" x1="8.321" y1="21.404" x2="8.304" y2="20.546" xlink:href="#linear-gradient-25"/>
    <linearGradient id="linear-gradient-28" x1="-1.702" y1="16.193" x2="-1.597" y2="17.087" xlink:href="#linear-gradient-24"/>
    <linearGradient id="linear-gradient-29" x1="-1.813" y1="20.471" x2="-1.986" y2="18.361" xlink:href="#linear-gradient-25"/>
    <linearGradient id="linear-gradient-30" x1="-4.395" y1="36.814" x2="-3.547" y2="37.001" xlink:href="#linear-gradient-10"/>
    <linearGradient id="linear-gradient-31" x1="-2.218" y1="20.981" x2="-2.145" y2="21.486" xlink:href="#linear-gradient-25"/>
    <linearGradient id="linear-gradient-32" x1="-0.834" y1="7.282" x2="-0.609" y2="7.701" xlink:href="#linear-gradient-24"/>
    <linearGradient id="linear-gradient-33" x1="-0.927" y1="8.15" x2="-1.342" y2="7.271" xlink:href="#linear-gradient-25"/>
    <linearGradient id="linear-gradient-34" x1="-3.344" y1="16.889" x2="-1.684" y2="16.985" xlink:href="#linear-gradient-25"/>
    <linearGradient id="linear-gradient-35" x1="-1.002" y1="9.623" x2="-0.85" y2="9.868" xlink:href="#linear-gradient-25"/>
    <linearGradient id="linear-gradient-36" x1="0.004" y1="0.682" x2="0.004" y2="0.847" xlink:href="#linear-gradient-4"/>
    <linearGradient id="linear-gradient-37" x1="-0.019" y1="0.808" x2="-0.032" y2="0.574" gradientUnits="objectBoundingBox">
      <stop offset="0" stop-color="#e5f3ff" stop-opacity="0"/>
      <stop offset="1" stop-color="#fff"/>
    </linearGradient>
    <linearGradient id="linear-gradient-38" x1="-0.636" y1="5.181" x2="-1.734" y2="3.698" gradientUnits="objectBoundingBox">
      <stop offset="0" stop-color="#b3ccff" stop-opacity="0"/>
      <stop offset="1" stop-color="#9fb0cb"/>
    </linearGradient>
    <linearGradient id="linear-gradient-39" x1="-7.616" y1="22.538" x2="-6.678" y2="22.746" gradientUnits="objectBoundingBox">
      <stop offset="0" stop-color="#8b788a"/>
      <stop offset="1" stop-color="#6e566e"/>
    </linearGradient>
    <linearGradient id="linear-gradient-40" x1="0.524" y1="0.494" x2="0.366" y2="-0.026" gradientUnits="objectBoundingBox">
      <stop offset="0" stop-color="#8b788a" stop-opacity="0"/>
      <stop offset="1" stop-color="#9e8c92"/>
    </linearGradient>
    <linearGradient id="linear-gradient-41" x1="-13.111" y1="27.976" x2="-13.748" y2="26.954" gradientUnits="objectBoundingBox">
      <stop offset="0" stop-color="#555a66" stop-opacity="0"/>
      <stop offset="1" stop-color="#555a66"/>
    </linearGradient>
    <linearGradient id="linear-gradient-42" x1="-3.14" y1="-0.082" x2="-3.14" y2="0.032" xlink:href="#linear-gradient-4"/>
    <linearGradient id="linear-gradient-43" y1="0.5" x2="1" y2="0.5" gradientUnits="objectBoundingBox">
      <stop offset="0" stop-color="#ff7044"/>
      <stop offset="1" stop-color="#f92814"/>
    </linearGradient>
    <linearGradient id="linear-gradient-44" x1="0.461" y1="0.461" x2="1.012" y2="1.012" xlink:href="#linear-gradient-43"/>
    <linearGradient id="linear-gradient-45" x1="0.289" y1="0.289" x2="0.889" y2="0.889" gradientUnits="objectBoundingBox">
      <stop offset="0" stop-color="#92f37f"/>
      <stop offset="1" stop-color="#4ab272"/>
    </linearGradient>
    <linearGradient id="linear-gradient-46" x1="0.191" y1="0.191" x2="1.053" y2="1.053" xlink:href="#linear-gradient-45"/>
  </defs>
  <g id="Travel" transform="translate(0.293 0.254)">
    <circle id="Ellipse_404" data-name="Ellipse 404" cx="80" cy="80" r="80" transform="translate(-0.293 -0.254)" opacity="0.53" fill="url(#linear-gradient)"/>
    <g id="airplane" transform="translate(20.707 23.746)">
      <circle id="Ellipse_405" data-name="Ellipse 405" cx="55.388" cy="55.388" r="55.388" transform="translate(6.73 1.587)" fill="url(#linear-gradient-2)"/>
      <path id="Path_20877" data-name="Path 20877" d="M123.669,44.377a54.945,54.945,0,0,0-6.028-3.839,54.927,54.927,0,0,0-3.84-6.028c-7.753-10.554-18.1-16.366-29.133-16.366S63.29,23.955,55.537,34.509A54.911,54.911,0,0,0,51.7,40.537a54.891,54.891,0,0,0-6.028,3.839C35.115,52.13,29.3,62.476,29.3,73.509s5.812,21.38,16.366,29.133a54.914,54.914,0,0,0,6.028,3.839,54.911,54.911,0,0,0,3.839,6.028c7.753,10.554,18.1,16.366,29.133,16.366s21.38-5.812,29.133-16.366a54.928,54.928,0,0,0,3.84-6.028,54.889,54.889,0,0,0,6.028-3.839c10.554-7.753,16.366-18.1,16.366-29.133s-5.812-21.379-16.366-29.132Zm-39,81.893c-3.041,0-6.264-4.529-8.812-12.258a75.547,75.547,0,0,0,17.623,0C90.933,121.74,87.71,126.27,84.669,126.27Zm0-14.349a72.052,72.052,0,0,1-9.647-.646A120.276,120.276,0,0,1,71.3,89.719c4.319.309,8.8.468,13.365.468s9.046-.159,13.365-.468a120.261,120.261,0,0,1-3.718,21.556A72.053,72.053,0,0,1,84.669,111.921Zm0-91.171c3.041,0,6.264,4.53,8.812,12.258a75.512,75.512,0,0,0-17.623,0C78.406,25.279,81.629,20.75,84.669,20.75Zm0,14.349a72.057,72.057,0,0,1,9.647.646A120.262,120.262,0,0,1,98.035,57.3c-4.319-.309-8.8-.468-13.365-.468s-9.046.159-13.365.468a120.239,120.239,0,0,1,3.718-21.556,72.054,72.054,0,0,1,9.647-.646ZM70.6,73.509c0-4.647.168-9.2.491-13.58,4.379-.323,8.933-.491,13.58-.491s9.2.167,13.58.491c.323,4.379.491,8.933.491,13.58s-.167,9.2-.491,13.58c-4.379.323-8.933.491-13.58.491s-9.2-.167-13.58-.491C70.766,82.711,70.6,78.157,70.6,73.509ZM68.46,86.875A120.234,120.234,0,0,1,46.9,83.156a72.375,72.375,0,0,1,0-19.294A120.275,120.275,0,0,1,68.46,60.144c-.309,4.319-.468,8.8-.468,13.365S68.151,82.556,68.46,86.875Zm32.418-26.731a120.238,120.238,0,0,1,21.556,3.718,72.375,72.375,0,0,1,0,19.294,120.261,120.261,0,0,1-21.556,3.718c.309-4.319.468-8.8.468-13.366S101.188,64.463,100.879,60.144Zm-.209-2.635a126.57,126.57,0,0,0-3.53-21.324,63.078,63.078,0,0,1,18.569,6.284,63.076,63.076,0,0,1,6.284,18.569A126.594,126.594,0,0,0,100.67,57.509Zm-32,0a126.594,126.594,0,0,0-21.324,3.53A63.077,63.077,0,0,1,53.629,42.47,63.077,63.077,0,0,1,72.2,36.185,126.617,126.617,0,0,0,68.669,57.509Zm-24.5,24.812c-7.729-2.548-12.258-5.771-12.258-8.812s4.529-6.264,12.258-8.812a75.514,75.514,0,0,0,0,17.623Zm24.5,7.189a126.594,126.594,0,0,0,3.53,21.324,63.077,63.077,0,0,1-18.569-6.284A63.077,63.077,0,0,1,47.345,85.98,126.6,126.6,0,0,0,68.669,89.51Zm32,0a126.6,126.6,0,0,0,21.324-3.53,63.076,63.076,0,0,1-6.284,18.569,63.07,63.07,0,0,1-18.569,6.284A126.575,126.575,0,0,0,100.67,89.51Zm24.5-24.812c7.729,2.548,12.258,5.771,12.258,8.812s-4.529,6.264-12.258,8.812a75.543,75.543,0,0,0,0-17.623Zm11.643,2.942c-2.55-2.175-6.593-4.13-12.036-5.8A67.035,67.035,0,0,0,119.8,44.881C128.715,50.684,134.913,58.652,136.814,67.64ZM113.3,38.375A67.048,67.048,0,0,0,96.342,33.4c-1.673-5.443-3.628-9.486-5.8-12.036C99.527,23.266,107.5,29.464,113.3,38.375ZM78.8,21.365c-2.175,2.55-4.13,6.593-5.8,12.036a67.037,67.037,0,0,0-16.957,4.974C61.843,29.464,69.812,23.266,78.8,21.365ZM49.535,44.881a67.047,67.047,0,0,0-4.974,16.957c-5.443,1.673-9.486,3.628-12.036,5.8,1.9-8.988,8.1-16.956,17.01-22.759Zm-17.01,34.5c2.55,2.175,6.593,4.13,12.036,5.8a67.046,67.046,0,0,0,4.974,16.957c-8.912-5.8-15.109-13.771-17.01-22.759ZM56.04,108.644A67.037,67.037,0,0,0,73,113.618c1.673,5.443,3.628,9.486,5.8,12.036C69.812,123.753,61.843,117.555,56.04,108.644Zm34.5,17.01c2.175-2.55,4.13-6.593,5.8-12.036a67.048,67.048,0,0,0,16.957-4.974c-5.8,8.912-13.771,15.109-22.759,17.01ZM119.8,102.138a67.038,67.038,0,0,0,4.974-16.956c5.443-1.673,9.486-3.628,12.036-5.8C134.913,88.367,128.715,96.336,119.8,102.138Z" transform="translate(-22.551 -16.534)" fill="url(#linear-gradient-3)"/>
      <path id="Path_20878" data-name="Path 20878" d="M78.825,31.623A55.567,55.567,0,0,0,47.55,60.488a12.034,12.034,0,0,0-1.088,5.04,12.207,12.207,0,0,0,3.575,8.631l1.132,1.132A27.05,27.05,0,0,0,70.3,83.214a1.941,1.941,0,1,0,0-3.881H64.331a4.982,4.982,0,1,1,0-9.964h4.659a21.064,21.064,0,0,0,14.9-6.17l7.194-7.194a8.353,8.353,0,0,1,5.907-2.447,8.353,8.353,0,0,0,7.521-4.719,5.326,5.326,0,0,0-4.8-7.643H90.43a4.941,4.941,0,0,1-4.941-4.941A4.947,4.947,0,0,0,78.825,31.623Z" transform="translate(-35.757 -26.671)" fill="url(#linear-gradient-4)"/>
      <path id="Path_20879" data-name="Path 20879" d="M396.611,186.786a7.609,7.609,0,0,0-7.445-5.946H377.185a12.844,12.844,0,0,0-12.845,12.845v1.563a11.282,11.282,0,0,0,11.282,11.282,5.736,5.736,0,0,1,5.736,5.736v14.979a3.957,3.957,0,0,0,7.238,2.213,55.059,55.059,0,0,0,8.76-22.929,56,56,0,0,0-.744-19.743Z" transform="translate(-280.395 -141.745)" fill="url(#linear-gradient-5)"/>
      <path id="Path_20880" data-name="Path 20880" d="M128.886,43.4a55.4,55.4,0,0,1-74.323,74.323A55.394,55.394,0,1,0,128.886,43.4Z" transform="translate(-41.991 -35.974)" fill="url(#linear-gradient-6)"/>
      <path id="Path_20881" data-name="Path 20881" d="M177.162,155.584c-2.777-2.777-9.68-.48-22.823,11.795l-7.68-.947-2.481-2.56a3.4,3.4,0,0,0-4.8,0,3.358,3.358,0,0,0-.719,1.071l-1.975-1.987A3.391,3.391,0,0,0,131,164.5l-2.97-.366a2.686,2.686,0,0,0-2.135.851l-5.084,5.084c-.537.537-.534,1.31.005,1.542l15.3,14.952c-4.461,5.189-8.536,10.32-11.665,14.743l-7.617-1.034a1.149,1.149,0,0,0-.926.364l-2.373,2.373c-.458.458-.5,1.115-.086,1.381l5.72,5.551c-.96,2.1-1.225,3.589-.588,4.225L136.9,232.484a55.433,55.433,0,0,0,67.527-49.639Z" transform="translate(-87.089 -121.496)" fill="url(#linear-gradient-7)"/>
      <circle id="Ellipse_406" data-name="Ellipse 406" cx="3.395" cy="3.395" r="3.395" transform="translate(43.797 40.466)" fill="url(#linear-gradient-8)"/>
      <circle id="Ellipse_407" data-name="Ellipse 407" cx="2.834" cy="2.834" r="2.834" transform="translate(44.359 41.027)" fill="url(#linear-gradient-9)"/>
      <path id="Path_20882" data-name="Path 20882" d="M196.706,196.865a3.4,3.4,0,0,1-6.443,0,3.4,3.4,0,1,0,6.443,0Z" transform="translate(-146.292 -154.078)" fill="url(#linear-gradient-10)"/>
      <circle id="Ellipse_408" data-name="Ellipse 408" cx="3.395" cy="3.395" r="3.395" transform="translate(43.797 40.466)" fill="url(#linear-gradient-11)"/>
      <path id="Path_20883" data-name="Path 20883" d="M228.42,196.562a3.4,3.4,0,1,1,0-4.8A3.4,3.4,0,0,1,228.42,196.562Z" transform="translate(-171.33 -149.384)" fill="url(#linear-gradient-12)"/>
      <circle id="Ellipse_409" data-name="Ellipse 409" cx="2.834" cy="2.834" r="2.834" transform="translate(51.855 41.944)" fill="url(#linear-gradient-13)"/>
      <path id="Path_20884" data-name="Path 20884" d="M229.241,200.843a3.4,3.4,0,0,1-6.443,0,3.4,3.4,0,1,0,6.443,0Z" transform="translate(-171.331 -157.139)" fill="url(#linear-gradient-14)"/>
      <path id="Path_20885" data-name="Path 20885" d="M228.42,196.562a3.4,3.4,0,1,1,0-4.8A3.4,3.4,0,0,1,228.42,196.562Z" transform="translate(-171.33 -149.384)" fill="url(#linear-gradient-15)"/>
      <circle id="Ellipse_410" data-name="Ellipse 410" cx="3.395" cy="3.395" r="3.395" transform="translate(76.905 73.574)" fill="url(#linear-gradient-16)"/>
      <circle id="Ellipse_411" data-name="Ellipse 411" cx="2.834" cy="2.834" r="2.834" transform="translate(77.467 74.135)" fill="url(#linear-gradient-17)"/>
      <path id="Path_20886" data-name="Path 20886" d="M338.253,330.659a3.4,3.4,0,0,0,0,6.443,3.4,3.4,0,1,1,0-6.443Z" transform="translate(-256.879 -256.912)" fill="url(#linear-gradient-18)"/>
      <circle id="Ellipse_412" data-name="Ellipse 412" cx="3.395" cy="3.395" r="3.395" transform="translate(76.905 73.574)" fill="url(#linear-gradient-19)"/>
      <path id="Path_20887" data-name="Path 20887" d="M330.8,298.944a3.4,3.4,0,1,0,4.8,0A3.4,3.4,0,0,0,330.8,298.944Z" transform="translate(-253.818 -231.872)" fill="url(#linear-gradient-20)"/>
      <circle id="Ellipse_413" data-name="Ellipse 413" cx="2.834" cy="2.834" r="2.834" transform="translate(76.55 66.639)" fill="url(#linear-gradient-21)"/>
      <path id="Path_20888" data-name="Path 20888" d="M334.276,298.124a3.4,3.4,0,0,0,0,6.443,3.4,3.4,0,1,1,0-6.443Z" transform="translate(-253.818 -231.873)" fill="url(#linear-gradient-22)"/>
      <path id="Path_20889" data-name="Path 20889" d="M330.8,298.944a3.4,3.4,0,1,0,4.8,0A3.4,3.4,0,0,0,330.8,298.944Z" transform="translate(-253.818 -231.872)" fill="url(#linear-gradient-23)"/>
      <path id="Path_20890" data-name="Path 20890" d="M113.448,357.164l7.278,4.676L128,354.563l-11.17-1.516a1.149,1.149,0,0,0-.926.364l-2.373,2.373C113.076,356.242,113.035,356.9,113.448,357.164Z" transform="translate(-87.089 -274.269)" fill="url(#linear-gradient-24)"/>
      <path id="Path_20891" data-name="Path 20891" d="M114.244,360.628l-.71.71c-.458.458-.5,1.115-.086,1.381l7.278,4.676,5.614-5.614-11.17-1.516A1.15,1.15,0,0,0,114.244,360.628Z" transform="translate(-87.09 -279.824)" fill="url(#linear-gradient-25)"/>
      <path id="Path_20892" data-name="Path 20892" d="M163.486,387.028l-4.676-7.278,7.277-7.277,1.516,11.17a1.15,1.15,0,0,1-.364.926l-2.373,2.373C164.408,387.4,163.751,387.441,163.486,387.028Z" transform="translate(-122.22 -289.225)" fill="url(#linear-gradient-26)"/>
      <path id="Path_20893" data-name="Path 20893" d="M165.576,391.786l-.71.71c-.458.458-1.115.5-1.381.086L158.81,385.3l5.614-5.614,1.516,11.17A1.149,1.149,0,0,1,165.576,391.786Z" transform="translate(-122.22 -294.779)" fill="url(#linear-gradient-27)"/>
      <path id="Path_20894" data-name="Path 20894" d="M145.018,203.658l23.158,9.981,13.793-13.793-29.737-3.665a2.686,2.686,0,0,0-2.135.851l-5.084,5.084C144.476,202.652,144.479,203.425,145.018,203.658Z" transform="translate(-111.293 -153.541)" fill="url(#linear-gradient-28)"/>
      <path id="Path_20895" data-name="Path 20895" d="M146.819,211.254l-1.807,1.807c-.537.537-.534,1.31.005,1.542l23.158,9.981,10.516-10.516L148.955,210.4A2.686,2.686,0,0,0,146.819,211.254Z" transform="translate(-111.292 -164.486)" fill="url(#linear-gradient-29)"/>
      <path id="Path_20896" data-name="Path 20896" d="M160.054,211.77l-11.1-1.368a2.687,2.687,0,0,0-2.135.851l-1.807,1.807c-.537.537-.534,1.31.005,1.542l8.529,3.676Z" transform="translate(-111.292 -164.485)" fill="url(#linear-gradient-30)"/>
      <path id="Path_20897" data-name="Path 20897" d="M145.018,216.071l23.158,9.981,4.743-4.743L147.246,212.3l-2.233,2.233C144.476,215.066,144.479,215.839,145.018,216.071Z" transform="translate(-111.293 -165.954)" fill="url(#linear-gradient-31)"/>
      <path id="Path_20898" data-name="Path 20898" d="M288.029,280.246l-9.98-23.158,13.793-13.793,3.665,29.737a2.686,2.686,0,0,1-.851,2.135l-5.084,5.084C289.035,280.788,288.262,280.785,288.029,280.246Z" transform="translate(-213.985 -189.81)" fill="url(#linear-gradient-32)"/>
      <path id="Path_20899" data-name="Path 20899" d="M291.379,289.389l-1.807,1.807c-.537.537-1.31.534-1.542-.005l-9.98-23.158,10.516-10.516,3.665,29.737A2.687,2.687,0,0,1,291.379,289.389Z" transform="translate(-213.985 -200.755)" fill="url(#linear-gradient-33)"/>
      <path id="Path_20900" data-name="Path 20900" d="M311.922,338.408l1.368,11.1a2.686,2.686,0,0,1-.851,2.135l-1.807,1.807c-.537.537-1.31.534-1.542-.005l-3.676-8.529Z" transform="translate(-235.046 -263.009)" fill="url(#linear-gradient-34)"/>
      <path id="Path_20901" data-name="Path 20901" d="M288.029,310.474l-9.98-23.158,4.743-4.743,9.012,25.674-2.233,2.233C289.035,311.016,288.262,311.014,288.029,310.474Z" transform="translate(-213.985 -220.038)" fill="url(#linear-gradient-35)"/>
      <path id="Path_20902" data-name="Path 20902" d="M177.828,183.026c-16.177,16.177-39.229,34.225-42.315,31.139s14.962-26.137,31.139-42.315S191.01,152.5,194.1,155.582,194.005,166.849,177.828,183.026Z" transform="translate(-104.023 -121.494)" fill="url(#linear-gradient-36)"/>
      <path id="Path_20903" data-name="Path 20903" d="M181.686,188.127C166.3,203.515,144.625,220.933,142,218.309s14.794-24.3,30.182-39.685,22.916-18.661,25.54-16.037-.65,10.153-16.037,25.541Z" transform="translate(-109.08 -127.069)" fill="url(#linear-gradient-37)"/>
      <path id="Path_20904" data-name="Path 20904" d="M178.989,186.553c16.177-16.177,19.354-24.358,16.268-27.444l-58.583,58.583C139.76,220.778,162.812,202.73,178.989,186.553Z" transform="translate(-105.184 -125.021)" fill="url(#linear-gradient-38)"/>
      <path id="Path_20905" data-name="Path 20905" d="M320.061,182.773q-1.486,1.294-3.121,2.789c-.279.255-.253.651.048.706a8.831,8.831,0,0,1,7.356,7.356c.054.3.45.327.706.048q1.5-1.635,2.789-3.121a2.489,2.489,0,0,0,.65-2.208,8.747,8.747,0,0,0-6.221-6.221A2.488,2.488,0,0,0,320.061,182.773Z" transform="translate(-243.767 -142.684)" fill="url(#linear-gradient-39)"/>
      <path id="Path_20906" data-name="Path 20906" d="M333.252,194.1q-1.137,1.31-2.433,2.733l-.355.389c-.256.279-.652.253-.707-.048a9.046,9.046,0,0,0-2.479-4.878c-.078-.078-.157-.154-.237-.226a8.843,8.843,0,0,0-3.26-1.905q1.635-1.49,3.113-2.779a2.485,2.485,0,0,1,2.207-.65,9.214,9.214,0,0,1,2.295.979c.081.074.159.15.237.228A8.875,8.875,0,0,1,333.9,191.9,2.485,2.485,0,0,1,333.252,194.1Z" transform="translate(-249.18 -146.237)" fill="url(#linear-gradient-40)"/>
      <path id="Path_20907" data-name="Path 20907" d="M341.441,201.418c.054.3.45.327.706.048q1.5-1.635,2.789-3.121a2.489,2.489,0,0,0,.65-2.208,8.885,8.885,0,0,0-2.271-3.949l-4.354,4.353A9.061,9.061,0,0,1,341.441,201.418Z" transform="translate(-260.863 -150.479)" fill="url(#linear-gradient-41)"/>
      <path id="Path_20908" data-name="Path 20908" d="M157.863,358.478l-.487-.487a1.22,1.22,0,0,1,.3-1.7l8.409-7.527a.725.725,0,1,1,1,1l-7.527,8.409A1.22,1.22,0,0,1,157.863,358.478Z" transform="translate(-120.936 -270.757)" fill="url(#linear-gradient-42)"/>
      <path id="Path_20909" data-name="Path 20909" d="M7.362,116.084A10.691,10.691,0,0,1,5.97,116a1.034,1.034,0,0,1-.864-1.3l.461-1.665a1.026,1.026,0,0,1,1.086-.751,11.308,11.308,0,0,0,3.415-.3,1.031,1.031,0,0,1,1.215.739l.444,1.651a1.036,1.036,0,0,1-.782,1.278,16.689,16.689,0,0,1-3.584.436Zm8.268-3.036-.639-1.583a1.03,1.03,0,0,1,.549-1.333c1.159-.5,2.386-1.082,3.665-1.742a1.032,1.032,0,0,1,1.383.43l.8,1.506a1.034,1.034,0,0,1-.44,1.4c-1.378.711-2.7,1.34-3.961,1.88a1.03,1.03,0,0,1-1.361-.564Zm-13.968-1.32a1.031,1.031,0,0,1-1.405-.7A9.8,9.8,0,0,1,0,108.722a15.682,15.682,0,0,1,.285-2.845,1.035,1.035,0,0,1,1.255-.821l1.663.4a1.03,1.03,0,0,1,.776,1.184,11.807,11.807,0,0,0-.209,2.087,6.447,6.447,0,0,0,.1,1.184,1.031,1.031,0,0,1-.609,1.145Zm23.267-3.392-.87-1.469a1.029,1.029,0,0,1,.35-1.405c1.139-.69,2.313-1.431,3.508-2.212a1.031,1.031,0,0,1,1.422.293l.946,1.421a1.033,1.033,0,0,1-.3,1.437c-1.237.809-2.454,1.577-3.636,2.293A1.032,1.032,0,0,1,24.929,108.336Zm10.138-5.415a1.033,1.033,0,0,1-1.445-.244m-29.252-.949-1.593-.613a1.031,1.031,0,0,1-.586-1.353c.521-1.263,1.135-2.6,1.836-3.992a1.034,1.034,0,0,1,1.4-.453l1.514.789a1.032,1.032,0,0,1,.443,1.378c-.647,1.286-1.214,2.516-1.692,3.674a1.029,1.029,0,0,1-1.323.569Zm4.5-9.106-1.475-.86a1.031,1.031,0,0,1-.367-1.419l.028-.047a1.033,1.033,0,0,1,1.424-.353l1.457.889a1.032,1.032,0,0,1,.347,1.41l-.011.018A1.03,1.03,0,0,1,8.866,92.622ZM91.824,44.344l-1.4-.979a1.031,1.031,0,0,1-.259-1.429c.808-1.171,1.582-2.328,2.311-3.457a1.03,1.03,0,0,1,1.417-.308l1.441.915a1.032,1.032,0,0,1,.313,1.432c-.753,1.164-1.55,2.357-2.383,3.564A1.033,1.033,0,0,1,91.824,44.344Zm5.624-8.717-1.473-.862a1.031,1.031,0,0,1-.375-1.4c.712-1.247,1.363-2.457,1.945-3.614a1.029,1.029,0,0,1,1.368-.463l1.537.743a1.031,1.031,0,0,1,.474,1.392c-.617,1.226-1.3,2.506-2.056,3.823a1.035,1.035,0,0,1-1.42.382Zm4.639-9.341-1.59-.62a1.034,1.034,0,0,1-.594-1.314,24.13,24.13,0,0,0,1.034-3.688,1.027,1.027,0,0,1,1.132-.831l1.7.2a1.031,1.031,0,0,1,.9,1.2,27.836,27.836,0,0,1-1.231,4.44A1.033,1.033,0,0,1,102.087,26.285ZM88.04,16.591l-.706-1.555a1.032,1.032,0,0,1,.529-1.374,40.206,40.206,0,0,1,4.2-1.558,1.033,1.033,0,0,1,1.3.725l.433,1.652a1.028,1.028,0,0,1-.691,1.246,36.389,36.389,0,0,0-3.713,1.383A1.032,1.032,0,0,1,88.04,16.591Zm13.652-.264a1.017,1.017,0,0,1-1.177-.321,2.181,2.181,0,0,0-.2-.233,3.788,3.788,0,0,0-2.738-.843h-.035V13.045l0-.8a1.031,1.031,0,0,1,1.13-1.026,6.872,6.872,0,0,1,4.308,1.891,6.007,6.007,0,0,1,.863,1.093,1.031,1.031,0,0,1-.513,1.5Z" transform="translate(0 -11.16)" fill="url(#linear-gradient-43)"/>
      <circle id="Ellipse_414" data-name="Ellipse 414" cx="3.22" cy="3.22" r="3.22" transform="translate(34.923 12.323)" fill="url(#linear-gradient-44)"/>
      <circle id="Ellipse_415" data-name="Ellipse 415" cx="3.22" cy="3.22" r="3.22" transform="translate(17.769 36.156)" fill="url(#linear-gradient-45)"/>
      <circle id="Ellipse_416" data-name="Ellipse 416" cx="3.22" cy="3.22" r="3.22" transform="translate(105.558 44.391)" fill="url(#linear-gradient-46)"/>
    </g>
  </g>
</svg>
