<svg id="adobe-illustrator" xmlns="http://www.w3.org/2000/svg" width="102.081" height="99.5" viewBox="0 0 102.081 99.5">
  <g id="Group_65221" data-name="Group 65221">
    <path id="Path_21329" data-name="Path 21329" d="M1.946,1.934H95.515V92.949H1.946Z" transform="translate(2.31 2.295)" fill="#261300"/>
    <path id="Path_21330" data-name="Path 21330" d="M0,0V99.5H102.081V0ZM4.253,4.253H97.823V95.269H4.256Zm31.177,52.1-3.359,12.76c-.087.341-.212.424-.639.424H25.179c-.424,0-.51-.127-.424-.639l12.08-42.276a13.7,13.7,0,0,0,.424-3.53c0-.3.127-.424.341-.424h8.931c.3,0,.424.087.51.424l13.525,45.89c.087.341,0,.553-.341.553H53.161c-.341,0-.553-.087-.639-.383l-3.53-12.8Zm11.824-6.888-5.06-19.987h-.087c-.892,4.977-3.149,13.4-4.933,19.987ZM66.39,25.813a4.339,4.339,0,0,1,8.677,0,4.065,4.065,0,0,1-4.424,4.339,4,4,0,0,1-4.253-4.339Zm.51,9.655c0-.341.127-.51.51-.51h6.676c.341,0,.51.127.51.51V69.025c0,.341-.087.51-.51.51H67.492c-.424,0-.553-.212-.553-.553V35.47Z" fill="#ff7c00"/>
  </g>
</svg>
