<svg xmlns="http://www.w3.org/2000/svg" width="101.775" height="98.103" viewBox="0 0 101.775 98.103">
  <g id="jquery-icon" transform="translate(0)">
    <path id="Path_21289" data-name="Path 21289" d="M6.463,23.023c-9.006,12.951-7.892,29.8-1.006,43.6.159.331.334.656.5.98l.318.621c.064.121.134.239.2.356.118.223.239.426.36.643L7.5,70.345l.375.617.764,1.193.325.5,1.1,1.591.216.293q.492.676,1.006,1.337l.382.484.929,1.146.356.426c.423.5.859,1,1.3,1.48a.983.983,0,0,1,.076.083l1.317,1.387.423.426,1.05,1.031.43.414q.709.668,1.442,1.311L20.566,85.4l.541.433,1.091.853.582.446,1.225.878.573.4c.391.27.789.528,1.19.786l.516.344q.921.585,1.862,1.139l.516.318,1.4.783c.255.137.516.267.773.4l1,.519.232.111.414.2,1.585.732.334.15q.919.4,1.849.767l.446.178,1.744.646.223.076q.966.333,1.941.636l.471.14a16.33,16.33,0,0,0,2,.566c43.577,7.946,56.229-26.189,56.229-26.189-10.628,13.849-29.5,17.5-47.415,13.435-.678-.153-1.337-.363-2-.56l-.5-.15q-.967-.3-1.922-.627l-.264-.1-1.693-.627-.477-.191q-.923-.363-1.83-.764l-.366-.159L41.3,80.258l-.446-.213c-.4-.191-.8-.4-1.193-.636l-.8-.414c-.484-.255-.955-.528-1.432-.8l-.484-.27q-.94-.554-1.862-1.139c-.169-.108-.334-.223-.5-.334l-1.324-.881a4.12,4.12,0,0,1-.426-.3l-1.254-.907-.557-.42-1.13-.885-.5-.4L27.99,71.465c-.051-.045-.105-.088-.159-.127l-1.48-1.346-.414-.4-1.056-1.05-.414-.414q-.662-.667-1.273-1.381a.665.665,0,0,1-.064-.07q-.675-.742-1.324-1.508l-.318-.414-.955-1.177-.318-.436-1.1-1.464C9.129,48.146,5.559,29.442,13.5,14.1m20.939-1.989c-6.517,9.378-6.164,21.957-1.082,31.847a41.553,41.553,0,0,0,2.883,4.811,22.847,22.847,0,0,0,3.354,4.188c.471.519.961,1.018,1.464,1.518l.382.382q.73.711,1.492,1.387c.022.016.038.038.064.054.579.509,1.165.955,1.76,1.457l.395.309q.895.69,1.827,1.333l.054.038c.274.191.554.366.834.551.134.086.261.178.395.261q.667.428,1.352.827l.191.111,1.2.636c.14.08.318.146.426.223l.837.433c.041.022.086.038.127.057q.862.43,1.744.811l.382.159q.711.3,1.432.579l.611.223,1.314.455.6.191a15.817,15.817,0,0,0,1.9.551c33.645,5.575,41.413-20.366,41.413-20.366-7,10.088-20.557,14.893-35.029,11.138q-.959-.253-1.906-.551c-.191-.057-.382-.121-.573-.185l-1.337-.458-.636-.223q-.721-.279-1.432-.579l-.388-.159q-.888-.386-1.757-.815l-.881-.446-.509-.261c-.374-.2-.746-.412-1.114-.627l-.267-.15q-.683-.4-1.349-.827c-.137-.086-.27-.181-.407-.27l-.875-.579q-.924-.64-1.814-1.33l-.414-.318A40.389,40.389,0,0,1,37.346,28.92c-2.5-8.035-1.963-17.057,2.371-24.376m18.24-.582A19.62,19.62,0,0,0,56.4,22.88,26.77,26.77,0,0,0,71.7,37.2l.834.318.369.115,1.2.318c18.578,3.59,23.612-9.534,24.958-11.465-4.414,6.355-11.831,7.879-20.932,5.671-.719-.175-1.508-.436-2.2-.681a26.921,26.921,0,0,1-2.616-1.085,27.052,27.052,0,0,1-4.586-2.8C60.579,21.416,55.519,9.6,60.834,0" transform="translate(0)" fill="#0868ac"/>
  </g>
</svg>
