<svg xmlns="http://www.w3.org/2000/svg" xmlns:xlink="http://www.w3.org/1999/xlink" width="159" height="160" viewBox="0 0 159 160">
  <defs>
    <linearGradient id="linear-gradient" x1="1" y1="0.638" x2="-0.024" y2="0.308" gradientUnits="objectBoundingBox">
      <stop offset="0" stop-color="#fff"/>
      <stop offset="1" stop-color="#cae4fc"/>
    </linearGradient>
  </defs>
  <g id="Less" transform="translate(-94 -66)">
    <ellipse id="Ellipse_404" data-name="Ellipse 404" cx="79.5" cy="80" rx="79.5" ry="80" transform="translate(94 66)" opacity="0.53" fill="url(#linear-gradient)"/>
    <g id="less_1_" data-name="less (1)" transform="translate(129 127)">
      <path id="Path_21347" data-name="Path 21347" d="M3.783,24.109c0-1.513-.973-3.134-3.783-3.242V17.075c2.8-.108,3.783-1.73,3.783-3.242,0-2.7-.432-4.43-.432-7.565C3.351,1.513,5.081,0,8.971,0H19.346V3.458h-8.43c-1.837,0-2.378.648-2.378,3.026l.216,7.133c0,3.35-1.08,4.647-3.242,5.188v.216c2.162.54,3.242,1.837,3.242,5.188l-.216,7.133c0,2.378.54,3.134,2.378,3.134h.865v3.35h-2.8c-3.9,0-5.62-1.513-5.62-6.268,0-3.134.432-4.755.432-7.457ZM12.97.332h6.485V24.649c0,1.405.648,1.837,1.2,1.837a2.116,2.116,0,0,0,.757-.108l.757,4.755a8.383,8.383,0,0,1-3.242.54c-4.43,0-5.944-2.918-5.944-7.35Zm18.265,8.43c6.16,0,9.3,4.54,9.3,10.483a14.822,14.822,0,0,1-.216,2.7H27.02c.54,3.35,2.8,4.755,5.728,4.755A8.945,8.945,0,0,0,37.5,25.3l2.162,3.9a14.734,14.734,0,0,1-7.782,2.486c-6.268,0-11.024-4.215-11.024-11.456C20.751,13.2,25.939,8.771,31.234,8.771Zm3.783,9.187c0-2.486-1.08-4.323-3.675-4.323-2.053,0-3.783,1.405-4.215,4.323Zm9.187,6.7a9.186,9.186,0,0,0,5.62,2.27c1.945,0,2.8-.757,2.8-1.837,0-1.405-2.162-2.162-4.43-3.026-2.594-.973-5.728-2.8-5.728-6.377,0-4,3.35-6.8,8.322-6.8a12.415,12.415,0,0,1,7.673,2.8l-2.918,3.9A7.634,7.634,0,0,0,50.9,13.742c-1.621,0-2.486.648-2.486,1.73,0,1.405,2.053,1.945,4.323,2.8,2.8.973,5.944,2.594,5.944,6.593s-3.134,7.025-8.97,7.025a13.877,13.877,0,0,1-8.322-3.026Zm17.617,0a9.186,9.186,0,0,0,5.62,2.27c1.945,0,2.8-.757,2.8-1.837,0-1.405-2.162-2.162-4.43-3.026-2.594-.973-5.728-2.8-5.728-6.377,0-4,3.35-6.8,8.322-6.8a12.415,12.415,0,0,1,7.673,2.8l-2.918,3.9a7.634,7.634,0,0,0-4.647-1.837c-1.621,0-2.486.648-2.486,1.73,0,1.405,2.053,1.945,4.215,2.8,2.8.973,5.944,2.594,5.944,6.593s-3.134,7.025-8.97,7.025A13.877,13.877,0,0,1,58.9,28.864Zm15.994,9.726c1.837,0,2.378-.648,2.378-3.134,0-2.378-.216-4.54-.216-7.133,0-3.35,1.08-4.647,3.242-5.188V18.7c-2.162-.54-3.242-1.837-3.242-5.188,0-2.594.216-4.863.216-7.133,0-2.378-.432-3.026-2.378-3.026h-.865V.007h2.8c3.9,0,5.62,1.513,5.62,6.268,0,3.026-.432,4.755-.432,7.565,0,1.513.973,3.134,3.783,3.242v3.793c-2.8.108-3.783,1.73-3.783,3.242,0,2.8.432,4.43.432,7.565,0,4.755-1.73,6.268-5.62,6.268h-2.8V34.475Z" fill="#214674"/>
    </g>
  </g>
</svg>
