<svg xmlns="http://www.w3.org/2000/svg" xmlns:xlink="http://www.w3.org/1999/xlink" width="159" height="160" viewBox="0 0 159 160">
  <defs>
    <linearGradient id="linear-gradient" x1="1" y1="0.638" x2="-0.024" y2="0.308" gradientUnits="objectBoundingBox">
      <stop offset="0" stop-color="#fff"/>
      <stop offset="1" stop-color="#cae4fc"/>
    </linearGradient>
  </defs>
  <g id="Sass" transform="translate(-94 -66)">
    <ellipse id="Ellipse_404" data-name="Ellipse 404" cx="79.5" cy="80" rx="79.5" ry="80" transform="translate(94 66)" opacity="0.53" fill="url(#linear-gradient)"/>
    <g id="sass-icon" transform="translate(126 110)">
      <path id="Path_21346" data-name="Path 21346" d="M81.785,40.885a19.579,19.579,0,0,0-8.61,2,17.727,17.727,0,0,1-1.93-4.453,12.316,12.316,0,0,1-.168-3.748,29.908,29.908,0,0,1,1.133-4.045c-.018-.168-.2-.984-2.115-1s-3.563.371-3.748.873a21.332,21.332,0,0,0-.8,2.84c-.334,1.744-3.822,7.924-5.809,11.172a11.374,11.374,0,0,1-1.318-3.266,12.316,12.316,0,0,1-.168-3.748,29.908,29.908,0,0,1,1.133-4.045c-.018-.168-.2-.984-2.115-1s-3.563.371-3.748.873-.39,1.689-.8,2.84c-.39,1.15-5.029,11.469-6.235,14.159q-.72,1.629-1.541,3.211c-.39.742-.018.056-.055.131l-.52.984v.018c-.26.465-.539.91-.668.91a6.192,6.192,0,0,1,.037-2.951c.687-3.582,2.357-9.168,2.338-9.371,0-.092.316-1.076-1.076-1.578a1.69,1.69,0,0,0-1.949.334c-.111,0-.2.3-.2.3s1.5-6.291-2.877-6.291c-2.746,0-6.532,2.988-8.406,5.715L22.1,46.921l-.2-.223c-5.3-5.665-15.121-9.673-14.711-17.279C7.335,26.653,8.3,19.36,26.039,10.528c14.53-7.237,26.166-5.252,28.2-.836C57.12,16,48.027,27.728,32.921,29.435c-5.752.65-8.778-1.578-9.539-2.412-.8-.873-.91-.91-1.207-.742-.482.26-.186,1.039,0,1.5.445,1.17,2.3,3.248,5.455,4.287,2.766.91,9.52,1.41,17.686-1.744,9.149-3.545,16.293-13.379,14.2-21.6C57.359.344,43.48-2.4,30.36,2.255,22.564,5.021,14.1,9.376,8.016,15.073.765,21.827-.386,27.73.1,30.179c1.689,8.74,13.731,14.438,18.556,18.651l-.668.371c-2.412,1.188-11.6,5.994-13.9,11.078-2.6,5.752.408,9.891,2.412,10.448,6.2,1.726,12.544-1.373,15.977-6.477,3.414-5.1,3.006-11.727,1.43-14.752l-.056-.111,1.893-1.113c1.225-.724,2.432-1.392,3.488-1.967a23.1,23.1,0,0,0-1.244,6.309c-.26,3.266,1.076,7.5,2.84,9.168a3.138,3.138,0,0,0,2.283.742c2.041,0,2.969-1.689,3.99-3.711,1.262-2.469,2.375-5.326,2.375-5.326s-1.392,7.738,2.412,7.738c1.392,0,2.783-1.8,3.414-2.728v.018s.037-.056.111-.186c.148-.223.223-.353.223-.353V57.94c.557-.965,1.8-3.174,3.656-6.828,2.394-4.713,4.7-10.614,4.7-10.614a33.8,33.8,0,0,0,.91,3.822,36.466,36.466,0,0,0,1.986,4.453L55.989,50l.018.019q-.713.944-1.467,1.856c-1.893,2.264-4.156,4.844-4.453,5.586A1.527,1.527,0,0,0,50.5,59.5a3.715,3.715,0,0,0,2.338.371,10.412,10.412,0,0,0,3.488-.8,12.083,12.083,0,0,0,3.006-1.578,6.7,6.7,0,0,0,2.877-5.92,11.9,11.9,0,0,0-1.1-4.176l.5-.742a78.355,78.355,0,0,0,5.2-9,33.8,33.8,0,0,0,.91,3.822A26.873,26.873,0,0,0,69.406,45.3a16.506,16.506,0,0,0-5.066,6.551c-1.1,3.154-.242,4.584,1.373,4.918a4.941,4.941,0,0,0,2.543-.52A11.519,11.519,0,0,0,71.466,54.6c1.856-1.373,3.637-3.285,3.545-5.864a11.246,11.246,0,0,0-.8-3.471,18.086,18.086,0,0,1,9.2-1.058c8.258.965,9.891,6.123,9.575,8.276a5.544,5.544,0,0,1-2.617,3.711c-.576.353-.762.482-.705.742.074.39.334.371.836.3a6.423,6.423,0,0,0,4.49-5.734c.223-5.1-4.621-10.67-13.212-10.614ZM18.11,62.358c-2.728,2.988-6.569,4.119-8.2,3.154-1.764-1.021-1.076-5.418,2.283-8.592a43.726,43.726,0,0,1,6.44-4.807l1.689-1.021a1.928,1.928,0,0,1,.186-.111c.131-.074.279-.168.428-.26a11.834,11.834,0,0,1-2.82,11.635ZM38.061,48.793c-.947,2.32-2.951,8.276-4.156,7.942-1.039-.279-1.67-4.787-.2-9.242a20.623,20.623,0,0,1,3.248-5.957c1.5-1.67,3.137-2.227,3.545-1.541.482.891-1.838,7.348-2.432,8.8Zm16.46,7.868c-.408.2-.779.353-.947.242-.131-.074.168-.353.168-.353s2.06-2.209,2.877-3.229l1.615-2.06v.223c0,2.672-2.561,4.453-3.711,5.178Zm12.692-2.895c-.3-.223-.26-.91.742-3.062a11.484,11.484,0,0,1,2.82-3.637,4.617,4.617,0,0,1,.279,1.6A5.224,5.224,0,0,1,67.213,53.766Z" transform="translate(0 0)" fill="#cf649a"/>
    </g>
  </g>
</svg>
