<svg xmlns="http://www.w3.org/2000/svg" xmlns:xlink="http://www.w3.org/1999/xlink" width="611" height="450" viewBox="0 0 611 450">
  <defs>
    <filter id="Path_292" x="77.055" y="89.786" width="423.032" height="316.226" filterUnits="userSpaceOnUse">
      <feOffset input="SourceAlpha"/>
      <feGaussianBlur stdDeviation="3" result="blur"/>
      <feFlood flood-opacity="0.161"/>
      <feComposite operator="in" in2="blur"/>
      <feComposite in="SourceGraphic"/>
    </filter>
  </defs>
  <g id="Web-Design" transform="translate(-314 -242)">
    <ellipse id="Ellipse_9" data-name="Ellipse 9" cx="44" cy="10" rx="44" ry="10" transform="translate(806 672)" fill="#ececec"/>
    <ellipse id="Ellipse_8" data-name="Ellipse 8" cx="305.5" cy="140.5" rx="305.5" ry="140.5" transform="translate(314 392)" fill="#ececec"/>
    <g id="Group_93" data-name="Group 93" transform="translate(400.055 242)">
      <g id="Group_86" data-name="Group 86">
        <g id="Group_37" data-name="Group 37" transform="translate(56.985)">
          <g id="Group_36" data-name="Group 36">
            <path id="Path_274" data-name="Path 274" d="M457.2,144.086a7.262,7.262,0,0,0-.692,7.072c4.3,10.123,19.251,43.757,26.476,40.41,8.494-3.934-6.434-32.81-11.752-40.512C466.8,144.636,460.842,139.2,457.2,144.086Z" transform="translate(-387.232 -96.086)" fill="#dec6a0"/>
            <path id="Path_275" data-name="Path 275" d="M473.274,141.9a46.24,46.24,0,0,0-27.235,0c-14.847,5.071-11.265,16.336-11.092,25.723.2,9.41.951,53.734,2.267,57.877.669,2.051,11.436,3.475,22.442,3.517,11.006-.042,21.775-1.466,22.444-3.517,1.317-4.143,2.072-48.467,2.265-57.877C484.538,158.232,488.121,146.967,473.274,141.9Z" transform="translate(-406.897 -98.246)" fill="#dec6a0"/>
            <g id="Group_27" data-name="Group 27" transform="translate(35.819)">
              <path id="Path_276" data-name="Path 276" d="M450.093,140.026h.242a21.982,21.982,0,0,0,6.719-2.369l.031.059v4.829s-.931,4.59-6.572,5.88a8.36,8.36,0,0,1-6.57-5.91v-4.439l.061-.09A22.084,22.084,0,0,0,450.093,140.026Z" transform="translate(-434.013 -100.251)" fill="#f8b58e"/>
              <path id="Path_277" data-name="Path 277" d="M455.083,156.437h-.242a22.084,22.084,0,0,1-6.089-2.039c-2.971-1.47-6-3.959-6.6-8.011,0,0-3.45-1.5-3.39-4.32s3.061-2.07,3.061-2.07-2.49-8.879,2.19-15.418c4.678-6.57,10.679-4.531,10.679-4.531h.481s6.029-2.039,10.709,4.531c4.709,6.539,2.189,15.418,2.189,15.418s3-.749,3.061,2.07-3.36,4.32-3.36,4.32c-.571,3.781-3.241,6.181-5.97,7.681A21.982,21.982,0,0,1,455.083,156.437Z" transform="translate(-438.762 -116.662)" fill="#f8b58e"/>
              <path id="Path_278" data-name="Path 278" d="M439.805,137.921a5.133,5.133,0,0,1-.824-3.089,4.831,4.831,0,0,1,1.7-3.44,2.693,2.693,0,0,1-.146-1.748,2.067,2.067,0,0,1,1.457-1.516,4.894,4.894,0,0,1,.387-3.555,3.093,3.093,0,0,1,3.787-1.4,4.946,4.946,0,0,1,2.38-4.14,3.663,3.663,0,0,1,3.787.351,1.933,1.933,0,0,1,1.311-1.225,2,2,0,0,0,3.17,0,1.934,1.934,0,0,1,1.311,1.225,3.663,3.663,0,0,1,3.787-.351,4.951,4.951,0,0,1,2.38,4.14,3.093,3.093,0,0,1,3.787,1.4,4.909,4.909,0,0,1,.389,3.555,2.073,2.073,0,0,1,1.456,1.516,2.7,2.7,0,0,1-.148,1.748,4.831,4.831,0,0,1,1.7,3.44,5.133,5.133,0,0,1-.824,3.089,1.954,1.954,0,0,1,.583,2.039,1.489,1.489,0,0,1-1.458,1.165,2.4,2.4,0,0,1-.654.525,2.2,2.2,0,0,1-.535.205,2.031,2.031,0,0,1-1-.876,3.21,3.21,0,0,1-.1-2.536,5.224,5.224,0,0,1-1.213-3.818,4,4,0,0,1,.339-1.165,4.1,4.1,0,0,1-2.307-2.624,4.518,4.518,0,0,1-.146-1.457,1.2,1.2,0,0,1-1.456,0,1.624,1.624,0,0,1-.51-.845,3.793,3.793,0,0,1-2.4.583,4.053,4.053,0,0,1-2.353-1.136,2.089,2.089,0,0,1-2.187,1.307v0l-.031,0-.029,0v0a2.09,2.09,0,0,1-2.189-1.307,4.053,4.053,0,0,1-2.353,1.136,3.8,3.8,0,0,1-2.4-.583,1.624,1.624,0,0,1-.51.845,1.2,1.2,0,0,1-1.456,0,4.52,4.52,0,0,1-.146,1.457,4.1,4.1,0,0,1-2.307,2.624,4.06,4.06,0,0,1,.341,1.165,5.231,5.231,0,0,1-1.215,3.818,3.21,3.21,0,0,1-.1,2.536,2.024,2.024,0,0,1-1,.876,2.2,2.2,0,0,1-.535-.205,2.406,2.406,0,0,1-.654-.525,1.485,1.485,0,0,1-1.456-1.165A1.949,1.949,0,0,1,439.805,137.921Z" transform="translate(-438.568 -118.139)" fill="#47333c"/>
              <path id="Path_71" data-name="Path 71" d="M596.762,224.259c.481-2.582,1.16-5.144,1.739-7.705.136-.6,1.085-.444.948.161l-1.411,6.229c-.175.776-.8,2.168.112,2.653a4.111,4.111,0,0,0,2.876.064c.59-.167.942.728.347.9C599.566,227.071,596.259,226.959,596.762,224.259Z" transform="translate(-584.928 -196.937)" fill="#f8b58e" opacity="0.64" style="mix-blend-mode: multiply;isolation: isolate"/>
              <path id="Path_72" data-name="Path 72" d="M600.258,227.331a7.838,7.838,0,0,0,5.724-3.77.483.483,0,0,1,.674-.084.491.491,0,0,1,.084.674,8.752,8.752,0,0,1-6.377,4.134A.481.481,0,0,1,600.258,227.331Z" transform="matrix(0.848, 0.53, -0.53, 0.848, -376.615, -479.137)" fill="#f8b58e" opacity="0.64" style="mix-blend-mode: multiply;isolation: isolate"/>
              <path id="Path_73" data-name="Path 73" d="M605.324,217.748c.01.973-.521,1.778-1.189,1.8s-1.215-.75-1.224-1.723.521-1.778,1.187-1.8S605.314,216.775,605.324,217.748Z" transform="translate(-583.029 -196.984)" fill="#47333c"/>
              <path id="Path_74" data-name="Path 74" d="M597.019,218.3c.01.973-.521,1.778-1.189,1.8s-1.215-.751-1.225-1.724.523-1.778,1.189-1.8S597.008,217.324,597.019,218.3Z" transform="translate(-585.573 -196.816)" fill="#47333c"/>
              <g id="Group_67" data-name="Group 67" transform="translate(19.258 14.275)">
                <path id="Path_75" data-name="Path 75" d="M607.861,215.6l.008-.005a.43.43,0,0,1,.145-.034,5.531,5.531,0,0,0-4.27-3.164,1.653,1.653,0,0,0-.863.076.7.7,0,0,0-.443.688c.043.321.36.528.66.652a8.635,8.635,0,0,0,1.963.447,5.851,5.851,0,0,1,1.929.551A2.539,2.539,0,0,1,607.861,215.6Z" transform="translate(-602.433 -212.376)" fill="#47333c"/>
              </g>
              <g id="Group_68" data-name="Group 68" transform="translate(7.477 14.574)">
                <path id="Path_76" data-name="Path 76" d="M597.054,212.71a1.27,1.27,0,0,0-.717-.091,3.452,3.452,0,0,0-2.923,3.1,1.771,1.771,0,0,1,.384-.6.233.233,0,0,1,.031-.022,1.6,1.6,0,0,1,.311-.285,3.506,3.506,0,0,1,1.468-.473,5.327,5.327,0,0,0,1.514-.374.628.628,0,0,0,.418-.6A.882.882,0,0,0,597.054,212.71Z" transform="translate(-593.414 -212.605)" fill="#47333c"/>
              </g>
            </g>
            <g id="Group_29" data-name="Group 29" transform="translate(0.619 45.497)">
              <path id="Path_279" data-name="Path 279" d="M458.475,144.658a7.266,7.266,0,0,1-1.048,7.03c-6.635,8.772-29.307,37.766-35.5,32.764-7.283-5.88,14.214-30.263,21.246-36.441C449.029,142.86,456.129,139.037,458.475,144.658Z" transform="translate(-420.353 -141.879)" fill="#dec6a0"/>
              <g id="Group_28" data-name="Group 28" transform="translate(0 35.904)">
                <path id="Path_280" data-name="Path 280" d="M427.255,161.609a8.607,8.607,0,0,1,3.842,5.412c1.995,9.975,8.915,46.077,4.808,47.392-4.768,1.524-17.405-50.805-15.27-52.128C422.295,161.259,423.912,159.488,427.255,161.609Z" transform="translate(-420.394 -160.613)" fill="#dec6a0"/>
                <path id="Path_281" data-name="Path 281" d="M429.01,186.2c-2.769.209-1.869,4.944-1.5,6.549.6,2.612,3.273,5.215,4.314,4.994s-.675-6.085-.479-6.334,1.3,2.526,2.26,2.217-.038-4.164-1.033-5.542S430.744,186.066,429.01,186.2Z" transform="translate(-414.275 -137.181)" fill="#dec6a0"/>
              </g>
            </g>
            <g id="Group_30" data-name="Group 30" transform="translate(89.784 87.278)">
              <path id="Path_282" data-name="Path 282" d="M468.759,165.83a8.6,8.6,0,0,0-1.755,6.4c1.543,10.054,7.417,46.344,11.727,46.169,5-.2-1.064-53.692-3.523-54.2C473.3,163.8,471.172,162.691,468.759,165.83Z" transform="translate(-466.92 -163.68)" fill="#dec6a0"/>
              <path id="Path_283" data-name="Path 283" d="M473.99,189.787c2.674-.751,3.45,4.005,3.655,5.638.333,2.66-1.288,6.02-2.34,6.171s-1.453-5.947-1.721-6.114-.36,2.817-1.363,2.857-1.391-3.927-.93-5.562S472.315,190.259,473.99,189.787Z" transform="translate(-463.092 -139.827)" fill="#dec6a0"/>
            </g>
            <g id="Group_35" data-name="Group 35" transform="translate(24.145 115.181)">
              <path id="Path_284" data-name="Path 284" d="M443.894,212.9c-14.04-8.319-10.788,57.524-6.765,74.157s6.727-1.069,8.946-28.038S449.417,216.169,443.894,212.9Z" transform="translate(-431.752 -147.142)" fill="#dec6a0"/>
              <path id="Path_285" data-name="Path 285" d="M453.183,178.281a9.817,9.817,0,0,1,10.677,9.659,64.2,64.2,0,0,1-2.627,18.224c-5.3,19-6.288,42.258-14,44.876s-14.839-9.1-13.287-28.16c1.4-17.229.558-38.879,5.862-41.827C442.5,179.559,448.206,178.733,453.183,178.281Z" transform="translate(-431.694 -178.24)" fill="none" stroke="#d5bb95" stroke-miterlimit="10" stroke-width="1.133"/>
              <path id="Path_286" data-name="Path 286" d="M456.824,212.835c13.628-8.691,11.886,57.2,8.3,73.926s-6.642-.887-9.423-27.777S451.464,216.254,456.824,212.835Z" transform="translate(-413.848 -147.255)" fill="#dec6a0"/>
              <path id="Path_287" data-name="Path 287" d="M456.3,178.281a9.819,9.819,0,0,0-10.677,9.659,64.273,64.273,0,0,0,2.627,18.224c5.3,19,6.288,42.258,14,44.876s14.839-9.1,13.285-28.16c-1.4-17.229-.556-38.879-5.861-41.827C466.981,179.559,461.274,178.733,456.3,178.281Z" transform="translate(-420.808 -178.24)" fill="none" stroke="#d5bb95" stroke-miterlimit="10" stroke-width="1.133"/>
              <g id="Group_34" data-name="Group 34" transform="translate(0 9.215)">
                <g id="Group_33" data-name="Group 33">
                  <g id="Group_31" data-name="Group 31">
                    <path id="Path_288" data-name="Path 288" d="M461.036,216.017c-7.233,32.007-16.6,94.616-16.6,94.616l-7.417-.046c-3.925-37.515-3.718-45.665-3.833-64.861-.023-2.5-.437-15.336-.483-17.424-.368-18.162,2.5-45.253,2.5-45.253h51.131s2.869,27.091,2.5,45.253c-.046,2.089-.458,14.923-.481,17.424-.115,19.2.458,26.955-3.467,64.47l-7.647-.115S468.289,248.024,461.036,216.017Z" transform="translate(-432.67 -183.048)" fill="#1c2c66"/>
                  </g>
                  <g id="Group_32" data-name="Group 32" transform="translate(2.535)">
                    <line id="Line_1" data-name="Line 1" x2="51.13" fill="none" stroke="#000" stroke-miterlimit="10" stroke-width="0.3"/>
                  </g>
                </g>
              </g>
              <path id="Path_289" data-name="Path 289" d="M458.053,251.726a11.306,11.306,0,0,1-1.28,5.776c-2.129,3.657-2.135,2.915-1.64,4.249s9.157.2,9.157.2l-.774-10.311S457.932,251.44,458.053,251.726Z" transform="translate(-412.33 -111.032)" fill="#373862"/>
              <path id="Path_290" data-name="Path 290" d="M437.013,251.726a11.318,11.318,0,0,1-1.282,5.776c-2.129,3.657-2.135,2.915-1.639,4.249s9.155.2,9.155.2l-.774-10.311S436.893,251.44,437.013,251.726Z" transform="translate(-431.613 -111.032)" fill="#373862"/>
            </g>
            <path id="Path_291" data-name="Path 291" d="M464.879,139.229a46.2,46.2,0,0,0-19.808,9.251c-9.067,7.514-22.292,25.086-24.651,32.415s8.072,41.48,8.072,41.48l9.853-2.815s-5.01-33.325-4.14-34.939S446,172.449,446,172.449s-1.573,50.173,1.573,55.639,47.689,3.808,50.173,1.489,1.987-50.006,1.987-50.006l7.948,12.419,7.244,37.712,10.433-1.614s-4.182-36.926-5.838-42.722-11.426-31.919-20.18-38.128c-8.009-5.678-19.561-7.99-19.561-7.99s-2.108,5.636-7.141,5.755C467.363,145.128,464.879,139.229,464.879,139.229Z" transform="translate(-420.072 -98.811)" fill="#ff8727"/>
          </g>
        </g>
        <g id="Group_81" data-name="Group 81" transform="translate(0 98.786)">
          <g id="Group_39" data-name="Group 39">
            <g transform="matrix(1, 0, 0, 1, -86.05, -98.79)" filter="url(#Path_292)">
              <path id="Path_292-2" data-name="Path 292" d="M795.369,178.941V458.653a9.258,9.258,0,0,1-9.237,9.258H399.6a9.261,9.261,0,0,1-9.258-9.258V178.941a9.246,9.246,0,0,1,9.258-9.257H786.132A9.243,9.243,0,0,1,795.369,178.941Z" transform="translate(-304.28 -70.9)" fill="#fff"/>
            </g>
            <path id="Path_293" data-name="Path 293" d="M795.369,178.941v36.53H390.337v-36.53a9.246,9.246,0,0,1,9.258-9.257H786.132A9.243,9.243,0,0,1,795.369,178.941Z" transform="translate(-390.337 -169.685)" fill="#0a6cc7"/>
            <path id="Path_294" data-name="Path 294" d="M474.752,188.455c3.818-1.073,4.929,5.723,5.22,8.055.477,3.8-1.84,8.6-3.342,8.816s-2.076-8.5-2.459-8.735-.516,4.026-1.947,4.084-1.987-5.609-1.328-7.946S472.36,189.129,474.752,188.455Z" transform="translate(-316.761 -152.588)" fill="#f8b58e"/>
            <path id="Path_295" data-name="Path 295" d="M428.726,183.968c-3.952.3-2.666,7.058-2.141,9.349.853,3.729,4.672,7.442,6.158,7.129s-.962-8.685-.684-9.04,1.861,3.6,3.225,3.166-.054-5.947-1.474-7.913S431.2,183.782,428.726,183.968Z" transform="translate(-357.689 -156.617)" fill="#f8b58e"/>
            <g id="Group_38" data-name="Group 38" transform="translate(21.899 17.18)">
              <path id="Path_296" data-name="Path 296" d="M437.605,183.248a5.723,5.723,0,1,1-4.492-4.492A5.726,5.726,0,0,1,437.605,183.248Z" transform="translate(-379.3 -178.649)" fill="#fff"/>
              <path id="Path_297" data-name="Path 297" d="M425.351,183.248a5.723,5.723,0,1,1-4.494-4.492A5.728,5.728,0,0,1,425.351,183.248Z" transform="translate(-390.532 -178.649)" fill="#fff"/>
              <path id="Path_298" data-name="Path 298" d="M413.094,183.248a5.723,5.723,0,1,1-4.492-4.492A5.727,5.727,0,0,1,413.094,183.248Z" transform="translate(-401.764 -178.649)" fill="#fff"/>
            </g>
          </g>
          <g id="Group_40" data-name="Group 40" transform="translate(192.466 211.33)">
            <rect id="Rectangle_6" data-name="Rectangle 6" width="56.449" height="56.449" fill="#6ca7dd"/>
            <rect id="Rectangle_7" data-name="Rectangle 7" width="48.385" height="48.385" transform="translate(4.032 4.032)" fill="#f9fbfc"/>
            <path id="Path_299" data-name="Path 299" d="M506.718,290.247a5.242,5.242,0,1,1-5.241-5.241A5.242,5.242,0,0,1,506.718,290.247Z" transform="translate(-485.752 -275.328)" fill="#6ca7dd"/>
            <path id="Path_300" data-name="Path 300" d="M538.274,297.1v23.031l-.226.064H493.921v-9.129l7.387-7.419,9.128,9.161L532.21,291.04Z" transform="translate(-487.873 -269.799)" fill="#6ca7dd"/>
          </g>
          <g id="Group_41" data-name="Group 41" transform="translate(109.503 211.33)">
            <rect id="Rectangle_8" data-name="Rectangle 8" width="56.449" height="56.449" fill="#6ca7dd"/>
            <rect id="Rectangle_9" data-name="Rectangle 9" width="48.385" height="48.385" transform="translate(4.032 4.032)" fill="#f9fbfc"/>
            <circle id="Ellipse_1" data-name="Ellipse 1" cx="5.242" cy="5.242" r="5.242" transform="translate(10.483 9.677)" fill="#6ca7dd"/>
            <path id="Path_301" data-name="Path 301" d="M494.984,297.1v23.031l-.226.064H450.631v-9.129l7.387-7.419,9.128,9.161,21.773-21.773Z" transform="translate(-444.583 -269.799)" fill="#6ca7dd"/>
          </g>
          <rect id="Rectangle_10" data-name="Rectangle 10" width="93.383" height="93.383" transform="translate(282.475 181.191)" fill="#ececec"/>
          <rect id="Rectangle_11" data-name="Rectangle 11" width="223.972" height="16.78" transform="translate(24.943 63.733)" fill="#c9c9f4"/>
          <g id="Group_43" data-name="Group 43" transform="translate(281.927 66.833)">
            <g id="Group_42" data-name="Group 42">
              <path id="Path_302" data-name="Path 302" d="M631.374,299.034H627v-1.092h4.377Zm-8.754,0h-4.377v-1.092h4.377Zm-8.754,0h-4.377v-1.092h4.377Zm-8.754,0h-4.377v-1.092h4.377Zm-8.754,0H591.98v-1.092h4.377Zm-8.754,0h-4.377v-1.092H587.6Zm-8.754,0h-4.377v-1.092h4.377Zm-8.756,0h-4.375v-1.092h4.375Zm-8.752,0H556.96v-1.092h4.379Zm-8.756,0h-4.377v-1.092h4.377Zm-8.754,0h-4.377v-1.092h4.377Zm88.094-2h-1.094v-4.377h1.094Zm-93.381-1.458h-1.1v-4.377h1.1Zm93.381-7.3h-1.094V283.9h1.094Zm-93.381-1.458h-1.1v-4.379h1.1Zm93.381-7.3h-1.094v-4.377h1.094Zm-93.381-1.46h-1.1v-4.377h1.1Zm93.381-7.294h-1.094v-4.377h1.094Zm-93.381-1.46h-1.1v-4.377h1.1Zm93.381-7.294h-1.094v-4.379h1.094Zm-93.381-1.46h-1.1v-4.377h1.1Zm93.381-7.3h-1.094V248.88h1.094ZM538.541,251.8h-1.1V247.42h1.1Zm93.381-7.3h-1.094v-4.377h1.094Zm-93.381-1.458h-1.1v-4.377h1.1Zm93.381-7.3h-1.094v-4.377h1.094Zm-93.381-1.458h-1.1v-4.377h1.1Zm93.381-7.3h-1.094v-4.377h1.094Zm-93.381-1.46h-1.1v-4.375h1.1Zm93.381-7.294h-1.094V213.86h1.094Zm-93.381-1.458h-1.1V212.4h1.1Zm93.381-7.3h-1.094v-4.377h1.094Zm-93.381-1.46h-1.1v-3.465h2.007v1.094h-.91ZM627,205.652h-4.375v-1.094H627Zm-8.754,0h-4.377v-1.094h4.377Zm-8.754,0h-4.377v-1.094h4.377Zm-8.754,0h-4.377v-1.094h4.377Zm-8.754,0H587.6v-1.094h4.377Zm-8.754,0h-4.377v-1.094h4.377Zm-8.754,0h-4.377v-1.094h4.377Zm-8.754,0h-4.377v-1.094h4.377Zm-8.756,0h-4.375v-1.094h4.375Zm-8.754,0h-4.377v-1.094h4.377Z" transform="translate(-537.445 -204.558)" fill="#0a6cc7"/>
            </g>
          </g>
          <g id="Group_55" data-name="Group 55" transform="translate(24.943 146.537)">
            <rect id="Rectangle_12" data-name="Rectangle 12" width="223.972" height="46.327" fill="#6ca7dd"/>
            <rect id="Rectangle_13" data-name="Rectangle 13" width="29.82" height="29.82" transform="translate(9.895 8.253)" fill="#fff"/>
            <g id="Group_54" data-name="Group 54" transform="translate(52.893 8.253)">
              <g id="Group_46" data-name="Group 46">
                <g id="Group_45" data-name="Group 45">
                  <g id="Group_44" data-name="Group 44">
                    <rect id="Rectangle_14" data-name="Rectangle 14" width="161.595" height="2.736" fill="#fff"/>
                  </g>
                </g>
              </g>
              <g id="Group_49" data-name="Group 49" transform="translate(0 17.387)">
                <g id="Group_48" data-name="Group 48">
                  <g id="Group_47" data-name="Group 47">
                    <rect id="Rectangle_15" data-name="Rectangle 15" width="161.595" height="2.736" fill="#fff"/>
                  </g>
                </g>
              </g>
              <g id="Group_52" data-name="Group 52" transform="translate(0 8.694)">
                <g id="Group_51" data-name="Group 51">
                  <g id="Group_50" data-name="Group 50">
                    <rect id="Rectangle_16" data-name="Rectangle 16" width="161.595" height="2.736" fill="#fff"/>
                  </g>
                </g>
              </g>
              <g id="Group_53" data-name="Group 53" transform="translate(0 26.081)">
                <rect id="Rectangle_17" data-name="Rectangle 17" width="161.595" height="2.736" fill="#fff"/>
              </g>
            </g>
          </g>
          <g id="Group_69" data-name="Group 69" transform="translate(25.991 210.784)">
            <g id="Group_64" data-name="Group 64">
              <g id="Group_56" data-name="Group 56" transform="translate(54.808 54.806)">
                <path id="Path_303" data-name="Path 303" d="M435.234,311H432.5v-1.093h1.641v-1.643h1.095Z" transform="translate(-432.498 -308.269)" fill="#0a6cc7"/>
              </g>
              <g id="Group_57" data-name="Group 57" transform="translate(7.47 56.45)">
                <path id="Path_304" data-name="Path 304" d="M450.4,310.218h-4.734v-1.092H450.4Zm-9.467,0H436.2v-1.092h4.734Zm-9.469,0h-4.734v-1.092h4.734Zm-9.467,0h-4.734v-1.092H422Zm-9.467,0H407.8v-1.092h4.734Z" transform="translate(-407.797 -309.126)" fill="#0a6cc7"/>
              </g>
              <g id="Group_58" data-name="Group 58" transform="translate(0.001 54.806)">
                <path id="Path_305" data-name="Path 305" d="M406.636,311H403.9v-2.736h1.095v1.643h1.641Z" transform="translate(-403.899 -308.269)" fill="#0a6cc7"/>
              </g>
              <g id="Group_59" data-name="Group 59" transform="translate(0 7.469)">
                <path id="Path_306" data-name="Path 306" d="M405,326.173h-1.1v-4.734H405Zm0-9.469h-1.1v-4.732H405Zm0-9.465h-1.1V302.5H405Zm0-9.469h-1.1v-4.732H405Zm0-9.467h-1.1v-4.734H405Z" transform="translate(-403.899 -283.568)" fill="#0a6cc7"/>
              </g>
              <g id="Group_60" data-name="Group 60" transform="translate(0.001)">
                <path id="Path_307" data-name="Path 307" d="M404.994,282.407H403.9v-2.736h2.736v1.093h-1.641Z" transform="translate(-403.899 -279.671)" fill="#0a6cc7"/>
              </g>
              <g id="Group_61" data-name="Group 61" transform="translate(7.47 0)">
                <path id="Path_308" data-name="Path 308" d="M450.4,280.763h-4.732v-1.092H450.4Zm-9.467,0H436.2v-1.092h4.734Zm-9.467,0h-4.734v-1.092h4.734Zm-9.467,0h-4.734v-1.092H422Zm-9.467,0H407.8v-1.092h4.734Z" transform="translate(-407.797 -279.671)" fill="#0a6cc7"/>
              </g>
              <g id="Group_62" data-name="Group 62" transform="translate(54.808)">
                <path id="Path_309" data-name="Path 309" d="M435.234,282.407h-1.095v-1.643H432.5v-1.093h2.736Z" transform="translate(-432.498 -279.671)" fill="#0a6cc7"/>
              </g>
              <g id="Group_63" data-name="Group 63" transform="translate(56.449 7.469)">
                <path id="Path_310" data-name="Path 310" d="M434.448,326.173h-1.094v-4.734h1.094Zm0-9.469h-1.094v-4.732h1.094Zm0-9.465h-1.094V302.5h1.094Zm0-9.469h-1.094v-4.732h1.094Zm0-9.467h-1.094v-4.734h1.094Z" transform="translate(-433.354 -283.568)" fill="#0a6cc7"/>
              </g>
            </g>
            <g id="Group_68-2" data-name="Group 68" transform="translate(20.52 20.518)">
              <path id="Path_610" data-name="Path 610" d="M8.253,0A8.253,8.253,0,1,1,0,8.253,8.253,8.253,0,0,1,8.253,0Z" fill="#6ca7dd"/>
              <g id="Group_67-2" data-name="Group 67" transform="translate(4.97 4.97)">
                <g id="Group_65" data-name="Group 65" transform="translate(2.736)">
                  <rect id="Rectangle_18" data-name="Rectangle 18" width="1.095" height="6.565" fill="#f9fbfc"/>
                </g>
                <g id="Group_66" data-name="Group 66" transform="translate(0 2.736)">
                  <rect id="Rectangle_19" data-name="Rectangle 19" width="6.566" height="1.093" fill="#f9fbfc"/>
                </g>
              </g>
            </g>
          </g>
          <g id="Group_75" data-name="Group 75" transform="translate(24.395 98.933)">
            <g id="Group_70" data-name="Group 70">
              <path id="Path_311" data-name="Path 311" d="M628.133,252.679h-4.925v-1.094h3.831v-.18h1.094Zm-9.3,0h-4.375v-1.094h4.375Zm-8.754,0H605.7v-1.094h4.377Zm-8.754,0h-4.377v-1.094h4.377Zm-8.754,0H588.19v-1.094h4.377Zm-8.754,0h-4.377v-1.094h4.377Zm-8.754,0h-4.377v-1.094h4.377Zm-8.754,0h-4.377v-1.094H566.3Zm-8.754,0h-4.377v-1.094h4.377Zm-8.756,0h-4.375v-1.094h4.375Zm-8.752,0h-4.379v-1.094h4.379Zm-8.756,0h-4.377v-1.094h4.377Zm-8.754,0h-4.377v-1.094h4.377Zm-8.754,0H509.4v-1.094h4.377Zm-8.754,0h-4.377v-1.094h4.377Zm-8.754,0H491.89v-1.094h4.377Zm-8.754,0h-4.377v-1.094h4.377Zm-8.756,0h-4.375v-1.094h4.375Zm-8.753,0h-4.379v-1.094H470Zm-8.756,0h-4.375v-1.094h4.375Zm-8.754,0h-4.377v-1.094h4.377Zm-8.754,0h-4.377v-1.094h4.377Zm-8.754,0h-4.377v-1.094h4.377Zm-8.754,0h-4.377v-1.094h4.377Zm-8.754,0H413.1v-1.094h4.377Zm-8.754,0h-4.379v-1.094h4.379Zm-4.559-4.2h-1.1v-4.377h1.1Zm223.971-1.458h-1.094v-4.377h1.094Zm-223.971-7.3h-1.1v-4.377h1.1Zm223.971-1.458h-1.094V233.9h1.094Zm-223.971-7.3h-1.1V226.6h1.1Zm223.971-1.458h-1.094v-4.377h1.094Zm-1.641-7.114h-4.377v-1.094h4.377Zm-8.754,0h-4.377v-1.094h4.377Zm-8.754,0h-4.377v-1.094h4.377Zm-8.754,0h-4.377v-1.094h4.377Zm-8.756,0H587.1v-1.094h4.375Zm-8.753,0h-4.379v-1.094h4.379Zm-8.756,0h-4.377v-1.094h4.377Zm-8.754,0h-4.377v-1.094h4.377Zm-8.754,0h-4.377v-1.094h4.377Zm-8.754,0h-4.377v-1.094H547.7Zm-8.754,0H534.57v-1.094h4.377Zm-8.754,0h-4.377v-1.094h4.377Zm-8.756,0h-4.377v-1.094h4.377Zm-8.752,0H508.3v-1.094h4.379Zm-8.756,0H499.55v-1.094h4.377Zm-8.754,0H490.8v-1.094h4.377Zm-8.754,0h-4.377v-1.094h4.377Zm-8.754,0h-4.377v-1.094h4.377Zm-8.754,0h-4.377v-1.094h4.377Zm-8.754,0h-4.377v-1.094h4.377Zm-8.754,0h-4.379v-1.094H451.4Zm-8.754,0h-4.377v-1.094h4.377Zm-8.756,0h-4.377v-1.094h4.377Zm-8.754,0h-4.377v-1.094h4.377Zm-8.754,0H412v-1.094h4.377Zm-8.754,0h-4.013v-.182h-.548v-.912h4.561Z" transform="translate(-403.066 -221.308)" fill="#0a6cc7"/>
            </g>
            <g id="Group_74" data-name="Group 74" transform="translate(104.282 7.432)">
              <path id="Path_312" data-name="Path 312" d="M473.985,233.44a8.252,8.252,0,1,1-8.252-8.254A8.253,8.253,0,0,1,473.985,233.44Z" transform="translate(-457.48 -225.186)" fill="#6ca7dd"/>
              <g id="Group_73" data-name="Group 73" transform="translate(4.97 4.971)">
                <g id="Group_71" data-name="Group 71" transform="translate(2.735)">
                  <rect id="Rectangle_20" data-name="Rectangle 20" width="1.095" height="6.565" fill="#f9fbfc"/>
                </g>
                <g id="Group_72" data-name="Group 72" transform="translate(0 2.735)">
                  <rect id="Rectangle_21" data-name="Rectangle 21" width="6.565" height="1.095" fill="#f9fbfc"/>
                </g>
              </g>
            </g>
          </g>
          <g id="Group_79" data-name="Group 79" transform="translate(320.913 105.819)">
            <circle id="Ellipse_3" data-name="Ellipse 3" cx="8.253" cy="8.253" r="8.253" fill="#afbef9"/>
            <g id="Group_78" data-name="Group 78" transform="translate(4.97 4.97)">
              <g id="Group_76" data-name="Group 76" transform="translate(2.735)">
                <rect id="Rectangle_22" data-name="Rectangle 22" width="1.095" height="6.566" fill="#f9fbfc"/>
              </g>
              <g id="Group_77" data-name="Group 77" transform="translate(0 2.735)">
                <rect id="Rectangle_23" data-name="Rectangle 23" width="6.565" height="1.095" fill="#f9fbfc"/>
              </g>
            </g>
          </g>
          <g id="Group_80" data-name="Group 80" transform="translate(294.928 206.393)">
            <path id="Path_313" data-name="Path 313" d="M564.6,288.093l-14.837,6.232,14.837,6.138-2.139,4.885L544.229,297.3v-5.954l18.233-8.045Z" transform="translate(-544.229 -271.953)" fill="#0a6cc7"/>
            <path id="Path_314" data-name="Path 314" d="M574.4,278.683l-10.886,41.675-5.767-1.351,10.93-41.627Z" transform="translate(-531.838 -277.38)" fill="#0a6cc7"/>
            <path id="Path_315" data-name="Path 315" d="M589.7,291.347V297.3l-18.231,8.047-2.139-4.885,14.837-6.138-14.837-6.232,2.139-4.791Z" transform="translate(-521.225 -271.953)" fill="#0a6cc7"/>
          </g>
        </g>
        <g id="Group_85" data-name="Group 85" transform="translate(56.951 49.874)">
          <g id="Group_83" data-name="Group 83" transform="translate(1 31.557)">
            <g id="Group_82" data-name="Group 82">
              <path id="Path_316" data-name="Path 316" d="M427.435,161.625a8.612,8.612,0,0,1,3.842,5.412c2,9.975,8.915,46.077,4.808,47.392-4.768,1.526-17.4-50.8-15.27-52.126C422.476,161.275,424.093,159.5,427.435,161.625Z" transform="translate(-420.576 -160.629)" fill="#f8b58e"/>
            </g>
          </g>
          <g id="Group_84" data-name="Group 84" transform="translate(90.165 37.435)">
            <path id="Path_317" data-name="Path 317" d="M468.94,165.846a8.618,8.618,0,0,0-1.755,6.4c1.545,10.056,7.419,46.344,11.727,46.169,5-.2-1.064-53.691-3.521-54.2C473.478,163.817,471.353,162.707,468.94,165.846Z" transform="translate(-467.102 -163.696)" fill="#f8b58e"/>
          </g>
          <path id="Path_318" data-name="Path 318" d="M444.838,144.163v24.918c-2.821,2.742-9.954,9.736-10.65,11.048-.874,1.61,4.153,34.931,4.153,34.931l-1.094.318-.378.1-6.7,1.928-.356.1-1.332.378s-10.431-34.159-8.087-41.491C422.743,169.121,435.777,151.773,444.838,144.163Z" transform="translate(-420.054 -144.163)" fill="#ff8727"/>
          <path id="Path_319" data-name="Path 319" d="M486.367,216.8l-1.79.278h-.038l-6.917,1.073H477.6l-1.669.259-7.252-37.695L463,171.852v-.059l.717-1.828,7.014-17.725.349-.655a162.974,162.974,0,0,1,9.446,22.493C482.174,179.881,486.367,216.8,486.367,216.8Z" transform="translate(-380.697 -137.362)" fill="#ff8727"/>
        </g>
        <line id="Line_2" data-name="Line 2" x1="1.669" y1="1.907" transform="translate(74.472 134.598)" fill="none"/>
        <line id="Line_3" data-name="Line 3" x1="0.516" y1="0.596" transform="translate(68.154 127.405)" fill="none"/>
        <path id="Path_320" data-name="Path 320" d="M472.4,196.793l.278-.457,3.954-6.577v-.02l.457-.735" transform="translate(-315.128 -53.194)" fill="none"/>
      </g>
      <g id="Group_92" data-name="Group 92" transform="translate(3.857 128.006)">
        <path id="Path_609" data-name="Path 609" d="M0,0H272.656V56.4H0Z" transform="translate(5.927) rotate(6.032)" fill="#6ca7dd"/>
        <g id="Group_91" data-name="Group 91" transform="translate(14.142 10.463)">
          <g id="Group_87" data-name="Group 87" transform="translate(3.359)">
            <path id="Path_321" data-name="Path 321" d="M539.331,209.172,403.466,194.814a2.218,2.218,0,0,1-1.972-2.438h0a2.215,2.215,0,0,1,2.438-1.972L539.8,204.76a2.217,2.217,0,0,1,1.972,2.44h0A2.217,2.217,0,0,1,539.331,209.172Z" transform="translate(-401.482 -190.391)" fill="#f9fbfc"/>
          </g>
          <g id="Group_88" data-name="Group 88" transform="translate(1.112 21.477)">
            <path id="Path_322" data-name="Path 322" d="M645.035,231.242,402.091,205.569a1.991,1.991,0,0,1-1.771-2.189h0a1.989,1.989,0,0,1,2.189-1.771l242.946,25.673a1.992,1.992,0,0,1,1.771,2.189h0A1.99,1.99,0,0,1,645.035,231.242Z" transform="translate(-400.309 -201.598)" fill="#f9fbfc"/>
          </g>
          <g id="Group_89" data-name="Group 89" transform="translate(2.216 11.094)">
            <path id="Path_323" data-name="Path 323" d="M645.7,225.691,402.6,200a1.915,1.915,0,0,1-1.7-2.106h0a1.915,1.915,0,0,1,2.106-1.7l243.1,25.69a1.915,1.915,0,0,1,1.7,2.106h0A1.915,1.915,0,0,1,645.7,225.691Z" transform="translate(-400.885 -196.18)" fill="#f9fbfc"/>
          </g>
          <g id="Group_90" data-name="Group 90" transform="translate(0 32.001)">
            <path id="Path_324" data-name="Path 324" d="M644.455,236.735,401.511,211.062a1.989,1.989,0,0,1-1.771-2.189h0a1.991,1.991,0,0,1,2.189-1.773l242.944,25.675a1.988,1.988,0,0,1,1.771,2.189h0A1.988,1.988,0,0,1,644.455,236.735Z" transform="translate(-399.729 -207.089)" fill="#f9fbfc"/>
          </g>
        </g>
      </g>
      <path id="Path_325" data-name="Path 325" d="M474.872,204.36c-1.351.2-1.947-6.715-2.325-8.385L476.5,189.4a18.8,18.8,0,0,1,1.71,6.14C478.685,199.333,476.361,204.141,474.872,204.36Z" transform="translate(-314.995 -52.833)" fill="#f8b58e"/>
      <path id="Path_326" data-name="Path 326" d="M432.74,199.553c-1.47.3-5.3-3.417-6.16-7.133-.358-1.57-1.073-5.245-.218-7.491l5.8,6.6C432.6,193.831,433.932,199.295,432.74,199.553Z" transform="translate(-357.691 -56.928)" fill="#f8b58e"/>
    </g>
    <g id="Group_111" data-name="Group 111" transform="translate(714.623 402.219)">
      <path id="Path_337" data-name="Path 337" d="M652.862,329.359,619.8,327.983l-1.449-56.553,2.282-14.2,15.268-5.615,9.833,1.878a11.535,11.535,0,0,1,9.368,11.736l-3.584,40.025Z" transform="translate(-495.935 -164.035)" fill="#dec6a0"/>
      <path id="Path_338" data-name="Path 338" d="M635.049,247.978v11.363s-2.4,1.435-8.022,1.435c-3.028,0-3.71-1.435-3.71-1.435v-4.2Z" transform="translate(-491.389 -167.365)" fill="#dec6a0"/>
      <path id="Path_339" data-name="Path 339" d="M641.3,251.546c-.027.41-.04.8-.067,1.167,0,.134.013.266.013.412.28,6.746-4.049,13.969-10.569,14.952,0,0-.054.013-.146.027-.054,0-.134.013-.226.013-1.4.172-6.441.585-8.287-1.447-2.164-2.392-4.09-6.773-4.09-9.766s.544-3.7.544-4.91c0-.943-.506-3.894-.516-5.174-.044-6.02,4.007-11.993,11.206-11.993C639.963,234.827,641.609,244.294,641.3,251.546Z" transform="translate(-496.322 -179.418)" fill="#dec6a0"/>
      <path id="Path_340" data-name="Path 340" d="M623.319,253.706" transform="translate(-491.386 -162.116)" fill="#6ebaad"/>
      <g id="Group_104" data-name="Group 104" transform="translate(78.003 55.089)">
        <path id="Path_341" data-name="Path 341" d="M612.011,259.514c0-3.839,22.294-5.928,31.825-6.11s17.07,1.374,17.076,6.062-7.534,6.259-17.064,6.1S612.015,263.352,612.011,259.514Z" transform="translate(-579.753 -217.495)" fill="#f8b58e"/>
        <g id="Group_103" data-name="Group 103">
          <path id="Path_342" data-name="Path 342" d="M598.513,239.729c2.5-2.315,20.219,15.414,25.031,20.6s9.506,11.014,6.708,13.611-8.258-2.524-13.07-7.708S596.018,242.044,598.513,239.729Z" transform="translate(-592.359 -230.204)" fill="#f8b58e"/>
          <path id="Path_343" data-name="Path 343" d="M605.865,248.825c-2.739,2.948-7.386-2.472-8.9-4.379-2.472-3.1-2-8.72-.813-9.7s6.259,6.476,6.723,6.485-2.643-3.718-1.428-4.519,4.768,3.913,5.46,6.319S607.581,246.979,605.865,248.825Z" transform="translate(-595.179 -234.66)" fill="#f8b58e"/>
        </g>
      </g>
      <g id="Group_106" data-name="Group 106">
        <rect id="Rectangle_27" data-name="Rectangle 27" width="94.382" height="94.382" transform="translate(39.441 0) rotate(24.701)" fill="#0a6cc7"/>
        <g id="Group_105" data-name="Group 105" transform="translate(47.846 47.846)">
          <circle id="Ellipse_7" data-name="Ellipse 7" cx="14.747" cy="14.747" r="14.747" fill="#f9fbfc"/>
          <path id="Path_344" data-name="Path 344" d="M597.722,245.964l-8.5-12.009-6.149,13.368Z" transform="translate(-576.118 -228.063)" fill="#ff8727"/>
        </g>
      </g>
      <path id="Path_345" data-name="Path 345" d="M629.055,289.935c3.515.261,6.761,4.753,7.076,9.734a72.251,72.251,0,0,1-.809,15.523c-2.438,15.859-2,35.966-6.673,37.281s-9.64-9.768-9.536-26.15c.094-14.809-1.412-33.745,1.754-35.646C622.468,289.714,625.981,289.707,629.055,289.935Z" transform="translate(-495.495 -129.026)" fill="#dec6a0"/>
      <g id="Group_107" data-name="Group 107" transform="translate(124.841 219.356)">
        <path id="Path_346" data-name="Path 346" d="M624.161,320.621c13.191-4.04,7.221,42.551,2.792,53.887s-6.09-1.675-6.886-21.24S618.972,322.21,624.161,320.621Z" transform="translate(-619.619 -320.374)" fill="#f8b58e"/>
      </g>
      <path id="Path_347" data-name="Path 347" d="M637.991,289.935c3.515.261,6.761,4.753,7.076,9.734a72.377,72.377,0,0,1-.809,15.523c-2.438,15.859-2,35.966-6.675,37.281s-9.638-9.768-9.534-26.15c.094-14.809-1.412-33.745,1.754-35.646C631.4,289.714,634.915,289.707,637.991,289.935Z" transform="translate(-487.306 -129.026)" fill="#dec6a0"/>
      <g id="Group_108" data-name="Group 108" transform="translate(141.966 219.356)">
        <path id="Path_348" data-name="Path 348" d="M633.1,320.621c13.193-4.04,7.223,42.551,2.794,53.887s-6.091-1.675-6.888-21.24S627.906,322.21,633.1,320.621Z" transform="translate(-628.554 -320.374)" fill="#f8b58e"/>
      </g>
      <path id="Path_349" data-name="Path 349" d="M621.427,256.3c-2.3,2.131-4.082,5.859-4.515,13.486-.123,2.131-1.7,7.984,1.16,15.115,4.423,11.033-.042,33.873-1.2,39.287a.985.985,0,0,0,.949,1.19l38.024.659a1.891,1.891,0,0,0,1.93-2.043c-.611-7.593-2.608-33.716-1.61-39.956,3.53-22.1-.029-29.216-6.186-30.943C640.753,250.512,623.725,254.172,621.427,256.3Z" transform="translate(-497.756 -163.489)" fill="#ff8727"/>
      <path id="Path_350" data-name="Path 350" d="M628.005,303.385l1.5,65.454,11.074-.294,2.847-64.442Z" transform="translate(-487.091 -116.587)" fill="#f8b58e"/>
      <path id="Path_351" data-name="Path 351" d="M619.163,303.385l1.5,65.454,11.074-.294,2.847-64.442Z" transform="translate(-495.195 -116.587)" fill="#f8b58e"/>
      <path id="Path_352" data-name="Path 352" d="M657.708,290.115l1.345,59.176s-16.16,1.982-21.564,1.882c-9.682-.178-21.2-1.614-21.2-1.614l1.345-59.579Z" transform="translate(-497.831 -128.871)" fill="#04427d"/>
      <g id="Group_110" data-name="Group 110" transform="translate(59.153 76.379)">
        <path id="Path_353" data-name="Path 353" d="M600.354,283.787c-2.141-3.149,15-17.275,22.718-22.729s14.774-8.373,17.388-4.529-2.7,9.331-10.611,14.5S602.493,286.935,600.354,283.787Z" transform="translate(-571.754 -237.514)" fill="#f8b58e"/>
        <g id="Group_109" data-name="Group 109">
          <path id="Path_354" data-name="Path 354" d="M588.5,250.569c2.733-1.98,18.055,17.6,22.168,23.277s8.038,11.982,4.971,14.2-7.827-3.474-11.942-9.155S585.768,252.549,588.5,250.569Z" transform="translate(-582.773 -241.499)" fill="#f8b58e"/>
          <path id="Path_355" data-name="Path 355" d="M586.1,245.84c1.083-.767,4.726,4.918,5.966,6.453.188.234.324.376.383.381s.075-.077.063-.2c-.077-.792-1.34-3.8-.255-4.406,1.192-.671,4.088,3.68,4.831,6.206.04.14.1.3.128.424.516,2.428.4,3.95-1.43,5.657-2.913,2.723-7.133-2.961-8.5-4.952a12.426,12.426,0,0,1-1.9-5.851C585.242,247.76,585.5,246.267,586.1,245.84Z" transform="translate(-585.343 -245.769)" fill="#f8b58e"/>
        </g>
      </g>
      <path id="Path_356" data-name="Path 356" d="M616.926,244.345a10.9,10.9,0,0,0,.207,1.089c.395,1.6,1.435,2.907,2.041,4.423a26.147,26.147,0,0,1,1.136,5.69c.717,4.615,1.223,9.239,1.687,13.883.2,3.461-.495,6.945.788,10.234a39.544,39.544,0,0,0,8.375,12.9,13.788,13.788,0,0,0,11.332,4.2,16.052,16.052,0,0,0,11.861-7.721,24.78,24.78,0,0,0,3.262-14.232c-.552-6.947-3.8-13.467-8.11-18.942a27.886,27.886,0,0,1-4.1-5.979c-1.069-2.5-.682-5.257-1.363-7.85a10.908,10.908,0,0,0-4.214-6.366c-4.232-2.949-10.083-2.562-14.766-1.054C620.422,236.108,616.211,239.032,616.926,244.345Z" transform="translate(-497.318 -180.67)" fill="#47333c"/>
      <path id="Path_357" data-name="Path 357" d="M626.279,348.615a34.452,34.452,0,0,1-6.2,4.7c-4.253,2.66-5.368,2.081-5.464,3.076s17.677.174,17.677.174l-.278-8.179S626.281,348.4,626.279,348.615Z" transform="translate(-499.361 -75.343)" fill="#0a6cc7"/>
      <path id="Path_358" data-name="Path 358" d="M633.122,348.627a17.272,17.272,0,0,1-3.877,5.224c-2.557,2.476-3.53,1.945-3.323,2.831.2.851,12.928.3,12.928.3l-.349-8.628S633.093,348.361,633.122,348.627Z" transform="translate(-489.025 -75.376)" fill="#0a6cc7"/>
    </g>
  </g>
</svg>
