<svg xmlns="http://www.w3.org/2000/svg" width="578.849" height="450" viewBox="0 0 578.849 450">
  <g id="app-development-banner" transform="translate(-247.883 -113.406)">
    <g id="Group_4" data-name="Group 4" transform="translate(247.883 141.073)">
      <g id="Group_2" data-name="Group 2" style="mix-blend-mode: multiply;isolation: isolate">
        <path id="Path_4" data-name="Path 4" d="M410.478,412.034q1.8-.09,3.593-.23c56.678-4.394,105.438-48.86,119.829-103.172,15-56.624-15.091-111.359-61.772-142.859C420.255,130.769,343.665,120,291.876,160.989c-49.794,39.413-55.323,113.628-26.628,167.257q.439.809.879,1.62C293.93,380.215,352.587,414.951,410.478,412.034Z" transform="translate(-247.883 -134.587)" fill="#f5f5f5"/>
      </g>
      <g id="Group_3" data-name="Group 3" transform="translate(346.649 91.108)" style="mix-blend-mode: multiply;isolation: isolate">
        <path id="Path_5" data-name="Path 5" d="M625,430.256q-1.45.051-2.9.063c-45.826.363-88.045-32-103.334-74.639-15.94-44.45,4.472-90.481,39.8-118.988,39.262-31.678,100.04-45.592,144.452-16.223,42.7,28.238,52.24,87.468,32.876,132.513q-.3.68-.594,1.361C716.425,396.694,671.7,428.622,625,430.256Z" transform="translate(-513.269 -204.337)" fill="#f5f5f5"/>
      </g>
    </g>
    <g id="Group_90" data-name="Group 90" transform="translate(284.073 113.406)">
      <g id="Group_31" data-name="Group 31" transform="translate(36.111 32.801)">
        <g id="Group_24" data-name="Group 24" transform="translate(322.525 28.824)">
          <g id="Group_23" data-name="Group 23" transform="translate(14.146)">
            <g id="Group_20" data-name="Group 20" transform="translate(20.064)">
              <path id="Rectangle_5" data-name="Rectangle 5" d="M5.653,0H86.319a5.652,5.652,0,0,1,5.652,5.652V58.016a5.652,5.652,0,0,1-5.652,5.652H5.653A5.653,5.653,0,0,1,0,58.016V5.653A5.653,5.653,0,0,1,5.653,0Z" transform="translate(-0.037 0.375)" fill="#0a6cc7"/>
              <g id="Group_80" data-name="Group 80" transform="translate(27.298 14.468)">
                <path id="Path_313" data-name="Path 313" d="M556.023,286.076l-8.59,3.608,8.59,3.554-1.238,2.828-10.556-4.659V287.96l10.556-4.658Z" transform="translate(-544.229 -276.731)" fill="#8cbdeb"/>
                <path id="Path_314" data-name="Path 314" d="M567.391,278.135l-6.3,24.128-3.339-.782,6.328-24.1Z" transform="translate(-542.748 -277.38)" fill="#8cbdeb"/>
                <path id="Path_315" data-name="Path 315" d="M581.123,287.96v3.447l-10.555,4.659-1.238-2.828,8.59-3.554-8.59-3.608,1.238-2.774Z" transform="translate(-541.479 -276.731)" fill="#8cbdeb"/>
              </g>
            </g>
            <g id="Group_22" data-name="Group 22" transform="translate(0 31.278)">
              <g id="Group_21" data-name="Group 21">
                <line id="Line_2" data-name="Line 2" x2="3.266" transform="translate(112.104)" fill="none" stroke="#ff8727" stroke-miterlimit="10" stroke-width="1"/>
                <line id="Line_3" data-name="Line 3" x2="6.636" transform="translate(119.794)" fill="none" stroke="#ff8727" stroke-miterlimit="10" stroke-width="1" stroke-dasharray="3.387 3.387"/>
                <path id="Path_10" data-name="Path 10" d="M659.467,184.53h3.266V187.8" transform="translate(-530.825 -184.53)" fill="none" stroke="#ff8727" stroke-miterlimit="10" stroke-width="1"/>
                <line id="Line_4" data-name="Line 4" y2="92.039" transform="translate(131.908 10.083)" fill="none" stroke="#ff8727" stroke-miterlimit="10" stroke-width="1" stroke-dasharray="5.219 5.219"/>
                <path id="Path_11" data-name="Path 11" d="M662.733,265.323v3.266h-3.266" transform="translate(-530.825 -159.791)" fill="none" stroke="#ff8727" stroke-miterlimit="10" stroke-width="1"/>
                <line id="Line_5" data-name="Line 5" x1="115.479" transform="translate(6.565 108.797)" fill="none" stroke="#ff8727" stroke-miterlimit="10" stroke-width="1" stroke-dasharray="5.052 5.052"/>
                <path id="Path_12" data-name="Path 12" d="M564.247,267.823h-3.266v3.266" transform="translate(-560.982 -159.026)" fill="none" stroke="#ff8727" stroke-miterlimit="10" stroke-width="1"/>
                <line id="Line_6" data-name="Line 6" y2="20.53" transform="translate(0 117.928)" fill="none" stroke="#ff8727" stroke-miterlimit="10" stroke-width="1" stroke-dasharray="4.491 4.491"/>
                <line id="Line_7" data-name="Line 7" y2="3.266" transform="translate(0 141.391)" fill="none" stroke="#ff8727" stroke-miterlimit="10" stroke-width="1"/>
              </g>
            </g>
          </g>
          <line id="Line_8" data-name="Line 8" x1="34.031" transform="translate(0 28.371)" fill="none" stroke="#f699d5" stroke-miterlimit="10" stroke-width="1" stroke-dasharray="5"/>
        </g>
        <g id="Group_30" data-name="Group 30">
          <g id="Group_26" data-name="Group 26" transform="translate(49.071)">
            <g id="Group_25" data-name="Group 25">
              <line id="Line_9" data-name="Line 9" y1="3.266" transform="translate(0 10.505)" fill="none" stroke="#ff8727" stroke-miterlimit="10" stroke-width="1"/>
              <path id="Path_13" data-name="Path 13" d="M340.8,141.783v-3.266h3.266" transform="translate(-340.802 -138.517)" fill="none" stroke="#ff8727" stroke-miterlimit="10" stroke-width="1"/>
              <line id="Line_10" data-name="Line 10" x2="45.407" transform="translate(9.32)" fill="none" stroke="#ff8727" stroke-miterlimit="10" stroke-width="1" stroke-dasharray="4.635 4.635"/>
              <line id="Line_11" data-name="Line 11" x2="3.266" transform="translate(57.754)" fill="none" stroke="#ff8727" stroke-miterlimit="10" stroke-width="1"/>
            </g>
          </g>
          <line id="Line_12" data-name="Line 12" y1="74.28" transform="translate(49.071 71.822)" fill="none" stroke="#ff8727" stroke-miterlimit="10" stroke-width="1" stroke-dasharray="5"/>
          <g id="Group_29" data-name="Group 29" transform="translate(0 13.77)">
            <rect id="Rectangle_6" data-name="Rectangle 6" width="98.141" height="58.052" rx="4.069" fill="#0a6cc7"/>
            <g id="Group_27" data-name="Group 27" transform="translate(10.565 6.415)" opacity="0.4" style="isolation: isolate">
              <path id="Path_14" data-name="Path 14" d="M316.927,163.786h-2.883l-2.721-2.962,2.721-2.962h2.883l-2.735,2.962Z" transform="translate(-311.323 -152.78)" fill="#fff" style="mix-blend-mode: multiply;isolation: isolate"/>
              <path id="Path_15" data-name="Path 15" d="M326.62,153.971h2.213l-3.593,15.242h-2.211Z" transform="translate(-307.739 -153.971)" fill="#fff" style="mix-blend-mode: multiply;isolation: isolate"/>
              <path id="Path_16" data-name="Path 16" d="M335.312,160.823l-2.734-2.962h2.882l2.721,2.962-2.721,2.962h-2.882Z" transform="translate(-304.815 -152.78)" fill="#fff" style="mix-blend-mode: multiply;isolation: isolate"/>
            </g>
            <g id="Group_28" data-name="Group 28" transform="translate(8.116 29.026)" opacity="0.4" style="isolation: isolate">
              <rect id="Rectangle_7" data-name="Rectangle 7" width="67.344" height="2.013" fill="#fff" style="mix-blend-mode: multiply;isolation: isolate"/>
              <rect id="Rectangle_8" data-name="Rectangle 8" width="81.915" height="2.013" transform="translate(0 8.32)" fill="#fff" style="mix-blend-mode: multiply;isolation: isolate"/>
              <rect id="Rectangle_9" data-name="Rectangle 9" width="67.344" height="2.013" transform="translate(0 16.753)" fill="#fff" style="mix-blend-mode: multiply;isolation: isolate"/>
            </g>
          </g>
        </g>
      </g>
      <path id="Path_17" data-name="Path 17" d="M721.054,442.7c-28.248,0-53.191,1.728-68.237,4.367-20.732-3.61-68.168-6.134-123.38-6.134-47.406,0-89.081,1.861-113.042,4.671-13.632-2.81-37.318-4.671-64.28-4.671-42.264,0-76.525,4.569-76.525,10.207s34.262,10.205,76.525,10.205c26.961,0,50.648-1.861,64.28-4.671,23.961,2.811,65.636,4.671,113.042,4.671,48,0,90.118-1.907,113.929-4.777,12,3.827,42.251,6.544,77.689,6.544,45.967,0,83.229-4.569,83.229-10.205S767.021,442.7,721.054,442.7Z" transform="translate(-275.589 -13.114)" fill="#e0e0e0" opacity="0.6"/>
      <g id="Group_62" data-name="Group 62" transform="translate(142.862)">
        <g id="Group_53" data-name="Group 53">
          <rect id="Rectangle_10" data-name="Rectangle 10" width="215.774" height="438.027" rx="24" fill="#0a6cc7"/>
          <path id="Path_45" data-name="Path 45" d="M590.777,139.628V525.823H391.135V139.628a19.559,19.559,0,0,1,19.555-19.555h42.6v9.772a7.746,7.746,0,0,0,7.743,7.745h59.841a7.746,7.746,0,0,0,7.743-7.745v-9.772h42.591A19.56,19.56,0,0,1,590.777,139.628Z" transform="translate(-383.07 -111.365)" fill="#fff"/>
        </g>
        <g id="Group_61" data-name="Group 61" transform="translate(23.996 50.186)">
          <g id="Group_54" data-name="Group 54" transform="translate(0 50.83)">
            <rect id="Rectangle_11" data-name="Rectangle 11" width="164.685" height="92.204" rx="8.866" fill="none" stroke="#0a6cc7" stroke-miterlimit="10" stroke-width="1" stroke-dasharray="4.975 4.975"/>
          </g>
          <rect id="Rectangle_12" data-name="Rectangle 12" width="164.685" height="92.204" rx="8.866" transform="translate(0 156.773)" fill="#0a6cc7"/>
          <g id="Group_56" data-name="Group 56" transform="translate(35.076)">
            <path id="Path_46" data-name="Path 46" d="M515.58,180.292H444.417a14.232,14.232,0,0,1-14.232-14.232h0a14.233,14.233,0,0,1,14.232-14.232H515.58a14.233,14.233,0,0,1,14.232,14.232h0A14.232,14.232,0,0,1,515.58,180.292Z" transform="translate(-430.185 -151.827)" fill="none" stroke="#0a6cc7" stroke-miterlimit="10" stroke-width="1"/>
            <g id="Group_55" data-name="Group 55" transform="translate(25.728 7.829)">
              <path id="Path_47" data-name="Path 47" d="M452.417,157.96V168.6h4.168v2.012h-6.7V157.96Z" transform="translate(-449.882 -157.778)" fill="#0a6cc7"/>
              <path id="Path_48" data-name="Path 48" d="M462.263,170.776a6.477,6.477,0,1,1,6.467-6.487A6.357,6.357,0,0,1,462.263,170.776Zm0-2.265c2.282,0,3.859-1.648,3.859-4.222s-1.577-4.185-3.859-4.185c-2.3,0-3.878,1.613-3.878,4.185S459.961,168.511,462.263,168.511Z" transform="translate(-448.077 -157.821)" fill="#0a6cc7"/>
              <path id="Path_49" data-name="Path 49" d="M479,161.8h-2.915a3.183,3.183,0,0,0-2.972-1.631c-2.265,0-3.842,1.613-3.842,4.132a3.809,3.809,0,0,0,3.951,4.167,3.433,3.433,0,0,0,3.587-2.917h-4.348v-1.938h6.848v2.21a6.182,6.182,0,0,1-6.178,4.928,6.459,6.459,0,1,1-.018-12.918A5.808,5.808,0,0,1,479,161.8Z" transform="translate(-444.744 -157.817)" fill="#0a6cc7"/>
              <path id="Path_50" data-name="Path 50" d="M483.8,170.776a6.477,6.477,0,1,1,6.467-6.487A6.357,6.357,0,0,1,483.8,170.776Zm0-2.265c2.282,0,3.859-1.648,3.859-4.222s-1.577-4.185-3.859-4.185c-2.3,0-3.878,1.613-3.878,4.185S481.5,168.511,483.8,168.511Z" transform="translate(-441.482 -157.821)" fill="#0a6cc7"/>
            </g>
          </g>
          <rect id="Rectangle_13" data-name="Rectangle 13" width="39.758" height="37.378" transform="translate(0 263.8)" fill="#04427d"/>
          <rect id="Rectangle_14" data-name="Rectangle 14" width="39.758" height="37.378" transform="translate(0 308.366)" fill="#0a6cc7"/>
          <g id="Group_57" data-name="Group 57" transform="translate(44.934 265.813)">
            <rect id="Rectangle_15" data-name="Rectangle 15" width="66.748" height="2.013" fill="#0a6cc7"/>
            <rect id="Rectangle_16" data-name="Rectangle 16" width="66.748" height="2.013" transform="translate(0 22.643)" fill="#0a6cc7"/>
            <rect id="Rectangle_17" data-name="Rectangle 17" width="40.936" height="2.013" transform="translate(0 7.548)" fill="#0a6cc7"/>
            <rect id="Rectangle_18" data-name="Rectangle 18" width="40.936" height="2.013" transform="translate(0 30.19)" fill="#0a6cc7"/>
            <rect id="Rectangle_19" data-name="Rectangle 19" width="53.617" height="2.013" transform="translate(0 15.095)" fill="#0a6cc7"/>
          </g>
          <g id="Group_58" data-name="Group 58" transform="translate(44.934 310.954)">
            <rect id="Rectangle_20" data-name="Rectangle 20" width="66.748" height="2.013" fill="#0a6cc7"/>
            <rect id="Rectangle_21" data-name="Rectangle 21" width="66.748" height="2.013" transform="translate(0 22.643)" fill="#0a6cc7"/>
            <rect id="Rectangle_22" data-name="Rectangle 22" width="40.936" height="2.013" transform="translate(0 7.548)" fill="#0a6cc7"/>
            <rect id="Rectangle_23" data-name="Rectangle 23" width="40.936" height="2.013" transform="translate(0 30.19)" fill="#0a6cc7"/>
            <rect id="Rectangle_24" data-name="Rectangle 24" width="53.617" height="2.013" transform="translate(0 15.095)" fill="#0a6cc7"/>
          </g>
          <path id="Path_51" data-name="Path 51" d="M535.69,368.378H503.645a7.3,7.3,0,0,1-7.3-7.3h0a7.3,7.3,0,0,1,7.3-7.3H535.69a7.3,7.3,0,0,1,7.3,7.3h0A7.3,7.3,0,0,1,535.69,368.378Z" transform="translate(-374.848 -89.986)" fill="#ff8727"/>
          <path id="Path_52" data-name="Path 52" d="M479.134,334.162H416.477a7.3,7.3,0,0,1-7.3-7.3h0a7.3,7.3,0,0,1,7.3-7.3h62.656a7.3,7.3,0,0,1,7.3,7.3h0A7.3,7.3,0,0,1,479.134,334.162Z" transform="translate(-401.54 -100.463)" fill="#ff8727"/>
          <path id="Path_53" data-name="Path 53" d="M479.134,255.782H416.477a7.3,7.3,0,0,1-7.3-7.3h0a7.3,7.3,0,0,1,7.3-7.3h62.656a7.3,7.3,0,0,1,7.3,7.3h0A7.3,7.3,0,0,1,479.134,255.782Z" transform="translate(-401.54 -124.463)" fill="none" stroke="#0a6cc7" stroke-miterlimit="10" stroke-width="1" stroke-dasharray="5"/>
          <path id="Path_54" data-name="Path 54" d="M535.69,402.5H503.645a7.3,7.3,0,0,1-7.3-7.3h0a7.294,7.294,0,0,1,7.3-7.3H535.69a7.3,7.3,0,0,1,7.3,7.3h0A7.3,7.3,0,0,1,535.69,402.5Z" transform="translate(-374.848 -79.538)" fill="#ff8727"/>
          <g id="Group_59" data-name="Group 59" transform="translate(8.993 62.532)">
            <rect id="Rectangle_25" data-name="Rectangle 25" width="135.827" height="2.013" fill="#0a6cc7"/>
            <rect id="Rectangle_26" data-name="Rectangle 26" width="107.919" height="2.013" transform="translate(0 8.32)" fill="#0a6cc7"/>
            <rect id="Rectangle_27" data-name="Rectangle 27" width="118.757" height="2.013" transform="translate(0 16.641)" fill="#0a6cc7"/>
            <rect id="Rectangle_28" data-name="Rectangle 28" width="107.919" height="2.013" transform="translate(0 25.073)" fill="#0a6cc7"/>
            <rect id="Rectangle_29" data-name="Rectangle 29" width="118.757" height="2.013" transform="translate(0 33.393)" fill="#0a6cc7"/>
          </g>
          <g id="Group_60" data-name="Group 60" transform="translate(8.993 171.248)" opacity="0.5">
            <rect id="Rectangle_30" data-name="Rectangle 30" width="77.995" height="2.013" fill="#fff"/>
            <rect id="Rectangle_31" data-name="Rectangle 31" width="50.088" height="2.013" transform="translate(0 8.32)" fill="#fff"/>
            <rect id="Rectangle_32" data-name="Rectangle 32" width="60.925" height="2.013" transform="translate(0 16.641)" fill="#fff"/>
            <rect id="Rectangle_33" data-name="Rectangle 33" width="50.088" height="2.013" transform="translate(0 25.073)" fill="#fff"/>
            <rect id="Rectangle_34" data-name="Rectangle 34" width="60.925" height="2.013" transform="translate(0 33.393)" fill="#fff"/>
          </g>
        </g>
      </g>
      <g id="Group_74" data-name="Group 74" transform="translate(324.468 109.571)">
        <g id="Group_72" data-name="Group 72" transform="translate(9.94)">
          <g id="Group_70" data-name="Group 70" transform="translate(53.97)">
            <g id="Group_63" data-name="Group 63" transform="translate(0 60.357)">
              <path id="Path_55" data-name="Path 55" d="M603.463,300.99,589.794,302.7l-2.9,8.993c-.644,1.735-1.245,3.516-1.766,5.338l-1.481.572a17.625,17.625,0,0,0-5.98,3.754l-3.972,3.757c-.627.737-.04,1.71,1.078,1.182l3.464-2.594-1.725,2.765a37.81,37.81,0,0,0-2.488,4.821l-1.087,2.6a.92.92,0,0,0,1.671.585l3.77-6.483-1.983,4.132-1.855,4.505c-.283,1.066,1.215,1.352,1.567.632l1.816-3.774L580.533,329l-1,3.7a8.517,8.517,0,0,0-.3,2.47l.107,2.824c.6,1.225,1.266.839,1.906.065l.037-2.487a7.047,7.047,0,0,1,.568-2.739l1.45-3.508.306,7.021c.259,1,2,.664,1.793-.325a30.926,30.926,0,0,1,.419-6.976,16.006,16.006,0,0,0,5.479-7.491l1.362-3.971Z" transform="translate(-572.922 -225.895)" fill="#f8b58e"/>
              <path id="Path_56" data-name="Path 56" d="M590.768,260.241l4.6,26.677-12.214,45.355,6.536,5.747,15.829-28.368a65.818,65.818,0,0,0,8.432-33.645l-.371-16.116a17.431,17.431,0,0,0-7.923-14.212c-6.265-4.1-11.167-2.642-14.232,6.306A16.687,16.687,0,0,0,590.768,260.241Z" transform="translate(-569.79 -243.499)" fill="#ff8727"/>
              <path id="Path_57" data-name="Path 57" d="M612.5,276l-.371-16.116a17.433,17.433,0,0,0-7.922-14.212c-2.9-1.9-5.5-2.585-7.764-1.915-3.075,4.986-2.986,11.444-2.24,17.072a95.891,95.891,0,0,0,4.084,16.537,66.631,66.631,0,0,1,2.752,11.168,35.8,35.8,0,0,1-.23,11.421,91.5,91.5,0,0,1-3.2,11.117c-1.157,3.626-2.475,7.2-3.985,10.694-.767,1.778-1.639,3.5-2.436,5.267a37.82,37.82,0,0,0-1.886,5.439c-.486,1.74-.921,3.494-1.413,5.23l.354.311,15.829-28.368A65.818,65.818,0,0,0,612.5,276Z" transform="translate(-568.341 -243.496)" fill="#5e85ff" opacity="0.55" style="mix-blend-mode: multiply;isolation: isolate"/>
            </g>
            <path id="Path_58" data-name="Path 58" d="M655.78,487.094l-8.068.18-15.851-91.782v-62.5l-4.091.694-5.26,77.082L615.5,487.158h-10.52V392.716l3.507-86.109h45.589l-2.922,93.054Z" transform="translate(-563.107 -163.818)" fill="#04427d"/>
            <path id="Path_59" data-name="Path 59" d="M591.1,250.191l3.164,14.017a129.141,129.141,0,0,0,9.721,27.8l6.99,14.443,1.165,31.251c19.3,9.722,49.628-3.276,49.628-3.276l-10.791-68.491c-2.684-22.362-12-29.075-18.573-30.586a31.465,31.465,0,0,0-10.93-.546l-.95.129a29.7,29.7,0,0,0-4,.892l-8.354,2.43a31.088,31.088,0,0,0-7.824,3.524c-.029.014-.072.043-.1.057-.46.287-.906.575-1.352.892A36.012,36.012,0,0,0,591.1,250.191Z" transform="translate(-567.355 -185.88)" fill="#ff8727"/>
            <path id="Path_60" data-name="Path 60" d="M642.077,262.627a48.855,48.855,0,0,0-1.446-11.89c-.857-3.127-2.695-6.02-3.093-9.26a19.107,19.107,0,0,0-7.785-5.8,18.774,18.774,0,0,0-5.567,8.085,32.238,32.238,0,0,0-1.435,10.592c.009,7.346.76,14.675.792,22.027A89.123,89.123,0,0,1,621.2,298.9a52.43,52.43,0,0,1-3.821,10.379,57.434,57.434,0,0,1-6.412,9.7c-1.352,1.729-2.727,3.459-4.139,5.162l.492,13.219a25.015,25.015,0,0,0,5.062,1.874c.529-.594,1.07-1.178,1.616-1.749,2.735-2.853,5.57-5.588,8.157-8.58A59.425,59.425,0,0,0,629,319.4a93.734,93.734,0,0,0,5-10.237,104.916,104.916,0,0,0,6.372-22.027A126.821,126.821,0,0,0,642.077,262.627Z" transform="translate(-562.539 -185.536)" fill="#5e85ff" opacity="0.55" style="mix-blend-mode: multiply;isolation: isolate"/>
            <path id="Path_61" data-name="Path 61" d="M624.034,240.624a17.971,17.971,0,0,1,1.37-2.379c-.358.294-.708.6-1.045.918a16.259,16.259,0,0,0-4.61,8.488,52.573,52.573,0,0,0-.965,8.547q-.286,4.983-.358,9.968c-.1,6.88-.167,13.825-1.839,20.543-1.979,7.95-6.006,14.947-10.178,21.882l.485,13.007c1.886-2.272,3.733-4.574,5.487-6.939,9.317-12.554,10.5-28.586,10.057-43.689-.108-3.7-.313-7.385-.5-11.077a79.559,79.559,0,0,1-.065-10.335A25.818,25.818,0,0,1,624.034,240.624Z" transform="translate(-562.668 -184.751)" fill="#5e85ff" opacity="0.55" style="mix-blend-mode: multiply;isolation: isolate"/>
            <g id="Group_64" data-name="Group 64" transform="translate(22.087 49.809)">
              <path id="Path_62" data-name="Path 62" d="M624.97,300.378l-13.808-.234-4.193,9.672c-.893,1.853-1.75,3.764-2.534,5.734l-1.553.411a16.874,16.874,0,0,0-6.48,3.285l-4.491,3.6c-.73.731-.29,1.92.9,1.5l3.815-2.376-2.116,2.844a44.038,44.038,0,0,0-3.174,5.037l-1.459,2.76a.931.931,0,0,0,1.571.922l4.688-6.709-2.571,4.342-2.5,4.782c-.438,1.156,1.006,1.714,1.462.959l2.352-3.964,3.247-4.636-1.531,4.017a10.845,10.845,0,0,0-.656,2.735l-.307,3.2c.421,1.476,1.132,1.144,1.881.375l.4-2.8a8.773,8.773,0,0,1,.965-3l1.951-3.724-.724,7.959a.915.915,0,0,0,1.826-.084,39.408,39.408,0,0,1,1.437-7.794,17.544,17.544,0,0,0,6.532-7.573l1.932-4.257Z" transform="translate(-589.831 -215.606)" fill="#f8b58e"/>
              <path id="Path_63" data-name="Path 63" d="M620.256,252.955l.65,30.774-18.755,49.164,5.642,7.5,19.853-29.458a81.214,81.214,0,0,0,13.289-36.569l1.991-18.211a21.185,21.185,0,0,0-5.777-17.26c-5.614-5.608-10.69-4.738-15.041,4.858A21.221,21.221,0,0,0,620.256,252.955Z" transform="translate(-586.059 -235.424)" fill="#ff8727"/>
            </g>
            <path id="Path_64" data-name="Path 64" d="M592.685,453.32a1.935,1.935,0,0,0,2.019,1.822l21.272-.022c2.274-.007,4.921-1.574,4.126-3.8l-1.306-6.536-7.772,0c0,.136-16.761,6.38-17.653,7.1A1.706,1.706,0,0,0,592.685,453.32Z" transform="translate(-566.87 -121.507)" fill="#0a6cc7"/>
            <path id="Path_65" data-name="Path 65" d="M623.88,453.32a1.935,1.935,0,0,0,2.019,1.822l21.272-.022c2.274-.007,4.921-1.574,4.126-3.8l-1.306-6.536-7.772,0c0,.136-16.761,6.38-17.653,7.1A1.706,1.706,0,0,0,623.88,453.32Z" transform="translate(-557.318 -121.507)" fill="#0a6cc7"/>
            <g id="Group_69" data-name="Group 69" transform="translate(17.488)">
              <path id="Path_66" data-name="Path 66" d="M614.778,241.924a7.458,7.458,0,0,1-3.511,6.9,7.24,7.24,0,0,1-1.944.819,6.46,6.46,0,0,1-8.014-6.169l-.008-.111.012-.159-.009-.3.014-1.978-.391-7.73c.009-.532,5.384-1.13,5.384-1.13l2.851-2.1,4.292-3.168.195-.125,0,1.219.726,9.3.206,2.221Z" transform="translate(-581.834 -188.296)" fill="#f8b58e"/>
              <path id="Path_67" data-name="Path 67" d="M610.7,228.468a14.316,14.316,0,0,1-9.394,14.452l-.008-.111.012-.159-.009-.3.014-1.978-.391-7.73a1.559,1.559,0,0,1,.747-1.315l4.637.185,2.851-2.1Z" transform="translate(-581.834 -187.744)" fill="#f8b58e" opacity="0.64" style="mix-blend-mode: multiply;isolation: isolate"/>
              <g id="Group_65" data-name="Group 65" transform="translate(16.648 45.997)">
                <path id="Path_68" data-name="Path 68" d="M618.089,244.211a26.108,26.108,0,0,0-.917-10.5,1.634,1.634,0,0,0-.758-1.13,1.7,1.7,0,0,0-1.211.12,59.56,59.56,0,0,1-14.253,3.157,2.159,2.159,0,0,0-1.661.664,2.072,2.072,0,0,0-.229,1.249q.061,2.079.217,4.154l1.214,5.2a6.283,6.283,0,0,0,4.166,5.18,11.286,11.286,0,0,0,5.564,0,10.478,10.478,0,0,0,5.453-2.224C617.245,248.6,617.837,246.357,618.089,244.211Z" transform="translate(-599.056 -232.505)" fill="#ff8727"/>
              </g>
              <path id="Path_69" data-name="Path 69" d="M591.607,219.091c-.632-3.333.833-7.44,2.033-10.068a16.33,16.33,0,0,1,3.433-4.99c8.676-8.425,18.973-2.686,18.973-2.686,7.091,2.189,5.908,13.979,5.908,13.979.02.65.03,1.275.037,1.886a2.915,2.915,0,0,1,1.279-.017c2.128.5,3.277,3.352,2.568,6.366-.66,2.8-2.692,4.732-4.684,4.594a20.224,20.224,0,0,1-8.779,12.668c-.269.17-.536.329-.8.477a9.068,9.068,0,0,1-2.388.895,13.019,13.019,0,0,1-15.087-8.809A55.773,55.773,0,0,1,591.607,219.091Z" transform="translate(-584.735 -196.633)" fill="#f8b58e"/>
              <g id="Group_66" data-name="Group 66">
                <path id="Path_70" data-name="Path 70" d="M629.193,209.5a13.463,13.463,0,0,0-5.763-9.675c-3.162-1.989-7.106-2.21-10.84-2.091s-7.543.515-11.155-.444q.482,1.005.963,2.009a16.079,16.079,0,0,0-12.289,11.013,30.329,30.329,0,0,1-1.11,3.731,4.489,4.489,0,0,1-2.688,2.645,3.066,3.066,0,0,0,2.341-.012,9.277,9.277,0,0,0,2.936,9.46,9.483,9.483,0,0,1,1.851,1.667,1.917,1.917,0,0,1,.082,2.311c.384-.081.718.243,1.1.161-.735-4.991-1.3-7.8-1.539-11.876a28.8,28.8,0,0,0,9.463-6.976,4.15,4.15,0,0,1-1.854,4.011,18.889,18.889,0,0,0,12.5-5.073c-1.164,1.335-.829,3.441.064,4.969s2.243,2.753,3.127,4.287,1.193,3.65.005,4.964a2.739,2.739,0,0,0,2.445-1.476,3.085,3.085,0,0,0,2.938,4.365,6.259,6.259,0,0,1,4.8-8.3l1,1.735A24.33,24.33,0,0,0,629.193,209.5Z" transform="translate(-586.31 -197.291)" fill="#47333c"/>
              </g>
              <path id="Path_71" data-name="Path 71" d="M596.762,224.259c.481-2.582,1.16-5.144,1.739-7.705.136-.6,1.085-.444.948.161l-1.411,6.229c-.175.776-.8,2.168.112,2.653a4.111,4.111,0,0,0,2.876.064c.59-.167.942.728.347.9C599.566,227.071,596.259,226.959,596.762,224.259Z" transform="translate(-583.125 -191.509)" fill="#f8b58e" opacity="0.64" style="mix-blend-mode: multiply;isolation: isolate"/>
              <path id="Path_72" data-name="Path 72" d="M600.258,227.331a7.838,7.838,0,0,0,5.724-3.77.483.483,0,0,1,.674-.084.491.491,0,0,1,.084.674,8.752,8.752,0,0,1-6.377,4.134A.481.481,0,0,1,600.258,227.331Z" transform="translate(-582.165 -189.302)" fill="#f8b58e" opacity="0.64" style="mix-blend-mode: multiply;isolation: isolate"/>
              <path id="Path_73" data-name="Path 73" d="M605.324,217.748c.01.973-.521,1.778-1.189,1.8s-1.215-.75-1.224-1.723.521-1.778,1.187-1.8S605.314,216.775,605.324,217.748Z" transform="translate(-581.227 -191.555)" fill="#47333c"/>
              <path id="Path_74" data-name="Path 74" d="M597.019,218.3c.01.973-.521,1.778-1.189,1.8s-1.215-.751-1.225-1.724.523-1.778,1.189-1.8S597.008,217.324,597.019,218.3Z" transform="translate(-583.77 -191.387)" fill="#47333c"/>
              <g id="Group_67" data-name="Group 67" transform="translate(21.061 19.704)">
                <path id="Path_75" data-name="Path 75" d="M607.861,215.6l.008-.005a.43.43,0,0,1,.145-.034,5.531,5.531,0,0,0-4.27-3.164,1.653,1.653,0,0,0-.863.076.7.7,0,0,0-.443.688c.043.321.36.528.66.652a8.635,8.635,0,0,0,1.963.447,5.851,5.851,0,0,1,1.929.551A2.539,2.539,0,0,1,607.861,215.6Z" transform="translate(-602.433 -212.376)" fill="#47333c"/>
              </g>
              <g id="Group_68" data-name="Group 68" transform="translate(9.279 20.003)">
                <path id="Path_76" data-name="Path 76" d="M597.054,212.71a1.27,1.27,0,0,0-.717-.091,3.452,3.452,0,0,0-2.923,3.1,1.771,1.771,0,0,1,.384-.6.233.233,0,0,1,.031-.022,1.6,1.6,0,0,1,.311-.285,3.506,3.506,0,0,1,1.468-.473,5.327,5.327,0,0,0,1.514-.374.628.628,0,0,0,.418-.6A.882.882,0,0,0,597.054,212.71Z" transform="translate(-593.414 -212.605)" fill="#47333c"/>
              </g>
            </g>
          </g>
          <g id="Group_71" data-name="Group 71" transform="translate(0 122.618)">
            <path id="Path_77" data-name="Path 77" d="M613.311,339.08H543.555a3.245,3.245,0,0,1-3.175-2.577l-8.7-41.426a3.244,3.244,0,0,1,3.175-3.912h69.755a3.245,3.245,0,0,1,3.175,2.577l8.706,41.426A3.245,3.245,0,0,1,613.311,339.08Z" transform="translate(-531.604 -291.164)" fill="#6ca7dd"/>
            <path id="Path_78" data-name="Path 78" d="M558.29,311.666a6.265,6.265,0,1,0,6.241-5.721A6,6,0,0,0,558.29,311.666Z" transform="translate(-523.432 -286.638)" fill="#0a6cc7"/>
            <rect id="Rectangle_35" data-name="Rectangle 35" width="65.971" height="4.167" transform="translate(16.609 47.915)" fill="#0a6cc7"/>
            <rect id="Rectangle_36" data-name="Rectangle 36" width="34.374" height="4.167" transform="translate(82.58 47.915)" fill="#0a6cc7"/>
          </g>
        </g>
        <g id="Group_73" data-name="Group 73" transform="translate(0 173.558)">
          <path id="Path_79" data-name="Path 79" d="M617.682,331.037h4.77l33.273,158.935h-4.77Z" transform="translate(-495.306 -329.895)" fill="#6ca7dd"/>
          <path id="Path_80" data-name="Path 80" d="M550.36,331.037h4.77L528.764,489.972h-4.77Z" transform="translate(-523.994 -329.895)" fill="#6ca7dd"/>
          <path id="Path_81" data-name="Path 81" d="M535.631,334.9h123.3a2.366,2.366,0,0,0,2.367-2.367h0a2.366,2.366,0,0,0-2.367-2.367h-123.3a2.366,2.366,0,0,0-2.367,2.367h0A2.366,2.366,0,0,0,535.631,334.9Z" transform="translate(-521.155 -330.163)" fill="#6ca7dd"/>
        </g>
      </g>
      <g id="Group_87" data-name="Group 87" transform="translate(33.016 116.969)">
        <g id="Group_75" data-name="Group 75">
          <path id="Path_82" data-name="Path 82" d="M373.96,288.13c-1.37-2.248-1.5-5.039-1.225-7.658s.921-5.2.957-7.832c.158-11.551-11.1-20.813-11.261-32.363-.074-5.391,2.33-10.567,2.4-15.959a12.476,12.476,0,0,0-.68-3.66c-5.23-16.806-25.8-23.083-39.88-12.521h0a21.865,21.865,0,0,0-8.647,20.024,70.473,70.473,0,0,1,.521,11.519c-.358,7.923-2.629,16-7.806,22.011-1.723,2-3.744,3.748-5.289,5.887s-2.6,4.836-2.022,7.411c.778,3.459,4.206,5.725,5.453,9.044a9.548,9.548,0,0,1-1.754,9.048q-.3.378-.626.729a5.593,5.593,0,0,0,3.651,9.262,38.33,38.33,0,0,0,7.669-.127c2.2-.236,4.39-.564,6.6-.611,5.337-.112,10.559,1.4,15.848,2.125a30.233,30.233,0,0,0,8.479.089,5.724,5.724,0,0,0,4.727-5.729v-.04a25.427,25.427,0,0,0,21.9-1.291,5.584,5.584,0,0,0,1.587-8.533A6.46,6.46,0,0,1,373.96,288.13Z" transform="translate(-300.866 -202.954)" fill="#47333c"/>
        </g>
        <g id="Group_82" data-name="Group 82" transform="translate(8.23 6.659)">
          <path id="Path_83" data-name="Path 83" d="M317.383,442.259c-3.737,1.076-5.448.893-9.219,1.835-.351.916-3.013,8.4,2.145,8.488L334.57,453c.853.013,1.885-.212,2.217-1.007C338.6,447.659,322.775,443.589,317.383,442.259Z" transform="translate(-307.166 -136.337)" fill="#0a6cc7"/>
          <path id="Path_84" data-name="Path 84" d="M348.351,442.285c-4.021-.52-5.448.893-9.22,1.835-.351.916-3.012,8.4,2.145,8.488l24.263.421c.852.013,1.885-.212,2.217-1.007C369.565,447.685,353.743,443.615,348.351,442.285Z" transform="translate(-297.683 -136.363)" fill="#0a6cc7"/>
          <path id="Path_85" data-name="Path 85" d="M419.861,262.367l-8.6,1.37.392,1.488c8.262-.381,4.887,1.831,4.887,1.831l-9.415.162c-7.145,3.906-11.915,2.017-11.915,2.017l-26.055,25.454a9.816,9.816,0,0,1-14.611-2.443l-4.932-8.066-1.048-1.729-14.059-22.977a12.285,12.285,0,0,1,.552-13.643,7.436,7.436,0,0,1,4.356-2.882h.012c3.181,0,6.326.991,7.858,3.02.093.138.184.287.277.438L361.4,269.684l-.012.01,1.51,2.535,3.226,5.427c6.189-3.272,26.32-14.566,26.32-14.566l.564-3.975a9.188,9.188,0,0,1,2.4-4.909,15.707,15.707,0,0,0,3.86-7.006c3.169,1.6-.691,7.236-.691,7.236l1.463,2.512,5.5-1.659c12.11-9.288,11.132-4.39,11.132-4.39l-8.412,5.888.852,1.578c11.236-7.363,9.991-3.054,9.991-3.054l-9.115,5,.576,1.763C422.8,258.886,419.861,262.367,419.861,262.367Z" transform="translate(-299.346 -197.367)" fill="#f8b58e"/>
          <path id="Path_86" data-name="Path 86" d="M363.528,272.23c-3.561,3.412-7.1,6.868-10.855,10.06a30.031,30.031,0,0,1-2.432,1.89l-1.048-1.729-14.059-22.977c-2.593-4.24-6.338-9.241-3.412-13.263,1.579-2.155,4.967-3.262,8.321-3.262h.012c3.181,0,6.326.991,7.858,3.02.093.138.184.287.277.438l13.839,23.278-.012.01Z" transform="translate(-299.973 -197.367)" fill="#473db1"/>
          <path id="Path_87" data-name="Path 87" d="M363.528,272.23c-3.561,3.412-7.1,6.868-10.855,10.06a30.031,30.031,0,0,1-2.432,1.89l-1.048-1.729-14.059-22.977c-2.593-4.24-6.338-9.241-3.412-13.263,1.579-2.155,4.967-3.262,8.321-3.262h.012c3.181,0,6.326.991,7.858,3.02.093.138.184.287.277.438l13.839,23.278-.012.01Z" transform="translate(-299.973 -197.367)" fill="#ff8727"/>
          <path id="Path_88" data-name="Path 88" d="M307.93,488.432s9.108-1.467,9.219-1.835l16.038-52.27a197.04,197.04,0,0,0,6.084-27.489c.074-.481.148-.959.222-1.438.073-.665.184-1.328.239-1.974l2.083-16.022c.814-6.262,3.578-38.494,4.5-44.736-1.714,11.548,7.222,72.706,7.222,72.706s-10.356,22.887-5.162,73.059l9.22-1.835,9.253-54.1a193.929,193.929,0,0,0,2.729-25.664c.056-1.29.093-2.582.111-3.853.018-.665.037-1.328.037-1.992l.148-13.219.277-25.555c.461-7.632.718-15.284.718-22.954,0-2.359-.018-4.683-.073-7.025-.018-.773-.018-1.566-.056-2.341v-.572l-1.291-24.17-.239-4.721-.018-.055s-.184-.018-.2-.018l-20.814-2.047-8.445-.829a3.676,3.676,0,0,0-1.991.332,3.741,3.741,0,0,0-3.024.959,16.69,16.69,0,0,0-1.513,1.511,24.22,24.22,0,0,0-4.222,6.268c-.664,1.42-1.622,3.467-2.692,5.734a74.832,74.832,0,0,0-7.209,33.132c.185,12.131,3.374,69.8,2.876,70.171C310.454,424.757,308.353,471.082,307.93,488.432Z" transform="translate(-306.932 -180.674)" fill="#04427d"/>
          <path id="Path_89" data-name="Path 89" d="M365.94,315.571c.023.195.034.391.046.6-1.2.346-2.4.681-3.606.98a90.281,90.281,0,0,1-26.308,2.363c-3.525-.184-7.04-.542-10.532-1.037.576-.968,1.164-1.925,1.786-2.87s1.245-1.867,1.914-2.777c.865-1.187,1.774-2.363,2.719-3.5a3.866,3.866,0,0,0,.61-.991,3.364,3.364,0,0,0,.334-1.417,48.808,48.808,0,0,0-2.477-14.047c-.554-1.7-1.153-3.387-1.775-5.071-2.581-6.948-5.7-13.758-7.421-20.937-.231-1.025-.645-2.512-1.072-4.218-1.255-5.2-2.581-12.446.657-14.969a5.934,5.934,0,0,1,.714-.473,10.241,10.241,0,0,1,1.314-.667c.127-.057.253-.115.38-.162.588-.23,1.429-.5,2.086-.691l.242-.069c.127-.046.253-.081.38-.115.172-.057.287-.081.334-.093.461-.138.887-.253,1.291-.357s.748-.2,1.037-.289c.23-.069.426-.127.588-.184a4.529,4.529,0,0,0,.76-.334l.012-.01c.046-.035.091-.059.138-.093a.87.87,0,0,0,.08-.046c.023-.012.059-.023.081-.035a.778.778,0,0,1,.231-.081.683.683,0,0,0,.127-.022c.069-.024.149-.035.242-.057a.223.223,0,0,0,.081-.012c.08-.012.172-.024.287-.047l1.106-.137.057-.012c.093-.012.208-.024.311-.035.461-.046,4.714-.691,5.163-.7a7.084,7.084,0,0,1,4.044.289c.1.046.208.091.311.138a.876.876,0,0,1,.15.08,7.118,7.118,0,0,1,.784.507l.426.324c.012.01.035.022.047.034q3.993,2.99,7.927,6.073c1.268.968,2.524,1.959,3.78,2.962,1.071.818,2.144,1.681,3.215,2.534.069.035.069.057.127.1,4.368,3.456,9.265,6.338,9.53,12.446.127,3.64-1.74,6.441-4.529,8.919a17.55,17.55,0,0,0,.115,2.292c0,.162.035.37.035.566.057,1.129.1,2.27.161,3.422.323,6.971.772,13.92,1.245,20.88.034.691.093,1.383.138,2.086.081,1.21.161,2.409.242,3.618.057.922.115,1.833.162,2.731.022.368.046.772.08,1.21.023.289.047.6.057.922Z" transform="translate(-303.606 -197.413)" fill="#473db1"/>
          <path id="Path_90" data-name="Path 90" d="M365.94,315.571c.012.195.034.391.046.6-1.2.346-2.4.681-3.606.98a90.281,90.281,0,0,1-26.308,2.363c-3.525-.184-7.04-.542-10.532-1.037.576-.968,1.164-1.925,1.786-2.87s1.245-1.867,1.914-2.777c.865-1.187,1.774-2.363,2.719-3.5a3.866,3.866,0,0,0,.61-.991,3.364,3.364,0,0,0,.334-1.417,48.808,48.808,0,0,0-2.477-14.047c-.554-1.7-1.153-3.387-1.775-5.071-2.581-6.948-5.7-13.758-7.421-20.937-.231-1.025-.645-2.512-1.072-4.218-1.255-5.2-2.581-12.446.657-14.969a5.934,5.934,0,0,1,.714-.473,10.241,10.241,0,0,1,1.314-.667c.127-.057.253-.115.38-.162a13.2,13.2,0,0,1,1.763-.61c.1-.024.218-.057.323-.081l.242-.069c.127-.046.253-.081.38-.115s.23-.069.334-.093c.461-.138.887-.253,1.291-.357s.748-.2,1.037-.289c.23-.069.426-.138.588-.184a4.529,4.529,0,0,0,.76-.334l.012-.01c.046-.035.091-.059.138-.093a.87.87,0,0,0,.08-.046c.023-.012.059-.023.081-.035.057-.024.138-.046.231-.081a.683.683,0,0,0,.127-.022c.069-.024.149-.035.242-.057a.223.223,0,0,0,.081-.012c.08-.012.172-.024.287-.047l1.106-.137.057-.012c.093-.012.208-.024.311-.035.461-.046,4.714-.691,5.163-.7a7.084,7.084,0,0,1,4.044.289c.1.046.208.091.311.138a.876.876,0,0,1,.15.08,7.118,7.118,0,0,1,.784.507l.426.324c.012.01.035.022.047.034q3.993,2.99,7.927,6.073c1.268.968,2.524,1.959,3.78,2.962,1.071.818,2.144,1.681,3.215,2.534.069.035.069.057.127.1,4.368,3.456,9.265,6.338,9.53,12.446.127,3.64-1.74,6.441-4.529,8.919a17.55,17.55,0,0,0,.115,2.292c0,.162.035.37.035.566.057,1.129.1,2.27.161,3.422.323,6.971.772,13.92,1.245,20.88.034.691.093,1.383.138,2.086.081,1.21.161,2.409.242,3.618.057.922.115,1.833.162,2.731.022.368.046.772.08,1.21.023.289.035.6.057.922Z" transform="translate(-303.606 -197.413)" fill="#ff8727"/>
          <path id="Path_91" data-name="Path 91" d="M349.757,263.612c-9.624-1.965-25.475-18.15-25.244-18.207.461-.138.887-.253,1.291-.357a9.716,9.716,0,0,0,2.385-.807l.012-.01c.334-.208.311-.289,2.373-.53l.057-.012c.093-.012.208-.024.311-.035.461-.046,4.714-.691,5.163-.7a7.084,7.084,0,0,1,4.044.289,2.83,2.83,0,0,1,.461.218,7.119,7.119,0,0,1,.784.507l.426.324c.012.01.035.022.047.034C343.446,253.195,349.757,263.612,349.757,263.612Z" transform="translate(-301.855 -197.413)" fill="#f8b58e"/>
          <path id="Path_92" data-name="Path 92" d="M337.994,249.064" transform="translate(-297.726 -195.494)" fill="#47333c"/>
          <g id="Group_76" data-name="Group 76" transform="translate(23.283 29.18)">
            <path id="Path_93" data-name="Path 93" d="M339.986,247.674a.25.25,0,0,0-.009.076c-.009.144-.016.462-.021.848a7.145,7.145,0,0,1-3.3,6.029,6.172,6.172,0,0,1-5.163.658A7.974,7.974,0,0,1,326,247.847l-.073-2.679-.939-14.441,13.784-.334.193,2.695.614,8.834Z" transform="translate(-324.991 -230.392)" fill="#f8b58e"/>
            <path id="Path_94" data-name="Path 94" d="M339.532,247.548a.251.251,0,0,0-.009.076c-14-.246-13.032-16.817-13.032-16.817l12.024,2.154.614,8.834Z" transform="translate(-324.536 -230.265)" fill="#f8b58e" opacity="0.64" style="mix-blend-mode: multiply;isolation: isolate"/>
          </g>
          <g id="Group_78" data-name="Group 78" transform="translate(0.118 32.211)">
            <path id="Path_608" data-name="Path 608" d="M4.445,0H112.9a4.445,4.445,0,0,1,4.445,4.445v44.68A4.445,4.445,0,0,1,112.9,53.57H4.445A4.445,4.445,0,0,1,0,49.125V4.445A4.445,4.445,0,0,1,4.445,0Z" transform="translate(0 45.939) rotate(-23.047)" fill="#0a6cc7"/>
            <path id="Path_95" data-name="Path 95" d="M371.007,261.484l-50.076,21.3a3.684,3.684,0,0,1-4.833-1.948h0a3.684,3.684,0,0,1,1.948-4.833L368.123,254.7a3.685,3.685,0,0,1,4.833,1.948h0A3.686,3.686,0,0,1,371.007,261.484Z" transform="translate(-304.639 -226.069)" fill="#f699d5" style="mix-blend-mode: multiply;isolation: isolate"/>
            <g id="Group_77" data-name="Group 77" transform="translate(18.008 26.378)">
              <path id="Path_96" data-name="Path 96" d="M411.83,255.335,322.8,293.105a1.266,1.266,0,0,1-1.659-.669h0a1.265,1.265,0,0,1,.669-1.659l89.027-37.769a1.263,1.263,0,0,1,1.659.667h0A1.265,1.265,0,0,1,411.83,255.335Z" transform="translate(-321.043 -252.907)" fill="#f699d5" style="mix-blend-mode: multiply;isolation: isolate"/>
              <path id="Path_97" data-name="Path 97" d="M406.934,262.968,325.056,297.7a1.264,1.264,0,0,1-1.659-.669h0a1.266,1.266,0,0,1,.669-1.659l81.878-34.727a1.263,1.263,0,0,1,1.659.667h0A1.265,1.265,0,0,1,406.934,262.968Z" transform="translate(-320.353 -250.57)" fill="#f699d5" style="mix-blend-mode: multiply;isolation: isolate"/>
              <path id="Path_98" data-name="Path 98" d="M401.676,270.322l-74.311,31.508a1.265,1.265,0,0,1-1.659-.669h0a1.266,1.266,0,0,1,.669-1.659l74.311-31.508a1.266,1.266,0,0,1,1.659.669h0A1.265,1.265,0,0,1,401.676,270.322Z" transform="translate(-319.646 -248.318)" fill="#f699d5" style="mix-blend-mode: multiply;isolation: isolate"/>
            </g>
          </g>
          <path id="Path_99" data-name="Path 99" d="M337.494,294.712l31.029,5.6h0a15.954,15.954,0,0,1,9.572-5.8l6.009-1.13a.943.943,0,0,1,1.063,1.266c-.6,1.416-2.42,3.434-7.856,4.284l15.707-3.612-2.691,7.118a6.333,6.333,0,0,1-3.441,2.594l-.832.256-1.6,2.219a6.329,6.329,0,0,1-4.648,2.607l-2.768.212a12.724,12.724,0,0,1-7.923-2.027h0l-32.369-.577s-10.029,1.087-10.707-6.044l-10.832-43.633a9.517,9.517,0,0,1,4.065-10.546h0a9.518,9.518,0,0,1,14.5,6.462Z" transform="translate(-304.808 -196.432)" fill="#f8b58e"/>
          <path id="Path_100" data-name="Path 100" d="M331.173,283.806a47.931,47.931,0,0,0,5.122-1.856l-2.522-27.618c-.158-5.052-6.3-9.542-6.3-9.542s-6.2,1.809-8.2,3.08h0a9.517,9.517,0,0,0-4.065,10.546l3.147,27.321C321.5,285.885,328.176,284.691,331.173,283.806Z" transform="translate(-304.808 -196.803)" fill="#473db1"/>
          <path id="Path_101" data-name="Path 101" d="M331.173,283.806a47.931,47.931,0,0,0,5.122-1.856l-2.522-27.618c-.158-5.052-6.3-9.542-6.3-9.542s-6.2,1.809-8.2,3.08h0a9.517,9.517,0,0,0-4.065,10.546l3.147,27.321C321.5,285.885,328.176,284.691,331.173,283.806Z" transform="translate(-304.808 -196.803)" fill="#ff8727"/>
          <g id="Group_81" data-name="Group 81" transform="translate(12.895)">
            <path id="Path_102" data-name="Path 102" d="M351.6,230.184c-.282-2.127-.554-4.244-.681-6.385-.182-3.071-2-6.156-3.795-8.737a16.855,16.855,0,0,0-4.175-4.256,17.235,17.235,0,0,0-15.707-1.54c-6.811,2.859-7.5,9.746-5.635,15.931-4.374-2.16-4.565,3.426-4.565,3.426-.192,5.587,5.265,5.558,5.265,5.558a20.343,20.343,0,0,0,5.235,8.583,27.125,27.125,0,0,0,8.908,5.742,11.04,11.04,0,0,0,13.14-4.547,17.584,17.584,0,0,0,2.265-11.825C351.774,231.483,351.686,230.833,351.6,230.184Z" transform="translate(-317.038 -208.052)" fill="#f8b58e"/>
            <path id="Path_103" data-name="Path 103" d="M339.59,230.532a5.972,5.972,0,0,0-.848-1.122,8.5,8.5,0,0,1-.876-1.315,8.834,8.834,0,0,1-.978-2.962.553.553,0,0,0-.636-.4.507.507,0,0,0-.371.62,9.83,9.83,0,0,0,2.126,4.764c.434.53,1.054,1.093.511,1.733s-1.543.533-2.315.478c-.671-.047-.682,1-.012,1.044a3.928,3.928,0,0,0,2.876-.568A1.862,1.862,0,0,0,339.59,230.532Z" transform="translate(-311.326 -202.948)" fill="#f8b58e" opacity="0.64" style="mix-blend-mode: multiply;isolation: isolate"/>
            <path id="Path_104" data-name="Path 104" d="M330.616,226.217c.185.956.863,1.663,1.514,1.581s1.027-.925.841-1.881-.863-1.664-1.514-1.582S330.431,225.261,330.616,226.217Z" transform="translate(-312.895 -203.069)" fill="#47333c"/>
            <path id="Path_105" data-name="Path 105" d="M338.5,225.736c.185.956.862,1.664,1.513,1.582s1.027-.925.841-1.881-.862-1.664-1.513-1.582S338.312,224.78,338.5,225.736Z" transform="translate(-310.482 -203.215)" fill="#47333c"/>
            <g id="Group_79" data-name="Group 79" transform="translate(27.569 15.54)">
              <path id="Path_106" data-name="Path 106" d="M338.588,220.069a1.142,1.142,0,0,1,.675-.112,3.315,3.315,0,0,1,2.861,2.935,1.715,1.715,0,0,0-.381-.573c-.009-.009-.021-.013-.03-.021a1.574,1.574,0,0,0-.3-.268,3.257,3.257,0,0,0-1.407-.417,4.831,4.831,0,0,1-1.445-.317.612.612,0,0,1-.414-.571A.869.869,0,0,1,338.588,220.069Z" transform="translate(-338.145 -219.949)" fill="#47333c"/>
            </g>
            <g id="Group_80-2" data-name="Group 80" transform="translate(15.459 15.547)">
              <path id="Path_107" data-name="Path 107" d="M332.487,220.154a1.225,1.225,0,0,0-.671-.2,2.938,2.938,0,0,0-2.943,2.571,1.527,1.527,0,0,1,.4-.525c.01-.008.021-.01.031-.017a1.342,1.342,0,0,1,.31-.23,3.079,3.079,0,0,1,1.416-.239,4.625,4.625,0,0,0,1.452-.135.541.541,0,0,0,.43-.519A.983.983,0,0,0,332.487,220.154Z" transform="translate(-328.873 -219.955)" fill="#47333c"/>
            </g>
            <path id="Path_108" data-name="Path 108" d="M331.208,231.484a7.367,7.367,0,0,0,6.476,2.085.528.528,0,0,1,.206,1.033,8.482,8.482,0,0,1-7.469-2.47C329.938,231.641,330.728,231,331.208,231.484Z" transform="translate(-312.986 -200.931)" fill="#f8b58e" opacity="0.64" style="mix-blend-mode: multiply;isolation: isolate"/>
          </g>
        </g>
        <path id="Path_109" data-name="Path 109" d="M341.686,209.961s7.359,11.279-13.86,14.816c0,0-5.828,3.919,1.387,15.676,0,0-11.676-3.346-11.676-19.024l3.5-9.173,13.13-6.692,15.354,6.023s4.064,17.519,3.936,17.371C345.615,219.969,340.211,213.693,341.686,209.961Z" transform="translate(-295.761 -202.155)" fill="#47333c"/>
        <g id="Group_86" data-name="Group 86" transform="translate(16.825 11.806)">
          <g id="Group_84" data-name="Group 84">
            <g id="Group_83" data-name="Group 83" transform="translate(0.637 3.452)">
              <rect id="Rectangle_38" data-name="Rectangle 38" width="18.642" height="4.015" transform="translate(0 17.191) rotate(-67.249)" fill="#f8b400"/>
            </g>
            <path id="Path_110" data-name="Path 110" d="M319.1,225.734a7.534,7.534,0,0,1-.111-3.668,5.461,5.461,0,0,1,.505-1.234c-2.312.3-2.449,3.878-2.449,3.878a4.866,4.866,0,0,0,4,5.392A11.2,11.2,0,0,1,319.1,225.734Z" transform="translate(-312.738 -209.286)" fill="#f8b58e"/>
            <path id="Path_111" data-name="Path 111" d="M319.753,215.445l3.7,1.553-.078-5Z" transform="translate(-311.907 -211.993)" fill="#f8b58e"/>
            <path id="Path_112" data-name="Path 112" d="M314.978,231.571h0a2.007,2.007,0,0,1-1.075-2.627l.481-1.147,3.7,1.553L317.6,230.5A2.007,2.007,0,0,1,314.978,231.571Z" transform="translate(-313.746 -207.154)" fill="#f8b58e"/>
          </g>
          <g id="Group_85" data-name="Group 85" transform="translate(5.758 9.047)">
            <path id="Path_113" data-name="Path 113" d="M322.288,218.919a2.311,2.311,0,0,1-1.221,1.518,12.815,12.815,0,0,0-1.737,1.014,4.034,4.034,0,0,0-.89,4.423,10.971,10.971,0,0,0,2.816,3.847c.354.354.879.729,1.3.464a1.146,1.146,0,0,0,.375-.972l.319-6.583" transform="translate(-318.154 -218.919)" fill="#47333c"/>
          </g>
        </g>
      </g>
      <g id="Group_89" data-name="Group 89" transform="translate(313.294 16)">
        <circle id="Ellipse_1" data-name="Ellipse 1" cx="15.146" cy="15.146" r="15.146" fill="#0a6cc7"/>
        <g id="Group_88" data-name="Group 88" transform="translate(6.608 7.585)">
          <path id="Path_114" data-name="Path 114" d="M536.046,134.521H522.028a1.529,1.529,0,0,1-1.53-1.53h0a1.529,1.529,0,0,1,1.53-1.53h14.018a1.529,1.529,0,0,1,1.53,1.53h0A1.529,1.529,0,0,1,536.046,134.521Z" transform="translate(-520.498 -131.462)" fill="#fff"/>
          <path id="Path_115" data-name="Path 115" d="M536.046,139.139H522.028a1.529,1.529,0,0,1-1.53-1.53h0a1.529,1.529,0,0,1,1.53-1.53h14.018a1.529,1.529,0,0,1,1.53,1.53h0A1.529,1.529,0,0,1,536.046,139.139Z" transform="translate(-520.498 -130.048)" fill="#fff"/>
          <path id="Path_116" data-name="Path 116" d="M536.046,143.757H522.028a1.529,1.529,0,0,1-1.53-1.53h0a1.529,1.529,0,0,1,1.53-1.53h14.018a1.529,1.529,0,0,1,1.53,1.53h0A1.529,1.529,0,0,1,536.046,143.757Z" transform="translate(-520.498 -128.634)" fill="#fff"/>
        </g>
      </g>
    </g>
  </g>
</svg>
