<svg xmlns="http://www.w3.org/2000/svg" xmlns:xlink="http://www.w3.org/1999/xlink" width="160" height="160" viewBox="0 0 160 160">
  <defs>
    <linearGradient id="linear-gradient" x1="1" y1="0.638" x2="-0.024" y2="0.308" gradientUnits="objectBoundingBox">
      <stop offset="0" stop-color="#fff"/>
      <stop offset="1" stop-color="#cae4fc"/>
    </linearGradient>
  </defs>
  <g id="Business" transform="translate(-643 -4540)">
    <circle id="Ellipse_404" data-name="Ellipse 404" cx="80" cy="80" r="80" transform="translate(643 4540)" opacity="0.53" fill="url(#linear-gradient)"/>
    <g id="agreement" transform="translate(644.445 4565)">
      <path id="Path_21149" data-name="Path 21149" d="M123.887,127.148H104.658L78.555,125l-26.1,2.148H33.223A3.223,3.223,0,0,0,30,130.371v45.547a3.223,3.223,0,0,0,3.223,3.223H52.451l26.1,2.148,26.1-2.148h19.229a3.223,3.223,0,0,0,3.223-3.223V130.371A3.223,3.223,0,0,0,123.887,127.148Z" transform="translate(0 -98.145)" fill="#91e6a9"/>
      <path id="Path_21150" data-name="Path 21150" d="M301.332,127.148H282.1L256,125v56.289l26.1-2.148h19.229a3.223,3.223,0,0,0,3.223-3.223V130.371A3.223,3.223,0,0,0,301.332,127.148Z" transform="translate(-177.445 -98.145)" fill="#26bfa6"/>
      <path id="Path_21151" data-name="Path 21151" d="M188.692,196.359a17.408,17.408,0,0,1-7.916-6.575l-7.982,1.765-2.519,8.736a31.5,31.5,0,0,0,16.539,10.93,16.087,16.087,0,0,1,1.879.628l3.008-6.759Z" transform="translate(-110.137 -149.01)" fill="#ffd9c0"/>
      <path id="Path_21152" data-name="Path 21152" d="M186.707,47.168a9.679,9.679,0,0,0-9.668-9.668H168.66a3.223,3.223,0,0,0-3.223,3.223,4.834,4.834,0,0,1-9.668,0,3.223,3.223,0,0,0-3.223-3.223h-8.379a9.679,9.679,0,0,0-9.668,9.668V58.447a35.708,35.708,0,0,0,7.686,22.271l10.5-10.5a21.222,21.222,0,0,1-3.465-11.77h37.485Z" transform="translate(-82.049 -29.443)" fill="#7c83e7"/>
      <path id="Path_21153" data-name="Path 21153" d="M272.436,37.5h-8.379a3.223,3.223,0,0,0-3.223,3.223A4.839,4.839,0,0,1,256,45.557V58.447h26.1V47.168A9.679,9.679,0,0,0,272.436,37.5Z" transform="translate(-177.445 -29.443)" fill="#5f69e2"/>
      <circle id="Ellipse_444" data-name="Ellipse 444" cx="11.279" cy="11.279" r="11.279" transform="translate(67.275)" fill="#ffd9c0"/>
      <path id="Path_21154" data-name="Path 21154" d="M256,0V22.559A11.279,11.279,0,0,0,256,0Z" transform="translate(-177.445 0)" fill="#fbceaf"/>
      <path id="Path_21155" data-name="Path 21155" d="M257.88,221.023a15.948,15.948,0,0,1-1.88-.63v15.483a17.422,17.422,0,0,1,7.843,6.412L274.331,231.8A31.582,31.582,0,0,0,257.88,221.023Z" transform="translate(-177.445 -173.043)" fill="#fbceaf"/>
      <path id="Path_21156" data-name="Path 21156" d="M186.707,295.729a35.351,35.351,0,0,0-7.772-22.238l-10.488,10.488a20.818,20.818,0,0,1,3.538,11.751H134.5v11.279a9.679,9.679,0,0,0,9.668,9.668h8.379a3.223,3.223,0,0,0,3.223-3.223,4.834,4.834,0,0,1,9.668,0,3.223,3.223,0,0,0,3.223,3.223h8.379a9.679,9.679,0,0,0,9.668-9.668Z" transform="translate(-82.049 -214.733)" fill="#61729b"/>
      <path id="Path_21157" data-name="Path 21157" d="M282.1,295.729a35.351,35.351,0,0,0-7.772-22.238l-10.488,10.488a20.818,20.818,0,0,1,3.538,11.751H256V308.62a4.84,4.84,0,0,1,4.834,4.834,3.223,3.223,0,0,0,3.223,3.223h8.379a9.679,9.679,0,0,0,9.668-9.668Z" transform="translate(-177.445 -214.733)" fill="#47568c"/>
      <circle id="Ellipse_445" data-name="Ellipse 445" cx="11.279" cy="11.279" r="11.279" transform="translate(67.275 87.441)" fill="#ffd9c0"/>
      <path id="Path_21158" data-name="Path 21158" d="M256,407v22.559A11.279,11.279,0,0,0,256,407Z" transform="translate(-177.445 -319.559)" fill="#fbceaf"/>
    </g>
  </g>
</svg>
