<svg xmlns="http://www.w3.org/2000/svg" xmlns:xlink="http://www.w3.org/1999/xlink" width="74" height="74" viewBox="0 0 74 74">
  <defs>
    <linearGradient id="linear-gradient" x1="0.974" y1="0.238" x2="-0.052" y2="0.609" gradientUnits="objectBoundingBox">
      <stop offset="0" stop-color="#fff"/>
      <stop offset="1" stop-color="#006bc0" stop-opacity="0.071"/>
    </linearGradient>
  </defs>
  <g id="Hybrid_App" data-name="Hybrid App" transform="translate(-187.662 -1357.662)">
    <circle id="Ellipse_376" data-name="Ellipse 376" cx="37" cy="37" r="37" transform="translate(187.662 1357.662)" opacity="0.42" fill="url(#linear-gradient)"/>
    <g id="Hybrid" transform="translate(166.661 1735.917)">
      <g id="Group_65423" data-name="Group 65423" transform="translate(5.729 -441.002)">
        <g id="Group_65421" data-name="Group 65421" transform="translate(36.529 78.867)">
          <g id="Group_65391" data-name="Group 65391" transform="translate(0.555 0.555)">
            <g id="Group_65388" data-name="Group 65388">
              <path id="Path_52098" data-name="Path 52098" d="M87.5,107.867H43.2a1.666,1.666,0,0,0-1.666,1.666v34.9A1.666,1.666,0,0,0,43.2,146.1h1.9v2.659a1.11,1.11,0,0,0,1.11,1.11H62.37a1.11,1.11,0,0,0,1.11-1.11V146.1h3.731v2.659a1.11,1.11,0,0,0,1.11,1.11H84.487a1.11,1.11,0,0,0,1.11-1.11V146.1h1.9a1.666,1.666,0,0,0,1.666-1.666v-34.9a1.666,1.666,0,0,0-1.666-1.666Z" transform="translate(-41.53 -105.202)" fill="#2626bc" opacity="0.1"/>
              <path id="Path_52099" data-name="Path 52099" d="M87.5,122.1H43.2a1.666,1.666,0,0,1-1.666-1.666v-34.9A1.666,1.666,0,0,1,43.2,83.867H87.5a1.666,1.666,0,0,1,1.666,1.666v34.9A1.666,1.666,0,0,1,87.5,122.1Z" transform="translate(-41.53 -83.867)" fill="#fff"/>
              <circle id="Ellipse_570" data-name="Ellipse 570" cx="4.917" cy="4.917" r="4.917" transform="translate(18.898 25.249)" fill="#ffdbed"/>
              <path id="Path_52100" data-name="Path 52100" d="M89.161,91.564V85.533A1.666,1.666,0,0,0,87.5,83.867H43.2a1.666,1.666,0,0,0-1.666,1.666v6.031Z" transform="translate(-41.53 -83.867)" fill="#ff7eb8"/>
            </g>
            <g id="Group_65390" data-name="Group 65390" transform="translate(3.686 2.332)">
              <g id="Group_65389" data-name="Group 65389" transform="translate(0 0.555)">
                <circle id="Ellipse_571" data-name="Ellipse 571" cx="1.21" cy="1.21" r="1.21" fill="#ff5ba8"/>
                <circle id="Ellipse_572" data-name="Ellipse 572" cx="1.21" cy="1.21" r="1.21" transform="translate(3.864)" fill="#fff"/>
                <circle id="Ellipse_573" data-name="Ellipse 573" cx="1.21" cy="1.21" r="1.21" transform="translate(7.729)" fill="#02ffb3"/>
              </g>
              <path id="Path_52101" data-name="Path 52101" d="M311.239,111.24h-15.12v-2.72h15.12a.555.555,0,0,1,.555.555v1.61A.555.555,0,0,1,311.239,111.24Z" transform="translate(-271.534 -108.114)" fill="#ffdbed"/>
              <path id="Path_52102" data-name="Path 52102" d="M276.221,105.307a1.505,1.505,0,1,0-.469,2.446l.483.483a.555.555,0,0,0,.785-.785l-.483-.483a1.507,1.507,0,0,0-.317-1.661Zm-1.344.785a.4.4,0,1,1,0,.559A.4.4,0,0,1,274.877,106.092Z" transform="translate(-251.562 -104.867)" fill="#fff"/>
            </g>
          </g>
          <g id="Group_65417" data-name="Group 65417" transform="translate(4.119 11.892)">
            <g id="Group_65404" data-name="Group 65404">
              <g id="Group_65393" data-name="Group 65393">
                <path id="Path_52103" data-name="Path 52103" d="M92.007,187.07v28.441a1.111,1.111,0,0,1-1.11,1.11H74.73a1.111,1.111,0,0,1-1.11-1.11V187.07a1.111,1.111,0,0,1,1.11-1.11H90.9A1.111,1.111,0,0,1,92.007,187.07Z" transform="translate(-73.62 -185.96)" fill="#9fb0fe"/>
                <path id="Path_52104" data-name="Path 52104" d="M214.771,314.54v9.1a4.92,4.92,0,0,1,0-9.1Z" transform="translate(-196.385 -300.262)" fill="#8399fe"/>
                <path id="Path_52105" data-name="Path 52105" d="M92.007,381.02v7.891a1.111,1.111,0,0,1-1.11,1.11H74.73a1.111,1.111,0,0,1-1.11-1.11V381.02Z" transform="translate(-73.62 -359.36)" fill="#8399fe"/>
                <g id="Group_65392" data-name="Group 65392" transform="translate(0 0)">
                  <path id="Path_52106" data-name="Path 52106" d="M221.945,381.02v1.72a4.927,4.927,0,0,1-2.155-1.72Z" transform="translate(-203.559 -359.36)" fill="#6583fe"/>
                  <path id="Path_52107" data-name="Path 52107" d="M92.009,189.461H73.622v-2.389a1.11,1.11,0,0,1,1.11-1.11H90.9a1.11,1.11,0,0,1,1.11,1.11Z" transform="translate(-73.622 -185.962)" fill="#6583fe"/>
                </g>
              </g>
              <g id="Group_65394" data-name="Group 65394" transform="translate(5.457 7.111)">
                <circle id="Ellipse_574" data-name="Ellipse 574" cx="3.737" cy="3.737" r="3.737" fill="#02ffb3"/>
                <path id="Path_52108" data-name="Path 52108" d="M143.488,270.023a3.153,3.153,0,0,0-3.69,2.58v.544a3.724,3.724,0,0,0,1.11.414V272.6a.735.735,0,0,1,1.469,0v.958a3.723,3.723,0,0,0,1.11-.414V272.6a1.838,1.838,0,0,1,0-2.58Zm-1.846.735a.735.735,0,1,1,.735-.735A.736.736,0,0,1,141.642,270.759Z" transform="translate(-137.906 -266.16)" fill="#fff"/>
              </g>
              <g id="Group_65402" data-name="Group 65402" transform="translate(5.325 4.707)">
                <g id="Group_65395" data-name="Group 65395" transform="translate(0 11.876)">
                  <path id="Path_52109" data-name="Path 52109" d="M128.753,336.4h-6.627a.555.555,0,0,1,0-1.11h6.627a.555.555,0,0,1,0,1.11Z" transform="translate(-121.571 -335.293)" fill="#4369fd"/>
                </g>
                <g id="Group_65396" data-name="Group 65396" transform="translate(0 18.954)">
                  <path id="Path_52110" data-name="Path 52110" d="M128.753,400.145h-6.627a.555.555,0,0,1,0-1.11h6.627a.555.555,0,0,1,0,1.11Z" transform="translate(-121.571 -399.035)" fill="#fff"/>
                </g>
                <g id="Group_65397" data-name="Group 65397" transform="translate(0 21.075)">
                  <path id="Path_52111" data-name="Path 52111" d="M128.753,419.243h-6.627a.555.555,0,0,1,0-1.11h6.627a.555.555,0,0,1,0,1.11Z" transform="translate(-121.571 -418.133)" fill="#fff"/>
                </g>
                <g id="Group_65398" data-name="Group 65398" transform="translate(0 13.814)">
                  <path id="Path_52112" data-name="Path 52112" d="M124.423,353.86h-2.3a.555.555,0,0,1,0-1.11h2.3a.555.555,0,0,1,0,1.11Z" transform="translate(-121.571 -352.75)" fill="#4369fd"/>
                </g>
                <g id="Group_65401" data-name="Group 65401" transform="translate(8.545)">
                  <g id="Group_65399" data-name="Group 65399">
                    <path id="Path_52113" data-name="Path 52113" d="M200.376,229.455h-1.3a.555.555,0,1,1,0-1.11h1.3a.555.555,0,1,1,0,1.11Z" transform="translate(-198.524 -228.345)" fill="#fff"/>
                  </g>
                  <g id="Group_65400" data-name="Group 65400" transform="translate(0 1.72)">
                    <path id="Path_52114" data-name="Path 52114" d="M200.376,244.941h-1.3a.555.555,0,1,1,0-1.11h1.3a.555.555,0,1,1,0,1.11Z" transform="translate(-198.524 -243.831)" fill="#fff"/>
                  </g>
                </g>
              </g>
              <g id="Group_65403" data-name="Group 65403" transform="translate(2.198 4.706)">
                <circle id="Ellipse_575" data-name="Ellipse 575" cx="0.555" cy="0.555" r="0.555" fill="#fff"/>
              </g>
            </g>
            <g id="Group_65416" data-name="Group 65416" transform="translate(22.118)">
              <g id="Group_65405" data-name="Group 65405">
                <path id="Path_52115" data-name="Path 52115" d="M291.187,187.07v28.441a1.111,1.111,0,0,1-1.11,1.11H273.91a1.111,1.111,0,0,1-1.11-1.11V187.07a1.111,1.111,0,0,1,1.11-1.11h16.166A1.111,1.111,0,0,1,291.187,187.07Z" transform="translate(-272.8 -185.96)" fill="#97ffd2"/>
                <path id="Path_52116" data-name="Path 52116" d="M275.851,319.092a4.916,4.916,0,0,1-3.051,4.551v-9.1A4.919,4.919,0,0,1,275.851,319.092Z" transform="translate(-272.8 -300.262)" fill="#02ffb3"/>
                <path id="Path_52117" data-name="Path 52117" d="M291.187,381.02v7.891a1.111,1.111,0,0,1-1.11,1.11H273.91a1.111,1.111,0,0,1-1.11-1.11V381.02Z" transform="translate(-272.8 -359.36)" fill="#01eca5"/>
                <path id="Path_52118" data-name="Path 52118" d="M274.955,381.02a4.927,4.927,0,0,1-2.155,1.72v-1.72Z" transform="translate(-272.8 -359.36)" fill="#00d890"/>
                <path id="Path_52119" data-name="Path 52119" d="M291.186,189.461H272.8v-2.389a1.11,1.11,0,0,1,1.11-1.11h16.166a1.11,1.11,0,0,1,1.11,1.11Z" transform="translate(-272.799 -185.962)" fill="#01eca5"/>
              </g>
              <g id="Group_65406" data-name="Group 65406" transform="translate(5.456 7.111)">
                <circle id="Ellipse_576" data-name="Ellipse 576" cx="3.737" cy="3.737" r="3.737" fill="#ff7eb8"/>
                <path id="Path_52120" data-name="Path 52120" d="M342.665,270.023a3.153,3.153,0,0,0-3.69,2.58v.544a3.724,3.724,0,0,0,1.11.414V272.6a.735.735,0,0,1,1.469,0v.958a3.723,3.723,0,0,0,1.11-.414V272.6a1.838,1.838,0,0,1,0-2.58Zm-1.846.735a.735.735,0,1,1,.735-.735A.736.736,0,0,1,340.819,270.759Z" transform="translate(-337.083 -266.16)" fill="#fff"/>
              </g>
              <g id="Group_65414" data-name="Group 65414" transform="translate(5.324 4.707)">
                <g id="Group_65407" data-name="Group 65407" transform="translate(0 11.876)">
                  <path id="Path_52121" data-name="Path 52121" d="M327.93,336.4H321.3a.555.555,0,1,1,0-1.11h6.627a.555.555,0,1,1,0,1.11Z" transform="translate(-320.748 -335.293)" fill="#ff7eb8"/>
                </g>
                <g id="Group_65408" data-name="Group 65408" transform="translate(0 18.954)">
                  <path id="Path_52122" data-name="Path 52122" d="M327.93,400.145H321.3a.555.555,0,1,1,0-1.11h6.627a.555.555,0,1,1,0,1.11Z" transform="translate(-320.748 -399.035)" fill="#fff"/>
                </g>
                <g id="Group_65409" data-name="Group 65409" transform="translate(0 21.075)">
                  <path id="Path_52123" data-name="Path 52123" d="M327.93,419.243H321.3a.555.555,0,1,1,0-1.11h6.627a.555.555,0,1,1,0,1.11Z" transform="translate(-320.748 -418.133)" fill="#fff"/>
                </g>
                <g id="Group_65410" data-name="Group 65410" transform="translate(0 13.814)">
                  <path id="Path_52124" data-name="Path 52124" d="M323.6,353.86h-2.3a.555.555,0,1,1,0-1.11h2.3a.555.555,0,1,1,0,1.11Z" transform="translate(-320.748 -352.75)" fill="#ff7eb8"/>
                </g>
                <g id="Group_65413" data-name="Group 65413" transform="translate(8.545)">
                  <g id="Group_65411" data-name="Group 65411">
                    <path id="Path_52125" data-name="Path 52125" d="M399.553,229.455h-1.3a.555.555,0,1,1,0-1.11h1.3a.555.555,0,1,1,0,1.11Z" transform="translate(-397.701 -228.345)" fill="#fff"/>
                  </g>
                  <g id="Group_65412" data-name="Group 65412" transform="translate(0 1.72)">
                    <path id="Path_52126" data-name="Path 52126" d="M399.553,244.941h-1.3a.555.555,0,1,1,0-1.11h1.3a.555.555,0,1,1,0,1.11Z" transform="translate(-397.701 -243.831)" fill="#fff"/>
                  </g>
                </g>
              </g>
              <g id="Group_65415" data-name="Group 65415" transform="translate(2.198 4.706)">
                <circle id="Ellipse_577" data-name="Ellipse 577" cx="0.555" cy="0.555" r="0.555" fill="#fff"/>
              </g>
            </g>
          </g>
          <circle id="Ellipse_578" data-name="Ellipse 578" cx="4.917" cy="4.917" r="4.917" transform="translate(19.453 23.139)" fill="#ff7eb8"/>
          <path id="Path_52127" data-name="Path 52127" d="M83.05,78.867H38.75a2.223,2.223,0,0,0-2.221,2.221v34.9a2.223,2.223,0,0,0,2.221,2.221h1.343v2.1a1.668,1.668,0,0,0,1.666,1.666H57.924a1.668,1.668,0,0,0,1.666-1.666v-2.1h2.62v2.1a1.668,1.668,0,0,0,1.666,1.666H80.041a1.668,1.668,0,0,0,1.666-1.666v-2.1H83.05a2.223,2.223,0,0,0,2.221-2.221v-34.9A2.223,2.223,0,0,0,83.05,78.867Zm-25.126,42H41.758a.556.556,0,0,1-.555-.555V91.87a.556.556,0,0,1,.555-.555H57.924a.556.556,0,0,1,.555.555v10.147a5.47,5.47,0,0,0,0,9.813v8.48A.556.556,0,0,1,57.924,120.866Zm7.338-13.942a4.362,4.362,0,1,1-4.362-4.362A4.367,4.367,0,0,1,65.262,106.923ZM59.59,117.1v-4.859a5.455,5.455,0,0,0,2.62,0V117.1ZM80.6,120.31a.556.556,0,0,1-.555.555H63.876a.556.556,0,0,1-.555-.555v-8.48a5.47,5.47,0,0,0,0-9.813V91.87a.556.556,0,0,1,.555-.555H80.041a.556.556,0,0,1,.555.555Zm3.564-4.325a1.112,1.112,0,0,1-1.11,1.11H81.707V91.87A1.668,1.668,0,0,0,80.041,90.2H63.876A1.668,1.668,0,0,0,62.21,91.87v9.741a5.455,5.455,0,0,0-2.62,0V91.87A1.668,1.668,0,0,0,57.924,90.2H41.758a1.668,1.668,0,0,0-1.666,1.666V117.1H38.75a1.112,1.112,0,0,1-1.11-1.11v-34.9a1.112,1.112,0,0,1,1.11-1.11h44.3a1.112,1.112,0,0,1,1.11,1.11v34.9Z" transform="translate(-36.529 -78.867)" fill="#2626bc"/>
          <g id="Group_65420" data-name="Group 65420" transform="translate(22.322 25.084)">
            <g id="Group_65418" data-name="Group 65418" transform="translate(0 0)">
              <path id="Path_52128" data-name="Path 52128" d="M241.094,307.365h-2.987a.555.555,0,0,1-.393-.948l1.493-1.493a.555.555,0,0,1,.785.785l-.545.545h1.646a.555.555,0,0,1,0,1.11Z" transform="translate(-237.552 -304.761)" fill="#fff"/>
            </g>
            <g id="Group_65419" data-name="Group 65419" transform="translate(0 3.341)">
              <path id="Path_52129" data-name="Path 52129" d="M239.6,337.452a.555.555,0,0,1-.393-.948l.545-.545h-1.646a.555.555,0,1,1,0-1.11h2.987a.555.555,0,0,1,.393.948l-1.493,1.493A.554.554,0,0,1,239.6,337.452Z" transform="translate(-237.553 -334.848)" fill="#fff"/>
            </g>
          </g>
        </g>
      </g>
    </g>
  </g>
</svg>
