<svg xmlns="http://www.w3.org/2000/svg" xmlns:xlink="http://www.w3.org/1999/xlink" width="159" height="160" viewBox="0 0 159 160">
  <defs>
    <linearGradient id="linear-gradient" x1="1" y1="0.638" x2="-0.024" y2="0.308" gradientUnits="objectBoundingBox">
      <stop offset="0" stop-color="#fff"/>
      <stop offset="1" stop-color="#cae4fc"/>
    </linearGradient>
  </defs>
  <g id="Objective_c" data-name="Objective c" transform="translate(-94 -66)">
    <g id="Education" transform="translate(93.674 66.254)">
      <ellipse id="Ellipse_404" data-name="Ellipse 404" cx="79.5" cy="80" rx="79.5" ry="80" transform="translate(0.326 -0.254)" opacity="0.53" fill="url(#linear-gradient)"/>
    </g>
    <g id="objective-c" transform="translate(126 98)">
      <path id="Path_21304" data-name="Path 21304" d="M47.743,95.764C22.02,95.764.2,74.036,0,48.129A47.192,47.192,0,0,1,13.785,14.46,47.978,47.978,0,0,1,47.869,0,47.3,47.3,0,0,1,81.45,13.948a47.349,47.349,0,0,1,14.3,33.482A48.108,48.108,0,0,1,48.113,95.747Zm.133-93.222A45.482,45.482,0,0,0,15.586,16.263,44.7,44.7,0,0,0,2.492,48.14c.191,24.534,20.864,45.111,45.223,45.111h.324A45.606,45.606,0,0,0,93.225,47.458,44.872,44.872,0,0,0,79.667,15.742,44.663,44.663,0,0,0,47.9,2.525ZM10.721,61.9V33.924h6.8v2.506H13.915V59.437h3.609v2.506ZM33.834,47.633c0,5.1-3.094,8.007-7.292,8.007s-6.993-3.27-6.993-7.744c0-4.674,2.934-7.97,7.218-7.97s7.05,3.434,7.05,7.705Zm-11.352.225c0,3.094,1.553,5.55,4.222,5.55s4.2-2.506,4.2-5.663c0-2.87-1.416-5.575-4.2-5.575s-4.249,2.618-4.249,5.754Zm13.711-7.4a23.109,23.109,0,0,1,4.036-.339,7.2,7.2,0,0,1,4.361.964,3.193,3.193,0,0,1,1.581,2.845,3.538,3.538,0,0,1-2.506,3.3,3.83,3.83,0,0,1,3.068,3.759,3.944,3.944,0,0,1-1.465,3.132c-1.078.953-2.87,1.416-5.64,1.416a26.829,26.829,0,0,1-3.409-.2Zm2.757,6h1.416c1.917,0,3-.9,3-2.191s-1.078-2.081-2.845-2.081a7.345,7.345,0,0,0-1.581.114Zm0,6.993a12.531,12.531,0,0,0,1.465.063c1.78,0,3.357-.676,3.357-2.506S42.244,48.5,40.328,48.5H38.95ZM52.206,40.254h2.769v9.908c0,4.2-2.029,5.6-5.011,5.6a7.984,7.984,0,0,1-2.344-.381l.339-2.229a6.078,6.078,0,0,0,1.717.276c1.581,0,2.506-.724,2.506-3.357Zm10.67,8.231V50.4H57.112V48.485ZM76.315,55a9.622,9.622,0,0,1-3.921.676c-4.824,0-7.755-3.02-7.755-7.644A7.641,7.641,0,0,1,72.758,40a8.765,8.765,0,0,1,3.759.676l-.614,2.2a7.408,7.408,0,0,0-2.982-.572c-3.094,0-5.326,1.944-5.326,5.6,0,3.334,1.966,5.488,5.3,5.488a7.766,7.766,0,0,0,3.02-.564Zm8.717-21.154V61.9h-6.8V59.39h3.609V36.357H78.211V33.848Z" transform="translate(0 0)" fill="#f1592a"/>
    </g>
  </g>
</svg>
