<svg id="swift" xmlns="http://www.w3.org/2000/svg" xmlns:xlink="http://www.w3.org/1999/xlink" width="99.999" height="100.002" viewBox="0 0 99.999 100.002">
  <defs>
    <linearGradient id="linear-gradient" x2="1" y2="1" gradientUnits="objectBoundingBox">
      <stop offset="0" stop-color="#faae42"/>
      <stop offset="1" stop-color="#ef3e31"/>
    </linearGradient>
    <linearGradient id="linear-gradient-2" x1="1" x2="0" y2="1" gradientUnits="objectBoundingBox">
      <stop offset="0" stop-color="#e39f3a"/>
      <stop offset="1" stop-color="#d33929"/>
    </linearGradient>
  </defs>
  <g id="Group_65217" data-name="Group 65217">
    <path id="Path_21306" data-name="Path 21306" d="M22.187,0H77.556A23.331,23.331,0,0,1,85.4,1.329,22.177,22.177,0,0,1,99.7,18.751a27.018,27.018,0,0,1,.274,4.336V77.111a25.239,25.239,0,0,1-.43,5.156A22.217,22.217,0,0,1,84.507,98.986,23.448,23.448,0,0,1,77.517,100c-1.054,0-55.486,0-56.306-.039A22.275,22.275,0,0,1,9.966,96.249,22.575,22.575,0,0,1,2.352,87.5,22.033,22.033,0,0,1,.126,77.773V22.226a20.762,20.762,0,0,1,2.069-9.57A22.176,22.176,0,0,1,9.731,3.867,21.856,21.856,0,0,1,20.937.079,6.562,6.562,0,0,1,22.187,0Z" transform="translate(0.03)" fill-rule="evenodd" fill="url(#linear-gradient)"/>
    <path id="Path_21307" data-name="Path 21307" d="M84.342,81.8a15.194,15.194,0,0,0-1.171-1.6,16.588,16.588,0,0,0-3.357-3.046,10.271,10.271,0,0,0-5.271-1.8,9.554,9.554,0,0,0-3.9.625,25.443,25.443,0,0,0-3.631,1.68l-4.177,1.992a31.355,31.355,0,0,1-5.35,1.641,34.756,34.756,0,0,1-6.95.548,45.663,45.663,0,0,1-22.374-6.211,51.682,51.682,0,0,1-7.77-5.507,56.958,56.958,0,0,1-5.545-5.507l-3.36-4.3a18.143,18.143,0,0,1-1.171-1.836L0,47.343V22.149A22.118,22.118,0,0,1,22.1,0H41.82l14.6,14.844c32.956,22.422,22.3,47.148,22.3,47.148S88.091,72.54,84.342,81.8Z" fill-rule="evenodd" fill="url(#linear-gradient-2)"/>
    <path id="Path_21308" data-name="Path 21308" d="M54.439,11.875C87.4,34.3,76.735,59.023,76.735,59.023s9.371,10.586,5.584,19.844c0,0-3.866-6.484-10.347-6.484-6.247,0-9.917,6.485-22.491,6.485-28,0-41.234-23.4-41.234-23.4,25.225,16.6,42.445,4.844,42.445,4.844C39.329,53.712,15.159,22.15,15.159,22.15,36.206,40.08,45.3,44.806,45.3,44.806c-5.427-4.492-20.656-26.445-20.656-26.445C36.831,30.7,61.04,47.931,61.04,47.931c6.872-19.062-6.6-36.055-6.6-36.055Z" transform="translate(2.062 2.969)" fill="#fff" fill-rule="evenodd"/>
  </g>
</svg>
