<svg xmlns="http://www.w3.org/2000/svg" xmlns:xlink="http://www.w3.org/1999/xlink" width="159" height="160" viewBox="0 0 159 160">
  <defs>
    <linearGradient id="linear-gradient" x1="1" y1="0.638" x2="-0.024" y2="0.308" gradientUnits="objectBoundingBox">
      <stop offset="0" stop-color="#fff"/>
      <stop offset="1" stop-color="#cae4fc"/>
    </linearGradient>
    <linearGradient id="linear-gradient-2" x2="1" y2="1" gradientUnits="objectBoundingBox">
      <stop offset="0" stop-color="#faae42"/>
      <stop offset="1" stop-color="#ef3e31"/>
    </linearGradient>
    <linearGradient id="linear-gradient-3" x1="1" x2="0" y2="1" gradientUnits="objectBoundingBox">
      <stop offset="0" stop-color="#e39f3a"/>
      <stop offset="1" stop-color="#d33929"/>
    </linearGradient>
  </defs>
  <g id="Swift" transform="translate(-94 -66)">
    <g id="Education" transform="translate(93.674 66.254)">
      <ellipse id="Ellipse_404" data-name="Ellipse 404" cx="79.5" cy="80" rx="79.5" ry="80" transform="translate(0.326 -0.254)" opacity="0.53" fill="url(#linear-gradient)"/>
    </g>
    <g id="swift-2" data-name="swift" transform="translate(129.999 102)">
      <g id="Group_65217" data-name="Group 65217">
        <path id="Path_21306" data-name="Path 21306" d="M19.392,0H67.746A20.376,20.376,0,0,1,74.6,1.16,19.367,19.367,0,0,1,87.081,16.376a23.6,23.6,0,0,1,.239,3.787V67.342a22.041,22.041,0,0,1-.376,4.5,19.4,19.4,0,0,1-13.128,14.6,20.477,20.477,0,0,1-6.1.888c-.92,0-48.457,0-49.173-.034a19.453,19.453,0,0,1-9.82-3.243A19.715,19.715,0,0,1,2.07,76.414,19.242,19.242,0,0,1,.125,67.92V19.41a18.131,18.131,0,0,1,1.807-8.358A19.367,19.367,0,0,1,8.514,3.378,19.087,19.087,0,0,1,18.3.069,5.73,5.73,0,0,1,19.392,0Z" transform="translate(0.011)" fill-rule="evenodd" fill="url(#linear-gradient-2)"/>
        <path id="Path_21307" data-name="Path 21307" d="M73.657,71.434a13.269,13.269,0,0,0-1.023-1.4,14.486,14.486,0,0,0-2.932-2.66,8.97,8.97,0,0,0-4.6-1.569,8.343,8.343,0,0,0-3.41.546,22.219,22.219,0,0,0-3.171,1.467l-3.648,1.74A27.383,27.383,0,0,1,50.2,70.993a30.353,30.353,0,0,1-6.069.478,39.878,39.878,0,0,1-19.539-5.424,45.134,45.134,0,0,1-6.786-4.81,49.742,49.742,0,0,1-4.842-4.81l-2.934-3.756A15.845,15.845,0,0,1,9,51.068L0,41.346v-22A19.316,19.316,0,0,1,19.3,0H36.522L49.275,12.963C78.056,32.545,68.747,54.139,68.747,54.139S76.931,63.35,73.657,71.434Z" fill-rule="evenodd" fill="url(#linear-gradient-3)"/>
        <path id="Path_21308" data-name="Path 21308" d="M48.587,11.875C77.368,31.457,68.059,53.05,68.059,53.05s8.184,9.245,4.876,17.33c0,0-3.376-5.662-9.037-5.662-5.456,0-8.661,5.663-19.642,5.663-24.449,0-36.01-20.434-36.01-20.434,22.029,14.5,37.068,4.23,37.068,4.23-9.923-5.765-31.031-33.329-31.031-33.329C32.664,36.507,40.61,40.634,40.61,40.634,35.87,36.711,22.57,17.539,22.57,17.539c10.639,10.78,31.782,25.824,31.782,25.824,6-16.647-5.763-31.487-5.763-31.487Z" transform="translate(0.756 1.088)" fill="#fff" fill-rule="evenodd"/>
      </g>
    </g>
  </g>
</svg>
