<?xml version="1.0" standalone="no"?>
<!DOCTYPE svg PUBLIC "-//W3C//DTD SVG 20010904//EN"
 "http://www.w3.org/TR/2001/REC-SVG-20010904/DTD/svg10.dtd">
<svg version="1.0" xmlns="http://www.w3.org/2000/svg"
 width="2304.000000pt" height="2329.000000pt" viewBox="0 0 2304.000000 2329.000000"
 preserveAspectRatio="xMidYMid meet">

<g transform="translate(0.000000,2329.000000) scale(0.100000,-0.100000)"
fill="#000000" stroke="none">
<path d="M14350 19145 c-328 -47 -620 -169 -885 -369 -103 -77 -274 -248 -351
-351 -199 -264 -323 -561 -369 -885 -19 -134 -19 -375 0 -507 23 -159 76 -354
133 -485 l21 -47 -56 -21 c-254 -95 -494 -269 -640 -465 -70 -93 -193 -333
-193 -376 0 -4 33 26 73 65 133 133 290 233 392 252 l40 7 -75 -79 c-81 -85
-135 -166 -169 -253 l-22 -53 77 76 c93 93 230 185 338 227 77 30 226 64 247
57 12 -4 -76 -147 -161 -259 -36 -46 -107 -128 -160 -183 -245 -254 -482 -368
-765 -369 -238 0 -398 73 -470 216 l-26 52 7 -40 c11 -66 60 -191 100 -257 49
-81 137 -166 212 -206 184 -98 449 -97 660 3 39 19 72 32 72 30 0 -2 -36 -49
-79 -103 -227 -282 -480 -436 -659 -402 -26 4 -48 7 -50 5 -6 -5 56 -45 100
-65 66 -28 142 -34 228 -16 41 9 77 16 79 16 10 0 -11 -127 -35 -201 -78 -250
-247 -433 -474 -514 -90 -32 -203 -55 -273 -55 -66 -1 -46 -14 49 -34 286 -59
560 1 738 163 25 23 28 24 23 6 -3 -11 -11 -40 -17 -65 -46 -178 -172 -357
-324 -458 -76 -51 -155 -82 -316 -127 -204 -56 -391 -173 -500 -313 -87 -112
-154 -259 -175 -382 l-7 -45 41 62 c133 198 352 305 626 307 104 1 285 -19
285 -30 0 -19 -100 -197 -150 -267 -77 -107 -248 -274 -355 -345 -163 -109
-393 -200 -595 -237 -47 -8 -281 -40 -520 -70 -770 -98 -1137 -169 -1525 -295
-122 -40 -330 -122 -403 -159 -32 -16 -47 -17 -107 -10 -381 47 -507 100 -583
244 -24 45 -27 61 -27 152 0 57 -1 103 -2 103 -2 0 -12 -19 -24 -42 -45 -87
-34 -234 26 -365 l24 -53 -47 24 c-137 70 -240 193 -353 422 -73 148 -89 173
-153 238 -105 106 -270 201 -431 249 l-50 14 65 -66 c59 -60 140 -188 140
-221 0 -7 -19 5 -42 27 -130 119 -319 200 -552 238 -110 18 -343 31 -382 21
-26 -7 -22 -10 46 -32 95 -32 170 -72 243 -130 60 -48 73 -71 35 -60 -239 70
-402 96 -590 96 -273 0 -483 -62 -696 -203 -176 -117 -326 -277 -467 -497
-141 -219 -163 -248 -275 -361 -244 -248 -504 -360 -955 -414 -138 -16 -241
-43 -315 -80 -127 -64 -237 -181 -304 -320 -53 -109 -54 -127 -4 -60 106 143
265 231 487 270 101 18 381 21 381 4 0 -17 -126 -144 -210 -212 -157 -127
-342 -233 -570 -327 -69 -28 -158 -69 -198 -90 -230 -125 -399 -335 -462 -579
-29 -111 -25 -114 29 -24 152 257 382 442 661 532 90 30 248 61 306 61 l49 0
-78 -44 c-326 -186 -565 -463 -673 -780 -81 -236 -90 -553 -23 -821 22 -86 39
-117 39 -71 0 52 41 231 80 347 171 514 566 847 1178 993 62 15 202 40 310 56
108 16 229 39 267 51 183 57 357 178 452 317 20 28 38 51 40 49 1 -2 -8 -32
-22 -66 -96 -245 -323 -463 -649 -622 -87 -42 -115 -60 -102 -65 35 -14 348 4
448 25 311 67 602 228 944 522 59 52 277 261 484 464 367 363 510 489 660 587
212 139 428 196 644 169 110 -13 267 -61 368 -112 50 -25 190 -109 207 -125 2
-1 -17 -36 -42 -76 -156 -249 -227 -580 -214 -988 10 -320 74 -580 211 -865
69 -144 152 -281 299 -495 224 -325 275 -431 264 -554 -10 -120 -111 -371
-211 -525 -25 -39 -82 -109 -127 -156 -102 -106 -181 -149 -307 -165 -171 -23
-280 -74 -332 -157 -63 -99 -64 -134 -5 -493 83 -513 111 -803 102 -1065 -8
-248 -44 -374 -171 -605 -94 -169 -96 -175 -96 -226 0 -41 5 -51 36 -81 20
-18 87 -58 148 -87 131 -63 170 -93 187 -143 19 -59 4 -113 -74 -266 -81 -156
-104 -238 -94 -332 7 -74 32 -121 94 -182 l52 -51 -72 -6 c-40 -3 -349 -8
-687 -11 -869 -8 -2077 -30 -2975 -55 -1670 -47 -2555 -104 -2555 -165 0 -205
9806 -324 16835 -205 2788 47 4415 123 4415 205 0 120 -3138 213 -8275 246
-1662 11 -5499 6 -5686 -7 l-86 -6 -66 133 c-36 74 -100 195 -143 269 -42 74
-94 171 -115 215 -132 283 -227 948 -199 1396 29 451 124 720 314 880 164 139
353 232 931 459 491 193 657 270 845 395 52 35 123 88 157 120 74 66 154 182
178 257 10 29 19 55 21 57 2 2 38 -16 81 -39 203 -109 333 -271 363 -453 16
-91 4 -200 -45 -405 -71 -297 -70 -403 3 -484 68 -75 109 -88 400 -122 251
-30 379 -55 499 -97 214 -75 372 -200 508 -404 98 -147 124 -235 134 -452 8
-182 10 -186 135 -233 150 -57 248 -146 249 -227 1 -23 -13 -71 -36 -125 -63
-146 -60 -233 11 -308 83 -86 290 -146 547 -157 211 -9 354 19 420 81 42 40
51 75 35 129 -10 34 -48 79 -194 227 -194 196 -230 239 -266 309 -36 72 -49
118 -61 214 -14 115 -35 172 -105 284 -143 227 -387 481 -679 704 -168 129
-236 191 -319 290 -138 164 -220 325 -258 508 -16 79 -19 122 -15 246 4 132
11 182 61 420 82 397 90 460 90 680 0 159 -4 207 -23 294 -48 224 -144 413
-308 608 l-52 61 62 25 c146 59 329 96 592 122 201 20 321 38 510 76 401 80
802 203 1040 319 103 49 136 71 271 176 141 109 203 128 252 76 15 -15 48 -54
73 -87 89 -117 180 -144 489 -145 234 0 306 -11 415 -64 125 -60 201 -148 225
-264 16 -74 -1 -149 -61 -271 -80 -162 -215 -289 -326 -307 -32 -5 -57 1 -134
34 -174 74 -250 80 -314 23 -42 -37 -78 -47 -110 -33 -33 15 -54 51 -84 140
-34 99 -56 116 -161 120 -56 3 -101 -2 -161 -17 -210 -53 -588 -291 -678 -427
-73 -111 -24 -157 188 -175 410 -34 684 -114 958 -281 81 -50 83 -50 151 -46
132 7 271 96 633 404 221 188 277 229 559 409 350 224 455 311 506 420 13 28
24 65 24 82 0 133 -220 417 -725 931 l-220 224 25 20 c121 97 277 238 385 349
193 198 299 336 382 498 l44 86 92 1 c109 2 192 26 286 81 92 54 167 133 323
338 284 376 387 467 574 515 92 24 122 20 170 -22 100 -88 104 -404 9 -778
-48 -188 -86 -278 -190 -445 -109 -177 -117 -226 -59 -365 19 -47 38 -109 41
-137 14 -131 -85 -229 -211 -207 -22 3 -111 31 -196 62 -195 69 -259 74 -335
27 -33 -21 -59 -49 -86 -94 -103 -171 -207 -540 -217 -767 -5 -135 5 -185 43
-210 21 -14 30 -14 87 2 233 64 488 202 693 372 115 96 164 118 303 137 156
20 194 42 261 149 31 50 59 128 105 294 32 114 71 193 130 262 97 114 107 171
78 460 -25 243 -28 501 -12 945 17 481 38 689 90 930 31 141 26 299 -10 370
-29 56 -95 107 -163 126 -67 19 -230 14 -329 -10 -136 -32 -261 -83 -548 -221
-387 -186 -533 -239 -702 -255 l-73 -7 -43 54 c-179 220 -352 388 -527 511
-281 199 -440 437 -506 760 -63 310 18 750 204 1110 l42 82 3 -40 c6 -90 58
-196 139 -286 21 -23 129 -118 240 -210 386 -322 519 -471 551 -614 12 -56 -5
-117 -58 -205 -33 -55 -43 -82 -43 -114 0 -59 45 -123 115 -161 47 -26 62 -29
139 -28 l85 1 13 -46 c65 -244 534 -177 668 95 24 50 28 70 28 140 l0 82 42
16 c86 33 129 119 100 202 -8 23 -47 100 -86 172 -164 296 -217 495 -191 715
12 97 14 102 48 131 147 126 196 196 196 280 0 44 -6 62 -43 118 -80 124 -84
180 -17 255 45 50 56 74 56 119 0 45 -40 168 -99 302 -22 52 -41 96 -41 98 0
2 7 3 16 3 26 0 157 65 225 111 35 23 88 67 117 98 52 54 115 166 127 227 l6
31 -53 -18 c-91 -31 -160 -33 -298 -9 -147 26 -295 25 -346 -3 l-32 -16 -13
31 c-28 68 -141 161 -231 191 -16 6 -16 10 3 64 54 159 175 358 252 415 l42
31 -100 -6 c-56 -3 -143 -17 -197 -31 -53 -14 -103 -27 -109 -28 -8 -2 -17 22
-25 67 -141 806 -782 1424 -1597 1540 -123 18 -388 18 -507 0z m522 -294 c577
-99 1055 -508 1238 -1060 45 -134 68 -243 77 -351 l6 -77 -48 -59 c-55 -68
-60 -71 -83 -51 -28 24 -114 64 -167 76 -31 7 -120 10 -235 9 -176 -3 -187 -2
-238 21 -80 36 -130 103 -148 198 -11 60 -26 13 -26 -87 -1 -76 3 -97 24 -139
l25 -51 -68 0 c-89 0 -275 25 -374 50 -121 30 -234 90 -291 153 l-47 52 5 -67
c4 -50 14 -81 36 -121 l31 -54 -71 -7 c-118 -11 -155 -24 -383 -136 -294 -146
-457 -200 -598 -200 -100 0 -183 45 -213 117 -16 38 -18 130 -4 169 21 56 1
33 -34 -38 -95 -191 -82 -354 37 -470 26 -26 80 -63 120 -83 l72 -35 -60 0
c-64 -1 -113 -6 -209 -20 -32 -5 -62 -7 -67 -5 -14 9 -87 208 -112 306 -40
152 -50 258 -44 451 6 187 23 288 76 446 79 238 203 435 385 618 246 245 529
391 876 449 121 21 379 18 512 -4z"/>
<path d="M19670 1871 c-59 -37 -159 -76 -245 -96 -105 -25 -100 -23 -82 -43
25 -28 47 -88 47 -130 0 -21 -9 -72 -19 -113 -21 -80 -233 -659 -241 -659 -5
0 -49 125 -188 528 l-45 133 37 38 c26 26 34 41 26 46 -13 8 -90 -61 -90 -81
0 -7 54 -164 121 -350 66 -187 120 -346 121 -354 1 -19 -21 -74 -27 -68 -7 6
-275 771 -275 783 0 5 26 35 57 67 l57 58 -214 0 -214 0 44 -37 c25 -21 55
-47 68 -58 17 -15 64 -137 179 -464 l156 -445 -24 -20 c-14 -12 -40 -33 -59
-48 l-35 -28 206 0 c199 0 229 -4 229 -32 0 -4 -88 -8 -196 -8 -152 0 -195 -3
-192 -12 4 -10 61 -14 232 -16 l228 -2 -53 60 c-94 106 -100 56 61 475 196
510 275 671 387 787 25 25 43 52 40 60 -13 36 -162 -162 -241 -320 -40 -78
-356 -889 -356 -911 0 -5 7 -14 16 -21 8 -8 20 -23 26 -34 7 -13 -6 -6 -35 19
-25 22 -46 44 -46 48 -2 14 288 766 339 880 62 140 114 225 191 315 34 40 60
74 58 77 -3 2 -25 -9 -49 -24z"/>
<path d="M13856 1658 c-53 -14 -110 -74 -131 -138 -14 -41 -16 -73 -12 -144 2
-50 6 -97 8 -104 3 -7 -28 -25 -80 -46 -193 -79 -274 -177 -273 -331 1 -117
39 -198 123 -264 137 -109 379 -122 525 -29 41 26 49 28 62 15 13 -13 9 -19
-29 -47 -77 -57 -126 -73 -226 -78 -107 -5 -196 17 -275 67 -59 38 -63 24 -6
-18 77 -56 140 -75 258 -75 122 0 182 19 266 83 l52 39 50 -24 c66 -31 130
-40 186 -24 58 16 116 64 116 96 0 30 -27 32 -72 4 -42 -25 -71 -25 -125 1
-38 18 -123 100 -123 119 0 11 92 143 136 196 l43 50 -47 23 c-26 12 -74 40
-108 62 -33 21 -62 39 -65 39 -2 0 -3 -39 -1 -87 3 -102 3 -102 -69 42 l-50
99 45 23 c116 59 180 173 157 277 -6 28 -22 65 -36 81 l-24 30 19 -53 c27 -72
25 -127 -6 -191 -28 -55 -90 -110 -151 -133 -18 -7 -33 -16 -33 -20 0 -16 57
-135 100 -207 30 -53 40 -79 36 -97 -4 -13 -10 -24 -14 -24 -18 0 -182 320
-182 355 0 6 22 18 48 27 139 50 210 171 168 283 -22 56 -82 109 -141 124 -51
13 -66 13 -119 -1z m137 -98 c23 -26 27 -39 27 -91 0 -59 -2 -63 -42 -103
l-41 -41 -23 50 c-47 99 -21 183 48 157 38 -14 49 -7 22 13 -27 21 -71 18 -94
-5 -26 -26 -26 -95 0 -170 10 -30 18 -56 17 -56 -1 -1 -10 -4 -20 -6 -43 -8
-84 180 -53 241 31 60 109 66 159 11z m-233 -407 c-1 -10 -19 -30 -41 -46 -44
-30 -94 -102 -109 -157 -13 -46 -13 -125 1 -173 17 -63 86 -130 157 -151 38
-12 24 10 -19 29 -45 21 -85 63 -107 115 -22 51 -19 156 5 210 18 42 101 130
121 130 5 0 28 -42 51 -92 24 -51 72 -142 107 -201 64 -106 65 -109 47 -129
-37 -41 -102 -70 -167 -75 -152 -13 -259 97 -259 264 1 111 45 197 137 264 44
33 76 38 76 12z"/>
<path d="M800 1645 c-104 -30 -197 -103 -265 -209 -113 -178 -127 -471 -30
-674 39 -83 124 -176 193 -211 104 -53 275 -64 386 -25 71 25 147 102 176 179
30 80 38 186 16 204 -28 23 -43 5 -56 -66 -30 -176 -118 -263 -266 -263 -154
0 -256 105 -299 307 -19 90 -19 336 0 425 37 175 124 267 253 268 29 0 67 -6
86 -14 77 -32 141 -116 167 -220 6 -25 14 -46 18 -45 9 0 153 300 147 306 -2
2 -13 0 -24 -6 -36 -19 -105 -12 -198 19 -110 38 -224 47 -304 25z"/>
<path d="M12140 1635 c-154 -44 -234 -145 -233 -295 1 -136 60 -225 182 -271
31 -11 103 -31 161 -44 191 -42 275 -88 314 -169 37 -78 8 -184 -62 -231 -74
-49 -205 -56 -318 -18 -89 30 -165 125 -188 236 -4 15 -10 27 -14 27 -4 0 -19
-33 -34 -73 -15 -39 -48 -108 -73 -151 -57 -101 -58 -111 -5 -81 38 22 107 18
237 -14 206 -50 321 -50 427 -1 68 33 131 94 163 158 23 48 28 70 28 137 0 67
-4 89 -28 137 -52 106 -128 152 -348 208 -157 39 -224 71 -259 121 -96 133 55
300 234 260 59 -13 125 -55 152 -96 9 -14 27 -54 40 -88 l23 -62 28 65 c15 36
47 103 70 149 38 76 40 82 20 76 -51 -17 -115 -15 -197 5 -115 28 -249 35
-320 15z"/>
<path d="M21974 1637 c-99 -26 -184 -93 -221 -175 -26 -59 -24 -195 5 -254 46
-94 122 -138 317 -183 66 -15 144 -36 173 -47 185 -69 219 -273 62 -362 -50
-28 -63 -31 -145 -31 -111 0 -176 21 -240 77 -47 42 -87 108 -100 165 -10 47
-22 49 -35 6 -16 -51 -101 -223 -110 -223 -8 0 -66 104 -89 158 -7 17 -19 32
-27 32 -8 0 -14 -2 -14 -4 0 -12 48 -109 77 -154 18 -29 32 -61 31 -70 -2 -10
3 -16 11 -14 21 5 31 -18 18 -45 l-10 -23 -449 0 c-355 0 -449 -3 -446 -12 4
-10 105 -14 451 -16 436 -2 447 -2 467 18 29 29 137 27 260 -5 249 -66 421
-35 556 99 77 78 107 147 107 256 0 91 -26 160 -80 211 l-36 34 22 -32 c144
-210 42 -478 -212 -555 -89 -27 -218 -21 -367 16 -58 14 -133 26 -166 26 -47
0 -63 4 -68 16 -3 9 -4 20 0 25 10 17 103 9 221 -20 213 -52 325 -50 436 6
191 96 243 352 101 499 -57 58 -135 93 -297 133 -217 53 -287 105 -287 212 0
149 186 225 338 138 58 -33 92 -79 118 -157 9 -29 20 -50 24 -45 4 4 26 53 49
108 23 55 54 118 68 139 l25 39 -23 -8 c-53 -17 -117 -16 -199 5 -108 27 -248
34 -316 17z"/>
<path d="M8948 1621 c-117 -38 -211 -118 -265 -224 -90 -178 -87 -478 7 -641
141 -247 485 -318 686 -142 66 58 106 121 140 221 26 73 28 93 28 225 0 109
-4 161 -18 210 -44 159 -132 276 -252 332 -59 27 -80 32 -168 35 -79 2 -113
-1 -158 -16z m274 -96 c57 -40 104 -133 119 -234 7 -44 9 -147 7 -250 -4 -145
-9 -188 -27 -243 -24 -74 -70 -141 -120 -175 -73 -49 -197 -39 -270 24 -88 75
-123 194 -123 418 0 217 29 336 102 419 55 62 92 77 187 74 72 -3 86 -6 125
-33z"/>
<path d="M9039 1505 c-85 -27 -142 -117 -169 -266 -18 -96 -15 -320 5 -407 18
-77 68 -163 118 -202 28 -23 39 -12 11 11 -28 23 -62 84 -85 151 -27 78 -38
321 -20 438 34 216 147 303 310 237 58 -23 61 -24 44 -5 -44 49 -137 67 -214
43z"/>
<path d="M11024 1616 c-50 -13 -119 -38 -155 -56 l-64 -33 43 -20 42 -21 0
-212 0 -213 -51 -3 -52 -3 -13 -45 c-7 -24 -12 -45 -10 -47 1 -1 18 2 37 7 56
16 89 13 89 -9 0 -14 -10 -21 -32 -26 -52 -12 -80 -24 -74 -34 4 -5 27 -4 56
4 l50 13 0 -141 0 -141 -52 -53 -52 -53 188 0 188 0 -46 51 -46 52 2 191 3
191 83 11 c46 7 89 15 97 18 21 8 42 -33 24 -45 -14 -8 -89 -25 -139 -31 l-25
-3 -3 -174 -2 -174 57 -61 58 -61 -198 -3 c-152 -2 -198 -5 -194 -15 3 -9 61
-13 225 -15 122 -1 222 1 222 6 0 4 -31 39 -70 77 l-70 69 0 163 0 163 28 6
c15 3 49 12 77 19 27 8 53 11 56 7 25 -28 94 -257 129 -431 16 -79 31 -145 32
-147 2 -1 28 13 58 31 30 19 89 49 130 66 41 17 76 32 78 34 1 1 -25 31 -58
65 -34 35 -88 104 -122 154 -59 89 -168 297 -168 322 0 6 21 19 46 28 230 78
309 300 156 438 -88 79 -183 108 -352 108 -87 -1 -137 -7 -206 -24z m313 -61
c43 -18 98 -67 119 -107 8 -15 14 -54 14 -88 0 -121 -66 -191 -224 -239 -115
-35 -106 -51 -106 180 l0 201 93 -4 c94 -4 106 -8 192 -64 28 -18 28 -18 17 3
-37 69 -169 107 -294 87 l-38 -7 0 -213 c0 -207 -1 -214 -20 -214 -19 0 -20 7
-20 229 0 140 4 232 10 236 44 27 192 27 257 0z"/>
<path d="M16451 1629 c-64 -12 -168 -48 -226 -77 l-49 -24 47 -25 47 -24 -2
-207 -3 -207 -52 -3 -53 -3 -14 -47 c-7 -26 -13 -48 -12 -49 1 -2 18 2 37 7
56 16 99 13 99 -8 0 -13 -13 -22 -50 -31 -46 -12 -68 -26 -57 -37 2 -2 15 -1
28 4 13 5 36 12 52 16 l27 6 0 -142 0 -143 -57 -52 -58 -52 195 -1 194 0 -52
53 -52 53 0 187 c0 142 3 188 13 191 6 2 54 10 104 18 89 13 93 13 99 -5 9
-29 -3 -34 -153 -63 -23 -4 -23 -6 -23 -175 l0 -171 62 -64 61 -64 -196 0
c-168 0 -197 -2 -197 -15 0 -13 32 -15 226 -15 l226 0 -76 82 -76 81 0 157 0
157 81 22 c45 12 83 20 85 19 1 -2 19 -50 39 -108 39 -113 85 -292 104 -406
l12 -71 126 63 c69 35 132 64 140 64 9 0 -16 33 -56 76 -85 89 -176 224 -236
349 -53 113 -61 135 -43 135 8 0 45 15 83 34 78 38 146 101 170 160 20 48 21
132 2 178 -31 75 -127 143 -244 173 -63 16 -248 19 -322 4z m279 -86 c65 -34
107 -89 116 -153 17 -128 -74 -229 -247 -275 -97 -26 -89 -42 -89 185 l0 200
83 0 c85 0 134 -15 198 -61 41 -29 36 -8 -6 30 -48 42 -131 65 -215 59 -37 -3
-72 -8 -79 -12 -8 -5 -11 -71 -11 -217 0 -202 -1 -209 -20 -209 -19 0 -20 7
-20 229 l0 229 33 11 c60 19 72 20 137 16 45 -3 82 -13 120 -32z"/>
<path d="M1533 1575 l57 -54 0 -188 0 -188 -49 -22 c-48 -21 -111 -88 -111
-120 0 -18 15 -17 31 3 16 20 56 40 97 49 48 10 42 -19 -8 -34 -42 -12 -99
-55 -89 -66 4 -3 24 5 44 20 21 14 48 25 61 25 l24 0 0 -182 0 -183 -57 -52
-58 -52 201 -1 c188 0 202 -1 219 -20 18 -20 17 -20 -183 -20 -132 0 -202 -4
-202 -10 0 -19 23 -20 242 -18 l216 3 -69 80 -68 80 -1 177 0 178 118 -2 c64
-1 132 2 150 6 l32 8 0 -186 c0 -102 -3 -186 -7 -186 -5 -1 -30 -21 -58 -45
l-49 -45 199 0 200 1 -53 47 -52 47 0 445 0 444 57 58 57 58 -194 0 -194 0 47
-48 47 -48 0 -195 0 -196 -68 -6 c-37 -3 -104 -3 -150 0 l-82 6 0 176 0 177
45 44 c30 29 42 47 35 54 -7 7 -27 -6 -60 -39 l-50 -49 0 -184 c0 -164 -2
-183 -16 -178 -9 3 -18 6 -20 6 -2 0 -4 82 -4 182 l0 182 57 58 57 58 -199 0
-200 -1 58 -54z m500 -537 c71 4 97 2 97 -7 0 -24 -57 -32 -190 -30 l-135 3
-3 -194 -2 -194 37 -39 c39 -41 25 -35 -40 18 l-37 30 0 210 0 210 88 -6 c48
-4 131 -4 185 -1z"/>
<path d="M2587 1612 c11 -9 42 -33 67 -52 l45 -35 1 -182 0 -183 -34 0 c-18 0
-48 -10 -67 -23 -31 -21 -79 -80 -79 -98 0 -4 25 5 56 22 66 35 124 39 124 10
0 -14 -10 -21 -32 -26 -58 -13 -108 -37 -108 -52 0 -11 5 -13 18 -8 130 56
122 66 122 -152 l0 -188 -56 -40 c-30 -21 -60 -45 -66 -52 -8 -11 80 -13 472
-13 l482 0 -50 55 c-51 55 -97 139 -108 195 -4 16 -9 30 -13 30 -3 0 -23 -29
-44 -65 -62 -106 -112 -132 -269 -142 l-98 -6 0 206 0 207 91 0 c80 0 90 2 79
15 -9 11 -35 15 -106 15 l-94 0 0 -220 0 -220 -25 0 -25 0 0 240 0 240 114 0
114 0 52 -70 c29 -38 54 -70 56 -70 2 0 4 82 4 182 l0 182 -57 -77 -57 -77
-73 0 -73 0 0 166 0 166 113 -3 c107 -4 116 -6 158 -34 73 -50 72 -49 60 -27
-33 62 -114 92 -244 92 -127 0 -117 15 -117 -186 l0 -174 -25 0 -25 0 0 194 0
195 56 7 c72 9 227 -3 268 -20 40 -18 78 -59 108 -120 l25 -49 31 68 c18 37
52 96 77 131 l44 64 -457 0 c-435 0 -456 -1 -435 -18z"/>
<path d="M3599 1553 c21 -43 49 -106 61 -140 12 -35 26 -61 30 -58 4 2 10 25
13 51 6 54 30 91 78 119 46 26 202 30 207 4 2 -14 -10 -17 -70 -21 -94 -6
-134 -27 -158 -81 -23 -52 -29 -99 -14 -104 7 -2 15 13 19 34 17 91 59 123
165 123 l60 0 0 -422 0 -423 -60 -49 c-33 -28 -60 -51 -60 -53 0 -2 89 -3 198
-3 l197 1 -53 47 -52 47 0 463 0 462 77 0 c127 0 174 -35 217 -164 5 -15 23
12 71 110 36 71 65 130 65 132 0 1 -232 2 -515 2 l-515 0 39 -77z"/>
<path d="M5093 1582 l48 -48 -57 -155 c-30 -84 -57 -155 -59 -157 -2 -2 -22
10 -44 28 -61 50 -75 27 -15 -26 38 -33 46 -45 37 -55 -9 -9 -21 -4 -54 25
-23 20 -45 36 -48 36 -3 0 -21 -31 -38 -67 -34 -69 -32 -82 10 -83 10 0 32 -7
49 -16 37 -19 36 -30 -22 -178 -64 -163 -136 -261 -240 -327 l-45 -29 221 0
c208 0 222 -1 239 -20 18 -20 17 -20 -193 -20 -139 0 -212 -4 -212 -10 0 -19
23 -20 249 -18 l223 3 -40 50 c-65 82 -82 122 -82 190 1 64 47 221 65 219 6
-1 38 -42 72 -92 l62 -91 44 62 c56 77 112 131 126 123 19 -12 12 -27 -40 -84
-64 -70 -104 -130 -94 -140 4 -4 15 4 24 18 28 43 117 145 126 145 5 0 29 -53
54 -117 l44 -117 -34 -28 c-18 -15 -45 -38 -59 -50 l-25 -22 218 -1 c119 0
217 1 217 3 0 2 -28 24 -63 50 l-64 46 -76 208 c-88 238 -89 233 15 233 32 0
58 2 58 5 0 4 -8 20 -17 38 -9 18 -24 56 -33 86 l-17 53 -36 -32 c-27 -23 -38
-28 -42 -18 -2 7 -29 78 -59 158 l-54 145 44 51 c30 35 40 54 31 57 -7 3 -34
-19 -59 -48 l-47 -52 64 -169 c53 -142 61 -170 48 -177 -8 -5 -16 -7 -17 -5
-1 1 -33 85 -71 186 l-68 182 42 45 c22 24 41 47 41 50 0 3 -89 5 -197 5
l-197 0 47 -48z m70 -338 l-55 -144 54 -60 c69 -76 86 -106 69 -123 -10 -10
-18 -5 -39 23 -15 19 -50 62 -78 95 l-51 61 39 105 c99 266 90 247 103 215 11
-25 6 -44 -42 -172z m131 -55 l54 -144 -41 -42 c-23 -24 -44 -43 -47 -43 -3 0
-13 12 -22 28 -9 15 -35 48 -57 73 l-40 46 38 99 c21 54 41 108 45 118 3 10 9
17 11 14 3 -2 29 -69 59 -149z m-270 -334 c-44 -128 -44 -208 0 -276 l29 -44
-36 34 c-78 74 -84 145 -27 325 31 96 32 98 50 80 18 -18 17 -22 -16 -119z"/>
<path d="M6038 1577 l52 -53 0 -446 0 -446 -57 -51 -58 -51 200 0 200 1 -53
47 -52 47 0 134 0 133 82 97 c44 53 86 96 91 96 27 0 12 -30 -58 -113 l-75
-91 0 -133 0 -133 52 -60 51 -60 -197 -3 c-151 -2 -197 -5 -193 -15 3 -9 61
-13 225 -15 122 -1 222 0 222 3 0 3 -29 40 -65 82 l-65 76 0 126 0 126 67 79
66 79 105 -209 c117 -233 113 -201 31 -266 l-34 -27 228 0 c213 0 230 -1 260
-20 l32 -21 -238 0 c-186 0 -238 -3 -235 -12 4 -10 71 -14 283 -16 l279 -2
-121 83 -121 83 -151 302 c-83 166 -151 305 -151 308 0 2 45 54 101 114 113
123 167 165 246 190 29 9 50 19 47 23 -11 11 -30 8 -86 -13 -69 -26 -135 -81
-246 -208 l-90 -103 72 -152 c172 -359 227 -462 264 -495 l37 -33 -52 31 c-51
30 -56 38 -139 198 -48 92 -120 231 -160 308 l-74 142 93 108 c120 141 195
207 282 249 l70 35 -235 -1 c-235 0 -235 0 -195 -18 54 -25 79 -55 78 -95 -1
-50 -19 -76 -172 -259 l-141 -169 0 208 0 207 40 34 c36 31 52 63 32 63 -4 0
-29 -22 -55 -48 l-47 -48 0 -224 c0 -208 -2 -227 -20 -250 -20 -25 -20 -25
-20 230 l0 254 57 58 57 58 -199 0 -199 0 52 -53z"/>
<path d="M7569 1528 c27 -57 54 -121 61 -143 11 -34 14 -37 21 -20 4 11 10 37
14 58 14 84 87 127 214 127 53 0 61 -3 61 -19 0 -16 -10 -19 -68 -23 -88 -6
-129 -28 -152 -81 -22 -50 -29 -90 -16 -97 5 -3 15 17 22 43 7 26 18 55 26 64
21 26 73 43 133 43 l55 0 0 -430 c0 -236 -3 -430 -7 -430 -5 -1 -30 -21 -58
-45 l-50 -45 200 0 200 0 -53 46 -52 46 0 464 0 464 75 0 c42 0 90 -6 108 -14
44 -18 85 -69 99 -122 7 -24 15 -44 19 -44 3 0 14 21 24 48 10 26 37 82 61
124 24 42 44 80 44 83 0 3 -231 5 -514 5 l-515 0 48 -102z"/>
<path d="M9752 1577 l57 -52 4 -365 c4 -400 10 -445 65 -525 105 -151 495
-161 601 -15 16 22 34 64 40 91 7 30 11 195 11 422 l0 372 75 59 c41 32 75 60
75 62 0 2 -82 4 -181 4 l-182 0 67 -61 66 -61 0 -312 c0 -446 -14 -527 -100
-575 -49 -27 -140 -37 -213 -21 -69 14 -120 57 -136 115 -7 26 -11 173 -11
420 l0 379 57 58 57 58 -204 0 -205 0 57 -53z"/>
<path d="M15094 1538 c24 -51 49 -111 56 -133 18 -59 27 -62 35 -13 19 112 64
148 196 156 86 5 89 4 89 -17 0 -19 -6 -21 -52 -21 -59 -1 -120 -19 -149 -46
-26 -23 -55 -122 -40 -137 7 -7 11 -6 14 4 33 122 62 149 163 149 l64 0 0
-422 1 -423 -58 -53 -58 -52 205 1 c197 1 205 0 219 -20 l13 -21 -196 0 c-128
0 -196 -4 -196 -10 0 -19 23 -20 239 -18 l213 3 -66 77 -66 77 -2 432 -3 431
65 -4 c36 -3 80 -12 97 -22 27 -13 31 -14 27 -2 -12 30 -57 48 -135 53 l-79 6
0 -449 0 -449 31 -38 c42 -51 23 -47 -29 6 l-42 43 0 462 0 462 75 0 c120 0
166 -30 202 -132 10 -26 21 -48 25 -48 3 0 12 17 18 38 7 20 34 79 61 130 l50
92 -515 0 -515 0 43 -92z"/>
<path d="M17693 1581 l45 -49 -55 -153 c-31 -85 -57 -156 -59 -158 -1 -1 -21
11 -43 29 -61 50 -75 27 -15 -26 39 -33 46 -45 37 -55 -10 -10 -22 -4 -58 26
-25 20 -47 36 -49 34 -2 -2 -19 -34 -38 -71 l-35 -68 36 -6 c43 -8 91 -31 91
-43 0 -25 -67 -196 -107 -273 -45 -88 -128 -179 -199 -220 l-30 -17 -62 53
c-34 29 -89 86 -122 127 -59 73 -170 274 -170 307 0 10 21 28 54 45 128 67
187 153 187 272 0 52 -6 79 -26 120 -14 29 -33 59 -42 66 -10 9 -5 -7 13 -41
36 -71 41 -181 9 -245 -28 -57 -96 -119 -171 -156 -35 -17 -64 -35 -64 -39 0
-4 29 -65 65 -136 72 -144 163 -267 253 -340 31 -26 55 -49 52 -53 -2 -3 -41
-20 -85 -36 -75 -28 -208 -96 -229 -116 -5 -5 -7 -11 -4 -15 4 -3 61 22 128
55 66 33 152 70 191 82 63 19 68 23 52 35 -15 11 13 13 191 14 201 0 208 1
195 19 -8 10 -29 37 -46 61 -46 60 -45 123 3 271 34 105 36 110 53 94 18 -15
17 -19 -12 -103 -34 -101 -45 -193 -27 -246 6 -20 29 -59 51 -86 l39 -50 -210
0 c-180 0 -210 -2 -210 -15 0 -13 33 -15 236 -15 l236 0 -28 37 c-83 109 -94
132 -94 197 0 64 15 133 44 201 l17 40 22 -29 c12 -16 43 -60 68 -98 l46 -68
25 38 c30 45 127 152 138 152 4 0 11 -7 14 -16 4 -9 -10 -32 -37 -62 -59 -65
-107 -128 -107 -141 0 -23 18 -9 53 42 20 29 52 68 71 86 l35 34 9 -24 c6 -13
26 -67 47 -119 l36 -95 -58 -52 -58 -53 223 1 c210 0 223 -1 248 -20 l27 -21
-222 0 c-174 0 -222 -3 -219 -12 4 -10 66 -14 258 -16 l253 -2 -49 42 c-144
125 -146 128 -218 319 -36 97 -66 179 -66 183 0 3 38 3 85 0 l86 -7 -40 81
c-21 45 -44 95 -49 112 -13 35 -37 42 -26 8 5 -19 34 -92 61 -155 4 -10 -14
-13 -71 -13 -59 0 -76 -3 -76 -14 0 -8 32 -99 71 -203 65 -175 73 -191 117
-231 61 -56 47 -54 -27 4 l-60 46 -76 206 c-87 236 -88 232 17 232 32 0 58 2
58 4 0 2 -13 33 -30 68 -16 34 -30 70 -30 79 0 30 -14 29 -46 -2 l-33 -32 -11
29 c-7 16 -34 87 -61 159 l-48 129 41 49 c26 31 37 52 31 58 -6 6 -26 -10 -56
-45 l-47 -54 61 -161 c55 -147 65 -191 42 -191 -5 0 -40 83 -77 185 l-69 186
29 32 c67 73 79 67 -141 67 l-198 0 46 -49z m117 -186 c0 -11 -23 -82 -51
-157 l-51 -137 55 -62 c71 -80 84 -103 68 -123 -11 -13 -20 -5 -63 52 -27 37
-63 81 -79 97 l-29 31 60 159 c33 88 63 167 66 175 4 13 6 13 14 0 6 -8 10
-24 10 -35z m82 -207 l55 -147 -44 -43 c-40 -39 -45 -41 -54 -25 -6 9 -32 44
-59 77 l-50 59 36 93 c20 51 40 104 45 117 5 13 11 22 13 20 2 -2 28 -70 58
-151z"/>
<path d="M19680 1626 c0 -1 27 -24 60 -50 l60 -47 0 -185 0 -184 -26 0 c-41 0
-93 -30 -120 -69 -37 -54 -29 -61 32 -29 68 34 114 37 114 8 0 -14 -11 -22
-42 -31 -61 -16 -102 -39 -91 -50 6 -6 26 -2 54 10 83 38 79 46 79 -168 l0
-190 -62 -48 -63 -48 474 -3 c261 -1 476 0 479 3 3 2 -16 27 -42 55 -46 49
-106 158 -106 192 0 36 -18 24 -53 -36 -21 -35 -45 -70 -55 -79 -40 -37 -109
-57 -216 -64 l-106 -6 0 206 0 207 96 0 c85 0 95 2 84 15 -9 11 -35 15 -106
15 l-94 0 0 -220 0 -220 -25 0 -25 0 0 240 0 240 113 0 113 0 54 -72 55 -73 3
93 c1 50 1 133 0 183 l-3 92 -55 -77 -54 -76 -78 0 -78 0 2 163 3 162 116 0
c112 0 117 -1 160 -30 72 -49 72 -49 61 -28 -14 25 -40 47 -80 67 -38 20 -188
33 -246 22 l-36 -7 0 -174 0 -175 -25 0 -25 0 0 194 0 195 57 7 c63 8 199 -1
254 -16 43 -12 79 -48 117 -117 l28 -52 41 82 c22 45 57 103 77 130 l36 47
-455 0 c-250 0 -455 -2 -455 -4z"/>
<path d="M20803 1577 l57 -52 0 -450 0 -450 -55 -44 c-30 -24 -55 -46 -55 -47
0 -2 200 -4 445 -4 l445 0 -43 64 c-24 35 -61 107 -82 161 l-39 97 -12 -44
c-23 -92 -77 -164 -139 -188 -45 -17 -145 -30 -182 -24 l-33 6 0 447 0 447 39
38 c24 23 37 44 34 53 -4 11 -19 2 -54 -33 l-49 -48 0 -453 c0 -446 0 -453
-20 -453 -20 0 -20 7 -20 458 l0 459 59 56 60 57 -207 0 -207 -1 58 -52z"/>
<path d="M2397 1552 l-47 -48 0 -443 0 -444 56 -63 56 -64 -201 0 c-131 0
-201 -4 -201 -10 0 -19 23 -20 242 -18 l216 3 -69 79 -69 79 0 437 0 436 40
39 c37 36 51 65 32 65 -4 0 -29 -22 -55 -48z"/>
<path d="M9409 1553 c71 -63 125 -147 157 -247 34 -107 44 -304 20 -414 -42
-200 -192 -365 -364 -401 -111 -23 -253 -6 -331 40 -18 11 -35 18 -37 16 -2
-2 20 -17 49 -35 175 -106 412 -72 558 79 67 70 110 148 141 254 29 105 32
315 5 415 -39 146 -130 282 -218 325 -29 14 -26 10 20 -32z"/>
<path d="M10077 1553 l-48 -45 3 -386 c3 -370 4 -389 24 -427 19 -38 74 -85
97 -85 6 0 -8 18 -30 41 -31 30 -44 54 -52 90 -7 30 -11 193 -11 407 l0 356
41 42 c56 57 35 63 -24 7z"/>
<path d="M3472 1544 c-49 -66 -115 -192 -107 -205 4 -6 22 16 42 52 20 35 53
90 75 122 47 69 38 96 -10 31z"/>
<path d="M4590 1538 c-51 -89 -93 -199 -81 -211 13 -13 12 -16 45 68 15 39 42
95 61 125 32 51 36 70 15 70 -5 0 -23 -24 -40 -52z"/>
<path d="M8552 1543 c-45 -70 -96 -203 -83 -216 7 -7 16 4 31 37 11 26 20 51
20 55 0 3 20 41 44 83 40 71 45 88 25 88 -4 0 -21 -21 -37 -47z"/>
<path d="M10635 1538 l-60 -51 -6 -391 c-6 -430 -9 -456 -69 -528 -17 -20 -56
-49 -86 -64 -105 -51 -324 -45 -437 13 -62 31 -69 25 -14 -10 153 -100 444
-84 548 30 80 86 88 141 89 588 l0 350 60 48 c33 27 57 53 54 58 -9 14 -16 11
-79 -43z"/>
<path d="M12638 1456 c-61 -122 -69 -146 -48 -146 7 0 140 262 140 275 0 3 -6
5 -13 5 -7 0 -42 -60 -79 -134z"/>
<path d="M16085 1552 c-28 -43 -95 -196 -95 -218 0 -26 21 -14 32 19 6 17 33
75 60 127 26 52 48 98 48 102 0 20 -22 5 -45 -30z"/>
<path d="M20557 1508 c-63 -95 -87 -140 -87 -163 0 -30 16 -14 44 43 15 31 48
86 73 120 30 42 42 67 35 74 -6 6 -28 -18 -65 -74z"/>
<path d="M22467 1458 c-46 -88 -64 -135 -57 -142 5 -5 11 -8 14 -5 5 5 136
270 136 275 0 2 -6 4 -13 4 -7 0 -43 -59 -80 -132z"/>
<path d="M1307 1453 c-75 -139 -91 -178 -82 -194 5 -7 37 46 80 130 40 77 77
147 84 154 10 13 6 27 -10 27 -4 0 -36 -53 -72 -117z"/>
<path d="M842 1519 c-24 -12 -54 -36 -68 -54 -104 -137 -111 -532 -13 -729 25
-49 73 -102 111 -122 47 -24 53 -15 11 15 -23 16 -52 45 -66 63 -117 154 -130
592 -23 749 50 72 160 92 243 43 54 -31 67 -26 21 9 -68 52 -144 61 -216 26z"/>
<path d="M12213 1528 c-17 -6 -46 -25 -64 -44 -39 -41 -51 -112 -25 -162 18
-34 75 -82 97 -82 8 0 2 9 -13 21 -97 72 -87 205 19 240 71 23 158 -1 228 -62
19 -17 35 -26 35 -21 0 20 -53 73 -91 93 -46 23 -142 32 -186 17z"/>
<path d="M22044 1529 c-45 -13 -90 -59 -103 -104 -15 -57 1 -105 49 -149 56
-51 69 -45 21 10 -50 57 -59 92 -34 141 51 102 177 110 299 17 54 -41 58 -26
6 26 -57 58 -158 82 -238 59z"/>
<path d="M11674 1475 c58 -120 41 -225 -52 -315 -31 -30 -83 -68 -114 -83 -32
-15 -58 -32 -58 -37 0 -18 86 -194 123 -252 55 -84 130 -171 197 -227 33 -28
56 -52 52 -54 -4 -2 -32 -12 -62 -22 -58 -19 -211 -93 -245 -118 -11 -9 -17
-18 -13 -22 4 -4 40 11 80 34 133 73 250 112 353 118 76 4 106 1 195 -22 254
-66 432 -34 559 100 78 82 106 150 105 255 0 94 -14 137 -65 201 -41 52 -57
50 -19 -3 70 -96 78 -228 21 -343 -38 -77 -101 -136 -191 -179 -62 -29 -71
-31 -185 -31 -98 1 -141 6 -234 29 -92 23 -128 28 -190 23 l-76 -4 -62 49
c-75 59 -133 126 -201 230 -43 67 -120 227 -110 231 119 58 189 118 224 192
41 87 29 203 -28 267 l-29 33 25 -50z"/>
<path d="M4200 1064 l0 -449 56 -63 56 -62 -202 0 c-157 0 -201 -3 -198 -12 4
-10 60 -14 226 -16 122 -1 222 0 222 4 0 3 -29 40 -65 82 l-65 75 0 429 0 428
53 0 c30 0 70 -9 95 -20 48 -22 53 -9 9 24 -19 14 -47 20 -107 24 l-80 5 0
-449z"/>
<path d="M8160 1062 l0 -448 50 -56 c28 -31 50 -59 50 -62 0 -3 -88 -6 -196
-6 -152 0 -195 -3 -192 -12 4 -10 60 -14 226 -16 122 -1 222 0 222 4 0 3 -29
39 -65 80 l-65 75 0 429 0 430 53 0 c30 0 70 -9 96 -20 l44 -20 -15 22 c-20
31 -70 47 -145 47 l-63 1 0 -448z"/>
<path d="M3242 1103 c2 -138 6 -187 16 -191 9 -3 12 39 12 187 0 164 -2 191
-15 191 -13 0 -15 -25 -13 -187z"/>
<path d="M20352 1103 c2 -138 6 -187 16 -191 9 -3 12 39 12 187 0 164 -2 191
-15 191 -13 0 -15 -25 -13 -187z"/>
<path d="M5670 1214 c0 -12 54 -140 68 -161 l14 -23 -81 0 c-58 0 -81 -4 -81
-12 0 -7 33 -100 74 -206 l73 -194 71 -61 70 -62 -220 -3 c-168 -2 -219 -5
-215 -15 3 -9 67 -13 258 -15 l254 -2 -55 47 c-141 122 -142 123 -210 308 -35
94 -65 176 -68 183 -3 10 15 11 82 6 l87 -7 -39 84 c-22 46 -44 96 -50 112
-10 23 -32 38 -32 21z"/>
<path d="M11970 1091 c0 -21 43 -60 89 -80 27 -11 120 -39 207 -62 182 -46
207 -56 252 -93 38 -33 42 -20 7 22 -32 38 -69 52 -275 107 -179 47 -213 60
-244 94 -20 22 -36 27 -36 12z"/>
<path d="M21799 1083 c30 -57 86 -81 315 -139 144 -36 179 -50 234 -91 37 -28
40 -23 12 17 -28 39 -82 61 -270 110 -161 41 -253 79 -264 106 -3 8 -12 14
-21 14 -12 0 -13 -4 -6 -17z"/>
<path d="M14318 918 c-49 -60 -98 -139 -98 -158 0 -10 16 -33 35 -53 41 -42
103 -65 131 -49 18 11 17 11 -4 12 -42 0 -142 66 -142 93 0 12 58 95 98 140
24 25 32 41 25 48 -7 7 -22 -4 -45 -33z"/>
<path d="M1336 852 c-2 -15 -8 -49 -11 -77 -13 -102 -78 -204 -166 -260 -107
-69 -289 -73 -421 -10 -27 12 -48 19 -48 15 0 -4 28 -21 63 -38 190 -93 413
-52 523 96 54 75 110 284 79 296 -9 3 -15 -5 -19 -22z"/>
<path d="M12050 813 c0 -63 93 -178 161 -202 42 -14 36 0 -11 27 -49 28 -97
92 -113 149 -11 42 -37 60 -37 26z"/>
<path d="M21880 811 c0 -64 81 -167 155 -196 39 -15 39 -15 17 2 -86 65 -119
110 -146 196 -7 23 -26 22 -26 -2z"/>
<path d="M3452 718 c18 -34 57 -88 87 -120 49 -53 53 -61 43 -83 l-11 -25
-468 -2 c-306 -2 -467 -6 -465 -13 1 -6 167 -10 473 -10 l471 0 21 37 21 36
-46 50 c-47 50 -118 153 -118 170 0 9 -23 22 -36 22 -3 0 10 -28 28 -62z"/>
<path d="M20539 756 c16 -40 60 -106 111 -166 41 -47 46 -58 37 -77 l-10 -23
-469 0 c-371 0 -469 -3 -465 -12 3 -10 107 -13 476 -13 l472 0 21 37 21 37
-56 61 c-31 33 -71 86 -89 117 -36 60 -66 85 -49 39z"/>
<path d="M14476 564 c-42 -53 -82 -74 -144 -74 -29 0 -66 7 -82 15 -19 10 -30
11 -30 5 0 -6 21 -20 46 -32 61 -27 129 -21 184 16 36 24 80 78 80 99 0 18
-28 4 -54 -29z"/>
</g>
</svg>
