<?xml version="1.0" encoding="utf-8"?>
<!-- Generator: Adobe Illustrator 22.0.1, SVG Export Plug-In . SVG Version: 6.00 Build 0)  -->
<svg version="1.1" id="SvgjsSvg1001" xmlns:svgjs="http://svgjs.com/svgjs"
	 xmlns="http://www.w3.org/2000/svg" xmlns:xlink="http://www.w3.org/1999/xlink" x="0px" y="0px" viewBox="0 0 300 300"
	 style="enable-background:new 0 0 300 300;" xml:space="preserve">
<style type="text/css">
	.st0{fill:#0094DE;}
</style>
<g id="SvgjsG1008" transform="matrix(0.9167,0,0,0.9167,11.991401128005975,12.370044915771501)">
	<path class="st0" d="M304.5,199L210.3,27c-6.3-11.2-18.1-18.1-31-18.1h-54.8c-4.3,0-8.4,2.2-10.6,5.9c-2.2,3.8-2.2,8.4,0,12.1
		l142.5,255c2.1,3.8,6.2,6.2,10.6,6.2l0,0c4.4,0,8.5-2.3,10.7-6.2l26.8-48.6C310.3,222.6,310.2,209.7,304.5,199z M283.2,222
		L267,251.7L145.2,33.2h34.1c4,0,7.7,2.1,9.7,5.6l94.2,172C285.2,214.3,285.2,218.5,283.2,222z M217.9,263.8H54
		c-3.9,0-7.5-2-9.6-5.3l-17.8-31.1h156.9c6.7,0,12.1-5.4,12.1-12.1c0-6.7-5.4-12.1-12.1-12.1H5.4c-6.7,0-12.1,5.4-12.1,12.1
		c0,2.2,0.6,4.3,1.7,6.2l28.8,49.4c6.5,10.5,17.9,17,30.2,17.2h163.9c6.7,0,12.1-5.4,12.1-12.1C230,269.3,224.6,263.8,217.9,263.8z
		 M29.7,187h132.3c4.3,0,8.4-2.2,10.6-5.9c2.2-3.8,2.2-8.4,0-12.1l-65.3-115c-2.2-3.7-6.1-6-10.4-6.1l0,0c-4.3,0-8.3,2.3-10.4,6.1
		L19.8,168.8c-2.2,3.8-2.2,8.4,0,12.1C21.8,184.5,25.6,186.8,29.7,187z M96.3,84.4l44.6,78.3H51.3L96.3,84.4z"/>
</g>
</svg>
