<?xml version="1.0" encoding="iso-8859-1"?>
<!-- Generator: Adobe Illustrator 19.0.0, SVG Export Plug-In . SVG Version: 6.00 Build 0)  -->
<svg version="1.1" id="Capa_1" xmlns="http://www.w3.org/2000/svg" xmlns:xlink="http://www.w3.org/1999/xlink" x="0px" y="0px"
	 viewBox="0 0 512.136 512.136" style="enable-background:new 0 0 512.136 512.136;" xml:space="preserve">
<path style="fill:#03A9F4;" d="M346.073,81.148c-34.412-21.307-65.621-47.395-92.693-77.483c-2.384-2.681-5.932-4.021-9.493-3.584
	c-3.561,0.51-6.625,2.78-8.149,6.037c-13.714,28.683-34.497,53.408-60.395,71.851C84.665,108.276,22.967,192.486,21.401,288.081
	c3.156,126.564,108.093,226.731,234.667,224c126.574,2.731,231.511-97.436,234.667-224
	C489.841,195.859,432.379,113.662,346.073,81.148z"/>
<g>
	<path style="fill:#FAFAFA;" d="M405.401,256.081c-21.111,1.758-40.768,11.464-54.997,27.157
		c-7.893,6.4-17.493,14.123-29.504,22.997c-53.995-51.072-87.701-71.488-118.165-71.488c-65.963,0-96,44.224-96,85.333
		c0,47.128,38.205,85.333,85.333,85.333c39.68,0,102.869-50.005,126.485-69.931c15.851,19.733,50.773,59.264,76.181,59.264
		c33.045,0,53.333-43.477,53.333-74.667C448.068,262.311,418.201,256.081,405.401,256.081z"/>
	<path style="fill:#FAFAFA;" d="M329.476,426.748c0.426,0.031,0.854,0.031,1.28,0c5.433,0.038,10.026-4.013,10.667-9.408
		c1.381-8.381-0.956-16.947-6.4-23.467c-6.663-6.906-16.051-10.494-25.621-9.792c-20.451-1.28-40.01,8.54-51.2,25.707
		c-3.354,4.843-2.148,11.488,2.695,14.842c4.669,3.234,11.053,2.242,14.521-2.256c7.144-11.696,20.343-18.283,33.984-16.96
		c3.374-0.378,6.765,0.553,9.472,2.603c1.278,2.022,1.736,4.457,1.28,6.805c-0.736,5.845,3.405,11.18,9.25,11.916
		C329.427,426.742,329.452,426.745,329.476,426.748z"/>
	<path style="fill:#FAFAFA;" d="M333.849,440.529c-17.067,17.067-87.808,14.464-102.251,0c-4.237-4.093-10.99-3.975-15.083,0.262
		c-3.993,4.134-3.993,10.687,0,14.821c19.994,13.467,43.924,19.844,67.968,18.112c22.95,1.787,45.789-4.632,64.448-18.112
		c4.093-4.237,3.975-10.99-0.262-15.083C344.537,436.537,337.983,436.537,333.849,440.529L333.849,440.529z"/>
</g>
<g>
</g>
<g>
</g>
<g>
</g>
<g>
</g>
<g>
</g>
<g>
</g>
<g>
</g>
<g>
</g>
<g>
</g>
<g>
</g>
<g>
</g>
<g>
</g>
<g>
</g>
<g>
</g>
<g>
</g>
</svg>
