<svg xmlns="http://www.w3.org/2000/svg" width="39.862" height="38.492" viewBox="0 0 39.862 38.492">
  <g id="Cloud-Cloud_Computing-Sent-Transfer-Sharing" data-name="Cloud-Cloud Computing-Sent-Transfer-Sharing" transform="translate(-4.189 -5.576)">
    <path id="Path_20571" data-name="Path 20571" d="M44.051,24.824A8.247,8.247,0,0,1,35.8,33.071H12.437A8.243,8.243,0,0,1,11.186,16.68a9.525,9.525,0,0,1-.124-1.478,9.622,9.622,0,0,1,18.109-4.536,6.193,6.193,0,0,1,8.007,5.91c0,.041-.007.082-.007.124a8.239,8.239,0,0,1,6.88,8.123Z" fill="#6583fe"/>
    <path id="Path_20572" data-name="Path 20572" d="M51.279,33.015a8.247,8.247,0,0,1-8.247,8.247H19.664a8.214,8.214,0,0,1-1.244-.1c5.9-2.653,17.807-8.976,25.168-19.463a6.117,6.117,0,0,1,.818,3.065c0,.041-.007.082-.007.124A8.239,8.239,0,0,1,51.279,33.015Z" transform="translate(-7.228 -8.19)" fill="#fff" opacity="0.26"/>
    <g id="Group_7505" data-name="Group 7505" transform="translate(8.313 40.631)">
      <circle id="Ellipse_354" data-name="Ellipse 354" cx="1.375" cy="1.375" r="1.375" transform="translate(28.865)" fill="#3d9ae2"/>
      <circle id="Ellipse_355" data-name="Ellipse 355" cx="1.375" cy="1.375" r="1.375" transform="translate(14.433)" fill="#3d9ae2"/>
      <circle id="Ellipse_356" data-name="Ellipse 356" cx="1.375" cy="1.375" r="1.375" transform="translate(0)" fill="#3d9ae2"/>
    </g>
    <circle id="Ellipse_357" data-name="Ellipse 357" cx="1.375" cy="1.375" r="1.375" transform="translate(29.618 26.199)" fill="#e6e7e8"/>
    <circle id="Ellipse_358" data-name="Ellipse 358" cx="1.375" cy="1.375" r="1.375" transform="translate(22.746 26.199)" fill="#e6e7e8"/>
    <circle id="Ellipse_359" data-name="Ellipse 359" cx="1.375" cy="1.375" r="1.375" transform="translate(15.873 26.199)" fill="#e6e7e8"/>
    <path id="Path_20573" data-name="Path 20573" d="M66.193,64.752H64.818V62H57.946a.687.687,0,0,1-.687-.687V53.069h1.375v7.56h6.873a.687.687,0,0,1,.687.687Z" transform="translate(-26.953 -24.121)" fill="#96c8ef"/>
    <path id="Path_20574" data-name="Path 20574" d="M15.34,64.752H13.965V61.316a.687.687,0,0,1,.687-.687h6.873v-7.56H22.9v8.247a.687.687,0,0,1-.687.687H15.34Z" transform="translate(-4.965 -24.121)" fill="#96c8ef"/>
    <path id="Path_20575" data-name="Path 20575" d="M43.293,53.069h1.375V64.752H43.293Z" transform="translate(-19.86 -24.121)" fill="#96c8ef"/>
    <path id="Path_20576" data-name="Path 20576" d="M42.562,50.21a2.062,2.062,0,1,1,2.062-2.062A2.062,2.062,0,0,1,42.562,50.21Zm0-2.749a.687.687,0,1,0,.687.687A.687.687,0,0,0,42.562,47.461Z" transform="translate(-18.441 -20.574)" fill="#1a6fb0"/>
    <path id="Path_20577" data-name="Path 20577" d="M56.527,50.21a2.062,2.062,0,1,1,2.062-2.062A2.062,2.062,0,0,1,56.527,50.21Zm0-2.749a.687.687,0,1,0,.687.687A.687.687,0,0,0,56.527,47.461Z" transform="translate(-25.534 -20.574)" fill="#1a6fb0"/>
    <path id="Path_20578" data-name="Path 20578" d="M28.6,50.21a2.062,2.062,0,1,1,2.062-2.062A2.062,2.062,0,0,1,28.6,50.21Zm0-2.749a.687.687,0,1,0,.687.687A.687.687,0,0,0,28.6,47.461Z" transform="translate(-11.349 -20.574)" fill="#1a6fb0"/>
    <path id="Path_20579" data-name="Path 20579" d="M25.116,18.045H23.741a6.88,6.88,0,0,1,6.873-6.873v1.375A5.5,5.5,0,0,0,25.116,18.045Z" transform="translate(-9.93 -2.842)" fill="rgba(255,255,255,0.87)"/>
    <path id="Path_20580" data-name="Path 20580" d="M68.431,50.188V48.813a4.128,4.128,0,0,0,4.124-4.124h1.375a5.5,5.5,0,0,1-5.5,5.5Z" transform="translate(-32.627 -19.865)" fill="rgba(255,255,255,0.87)"/>
    <path id="Path_20581" data-name="Path 20581" d="M13.234,79.537A2.062,2.062,0,1,1,15.3,77.475,2.062,2.062,0,0,1,13.234,79.537Zm0-2.749a.687.687,0,1,0,.687.687A.687.687,0,0,0,13.234,76.788Z" transform="translate(-3.547 -35.469)" fill="#1a6fb0"/>
    <path id="Path_20582" data-name="Path 20582" d="M42.562,79.537a2.062,2.062,0,1,1,2.062-2.062A2.062,2.062,0,0,1,42.562,79.537Zm0-2.749a.687.687,0,1,0,.687.687A.687.687,0,0,0,42.562,76.788Z" transform="translate(-18.441 -35.469)" fill="#1a6fb0"/>
    <path id="Path_20583" data-name="Path 20583" d="M71.889,79.537a2.062,2.062,0,1,1,2.062-2.062A2.062,2.062,0,0,1,71.889,79.537Zm0-2.749a.687.687,0,1,0,.687.687A.687.687,0,0,0,71.889,76.788Z" transform="translate(-33.336 -35.469)" fill="#1a6fb0"/>
  </g>
</svg>
