<svg xmlns="http://www.w3.org/2000/svg" width="43.933" height="43.949" viewBox="0 0 43.933 43.949">
  <g id="sidebar-digital-marketing" transform="translate(-0.076 0)">
    <path id="Path_20594" data-name="Path 20594" d="M25.269,42.995a17.8,17.8,0,1,1,17.8-17.8A17.822,17.822,0,0,1,25.269,42.995Zm0-34.153A16.352,16.352,0,1,0,41.621,25.193,16.37,16.37,0,0,0,25.269,8.841Zm0,0" transform="translate(-3.227 -3.227)" fill="#4554dc"/>
    <path id="Path_20595" data-name="Path 20595" d="M16.493,8.209A8.209,8.209,0,1,1,8.285,0,8.209,8.209,0,0,1,16.493,8.209Zm0,0" transform="translate(0 0)" fill="#64e8ff"/>
    <path id="Path_20596" data-name="Path 20596" d="M13.56,0a8.264,8.264,0,0,0-1.4.119,8.21,8.21,0,0,1,0,16.178A8.209,8.209,0,1,0,13.56,0Zm0,0" transform="translate(-5.275 0)" fill="#0fd9ff"/>
    <path id="Path_20597" data-name="Path 20597" d="M65.328,8.209A8.208,8.208,0,1,1,57.119,0,8.209,8.209,0,0,1,65.328,8.209Zm0,0" transform="translate(-21.319 0)" fill="#6193ff"/>
    <path id="Path_20598" data-name="Path 20598" d="M70.52,7.973A8.215,8.215,0,0,0,60.813.137a8.21,8.21,0,0,1,0,16.142A8.212,8.212,0,0,0,70.52,7.973Zm0,0" transform="translate(-26.514 0)" fill="#407bff"/>
    <path id="Path_20599" data-name="Path 20599" d="M16.493,57.072a8.209,8.209,0,1,1-8.209-8.209A8.209,8.209,0,0,1,16.493,57.072Zm0,0" transform="translate(0 -21.331)" fill="#ff6969"/>
    <path id="Path_20600" data-name="Path 20600" d="M13.212,48.863a8.233,8.233,0,0,0-1.849.209,8.211,8.211,0,0,1,0,16,8.209,8.209,0,1,0,1.849-16.208Zm0,0" transform="translate(-4.927 -21.331)" fill="#ff4848"/>
    <path id="Path_20601" data-name="Path 20601" d="M65.328,57.072a8.208,8.208,0,1,1-8.209-8.209A8.208,8.208,0,0,1,65.328,57.072Zm0,0" transform="translate(-21.319 -21.331)" fill="#ff95c2"/>
    <path id="Path_20602" data-name="Path 20602" d="M62.2,48.863a8.251,8.251,0,0,0-1.655.167,8.21,8.21,0,0,1,0,16.083A8.209,8.209,0,1,0,62.2,48.863Zm0,0" transform="translate(-26.396 -21.331)" fill="#ff758e"/>
    <g id="Group_7506" data-name="Group 7506" transform="translate(3.94 3.006)">
      <path id="Path_20603" data-name="Path 20603" d="M15.157,8.762a4.382,4.382,0,0,1-1,.444A1.8,1.8,0,0,0,11,10.413v.4A4.287,4.287,0,0,1,7.5,9.161a.116.116,0,0,0-.2.033,3.8,3.8,0,0,0,2.088,5.028,4.684,4.684,0,0,1-2.342.8A.117.117,0,0,0,7,15.244c3.531,1.631,7.615-.4,7.615-4.844a1.826,1.826,0,0,0-.032-.334A3.112,3.112,0,0,0,15.327,8.9a.117.117,0,0,0-.17-.14Zm0,0" transform="translate(-6.933 -6.754)" fill="#fff"/>
      <path id="Path_20604" data-name="Path 20604" d="M61.89,15.74a.725.725,0,0,1-.725-.725V7.879a2.546,2.546,0,0,1,2.544-2.544h.858a.725.725,0,1,1,0,1.45h-.858a1.1,1.1,0,0,0-1.094,1.094v7.137a.725.725,0,0,1-.725.725Zm0,0" transform="translate(-30.608 -5.335)" fill="#fff"/>
      <path id="Path_20605" data-name="Path 20605" d="M62.335,14.483h-3.29a.725.725,0,1,1,0-1.45h3.29a.725.725,0,0,1,0,1.45Zm0,0" transform="translate(-29.366 -8.696)" fill="#fff"/>
      <path id="Path_20606" data-name="Path 20606" d="M11.532,61.058V58.451a.249.249,0,0,1,.374-.216l2.257,1.3,2.257,1.3a.25.25,0,0,1,0,.432l-2.257,1.3-2.257,1.3a.249.249,0,0,1-.374-.216Zm0,0" transform="translate(-8.941 -28.414)" fill="#fff"/>
      <path id="Path_20607" data-name="Path 20607" d="M62.673,64.5H56.91a1.88,1.88,0,0,1-1.877-1.877V56.863a1.879,1.879,0,0,1,1.877-1.877h5.763a1.879,1.879,0,0,1,1.877,1.877v5.763A1.88,1.88,0,0,1,62.673,64.5ZM56.91,56.435a.428.428,0,0,0-.428.428v5.763a.428.428,0,0,0,.428.428h5.763a.428.428,0,0,0,.428-.428V56.863a.428.428,0,0,0-.428-.428Zm0,0" transform="translate(-27.931 -27.01)" fill="#fff"/>
      <path id="Path_20608" data-name="Path 20608" d="M61.878,63.9a2.066,2.066,0,1,1,2.066-2.066A2.069,2.069,0,0,1,61.878,63.9Zm0-2.683a.617.617,0,1,0,.617.617A.617.617,0,0,0,61.878,61.214Zm0,0" transform="translate(-30.017 -29.096)" fill="#fff"/>
    </g>
    <g id="Group_7507" data-name="Group 7507" transform="translate(14.429 14.527) rotate(-9)">
      <path id="Path_20609" data-name="Path 20609" d="M1.992,6.679,1.686.8A.844.844,0,0,0,0,.887L.307,6.767a.843.843,0,0,0,.842.8h.044A.843.843,0,0,0,1.992,6.679Zm0,0" transform="translate(1.372 9.088)"/>
      <path id="Path_20610" data-name="Path 20610" d="M4.311,5.608H.776A.776.776,0,0,1,0,4.831V.776A.776.776,0,0,1,.776,0H4.311a.121.121,0,0,1,.121.121V5.487A.121.121,0,0,1,4.311,5.608Zm0,0" transform="translate(0 4.324)" fill="#ff95c2"/>
      <path id="Path_20611" data-name="Path 20611" d="M7.5,11a23.959,23.959,0,0,0-3.92-1.934A23.933,23.933,0,0,0,0,8V3A23.788,23.788,0,0,0,3.6,1.931,23.763,23.763,0,0,0,7.5,0Zm0,0" transform="translate(4.432 1.628)" fill="#4554dc"/>
      <path id="Path_20612" data-name="Path 20612" d="M.844,14.256A.844.844,0,0,1,0,13.412V.844a.844.844,0,0,1,1.688,0V13.412A.844.844,0,0,1,.844,14.256Zm0,0" transform="translate(11.089 0)" fill="#b5b5fc"/>
    </g>
  </g>
</svg>
