<svg xmlns="http://www.w3.org/2000/svg" width="44" height="43.91" viewBox="0 0 44 43.91">
  <g id="big-data" transform="translate(-3 -3)">
    <g id="Group_7504" data-name="Group 7504" transform="translate(5.953 6.059)">
      <path id="Path_20547" data-name="Path 20547" d="M9.7,58.451,8.582,57.328l3.4-3.4V49.5h1.587v4.761a.793.793,0,0,1-.232.561Z" transform="translate(-8.582 -26.372)" fill="#b0afe8"/>
      <path id="Path_20548" data-name="Path 20548" d="M81.719,58.309l-3.486-3.486A.794.794,0,0,1,78,54.261V49.5h1.587v4.433l3.254,3.254Z" transform="translate(-44.978 -26.372)" fill="#b0afe8"/>
      <path id="Path_20549" data-name="Path 20549" d="M79.587,17.627H78V12.865a.793.793,0,0,1,.232-.561l3.521-3.522,1.123,1.123-3.289,3.289Z" transform="translate(-44.978 -8.783)" fill="#b0afe8"/>
      <path id="Path_20550" data-name="Path 20550" d="M13.72,17.687H12.133V13.255L8.911,10.034l1.122-1.122,3.454,3.454a.794.794,0,0,1,.233.561Z" transform="translate(-8.737 -8.843)" fill="#b0afe8"/>
      <path id="Path_20551" data-name="Path 20551" d="M74.464,64.758,72.083,60A.794.794,0,0,1,72,59.642V52.5h1.587v6.955l2.3,4.594Z" transform="translate(-42.152 -27.785)" fill="#b0afe8"/>
      <path id="Path_20552" data-name="Path 20552" d="M18.2,64.632l-1.42-.709,2.234-4.468V52.5H20.6v7.142a.794.794,0,0,1-.083.355Z" transform="translate(-12.441 -27.785)" fill="#b0afe8"/>
    </g>
    <path id="Path_20553" data-name="Path 20553" d="M28.5,75v6.348c0,1.753,4.619,3.174,10.316,3.174S49.133,83.1,49.133,81.348V75" transform="translate(-13.861 -37.612)" fill="#435cd2"/>
    <ellipse id="Ellipse_346" data-name="Ellipse 346" cx="10" cy="3.5" rx="10" ry="3.5" transform="translate(15 34)" fill="#5e87ca"/>
    <path id="Path_20554" data-name="Path 20554" d="M46.5,85.5h1.587v1.587H46.5Z" transform="translate(-22.338 -42.557)" fill="#fff"/>
    <path id="Path_20555" data-name="Path 20555" d="M55.5,84h1.587v1.587H55.5Z" transform="translate(-26.96 -41.851)" fill="#fff"/>
    <path id="Path_20556" data-name="Path 20556" d="M37.5,84h1.587v1.587H37.5Z" transform="translate(-17.717 -41.851)" fill="#fff"/>
    <path id="Path_20557" data-name="Path 20557" d="M16.936,29.982H38.6c4.233-.032,7.7-3.706,7.882-8.353s-2.983-8.635-7.2-9.068c.024-.276.038-.551.038-.832a8.738,8.738,0,0,0-5.112-8.156,7.466,7.466,0,0,0-8.755,2.354,7.293,7.293,0,0,0-6.8.671,8.769,8.769,0,0,0-3.8,6.233c-3.85,1.136-6.337,5.232-5.813,9.573s3.9,7.584,7.883,7.577Z" transform="translate(-2.818 -0.001)" fill="#486cff"/>
    <path id="Path_20558" data-name="Path 20558" d="M33.734,14.663c.027-.317.042-.646.042-.975,0-4.437-2.462-8.369-6.1-9.738a7.593,7.593,0,0,0-3.107,2.424,6.583,6.583,0,0,0-6.432.671,8.852,8.852,0,0,0-3.591,6.233c-3.643,1.136-6,5.232-5.5,9.573s3.687,7.584,7.459,7.577h20.5A6.733,6.733,0,0,0,41,29.088a11.684,11.684,0,0,0-.409-9.4,8.783,8.783,0,0,0-6.855-5.024Z" transform="translate(-2.818 -0.447)" fill="#6583fe"/>
    <path id="Path_20559" data-name="Path 20559" d="M28.5,54v6.348c0,1.753,4.619,3.174,10.316,3.174S49.133,62.1,49.133,60.348V54" transform="translate(-13.861 -26.642)" fill="#435cd2"/>
    <ellipse id="Ellipse_347" data-name="Ellipse 347" cx="10.316" cy="3.174" rx="10.316" ry="3.174" transform="translate(14.639 24.67)" fill="#78a0d4"/>
    <path id="Path_20560" data-name="Path 20560" d="M46.5,64.5h1.587v1.587H46.5Z" transform="translate(-22.338 -31.582)" fill="#fff"/>
    <path id="Path_20561" data-name="Path 20561" d="M55.5,63h1.587v1.587H55.5Z" transform="translate(-26.96 -30.812)" fill="#fff"/>
    <path id="Path_20562" data-name="Path 20562" d="M37.5,63h1.587v1.587H37.5Z" transform="translate(-17.717 -30.812)" fill="#fff"/>
    <path id="Path_20563" data-name="Path 20563" d="M39.348,18V30.7L33,25.936h3.174V18Z" transform="translate(-15.553 -7.906)" fill="#fff"/>
    <path id="Path_20564" data-name="Path 20564" d="M51,30.7V18l6.348,4.761H54.174V30.7Z" transform="translate(-24.885 -7.906)" fill="#fff"/>
    <circle id="Ellipse_348" data-name="Ellipse 348" cx="2.381" cy="2.381" r="2.381" transform="translate(3 31.999)" fill="#b52f28"/>
    <circle id="Ellipse_349" data-name="Ellipse 349" cx="2.381" cy="2.381" r="2.381" transform="translate(42.149 31.999)" fill="#f0ae42"/>
    <circle id="Ellipse_350" data-name="Ellipse 350" cx="2.381" cy="2.381" r="2.381" transform="translate(37.388 36.594)" fill="#b52f28"/>
    <circle id="Ellipse_351" data-name="Ellipse 351" cx="2.5" cy="2.5" r="2.5" transform="translate(42 3)" fill="#f0ae42"/>
    <path id="Path_20565" data-name="Path 20565" d="M84,5.381a2.371,2.371,0,0,0,.972,1.91,2.351,2.351,0,0,0,.615.09A2.374,2.374,0,0,0,87,3.09,2.351,2.351,0,0,0,86.381,3,2.381,2.381,0,0,0,84,5.381Z" transform="translate(-41.851 0)" fill="#f9d266"/>
    <circle id="Ellipse_352" data-name="Ellipse 352" cx="2.5" cy="2.5" r="2.5" transform="translate(3 3)" fill="#f0ae42"/>
    <circle id="Ellipse_353" data-name="Ellipse 353" cx="2.381" cy="2.381" r="2.381" transform="translate(7.761 36.594)" fill="#f0ae42"/>
    <path id="Path_20566" data-name="Path 20566" d="M3,5.381a2.371,2.371,0,0,0,.972,1.91,2.351,2.351,0,0,0,.615.09A2.374,2.374,0,0,0,6,3.09,2.351,2.351,0,0,0,5.381,3,2.381,2.381,0,0,0,3,5.381Z" transform="translate(0 0)" fill="#f9d266"/>
    <path id="Path_20567" data-name="Path 20567" d="M3,65.381a2.371,2.371,0,0,0,.972,1.91,2.35,2.35,0,0,0,.615.09A2.374,2.374,0,0,0,6,63.09,2.351,2.351,0,0,0,5.381,63,2.381,2.381,0,0,0,3,65.381Z" transform="translate(0 -30.977)" fill="#d23f34"/>
    <path id="Path_20568" data-name="Path 20568" d="M12,75.881a2.371,2.371,0,0,0,.972,1.91,2.35,2.35,0,0,0,.615.09A2.374,2.374,0,0,0,15,73.59a2.351,2.351,0,0,0-.615-.09A2.381,2.381,0,0,0,12,75.881Z" transform="translate(-4.239 -36.906)" fill="#f9d266"/>
    <path id="Path_20569" data-name="Path 20569" d="M75,75.881a1.565,1.565,0,0,0,1.587,2,2.259,2.259,0,1,0,.794-4.381A2.381,2.381,0,0,0,75,75.881Z" transform="translate(-37.612 -36.906)" fill="#d23f34"/>
    <path id="Path_20570" data-name="Path 20570" d="M84,65.381A2.349,2.349,0,1,0,86.381,63,2.371,2.371,0,0,0,84,65.381Z" transform="translate(-41.851 -30.977)" fill="#f9d266"/>
  </g>
</svg>
