<svg id="iot" xmlns="http://www.w3.org/2000/svg" width="38.398" height="38.398" viewBox="0 0 38.398 38.398">
  <path id="Path_20584" data-name="Path 20584" d="M12.783,13.007a1.121,1.121,0,0,1-.8-.329L8.73,9.419a1.125,1.125,0,0,1,1.591-1.591l2.49,2.49a15.624,15.624,0,0,1,10.308-3.85,1.125,1.125,0,1,1,0,2.25,13.407,13.407,0,0,0-9.541,3.959,1.121,1.121,0,0,1-.8.33Z" transform="translate(-3.921 -3.019)" fill="#61729b"/>
  <path id="Path_20585" data-name="Path 20585" d="M8.61,49.748a1.125,1.125,0,0,1-.8-1.92l2.5-2.5a15.623,15.623,0,0,1-3.85-10.308,1.125,1.125,0,0,1,2.25,0,13.408,13.408,0,0,0,3.959,9.541,1.125,1.125,0,0,1,0,1.591L9.405,49.419A1.121,1.121,0,0,1,8.61,49.748Z" transform="translate(-3.019 -15.817)" fill="#61729b"/>
  <path id="Path_20586" data-name="Path 20586" d="M35.016,59.81a1.125,1.125,0,0,1,0-2.25A13.408,13.408,0,0,0,44.556,53.6a1.125,1.125,0,0,1,1.591,0L49.4,56.859a1.125,1.125,0,1,1-1.591,1.591l-2.49-2.49A15.624,15.624,0,0,1,35.016,59.81Z" transform="translate(-15.817 -24.862)" fill="#47568c"/>
  <path id="Path_20587" data-name="Path 20587" d="M58.685,24.242a1.125,1.125,0,0,1-1.125-1.125A13.408,13.408,0,0,0,53.6,13.577a1.125,1.125,0,0,1,0-1.591l3.261-3.261a1.125,1.125,0,0,1,1.591,1.591L55.96,12.809a15.625,15.625,0,0,1,3.85,10.308A1.125,1.125,0,0,1,58.685,24.242Z" transform="translate(-24.862 -3.918)" fill="#47568c"/>
  <circle id="Ellipse_360" data-name="Ellipse 360" cx="3.75" cy="3.75" r="3.75" fill="#a5e887"/>
  <circle id="Ellipse_361" data-name="Ellipse 361" cx="3.75" cy="3.75" r="3.75" transform="translate(30.898)" fill="#00cc76"/>
  <circle id="Ellipse_362" data-name="Ellipse 362" cx="3.75" cy="3.75" r="3.75" transform="translate(0 30.898)" fill="#a5e887"/>
  <circle id="Ellipse_363" data-name="Ellipse 363" cx="3.75" cy="3.75" r="3.75" transform="translate(30.898 30.898)" fill="#00cc76"/>
  <path id="Path_20588" data-name="Path 20588" d="M26.2,14.906a7.183,7.183,0,0,0-2.2.937s-1.375-.352-1.431-.335a11.279,11.279,0,0,0-7.559,9.522s.638.745.638,1.125-.638,1.125-.638,1.125A11.279,11.279,0,0,0,22.57,36.8l1.445-.16A6.944,6.944,0,0,0,26.2,37.4a6.623,6.623,0,0,0,2.108-.747l1.526.144a11.279,11.279,0,0,0,7.56-9.522s-.807-.745-.807-1.125.807-1.125.807-1.125a11.278,11.278,0,0,0-7.559-9.522l-1.384.2A6.842,6.842,0,0,0,26.2,14.906Z" transform="translate(-7.006 -6.957)" fill="#6583fe"/>
  <path id="Path_20589" data-name="Path 20589" d="M46.387,26.156c0-.38.807-1.125.807-1.125a11.278,11.278,0,0,0-7.559-9.522l-1.384.2A6.842,6.842,0,0,0,36,14.906V37.4a6.623,6.623,0,0,0,2.108-.747l1.526.144a11.279,11.279,0,0,0,7.56-9.522S46.387,26.535,46.387,26.156Z" transform="translate(-16.801 -6.957)" fill="rgba(255,255,255,0.17)"/>
  <path id="Path_20590" data-name="Path 20590" d="M14.906,35.016q0,.57.056,1.125H37.349q.055-.555.056-1.125t-.056-1.125H14.962q-.055.555-.056,1.125Z" transform="translate(-6.957 -15.817)" fill="#d5e8fe"/>
  <path id="Path_20591" data-name="Path 20591" d="M47.193,33.891H36v2.25H47.193q.055-.555.056-1.125T47.193,33.891Z" transform="translate(-16.801 -15.817)" fill="#b5dbff"/>
  <path id="Path_20592" data-name="Path 20592" d="M38.123,17.712a25.867,25.867,0,0,1,1.251,8.443A25.867,25.867,0,0,1,38.123,34.6C37.4,36.61,36.534,37.4,36,37.4a11.2,11.2,0,0,0,3.634-.6c1.315-2.624,1.991-6.65,1.991-10.647s-.675-8.023-1.991-10.647a11.2,11.2,0,0,0-3.634-.6C36.534,14.906,37.4,15.7,38.123,17.712Z" transform="translate(-16.801 -6.957)" fill="#d5e8fe"/>
  <path id="Path_20593" data-name="Path 20593" d="M28.954,34.6A25.867,25.867,0,0,1,27.7,26.156a25.866,25.866,0,0,1,1.251-8.443c.725-2.012,1.589-2.806,2.124-2.806a11.2,11.2,0,0,0-3.634.6c-1.315,2.624-1.991,6.65-1.991,10.647s.675,8.023,1.991,10.647a11.2,11.2,0,0,0,3.634.6C30.543,37.4,29.679,36.61,28.954,34.6Z" transform="translate(-11.879 -6.957)" fill="#edf5ff"/>
</svg>
