<svg xmlns="http://www.w3.org/2000/svg" width="37.002" height="37.001" viewBox="0 0 37.002 37.001">
  <g id="web-design_4_" data-name="web-design (4)" transform="translate(-53.339 -51.33)">
    <path id="Path_52275" data-name="Path 52275" d="M56.7,51.33H86.976a3.356,3.356,0,0,1,3.364,3.352V81.47a3.356,3.356,0,0,1-3.364,3.349H56.7A3.356,3.356,0,0,1,53.34,81.47V54.682A3.356,3.356,0,0,1,56.7,51.33Z" fill="#fff"/>
    <path id="Path_52276" data-name="Path 52276" d="M55.022,58.03H88.657a1.721,1.721,0,0,1,1.683,1.76h0a1.721,1.721,0,0,1-1.682,1.757H55.022A1.721,1.721,0,0,1,53.34,59.79h0a1.721,1.721,0,0,1,1.682-1.76Z" fill="#486cff"/>
    <path id="Path_52277" data-name="Path 52277" d="M56.7,51.33H86.976a3.442,3.442,0,0,1,3.364,3.518h0v5.271h-37V54.848A3.442,3.442,0,0,1,56.7,51.33Z" fill="#6583fe"/>
    <path id="Path_52278" data-name="Path 52278" d="M56.771,51.33H86.908a1.717,1.717,0,0,1,1.674,1.76h0a1.717,1.717,0,0,1-1.674,1.757H56.771A1.717,1.717,0,0,1,55.1,53.09h0A1.717,1.717,0,0,1,56.771,51.33Z" fill="#6583fe"/>
    <path id="Path_52279" data-name="Path 52279" d="M55.934,58.046H87.745a.859.859,0,0,1,.837.879h0a.859.859,0,0,1-.837.879H55.934a.859.859,0,0,1-.837-.879h0a.859.859,0,0,1,.837-.879Z" fill="#6583fe"/>
    <path id="Path_52280" data-name="Path 52280" d="M89.46,61.974a.879.879,0,0,0-.879.879h0V81.3a1.757,1.757,0,0,1-1.757,1.757H77.159a.879.879,0,0,0,0,1.757h9.665A3.515,3.515,0,0,0,90.338,81.3V62.853a.879.879,0,0,0-.879-.879h0Z" fill="#6583fe"/>
    <path id="Path_52281" data-name="Path 52281" d="M54.219,66h0a.879.879,0,0,1,.879.879V80.936a.879.879,0,0,1-.879.879h0a.879.879,0,0,1-.879-.879V66.878A.879.879,0,0,1,54.219,66Z" fill="#6583fe"/>
    <circle id="Ellipse_589" data-name="Ellipse 589" cx="0.879" cy="0.879" r="0.879" transform="translate(56.855 54.848)" fill="#f7b236"/>
    <circle id="Ellipse_590" data-name="Ellipse 590" cx="0.879" cy="0.879" r="0.879" transform="translate(60.053 54.848)" fill="#b39ddd"/>
    <circle id="Ellipse_591" data-name="Ellipse 591" cx="0.879" cy="0.879" r="0.879" transform="translate(63.409 54.848)" fill="#d80e70"/>
    <g id="Group_65459" data-name="Group 65459" opacity="0.55">
      <path id="Path_52282" data-name="Path 52282" d="M85.071,74.879H67.495a1.757,1.757,0,0,1-1.757-1.757V64.338A1.757,1.757,0,0,1,67.5,62.581H85.071a1.757,1.757,0,0,1,1.757,1.757v8.786A1.757,1.757,0,0,1,85.071,74.879Z" fill="#6583fe"/>
      <path id="Path_52283" data-name="Path 52283" d="M62.127,69.607H58.612a1.757,1.757,0,0,1-1.757-1.757V64.338a1.757,1.757,0,0,1,1.757-1.757h3.514a1.757,1.757,0,0,1,1.762,1.757v3.514a1.757,1.757,0,0,1-1.761,1.755Z" fill="#6583fe"/>
      <path id="Path_52284" data-name="Path 52284" d="M62.127,81.909H58.612a1.757,1.757,0,0,1-1.757-1.757V76.638a1.757,1.757,0,0,1,1.757-1.757h3.514a1.757,1.757,0,0,1,1.757,1.757v3.514a1.757,1.757,0,0,1-1.756,1.757Z" fill="#6583fe"/>
      <path id="Path_52285" data-name="Path 52285" d="M67.566,76.635h5.271a.879.879,0,0,1,.879.879h0a.879.879,0,0,1-.879.879H67.566a.879.879,0,0,1-.879-.879h0a.879.879,0,0,1,.879-.879Z" fill="#6583fe"/>
      <path id="Path_52286" data-name="Path 52286" d="M84.19,76.635h1.757a.879.879,0,0,1,.879.879h0a.879.879,0,0,1-.879.879H84.19a.879.879,0,0,1-.879-.879h0A.879.879,0,0,1,84.19,76.635Z" fill="#6583fe"/>
      <path id="Path_52287" data-name="Path 52287" d="M75.76,76.635h5.271a.879.879,0,0,1,.879.879h0a.879.879,0,0,1-.879.879H75.76a.879.879,0,0,1-.879-.879h0a.879.879,0,0,1,.879-.879Z" fill="#6583fe"/>
      <path id="Path_52288" data-name="Path 52288" d="M67.511,80.15H74.54a.879.879,0,0,1,.879.879h0a.879.879,0,0,1-.879.879H67.511a.879.879,0,0,1-.879-.879h0a.879.879,0,0,1,.879-.879Z" fill="#6583fe"/>
      <path id="Path_52289" data-name="Path 52289" d="M77.576,80.15H79.33a.879.879,0,0,1,.879.879h0a.879.879,0,0,1-.879.879H77.573a.879.879,0,0,1-.879-.879h0a.879.879,0,0,1,.882-.879Z" fill="#6583fe"/>
      <path id="Path_52290" data-name="Path 52290" d="M63.005,73.121H57.734a.879.879,0,0,1-.879-.879h0a.879.879,0,0,1,.879-.879h5.271a.879.879,0,0,1,.879.879h0a.879.879,0,0,1-.879.879Z" fill="#6583fe"/>
    </g>
    <path id="Path_52291" data-name="Path 52291" d="M72.67,76.029H70.912a8.786,8.786,0,0,0-8.786,8.786h0v.047a1.766,1.766,0,0,1-1.8,1.711h-.835a.879.879,0,1,0,0,1.757h6.15a8.786,8.786,0,0,0,8.786-8.786V76.029Z" fill="#aabafe"/>
    <path id="Path_52292" data-name="Path 52292" d="M74.427,79.547V76.029H72.67a8.786,8.786,0,0,1-8.786,8.786H62.127v.047a1.766,1.766,0,0,1-1.8,1.711h-.835a.879.879,0,1,0,0,1.757h6.15a8.786,8.786,0,0,0,8.786-8.786Z" fill="#6583fe"/>
    <path id="Path_52293" data-name="Path 52293" d="M89.751,60.016a2.01,2.01,0,0,0-2.057-.486h0A25.359,25.359,0,0,0,73.46,72.1l-.693,1.386V77h3.515l1.385-.693a25.36,25.36,0,0,0,12.57-14.234h0a2.01,2.01,0,0,0-.486-2.057Z" fill="#aabafe"/>
    <ellipse id="Ellipse_592" data-name="Ellipse 592" cx="1.757" cy="4.675" rx="1.757" ry="4.675" transform="translate(78.069 72.724) rotate(-135)" fill="#f0eaf9"/>
    <path id="Path_52294" data-name="Path 52294" d="M87.693,59.531c-.3.107-.593.246-.892.364A15.872,15.872,0,0,1,72.767,75.2V77h3.515l1.385-.693a25.36,25.36,0,0,0,12.57-14.234,2.011,2.011,0,0,0-2.543-2.543Z" fill="#6483fd"/>
    <path id="Path_52295" data-name="Path 52295" d="M71.709,76.557l1.757,1.757,3.515-1.757-3.515-3.514-1.757,3.514Z" fill="#8bc4ff"/>
    <path id="Path_52296" data-name="Path 52296" d="M72.65,77.487l.807.807,3.514-1.757-1.686-1.686a1.864,1.864,0,0,0-2.985.484h0a1.864,1.864,0,0,0,.349,2.151h0Z" fill="#8bc4ff"/>
    <ellipse id="Ellipse_593" data-name="Ellipse 593" cx="1.369" cy="3.496" rx="1.369" ry="3.496" transform="translate(64.557 83.892) rotate(-135)" fill="#fff"/>
  </g>
</svg>
