<?xml version="1.0" encoding="utf-8"?>
<!-- Generator: Adobe Illustrator 22.0.1, SVG Export Plug-In . SVG Version: 6.00 Build 0)  -->
<svg version="1.1" id="Layer_1" xmlns="http://www.w3.org/2000/svg" xmlns:xlink="http://www.w3.org/1999/xlink" x="0px" y="0px"  width="600" height="500"
	 viewBox="0 0 600 500" style="enable-background:new 0 0 600 500;" xml:space="preserve">
<style type="text/css">
	.st0{fill:#FF6726;}
	.st1{opacity:0.7;fill:#FFFFFF;enable-background:new    ;}
	.st2{fill:#FFEFEC;enable-background:new    ;}
	.st3{opacity:0.5;fill:#FFFFFF;enable-background:new    ;}
	.st4{fill:#FFEFEC;}
	.st5{fill:#FFFFFF;stroke:#263238;stroke-linecap:round;stroke-linejoin:round;}
	.st6{clip-path:url(#SVGID_2_);}
	.st7{opacity:0.5;fill:#FFFFFF;stroke:#263238;stroke-miterlimit:10;enable-background:new    ;}
	.st8{fill:none;stroke:#263238;stroke-linecap:round;stroke-linejoin:round;}
	.st9{fill:#FF6726;stroke:#263238;stroke-linecap:round;stroke-linejoin:round;}
	.st10{fill:#263238;stroke:#263238;stroke-linecap:round;stroke-linejoin:round;}
	.st11{clip-path:url(#SVGID_4_);}
	.st12{opacity:0.2;enable-background:new    ;}
	.st13{fill:#4C9B00;stroke:#263238;stroke-linecap:round;stroke-linejoin:round;}
	.st14{fill:none;stroke:#263238;stroke-width:0.5;stroke-linecap:round;stroke-linejoin:round;}
	.st15{fill:#FFC7B3;stroke:#263238;stroke-linecap:round;stroke-linejoin:round;}
	.st16{fill:#263238;}
	.st17{fill:#FFFFFF;}
	.st18{fill:#161616;stroke:#263238;stroke-linecap:round;stroke-linejoin:round;}
	.st19{fill:#9FF4FF;stroke:#263238;stroke-linecap:round;stroke-linejoin:round;}
	.st20{opacity:0.6;fill:#FFFFFF;enable-background:new    ;}
	.st21{fill:none;stroke:#263238;stroke-miterlimit:10;}
	.st22{opacity:0.5;}
	.st23{fill:#FFFFFF;stroke:#263238;stroke-miterlimit:10;}
	.st24{fill:none;stroke:#FFFFFF;stroke-width:0.5;stroke-linecap:round;stroke-linejoin:round;}
	.st25{fill:#083E4F;stroke:#263238;stroke-linecap:round;stroke-linejoin:round;}
	.st26{fill:none;stroke:#FFFFFF;stroke-miterlimit:10;}
	.st27{clip-path:url(#SVGID_6_);}
	.st28{opacity:0.5;fill:#FF6726;enable-background:new    ;}
	.st29{clip-path:url(#SVGID_8_);}
	.st30{clip-path:url(#SVGID_10_);}
	.st31{clip-path:url(#SVGID_12_);}
	.st32{fill:#1C3742;}
</style>
<g id="freepik--background-simple--inject-1--inject-74">
	<path class="st0" d="M526.3,415.2c0,0,65.7-57.7,65.7-133.8s-42.7-76.1-79.6-174.2C475.5,9.3,370.5-3.4,307.1,27.7
		c-53.8,26.4-69.2,106.1-115.3,121.1s-50.7-21.9-124.6-2.3S31.5,273.4,31.5,273.4l143.1-43.8L526.3,415.2z"/>
	<path class="st1" d="M526.3,415.2c0,0,65.7-57.7,65.7-133.8s-42.7-76.1-79.6-174.2C475.5,9.3,370.5-3.4,307.1,27.7
		c-53.8,26.4-69.2,106.1-115.3,121.1s-50.7-21.9-124.6-2.3S31.5,273.4,31.5,273.4l143.1-43.8L526.3,415.2z"/>
</g>
<polyline class="st0" points="271.3,415 171.9,454.8 56.7,339.5 132.2,328.6 271.3,415 "/>
<polyline class="st2" points="271.3,415 171.9,454.8 56.7,339.5 132.2,328.6 271.3,415 "/>
<ellipse class="st0" cx="393.5" cy="451.8" rx="23.8" ry="15.9"/>
<ellipse class="st2" cx="393.5" cy="451.8" rx="23.8" ry="15.9"/>
<polyline class="st0" points="300.1,361.5 445.7,373 413.4,356.4 300.1,361.5 "/>
<polyline class="st3" points="300.1,361.5 445.7,373 413.4,356.4 300.1,361.5 "/>
<polyline class="st0" points="332.9,316.7 289.7,313.1 295.1,306.7 320,306.7 332.9,316.7 "/>
<polyline class="st3" points="332.9,316.7 289.7,313.1 295.1,306.7 320,306.7 332.9,316.7 "/>
<ellipse class="st4" cx="473" cy="470.7" rx="30.3" ry="18.4"/>
<ellipse class="st2" cx="473" cy="468.7" rx="30.3" ry="16.3"/>
<g id="freepik--Post-it--inject-1--inject-74">
	<polygon class="st5" points="293.4,428 277.1,454.8 313.2,461.8 327.2,435 	"/>
	<polygon class="st0" points="321.4,397.7 305.1,422.2 338.9,432.7 352.9,408.2 	"/>
	<g>
		<g>
			<defs>
				<polygon id="SVGID_1_" points="321.4,397.7 305.1,422.2 338.9,432.7 352.9,408.2 				"/>
			</defs>
			<clipPath id="SVGID_2_">
				<use xlink:href="#SVGID_1_"  style="overflow:visible;"/>
			</clipPath>
			<g class="st6">
				<polygon class="st7" points="321.4,397.7 305.1,422.2 338.9,432.7 352.9,408.2 				"/>
			</g>
		</g>
	</g>
	<polygon class="st8" points="321.4,397.7 305.1,422.2 338.9,432.7 352.9,408.2 	"/>
	<polygon class="st9" points="357.5,444.3 328.4,452.5 340,471.1 373.9,463 	"/>
</g>
<path class="st9" d="M440.7,439.6l3,22.6c0,9.4,11.4,17,25.5,17s25.5-7.6,25.5-17l3.1-22.6H440.7z"/>
<ellipse class="st9" cx="469.2" cy="439.6" rx="28.5" ry="19"/>
<ellipse class="st9" cx="469.2" cy="439.6" rx="24.3" ry="16.2"/>
<ellipse class="st10" cx="469.2" cy="442.5" rx="23.9" ry="13.3"/>
<path class="st0" d="M477.8,396.1c-4.1-2.7-10.4-2.4-13,2.5c-3.7,7.2-1.1,20.5-2.4,22.4s-5.3,2.4-7.2-1.6c-1.9-4-1.9-9.3-4.3-9.6
	c-2.4-0.3-5.6,0.8-6.1,6.9s0.5,13,4.8,16.2s9,2.1,10.4,3.5c1.4,1.3,0,3.4,0,4.8c0,6,7.8,8.9,12.7,7.5c7.2-2.1,6.4-9.3,7.5-12.3
	c1.1-2.9,6.9-3.2,9.1-7.7c2.1-4.5,5.3-13.6,0.8-17c-4.5-3.5-8-1.9-8.5,1.9c-0.6,3-1.6,5.8-3,8.5
	C481.8,415.7,484.9,400.7,477.8,396.1z"/>
<g>
	<g>
		<defs>
			<path id="SVGID_3_" d="M477.8,396.1c-4.1-2.7-10.4-2.4-13,2.5c-3.7,7.2-1.1,20.5-2.4,22.4s-5.3,2.4-7.2-1.6
				c-1.9-4-1.9-9.3-4.3-9.6c-2.4-0.3-5.6,0.8-6.1,6.9s0.5,13,4.8,16.2s9,2.1,10.4,3.5c1.4,1.3,0,3.4,0,4.8c0,6,7.8,8.9,12.7,7.5
				c7.2-2.1,6.4-9.3,7.5-12.3c1.1-2.9,6.9-3.2,9.1-7.7c2.1-4.5,5.3-13.6,0.8-17c-4.5-3.5-8-1.9-8.5,1.9c-0.6,3-1.6,5.8-3,8.5
				C481.8,415.7,484.9,400.7,477.8,396.1z"/>
		</defs>
		<clipPath id="SVGID_4_">
			<use xlink:href="#SVGID_3_"  style="overflow:visible;"/>
		</clipPath>
		<g class="st11">
			<path class="st12" d="M477.8,396.1c-4.1-2.7-10.4-2.4-13,2.5c-3.7,7.2-1.1,20.5-2.4,22.4s-5.3,2.4-7.2-1.6
				c-1.9-4-1.9-9.3-4.3-9.6c-2.4-0.3-5.6,0.8-6.1,6.9s0.5,13,4.8,16.2s9,2.1,10.4,3.5c1.4,1.3,0,3.4,0,4.8c0,6,7.8,8.9,12.7,7.5
				c7.2-2.1,6.4-9.3,7.5-12.3c1.1-2.9,6.9-3.2,9.1-7.7c2.1-4.5,5.3-13.6,0.8-17c-4.5-3.5-8-1.9-8.5,1.9c-0.6,3-1.6,5.8-3,8.5
				C481.8,415.7,484.9,400.7,477.8,396.1z"/>
		</g>
	</g>
</g>
<path class="st13" d="M477.8,396.1c-4.1-2.7-10.4-2.4-13,2.5c-3.7,7.2-1.1,20.5-2.4,22.4s-5.3,2.4-7.2-1.6c-1.9-4-1.9-9.3-4.3-9.6
	c-2.4-0.3-5.6,0.8-6.1,6.9s0.5,13,4.8,16.2s9,2.1,10.4,3.5c1.4,1.3,0,3.4,0,4.8c0,6,7.8,8.9,12.7,7.5c7.2-2.1,6.4-9.3,7.5-12.3
	c1.1-2.9,6.9-3.2,9.1-7.7c2.1-4.5,5.3-13.6,0.8-17c-4.5-3.5-8-1.9-8.5,1.9c-0.6,3-1.6,5.8-3,8.5
	C481.8,415.7,484.9,400.7,477.8,396.1z"/>
<path class="st14" d="M471.2,398.1c-2.4,1.6-4,4.3-4.3,7.2c-0.3,4.8,0,20-1.9,22.1s-8,1.6-11.9-2.1s-2.2-11.7-2.2-11.7"/>
<path class="st14" d="M452.2,429.9c1.4,1.1,3,1.8,4.7,2.2c4.8,1.1,8.3-1.3,9.1,1.1c0.8,2.4-0.8,10.9-0.8,10.9"/>
<path class="st14" d="M449.4,427.1c0.5,0.7,1.1,1.3,1.7,1.9"/>
<path class="st14" d="M471.1,439.8c0.3-4,0.3-8,0.1-11.9c-0.5-6,2.3-17,3-22"/>
<path class="st14" d="M470.7,446c0,0,0.1-1.6,0.3-4"/>
<path class="st14" d="M489.1,419.3c0.1-1.3,0.2-2.1,0.2-2.1"/>
<path class="st14" d="M476.5,441.2c0,0,1.1-8.8,3.2-10.4c2.1-1.7,8.2-2.7,8.8-6.7c0.1-0.6,0.2-1.2,0.2-1.8"/>
<path class="st14" d="M485.6,413.8c-1.1,0.8-1.8,2.1-1.6,3.5c0.2,3.3-1.4,6.4-4.2,8"/>
<path class="st14" d="M474.5,402.8c0.1-1.5,0-3-0.1-4.5"/>
<g id="freepik--Cup--inject-1--inject-74">
	<path class="st5" d="M373,396.9l3.9,41.6v4.4c0,6,8.4,10.7,18.7,10.7s18.7-4.8,18.7-10.7v-4.4l3.6-42L373,396.9z"/>
	<path class="st15" d="M414.6,436.3l2.1-24.2c-2.8,4.3-11.1,7.5-20.9,7.5c-10.4,0-19-3.5-21.3-8.2l2.4,24.8c3.8,3.2,10.9,5.3,19,5.3
		C403.8,441.4,410.8,439.4,414.6,436.3z"/>
	<polygon class="st5" points="373.8,404.8 373.8,404.5 373.6,402.8 	"/>
	<path class="st9" d="M418.7,390.8c-4-5-12.8-8.5-23-8.5s-19.1,3.5-23,8.5h-2.3v6c0,8,11.3,14.5,25.3,14.5s25.3-6.5,25.3-14.5v-6
		H418.7z"/>
	<path class="st12" d="M418.7,390.8c-4-5-12.8-8.5-23-8.5s-19.1,3.5-23,8.5h-2.3v6c0,8,11.3,14.5,25.3,14.5s25.3-6.5,25.3-14.5v-6
		H418.7z"/>
	<ellipse class="st5" cx="395.7" cy="390.8" rx="25.3" ry="14.5"/>
	<path class="st9" d="M415.8,382.7c-3.5-4.4-11.2-7.5-20.1-7.5c-9,0-16.6,3.1-20.1,7.5h-1.9v5.2c0,7,9.9,12.6,22.1,12.6
		s22.1-5.6,22.1-12.6v-5.2H415.8z"/>
	<ellipse class="st5" cx="395.7" cy="382.7" rx="22.1" ry="12.6"/>
</g>
<path class="st5" d="M172.8,260.1c0,0,1.7-1.1,12.7,3.5s15.3,3.6,25.9,1.7c12.8-2.2,23.5-4.5,24.7,0.7c2.2,8.9-6.8,8.8-22.9,10.6
	s-25.5-3.2-30.7-5.5c-2.4-1-4.7-2.1-6.9-3.5L172.8,260.1z"/>
<path class="st5" d="M148,264.7c0,0,14.4,16.7,20.8,12.1c6.3-4.6,5.8-19.6,0-24.2C162.9,248,146.8,256.7,148,264.7z"/>
<path class="st5" d="M191.8,218.6c0,0,0.6,15.6-3.5,25.9c-4,10.4-11.5,17.3-12.7,23.1c-1.1,5.8-0.6,13.8-6.3,16.2
	c-5.8,2.3-5.8-1.7-5.2-6.3c0.6-4.6,1.7-21.9,1.7-21.9l-19,11.4c0,0,5.2,14.4-5.8,16.2c-11,1.7-24.2-15-25.9-27.6s5.2-41,17.3-48.5
	s27.7-6.3,35.8-6.3S188.3,206.5,191.8,218.6z"/>
<path class="st16" d="M145.8,202.6c0,0-3,1.5-8.2,9.7s5.2,15.2,10.8,11.5s0.7-11.5,4.8-15.2c2.4-2,3.9-4.8,4.5-7.8L145.8,202.6z"/>
<path class="st16" d="M129.1,214.1c-2.7,1.9-4.5,4.9-4.8,8.2c-0.4,5.2,8.9-4.5,10-8.9C135.4,208.9,129.1,214.1,129.1,214.1z"/>
<path class="st9" d="M162.4,202.5c-2.7,4.9-2.5,10.9,0.6,15.6c5.2,8.1,16.7,11.5,21.3,5.8c4.6-5.8,6.3-8.6,4.6-11.5
	C187.2,209.4,170.5,197.8,162.4,202.5z"/>
<path class="st5" d="M205,174.2c-4.4,0.5-8.8-1-12.1-4c-5.8-5.2-11-16.7-13.3-16.2c-2.3,0.6-10.4,17.3-10.4,17.3s-13.8,1.2-15,5.2
	c-1.1,4,5.2,23.1,10.4,31.1c5,7.3,13.1,11.8,21.9,12.1c6.9,0,27.7,1.7,30.6-5.2s0.6-27.7,0.6-27.7s9.2-9.2,5.2-11
	C218.9,174.2,205,174.2,205,174.2z"/>
<path class="st16" d="M202.2,203c-0.7-0.9-1.4-1.8-2-2.8c-1.1-1.6-3.7-4.1-8.6-2.5c-7.1,2.2-11.9,8.9-4.1,14.5
	C194.9,217.5,209.7,212.8,202.2,203z"/>
<path class="st16" d="M163.4,195.3c0.7,0.9,1.5,1.8,2.1,2.7c1.2,1.6,3.8,4,8.7,2.2c7-2.4,11.6-9.3,3.6-14.6
	C170.2,180.6,155.6,185.8,163.4,195.3z"/>
<path class="st5" d="M169.3,171.3c0,0,8.1,4.6,12.7,2.9c4.6-1.7,1.7-21.3-2.3-20.2S168.7,163.8,169.3,171.3z"/>
<path class="st5" d="M222.9,175.9c0,0-7.5-0.6-12.1,4.6c-4.7,5.2-1.7,10.4,4.6,11.5C221.8,193.2,225.2,175.9,222.9,175.9z"/>
<path class="st9" d="M178,208.2c0,0-7.5-5.8-5.8-1.2s4.6,5.2,7.5,4C182.5,209.9,178,208.2,178,208.2z"/>
<path class="st17" d="M173.8,193.8c-0.4,1.5-1.7,2.5-2.7,2.2c-1.1-0.3-1.6-1.8-1.2-3.3c0.4-1.5,1.7-2.5,2.7-2.2
	C173.8,190.7,174.3,192.2,173.8,193.8z"/>
<path class="st17" d="M191.6,207.4c-1.4,0.8-3,0.7-3.5-0.3s0.1-2.4,1.5-3.2c1.1-0.8,2.6-0.7,3.5,0.3
	C193.6,205.1,193,206.6,191.6,207.4z"/>
<path class="st5" d="M139.9,244c0,0-1.7,12.7,0.6,17.9c2.3,5.2,4.6,24.8,9.2,25.3c4.6,0.5,2.9-10.4,2.9-12.1s0.6-20.2,0.6-20.2
	s4-8.7,6.3-13.3"/>
<path class="st8" d="M120.9,243.4c0,0,15.6-4.6,17.3,12.7"/>
<path class="st8" d="M165.8,255.6c0,0,13.3-6.9,13.8-21.9"/>
<line class="st8" x1="5.5" y1="279.1" x2="15.3" y2="276.9"/>
<path class="st18" d="M87.5,337.1l79.2-22.5c2.5-0.3,5,0.3,7.2,1.7l128.9,82.3c1.5,1,1.9,2.9,0.9,4.4c-0.5,0.8-1.3,1.3-2.3,1.4
	L193,438.3L87.5,337.1z"/>
<polygon class="st16" points="133.8,341.8 145,349.6 158,345.9 146.8,338.2 "/>
<polygon class="st16" points="140.8,363.5 129.6,355.7 116.6,359.4 127.8,367.1 "/>
<polygon class="st16" points="162,346.6 173.2,354.3 186.2,350.6 175,342.9 "/>
<polygon class="st16" points="175.1,355.6 186.3,363.3 199.2,359.6 188,351.9 "/>
<polygon class="st16" points="146.9,350.8 158.1,358.6 171,354.9 159.8,347.2 "/>
<polygon class="st16" points="118.7,346.1 129.9,353.9 142.9,350.2 131.6,342.5 "/>
<polygon class="st16" points="208.2,395.2 196.9,387.5 184,391.1 195.2,398.9 "/>
<polygon class="st16" points="193,399.5 181.8,391.7 168.8,395.4 180.1,403.1 "/>
<polygon class="st16" points="153.8,372.5 142.6,364.7 129.7,368.4 140.9,376.1 "/>
<polygon class="st16" points="221.2,404.2 210,396.5 197,400.1 208.3,407.9 "/>
<polygon class="st16" points="166.9,381.5 155.7,373.7 142.7,377.4 153.9,385.1 "/>
<polygon class="st16" points="180,390.5 168.8,382.7 155.8,386.4 167,394.1 "/>
<polygon class="st16" points="188.1,364.6 199.3,372.3 212.3,368.6 201.1,360.9 "/>
<polygon class="st16" points="131.7,355.1 142.9,362.9 155.9,359.2 144.7,351.5 "/>
<polygon class="st16" points="236.3,399.9 225.1,392.2 212.2,395.9 223.4,403.6 "/>
<polygon class="st16" points="197.2,372.9 186,365.2 173,368.8 184.2,376.6 "/>
<polygon class="st16" points="169,368.2 157.8,360.5 144.8,364.1 156,371.9 "/>
<polygon class="st16" points="114.7,345.5 108.1,340.9 99.2,343.4 104.4,348.4 "/>
<polygon class="st16" points="127.7,354.5 116.5,346.7 105.9,349.7 114.7,358.1 114.7,358.1 "/>
<polygon class="st16" points="159.9,359.9 171.1,367.6 184.1,363.9 172.9,356.2 "/>
<polygon class="st16" points="182,377.2 170.8,369.5 157.9,373.1 169.1,380.9 "/>
<polygon class="st16" points="238.4,386.6 227.2,378.9 214.2,382.6 225.5,390.3 "/>
<polygon class="st16" points="201.2,373.6 212.4,381.3 225.4,377.6 214.2,369.9 "/>
<polygon class="st16" points="223.3,390.9 212.1,383.2 199.1,386.9 210.3,394.6 "/>
<polygon class="st16" points="210.2,381.9 199,374.2 186,377.8 197.3,385.6 "/>
<polygon class="st16" points="195.1,386.2 183.9,378.5 170.9,382.1 182.1,389.9 "/>
<polygon class="st16" points="138.7,376.7 127.5,369 126.5,369.3 135.3,377.7 "/>
<polygon class="st16" points="238.2,401.2 225.2,404.9 238.7,414.1 251.3,410.2 "/>
<polygon class="st16" points="223.1,405.5 210.1,409.1 223.9,418.7 236.6,414.8 "/>
<polygon class="st16" points="164.8,394.7 153.6,387 147.1,388.8 156,397.3 "/>
<polygon class="st16" points="251.5,395.6 240.3,387.9 227.3,391.6 238.5,399.3 "/>
<polygon class="st16" points="177.9,403.8 166.7,396 157.4,398.6 166.3,407 "/>
<polygon class="st16" points="191,412.8 179.8,405 167.7,408.4 176.6,416.8 "/>
<polygon class="st16" points="206.1,408.5 194.9,400.7 181.9,404.4 193.1,412.1 "/>
<path class="st16" d="M279.3,396.3l-7.5-4.7l-16.4,4.6l12.7,8.7l9.9-3c1.7-0.1,3-1.6,2.8-3.3C280.7,397.7,280.2,396.9,279.3,396.3z"
	/>
<polygon class="st16" points="192.8,414 178,418.2 189.7,429.2 207.1,423.9 "/>
<polygon class="st16" points="258,382.9 242.4,387.3 253.6,395 270,390.4 "/>
<polygon class="st16" points="253.3,396.9 240.4,400.6 253.4,409.6 266.1,405.7 "/>
<polygon class="st16" points="162.2,332 172.8,329 166,324.7 155.7,327.6 "/>
<polygon class="st16" points="221.8,419.3 207.9,409.7 195,413.4 209.2,423.2 "/>
<polygon class="st16" points="164.1,333.3 175.3,341 186.7,337.8 174.8,330.3 "/>
<polygon class="st16" points="190.2,351.3 201.4,359 214.5,355.3 202.5,347.8 "/>
<polygon class="st16" points="177.1,342.3 188.3,350 200.6,346.6 188.7,339 "/>
<polygon class="st16" points="203.2,360.3 214.5,368 228.3,364.1 216.4,356.6 "/>
<polygon class="st16" points="216.3,369.3 227.5,377 242.2,372.9 230.3,365.4 "/>
<polygon class="st16" points="244.2,374.1 229.4,378.3 240.6,386 256.1,381.7 "/>
<polygon class="st16" points="148.9,337.6 160.1,345.3 173.1,341.6 161.9,333.9 "/>
<polygon class="st16" points="122.8,365.7 125,367.9 125.6,367.7 "/>
<polygon class="st16" points="116.8,344.9 129.8,341.2 123.3,336.7 110.3,340.3 "/>
<polygon class="st16" points="131.9,340.6 144.9,336.9 138.4,332.4 125.4,336.1 "/>
<polygon class="st16" points="140.6,331.8 147.1,336.3 160.1,332.6 153.6,328.2 "/>
<polygon class="st16" points="151.8,385.7 140.6,378 136.8,379.1 145.7,387.5 "/>
<path class="st19" d="M192.9,438.3l-34.3-138.8c-0.8-3.2-2.5-6-4.8-8.2l-92.4-86.2c-1-0.9-2.6-0.9-3.5,0.1c-0.6,0.6-0.8,1.5-0.6,2.3
	L87.5,337L192.9,438.3z"/>
<path class="st14" d="M141.1,285.6l10.6,9.2c0,0,3.3,0.7,6.6,17.2"/>
<line class="st14" x1="160.3" y1="320.6" x2="179.8" y2="405"/>
<path class="st0" d="M103.2,281.9c4.6,11.1,4.2,21.8-0.9,23.9s-13-5.2-17.5-16.4c-4.6-11.2-4.2-21.8,0.9-23.9
	C90.8,263.4,98.7,270.8,103.2,281.9z"/>
<path class="st20" d="M103.2,281.9c4.6,11.1,4.2,21.8-0.9,23.9s-13-5.2-17.5-16.4c-4.6-11.2-4.2-21.8,0.9-23.9
	C90.8,263.4,98.7,270.8,103.2,281.9z"/>
<ellipse transform="matrix(0.9247 -0.3807 0.3807 0.9247 -101.6918 57.3001)" class="st21" cx="94" cy="285.7" rx="7.1" ry="15.5"/>
<path class="st16" d="M110.3,327.5c2.4,5.8,1.4,11.6-2.2,13.1s-8.4-2-10.8-7.8s-1.4-11.6,2.2-13.1S107.9,321.7,110.3,327.5z"/>
<path class="st0" d="M105.4,337.2c-2.3,0-4.7-2-6-5.2c-0.7-1.6-1-3.4-0.7-5.2c0.1-1.5,1.1-2.8,2.4-3.5c2.5-1,5.7,1.1,7.3,5l0,0
	c1.6,3.8,0.8,7.6-1.7,8.7C106.3,337.1,105.8,337.2,105.4,337.2z M102.4,324.5c-0.3,0-0.5,0-0.7,0.1c-0.9,0.5-1.4,1.4-1.5,2.3
	c-0.2,1.5,0,3.1,0.6,4.5c1.2,3,3.7,4.9,5.4,4.2c1.7-0.7,2.1-3.8,0.9-6.7C105.9,326.3,103.9,324.5,102.4,324.5L102.4,324.5z"/>
<g class="st22">
	<path class="st17" d="M105.4,337.2c-2.3,0-4.7-2-6-5.2c-0.7-1.6-1-3.4-0.7-5.2c0.1-1.5,1.1-2.8,2.4-3.5c2.5-1,5.7,1.1,7.3,5l0,0
		c1.6,3.8,0.8,7.6-1.7,8.7C106.3,337.1,105.8,337.2,105.4,337.2z M102.4,324.5c-0.3,0-0.5,0-0.7,0.1c-0.9,0.5-1.4,1.4-1.5,2.3
		c-0.2,1.5,0,3.1,0.6,4.5c1.2,3,3.7,4.9,5.4,4.2c1.7-0.7,2.1-3.8,0.9-6.7C105.9,326.3,103.9,324.5,102.4,324.5L102.4,324.5z"/>
</g>
<path class="st16" d="M136.9,329.3l-8.5,13.4c-0.4,0.7-0.4,1.5,0,2.2l18.2,26.5c0.6,0.9,1.9,1.2,2.8,0.5c0.1,0,0.1-0.1,0.2-0.1
	l9.4-7.7c0.8-0.6,1-1.7,0.5-2.6l-19.1-32.2c-0.5-1-1.8-1.3-2.7-0.7C137.3,328.8,137.1,329,136.9,329.3z"/>
<path class="st17" d="M117.8,311.6c0,0,23.5-3.9,39.6,29.2l4-4.9c0,0-15.5-25.9-28.2-28.2c-12.7-2.3-17.3-2.3-17.3-2.3L117.8,311.6z
	"/>
<line class="st8" x1="20.8" y1="275.7" x2="59.2" y2="267"/>
<path class="st23" d="M264.2,359.1c-4.6,0.7-9.2,1.2-13.9,1.4c-7.2,0.3-10.3,0.3-9.2,2s9.7,3.3,12.8,3.9
	C257,366.9,264.2,359.1,264.2,359.1z"/>
<line class="st8" x1="534.5" y1="419.4" x2="521.7" y2="412.7"/>
<path class="st16" d="M278.2,262.8c0,0,2.7-4.7,3.8,1.1L278.2,262.8z"/>
<line class="st8" x1="513.7" y1="408.6" x2="200.9" y2="245.1"/>
<polygon class="st10" points="209.1,309.1 274.8,351.5 328.9,329.5 256.1,292.4 "/>
<line class="st24" x1="251.3" y1="300.3" x2="225.1" y2="309.5"/>
<polyline class="st24" points="229.3,312.6 276.5,342.4 315,327.5 "/>
<path class="st25" d="M480,108.8c0,0,37.6,6,49.8,26.1s3.5,51.9-0.6,62.8c-3.7,9.9,7.1,18.2,13.8,23.6
	c14.9,12.1,22.6,29.2,14.8,47.8c-4.8,11.6-26.3,16.8-23.4,30.7c2.9,13.9,15.6,33.4-0.6,47.9c-17,15.2-42.6,7.4-57.5-6.8
	c-16.8-16-22.6-43.8-14-65.2c10.4-25.9,16.1-42.7,6.3-53.7c-9.8-11-22.5-17.9-22.5-33.4s13.8-20.2,19.6-35.8
	c5.8-15.6-2.3-31.7-2.3-31.7L480,108.8z"/>
<path class="st26" d="M515.2,135.8c7.3,5.5,13.9,14.8,11.6,29.8c-4.6,30.6-27.2,32.5-12.6,51.8s27.9,10.6,25.2,34.5
	s-11.3,32.5-11.3,32.5"/>
<path class="st26" d="M499.6,128.4c2.9,0.7,5.7,1.7,8.4,3"/>
<path class="st26" d="M492.3,137.1c0,0,19.3,5.3,25.2,21.2s-17.9,29.2-19.3,39.2"/>
<path class="st9" d="M491.5,397c-0.3-9.1-0.4-21.3,0.2-34.2c1.2-26.5,32.9-61.7,34-68s-1.7-7.5-1.7-7.5l-62.9-27.1
	c-29.2,19.2-36.3,75-38.1,101.1L491.5,397z"/>
<path class="st14" d="M517.1,289c0,0,5.3,3.3,0,8.6c-5.3,5.3-19.8,27.7-25.8,40.9"/>
<path class="st14" d="M488.8,345c0,0-4.6,10.6-3.9,21.1c0.7,10.6,0.7,20.4,0.7,20.4"/>
<path class="st17" d="M365.5,274.6c2.8,7.2,6.1,22.7,3.9,31.6c-1.1,4.6-5,14.3-8.4,22.5l84.8,44.3c-0.1-17.6,0.1-45.5,2.4-50.7
	c3.3-7.8,29.9-80.9,28.3-97.6c-1.6-16.6-33.8-40.5-33.8-40.5l4.9-40.5l-29.4,17.7c0,0-3.3,16.1-6.7,20s-30.5,9.4-38.3,19.4
	s-5,40.5-5,42.1C368.2,244.6,362.7,267.5,365.5,274.6z"/>
<g>
	<g>
		<defs>
			<path id="SVGID_5_" d="M365.5,274.6c2.8,7.2,6.1,22.7,3.9,31.6c-1.1,4.6-5,14.3-8.4,22.5l84.8,44.3c-0.1-17.6,0.1-45.5,2.4-50.7
				c3.3-7.8,29.9-80.9,28.3-97.6c-1.6-16.6-33.8-40.5-33.8-40.5l4.9-40.5l-29.4,17.7c0,0-3.3,16.1-6.7,20s-30.5,9.4-38.3,19.4
				s-5,40.5-5,42.1C368.2,244.6,362.7,267.5,365.5,274.6z"/>
		</defs>
		<clipPath id="SVGID_6_">
			<use xlink:href="#SVGID_5_"  style="overflow:visible;"/>
		</clipPath>
		<g class="st27">
			<path class="st28" d="M476.3,224.7c-1.7-16.6-33.8-40.5-33.8-40.5l5-40.5l-29.4,17.7c0,0-1,4.6-2.4,9.5c1.9-0.2,4-0.4,6.4-0.8
				c11.2-2,17.2-6,17.2-6l-6,25.1c0,0,30.3,17.9,38.3,39.6c1.1,3,2.2,5.8,3.4,8.5C476,233.3,476.5,229,476.3,224.7z"/>
		</g>
	</g>
</g>
<path class="st8" d="M365.5,274.6c2.8,7.2,6.1,22.7,3.9,31.6c-1.1,4.6-5,14.3-8.4,22.5l84.8,44.3c-0.1-17.6,0.1-45.5,2.4-50.7
	c3.3-7.8,29.9-80.9,28.3-97.6c-1.6-16.6-33.8-40.5-33.8-40.5l4.9-40.5l-29.4,17.7c0,0-3.3,16.1-6.7,20s-30.5,9.4-38.3,19.4
	s-5,40.5-5,42.1C368.2,244.6,362.7,267.5,365.5,274.6z"/>
<path class="st10" d="M365.5,274.6c2.8,7.2,6.1,22.7,3.9,31.6c-1.1,4.6-5,14.3-8.4,22.5l84.8,44.3c-0.1-17.6,0.1-45.5,2.4-50.7
	c3.3-7.8,29.9-80.9,28.3-97.6c-1-10.4-13.9-23.5-23.4-31.9c-9.4,10-29.8,28.6-44.7,20.3c-13.4-7.5-12.6-18.8-10.6-25.5
	c-9.1,3.3-19.9,7.6-24.4,13.3c-7.8,10-5,40.5-5,42.1C368.3,244.7,362.7,267.5,365.5,274.6z"/>
<path class="st5" d="M415,254.9l-18.5-8.7c0,0-5.2-8.6-8.1-8.6s-4.6,12.1-4.6,12.1s-9.8,9.2-6.3,18.5s16.1,23.1,31.7,17.9
	s11-21.3,11-21.3s6.3-11,6.3-13.3S415,254.9,415,254.9z"/>
<path class="st17" d="M375.4,76.1c0,0,3.9,20,3.3,33.8c-0.6,13.9-6.1,19.4-4.5,25.5s21.6,28.8,33.8,31c12.2,2.2,41-16.6,49.3-24.9
	s9.4-20.5,8.3-25.5s-5.5-44.9-22.2-61S383.2,40.7,375.4,76.1z"/>
<g>
	<g>
		<defs>
			<path id="SVGID_7_" d="M375.4,76.1c0,0,3.9,20,3.3,33.8c-0.6,13.9-6.1,19.4-4.5,25.5s21.6,28.8,33.8,31
				c12.2,2.2,41-16.6,49.3-24.9s9.4-20.5,8.3-25.5s-5.5-44.9-22.2-61S383.2,40.7,375.4,76.1z"/>
		</defs>
		<clipPath id="SVGID_8_">
			<use xlink:href="#SVGID_7_"  style="overflow:visible;"/>
		</clipPath>
		<g class="st29">
			<path class="st28" d="M443.7,55.1c-6.2-6-16.2-9.5-26.7-9.8L416.3,66c0,0-3.3,20.4,8.6,36.9s22.4,21.1,23.7,27.7
				c1.3,6.6-4.6,13.1-19.8,24.4c-5.9,4.5-12.3,8.4-18.9,11.6c13,0.5,39.7-17.1,47.7-25.1c8.3-8.3,9.4-20.5,8.3-25.5
				C464.7,111.1,460.3,71.2,443.7,55.1z"/>
		</g>
	</g>
</g>
<path class="st8" d="M375.4,76.1c0,0,3.9,20,3.3,33.8c-0.6,13.9-6.1,19.4-4.5,25.5s21.6,28.8,33.8,31c12.2,2.2,41-16.6,49.3-24.9
	s9.4-20.5,8.3-25.5s-5.5-44.9-22.2-61S383.2,40.7,375.4,76.1z"/>
<path class="st8" d="M396.5,117.2c0,0-1.7,10.5-4.5,13.9c2.2,1.9,4.9,3.1,7.8,3.3"/>
<path class="st8" d="M397.6,143.8c7.3,3.2,15.8,2.8,22.7-1.1"/>
<path class="st16" d="M417.6,111.6c0,1.8-0.9,3.3-1.9,3.3c-1.1,0-1.9-1.5-1.9-3.3s0.9-3.3,1.9-3.3
	C416.7,108.3,417.6,109.8,417.6,111.6z"/>
<path class="st16" d="M390.1,107.2c0,1.8-0.9,3.3-1.9,3.3c-1.1,0-1.9-1.5-1.9-3.3s0.9-3.3,1.9-3.3
	C389.3,103.9,390.1,105.4,390.1,107.2z"/>
<path class="st8" d="M382.7,92.8c3.1-2,6.9-2.6,10.5-1.7"/>
<path class="st8" d="M408.7,93.3c0,0,3.3-1.7,10.5,2.8"/>
<path class="st25" d="M412,61.2c0,0-15.5,12.8-23.3,20.5S377.7,95,366,90c-11.6-5-20-22.2-4.5-42.7S407,20.7,436.4,29
	s41.6,27.2,43.8,47.7c2.2,20.5-2.2,43.2-12.7,49.3s-33.8-18.9-42.1-34.4C420.2,81.8,415.7,71.7,412,61.2z"/>
<path class="st26" d="M412,61.2c0,0-41.9,6.2-43.8,15.5c-2,9.3,10.6,6.6,10.6,6.6"/>
<path class="st26" d="M362.8,67.3c-2.8,6.1-0.6,10-0.6,10"/>
<path class="st26" d="M453.8,41.4c0,0-40.5-6.6-40.5,11.3c0,0-24.6-8.6-40.5,3.3c-2.4,1.7-4.6,3.7-6.5,6"/>
<path class="st26" d="M415.4,56.7c0,0,10.3,33.3,31.9,41.8"/>
<path class="st26" d="M436.9,65.7c8.3,6.9,20.2,13.6,34.3,13"/>
<path class="st26" d="M423.9,52.1c1.9,2.7,4.1,5.2,6.4,7.6"/>
<path class="st8" d="M371.6,95.5l64.9,11.1c0,0,0,9.9-2.8,14.9s-6.1,5.1-13.3,5.1s-17.2-4.5-17.7-6.1c-1.1-3.9-0.4-16.9-0.4-16.9
	l-5.2-0.8c0,0,0.7,15.1-2.1,16.8c-2.8,1.7-21.1-1.7-24.4-6.1C367.2,109.1,369.3,95,371.6,95.5z"/>
<polygon class="st9" points="436.4,106.6 465.3,101.6 465.3,105.5 436.4,112.7 "/>
<ellipse transform="matrix(0.1587 -0.9873 0.9873 0.1587 289.7987 555.132)" class="st9" cx="470.6" cy="107.5" rx="25.7" ry="16.1"/>
<path class="st9" d="M491.2,110.6c-1.9,11.8-8.5,20.6-14.7,19.6s-9.7-11.4-7.8-23.2c1.9-11.8,8.5-20.5,14.7-19.5
	C489.6,88.5,493.1,98.9,491.2,110.6z"/>
<path class="st5" d="M482.4,61.2c1.1,15.5-0.6,31.1-5,46c0,0-0.6,8.9,7.8,5s7.2-37.7,6.1-51.6C490.2,46.8,479.7,50.6,482.4,61.2z"/>
<path class="st9" d="M451.4,35.1c0,0,12.7-3.3,19.4,8.3c6.6,11.7,5.5,22.2,14.9,23.3s10-9.4,5-22.7s-15.5-23.3-29.9-24.4
	s-21.5,10.5-21.5,10.5S447,31.2,451.4,35.1z"/>
<path class="st17" d="M450.3,242.5l-38.3,87c0,0-104.2,19.4-113.7,19.4s-28.3,6.6-32.2,8.9s-41.5,19.6-34.3,20.7
	c4.5,0.7,16-5.7,16-5.7s-18.3,8.9-16.6,11.6s23.8-8.3,23.8-8.3s-20.3,11.9-16.1,12.6c3.8,0.7,8.4-1.5,12.3-4.3
	c3.4-2.1,7-3.7,10.9-4.8c0,0-8.9,6-10,8.7s2.2,1.1,5.5,0c6.2-2.7,12.2-5.8,18-9.4c2.2-1.7,8.9-5,13.3-8.9l8.9-7.8
	c0,0,59.3,1.7,86.4,0.6s40.5-3.9,50.5-13.9s38.3-73.2,44.9-90.4s2.2-27.2-4.5-38.7"/>
<g>
	<g>
		<defs>
			<path id="SVGID_9_" d="M450.3,242.5l-38.3,87c0,0-104.2,19.4-113.7,19.4s-28.3,6.6-32.2,8.9s-41.5,19.6-34.3,20.7
				c4.5,0.7,16-5.7,16-5.7s-18.3,8.9-16.6,11.6s23.8-8.3,23.8-8.3s-20.3,11.9-16.1,12.6c3.8,0.7,8.4-1.5,12.3-4.3
				c3.4-2.1,7-3.7,10.9-4.8c0,0-8.9,6-10,8.7s2.2,1.1,5.5,0c6.2-2.7,12.2-5.8,18-9.4c2.2-1.7,8.9-5,13.3-8.9l8.9-7.8
				c0,0,59.3,1.7,86.4,0.6s40.5-3.9,50.5-13.9s38.3-73.2,44.9-90.4s2.2-27.2-4.5-38.7"/>
		</defs>
		<clipPath id="SVGID_10_">
			<use xlink:href="#SVGID_9_"  style="overflow:visible;"/>
		</clipPath>
		<g class="st30">
			<path class="st28" d="M451.8,299.5c-17.9,33.6-33,44.2-48.8,52.2s-102.9,9.9-102.9,9.9l3.7,0.9c15.7,0.4,58.6,1.3,80.5,0.4
				c27.2-1.1,40.5-3.9,50.5-13.9s38.3-73.2,44.9-90.4c3.1-8,3.8-14.4,3-20.1l-3.8,2.4C471,260.9,462,280.5,451.8,299.5z"/>
		</g>
	</g>
</g>
<path class="st21" d="M450.3,242.5l-38.3,87c0,0-104.2,19.4-113.7,19.4s-28.3,6.6-32.2,8.9s-41.5,19.6-34.3,20.7
	c4.5,0.7,16-5.7,16-5.7s-18.3,8.9-16.6,11.6s23.8-8.3,23.8-8.3s-20.3,11.9-16.1,12.6c3.8,0.7,8.4-1.5,12.3-4.3
	c3.4-2.1,7-3.7,10.9-4.8c0,0-8.9,6-10,8.7s2.2,1.1,5.5,0c6.2-2.7,12.2-5.8,18-9.4c2.2-1.7,8.9-5,13.3-8.9l8.9-7.8
	c0,0,59.3,1.7,86.4,0.6s40.5-3.9,50.5-13.9s38.3-73.2,44.9-90.4s2.2-27.2-4.5-38.7"/>
<path class="st10" d="M449.6,240.3L438,270.5c8.6-4.6,24.6-10.7,37.4-1.5c1.8-4.2,3.3-7.8,4.3-10.4c6.7-17.2,2.2-27.2-4.5-38.7"/>
<path class="st17" d="M367.3,280.3c-11.3,3.3-55.7,16.3-59.8,17.3c-2.6,0.6-5.2,1.1-7.8,1.4c0,0-15.5-6.7-19.7-9.7s-9.2-1.1-11.6,0
	s-4.5,8.9,0.3,8.9s5.5-0.3,10.8,4.2c5.3,4.4,5.3,6.7,9.2,8.3s10.3,0.6,13.6,0c3-0.5,54.5-3.9,67.2-4.6
	C371,299.1,369.4,288.2,367.3,280.3z"/>
<g>
	<g>
		<defs>
			<path id="SVGID_11_" d="M367.3,280.3c-11.3,3.3-55.7,16.3-59.8,17.3c-2.6,0.6-5.2,1.1-7.8,1.4c0,0-15.5-6.7-19.7-9.7
				s-9.2-1.1-11.6,0s-4.5,8.9,0.3,8.9s5.5-0.3,10.8,4.2c5.3,4.4,5.3,6.7,9.2,8.3s10.3,0.6,13.6,0c3-0.5,54.5-3.9,67.2-4.6
				C371,299.1,369.4,288.2,367.3,280.3z"/>
		</defs>
		<clipPath id="SVGID_12_">
			<use xlink:href="#SVGID_11_"  style="overflow:visible;"/>
		</clipPath>
		<g class="st31">
			<path class="st28" d="M369,288.3l-66.9,22.4c3-0.5,54.5-3.9,67.2-4.6C370.5,301.2,370.1,294.6,369,288.3z"/>
		</g>
	</g>
</g>
<path class="st8" d="M367.3,280.3c-11.3,3.3-55.7,16.3-59.8,17.3c-2.6,0.6-5.2,1.1-7.8,1.4c0,0-15.5-6.7-19.7-9.7s-9.2-1.1-11.6,0
	s-4.5,8.9,0.3,8.9s5.5-0.3,10.8,4.2c5.3,4.4,5.3,6.7,9.2,8.3s10.3,0.6,13.6,0c3-0.5,54.5-3.9,67.2-4.6
	C371,299.1,369.4,288.2,367.3,280.3z"/>
<path class="st5" d="M256.2,298.4c0,0-5.8,3.3-7.5,7.2c-1.6,3.9,1.7,2.8,2.8,2s5.8-4.7,5.8-4.7L256.2,298.4z"/>
<path class="st5" d="M257.8,295.6c-2.2,1.4-3.4,4-3,6.7c0.6,4.7,5.5,11.6,6.1,8.9C261.5,308.4,257.8,295.6,257.8,295.6z"/>
<path class="st5" d="M264.8,291.5c0,0-5.3,1.4-6.9,4.2c-1.7,2.8,1.1,14.7,3.1,15.5c1.5,0.7,3.3,0,3.9-1.5c0.1-0.2,0.2-0.5,0.2-0.7
	C265.6,307,264.8,291.5,264.8,291.5z"/>
<path class="st5" d="M271.4,288.7c0,0-6.9,0-7.8,3.3c-0.8,3.3-2.2,17.7-0.8,20c1.4,2.2,3.6,1.4,4.7-1.4
	C268.6,307.8,271.4,288.7,271.4,288.7z"/>
<path class="st32" d="M277.7,262.9l-11.4,51.8l1.8,6.6c0.1,0.3,0.4,0.5,0.7,0.4c0.1,0,0.2-0.1,0.3-0.2l5-4.9l8.3-52.4L277.7,262.9z"
	/>
<path class="st5" d="M288.9,304.7c0,0-6.4,2.5-11.4,4.7s-10,3.3-9.4,6.4s2.8,1.9,6.4,0.8c4.9-1.7,10.1-2.9,15.3-3.6
	c6.9-0.8,12.5-7.2,12.5-7.2"/>
<path class="st24" d="M266.5,315.5l1.2,4.9c0.2,0.7,0.9,1.2,1.7,1c0.2-0.1,0.4-0.2,0.6-0.3l2.7-2.6"/>
<line class="st24" x1="266.3" y1="314.7" x2="272.2" y2="288.5"/>
<line class="st14" x1="62.7" y1="211.8" x2="137.8" y2="281.7"/>
</svg>
