<svg xmlns="http://www.w3.org/2000/svg" width="18" height="18" viewBox="0 0 18 18">
  <g id="telephone-call_2_" data-name="telephone-call (2)" transform="translate(-2 -2)">
    <path id="Path_21583" data-name="Path 21583" d="M19.61,15.731c-.562-.471-3.857-2.558-4.4-2.462-.257.046-.454.265-.98.893a7.513,7.513,0,0,1-.8.866,6.915,6.915,0,0,1-1.526-.566A9.45,9.45,0,0,1,7.538,10.1a6.915,6.915,0,0,1-.566-1.526,7.513,7.513,0,0,1,.866-.8c.627-.526.847-.722.893-.98.1-.549-1.993-3.843-2.462-4.4-.2-.233-.375-.389-.6-.389C5,2,2,5.711,2,6.191c0,.039.064,3.9,4.943,8.866C11.906,19.936,15.769,20,15.809,20,16.289,20,20,17,20,16.336c0-.229-.156-.408-.39-.6Z" transform="translate(0 0)" fill="#3458e0"/>
    <path id="Path_21584" data-name="Path 21584" d="M20.857,12.143h1.286A5.149,5.149,0,0,0,17,7V8.286a3.861,3.861,0,0,1,3.857,3.857Z" transform="translate(-5.357 -1.786)" fill="#3458e0"/>
    <path id="Path_21585" data-name="Path 21585" d="M24.071,10.357h1.286A8.367,8.367,0,0,0,17,2V3.286A7.08,7.08,0,0,1,24.071,10.357Z" transform="translate(-5.357)" fill="#3458e0"/>
  </g>
</svg>
