<?xml version="1.0" encoding="utf-8"?>
<!-- Generator: Adobe Illustrator 22.0.1, SVG Export Plug-In . SVG Version: 6.00 Build 0)  -->
<svg version="1.1" id="Layer_1" xmlns="http://www.w3.org/2000/svg" xmlns:xlink="http://www.w3.org/1999/xlink" x="0px" y="0px" width="500" height="383"
	 viewBox="0 0 500 383" style="enable-background:new 0 0 500 383;" xml:space="preserve">
<style type="text/css">
	.st0{fill:#FF6726;}
	.st1{opacity:0.7;}
	.st2{fill:#FFFFFF;}
	.st3{fill:none;stroke:#263238;stroke-linecap:round;stroke-linejoin:round;}
	.st4{fill:#FFFFFF;stroke:#263238;stroke-linecap:round;stroke-linejoin:round;}
	.st5{fill:#263238;}
	.st6{opacity:0.2;fill:#FFFFFF;enable-background:new    ;}
	.st7{fill:#FF6726;stroke:#263238;stroke-linecap:round;stroke-linejoin:round;}
	.st8{fill:#263238;stroke:#263238;stroke-linecap:round;stroke-linejoin:round;}
	.st9{fill:none;stroke:#FFFFFF;stroke-linecap:round;stroke-linejoin:round;}
	.st10{clip-path:url(#SVGID_2_);}
	.st11{clip-path:url(#SVGID_4_);}
	.st12{clip-path:url(#SVGID_6_);}
</style>
<g id="freepik--background-simple--inject-190">
	<path class="st0" d="M92.2,84c70.1-79.7,190.4-93,244-67.4c20.8,9.9,40.1,22.8,57.2,38.2c2.2,2,4.4,4.1,6.5,6.2
		c6.6,6.5,12.8,13.4,18.5,20.7c6.9,8.7,13.1,17.9,18.6,27.5c7.9,13.7,14.1,28.3,18.5,43.5c3,9.9,4.9,20.2,5.8,30.5
		c1.5,19.4,0.2,39-2.4,58.3c-0.2,1.8-0.5,3.7-0.8,5.5c-0.1,0.5-0.1,1-0.2,1.5c-2.9,19.2-6.9,38.5-16,55.2
		c-9.9,18.3-44.4,69-81.9,70.3c-19.4,0.7-36.6-12-54.2-21c-28-14.3-59.7-17.1-90.6-17.9s-62.2,0.1-92.3-7.6s-59.6-25.3-75-54.5
		c-5.2-9.9-9.2-24.3-9.2-35.7c0-33.8,5.5-63.4,15.2-89.1c3.1-8.2,6.6-16.2,10.7-23.9c5.9-11.4,12.9-22.1,20.9-32.2L92.2,84z"/>
	<g class="st1">
		<path class="st2" d="M92.2,84c70.1-79.7,190.4-93,244-67.4c20.8,9.9,40.1,22.8,57.2,38.2c2.2,2,4.4,4.1,6.5,6.2
			c6.6,6.5,12.8,13.4,18.5,20.7c6.9,8.7,13.1,17.9,18.6,27.5c7.9,13.7,14.1,28.3,18.5,43.5c3,9.9,4.9,20.2,5.8,30.5
			c1.5,19.4,0.2,39-2.4,58.3c-0.2,1.8-0.5,3.7-0.8,5.5c-0.1,0.5-0.1,1-0.2,1.5c-2.9,19.2-6.9,38.5-16,55.2
			c-9.9,18.3-44.4,69-81.9,70.3c-19.4,0.7-36.6-12-54.2-21c-28-14.3-59.7-17.1-90.6-17.9s-62.2,0.1-92.3-7.6s-59.6-25.3-75-54.5
			c-5.2-9.9-9.2-24.3-9.2-35.7c0-33.8,5.5-63.4,15.2-89.1c3.1-8.2,6.6-16.2,10.7-23.9c5.9-11.4,12.9-22.1,20.9-32.2L92.2,84z"/>
	</g>
</g>
<g id="freepik--Floor--inject-190">
	<line class="st3" x1="38.7" y1="372.8" x2="468.7" y2="372.8"/>
</g>
<g id="freepik--Plants--inject-190">
	<path class="st3" d="M369.6,227.8L369.6,227.8v0.1c0,0.2,0,0.4,0.1,0.6c0.4,2.2,0.8,4.4,1,6.6c0.2,1.9,0.3,4.1,0.4,6.5
		c0.1,5.6-0.3,11.2-1.1,16.8c-0.2,1.5-0.5,3-0.8,4.5c-0.5,2.5-1.1,5.2-1.8,8c-0.3,1.3-0.7,2.6-1.1,3.9l-0.5,1.6
		c-0.2,0.6-0.4,1.3-0.5,2l0,0c-1.1,4.4-2.1,8.9-2.8,13.5c-0.9,5.6-1.4,11.3-1.7,16.6c-0.4,7.1-0.4,13.6-0.2,19c0,0.1,0,0.2,0,0.3
		c0.2,5.5,0.5,9.8,0.8,12.2c0.1,1.4,0.2,2.2,0.2,2.3"/>
	<path class="st4" d="M369.7,227.9L369.7,227.9L369.7,227.9c-1.5-1.3-3.3-2.3-5.3-2.7"/>
	<line class="st3" x1="370.8" y1="235.1" x2="373.5" y2="232.7"/>
	<path class="st3" d="M367.4,270.9L367.4,270.9c-0.1-0.7-0.3-1.4-0.6-2c-0.4-1-0.9-1.9-1.6-2.7c-0.5-0.6-1.1-1.2-1.7-1.6"/>
	<path class="st3" d="M365.3,278.4c0.8-1.9,2.3-3.4,4.2-4.1"/>
	<path class="st4" d="M360.7,315.6c0.9-1.1,1.6-5.2,1.9-7.4c0.1-0.5,0.2-1,0.2-1.3"/>
	<path class="st4" d="M353.8,323c0.3,0,0.6,0,0.9,0c2.7,0.3,5,2,6,4.5"/>
	<path class="st3" d="M369.2,263c0,0,0.5-16.2-8.4-22.1"/>
	<path class="st0" d="M370,297.8c1.2,3.8-7,11-7,11s-10.8-1.4-12-5.1s1.6-10,6.8-11.6S368.9,294,370,297.8z"/>
	<path class="st0" d="M379.1,251.9c-1,4-8.8,6.9-8.8,6.9s-5.3-6.2-4.3-10.2s5.3-8.4,8.9-7.5S380.1,247.8,379.1,251.9z"/>
	<path class="st0" d="M348.1,311.9c4.9,1.9,7.8,10.5,7.8,10.5s-8,4.3-12.8,2.4s-10-7.2-8.6-10.8S343.3,310,348.1,311.9z"/>
	<path class="st0" d="M358.7,264.7c1,0.8,2.1,1.5,3.3,1.9c1.2,0.4,2.6,0.1,3.5-0.8c1-1.2,0.8-3,0.1-4.5c-1.3-2.9-6.1-7.7-9.8-6.3
		C350.6,257,356.4,263,358.7,264.7z"/>
	<path class="st0" d="M369.6,272c-0.7,0.9-1.4,2-1,3c0.4,0.9,1.4,1.4,2.4,1.2c1-0.2,1.9-0.7,2.6-1.3c1.9-1.3,5.7-4,3.3-6.6
		S371,270.2,369.6,272z"/>
	<path class="st0" d="M353.9,235.7c-0.8,0-1.5,0.6-1.8,1.4c-0.2,0.9,0.6,1.7,1.4,2.3c1.9,1.4,7.5,5.3,8.7,1.6
		C363.4,237.5,356.4,235.5,353.9,235.7z"/>
	<path class="st0" d="M364.2,223.5c-1.1,0.1-2.3-0.3-3.5-0.2s-2.4,1-2.2,2.1s1.5,1.4,2.6,1.5c1.8,0.1,3.7,0,5.5-0.4
		c0.4,0,0.8-0.2,1.1-0.6c0.5-0.7-0.3-1.6-1.1-1.9C365.8,223.9,365,223.7,364.2,223.5L364.2,223.5z"/>
	<path class="st0" d="M375.5,231.4c1.1,0,2.3-0.5,3.4-0.5s2.5,0.8,2.3,2s-1.4,1.5-2.5,1.6c-1.8,0.2-3.6,0.2-5.5,0
		c-0.4,0-0.8-0.2-1.1-0.5c-0.5-0.6,0.2-1.6,0.9-1.9C373.9,232,374.7,231.7,375.5,231.4L375.5,231.4z"/>
	<path class="st0" d="M374.3,316.6c0.3-0.3,0.6-0.4,1-0.5c0.5,0.1,0.9,0.5,1,1c0.1,0.5,0,1-0.2,1.5c-0.8,2.6-9.6,21.6-11.6,18.2
		c-1.2-2,1.8-8.7,2.6-10.6C368.8,322.5,371.3,319.3,374.3,316.6z"/>
	<path class="st3" d="M370,229c0,0-0.5-4.6,0.6-5"/>
	<path class="st0" d="M369.1,224.2c0.6-1.6,1.5-3.1,2.8-4.2c1.4-1,3.6-1.1,4.6,0.3c1.1,1.5,0,3.9-1.7,4.7s-3.8,0.6-5.7,0.3
		c0-0.3,0-0.6,0-0.8L369.1,224.2z"/>
	<path class="st4" d="M373.8,372.6L373.8,372.6c-9.4,1.6-19.1,1.6-28.5,0l0,0l-11.1-32.7h50.6L373.8,372.6z"/>
	<path class="st3" d="M180.6,136.4L180.6,136.4v0.1c0,0.2,0.1,0.4,0.1,0.6c0.5,2.2,0.8,4.4,1,6.6c0.2,1.9,0.3,4.1,0.4,6.5
		c0.1,5.6-0.3,11.2-1.1,16.7c-0.2,1.5-0.5,3-0.8,4.5c-0.5,2.5-1.1,5.2-1.8,7.9c-0.3,1.3-0.7,2.6-1.1,3.9c-0.2,0.5-0.3,1.1-0.5,1.6
		s-0.4,1.3-0.5,2l0,0c-1.1,4.4-2.1,8.9-2.8,13.5c-0.9,5.6-1.4,11.3-1.7,16.6c-0.4,7.1-0.4,13.6-0.2,19v0.3c0.2,5.5,0.5,9.8,0.8,12.2
		c0.1,1.4,0.2,2.2,0.2,2.3"/>
	<path class="st4" d="M180.6,136.6L180.6,136.6L180.6,136.6c-0.7-0.6-1.5-1.2-2.3-1.6c-0.9-0.5-1.9-0.9-2.9-1.1"/>
	<line class="st3" x1="181.7" y1="143.8" x2="184.4" y2="141.4"/>
	<path class="st3" d="M178.3,179.5L178.3,179.5c-0.1-0.7-0.4-1.4-0.6-2.1c-0.4-1-0.9-1.9-1.6-2.7c-0.5-0.6-1.1-1.2-1.7-1.6"/>
	<path class="st3" d="M176.2,187c0.8-1.9,2.3-3.4,4.2-4.1"/>
	<path class="st4" d="M171.6,224.2c0.9-1.1,1.6-5.2,1.9-7.4c0.1-0.5,0.2-1,0.2-1.3"/>
	<path class="st4" d="M164.7,231.6c0.3,0,0.6,0,0.9,0c2.7,0.3,5,2,6,4.5"/>
	<path class="st3" d="M180.1,171.6c0,0,0.5-16.2-8.4-22.1"/>
	<path class="st0" d="M180.9,206.5c1.2,3.8-7,11-7,11s-10.8-1.4-12-5.1s1.6-10,6.8-11.6S179.8,202.7,180.9,206.5z"/>
	<path class="st0" d="M190,160.5c-1,4-8.8,6.9-8.8,6.9s-5.4-6.2-4.4-10.3s5.3-8.4,8.9-7.5S191,156.5,190,160.5z"/>
	<path class="st0" d="M159,220.6c4.9,1.9,7.8,10.5,7.8,10.5s-8,4.3-12.9,2.4s-10-7.2-8.6-10.8S154.1,218.7,159,220.6z"/>
	<path class="st0" d="M169.6,173.4c1,0.8,2.1,1.5,3.3,1.9c1.2,0.4,2.6,0.1,3.5-0.8c1-1.2,0.8-3,0.1-4.5c-1.3-2.9-6.1-7.7-9.8-6.3
		C161.5,165.6,167.3,171.6,169.6,173.4z"/>
	<path class="st0" d="M180.5,180.7c-0.7,0.9-1.4,2-1.1,3c0.4,0.9,1.4,1.4,2.4,1.2c1-0.2,1.9-0.7,2.6-1.3c1.9-1.3,5.7-4,3.3-6.6
		S181.9,178.9,180.5,180.7z"/>
	<path class="st0" d="M164.8,144.4c-0.8,0.1-1.5,0.6-1.8,1.4c-0.2,0.9,0.6,1.7,1.4,2.3c1.9,1.4,7.4,5.3,8.7,1.6
		C174.3,146.2,167.3,144.1,164.8,144.4z"/>
	<path class="st0" d="M175.1,132.1c-1.1,0.1-2.3-0.3-3.4-0.2s-2.4,1-2.2,2.1s1.5,1.4,2.6,1.4c1.8,0.1,3.7,0,5.4-0.4
		c0.4,0,0.8-0.2,1.1-0.6c0.5-0.7-0.3-1.6-1.1-1.9C176.7,132.6,175.9,132.4,175.1,132.1L175.1,132.1z"/>
	<path class="st0" d="M186.4,140.1c1.2,0,2.3-0.5,3.4-0.5s2.5,0.8,2.3,2s-1.4,1.5-2.5,1.6c-1.8,0.2-3.6,0.2-5.5,0
		c-0.4,0-0.8-0.2-1.1-0.5c-0.5-0.6,0.2-1.6,0.9-1.9C184.8,140.6,185.6,140.4,186.4,140.1L186.4,140.1z"/>
	<path class="st0" d="M185.2,225.3c0.3-0.3,0.6-0.4,1-0.5c0.5,0.1,0.9,0.5,1,1c0.1,0.5,0,1-0.2,1.5c-0.8,2.6-9.6,21.6-11.6,18.2
		c-1.2-2,1.7-8.7,2.6-10.6C179.7,231.2,182.2,227.9,185.2,225.3z"/>
	<path class="st3" d="M180.9,137.7c0,0-0.5-4.6,0.6-5"/>
	<path class="st0" d="M180,132.9c0.6-1.6,1.5-3.1,2.8-4.2c1.4-1,3.6-1.1,4.6,0.3c1.1,1.6,0,3.9-1.7,4.7s-3.8,0.6-5.7,0.3
		c0-0.3,0-0.6,0-0.8L180,132.9z"/>
</g>
<g id="freepik--Building--inject-190">
	<line class="st3" x1="53.8" y1="247" x2="53.8" y2="148.2"/>
	<line class="st3" x1="362.4" y1="247" x2="350.1" y2="247"/>
	<line class="st3" x1="458.1" y1="247" x2="433.2" y2="247"/>
	<polyline class="st3" points="349,96.9 393.1,96.9 393.1,54.9 	"/>
	<polyline class="st3" points="92.2,84 139,84 139,118.2 190.3,118.2 	"/>
	<line class="st3" x1="64.5" y1="199.7" x2="64.5" y2="124.2"/>
	<line class="st3" x1="85.5" y1="91.5" x2="85.5" y2="150.6"/>
	<line class="st3" x1="106.4" y1="91.5" x2="106.4" y2="143.8"/>
	<line class="st3" x1="127.3" y1="91.5" x2="127.3" y2="182.9"/>
	<polyline class="st3" points="227.4,78.5 227.4,18.4 312.6,18.4 312.6,78.5 	"/>
	<polyline class="st3" points="233.7,48.3 233.7,25.5 249.4,25.5 	"/>
	<polyline class="st3" points="252.9,48.3 252.9,25.5 268.6,25.5 	"/>
	<polyline class="st3" points="272.1,48.3 272.1,25.5 287.8,25.5 	"/>
	<polyline class="st3" points="291.3,48.3 291.3,25.5 307,25.5 	"/>
	<polyline class="st3" points="233.7,78.5 233.7,55.8 249.4,55.8 	"/>
	<polyline class="st3" points="252.9,78.5 252.9,55.8 268.6,55.8 	"/>
	<polyline class="st3" points="272.1,78.5 272.1,55.8 287.8,55.8 	"/>
	<polyline class="st3" points="291.3,78.5 291.3,55.8 307,55.8 	"/>
	<line class="st3" x1="399.9" y1="60.1" x2="399.9" y2="135.4"/>
	<line class="st3" x1="430.8" y1="241.5" x2="433.2" y2="241.5"/>
	<line class="st3" x1="418.4" y1="81.7" x2="418.4" y2="166.1"/>
	<polyline class="st3" points="437,219.9 437,241.5 451.8,241.5 	"/>
	<line class="st3" x1="437" y1="109.2" x2="437" y2="166.5"/>
	<polyline class="st3" points="455.5,152.7 455.5,241.5 458.9,241.5 	"/>
</g>
<g id="freepik--Mail--inject-190">
	<rect x="38.7" y="248.8" class="st4" width="191" height="124.1"/>
	<polygon class="st4" points="38.7,248.8 134.2,310.8 229.7,248.8 	"/>
	<line class="st3" x1="105.5" y1="292.2" x2="38.7" y2="372.8"/>
	<line class="st3" x1="163.4" y1="292.2" x2="230.2" y2="372.8"/>
</g>
<g id="freepik--Device--inject-190">
	<path class="st0" d="M331.9,90.5h-44.4c-2.6,0-5,1.4-6.3,3.7l0,0c-3.4,6.1-11,8.3-17.1,4.9c-2.1-1.1-3.8-2.9-4.9-4.9l0,0
		c-1.2-2.3-3.7-3.8-6.3-3.8h-44.4c-5.1-0.1-9.3,4-9.4,9.1c0,0,0,0,0,0V350c0.1,5.1,4.3,9.2,9.4,9.1h123.4c5.1,0.1,9.3-4,9.4-9.1
		V99.6C341.2,94.5,337,90.4,331.9,90.5z"/>
	<path class="st5" d="M345.6,96.9c0-7.1-5.7-12.8-12.8-12.9c0,0,0,0,0,0H207.6c-7.1,0-12.8,5.7-12.8,12.8c0,0,0,0,0,0l0,0V360
		c0,7.1,5.7,12.8,12.8,12.8h125.2c7.1,0,12.8-5.7,12.8-12.8l0,0V96.9z M341.3,350c-0.1,5.1-4.3,9.2-9.4,9.1H208.5
		c-5.1,0.1-9.3-4-9.4-9.1V99.6c0.1-5.1,4.3-9.2,9.4-9.2c0,0,0,0,0,0h44.4c2.6,0,5,1.4,6.3,3.8l0,0c3.4,6.1,11,8.3,17.1,4.9
		c2.1-1.1,3.8-2.9,4.9-4.9l0,0c1.3-2.3,3.7-3.7,6.3-3.7h44.4c5.1-0.1,9.3,4,9.4,9.1c0,0,0,0,0,0L341.3,350z"/>
	<polygon class="st6" points="303.1,84 219.9,372.8 253,372.8 333,84 	"/>
	<polygon class="st6" points="290.7,84 202.8,372.8 207.6,372.8 293.9,84 	"/>
	<path class="st4" d="M292.6,298.7c0.3,11.8-9.1,21.7-21,21.9c-0.2,0-0.4,0-0.5,0c-12.1,0-22-9.8-22.3-21.9
		c-0.2-11.8,9.2-21.7,21-21.9c0.2,0,0.3,0,0.5,0C282.5,276.9,292.4,286.6,292.6,298.7z"/>
	<path class="st7" d="M263.5,315.1c-2-0.8-3.9-1.9-5.5-3.4c-1.6-1.5-2.8-3.4-3.6-5.5c-0.9-2.3-1.3-4.8-1.3-7.3
		c0-2.1,0.4-4.2,1.1-6.2c0.7-1.8,1.7-3.5,3-5c2.6-2.8,5.9-4.8,9.6-5.8c1.8-0.5,3.7-0.7,5.5-0.7c1.6,0,3.1,0.2,4.6,0.5
		c1.5,0.4,2.8,0.9,4.1,1.7c1.3,0.8,2.4,1.7,3.4,2.9c1,1.2,1.8,2.6,2.3,4.1c0.6,1.7,0.8,3.5,0.8,5.3c0,3.5-1.3,6.8-3.5,9.5
		c-1,1.1-2.1,2-3.4,2.8c-1.1,0.6-2.3,1-3.6,1c-0.9,0-1.7-0.3-2.4-0.8c-0.7-0.5-1.1-1.4-1.1-2.3c-1.3,2-3.6,3.2-6,3.1
		c-1.9,0.1-3.7-0.7-5-2.1c-1.2-1.5-1.9-3.3-1.9-5.2c0-1.6,0.3-3.1,0.8-4.6c0.5-1.5,1.3-2.9,2.2-4.2c0.9-1.3,2.1-2.3,3.5-3
		c1.4-0.8,2.9-1.2,4.5-1.2c1.1,0,2.2,0.3,3.1,0.8c0.9,0.5,1.7,1.3,2.2,2.2l0.2-0.7c0.3-1,1.4-1.5,2.4-1.2c0.2,0.1,0.4,0.1,0.5,0.3
		c0.3,0.2,0.5,0.6,0.5,1c0,0.2,0,0.4-0.1,0.5l-3.2,10.8c-0.3,0.8-0.5,1.7-0.5,2.5c-0.1,0.5,0.3,1.1,0.8,1.2c0.1,0,0.3,0,0.4,0
		c1.1-0.1,2.2-0.6,3-1.4c1.1-1.1,1.9-2.4,2.4-3.8c0.6-1.6,0.9-3.2,0.9-4.9c0-1.5-0.2-2.9-0.6-4.4c-0.4-1.2-1-2.4-1.7-3.4
		c-0.7-0.9-1.6-1.7-2.6-2.3c-1-0.6-2.1-1.1-3.2-1.4c-1.2-0.3-2.4-0.5-3.6-0.5c-1.5,0-3.1,0.2-4.5,0.6c-1.5,0.4-3,1.1-4.3,1.9
		c-1.3,0.8-2.6,1.9-3.6,3.1c-1.1,1.2-1.9,2.7-2.5,4.2c-0.6,1.7-0.9,3.5-0.9,5.3c0,2.1,0.4,4.3,1.1,6.3c0.7,1.7,1.7,3.3,3.1,4.5
		c1.3,1.2,2.9,2,4.5,2.6c1.7,0.6,3.6,0.9,5.5,0.9c2,0,4-0.3,5.9-0.9c0.2-0.1,0.4-0.1,0.6-0.1c0.4,0,0.7,0.2,1,0.4
		c0.3,0.3,0.4,0.6,0.4,1c0,0.6-0.4,1.1-0.9,1.3c-2.4,0.7-4.8,1.1-7.3,1.1C268,316.3,265.7,315.9,263.5,315.1z M271.8,304.7
		c1-0.7,1.7-1.7,2.1-2.9l2.1-7.4l-0.1-0.3c-0.1-0.2-0.3-0.5-0.5-0.7c-0.3-0.3-0.5-0.6-0.8-0.8c-0.4-0.3-0.8-0.5-1.3-0.7
		c-1.2-0.4-2.5-0.4-3.6,0.1c-0.6,0.3-1.2,0.6-1.7,1.1c-0.5,0.5-1,1-1.4,1.6c-0.4,0.6-0.7,1.3-1,2c-0.3,0.7-0.5,1.4-0.6,2.1
		c-0.2,0.7-0.2,1.4-0.2,2.1c0,0.5,0,0.9,0.1,1.4c0,0.4,0.1,0.8,0.3,1.2c0.1,0.4,0.3,0.7,0.5,1c0.2,0.3,0.4,0.5,0.7,0.7
		c0.3,0.2,0.6,0.4,1,0.5c0.4,0.1,0.8,0.2,1.2,0.2C269.6,305.9,270.9,305.5,271.8,304.7L271.8,304.7z"/>
	<path class="st4" d="M292.2,223.6c0.2,11.8-9.2,21.7-21,21.9c-0.2,0-0.3,0-0.5,0c-12.1,0-22-9.8-22.3-21.9
		c-0.3-11.8,9.1-21.7,21-21.9c0.2,0,0.4,0,0.6,0C282,201.7,291.9,211.5,292.2,223.6z"/>
	<path class="st7" d="M284,221.6c-6.9-4.5-20.3-4.5-26.9,0c-2.5,0.5-4.2,2.7-4.1,5.2c0.1,2.9,12.2,2.9,12.1,0
		c-0.1-1.2-0.5-2.4-1.3-3.3c4.5-1,9.2-1,13.8,0c-0.7,0.9-1.1,2.1-1.1,3.3c0.1,2.9,12.2,2.9,12.1,0
		C288.4,224.2,286.5,222.1,284,221.6z"/>
	<path class="st4" d="M292.2,150.6c0.1,5.4-2.8,10.2-7.5,13.4v13.1l-9.4-9.4c-1.5,0.3-3.1,0.4-4.6,0.4c-12.1,0-22.1-7.8-22.3-17.5
		s9.4-17.5,21.5-17.5S292,141,292.2,150.6z"/>
	<path class="st7" d="M260.9,150.6c0,1.6-1.3,2.8-2.8,2.8s-2.8-1.3-2.8-2.8c0-1.6,1.3-2.8,2.8-2.8c0,0,0,0,0,0
		C259.6,147.8,260.9,149.1,260.9,150.6z"/>
	<path class="st7" d="M273.1,150.6c0,1.6-1.3,2.8-2.8,2.8s-2.8-1.3-2.8-2.8c0-1.6,1.3-2.8,2.8-2.8c0,0,0,0,0,0
		C271.8,147.8,273.1,149.1,273.1,150.6z"/>
	<path class="st7" d="M285.2,150.6c0,1.6-1.3,2.8-2.8,2.8s-2.8-1.3-2.8-2.8c0-1.6,1.3-2.8,2.8-2.8c0,0,0,0,0,0
		C283.9,147.8,285.2,149.1,285.2,150.6z"/>
</g>
<g id="freepik--character-1--inject-190">
	<path class="st7" d="M147.8,190.5c-0.4,0.7-0.9,1.2-1.5,1.6c-4.6,3.7-9.3,7.2-14.2,10.6c-1.8,1.2-3.6,2.5-5.3,3.9
		c-10.3,6.9-4,8.6-10.3,23.1l0,0c-1.5,3.5-1.2,20.5-1.2,20.5h-0.5c-1.2-1.2-2.5-2.3-3.8-3.3l0,0c-0.2-0.1-0.4-0.2-0.6-0.3l0,0
		c-0.2-0.1-0.4-0.2-0.6-0.2c-1-0.1-4.8,0.4-8.7,0.1l-1-0.1c-0.6-0.1-1.1-0.1-1.7-0.2s-1.1-0.2-1.6-0.4c-3.7-1.2-7.2-2.6-10.7-4.1
		l0,0l-1.7-0.8l-0.9-0.4l-0.8-0.3l-0.6-0.2l-0.5-0.2l0,0c-0.9-0.4-1.8-0.7-2.5-1c-0.4-0.1-0.7-0.2-1.1-0.3c0,0.8-0.1,1.7-0.2,2.5
		c-0.5,3.9-1.6,7.5-3.5,8c0,0-0.1,0-0.1,0c-0.2,0-0.3,0-0.5,0h-0.2c-0.4,0-0.8-0.1-1.2-0.2l0,0c-1.7-0.7-3.2-2.1-4-3.8
		c-0.4-0.7-0.6-1.5-0.6-2.3c0-2.9-0.8-20.1-0.8-25.1s1-13.8,3.5-17c1-1.4,2.2-2.6,3.6-3.5c1.8-1.5,3.9-2.7,6.2-3.4
		c2.7-0.9,8.6-3.1,12.8-4.7l0,0l-6.3,2.4c1.6,2.7,5,7,11.2,7.6c5.8,0.5,9.4-4.7,11.2-8.6c0.2,0.1,10.2-1.9,12.6-1.7
		c7.6,0.3,13.8-3.8,16.6-5.4c3.1-1.8,7.1-0.8,9,2.3c0.3,0.4,0.5,0.9,0.6,1.4v0.1C148.2,188.2,148.2,189.4,147.8,190.5z"/>
	<path class="st4" d="M108.9,190.6L108.9,190.6l-0.5-0.2L108.9,190.6z"/>
	<path class="st4" d="M117.4,254.7c0,0,0,0.1,0,0.1c-0.1,0.4-0.6,0.5-0.9,0.4c0,0-0.1,0-0.1-0.1c-0.5-0.3-1.2-1.9-1.2-1.9l-0.8-0.8
		l-0.5-0.5l0,0c0.1,0.2,0.7,1.7,0.4,2.4c0,0,0,0.1-0.1,0.1c-0.4,0.6-1.2,1-1.9,1l0,0c-0.4,0-1.7,0.1-2.8,0.2h-0.1c-0.3,0-0.7,0-1,0
		c-0.9-0.1-1.7-0.4-2.5-0.9c-1.8-0.3-3.5-0.7-5.2-1.2l-0.3-0.2l-0.3-0.2c-0.2-0.1-0.3-0.2-0.5-0.4c-0.6-0.5-1.1-1.1-1.5-1.8l0,0l0,0
		c0,0-4.1-0.2-9.5-0.6c-2-0.1-4.2-0.3-6.4-0.6c-3.4-0.4-6.3-0.3-8.5-0.6h-0.2c-0.4-0.1-0.8-0.1-1.2-0.2l0,0c-1.9-0.4-3.5-1.8-4-3.8
		c-0.1-0.4-0.2-0.9-0.3-1.4l1.7-3c0.9-0.7,1.9-1.3,3-1.7c1.7-0.7,3.5-0.9,5.3-0.5c0.4,0.1,0.7,0.2,1.1,0.3c0.8,0.3,1.6,0.6,2.5,1
		l0.6,0.2l0.6,0.2l0.8,0.3c4.5,1.8,9.8,4.2,13.3,5.2c1.1,0.3,2.2,0.5,3.3,0.6l1,0.1c3.8,0.3,7.7-0.2,8.7-0.1s3.5,2.4,5.1,3.9
		c0.4,0.4,0.8,0.7,1.1,0.9l0.1,0.1l0.1,0.1c0.6,0.6,1,1.3,1.2,2.1l0,0c0.1,0.3,0.1,0.5,0.2,0.8C117.4,254.5,117.5,254.6,117.4,254.7
		z"/>
	<path class="st4" d="M117.4,254.7c0,0,0,0.1,0,0.1c-0.2,0.4-0.6,0.5-0.9,0.4c0,0-0.1,0-0.1-0.1c-0.5-0.6-0.9-1.2-1.2-1.9l-0.8-0.8
		l-0.5-0.5l0,0c0.1,0.2,0.7,1.7,0.4,2.4c0,0,0,0.1-0.1,0.1c-0.1,0.1-0.2,0.3-0.4,0.4c-0.4,0.3-1,0.5-1.5,0.5l0,0
		c-0.4,0-1.7,0.1-2.8,0.2h-0.1c-0.3,0-0.7,0-1,0c-0.9-0.1-1.7-0.4-2.5-0.8c-1.8-0.3-3.5-0.7-5.2-1.2l-0.3-0.1l-0.3-0.2
		c-0.2-0.1-0.3-0.2-0.5-0.4c-0.6-0.5-1.1-1.1-1.6-1.8l0,0l0,0c0,0-3.9-0.2-9.3-0.6c-2-0.1-4.3-0.4-6.6-0.6c-3.2-0.3-5.8-0.4-7.9-0.7
		l-0.7-0.1l-0.8-0.2c-0.2-1.2,0-2.5,0.4-3.6c0.8-2,2.4-3.5,4.5-4.2l0,0c1.2-0.5,2.5-0.8,3.8-1.1l0,0l0.5,0.2l0.6,0.2l0.8,0.3
		c4.5,2,9.8,4.3,13.3,5.3c1.1,0.3,2.2,0.5,3.3,0.6l1,0.1c3.8,0.3,7.7-0.2,8.7-0.1s3.5,2.4,5,3.9c0.3,0.3,0.7,0.6,1.1,0.9l0.1,0.1
		l0.1,0.1c0.6,0.6,1,1.3,1.2,2.1l0,0c0.1,0.3,0.1,0.5,0.2,0.8C117.4,254.5,117.4,254.6,117.4,254.7z"/>
	<path class="st4" d="M105.5,252.1c0,0,2.3,1.2,3.2,1.6s0.8,2.1,0.8,2.1"/>
	<path class="st4" d="M107.9,250.5c1.4,1,2.8,2.1,4.1,3.3c0.4,0.5,0.5,1.1,0.3,1.7"/>
	<path class="st4" d="M113.9,251.8c-1.2-1.3-2.4-2.5-3.8-3.6"/>
	<path class="st4" d="M108.9,190.6c-1.8,3.8-5.4,9-11.2,8.6c-6.1-0.5-9.6-4.8-11.2-7.6c2.2-0.8,4.4-1.7,6.3-2.4l0,0
		c0-1.9-0.1-4.1-0.3-6.3c0-0.5-0.1-1-0.2-1.4s-0.1-0.8-0.2-1.1h11.6c0,0-0.1,0.5-0.2,1.2l0,0c-0.1,0.7-0.2,1.6-0.2,2.6
		c-0.1,1.4-0.2,3-0.1,4.5c0.6,0.2,1.1,0.4,1.7,0.6l1.1,0.4c0.4,0.2,0.9,0.3,1.3,0.4l1,0.3C108.7,190.5,108.8,190.6,108.9,190.6z"/>
	<path class="st5" d="M92.4,181.4c0,0,2.2,5.6,5.3,6.6s6-6.5,6-6.5s-4.4,4.7-6.1,4S92.5,181.5,92.4,181.4"/>
	<path class="st8" d="M90.6,150.3c-2.9,2.6-5.3,5.9-6.8,9.5c-1.4,3-2.6,6.4-1.5,9.6c0.7,1.6,1.6,3,2.8,4.2c2.2,2.6,5.2,9.8,7.3,12.4
		c0.1-4.6-3.7-12.1-3.3-15.9c0.5-3,1.5-5.9,2.9-8.6c1.5-3.5,3.4-6.8,5.7-9.8c1.3-1.6,5.5-4.4,1.3-4.7
		C96,146.8,92.7,148.5,90.6,150.3z"/>
	<path class="st4" d="M87.8,166c0,0-1.5-2.9-3.1-0.1c-1.1,2,0.5,5.1,1.2,6.3c0.5,0.7,1.3,1.1,2.1,1L87.8,166z"/>
	<path class="st4" d="M107.4,176.4c-1,1.9-2.2,3.6-3.7,5.1l-0.9,0.9c-1.9,1.8-3.9,3.3-5.2,3c-1.2-0.2-2.7-1.4-4.1-2.9
		c-0.4-0.4-0.7-0.8-1.1-1.2l0,0c-1.6-1.8-3-3.7-4.1-5.8c-0.3-0.8-0.5-1.6-0.6-2.4c-0.3-2.5-0.3-5-0.3-7.5c0-0.9,0-1.6,0-2
		c0-1.7,6.5-7.8,6.5-7.8c0.2-0.1,0.4-0.1,0.6-0.1c1.1,0.2,2.2,0.6,3.2,1.1c3.9,1.9,9.5,5.7,9.9,7.2
		C108.2,166.2,108,174.6,107.4,176.4z"/>
	<path class="st5" d="M94.5,168.4c0,0.7-0.3,1.3-0.6,1.3s-0.6-0.6-0.6-1.3s0.3-1.3,0.6-1.3S94.5,167.7,94.5,168.4z"/>
	<path class="st5" d="M101.9,167.1c0.3,0,0.6,0.6,0.6,1.3s-0.3,1.3-0.6,1.3s-0.6-0.6-0.6-1.3S101.6,167.1,101.9,167.1z"/>
	<path class="st3" d="M90.8,165.3c0,0,1-2,4.5-1.4"/>
	<path class="st3" d="M105.2,165.3c0,0-1-2-4.5-1.4"/>
	<path class="st3" d="M98.7,173.3c0.7,0,1.4-0.6,1.5-1.3c0,0-1.9-3-1.3-5.9"/>
	<path class="st9" d="M86.6,159c-0.8,1.1-1.4,2.3-1.8,3.6"/>
	<path class="st9" d="M94.9,151c0,0-1.1,1.8-6,5.6c-0.3,0.2-0.6,0.5-0.9,0.7"/>
	<path class="st8" d="M79.3,209.6c-0.7,9.5-1.3,19-2,28.5v-0.7"/>
	<path class="st4" d="M142.4,178.2c1.8-0.7,3.9-0.5,5.5,0.6c1.6,1.1,2.8,2.8,3.3,4.6c0.6,1.9,0.6,3.9-0.2,5.7
		c-0.8,1.8-2.5,3.1-4.5,3.3c-1.5,0-2.9-0.5-4-1.4C138.8,188.3,136.9,180.6,142.4,178.2z"/>
	<path class="st4" d="M150.7,146.3c0,0.1,0,0.9,0.1,1.1c0.4,1.5,1.1,5.4-0.8,6.2c0.7,2.5,2.4,19.1,2.2,27.5
		c-0.1,2.5-0.5,5.5-2.8,6.6c-3.8,1.8-7.4-2.6-7-6.1c0.7-4.7,0.4-9.5,1-14.3c0.6-4.9,1.7-10,0.5-14.8c-0.3-0.3-2.2-4.1-2.9-5.2
		c-0.3-0.4-0.5-0.9-0.7-1.4c-0.2-1.7-0.4-3.5-0.4-5.2c0.6-1.1,1.3-0.1,1.7,0.6c0.3,0.9,0.4,1.8,0.3,2.7c0,0.2,0,0.5,0.1,0.7
		c0.2,0.2,0.5,0.4,0.8,0.3c1.2-0.2,1.2-1.2,1.2-2c0-2.6,0-5.3,0-7.9c0-0.4,0.1-1.6,0.6-1.7s1.1,0.3,1.1,1.7c0.1,1.6,0.1,6.5,0.1,6.5
		c0.1,0.1,0.2,0.1,0.3,0.1c0.1,0,0.1-0.2,0.2-0.3c0.6-2.5,1.2-4.9,1.8-7.4c0.1-0.3,0.5-0.9,0.8-0.9c0.7,0,0.8,0.9,0.8,1.1
		c0.3,1.3-1.6,6.8-1.9,8c0,0.2,0,0.6,0.2,0.5l2.9-5.9c0.3-0.7,0.9-1.2,1.6-1.4c0,0,0.1,0,0.1,0c0.1,0,0.1,0.1,0.1,0.1
		c0.3,0.5,0,1.2-0.2,1.7s-2.3,4.6-3.1,6.2c-0.1,0.2-0.3,0.8-0.1,1s0.6-0.2,0.8-0.6c0.5-1,0.9-1.9,1.4-2.9c0.1-0.3,0.4-0.7,0.7-0.6
		C154.3,140.8,151.5,144.9,150.7,146.3z"/>
	<path class="st4" d="M145.3,145.4c1,0.8,1.9,1.7,2.6,2.8c0.7,1.1,0.9,2.4,0.6,3.7c0,0.2-0.1,0.3-0.2,0.5"/>
	<path class="st3" d="M117.2,207.9c1.1,2.1,1.8,4.4,2.1,6.8c0.3,2.4,0.4,4.2-1.2,10.8"/>
	<path class="st8" d="M94.6,154.3c-0.1,0.4-0.2,0.8-0.1,1.3c0.2,0.5,0.5,1,1,1.3c3.2,2.8,6.8,5.1,10.6,6.9c1,0.3,1.6,1.2,1.5,2.3
		v7.7c0,0.8,0,1.6-0.2,2.4c-0.6,1.8-1.8,3.3-2.7,4.9c-0.9,1.6-1.4,3.4-1.3,5.2c-0.3-1.9,6.4-5.6,8.2-13.1c0.3-1.1,5.4-7.4,2.3-14.8
		c-3-7.1-7.7-10.2-9.3-10.5c-2.2-0.6-4.6-0.2-6.3,1.2C96.5,150.4,95.2,152.2,94.6,154.3z"/>
	<path class="st3" d="M101.1,176c-0.6,0.1-1.2,0.2-1.7,0.3c-2,0.3-4.1-0.1-5.4-1.5c0.1,1.3,1,6.3,3.7,6.4S101.1,176,101.1,176z"/>
	<path class="st9" d="M98.5,151.3c1.2,2.6,3,4.9,5.3,6.5c1.7,1.2,3.6,2.1,5.2,3.5c2,1.8,3.3,4.7,2.5,7.4"/>
	<path class="st3" d="M119.4,191.7c-1.9,1.5-3.2,3.8-3.6,6.2c-0.3,2.1-0.1,4.3,0.8,6.3"/>
	<path class="st8" d="M82.2,208.2c-0.2,2.6-1.8,4.9-3.4,7"/>
	<path class="st3" d="M78.3,228.2c1.6,2.7,4.3,4.6,7.3,5.2"/>
	<path class="st3" d="M116.6,229.8c0,0-2.7,4-11.8,4.8"/>
</g>
<g id="freepik--character-2--inject-190">
	<path class="st2" d="M384.3,194.8c0,0-34.9,10.8-41.4,2.3l0.9-43.5h5.3l6.2,30.6l28.6-5.2C383.9,178.9,387.5,190.3,384.3,194.8z"/>
	<g>
		<defs>
			<path id="SVGID_1_" d="M384.3,194.8c0,0-34.9,10.8-41.4,2.3l0.9-43.5h5.3l6.2,30.6l28.6-5.2C383.9,178.9,387.5,190.3,384.3,194.8
				z"/>
		</defs>
		<clipPath id="SVGID_2_">
			<use xlink:href="#SVGID_1_"  style="overflow:visible;"/>
		</clipPath>
		<g class="st10">
			<path class="st0" d="M369.6,196.3c-2,0.8-3.9,1.8-5.7,3c2.4,0.8,4.9-0.2,7.2-0.9c3.1-1,6.3-1.7,9.5-2.2c0.1-0.9-1-2.9-1.5-3.7
				c-0.8-1.4-1-1.5-2.4-0.8C374.3,192.8,372.2,195,369.6,196.3z"/>
		</g>
	</g>
	<path class="st3" d="M384.3,194.8c0,0-34.9,10.8-41.4,2.3l0.9-43.5h5.3l6.2,30.6l28.6-5.2C383.9,178.9,387.5,190.3,384.3,194.8z"/>
	<path class="st2" d="M380.9,195.9l6.1,37.7c-0.2,24.4,11.5,20.8,19.6,20.7c9.4-0.1,23.5-9.4,16.6-23.8l2.7-52.2l-16.3-1.2
		c-5.4-0.4-27.4,0.3-29.1,3.1C375.9,187.4,380.9,195.9,380.9,195.9z"/>
	<g>
		<defs>
			<path id="SVGID_3_" d="M380.9,195.9l6.1,37.7c-0.2,24.4,11.5,20.8,19.6,20.7c9.4-0.1,23.5-9.4,16.6-23.8l2.7-52.2l-16.3-1.2
				c-5.4-0.4-27.4,0.3-29.1,3.1C375.9,187.4,380.9,195.9,380.9,195.9z"/>
		</defs>
		<clipPath id="SVGID_4_">
			<use xlink:href="#SVGID_3_"  style="overflow:visible;"/>
		</clipPath>
		<g class="st11">
			<path class="st0" d="M381.8,199c3.6,13.7,12.4,25.6,24.4,33.2c-1.3-0.2-2.6-0.6-3.8-1.1c-1.2-0.5-2.6-0.6-3.9-0.2
				c-1.3,0.5-2,1.9-1.5,3.2c0,0,0,0,0,0c0.3,0.5,0.7,0.9,1.2,1.1c2,1.4,4.2,2.5,6.5,3.3c-2-0.2-4-0.1-6,0.5c-0.4,1.7,1.6,3,3.1,3.9
				c2.4,1.4,4.5,3.4,6.1,5.8c-5.4,0-10.7,0.3-16.1,0.9c-0.7,0.2-1.4,0.1-2.1-0.2c-0.7-0.5-1.2-1.3-1.3-2.1
				c-1.2-4.2-1.9-8.4-2.1-12.8c-0.1-2.4,0-4.9-0.3-7.3c-0.3-1.9-0.6-3.8-1.1-5.6c-1.6-7.2-2.7-14.5-3.6-21.8
				C381.1,199.7,381.8,199,381.8,199z"/>
			<path class="st0" d="M423.1,196c-1.3-0.4-2.6-1.1-3.7-2c0.3,1.5,2.5,4.1,3.9,4.9c0.3,0.2,0.7,0.3,0.9,0.1s0.4-0.8,0.6-1
				L423.1,196z"/>
		</g>
	</g>
	<path class="st3" d="M380.9,195.9l6.1,37.7c-0.2,24.4,11.5,20.8,19.6,20.7c9.4-0.1,23.5-9.4,16.6-23.8l2.7-52.2l-16.3-1.2
		c-5.4-0.4-27.4,0.3-29.1,3.1C375.9,187.4,380.9,195.9,380.9,195.9z"/>
	<path class="st7" d="M392.8,176.2c-1.8,3.2-2.6,6.8-2.4,10.5c0,0.3,0.1,0.6,0.2,0.9c0.5,0.9,1.7,0.9,2.7,1c3.9,0.5,6.2,4.6,9.9,5.9
		c0.5,0.3,1.2,0.2,1.5-0.4c0,0,0,0,0,0c1.6-2,2.1-4.8,4.3-6.1c0.9-0.6,2.1-0.8,2.8-1.7c0.7-1,0.4-2.4,0-3.7c-0.6-2-1.3-4.1-2.8-5.5
		c-1.6-1.3-3.6-2-5.7-2c-3-0.2-6.1,0-9,0.8C394.3,176.5,392.8,176.2,392.8,176.2z"/>
	<path class="st2" d="M441.2,201.8c-2.4-3.6-4.2-7.5-5.3-11.7c-0.4-2.1-1-4.1-1.8-6.1c-1.6-3.1-4.5-5.2-7.9-5.9
		c-0.7-0.2-1.5-0.1-2.2,0.1c-1.5,0.6-2.1,2.2-2.4,3.7c-0.6,3.3-0.4,6.6,0.5,9.8c0.7,2.2,8.7,17.8,14,23.9
		C435.7,212.6,439.2,202.4,441.2,201.8z"/>
	<g>
		<defs>
			<path id="SVGID_5_" d="M441.2,201.8c-2.4-3.6-4.2-7.5-5.3-11.7c-0.4-2.1-1-4.1-1.8-6.1c-1.6-3.1-4.5-5.2-7.9-5.9
				c-0.7-0.2-1.5-0.1-2.2,0.1c-1.5,0.6-2.1,2.2-2.4,3.7c-0.6,3.3-0.4,6.6,0.5,9.8c0.7,2.2,8.7,17.8,14,23.9
				C435.7,212.6,439.2,202.4,441.2,201.8z"/>
		</defs>
		<clipPath id="SVGID_6_">
			<use xlink:href="#SVGID_5_"  style="overflow:visible;"/>
		</clipPath>
		<g class="st12">
			<path class="st0" d="M425.4,198.7l4.9,9.3c0.7,1.3,1.5,2.8,2.9,3.3c-0.9-3.1-1.4-6.2-1.5-9.4c0.1-1.6-0.1-3.2-0.5-4.8
				c-0.2,0.2-0.4-0.6-0.4-0.6c-0.2,0.4-0.8,0.4-1.3,0.3c-3.2-0.7-5.5-3.6-7.4-6.2c-0.5,1.8-0.1,3.8,1,5.3
				C423.2,196,425.2,198.4,425.4,198.7z"/>
		</g>
	</g>
	<path class="st3" d="M441.2,201.8c-2.4-3.6-4.2-7.5-5.3-11.7c-0.4-2.1-1-4.1-1.8-6.1c-1.6-3.1-4.5-5.2-7.9-5.9
		c-0.7-0.2-1.5-0.1-2.2,0.1c-1.5,0.6-2.1,2.2-2.4,3.7c-0.6,3.3-0.4,6.6,0.5,9.8c0.7,2.2,8.7,17.8,14,23.9
		C435.7,212.6,439.2,202.4,441.2,201.8z"/>
	<path class="st4" d="M434.3,213c-5.4-10.3-2.8-34.1-2.9-37.9l7.1-0.4c0.7,0,4,20.3,6.2,28.7c2,7.7,0.1,15.4-3.5,15.4
		C438.3,218.8,435.4,215.2,434.3,213z"/>
	<path class="st3" d="M370.1,186.2c5-7.3,14.8-7.9,14.8-7.9"/>
	<path class="st4" d="M350.9,190.3c1.5-1.4,2.7-3.1,3.5-5"/>
	<path class="st3" d="M388,224.8c2.9,4.7,21.3,9.7,28.7,8.6"/>
	<path class="st3" d="M393.2,238c5.3,0.9,10.8,0.7,16-0.6"/>
	<path class="st3" d="M417.7,192.7l3.5,4.8c0.5,0.6,1.1,1.4,1.9,1.2"/>
	<path class="st4" d="M443.9,373.6c-0.3,1.3-0.4,2.8,0.5,3.7s2.2,0.9,3.5,0.9l4.2-0.1c1.6,0.1,3.3-0.2,4.8-0.8
		c1.6-0.6,2.6-2.1,2.5-3.8c-0.1-0.6-0.3-1.2-0.6-1.8c-0.4-0.8-0.8-1.6-1.1-2.5C453,359,445.9,365.3,443.9,373.6z"/>
	<path class="st4" d="M437.9,361.5c0.1,4.7-0.2,9.4-1.2,14.1c-0.2,1,0,2.6,1,2.5c0.4-0.1,0.7-0.3,1-0.6c3.7-3.6,6.3-8.2,7.6-13.2
		c0.4-1,0.4-2.2-0.1-3.2c-0.3-0.4-0.6-0.8-1-1.1C441.8,357.4,437.6,354.7,437.9,361.5z"/>
	<path class="st5" d="M426.3,240.6c0,0,5.3,9.2,6.4,11.3s25,33.5,29.6,56.3c0.9,4.3-16.8,52.9-16.8,52.9l-4-2.3c0,0,2.8-44.3,2.1-48
		s-18.3-30.8-18.3-30.8s-9.8-7.2-13.9-15.6L426.3,240.6z"/>
	<path class="st5" d="M426.9,263.6c0,0-3,6.7-3,7.6s16.5,53.1,21.4,65.2c3.1,7.8,5.8,15.7,8.1,23.8c3.5,12.2,1.9,2.5,0.5,5
		s-7.1,4.2-8.2,1.9s-12.6-14-17.4-25.7s-11.6-31.2-15.5-38.5c-5.1-9.3-9.5-18.9-13.4-28.7c-4.9-12.4-9.8-25.8-9.8-25.8
		c2,0.2,4,0.2,6.1,0.2c4.8-0.2,9.5-1,14-2.5c10.5-3.5,15.1-10.3,15.1-10.3s2.6,7.1,3.3,8.4L426.9,263.6z"/>
	<path class="st9" d="M460.5,312.7c-1,1.8-2.4,3.3-4.1,4.5"/>
	<path class="st9" d="M461.8,309.8c-0.2,0.5-0.3,1-0.5,1.4"/>
	<path class="st9" d="M417.3,248c2.7,4.6,5.1,11.2,4.8,16.5c-0.2,1-0.6,1.9-1,2.8"/>
	<path class="st9" d="M401.2,253.1c0.3,2.5,0.7,6.8,0.1,9.3c-0.5,2.6-1.9,4.8-4.1,6.3"/>
	<path class="st9" d="M423.9,243.4c0.6,0.7,1.1,1.5,1.4,2.4c1.4,2.5,3.7,4.3,6.5,4.9"/>
	<path class="st9" d="M415.4,253.7c3.5,7.7,6.2,15.5,11.7,28.6"/>
	<path class="st9" d="M413.5,249.7c0.3,0.6,0.6,1.2,0.9,1.8"/>
	<path class="st9" d="M442.9,308.8c1.6,3.1,3.7,6,6.1,8.5"/>
	<path class="st9" d="M444.6,311.6c1.1,4.9,3,9.6,5.7,13.8"/>
	<path class="st9" d="M419.7,311.9c-7.8-16.6-16.1-33.1-26.3-58.2"/>
	<path class="st9" d="M421.5,316.7c-0.2-0.6-0.4-1.2-0.6-1.8"/>
	<path class="st9" d="M448.4,367.8c-2-2.6-16.6-23-20.2-32.2c-2.4-6.2-4.2-10.5-6-16.6"/>
	<line class="st9" x1="442.9" y1="328.6" x2="449.9" y2="349"/>
	<path class="st4" d="M438.3,174.7l-2.1,0.2c-2.7,0.5-5.4,0.3-8-0.4c-1.7-0.4-5.5-1.6-6-1.7c-1.1-0.2-2.3-0.4-3.5-0.6
		c-3.5-0.2-1.7-1.5-0.3-1.5c1.9,0.1,2.6,0.1,4.1,0.2c-0.2-0.1-0.7-0.2-0.7-0.6c0-1.1,1.4-1,1.4-1s-1.5-0.6-1.3-1.4s1.2-1,1.9-0.9
		c0,0-0.9-0.4-0.8-0.9c0.2-1.7,3.7-1.8,3.7-1.8c-0.8-0.4-1.6-0.9-2.4-1.4c-0.3-0.3-0.4-0.6-0.5-1c-0.1-0.5,0.3-1,0.9-1.1
		c0.2,0,0.4,0,0.6,0.1c0.9,0.6,1.8,1.2,2.6,1.9c1.1,0.8,2.3,1.3,3.5,1.9c1.1,1,2,2.1,2.6,3.4C434,168.5,438.3,174.7,438.3,174.7z"/>
	<path class="st4" d="M343.8,153.5V148c0-2.8,0.4-5.5,1.2-8.2c0.5-1.5,1-2.7,1.5-2.9c0.9-0.3,1.3,3.4,1.3,3.4c-0.7-3-1.1-6-1.3-9
		c0-3.2,4.3,10.1,4.3,10.1l-1.7,12.1H343.8z"/>
	<path class="st4" d="M349,144.6c0.5-0.4,0.9-1,1.1-1.6"/>
	<path class="st4" d="M390.9,165c1.9,3.1,2.9,6.7,3,10.4c0.2,6.1,7.2,14.6,9.2,15s3.9-9.6,3.8-12.6s-1.2-11.4-1.2-11.4
		S396,159.1,390.9,165z"/>
	<path class="st5" d="M393.7,173.1c0,0,9.2,12.6,12.9-0.2S396.4,176.3,393.7,173.1z"/>
	<path class="st4" d="M409.3,164c-0.5,7.5-3.9,11.7-7.8,12.4c-3.6,0.7-8.8-3-11.5-8.4l0,0c-0.2-0.1-3.4-2.3-4.1-2.9
		c-0.8-0.6-1.3-1.5-1.3-2.5c0.1-1,0.7-1.8,1.6-2.1h0.1c0.5-0.1,0.9-0.1,1.4,0.1c-0.7-2.6-1.2-5.1-1.6-7.8c0.2-6,2.2-10.9,8.6-11.4
		s11.8,3.1,12,5.7c0.2,2,0.8,7.3,1.4,12.8C408.1,161.4,409.4,162.3,409.3,164z"/>
	<path class="st4" d="M406.6,155.4c0,0-4.1-1.9-3.4,4.3c0.1,1.2,2.4,3,2.4,3s-0.6,1.8-1.6,1.8"/>
	<path class="st4" d="M398.6,157.5c0,0-2.1-1.3-3.5-0.5c-0.8,0.3-1.4,0.9-1.8,1.6"/>
	<path class="st5" d="M397.4,161c0.2,0.7,0,1.4-0.4,1.5s-0.9-0.4-1-1.2s0-1.4,0.4-1.5S397.3,160.3,397.4,161z"/>
	<path class="st5" d="M405.5,158.8c0.2,0.7,0,1.4-0.4,1.5s-0.9-0.4-1-1.2s0-1.4,0.4-1.5S405.4,158.1,405.5,158.8z"/>
	<path class="st8" d="M385.5,145.1c-0.7,0.7-1.2,1.6-1.5,2.6c-1.2,4.3-0.7,8.8,1.5,12.7c0.7-0.1,1.3-0.1,2,0.1
		c0.7,0.2,1.6,1.4,1.9,2c0.3,0.7,0.5,1.4,0.5,2.1c-0.2-1.9-0.3-3.8-0.5-5.7c-0.1-0.8-0.1-1.5,0.1-2.3l0,0c0.5-1.6,0-5.2,0.1-8.5
		c4.1,5.1,10.2,4.2,12.2,4c3-0.3,5.6-3.3,5.4-5.5s-0.8-7.8-10.6-8.4c-2.2-0.2-4.4,0.2-6.3,1.3c-1.2,0.8-2,2.1-2.3,3.5
		c-0.1,0.9,0.2,1-0.5,1.4S386.2,144.6,385.5,145.1z"/>
	<path class="st4" d="M398.6,167.9c0,0,1.5,1.6,4.5,0.6"/>
</g>
</svg>
