<svg xmlns="http://www.w3.org/2000/svg" xmlns:xlink="http://www.w3.org/1999/xlink" width="75" height="75" viewBox="0 0 75 75">
  <defs>
    <linearGradient id="linear-gradient" x1="0.974" y1="0.238" x2="-0.052" y2="0.609" gradientUnits="objectBoundingBox">
      <stop offset="0" stop-color="#fff"/>
      <stop offset="1" stop-color="#006bc0" stop-opacity="0.071"/>
    </linearGradient>
  </defs>
  <g id="Custom_Web_Development" data-name="Custom Web Development" transform="translate(-178 -2614)">
    <g id="Group_7613" data-name="Group 7613" transform="translate(-10 1262.466)">
      <circle id="Ellipse_421" data-name="Ellipse 421" cx="37.5" cy="37.5" r="37.5" transform="translate(188 1351.534)" opacity="0.42" fill="url(#linear-gradient)"/>
    </g>
    <g id="Custom_Web_Development-2" data-name="Custom Web Development" transform="translate(198.5 2628.5)">
      <path id="Path_52142" data-name="Path 52142" d="M34.736,0V8.37L0,6.278V3.139A3.139,3.139,0,0,1,3.139,0Z" fill="#95b0ed"/>
      <path id="Path_52143" data-name="Path 52143" d="M413.278,0h-4.708L407,12.555l9.416-3.139V3.139A3.139,3.139,0,0,0,413.278,0Z" transform="translate(-364.417)" fill="#5c2bc8"/>
      <path id="Path_52144" data-name="Path 52144" d="M44.152,0H34.736a4.708,4.708,0,0,0-4.708,4.708V6.278H0V9.416l3.139,3.139H48.86V4.708A4.708,4.708,0,0,0,44.152,0Z" fill="#4e4cd3"/>
      <path id="Path_52145" data-name="Path 52145" d="M359.555,90,347,105.8l12.555,15.8h2.354a.785.785,0,0,0,.785-.785V90Z" transform="translate(-310.695 -80.584)" fill="#95b0ed"/>
      <path id="Path_52146" data-name="Path 52146" d="M0,90v30.812a.785.785,0,0,0,.785.785H48.86v-3.139L42.583,105.8l6.278-12.66V90Z" transform="translate(0 -80.584)" fill="#acd2f6"/>
      <path id="Path_52147" data-name="Path 52147" d="M383.278,120,377,132.66l6.278,12.66h3.139V120Z" transform="translate(-337.556 -107.445)" fill="#c4f3ff"/>
      <path id="Path_52148" data-name="Path 52148" d="M30,120v25.319h6.445l16.416-2.093,16.206,2.093h3.516V120Z" transform="translate(-26.861 -107.445)" fill="#fff"/>
      <circle id="Ellipse_579" data-name="Ellipse 579" cx="2" cy="2" r="2" transform="translate(45.5 2.5)" fill="#05ff77"/>
      <ellipse id="Ellipse_580" data-name="Ellipse 580" cx="1.5" cy="2" rx="1.5" ry="2" transform="translate(39.5 2.5)" fill="#ffd06a"/>
      <ellipse id="Ellipse_581" data-name="Ellipse 581" cx="1.5" cy="2" rx="1.5" ry="2" transform="translate(33.5 2.5)" fill="#ff545a"/>
      <path id="Path_52149" data-name="Path 52149" d="M111.721,176.744l1.794-1.794a.782.782,0,0,0,.078-1.02,17.36,17.36,0,0,0-3.5-3.5.782.782,0,0,0-1.02.078l-1.794,1.794a14.042,14.042,0,0,0-4.38-1.816v-2.537a.782.782,0,0,0-.666-.776,17.4,17.4,0,0,0-4.945,0,.782.782,0,0,0-.666.776v2.537a14.042,14.042,0,0,0-4.38,1.816l-1.794-1.794a.782.782,0,0,0-1.02-.078,17.36,17.36,0,0,0-3.5,3.5.782.782,0,0,0,.078,1.02l1.794,1.794a14.042,14.042,0,0,0-1.816,4.38H83.452a.782.782,0,0,0-.776.666,17.41,17.41,0,0,0,0,4.946.782.782,0,0,0,.776.666h2.537a14.042,14.042,0,0,0,1.816,4.38l-1.794,1.794a.782.782,0,0,0-.078,1.02,17.361,17.361,0,0,0,3.5,3.5.782.782,0,0,0,1.02-.078l1.794-1.794a14.039,14.039,0,0,0,4.38,1.816v2.537a.782.782,0,0,0,.666.776,17.408,17.408,0,0,0,4.945,0,.782.782,0,0,0,.666-.776v-2.537a14.041,14.041,0,0,0,4.38-1.816l1.794,1.794a.782.782,0,0,0,1.02.078,17.358,17.358,0,0,0,3.5-3.5.782.782,0,0,0-.078-1.02l-1.794-1.794a14.042,14.042,0,0,0,1.816-4.38h2.537a.782.782,0,0,0,.776-.666,17.41,17.41,0,0,0,0-4.945.782.782,0,0,0-.776-.666h-2.537A14.04,14.04,0,0,0,111.721,176.744Z" transform="translate(-73.868 -149.527)" fill="#7d8fe5"/>
      <path id="Path_52150" data-name="Path 52150" d="M247.5,227c2.6,0,4.708,4.918,4.708,10.986s-2.108,10.986-4.708,10.986a10.986,10.986,0,0,0,0-21.971Z" transform="translate(-221.605 -203.25)" fill="#4e4cd3"/>
      <path id="Path_52151" data-name="Path 52151" d="M161.333,237.986c0-6.067-3.513-10.986-7.847-10.986a10.986,10.986,0,0,0,0,21.971C157.819,248.971,161.333,244.053,161.333,237.986Z" transform="translate(-127.591 -203.25)" fill="#666ddc"/>
      <circle id="Ellipse_582" data-name="Ellipse 582" cx="3.139" cy="3.139" r="3.139" transform="translate(22.756 31.597)" fill="#fff"/>
    </g>
  </g>
</svg>
