<svg xmlns="http://www.w3.org/2000/svg" xmlns:xlink="http://www.w3.org/1999/xlink" width="78" height="77" viewBox="0 0 78 77">
  <defs>
    <linearGradient id="linear-gradient" x1="0.974" y1="0.238" x2="-0.052" y2="0.609" gradientUnits="objectBoundingBox">
      <stop offset="0" stop-color="#fff"/>
      <stop offset="1" stop-color="#006bc0" stop-opacity="0.071"/>
    </linearGradient>
  </defs>
  <g id="Ai_mL" data-name="Ai mL" transform="translate(-187.529 -1358.734)">
    <ellipse id="Ellipse_381" data-name="Ellipse 381" cx="39" cy="38.5" rx="39" ry="38.5" transform="translate(187.529 1358.734)" opacity="0.42" fill="url(#linear-gradient)"/>
    <g id="Ai_Ml-2" data-name="Ai/Ml" transform="translate(201.196 1372.734)">
      <path id="Path_52252" data-name="Path 52252" d="M22,0c-.537,0-1.041.1-1.564.139A18.727,18.727,0,0,0,3.615,15.1a19.359,19.359,0,0,0,.263,8.834L0,30.5l6.36,4.584V44.3h6.256V54H34.51V47.333c0-6.481,1.562-13.345,4.776-20.984A19,19,0,0,0,22,0Z" fill="#66b3ff"/>
      <path id="Path_52253" data-name="Path 52253" d="M210.765,47.333c0-6.481,1.639-13.345,5.01-20.984a18.131,18.131,0,0,0,1.552-7.365C217.328,8.573,208.622.02,197.641,0c-.564,0-1.092.1-1.641.139V54h14.765Z" transform="translate(-175.799)" fill="#4d88ff"/>
      <path id="Path_52254" data-name="Path 52254" d="M256,180h19.8v3.281H256Z" transform="translate(-230 -161.059)" fill="#cce6ff"/>
      <path id="Path_52255" data-name="Path 52255" d="M426.922,159.844a4.922,4.922,0,1,1,4.922-4.922A4.927,4.927,0,0,1,426.922,159.844Z" transform="translate(-377.844 -134.305)" fill="#4d88ff"/>
      <path id="Path_52256" data-name="Path 52256" d="M222.16,247.043l-3.762-3.762H196V240h23.757l4.723,4.723Z" transform="translate(-176.562 -214.822)" fill="#cce6ff"/>
      <path id="Path_52257" data-name="Path 52257" d="M426.922,279.844a4.922,4.922,0,1,1,4.922-4.922A4.927,4.927,0,0,1,426.922,279.844Z" transform="translate(-377.844 -241.748)" fill="#4d88ff"/>
      <path id="Path_52258" data-name="Path 52258" d="M219.757,92.649H196V89.368h22.4l3.762-3.762,2.32,2.32Z" transform="translate(-176.562 -76.625)" fill="#cce6ff"/>
      <path id="Path_52259" data-name="Path 52259" d="M426.922,39.844a4.922,4.922,0,1,1,4.922-4.922A4.927,4.927,0,0,1,426.922,39.844Z" transform="translate(-377.844 -26.719)" fill="#4d88ff"/>
      <ellipse id="Ellipse_587" data-name="Ellipse 587" cx="7.983" cy="8.33" rx="7.983" ry="8.33" transform="translate(12.752 12.08)" fill="#e6f7ff"/>
      <path id="Path_52260" data-name="Path 52260" d="M204.2,128.2A8.213,8.213,0,0,0,196,120v16.406A8.213,8.213,0,0,0,204.2,128.2Z" transform="translate(-175.459 -107.538)" fill="#cce6ff"/>
      <ellipse id="Ellipse_588" data-name="Ellipse 588" cx="4.859" cy="5.207" rx="4.859" ry="5.207" transform="translate(16.164 15.488)" fill="#66b3ff"/>
      <path id="Path_52261" data-name="Path 52261" d="M200.922,154.922A4.927,4.927,0,0,0,196,150v9.844A4.927,4.927,0,0,0,200.922,154.922Z" transform="translate(-175.402 -134.305)" fill="#4d88ff"/>
      <path id="Path_52262" data-name="Path 52262" d="M182.641,180H181v3.281h3.281V180Z" transform="translate(-161.954 -161.059)" fill="#e6f7ff"/>
      <path id="Path_52263" data-name="Path 52263" d="M196,180h1.641v3.281H196Z" transform="translate(-175.351 -161.059)" fill="#cce6ff"/>
    </g>
  </g>
</svg>
