<svg xmlns="http://www.w3.org/2000/svg" xmlns:xlink="http://www.w3.org/1999/xlink" width="74" height="74" viewBox="0 0 74 74">
  <defs>
    <linearGradient id="linear-gradient" x1="0.974" y1="0.238" x2="-0.052" y2="0.609" gradientUnits="objectBoundingBox">
      <stop offset="0" stop-color="#fff"/>
      <stop offset="1" stop-color="#006bc0" stop-opacity="0.071"/>
    </linearGradient>
  </defs>
  <g id="Api_Integration" data-name="Api Integration" transform="translate(-187.662 -1357.662)">
    <circle id="Ellipse_376" data-name="Ellipse 376" cx="37" cy="37" r="37" transform="translate(187.662 1357.662)" opacity="0.42" fill="url(#linear-gradient)"/>
    <g id="Api_Integration-2" data-name="Api Integration" transform="translate(205.162 1366.815)">
      <g id="Group_65438" data-name="Group 65438" transform="translate(6.186 8.845)">
        <path id="Path_52175" data-name="Path 52175" d="M49.151,24.873a12.8,12.8,0,0,0,.2-2.21,13.033,13.033,0,0,0-24.721-5.776A7.436,7.436,0,0,0,13.946,23.6a7.7,7.7,0,0,0,.117,1.294A10.234,10.234,0,0,0,16.228,45h30.83a10.233,10.233,0,0,0,2.093-20.122Z" transform="translate(-6.49 -9.62)" fill="#8aba55"/>
      </g>
      <g id="Group_65439" data-name="Group 65439" transform="translate(3.5 2)">
        <path id="Path_52176" data-name="Path 52176" d="M8.423,23.434l2.551-1.824a9.575,9.575,0,0,0,1.563.656l.359,2.129c.287-.108.575-.2.871-.278a7.7,7.7,0,0,1-.117-1.294,7.445,7.445,0,0,1,1.5-4.474,4.671,4.671,0,1,1,4.7-4.671,4.513,4.513,0,0,1-.4,1.877,7.7,7.7,0,0,1,1.653-.189,7.334,7.334,0,0,1,3.225.746,13.184,13.184,0,0,1,2.533-3.494v-1.06l-3.09-.512a8.574,8.574,0,0,0-.656-1.563l1.824-2.551-3-3L19.382,5.755A9.256,9.256,0,0,0,17.819,5.1L17.3,2H13.049l-.512,3.09a8.574,8.574,0,0,0-1.563.656L8.423,3.922l-3,3L7.246,9.474a9.256,9.256,0,0,0-.656,1.563l-3.09.521v4.249l3.09.512a8.574,8.574,0,0,0,.656,1.563L5.422,20.433Z" transform="translate(-3.5 -2)" fill="#ffab03"/>
      </g>
      <g id="Group_65440" data-name="Group 65440" transform="translate(21.502 8.845)" opacity="0.25">
        <path id="Path_52177" data-name="Path 52177" d="M50.884,24.873a12.8,12.8,0,0,0,.2-2.21,13.033,13.033,0,0,0-24.721-5.776,7.432,7.432,0,0,0-2.821-.719v14.8a4.857,4.857,0,0,0,4.86,4.86H58.484a9.991,9.991,0,0,0,.054-1.042,10.24,10.24,0,0,0-7.654-9.908Z" transform="translate(-23.54 -9.62)" fill="#fff"/>
      </g>
      <g id="Group_65441" data-name="Group 65441" transform="translate(28.916 8.845)" opacity="0.25">
        <path id="Path_52178" data-name="Path 52178" d="M57.886,29.455a10.265,10.265,0,0,0-6.162-4.581,12.8,12.8,0,0,0,.2-2.21A13.042,13.042,0,0,0,38.878,9.62a12.905,12.905,0,0,0-6.4,1.689c-1.5.853-.261,3.216,1.249,2.381a.068.068,0,0,1,.036-.018,10.3,10.3,0,0,1,9.962-.144,10.644,10.644,0,0,1,4.833,5.8,8.877,8.877,0,0,1,.5,5.075,2.672,2.672,0,0,0,1.931,3.054A7.6,7.6,0,0,1,55.658,31a1.171,1.171,0,0,0,.135.18c1.087,1.1,2.893-.413,2.093-1.725Z" transform="translate(-31.794 -9.62)" fill="#fff"/>
      </g>
      <g id="Group_65442" data-name="Group 65442" transform="translate(11.163 2)" opacity="0.25">
        <path id="Path_52179" data-name="Path 52179" d="M23.977,9.474,25.8,6.923l-3-3L20.249,5.746a9.256,9.256,0,0,0-1.563-.656L18.165,2H13.916L13.4,5.09a8.792,8.792,0,0,0-1.168.467,10.974,10.974,0,0,0,.225,5.165,4.654,4.654,0,0,1,8.255,2.964,4.513,4.513,0,0,1-.4,1.877,7.7,7.7,0,0,1,1.653-.189,7.334,7.334,0,0,1,3.225.746,13.184,13.184,0,0,1,2.533-3.494v-1.06l-3.09-.512a8.241,8.241,0,0,0-.656-1.581Z" transform="translate(-12.03 -2)" fill="#fff"/>
      </g>
      <g id="Group_65443" data-name="Group 65443" transform="translate(35.327 11.765)">
        <path id="Path_52180" data-name="Path 52180" d="M49.054,23.668a.679.679,0,0,1-.674-.674A8.783,8.783,0,0,0,39.6,14.217a.674.674,0,0,1,0-1.347A10.135,10.135,0,0,1,49.728,22.994.673.673,0,0,1,49.054,23.668Z" transform="translate(-38.93 -12.87)" fill="#fff"/>
      </g>
      <path id="Path_52181" data-name="Path 52181" d="M43.983,58.318H41.064V42.6h.225a.674.674,0,0,0,0-1.347H25.119a.674.674,0,0,0,0,1.347h.225V52.928H22.424a.674.674,0,0,0,0,1.347h3.593a.679.679,0,0,0,.674-.674v-11h7.636v15.72H31.407a.674.674,0,1,0,0,1.347H35a.679.679,0,0,0,.674-.674V42.6h4.042V58.992a.679.679,0,0,0,.674.674h3.593a.674.674,0,0,0,0-1.347Z" transform="translate(-1.856 -3.992)" fill="#4e6575"/>
      <g id="Group_65444" data-name="Group 65444" transform="translate(21.244 23.786)">
        <path id="Path_52182" data-name="Path 52182" d="M36.5,33.945H25.55L27.095,32.4a.673.673,0,1,0-.952-.952l-2.695,2.695a.678.678,0,0,0,0,.952l2.695,2.695a.672.672,0,0,0,.952,0,.678.678,0,0,0,0-.952L25.55,35.293H36.5a.674.674,0,1,0,0-1.347Z" transform="translate(-23.252 -26.761)" fill="#fff"/>
        <path id="Path_52183" data-name="Path 52183" d="M43.976,29.143l-2.695-2.695a.673.673,0,1,0-.952.952l1.545,1.545H30.924a.674.674,0,0,0,0,1.347h10.95l-1.545,1.545a.678.678,0,0,0,0,.952.672.672,0,0,0,.952,0l2.695-2.695a.678.678,0,0,0,0-.952Z" transform="translate(-23.964 -26.252)" fill="#fff"/>
      </g>
      <g id="Group_65445" data-name="Group 65445" transform="translate(15.178 46.915)">
        <path id="Path_52184" data-name="Path 52184" d="M16.5,52h5.39v5.39H16.5Z" transform="translate(-16.5 -52)" fill="#7cb5e8"/>
      </g>
      <g id="Group_65446" data-name="Group 65446" transform="translate(42.127 52.305)">
        <path id="Path_52185" data-name="Path 52185" d="M46.5,58h5.39v5.39H46.5Z" transform="translate(-46.5 -58)" fill="#ef4a51"/>
      </g>
      <g id="Group_65447" data-name="Group 65447" transform="translate(43.789 52.305)" opacity="0.25">
        <path id="Path_52186" data-name="Path 52186" d="M48.35,59.9a1.806,1.806,0,0,0,1.806,1.806h1.9V58H48.35Z" transform="translate(-48.35 -58)" fill="#e2e2e2"/>
      </g>
      <g id="Group_65448" data-name="Group 65448" transform="translate(24.161 52.305)">
        <path id="Path_52187" data-name="Path 52187" d="M26.5,58h5.39v5.39H26.5Z" transform="translate(-26.5 -58)" fill="#ffab03"/>
      </g>
      <g id="Group_65449" data-name="Group 65449" transform="translate(25.841 52.305)" opacity="0.25">
        <path id="Path_52188" data-name="Path 52188" d="M28.37,59.9a1.806,1.806,0,0,0,1.806,1.806h1.9V58H28.37Z" transform="translate(-28.37 -58)" fill="#fff"/>
      </g>
      <g id="Group_65450" data-name="Group 65450" transform="translate(16.858 46.915)" opacity="0.25">
        <path id="Path_52189" data-name="Path 52189" d="M18.37,53.9a1.806,1.806,0,0,0,1.806,1.806h1.9V52H18.37Z" transform="translate(-18.37 -52)" fill="#fff"/>
      </g>
    </g>
  </g>
</svg>
