<svg xmlns="http://www.w3.org/2000/svg" viewBox="0 0 750 500" width="750" height="500"><g id="freepik--background-complete--inject-47"><rect x="360.03" y="69.89" width="88.55" height="88.56" style="fill:#ebebeb"></rect><path d="M448.1,71.05s-.06.09-.19.25l-.61.69L445,74.64c-2,2.29-5,5.58-8.78,9.6-7.48,8.06-18,19-29.92,30.8S383.18,137.16,375,144.52c-4.08,3.68-7.41,6.63-9.73,8.64l-2.68,2.31-.71.6c-.16.13-.24.19-.25.18l.22-.22c.17-.17.39-.37.67-.63l2.61-2.39,9.62-8.76c8.1-7.43,19.17-17.81,31.11-29.58S428.36,92,435.9,84l8.9-9.49,2.43-2.58.64-.66C448,71.12,448.09,71,448.1,71.05Z" style="fill:#e0e0e0"></path><path d="M448.59,158.44s-.09-.06-.25-.21l-.68-.65-2.6-2.54-9.54-9.37c-8.11-7.9-19.27-18.77-31.59-30.79S380.72,91.65,373,83.38c-3.85-4.13-6.92-7.51-9-9.89l-2.4-2.73L361,70c-.14-.16-.2-.25-.19-.26l.23.23.65.68,2.47,2.67c2.13,2.33,5.25,5.67,9.13,9.77,7.75,8.2,18.69,19.31,31,31.38s23.49,22.93,31.49,30.9c4,4,7.22,7.22,9.42,9.49l2.53,2.61.65.69Z" style="fill:#e0e0e0"></path><rect x="33.29" y="62.93" width="112.78" height="163.48" style="fill:#e0e0e0"></rect><rect x="27.64" y="62.93" width="112.78" height="163.48" style="fill:#f5f5f5"></rect><rect x="41.66" y="80.64" width="84.76" height="128.07" style="fill:#fff"></rect><path d="M126.42,208.7s0-.21,0-.62,0-1,0-1.82c0-1.61,0-4,0-7,0-6.14,0-15.08-.08-26.38,0-22.59-.08-54.56-.13-92.22l.28.28L41.67,81h0l.3-.31c0,48.31,0,92.85-.06,128.06l-.24-.24,61.69.13,17.05.06,4.47,0,1.55,0s-.5,0-1.5,0l-4.43,0-17,.06L41.66,209h-.25v-.25c0-35.21,0-79.75-.06-128.06v-.31h.32l84.75,0h.28v.28c-.06,37.73-.11,69.77-.14,92.4,0,11.27-.06,20.2-.08,26.32,0,3,0,5.37,0,7,0,.77,0,1.37,0,1.78S126.42,208.7,126.42,208.7Z" style="fill:#e0e0e0"></path><path d="M140.75,62.93a20.1,20.1,0,0,1-2,2.92c-1.31,1.76-3.17,4.14-5.3,6.72s-4.1,4.86-5.57,6.48a20.36,20.36,0,0,1-2.48,2.53,20.82,20.82,0,0,1,2.15-2.82L133,72.18l5.42-6.59A20.81,20.81,0,0,1,140.75,62.93Z" style="fill:#e0e0e0"></path><path d="M126.85,208.29a105,105,0,0,0,14.78,18.49" style="fill:#fff"></path><path d="M141.63,226.78a17.44,17.44,0,0,1-2.58-2.34,83.66,83.66,0,0,1-5.57-6.29,79.73,79.73,0,0,1-4.91-6.83,16.3,16.3,0,0,1-1.72-3,24.47,24.47,0,0,1,2.08,2.79c1.24,1.74,3,4.13,5,6.68s4,4.78,5.41,6.38A23,23,0,0,1,141.63,226.78Z" style="fill:#e0e0e0"></path><path d="M27.63,226.28,42.4,208.05" style="fill:#fff"></path><path d="M42.4,208.05c.13.11-3.07,4.28-7.15,9.31s-7.49,9-7.62,8.92S30.7,222,34.78,217A115.79,115.79,0,0,1,42.4,208.05Z" style="fill:#e0e0e0"></path><path d="M27.64,62.93c.14-.1,3.35,3.74,7.17,8.57s6.83,8.85,6.69,9a104,104,0,0,1-7.17-8.57C30.51,67.05,27.51,63,27.64,62.93Z" style="fill:#e0e0e0"></path><rect x="71.63" y="106.64" width="28.38" height="80.58" style="fill:#e0e0e0"></rect><path d="M673.55,159l-9.19-2.46.49-1.84,9.19,2.46Zm-18.38-4.93L646,151.59l.49-1.84,9.19,2.46Zm-18.37-4.93-9.18-2.46.49-1.84,9.18,2.46Zm-18.37-4.93-9.19-2.46.5-1.84,9.18,2.46Zm56.58,13-1.84-.49,2.47-9.19,1.83.49Zm-71.22-20.09-1.84-.49,2.46-9.2,1.84.5Zm76.15,1.71-1.84-.49,2.47-9.2,1.84.5Zm-71.22-20.09-1.84-.5,2.47-9.19,1.84.49Zm76.15,1.7-1.83-.49,2.46-9.19,1.84.49Zm-71.22-20.09-1.84-.49,2.47-9.19,1.84.49Zm76.16,1.71-1.84-.49,2.46-9.2,1.84.5ZM618.58,82l-1.83-.5,2.46-9.19,1.84.49Zm71,4.67-9.19-2.47.5-1.84,9.18,2.47ZM671.24,81.7l-9.19-2.47.5-1.84,9.18,2.47Zm-18.37-4.93-9.19-2.47.49-1.84,9.19,2.47ZM634.5,71.84l-9.19-2.47.49-1.84L635,70Z" style="fill:#e0e0e0"></path><path d="M620.07,75.21a7,7,0,1,1,8.57-4.95A7,7,0,0,1,620.07,75.21Zm3.14-11.69a5.1,5.1,0,1,0,3.6,6.25A5.11,5.11,0,0,0,623.21,63.52Z" style="fill:#e0e0e0"></path><path d="M690.55,94.12a7,7,0,1,1,8.58-5A7,7,0,0,1,690.55,94.12Zm3.14-11.69a5.1,5.1,0,1,0,3.6,6.25A5.1,5.1,0,0,0,693.69,82.43Z" style="fill:#e0e0e0"></path><path d="M600.61,147.74a7,7,0,1,1,8.57-5A7,7,0,0,1,600.61,147.74Zm3.14-11.69a5.1,5.1,0,1,0,3.6,6.24A5.11,5.11,0,0,0,603.75,136.05Z" style="fill:#e0e0e0"></path><path d="M671.09,166.65a7,7,0,1,1,8.57-5A7,7,0,0,1,671.09,166.65ZM674.23,155a5.1,5.1,0,1,0,3.6,6.25A5.11,5.11,0,0,0,674.23,155Z" style="fill:#e0e0e0"></path><path d="M649.67,99.26l-13.22-3.55,1.68-6.28L672,98.52l-1.69,6.27-13.22-3.55-9,33.65-7.4-2Z" style="fill:#e0e0e0"></path><rect x="650.96" y="215.14" width="62.78" height="62.78" style="fill:#ebebeb"></rect><path d="M713.39,216a5.24,5.24,0,0,1-.55.68l-1.66,1.89c-1.44,1.63-3.56,4-6.21,6.82-5.29,5.72-12.73,13.51-21.19,21.85s-16.36,15.68-22.16,20.89c-2.9,2.6-5.26,4.69-6.91,6.11l-1.91,1.63a7.43,7.43,0,0,1-.69.54,4.64,4.64,0,0,1,.62-.62l1.84-1.7,6.8-6.24c5.73-5.27,13.57-12.64,22-21s15.94-16.07,21.3-21.73l6.32-6.71,1.73-1.82A6.41,6.41,0,0,1,713.39,216Z" style="fill:#e0e0e0"></path><path d="M713.74,277.92s-.07,0-.18-.14l-.49-.46-1.86-1.79-6.78-6.63L682,247.09c-8.72-8.56-16.45-16.47-21.89-22.35-2.72-2.93-4.89-5.33-6.36-7l-1.69-1.95-.43-.52c-.1-.11-.14-.18-.13-.18s.06,0,.17.15l.47.48,1.76,1.88c1.51,1.65,3.73,4,6.48,6.91,5.51,5.81,13.27,13.68,22,22.23S699,263,704.69,268.64c2.83,2.83,5.11,5.13,6.67,6.74l1.78,1.87.46.49A.78.78,0,0,1,713.74,277.92Z" style="fill:#e0e0e0"></path><rect x="286.35" y="48.52" width="42.58" height="42.58" style="fill:#f5f5f5"></rect><path d="M328.7,49.08a3,3,0,0,1-.36.47l-1.12,1.29c-1,1.11-2.4,2.7-4.19,4.65-3.58,3.89-8.62,9.17-14.36,14.84S297.56,81,293.62,84.48c-2,1.76-3.58,3.17-4.71,4.12-.53.45-1,.81-1.31,1.09a3,3,0,0,1-.47.36s.13-.16.41-.43.73-.7,1.24-1.17l4.59-4.25c3.88-3.58,9.19-8.59,14.93-14.24s10.82-10.9,14.46-14.73c1.79-1.87,3.25-3.41,4.31-4.53l1.19-1.22C328.53,49.2,328.68,49.06,328.7,49.08Z" style="fill:#ebebeb"></path><path d="M328.93,91.1a2.84,2.84,0,0,1-.46-.39L327.2,89.5,322.58,85,307.36,70.25c-5.92-5.8-11.15-11.18-14.83-15.18-1.84-2-3.31-3.63-4.3-4.78L287.09,49a3.27,3.27,0,0,1-.37-.48,2.33,2.33,0,0,1,.45.42c.32.32.72.74,1.21,1.26l4.42,4.67c3.74,3.93,9,9.26,14.93,15.06s11.28,11,15.11,14.89c1.91,1.92,3.45,3.49,4.5,4.59l1.2,1.27A2.46,2.46,0,0,1,328.93,91.1Z" style="fill:#ebebeb"></path></g><g id="freepik--Window--inject-47"><rect x="158.74" y="126.23" width="464.99" height="334.72" style="fill:#fafafa"></rect><rect x="158.74" y="126.23" width="464.99" height="24.74" style="fill:#e0e0e0"></rect><path d="M175.19,139a3,3,0,1,1-3-3.22A3.12,3.12,0,0,1,175.19,139Z" style="fill:#263238"></path><path d="M186.48,139a3,3,0,1,1-3-3.22A3.13,3.13,0,0,1,186.48,139Z" style="fill:#263238"></path><ellipse cx="194.74" cy="139.04" rx="3.03" ry="3.21" style="fill:#263238"></ellipse><path d="M366.79,179.19c0,.17-10.16.31-22.68.31s-22.68-.14-22.68-.31,10.15-.32,22.68-.32S366.79,179,366.79,179.19Z" style="fill:#263238"></path><path d="M427.13,179.19c0,.17-10.16.31-22.68.31s-22.68-.14-22.68-.31,10.15-.32,22.68-.32S427.13,179,427.13,179.19Z" style="fill:#263238"></path><path d="M487.46,179.19c0,.17-10.15.31-22.68.31s-22.68-.14-22.68-.31,10.16-.32,22.68-.32S487.46,179,487.46,179.19Z" style="fill:#263238"></path><path d="M548.34,179.19c0,.17-10.16.31-22.68.31s-22.69-.14-22.69-.31,10.16-.32,22.69-.32S548.34,179,548.34,179.19Z" style="fill:#263238"></path><path d="M582.14,392.45c0,.18-36.42.33-81.33.33s-81.35-.15-81.35-.33,36.41-.34,81.35-.34S582.14,392.26,582.14,392.45Z" style="fill:#e0e0e0"></path><path d="M582.14,402.31c0,.18-36.42.33-81.33.33s-81.35-.15-81.35-.33,36.41-.34,81.35-.34S582.14,402.12,582.14,402.31Z" style="fill:#e0e0e0"></path><path d="M492,367c0,.17-16,.31-35.65.31s-35.66-.14-35.66-.31,16-.3,35.66-.3S492,366.82,492,367Z" style="fill:#263238"></path><path d="M601.21,186.83s.39,0,1.09-.2a5,5,0,0,0,2.6-1.69,5.18,5.18,0,0,0,1-2.07,11,11,0,0,0,.16-2.82c-.12-2,.45-4.64-1.27-6.55a4.76,4.76,0,0,0-3.23-1.69c-1.3,0-2.73,0-4.16,0l-9.24,0-21.15,0a4.75,4.75,0,0,0-4.24,2.75,5.51,5.51,0,0,0-.53,2.64v2.84a10.58,10.58,0,0,0,.17,2.68,5.07,5.07,0,0,0,1.18,2.22,5,5,0,0,0,2,1.31,7.35,7.35,0,0,0,2.36.22l17.28.07,11.65.1,3.17.06.82,0c.19,0,.28,0,.28,0a1,1,0,0,1-.28,0l-.82,0-3.17.06-11.65.1-17.28.07a7.93,7.93,0,0,1-2.53-.24,5.51,5.51,0,0,1-2.26-1.46,5.73,5.73,0,0,1-1.34-2.47,6.4,6.4,0,0,1-.19-1.45v-4.24a6.12,6.12,0,0,1,.59-2.93,5.34,5.34,0,0,1,4.77-3.1l21.15,0,9.24,0c1.45,0,2.82,0,4.2,0a5.19,5.19,0,0,1,3.51,1.88,5.71,5.71,0,0,1,1.3,3.52c0,1.18,0,2.29,0,3.33a11.32,11.32,0,0,1-.22,2.9,5.44,5.44,0,0,1-1.14,2.15,5,5,0,0,1-2.76,1.66A3.74,3.74,0,0,1,601.21,186.83Z" style="fill:#263238"></path><rect x="420.71" y="281.63" width="140.82" height="28.88" rx="8.61" style="fill:#e0e0e0"></rect><ellipse cx="201.96" cy="179.49" rx="10.3" ry="10.91" style="fill:#e0e0e0"></ellipse><path d="M561.53,355.1c0,.17-31.53.31-70.41.31s-70.41-.14-70.41-.31,31.51-.3,70.41-.3S561.53,354.93,561.53,355.1Z" style="fill:#263238"></path><path d="M158.74,126.23l465-.24H624v.24c0,101,0,214.76,0,334.68v.3h-.26l-465,0h-.22V461c.13-203.15.21-333,.22-334.72,0,1.74.08,131.57.21,334.72l-.21-.21,465-.05-.27.26v0c0-119.92,0-233.68,0-334.68l.24.24Z" style="fill:#263238"></path></g><g id="freepik--Character--inject-47"><rect x="158.88" y="214.75" width="234.91" height="220.03" transform="translate(552.67 649.53) rotate(180)" style="fill:#FF6726"></rect><path d="M377.86,421.32c0-1.88-.09-76.49-.23-191.59l.23.22-205.48,0h0l.26-.26c0,69.88,0,135.54,0,191.59l-.23-.23,205.5.23-205.5.23h-.22v-.23c0-56.05,0-121.71,0-191.59v-.26h.28l205.48,0h.22v.22C378,344.83,377.86,419.44,377.86,421.32Z" style="fill:#263238"></path><path d="M377.86,229.73s-.16.19-.5.53l-1.48,1.54-5.74,5.86c-2.49,2.54-5.55,5.64-9.13,9.21s-7.63,7.67-12.17,12.13c-9,9-19.89,19.56-32,31.23s-25.57,24.4-39.76,37.67c-28.42,26.52-54.48,50.15-73.41,67.19L181.18,415.2l-6.13,5.44c-.7.61-1.23,1.08-1.61,1.4s-.56.47-.56.47l.53-.51,1.57-1.44,6.07-5.51,22.35-20.24c18.87-17.1,44.89-40.78,73.3-67.29,14.19-13.26,27.63-26,39.79-37.63s23-22.22,32.09-31.15l12.23-12.07,9.19-9.16,5.81-5.79,1.52-1.49C377.67,229.89,377.86,229.73,377.86,229.73Z" style="fill:#263238"></path><path d="M376.05,420.81c-.1.11-45.78-42.59-102-95.34s-101.76-95.63-101.67-95.74,45.77,42.58,102,95.36S376.14,420.71,376.05,420.81Z" style="fill:#263238"></path><g style="opacity:0.30000000000000004"><path d="M158.44,280.11c13.21-1.5,23.61-13.24,26.91-26.12s.7-26.57-3.54-39.17H158.88Z"></path></g><g style="opacity:0.30000000000000004"><path d="M321.46,232.13a7.79,7.79,0,0,0,7.91,5.89,6.76,6.76,0,0,0,12.91-1.24c1.86,1.69,5,.65,6.63-1.27s2.32-4.43,3.57-6.61c1.49-2.57,3.73-4.62,5.42-7.06s2.81-5.63,1.66-8.37H323.39Z"></path></g><path d="M301.14,215c-.59-2.57-1.09-5.25-.48-7.81s2.63-5,5.25-5.2c2.4-.23,4.58,1.33,6.4,2.91s3.71,3.34,6.09,3.68c1.78.25,3.56-.35,5.36-.3s3.84,1.16,3.85,2.95a3.1,3.1,0,0,1-2.05,2.67,9.79,9.79,0,0,1-3.6.93c-7.22,0-13.6.17-20.82.17" style="fill:#db8a76"></path><path d="M364.43,207.41s-8.69,14.41-11.09,14.21-4.91-3.09-4.91-3.09-2.69,14.77-12.59,14.28c0,0-2.83,4-6.14,3.54s-2.88-4.67-2.88-4.67-6.69,4.76-7-2.41,2.06-22.83,2.06-22.83,3.63-6.43,6.38-5a8.4,8.4,0,0,1,3.73,3.44s3.75-3.31,7.31-4.12a4.21,4.21,0,0,1,4.89,2.42s6.05-5.67,8.25-3,.47,4.19.47,4.19,6.76-3,8.93-1.26A7.64,7.64,0,0,1,364.43,207.41Z" style="fill:#db8a76"></path><path d="M326.82,231.68c-.37-.07.5-6.21,1.95-13.7s2.93-13.51,3.3-13.44-.51,6.2-2,13.7S327.19,231.75,326.82,231.68Z" style="fill:#a45b4a"></path><path d="M348.43,218.53c-.35-.1.15-3.4,1.25-7.4s2.76-7,3.1-6.86-.72,3.28-1.79,7.23S348.81,218.64,348.43,218.53Z" style="fill:#a45b4a"></path><path d="M335.69,232.89c-.36-.1,1.25-6.84,3.61-15.06s4.55-14.79,4.91-14.69S343,210,340.6,218.21,336.05,233,335.69,232.89Z" style="fill:#a45b4a"></path><g style="opacity:0.30000000000000004"><path d="M271.85,410.56a10.64,10.64,0,0,1-1.38,14c-1.37,1.19-3.27,2.66-2.6,4.34.44,1.09,1.75,1.48,2.89,1.74,5.76,1.3,11.81,2.9,17.58,4.2a55.2,55.2,0,0,1-33.52-.36c-2.55-.83-5.43-2.37-5.61-5-.16-2.44,2-4.29,4-5.71l17-12.15"></path></g><path d="M102.34,279.43,96,206.5c-3.73-23.13,6.63-44.58,29.85-47.67l2.16-.16A41.9,41.9,0,0,1,172.51,194c3.12,20.06,6.31,42.27,7,53.11,1.38,22.44-20.79,27.58-20.79,27.58l.34,10.16S145.69,295,128.87,295C110.75,295,102.34,279.43,102.34,279.43Z" style="fill:#db8a76"></path><path d="M158.88,274.66s-14.25,1.92-30-6.43c0,0,7.79,15.68,30,12Z" style="fill:#a45b4a"></path><path d="M168.71,213.77a3.21,3.21,0,0,1-2.85,3.45,3.07,3.07,0,0,1-3.52-2.64,3.22,3.22,0,0,1,2.85-3.46A3.08,3.08,0,0,1,168.71,213.77Z" style="fill:#263238"></path><path d="M168.5,205.34c-.37.44-2.92-1.17-6.37-.91s-5.84,2.17-6.25,1.78c-.19-.17.15-1,1.2-1.84a8.77,8.77,0,0,1,5-1.94,8.46,8.46,0,0,1,5.11,1.24C168.27,204.41,168.68,205.13,168.5,205.34Z" style="fill:#263238"></path><path d="M137.18,216.32a3.21,3.21,0,0,1-2.85,3.46,3.07,3.07,0,0,1-3.52-2.64,3.22,3.22,0,0,1,2.85-3.46A3.08,3.08,0,0,1,137.18,216.32Z" style="fill:#263238"></path><path d="M134.68,208.48c-.37.45-2.93-1.17-6.37-.9s-5.84,2.17-6.25,1.78c-.19-.18.15-1,1.2-1.84a8.77,8.77,0,0,1,5-1.94,8.46,8.46,0,0,1,5.11,1.24C134.44,207.55,134.86,208.28,134.68,208.48Z" style="fill:#263238"></path><path d="M149.07,233.11c0-.2,2.09-.72,5.53-1.42.87-.16,1.69-.4,1.79-1a4.49,4.49,0,0,0-.78-2.56l-3.09-6.51c-4.32-9.27-7.52-16.92-7.14-17.09s4.18,7.21,8.49,16.48q1.57,3.42,3,6.55c.41,1,1.07,2.07.72,3.42a2.2,2.2,0,0,1-1.35,1.39,5.92,5.92,0,0,1-1.48.32C151.27,233.13,149.1,233.3,149.07,233.11Z" style="fill:#263238"></path><path d="M139.11,236.24c.56-.07.84,3.67,4.24,6.08s7.35,1.72,7.42,2.24c.07.23-.84.79-2.52,1a9.32,9.32,0,0,1-6.17-1.65,8.14,8.14,0,0,1-3.32-5.12C138.51,237.2,138.85,236.24,139.11,236.24Z" style="fill:#263238"></path><path d="M134.57,194.92c-.27,1-3.74.77-7.75,1.55s-7.19,2.13-7.79,1.33c-.27-.38.23-1.3,1.49-2.31a13.78,13.78,0,0,1,11.84-2.2C133.88,193.78,134.69,194.46,134.57,194.92Z" style="fill:#263238"></path><path d="M166.5,195.46c-.55.83-3,.19-5.84.36s-5.24.92-5.85.14c-.27-.38.05-1.19,1.05-2a8.48,8.48,0,0,1,9.42-.4C166.34,194.28,166.73,195.06,166.5,195.46Z" style="fill:#263238"></path><path d="M169.59,183.89s-7-13.61-14-16.38c-8.49-3.36-11.36,5.9-19.33,4.29s-16.08-4.83-23.61,1.8c-8.25,7.25-3.81,11.58-3.62,21.57.8,40.5-5.72,52.45-9.22,33.6-.39-2.06-6.29-3.29-7.79-12-2-11.32-3.42-25.13-1.47-33.41,1.64-7,5.18-12,11.77-17.69,10.4-9,25.51-10.31,35.85-10S169.23,166.24,169.59,183.89Z" style="fill:#263238"></path><path d="M101.23,228.06a6.11,6.11,0,0,0-7-5.38c-4.15.71-8.62,3.42-7.71,12,1.62,15.3,16.64,10.51,16.62,10.07S102,234.45,101.23,228.06Z" style="fill:#db8a76"></path><path d="M99.19,239.39c-.07,0-.24.22-.67.47a2.65,2.65,0,0,1-2,.25c-1.68-.42-3.31-2.84-3.68-5.59a9,9,0,0,1,.34-3.89A3.1,3.1,0,0,1,95,228.37a1.37,1.37,0,0,1,1.65.56c.25.41.19.73.27.74s.3-.29.11-.91a1.71,1.71,0,0,0-.7-.89,2,2,0,0,0-1.52-.23,3.76,3.76,0,0,0-2.53,2.66,9.08,9.08,0,0,0-.47,4.36c.43,3.07,2.31,5.79,4.59,6.19a2.85,2.85,0,0,0,2.39-.66C99.2,239.76,99.25,239.41,99.19,239.39Z" style="fill:#a45b4a"></path><path d="M99.33,198.34c2.09,1.21,4.3,2.46,6.72,2.52s5-1.52,5.28-3.93c.1-1.08-.25-2.3.39-3.18.77-1,2.33-.85,3.63-.81a9.79,9.79,0,0,0,9.63-7.76c1.27,1.62,3.91,1.35,5.55.11s2.61-3.13,3.85-4.77,3-3.16,5.06-3c1.15.08,2.26.68,3.39.49,2-.33,2.81-2.76,3-4.78s.22-4.36,1.84-5.58,3.6-.69,5.47-.55,4.23-.48,4.57-2.33a3.64,3.64,0,0,0-.89-2.73,10,10,0,0,0-12-2.89,13.5,13.5,0,0,0-24.92-.78,13.7,13.7,0,0,0-21.46,6.6,9.92,9.92,0,0,0-10.09,15.22c-2.64,1.78-4.8,4.69-4.62,7.87s3.5,6.11,6.5,5a5.5,5.5,0,0,0,9.89,4.77" style="fill:#263238"></path><path d="M146.27,163.55a.84.84,0,0,1,0,.28c0,.18,0,.46,0,.83a9.76,9.76,0,0,1-.9,3,11,11,0,0,1-3.13,3.88,10.25,10.25,0,0,1-6.14,2.25l.23-.36a5.61,5.61,0,0,1,0,4.26,15.92,15.92,0,0,1-2.35,4,11.24,11.24,0,0,1-1.58,1.89,5.47,5.47,0,0,1-2.37,1.08,5.58,5.58,0,0,1-5.06-1.41l.56-.2a11.5,11.5,0,0,1-4.29,8.31,8.46,8.46,0,0,1-4.91,2,15.23,15.23,0,0,1-5-.73l.4-.21a12.13,12.13,0,0,1-3.28,5,6.45,6.45,0,0,1-5.23,1.85,8.46,8.46,0,0,1-7-6.13l.36.14a7.91,7.91,0,0,1-5.21,1.16,8.71,8.71,0,0,1-3.8-1.36,7.52,7.52,0,0,1-1.85-1.75,4.48,4.48,0,0,1-.45-.76,9.68,9.68,0,0,0,2.44,2.29,8.49,8.49,0,0,0,3.69,1.21,7.53,7.53,0,0,0,4.91-1.18l.28-.18.08.32a8,8,0,0,0,6.61,5.66A5.81,5.81,0,0,0,108,197a11.45,11.45,0,0,0,3.08-4.74l.1-.29.3.08a14.8,14.8,0,0,0,4.82.68,7.7,7.7,0,0,0,4.53-1.88,10.9,10.9,0,0,0,4.06-7.83l0-.74.52.53A5,5,0,0,0,129.9,184a4.73,4.73,0,0,0,2.1-.94,11.33,11.33,0,0,0,1.49-1.77,15.19,15.19,0,0,0,2.3-3.8,5,5,0,0,0,.05-3.85l-.15-.36h.39a9.88,9.88,0,0,0,5.89-2.07,11,11,0,0,0,3.13-3.68A11.94,11.94,0,0,0,146.27,163.55Z" style="fill:#455a64"></path><path d="M154.59,218a26.07,26.07,0,0,1-1.05-3.57,15.14,15.14,0,0,1,1.47-9.8,14.8,14.8,0,0,1,4.51-5.21,15,15,0,0,1,7.36-2.76,14,14,0,0,1,4.27.22,14.21,14.21,0,0,1,4.2,1.51,14.85,14.85,0,0,1,7.56,15.9,14.05,14.05,0,0,1-1.48,4.21A14.42,14.42,0,0,1,178.9,222a15.07,15.07,0,0,1-6.79,4,14.81,14.81,0,0,1-6.88.2,15.09,15.09,0,0,1-8.53-5.05,24.34,24.34,0,0,1-2.11-3.07,5.72,5.72,0,0,0,.4.88,7.39,7.39,0,0,0,.59,1,10.66,10.66,0,0,0,.94,1.31,15.09,15.09,0,0,0,8.62,5.32,15.25,15.25,0,0,0,7.09-.14,15.45,15.45,0,0,0,7.06-4.06,15.39,15.39,0,0,0,4.19-7.94,15.36,15.36,0,0,0-7.85-16.52,14.43,14.43,0,0,0-4.36-1.56,14.83,14.83,0,0,0-4.44-.21,15.51,15.51,0,0,0-7.61,2.91,15.31,15.31,0,0,0-5.91,15.45,9.89,9.89,0,0,0,.43,1.56,6.91,6.91,0,0,0,.42,1.1A5.16,5.16,0,0,0,154.59,218Z" style="fill:#263238"></path><path d="M115.06,220.84a26.07,26.07,0,0,1-1-3.57,15.14,15.14,0,0,1,1.47-9.8,14.8,14.8,0,0,1,4.51-5.21,15,15,0,0,1,7.36-2.76,14,14,0,0,1,4.27.22,14.21,14.21,0,0,1,4.2,1.51,14.85,14.85,0,0,1,7.56,15.9,14.07,14.07,0,0,1-1.49,4.21,13.9,13.9,0,0,1-2.53,3.45,15,15,0,0,1-6.79,4,14.8,14.8,0,0,1-6.88.2,15.1,15.1,0,0,1-8.52-5.05,24.34,24.34,0,0,1-2.11-3.07,5.72,5.72,0,0,0,.4.88,7.39,7.39,0,0,0,.59,1,10.66,10.66,0,0,0,.94,1.31,15.09,15.09,0,0,0,8.62,5.32,15.25,15.25,0,0,0,7.09-.14,15.45,15.45,0,0,0,7.06-4.06,15.39,15.39,0,0,0,4.19-7.94,15.36,15.36,0,0,0-7.85-16.52,14.39,14.39,0,0,0-4.37-1.56,14.74,14.74,0,0,0-4.43-.21,15.51,15.51,0,0,0-7.61,2.91,15.31,15.31,0,0,0-5.91,15.45,9.89,9.89,0,0,0,.43,1.56,6.91,6.91,0,0,0,.42,1.1A5.16,5.16,0,0,0,115.06,220.84Z" style="fill:#263238"></path><path d="M143.84,210.84a13.38,13.38,0,0,1,4.61-1.42c2.7-.2,4.69,1,4.76.82s-.39-.44-1.24-.82a7.89,7.89,0,0,0-7,.44C144.17,210.34,143.79,210.78,143.84,210.84Z" style="fill:#263238"></path><path d="M99.78,224a53.76,53.76,0,0,0,7.09-3.44,53,53,0,0,0,6.81-4c-.08-.15-3.25,1.39-7.09,3.44S99.7,223.88,99.78,224Z" style="fill:#263238"></path><polygon points="157.7 460.95 187.03 461.21 187.03 440.7 157.7 430.95 157.7 460.95" style="fill:#455a64"></polygon><path d="M102.34,279.43S81,291.31,72.14,299s-18.77,54.82-18.77,54.82l4.14,73.95L51.17,461H160.26L159,284.86s-13.68,10-29.13,10.13C120.47,295.07,110.37,291.68,102.34,279.43Z" style="fill:#455a64"></path><g style="opacity:0.30000000000000004"><path d="M59.19,368.72a231.53,231.53,0,0,0,11.25,43.4c.69,1.89,1.48,3.86,3,5.13,1,.78,2.18,1.23,3.2,1.94,2,1.39,3.17,3.67,4.19,5.89,2.46,5.33,4.57,10.85,7.57,15.89s7,9.68,12.32,12.23c5.75,2.77,12.38,2.83,18.76,2.83l67.51.05v-9.62c-2.5-2.23-6.75-2.55-10-3.42L152,436.25c-12-3.24-24.15-6.55-34.74-13-22.79-13.92-35.38-40.54-57.91-54.87"></path></g><path d="M158.75,327.63a2.15,2.15,0,0,1-.41.27l-1.23.7c-1.07.6-2.63,1.44-4.57,2.44-3.89,2-9.32,4.69-15.42,7.41s-11.72,5-15.82,6.52c-2,.77-3.71,1.37-4.87,1.76l-1.34.45a2.6,2.6,0,0,1-.48.12,2,2,0,0,1,.45-.22l1.3-.54,4.81-1.92c4.06-1.62,9.65-3.93,15.74-6.64s11.54-5.33,15.46-7.26l4.65-2.3,1.27-.61A1.68,1.68,0,0,1,158.75,327.63Z" style="fill:#fff"></path><path d="M157.55,313.25a2.08,2.08,0,0,1-.46.31l-1.35.78c-1.19.67-2.91,1.61-5.06,2.75-4.3,2.27-10.3,5.3-17,8.41s-12.94,5.7-17.46,7.48c-2.27.9-4.1,1.6-5.38,2.06l-1.48.53a3.49,3.49,0,0,1-.52.15,1.63,1.63,0,0,1,.49-.25l1.43-.62c1.33-.55,3.13-1.29,5.32-2.21,4.48-1.87,10.64-4.52,17.38-7.62s12.74-6.07,17.08-8.26l5.13-2.6,1.4-.7A3,3,0,0,1,157.55,313.25Z" style="fill:#fff"></path><path d="M234.87,429,133.64,408.1,99.21,321.49l-41.7,19.28s31.24,94.28,41.7,104.12,137.55,8,137.55,8Z" style="fill:#db8a76"></path><path d="M103.13,324.77l26.78,55.88-54.59,25.4L53.37,353.79S39.52,312.9,72.14,299C89.67,291.48,103.13,324.77,103.13,324.77Z" style="fill:#455a64"></path><path d="M70.86,299.84a7.54,7.54,0,0,1,1.47-.38,10.06,10.06,0,0,1,1.76-.29l1.11-.1.6-.06.64,0a18.2,18.2,0,0,1,2.86.2c.51.08,1,.12,1.58.25l1.65.42a26.15,26.15,0,0,1,6.81,3.2,30.76,30.76,0,0,1,5.64,5,31.3,31.3,0,0,1,2,2.59,22.83,22.83,0,0,1,1.54,2.41,21.57,21.57,0,0,1,1.1,2.08,14.22,14.22,0,0,1,.71,1.63,7.49,7.49,0,0,1,.49,1.44c-.11,0-.82-2-2.61-5-.46-.73-1-1.54-1.58-2.34s-1.3-1.65-2-2.52a32,32,0,0,0-5.57-4.87,26.51,26.51,0,0,0-6.66-3.17l-1.61-.43c-.52-.14-1-.18-1.54-.27a17.9,17.9,0,0,0-2.8-.26l-.63,0-.6,0-1.1.06a12.32,12.32,0,0,0-1.75.2A8.86,8.86,0,0,1,70.86,299.84Z" style="fill:#263238"></path><path d="M307.62,434.78s.41,1.63-2.78,5.69c.36,2.35-2.14,5.32-3.5,6,0,0,.55,3.57-7,5.6s-34.81,3.19-34.81,3.19l-27-2.83V431l16.54-14.29,22.33-7s2.61,6.09-2.9,9.86a95.05,95.05,0,0,1-9.94,5.85,3,3,0,0,0-1.66,2.72h0a3.07,3.07,0,0,0,2.4,3l17.35,3.72,30.94-.07" style="fill:#db8a76"></path><path d="M270.26,449.42a5.41,5.41,0,0,1,1.28.05c.82.07,2,.15,3.48.21a71.73,71.73,0,0,0,22.71-2.56c1.42-.39,2.56-.73,3.34-1a7,7,0,0,1,1.24-.33,5.28,5.28,0,0,1-1.17.53c-.76.31-1.89.7-3.3,1.14a61.71,61.71,0,0,1-11.31,2.36,62.78,62.78,0,0,1-11.53.22c-1.48-.11-2.67-.25-3.48-.38A6.64,6.64,0,0,1,270.26,449.42Z" style="fill:#a45b4a"></path><path d="M272.31,444.32a5.58,5.58,0,0,1,1.3.05c.83.07,2,.14,3.53.2a72.7,72.7,0,0,0,11.63-.48,77.79,77.79,0,0,0,11.42-2.28c1.43-.4,2.59-.75,3.39-1a5.74,5.74,0,0,1,1.26-.34,7.13,7.13,0,0,1-1.19.53c-.78.32-1.93.72-3.36,1.17a66.3,66.3,0,0,1-11.46,2.44,62.52,62.52,0,0,1-11.71.33c-1.5-.11-2.7-.24-3.53-.37A6.91,6.91,0,0,1,272.31,444.32Z" style="fill:#a45b4a"></path><path d="M108.73,336.39a2.11,2.11,0,0,1-.5.29l-1.49.76-5.47,2.72c-4.62,2.3-11,5.54-17.91,9.26s-13.16,7.2-17.63,9.77l-5.3,3.05-1.45.81a2.6,2.6,0,0,1-.53.26,2.75,2.75,0,0,1,.47-.35l1.4-.9c1.22-.77,3-1.86,5.22-3.19,4.43-2.65,10.63-6.19,17.58-9.91s13.33-6.91,18-9.13c2.33-1.12,4.23-2,5.55-2.58l1.52-.66A2,2,0,0,1,108.73,336.39Z" style="fill:#fff"></path><path d="M101.11,323.37a2.05,2.05,0,0,1-.49.3l-1.44.77-5.31,2.81c-4.48,2.37-10.63,5.74-17.29,9.67S64,344.61,59.75,347.38l-5,3.3-1.37.89a2.63,2.63,0,0,1-.5.28,2.18,2.18,0,0,1,.44-.37l1.31-1c1.15-.83,2.84-2,4.94-3.44,4.19-2.85,10.09-6.66,16.76-10.6s12.86-7.26,17.39-9.55c2.26-1.15,4.11-2.06,5.39-2.66l1.49-.68A3.07,3.07,0,0,1,101.11,323.37Z" style="fill:#fff"></path><path d="M103.61,325.69a1.5,1.5,0,0,1,.15.26l.39.78c.36.71.86,1.73,1.5,3l5.54,11.4,18.95,39.39.1.21-.21.11c-6.76,3.53-14.21,7.09-22,10.69-11.64,5.41-22.76,10.37-32.65,14.7l-.22.1-.09-.22L61,373.29l-4-9.35-1-2.49c-.1-.26-.19-.48-.26-.64a.92.92,0,0,1-.07-.22,1.22,1.22,0,0,1,.11.21c.08.16.17.36.29.62l1.11,2.46c1,2.18,2.35,5.32,4.1,9.3L75.54,406l-.31-.12c9.87-4.36,21-9.34,32.62-14.74,7.75-3.6,15.2-7.15,22-10.66l-.11.33L110.9,341.29c-2.29-4.87-4.13-8.76-5.4-11.45l-1.42-3.07-.36-.8A1.09,1.09,0,0,1,103.61,325.69Z" style="fill:#263238"></path></g><g id="freepik--Plant--inject-47"><path d="M675,384.16c1-3.58,3.25-7.05,6.67-8.52s7.68-.66,11.32.66,7.22,3.1,11.09,3.34,8.24-1.6,9.39-5.3c1.09-3.48-1-7.18-3.63-9.71a22.93,22.93,0,0,0-37.56,9" style="fill:#FF6726"></path><g style="opacity:0.30000000000000004"><path d="M709.81,364.63a22.93,22.93,0,0,0-37.56,9L675,384.16c1-3.58,3.25-7.05,6.67-8.52s7.68-.66,11.32.66,7.22,3.1,11.09,3.34,8.24-1.6,9.39-5.3C714.53,370.86,712.44,367.16,709.81,364.63Z"></path></g><path d="M644.32,399.69c-5.67-5.39-5.39-14.77-2.56-22.07s9-12.9,15.91-16.6a50.39,50.39,0,0,1,43.92-1.42,20.82,20.82,0,0,0-16.85,9.9c-3.11,5.16-3.8,11.43-6.37,16.89a26.59,26.59,0,0,1-34,13.3" style="fill:#FF6726"></path><path d="M641.59,367.3c-6.28-7.42-7.12-19.32-6.19-29s3.17-19.42,1.64-29c-.9-5.68-3.11-11.11-3.85-16.83s.31-12.16,4.73-15.85c5.09-4.24,13.1-3.24,18.39.74s8.35,10.23,10.59,16.46c4.92,13.68,6.73,28.86,2.69,42.83s-13.53,26.46-27.45,30.67" style="fill:#FF6726"></path><path d="M638.58,428.16a4.61,4.61,0,0,1,0-.85c0-.56,0-1.39.05-2.46.08-2.12.29-5.2.76-9a119.35,119.35,0,0,1,2.42-13.15,60.82,60.82,0,0,1,6-15.24,63.6,63.6,0,0,1,9.81-13.11,62,62,0,0,1,10.28-8.55c1.57-1.09,3.09-1.91,4.4-2.68s2.51-1.28,3.47-1.74l2.26-.95a6.9,6.9,0,0,1,.8-.3,5.52,5.52,0,0,1-.76.4l-2.22,1c-.94.49-2.09,1.09-3.41,1.82s-2.78,1.62-4.33,2.72a64.79,64.79,0,0,0-19.85,21.62c-5.77,10.1-7.36,20.73-8.5,28.18-.52,3.76-.78,6.82-.93,8.94-.06,1-.11,1.84-.14,2.45A5.67,5.67,0,0,1,638.58,428.16Z" style="fill:#263238"></path><path d="M584.38,338c-11.63,7-11.59,13.4-9.65,19.43s9.08,10.21,15,7.95c3.35-1.27,5.77-4.18,7.84-7.1s4-6.05,6.91-8.14,7.1-2.9,10-.83" style="fill:#FF6726"></path><g style="opacity:0.30000000000000004"><path d="M584.38,338c-11.63,7-11.59,13.4-9.65,19.43s9.08,10.21,15,7.95c3.35-1.27,5.77-4.18,7.84-7.1s4-6.05,6.91-8.14a10.11,10.11,0,0,1,7-1.94Z"></path></g><path d="M611.51,348.24l3,1.11A6.64,6.64,0,0,0,611.51,348.24Z"></path><path d="M575.68,345.73c3-4.2,10.54-5.41,15.29-3.32s8.21,6.25,11.32,10.4,6.14,8.53,10.44,11.42,10.33,3.93,14.62,1a12.54,12.54,0,0,0,5-8.59,28.45,28.45,0,0,0-.68-10.14c-1-4.88-2.7-10-6.6-13.07-4.35-3.45-10.38-3.61-15.93-3.43-6.37.21-12.84.69-18.81,2.89s-12.08,7-14.61,12.82" style="fill:#FF6726"></path><path d="M628.92,418.85a1.11,1.11,0,0,1,0-.26c0-.2,0-.44,0-.75,0-.7-.05-1.66-.1-2.88-.07-2.55-.17-6.17-.3-10.61s-.32-9.82-.65-15.73-.77-12.42-1.66-19.18a61.86,61.86,0,0,0-1.93-9.75,50.74,50.74,0,0,0-3.56-8.52,48.84,48.84,0,0,0-4.5-7.06,45.14,45.14,0,0,0-4.91-5.39,36.11,36.11,0,0,0-8.7-5.93c-.57-.26-1.06-.51-1.51-.69l-1.13-.45-.7-.28a.88.88,0,0,1-.23-.11.8.8,0,0,1,.25.06l.71.24,1.16.39c.46.17,1,.41,1.54.66a34.68,34.68,0,0,1,8.86,5.84,44.86,44.86,0,0,1,5,5.4,48.07,48.07,0,0,1,4.58,7.09,51.42,51.42,0,0,1,3.63,8.6,62.42,62.42,0,0,1,1.95,9.83c.9,6.79,1.33,13.3,1.63,19.22s.44,11.26.54,15.75.12,8.11.14,10.61v2.89c0,.31,0,.55,0,.75S628.92,418.85,628.92,418.85Z" style="fill:#263238"></path><path d="M633.1,424.1a33,33,0,0,1-1.27-5,52.12,52.12,0,0,1-.54-14,93.93,93.93,0,0,1,4.43-20.35c2.39-7.48,5.63-15.48,8.39-24.07a109.57,109.57,0,0,0,3.34-12.74,112.1,112.1,0,0,0,1.65-12.16,177.87,177.87,0,0,0,.37-20.78c-.2-5.92-.51-10.71-.71-14-.1-1.63-.17-2.91-.22-3.81,0-.41,0-.74,0-1a1.44,1.44,0,0,1,0-.34,1.23,1.23,0,0,1,0,.33c0,.25.06.58.1,1,.08.91.19,2.18.32,3.81.26,3.3.63,8.09.88,14a170.45,170.45,0,0,1-.26,20.84A110.34,110.34,0,0,1,648,348a107,107,0,0,1-3.34,12.8c-2.78,8.63-6,16.62-8.43,24.07a94.36,94.36,0,0,0-4.52,20.24,54.36,54.36,0,0,0,.36,14c.29,1.62.55,2.88.78,3.72l.24,1A1.42,1.42,0,0,1,633.1,424.1Z" style="fill:#263238"></path><polygon points="668.03 422.61 599.02 422.61 597.44 409.33 668.03 409.33 668.03 422.61" style="fill:#455a64"></polygon><polygon points="606.42 421.1 615.05 460.95 652.55 460.95 660.63 421.1 606.42 421.1" style="fill:#455a64"></polygon><path d="M668,422.61c0,.18-15.17.29-33.89.23s-33.88-.24-33.88-.42,15.17-.29,33.89-.23S668,422.43,668,422.61Z" style="fill:#455a64"></path><path d="M656.19,442.28a28.16,28.16,0,0,0-6.08-3.48,21.56,21.56,0,0,0-7.39-1.49,26,26,0,0,0-9.09,1.67c-3.14,1.06-6.08,2.3-8.94,3a21.33,21.33,0,0,1-7.73.24,16.1,16.1,0,0,1-5-1.58,9.29,9.29,0,0,1-1.2-.76c-.26-.19-.39-.3-.37-.32s.59.34,1.68.85a17.55,17.55,0,0,0,4.92,1.35,21.89,21.89,0,0,0,7.53-.37c2.76-.69,5.7-1.94,8.87-3a25.81,25.81,0,0,1,9.31-1.65,21.06,21.06,0,0,1,7.55,1.65,19.44,19.44,0,0,1,4.5,2.63,11.62,11.62,0,0,1,1.07.92C656.09,442.14,656.2,442.26,656.19,442.28Z" style="fill:#263238"></path><path d="M655.66,444.94a30.47,30.47,0,0,0-5.83-3.44A20.14,20.14,0,0,0,642.7,440a25.63,25.63,0,0,0-8.79,1.59c-3,1-5.89,2.19-8.62,2.92a22,22,0,0,1-7.43.84,12.8,12.8,0,0,1-4.87-1.3,9.3,9.3,0,0,1-1.16-.74,1.71,1.71,0,0,1-.36-.31c0-.06.57.33,1.63.82a13.42,13.42,0,0,0,4.79,1.06,22.62,22.62,0,0,0,7.24-1c2.67-.75,5.5-1.94,8.57-3a25.62,25.62,0,0,1,9-1.56,19.62,19.62,0,0,1,11.61,4.25,13,13,0,0,1,1,.9C655.57,444.8,655.68,444.92,655.66,444.94Z" style="fill:#fff"></path><path d="M656.87,439.64a32.22,32.22,0,0,0-6.24-3.68,22.86,22.86,0,0,0-7.58-1.82,24.34,24.34,0,0,0-9.37,1.65,84.16,84.16,0,0,1-9.26,3,23.49,23.49,0,0,1-8,0,17.93,17.93,0,0,1-5.12-1.62,9.56,9.56,0,0,1-1.25-.78q-.4-.3-.39-.33c0-.05.61.36,1.75.87a19.88,19.88,0,0,0,5.09,1.4,24,24,0,0,0,7.79-.15,91.81,91.81,0,0,0,9.17-3.05,24.51,24.51,0,0,1,9.62-1.64,22.73,22.73,0,0,1,7.73,2,22.47,22.47,0,0,1,4.6,2.78,12.63,12.63,0,0,1,1.11.95C656.77,439.49,656.89,439.62,656.87,439.64Z" style="fill:#fff"></path><path d="M668,422.61c0,.14-15.46.26-34.53.26s-34.54-.12-34.54-.26,15.46-.26,34.54-.26S668,422.47,668,422.61Z" style="fill:#263238"></path></g><g id="freepik--Desk--inject-47"><path d="M706.46,461c0,.14-148.41.26-331.44.26S43.54,461.09,43.54,461s148.38-.26,331.48-.26S706.46,460.8,706.46,461Z" style="fill:#263238"></path></g></svg>