<svg xmlns="http://www.w3.org/2000/svg" xmlns:xlink="http://www.w3.org/1999/xlink" width="159" height="160" viewBox="0 0 159 160">
  <defs>
    <linearGradient id="linear-gradient" x1="1" y1="0.638" x2="-0.024" y2="0.308" gradientUnits="objectBoundingBox">
      <stop offset="0" stop-color="#fff"/>
      <stop offset="1" stop-color="#cae4fc"/>
    </linearGradient>
  </defs>
  <g id="Angular" transform="translate(-94 -66)">
    <g id="Education" transform="translate(93.674 66.254)">
      <ellipse id="Ellipse_404" data-name="Ellipse 404" cx="79.5" cy="80" rx="79.5" ry="80" transform="translate(0.326 -0.254)" opacity="0.53" fill="url(#linear-gradient)"/>
    </g>
    <g id="angular-2" data-name="angular" transform="translate(128 97)">
      <g id="Group_65206" data-name="Group 65206">
        <path id="Path_21263" data-name="Path 21263" d="M45.19,0h0L0,16.157,6.893,76.066l38.3,21.267h0l38.3-21.267,6.893-59.909Z" fill="#dd0031" fill-rule="evenodd"/>
        <path id="Path_21264" data-name="Path 21264" d="M37.5,0V60.055h0V97.333h0L76.856,76.066,83.94,16.157Z" transform="translate(6.441)" fill="#c3002f" fill-rule="evenodd"/>
        <path id="Path_21265" data-name="Path 21265" d="M41.838,8.84,14.058,73.484H24.416L30,59.02H53.581l5.585,14.464H69.524L41.838,8.84ZM49.952,50.1H33.723l8.114-20.26L49.951,50.1Z" transform="translate(3.351 2.107)" fill="#fff" fill-rule="evenodd"/>
      </g>
    </g>
  </g>
</svg>
