<svg xmlns="http://www.w3.org/2000/svg" width="93.257" height="113.57" viewBox="0 0 93.257 113.57">
  <g id="Articles" transform="translate(-45.788)">
    <path id="Path_21632" data-name="Path 21632" d="M188.588,166.208H114.675a2.285,2.285,0,0,1-2.285-2.285v-94a2.285,2.285,0,0,1,2.285-2.285h73.913a2.285,2.285,0,0,1,2.285,2.285v94A2.285,2.285,0,0,1,188.588,166.208Z" transform="translate(-51.829 -52.638)" fill="#7398d3"/>
    <path id="Path_21633" data-name="Path 21633" d="M155.287,131.867H81.374a2.285,2.285,0,0,1-2.285-2.285v-94A2.285,2.285,0,0,1,81.374,33.3h73.913a2.285,2.285,0,0,1,2.285,2.285v94A2.285,2.285,0,0,1,155.287,131.867Z" transform="translate(-25.914 -25.914)" fill="#a2b9e2"/>
    <path id="Path_21634" data-name="Path 21634" d="M121.986,98.566H48.073a2.285,2.285,0,0,1-2.285-2.285v-94A2.285,2.285,0,0,1,48.073,0h73.913a2.285,2.285,0,0,1,2.285,2.285v94A2.285,2.285,0,0,1,121.986,98.566Z" transform="translate(0 0)" fill="#d8e2f1"/>
    <path id="Path_21635" data-name="Path 21635" d="M378.8,0V98.566h2.332a2.285,2.285,0,0,0,2.285-2.285v-94A2.285,2.285,0,0,0,381.129,0Z" transform="translate(-259.142)" fill="#b9cbea"/>
    <path id="Path_21636" data-name="Path 21636" d="M102.4,31.818H79.322a1.714,1.714,0,0,0-1.714,1.714V65.387A1.714,1.714,0,0,0,79.322,67.1h23.083a1.714,1.714,0,0,0,1.714-1.714V33.532a1.714,1.714,0,0,0-1.714-1.714Z" transform="translate(-24.762 -24.76)" fill="#dd5790"/>
    <path id="Path_21637" data-name="Path 21637" d="M250.4,31.818H220.85a1.714,1.714,0,0,0-1.714,1.714V41.38a1.714,1.714,0,0,0,1.714,1.714H250.4a1.714,1.714,0,0,0,1.714-1.714V33.532A1.714,1.714,0,0,0,250.4,31.818Z" transform="translate(-134.897 -24.76)" fill="#5766cb"/>
    <g id="Group_65285" data-name="Group 65285" transform="translate(84.239 23.216)">
      <path id="Path_21638" data-name="Path 21638" d="M250.4,108.093H220.85a1.714,1.714,0,0,1,0-3.428H250.4a1.714,1.714,0,1,1,0,3.428Z" transform="translate(-219.136 -104.665)" fill="#a2b9e2"/>
    </g>
    <g id="Group_65286" data-name="Group 65286" transform="translate(84.239 30.603)">
      <path id="Path_21639" data-name="Path 21639" d="M250.4,141.394H220.85a1.714,1.714,0,0,1,0-3.428H250.4a1.714,1.714,0,1,1,0,3.428Z" transform="translate(-219.136 -137.966)" fill="#a2b9e2"/>
    </g>
    <g id="Group_65287" data-name="Group 65287" transform="translate(84.239 38.913)">
      <path id="Path_21640" data-name="Path 21640" d="M250.4,178.857H220.85a1.714,1.714,0,0,1,0-3.428H250.4a1.714,1.714,0,1,1,0,3.428Z" transform="translate(-219.136 -175.429)" fill="#a2b9e2"/>
    </g>
    <g id="Group_65288" data-name="Group 65288" transform="translate(70.389 47.223)">
      <path id="Path_21641" data-name="Path 21641" d="M201.807,216.319h-43.4a1.714,1.714,0,1,1,0-3.427h43.4a1.714,1.714,0,1,1,0,3.427Z" transform="translate(-156.697 -212.892)" fill="#a2b9e2"/>
    </g>
    <g id="Group_65289" data-name="Group 65289" transform="translate(52.846 47.223)">
      <path id="Path_21642" data-name="Path 21642" d="M88.555,216.319H79.322a1.714,1.714,0,1,1,0-3.427h9.233a1.714,1.714,0,1,1,0,3.427Z" transform="translate(-77.608 -212.892)" fill="#a2b9e2"/>
    </g>
    <g id="Group_65290" data-name="Group 65290" transform="translate(70.389 55.533)">
      <path id="Path_21643" data-name="Path 21643" d="M201.807,253.784h-43.4a1.714,1.714,0,1,1,0-3.428h43.4a1.714,1.714,0,1,1,0,3.428Z" transform="translate(-156.697 -250.356)" fill="#a2b9e2"/>
    </g>
    <g id="Group_65291" data-name="Group 65291" transform="translate(52.846 55.533)">
      <path id="Path_21644" data-name="Path 21644" d="M88.555,253.784H79.322a1.714,1.714,0,1,1,0-3.428h9.233a1.714,1.714,0,1,1,0,3.428Z" transform="translate(-77.608 -250.356)" fill="#a2b9e2"/>
    </g>
    <g id="Group_65292" data-name="Group 65292" transform="translate(70.389 63.843)">
      <path id="Path_21645" data-name="Path 21645" d="M201.807,291.246h-43.4a1.714,1.714,0,1,1,0-3.427h43.4a1.714,1.714,0,1,1,0,3.427Z" transform="translate(-156.697 -287.819)" fill="#a2b9e2"/>
    </g>
    <g id="Group_65293" data-name="Group 65293" transform="translate(52.846 63.843)">
      <path id="Path_21646" data-name="Path 21646" d="M88.555,291.246H79.322a1.714,1.714,0,1,1,0-3.427h9.233a1.714,1.714,0,1,1,0,3.427Z" transform="translate(-77.608 -287.819)" fill="#a2b9e2"/>
    </g>
    <g id="Group_65294" data-name="Group 65294" transform="translate(70.389 72.153)">
      <path id="Path_21647" data-name="Path 21647" d="M201.807,328.709h-43.4a1.714,1.714,0,1,1,0-3.427h43.4a1.714,1.714,0,1,1,0,3.427Z" transform="translate(-156.697 -325.282)" fill="#a2b9e2"/>
    </g>
    <g id="Group_65295" data-name="Group 65295" transform="translate(52.846 72.153)">
      <path id="Path_21648" data-name="Path 21648" d="M88.555,328.709H79.322a1.714,1.714,0,1,1,0-3.427h9.233a1.714,1.714,0,1,1,0,3.427Z" transform="translate(-77.608 -325.282)" fill="#a2b9e2"/>
    </g>
    <g id="Group_65296" data-name="Group 65296" transform="translate(70.389 80.463)">
      <path id="Path_21649" data-name="Path 21649" d="M201.807,366.173h-43.4a1.714,1.714,0,1,1,0-3.428h43.4a1.714,1.714,0,1,1,0,3.428Z" transform="translate(-156.697 -362.746)" fill="#a2b9e2"/>
    </g>
    <g id="Group_65297" data-name="Group 65297" transform="translate(52.846 80.463)">
      <path id="Path_21650" data-name="Path 21650" d="M88.555,366.173H79.322a1.714,1.714,0,0,1,0-3.428h9.233a1.714,1.714,0,1,1,0,3.428Z" transform="translate(-77.608 -362.746)" fill="#a2b9e2"/>
    </g>
  </g>
</svg>
