<svg id="cakephp-seeklogo.com" xmlns="http://www.w3.org/2000/svg" width="137" height="106.915" viewBox="0 0 137 106.915">
  <path id="Path_21960" data-name="Path 21960" d="M0,64.156C0,75.96,30.661,85.54,68.489,85.54h0v21.375C30.661,106.915,0,97.343,0,85.54H0Zm137,0V85.536c0,5.04-5.6,9.663-14.932,13.32h0L68.485,85.536V64.156l53.583,13.316C131.4,73.819,137,69.2,137,64.156ZM68.489,0C106.322,0,137,9.589,137,21.384h0v21.4c0,5.022-5.6,9.663-14.928,13.3h0l-53.583-13.3V64.156C30.661,64.156,0,54.58,0,42.781H0v-21.4C0,9.589,30.661,0,68.489,0Z" fill="#d33c44" fill-rule="evenodd"/>
</svg>
