<svg xmlns="http://www.w3.org/2000/svg" xmlns:xlink="http://www.w3.org/1999/xlink" width="159" height="160" viewBox="0 0 159 160">
  <defs>
    <linearGradient id="linear-gradient" x1="1" y1="0.638" x2="-0.024" y2="0.308" gradientUnits="objectBoundingBox">
      <stop offset="0" stop-color="#fff"/>
      <stop offset="1" stop-color="#cae4fc"/>
    </linearGradient>
  </defs>
  <g id="Education" transform="translate(-0.326 0.254)">
    <ellipse id="Ellipse_404" data-name="Ellipse 404" cx="79.5" cy="80" rx="79.5" ry="80" transform="translate(0.326 -0.254)" opacity="0.53" fill="url(#linear-gradient)"/>
    <g id="education-2" data-name="education" transform="translate(27.325 25.228)">
      <path id="Path_20955" data-name="Path 20955" d="M126.76,226.807a21.287,21.287,0,0,0-.127,15.765l1.736,3.4H53.418s-13.954-7.841,0-21.795l74.3-1.531Z" transform="translate(-37.239 -173.617)" fill="#f1f2f2"/>
      <path id="Path_20956" data-name="Path 20956" d="M128.372,245.973H53.421s-13.954-7.841,0-21.8l74.3-1.532-.964,4.16a20.41,20.41,0,0,0-1.059,3.381H57.691a4.776,4.776,0,1,0,0,9.553h68.037a18.348,18.348,0,0,0,.906,2.831Z" transform="translate(-37.242 -173.616)" fill="#dee1e1"/>
      <path id="Path_20957" data-name="Path 20957" d="M112.929,239.656l-68.511-.108c-8.208,0-15.257-5.236-15.257-13.444,0-1.813-.316-4.19.279-5.8A14.867,14.867,0,0,1,43.383,210.6h70.285a3.352,3.352,0,0,1,0,6.7H60.474l-5.195,1.219-4.518-1.219H43.383a8.157,8.157,0,1,0,0,16.314h70.285A3.355,3.355,0,0,1,117,237.369C116.8,239.034,114.646,239.656,112.929,239.656Z" transform="translate(-22.934 -164.118)" fill="#b7e546"/>
      <path id="Path_20958" data-name="Path 20958" d="M114.916,270.394a3.351,3.351,0,0,1-3.328,2.958l-34.724,2.081L41.3,273.352a14.868,14.868,0,0,1-13.595-20.876v3.055A14.862,14.862,0,0,0,42.57,270.394Z" transform="translate(-20.853 -197.143)" fill="#abd641"/>
      <path id="Path_20959" data-name="Path 20959" d="M142.436,252.106v-9.773H135.47l-2.473.248.149,9.1a.422.422,0,0,0,.577.393l1.748-.427,1.955-.766a.421.421,0,0,1,.308,0l4.126,1.616A.423.423,0,0,0,142.436,252.106Z" transform="translate(-104.895 -189.143)" fill="#ef5227"/>
      <path id="Path_20960" data-name="Path 20960" d="M134.449,242.336v9.316l-2.17.849a.423.423,0,0,1-.577-.393v-9.772Z" transform="translate(-103.874 -189.146)" fill="#d83724"/>
      <path id="Path_20961" data-name="Path 20961" d="M154.473,165.059v4.765l-.211,2.113a1.479,1.479,0,0,1-1.479,1.479L96.47,173.2a1.478,1.478,0,0,1-1.479-1.479l-.423-6.666,28.908-1.381Z" transform="translate(-74.586 -127.108)" fill="#fdcd08"/>
      <path id="Path_20962" data-name="Path 20962" d="M454.275,98.609a1.585,1.585,0,0,1-1.585-1.585V80.586a1.585,1.585,0,1,1,3.169,0V97.024a1.585,1.585,0,0,1-1.585,1.585Z" transform="translate(-357.038 -60.323)" fill="#77777f"/>
      <path id="Path_20963" data-name="Path 20963" d="M431.114,189.039c-1.323,3.261-2.654,6.477-3.977,9.738a2.96,2.96,0,0,0,2.717,4.085l2.446.211h5.95a2.96,2.96,0,0,0,2.717-4.085l-2.758-6.8-1.735-3.15h-5.359Z" transform="translate(-336.71 -147.11)" fill="#fdcd08"/>
      <path id="Path_20964" data-name="Path 20964" d="M432.458,191.312a8.033,8.033,0,0,0,4.964-1.2l-1.483-3.707-2.451.733h0l-3.2-.426c-.4,1-.99,2.408-1.394,3.4h0l-2.758,6.8a2.959,2.959,0,0,0,2.715,4.084h3.381a2.959,2.959,0,0,1-2.715-4.084l2.06-5.076A.853.853,0,0,1,432.458,191.312Z" transform="translate(-335.924 -145.031)" fill="#faab18"/>
      <path id="Path_20965" data-name="Path 20965" d="M448.118,153.889a4.922,4.922,0,0,0-3.293-4.658c-.5-.172-1.219.134-1.773.134-2.694,0-4.352,1.8-4.352,4.524s2.015,4.351,4.709,4.351c.555,0,.919.479,1.416.307A4.923,4.923,0,0,0,448.118,153.889Z" transform="translate(-346.004 -115.672)" fill="#fdcd08"/>
      <path id="Path_20966" data-name="Path 20966" d="M443.569,157.748a4.807,4.807,0,0,1-1.585.266,4.924,4.924,0,0,1,0-9.849,4.806,4.806,0,0,1,1.585.266,4.941,4.941,0,0,0,0,9.316Z" transform="translate(-344.749 -114.874)" fill="#faab18"/>
      <path id="Path_20967" data-name="Path 20967" d="M101.537,21.957,87.6,26.782l-3.8-.39L56.745,37.463a8.866,8.866,0,0,1-5.8,0L23.892,26.824l-3.8-.041L6.151,21.957a1.773,1.773,0,0,1,0-3.352L51.472,2.917a7.25,7.25,0,0,1,4.744,0l45.321,15.689a1.773,1.773,0,0,1,0,3.352Z" transform="translate(-3.91 0)" fill="#868491"/>
      <path id="Path_20968" data-name="Path 20968" d="M144.079,78.225v1.43L113.224,90.337a8.866,8.866,0,0,1-5.8,0L76.568,79.656v-1.43A6.216,6.216,0,0,1,81.69,72.1a162.281,162.281,0,0,1,57.268,0,6.221,6.221,0,0,1,5.122,6.123Z" transform="translate(-60.389 -52.874)" fill="#77777f"/>
      <path id="Path_20969" data-name="Path 20969" d="M156.05,92.422v12.6H96.779l-.211-12.177a2.418,2.418,0,0,1,1.99-2.379c.6-.108.785-.635,1.39-.737a158.43,158.43,0,0,1,54.111.314,2.42,2.42,0,0,1,1.99,2.379Z" transform="translate(-76.164 -67.07)" fill="#868491"/>
      <path id="Path_20970" data-name="Path 20970" d="M154.473,169.824v2.324a1.479,1.479,0,0,1-1.479,1.479H96.047a1.479,1.479,0,0,1-1.479-1.479v-7.089l1.9-1.381,1.9,1.381v3.708a1.057,1.057,0,0,0,1.056,1.056Z" transform="translate(-74.586 -127.108)" fill="#faab18"/>
      <path id="Path_20971" data-name="Path 20971" d="M98.371,97.846v15.291h-3.8v-12.6a2.418,2.418,0,0,1,1.99-2.379C97.163,98.051,97.767,97.945,98.371,97.846Z" transform="translate(-74.586 -75.186)" fill="#77777f"/>
      <path id="Path_20972" data-name="Path 20972" d="M114.526,389.925a19.88,19.88,0,0,1,0-15.216l.643-2.856h-86.4s-9.726,10.574.632,20.932l86.332.647Z" transform="translate(-19.423 -291.296)" fill="#f1f2f2"/>
      <path id="Path_20973" data-name="Path 20973" d="M115.731,393.434,29.4,392.787c-10.36-10.358-.632-20.931-.632-20.931l86.816.16-1.057,2.694a19.8,19.8,0,0,0-.944,2.882h-79.3a4.776,4.776,0,1,0,0,9.553h79.323a20.042,20.042,0,0,0,.919,2.783Z" transform="translate(-19.422 -291.299)" fill="#dee1e1"/>
      <path id="Path_20974" data-name="Path 20974" d="M99.092,380.258l-78.117-.144c-8.208,0-15.429-4.632-15.429-12.84,0-2.6-.637-6.192.54-8.321A14.858,14.858,0,0,1,19.1,351.275H100.56a3.352,3.352,0,1,1,0,6.7H80.377L75.1,359.147l-4.439-1.167H19.1a8.157,8.157,0,0,0,0,16.314H100.56a3.355,3.355,0,0,1,3.3,3.958C103.573,379.814,100.737,380.258,99.092,380.258Z" transform="translate(-4.239 -275.066)" fill="#ef5227"/>
      <path id="Path_20975" data-name="Path 20975" d="M99.62,403.925a3.356,3.356,0,0,1-3.3,2.747H14.863A14.864,14.864,0,0,1,2.324,383.826v5.236a14.862,14.862,0,0,0,14.863,14.863Z" transform="translate(0 -300.74)" fill="#d83724"/>
      <path id="Path_20976" data-name="Path 20976" d="M325.082,392.842V382.99h-6.543l-2.9.177.156,9.252a.423.423,0,0,0,.577.393l2.17-.592,1.533-.6a.421.421,0,0,1,.308,0l4.126,1.616A.423.423,0,0,0,325.082,392.842Z" transform="translate(-248.943 -300.08)" fill="#fdcd08"/>
      <path id="Path_20977" data-name="Path 20977" d="M317.541,382.986v9.232l-2.593,1.014a.423.423,0,0,1-.577-.393v-9.853Z" transform="translate(-247.946 -300.077)" fill="#faab18"/>
    </g>
  </g>
</svg>
