<svg xmlns="http://www.w3.org/2000/svg" width="162.022" height="93.999" viewBox="0 0 162.022 93.999">
  <g id="expressjs-icon" transform="translate(0 0)">
    <path id="Path_21268" data-name="Path 21268" d="M162.022,91.561c-5.894,1.5-9.539.066-12.81-4.845l-23.26-32.182-3.362-4.456L95.426,86.822c-3.1,4.42-6.359,6.344-12.152,4.78l34.784-46.693L85.674,2.732c5.57-1.084,9.418-.532,12.835,4.456l24.126,32.582,24.3-32.4c3.114-4.42,6.461-6.1,12.05-4.471L146.433,19.542,129.42,41.693c-2.025,2.532-1.747,4.263.116,6.709ZM.041,44.129,2.886,30.134c7.747-27.7,39.493-39.2,61.386-22.091C77.067,18.109,80.247,32.347,79.614,48.3H7.494C6.41,77,27.073,94.33,53.417,85.49c9.24-3.1,14.683-10.339,17.407-19.392,1.382-4.537,3.671-5.245,7.934-3.949C76.581,73.47,71.67,82.928,61.29,88.847,45.781,97.708,23.645,94.842,12,82.528,5.063,75.384,2.2,66.331.911,56.65.709,55.05.3,53.526,0,51.992q.041-3.929.041-7.858ZM7.625,42.2H72.8C72.373,21.446,59.447,6.7,41.781,6.575,22.389,6.423,8.466,20.818,7.625,42.2Z"/>
  </g>
</svg>
