<svg xmlns="http://www.w3.org/2000/svg" xmlns:xlink="http://www.w3.org/1999/xlink" width="159" height="160" viewBox="0 0 159 160">
  <defs>
    <linearGradient id="linear-gradient" x1="1" y1="0.638" x2="-0.024" y2="0.308" gradientUnits="objectBoundingBox">
      <stop offset="0" stop-color="#fff"/>
      <stop offset="1" stop-color="#cae4fc"/>
    </linearGradient>
  </defs>
  <g id="Node_Js" data-name="Node Js" transform="translate(-94 -66)">
    <g id="Education" transform="translate(93.674 66.254)">
      <ellipse id="Ellipse_404" data-name="Ellipse 404" cx="79.5" cy="80" rx="79.5" ry="80" transform="translate(0.326 -0.254)" opacity="0.53" fill="url(#linear-gradient)"/>
    </g>
    <g id="expressjs-icon" transform="translate(132 122)">
      <path id="Path_21268" data-name="Path 21268" d="M82.736,46.755c-3.01.765-4.871.034-6.541-2.474L64.317,27.847,62.6,25.572,48.729,44.335c-1.585,2.257-3.247,3.24-6.205,2.441L60.286,22.932,43.749,1.395C46.593.842,48.558,1.124,50.3,3.67l12.32,16.638L75.034,3.761c1.59-2.257,3.3-3.116,6.153-2.283l-6.412,8.5L66.088,21.29c-1.034,1.293-.892,2.177.059,3.426ZM.021,22.534l1.453-7.146C5.43,1.245,21.641-4.632,32.82,4.107c6.534,5.14,8.157,12.41,7.834,20.555H3.827c-.553,14.66,10,23.507,23.45,18.993,4.719-1.585,7.5-5.28,8.889-9.9.706-2.317,1.874-2.679,4.051-2.017-1.112,5.781-3.62,10.611-8.92,13.633-7.919,4.525-19.223,3.061-25.17-3.227C2.585,38.494,1.122,33.871.465,28.928c-.1-.817-.31-1.6-.465-2.379q.021-2.006.021-4.013Zm3.873-.982h33.28c-.217-10.6-6.818-18.129-15.839-18.194C11.433,3.28,4.323,10.63,3.894,21.552Z"/>
    </g>
  </g>
</svg>
