<svg xmlns="http://www.w3.org/2000/svg" width="116.853" height="106.587" viewBox="0 0 116.853 106.587">
  <g id="_x34_3.Google_Adwords" transform="translate(-10 -13.514)">
    <path id="Path_21651" data-name="Path 21651" d="M78.933,16.41a21.414,21.414,0,0,0-29.27,7.844L12.91,87.913c-9.486,16.428,5.714,36.338,24.1,31.41a21.286,21.286,0,0,0,13.01-9.984L86.775,45.68a21.451,21.451,0,0,0-7.842-29.27Z" transform="translate(0 0.008)" fill="#fabc04"/>
    <path id="Path_21652" data-name="Path 21652" d="M112.251,87.921,75.5,24.261a21.29,21.29,0,0,0-13.01-9.984c-18.394-4.93-33.582,14.989-24.1,31.41l36.755,63.66a21.427,21.427,0,1,0,37.112-21.426Z" transform="translate(11.736)" fill="#3c8bd9"/>
    <path id="Path_21653" data-name="Path 21653" d="M52.133,73A21.415,21.415,0,0,0,25.89,57.852C7.5,62.781,4.3,87.625,20.723,97.106,37.105,106.564,57.089,91.5,52.133,73Z" transform="translate(0.029 20.085)" fill="#34a852"/>
  </g>
</svg>
