<svg id="grpc-icon" xmlns="http://www.w3.org/2000/svg" width="72.735" height="92" viewBox="0 0 72.735 92">
  <path id="Path_21292" data-name="Path 21292" d="M29.358,51.98V69.891a23.026,23.026,0,0,0,1.9,9.72,20.309,20.309,0,0,0,5.01,6.861,21.6,21.6,0,0,0,6.976,4.13,22.469,22.469,0,0,0,15.6,0,21.582,21.582,0,0,0,6.976-4.13,20.29,20.29,0,0,0,5.01-6.861,23.053,23.053,0,0,0,1.9-9.72V40.049l-23.181-.036L49.523,51.98H59.8V69.891q0,4.7-2.587,6.926a9.623,9.623,0,0,1-12.3,0c-1.735-1.482-2.587-3.791-2.587-6.926V22.109q0-4.7,2.587-6.926a9.623,9.623,0,0,1,12.3,0c1.735,1.482,2.587,3.792,2.587,6.926v4.574H72.735V22.109a23.138,23.138,0,0,0-1.9-9.657,20.172,20.172,0,0,0-5.01-6.926,21.635,21.635,0,0,0-6.975-4.131,22.5,22.5,0,0,0-15.6,0,21.582,21.582,0,0,0-6.976,4.13,20.139,20.139,0,0,0-5.01,6.926,23.161,23.161,0,0,0-1.9,9.657V40.021H16.123V26.681h4.059L10.091,12.421,0,26.681H4.2V46a5.971,5.971,0,0,0,5.966,5.98h19.2Z" fill="#2da6b0" fill-rule="evenodd"/>
</svg>
