<svg xmlns="http://www.w3.org/2000/svg" xmlns:xlink="http://www.w3.org/1999/xlink" width="160" height="160" viewBox="0 0 160 160">
  <defs>
    <linearGradient id="linear-gradient" x1="1" y1="0.638" x2="-0.024" y2="0.308" gradientUnits="objectBoundingBox">
      <stop offset="0" stop-color="#fff"/>
      <stop offset="1" stop-color="#cae4fc"/>
    </linearGradient>
  </defs>
  <g id="Healthcare" transform="translate(-949 -4536)">
    <circle id="Ellipse_404" data-name="Ellipse 404" cx="80" cy="80" r="80" transform="translate(949 4536)" opacity="0.53" fill="url(#linear-gradient)"/>
    <g id="healthcare-2" data-name="healthcare" transform="translate(965.658 4581.667)">
      <path id="Path_21190" data-name="Path 21190" d="M234.838,412.977h-1.4" transform="translate(-173.041 -330.573)" fill="none" stroke="#000" stroke-linecap="round" stroke-linejoin="round" stroke-miterlimit="10" stroke-width="15"/>
      <g id="Group_65189" data-name="Group 65189" transform="translate(22.111 66.159)">
        <g id="XMLID_395_" transform="translate(0)">
          <g id="Group_65187" data-name="Group 65187">
            <path id="Path_21191" data-name="Path 21191" d="M105.964,345.085l16.194-9.424a4.463,4.463,0,0,1,4.939,7.417l-24.136,18.258a14.457,14.457,0,0,1-8.718,2.925h-4.8a14.447,14.447,0,0,1-5.573-1.119l-17.743-7.419H52.639l-11.082.034v-19.1H57.308a17.406,17.406,0,0,1,12.307-5.1h.4a17.4,17.4,0,0,1,12.305,5.1l1.026,1.024H96.539a9.857,9.857,0,0,1,9.259,6.467,2.72,2.72,0,0,1,.166.936Z" transform="translate(-41.557 -331.56)" fill="#ffe6c4"/>
          </g>
          <path id="Path_21192" data-name="Path 21192" d="M127.359,354.685c-.084.074-.171.147-.262.216l-24.136,18.258a14.457,14.457,0,0,1-8.718,2.925h-4.8a14.447,14.447,0,0,1-5.573-1.119l-17.262-7.218a2.594,2.594,0,0,0-1-.2H52.639l-11.082.034v6.686l11.082-.034H66.128l17.743,7.419a14.447,14.447,0,0,0,5.573,1.119h4.8a14.457,14.457,0,0,0,8.718-2.925L127.1,361.588a4.465,4.465,0,0,0,.262-6.9Z" transform="translate(-41.557 -350.071)" fill="#fed3a7"/>
          <g id="Group_65188" data-name="Group 65188" transform="translate(43.477 11.357)">
            <path id="Path_21193" data-name="Path 21193" d="M277.867,395.114a7.015,7.015,0,0,0,4.815-2.494,4.736,4.736,0,0,0,1.425-3.774l-.007-.368-3.61,2.1c-.047.055-.1.111-.15.168a3.8,3.8,0,0,1-2.577,1.37c-.047,0-.093-.007-.14-.007H260.943a1.5,1.5,0,0,0,0,2.993h16.619c.1.008.2.011.3.011Z" transform="translate(-259.446 -388.477)" fill="#fed3a7"/>
          </g>
        </g>
      </g>
      <path id="Path_21194" data-name="Path 21194" d="M39.115,359.651v-6.922H39.2V339.221a3.162,3.162,0,0,0-3.161-3.161H24.763v27.464H36.036a3.161,3.161,0,0,0,3.161-3.161v-.794Z" transform="translate(-6.003 -269.004)" fill="#d4f2f6"/>
      <path id="Path_21195" data-name="Path 21195" d="M36.036,419.16H24.763v8.352H36.036A3.161,3.161,0,0,0,39.2,424.35V416A3.162,3.162,0,0,1,36.036,419.16Z" transform="translate(-6.003 -332.991)" fill="#a7e6ef"/>
      <g id="Group_65190" data-name="Group 65190" transform="translate(17.263 62.551)">
        <path id="Path_21196" data-name="Path 21196" d="M18.76,349.976a1.5,1.5,0,0,1-1.5-1.5v-33.5a1.5,1.5,0,0,1,2.993,0v33.5A1.5,1.5,0,0,1,18.76,349.976Z" transform="translate(-17.263 -313.481)" fill="#a7e6ef"/>
      </g>
      <path id="Path_21197" data-name="Path 21197" d="M139.768,5.906a20.164,20.164,0,0,0-28.516,0l-.51.509-.51-.509A20.164,20.164,0,0,0,81.716,34.422l25.51,25.51a4.972,4.972,0,0,0,7.032,0l25.51-25.51a20.164,20.164,0,0,0,0-28.516Z" transform="translate(-46.865 0)" fill="#fd828a"/>
      <g id="Group_65191" data-name="Group 65191" transform="translate(28.945 0)">
        <path id="Path_21198" data-name="Path 21198" d="M94.082,34.424A20.171,20.171,0,0,1,102.157.969,20.167,20.167,0,0,0,81.715,34.424l25.51,25.51a4.972,4.972,0,0,0,7.032,0l2.667-2.667Z" transform="translate(-75.809 -0.002)" fill="#fd6773"/>
      </g>
      <circle id="Ellipse_450" data-name="Ellipse 450" cx="17.921" cy="17.921" r="17.921" transform="translate(45.965 11.96)" fill="#f9f7f8"/>
      <path id="Path_21199" data-name="Path 21199" d="M163.8,168.677q-.466-.466-.895-.956a17.942,17.942,0,0,0,13.9,13.96Z" transform="translate(-116.579 -134.254)" fill="#efedef"/>
      <g id="Group_65192" data-name="Group 65192" transform="translate(24.9 21.066)">
        <path id="Path_21200" data-name="Path 21200" d="M221.111,111.56h-5.219v-5.218a.767.767,0,0,0-.767-.767h-5.752a.767.767,0,0,0-.767.767v5.218h-5.219a.767.767,0,0,0-.767.767v5.752a.767.767,0,0,0,.767.767h5.219v5.218a.767.767,0,0,0,.767.767h5.752a.767.767,0,0,0,.767-.767v-5.218h5.219a.767.767,0,0,0,.767-.767v-5.752A.767.767,0,0,0,221.111,111.56Z" transform="translate(-173.272 -105.574)" fill="#fd828a"/>
        <path id="Path_21201" data-name="Path 21201" d="M388.511,237.76h-3.328v-3.328a.851.851,0,0,0-.851-.851H379.95a.851.851,0,0,0-.851.851v3.328h-3.328a.851.851,0,0,0-.851.851v4.381a.851.851,0,0,0,.851.851H379.1v3.328a.851.851,0,0,0,.851.851h4.381a.851.851,0,0,0,.851-.851v-3.328h3.328a.851.851,0,0,0,.851-.851v-4.381A.851.851,0,0,0,388.511,237.76Z" transform="translate(-311.191 -208.039)" fill="#fd828a"/>
        <path id="Path_21202" data-name="Path 21202" d="M56.388,237.76h3.328v-3.328a.851.851,0,0,1,.851-.851h4.381a.851.851,0,0,1,.851.851v3.328h3.328a.851.851,0,0,1,.851.851v4.381a.851.851,0,0,1-.851.851H65.8v3.328a.851.851,0,0,1-.851.851H60.567a.851.851,0,0,1-.851-.851v-3.328H56.388a.851.851,0,0,1-.851-.851v-4.381A.851.851,0,0,1,56.388,237.76Z" transform="translate(-55.537 -208.039)" fill="#fd828a"/>
      </g>
    </g>
  </g>
</svg>
