<svg id="ibm-watson" xmlns="http://www.w3.org/2000/svg" xmlns:xlink="http://www.w3.org/1999/xlink" width="127.022" height="117.448" viewBox="0 0 127.022 117.448">
  <defs>
    <linearGradient id="linear-gradient" x1="0.82" y1="0.06" x2="0.422" y2="1.118" gradientUnits="objectBoundingBox">
      <stop offset="0" stop-color="#835fe1"/>
      <stop offset="1" stop-color="#4a7edf"/>
    </linearGradient>
  </defs>
  <path id="Path_2630" data-name="Path 2630" d="M158.042,228.667a7.121,7.121,0,0,0,.726,0c.529.016,1.038.021,1.555.06a53.211,53.211,0,0,1,7.049.843,57.334,57.334,0,0,1,8.365,2.229,63.4,63.4,0,0,1,10.284,4.582,65.631,65.631,0,0,1,10.055,6.824c1.48,1.232,2.9,2.525,4.272,3.91,1.16,1.179,2.273,2.394,3.327,3.667a47.725,47.725,0,0,1,4.823,6.942,41.27,41.27,0,0,1,2.826,6.065,33.721,33.721,0,0,1,1.457,5.318,28.219,28.219,0,0,1,.43,3.847,23.627,23.627,0,0,1-.165,4.1,22.151,22.151,0,0,1-.522,2.78,24.067,24.067,0,0,1-.914,2.809,22.471,22.471,0,0,1-2.218,4.161,22.145,22.145,0,0,1-2.376,2.922,23.845,23.845,0,0,1-2.178,1.968,15.908,15.908,0,0,1-1.648,1.195q-.637.425-1.3.807c-.319.19-.659.369-1,.548a31.945,31.945,0,0,1-7.819,2.834q-.705.169-1.421.286c-.593.1-1.187.2-1.767.28q-1.19.174-2.392.242c-.981.072-1.951.119-2.926.133a49.855,49.855,0,0,1-7.553-.511,58.073,58.073,0,0,1-9.092-2.08,65.819,65.819,0,0,1-22.3-12.2,56.564,56.564,0,0,1-7.453-7.5,49.394,49.394,0,0,1-4.609-6.643,37.822,37.822,0,0,1-2.848-6.075,30.19,30.19,0,0,1-1.457-5.318,30.55,30.55,0,0,1-.443-3.824,27.259,27.259,0,0,1,.131-4.086,22.282,22.282,0,0,1,.5-2.792,21.341,21.341,0,0,1,.932-2.891,22.467,22.467,0,0,1,2.218-4.161,22.147,22.147,0,0,1,2.375-2.922,20.526,20.526,0,0,1,2.27-2.039c.534-.437,1.1-.827,1.648-1.195q.637-.425,1.3-.807c.319-.19.659-.369,1-.548a32.068,32.068,0,0,1,7.838-2.823q.705-.169,1.421-.286.951-.173,1.91-.293,1.216-.156,2.393-.242l1.991-.1c.326,0,.63-.02.943,0a1.9,1.9,0,0,1,.359-.016Zm-.229,4.61c-.346-.007-.705.01-1.064.026l-1.991.1c-.839.058-1.683.174-2.527.29-.648.1-1.3.2-1.935.34-.464.111-.949.211-1.392.332-.4.087-.787.208-1.176.33a23.948,23.948,0,0,0-6.595,3.108c-.265.189-.529.379-.807.591-.383.308-.766.614-1.129.932a16.684,16.684,0,0,0-1.369,1.377A18.16,18.16,0,0,0,136,243.1a17.878,17.878,0,0,0-1.621,3.364,21.092,21.092,0,0,0-.664,2.4,19.158,19.158,0,0,0-.313,2.348,22.327,22.327,0,0,0,.6,6.792,29.337,29.337,0,0,0,1.472,4.6,34.765,34.765,0,0,0,2.754,5.358,45.086,45.086,0,0,0,4.415,5.962,55.843,55.843,0,0,0,6.544,6.3,60.63,60.63,0,0,0,9.543,6.332,61.846,61.846,0,0,0,10.859,4.562,50.077,50.077,0,0,0,8.235,1.825,42.114,42.114,0,0,0,6.628.431c1.01-.025,2.019-.051,3.034-.135q1.214-.1,2.418-.289c.614-.09,1.22-.214,1.826-.339l1.393-.332c.376-.1.732-.207,1.088-.317a23.849,23.849,0,0,0,6.52-3.061c.3-.2.6-.4.887-.639.383-.308.766-.614,1.129-.932a13.95,13.95,0,0,0,1.429-1.436,19.237,19.237,0,0,0,1.739-2.3,17.69,17.69,0,0,0,1.629-3.33,15.965,15.965,0,0,0,.646-2.318,20.359,20.359,0,0,0,.351-2.419,23.613,23.613,0,0,0-.545-6.792,29.35,29.35,0,0,0-1.473-4.6,34.765,34.765,0,0,0-2.754-5.358,45.282,45.282,0,0,0-4.477-6.053,53.171,53.171,0,0,0-6.942-6.612,62.133,62.133,0,0,0-8.918-5.9,58.658,58.658,0,0,0-16.608-6.061,49.835,49.835,0,0,0-6.444-.817c-.55-.027-1.1-.054-1.63-.07-.238-.008-.509,0-.747-.013a1.008,1.008,0,0,1-.2.014Z" transform="translate(-107.501 -190.839)" fill="url(#linear-gradient)"/>
  <path id="Path_2631" data-name="Path 2631" d="M156.936,165.283c.407-.005.834,0,1.222.03.875.024,1.732.082,2.588.14a44.265,44.265,0,0,1,12.839,3.055,44.993,44.993,0,0,1,4.694,2.2,42.528,42.528,0,0,1,4.283,2.656q2.071,1.472,3.995,3.135a42.078,42.078,0,0,1,4.281,4.336,45.2,45.2,0,0,1,3.626,4.8,47.194,47.194,0,0,1,3.279,5.925,43.584,43.584,0,0,1,2.267,6.054,45.56,45.56,0,0,1,1.491,7.13,43.948,43.948,0,0,1,.318,7.307,46.675,46.675,0,0,1-1,7.9,46.082,46.082,0,0,1-2.3,7.376,43.393,43.393,0,0,1-2.122,4.477,45.559,45.559,0,0,1-3.025,4.8,44.545,44.545,0,0,1-3.94,4.756,45.093,45.093,0,0,1-23.058,12.9,43.556,43.556,0,0,1-9.544,1.016,51.325,51.325,0,0,1-5.319-.314,47.378,47.378,0,0,1-5.3-.94,40.9,40.9,0,0,1-6.027-1.927,48.4,48.4,0,0,1-4.88-2.3,45.929,45.929,0,0,1-3.991-2.451,44.953,44.953,0,0,1-3.7-2.839,44.41,44.41,0,0,1-7.766-8.6,45.7,45.7,0,0,1-3.374-5.75,45.068,45.068,0,0,1-4.675-21.316,42.888,42.888,0,0,1,.978-8.054,45.044,45.044,0,0,1,7.675-17.167,42.43,42.43,0,0,1,3.57-4.322,43.422,43.422,0,0,1,6.532-5.7,44.709,44.709,0,0,1,19.511-7.934,35.869,35.869,0,0,1,4.439-.439c.507-.041.995-.048,1.483-.054a4.28,4.28,0,0,1,.671,0,.388.388,0,0,0,.289.112Zm-.246,4.592-.732.01c-.445.029-.895.012-1.341.04-1.3.063-2.6.219-3.871.386a36.85,36.85,0,0,0-5.79,1.338,39.6,39.6,0,0,0-11.734,5.819,40.565,40.565,0,0,0-5.861,5.116,39.167,39.167,0,0,0-3.22,3.877,41.824,41.824,0,0,0-2.756,4.357,42.687,42.687,0,0,0-2.1,4.442,39.854,39.854,0,0,0-2.025,6.619,40.456,40.456,0,0,0,.94,20.416,41.357,41.357,0,0,0,2.386,5.983,42.757,42.757,0,0,0,3.113,5.244,36.4,36.4,0,0,0,3.318,4.128,40.655,40.655,0,0,0,3.6,3.464,41.72,41.72,0,0,0,6.918,4.731A43.081,43.081,0,0,0,142.145,248a45.636,45.636,0,0,0,5.04,1.615,34.84,34.84,0,0,0,4.626.844,34.4,34.4,0,0,0,5.034.294,41.734,41.734,0,0,0,8.571-.91,41.231,41.231,0,0,0,15.02-6.66,41.709,41.709,0,0,0,5.686-4.942,38.886,38.886,0,0,0,3.376-4.064,36.547,36.547,0,0,0,2.851-4.532A41.315,41.315,0,0,0,196.327,219a40.873,40.873,0,0,0,.91-7.091,39.4,39.4,0,0,0-.292-6.566,41.539,41.539,0,0,0-1.344-6.413,40.329,40.329,0,0,0-2.152-5.673,42.447,42.447,0,0,0-2.973-5.3,40.181,40.181,0,0,0-3.115-4.107,41.868,41.868,0,0,0-3.943-3.97,42.745,42.745,0,0,0-3.6-2.781,39.191,39.191,0,0,0-13-5.915,41.581,41.581,0,0,0-6.344-1.1c-.816-.082-1.631-.118-2.446-.154a8.661,8.661,0,0,0-1.1-.009.465.465,0,0,0-.246-.043Z" transform="translate(-93.302 -137.834)" fill="url(#linear-gradient)"/>
  <path id="Path_2632" data-name="Path 2632" d="M247.229,191.672c.153.007.334,0,.487.009.351.012.719.034,1.076.076a12.977,12.977,0,0,1,2.708.582,12.663,12.663,0,0,1,4.579,2.616q.591.546,1.147,1.153c.265.317.53.633.766.96.176.24.34.5.5.755a18.226,18.226,0,0,1,2.129,4.8c.074.261.147.521.2.772.078.291.14.572.205.883.081.4.158.773.223,1.164.084.513.157,1.046.23,1.579.086.7.126,1.41.155,2.135.034.948.053,1.886.026,2.825-.045,1.2-.135,2.4-.258,3.588-.19,1.609-.431,3.188-.745,4.78q-.555,2.7-1.319,5.349c-.561,1.94-1.217,3.853-1.935,5.757-.839,2.191-1.773,4.35-2.786,6.493-1.03,2.133-2.127,4.228-3.326,6.264-1.2,2.088-2.511,4.115-3.871,6.085-1.314,1.888-2.694,3.736-4.164,5.506-1.254,1.513-2.558,3-3.936,4.412-1.272,1.312-2.583,2.574-3.966,3.765-.955.84-1.961,1.651-2.988,2.422s-2.076,1.5-3.163,2.184a31.12,31.12,0,0,1-2.9,1.652c-.856.434-1.726.858-2.625,1.212a23.453,23.453,0,0,1-4.4,1.335,17.242,17.242,0,0,1-3.876.354,14.079,14.079,0,0,1-4.186-.7,12.039,12.039,0,0,1-2.754-1.317,14.109,14.109,0,0,1-1.789-1.36,13.065,13.065,0,0,1-1.135-1.174,8.614,8.614,0,0,1-.711-.9c-.159-.228-.319-.457-.461-.675a18.555,18.555,0,0,1-2.1-4.733c-.073-.261-.147-.521-.2-.772-.083-.321-.167-.642-.221-.973-.1-.442-.178-.894-.253-1.346-.073-.533-.145-1.066-.2-1.59-.086-.7-.114-1.43-.155-2.135-.034-.948-.024-1.9,0-2.835q.069-1.8.27-3.609c.19-1.609.443-3.209.774-4.792.364-1.754.79-3.5,1.294-5.227.566-1.91,1.2-3.782,1.893-5.645.8-2.077,1.66-4.115,2.607-6.105q1.552-3.269,3.362-6.406,1.839-3.185,3.926-6.217c1.25-1.814,2.595-3.6,3.984-5.311q1.838-2.249,3.837-4.359c1.3-1.352,2.63-2.655,4.048-3.91.943-.819,1.891-1.609,2.89-2.369.97-.75,1.962-1.459,2.992-2.119.892-.576,1.789-1.122,2.725-1.618.879-.475,1.791-.93,2.713-1.326a29.033,29.033,0,0,1,3.733-1.309,20.437,20.437,0,0,1,3.41-.6c.3-.017.614-.055.931-.062l.409-.01a.525.525,0,0,0,.187.026Zm-.135,4.614c-.289,0-.573.024-.846.03a14.063,14.063,0,0,0-2.6.435,21.065,21.065,0,0,0-3.43,1.211c-.779.342-1.536.723-2.259,1.123q-1.277.7-2.485,1.512c-.9.6-1.775,1.212-2.636,1.889-.9.708-1.8,1.445-2.659,2.2-1.193,1.057-2.346,2.164-3.433,3.31-1.232,1.28-2.408,2.62-3.551,3.979q-1.871,2.257-3.56,4.655-1.884,2.682-3.574,5.493-1.643,2.733-3.055,5.6c-.945,1.909-1.829,3.827-2.628,5.793-.679,1.681-1.309,3.391-1.859,5.119-.513,1.586-.958,3.211-1.359,4.835-.365,1.563-.672,3.1-.9,4.693-.176,1.235-.306,2.469-.375,3.712q-.1,1.451-.068,2.908c.017.746.046,1.472.119,2.2.049.574.132,1.167.227,1.74.074.452.161.884.264,1.326.088.351.177.7.277,1.033.073.26.164.531.249.771.075.18.137.38.214.56a4.606,4.606,0,0,0,.2.47,10.834,10.834,0,0,0,1.866,2.933,5.072,5.072,0,0,0,.4.424c.2.2.411.374.622.55a7.076,7.076,0,0,0,1.022.672,7.866,7.866,0,0,0,1.539.67,9.378,9.378,0,0,0,2.6.413,13.116,13.116,0,0,0,3.006-.283c.587-.125,1.14-.269,1.706-.434a20.232,20.232,0,0,0,2.007-.724,24.41,24.41,0,0,0,2.322-1.114c.879-.475,1.723-.969,2.547-1.5q1.3-.849,2.547-1.776,1.485-1.116,2.878-2.348c1.221-1.068,2.387-2.2,3.531-3.362,1.208-1.239,2.362-2.538,3.463-3.866q1.863-2.238,3.577-4.645c1.307-1.837,2.558-3.733,3.709-5.688,1.1-1.822,2.109-3.692,3.072-5.592s1.829-3.827,2.629-5.793c.7-1.722,1.327-3.462,1.9-5.231.532-1.657,1.012-3.344,1.386-5.037.353-1.542.656-3.115.884-4.672.169-1.184.287-2.4.361-3.611.068-.97.073-1.949.05-2.917q-.044-1.1-.137-2.206c-.049-.574-.144-1.147-.24-1.72q-.11-.667-.265-1.326c-.088-.351-.177-.7-.277-1.033q-.112-.389-.249-.771c-.075-.18-.137-.38-.214-.56a11.341,11.341,0,0,0-2.027-3.354,4.969,4.969,0,0,0-.455-.453c-.2-.2-.411-.374-.623-.55a10.929,10.929,0,0,0-1.039-.681,8.247,8.247,0,0,0-1.584-.669,10.567,10.567,0,0,0-1.711-.333c-.215-.015-.43-.03-.628-.034-.108-.008-.244,0-.351-.012,0,.03-.04.031-.114.043Z" transform="translate(-167.953 -159.941)" fill="url(#linear-gradient)"/>
  <path id="Path_2633" data-name="Path 2633" d="M82.688,40.837c.519,0,1.069.008,1.6.027a34.385,34.385,0,0,1,4.262.437,27.163,27.163,0,0,1,3.839.931,20.31,20.31,0,0,1,4.949,2.289l2.44,1.864a14.228,14.228,0,0,1,1.533,1.663,15.213,15.213,0,0,1,2.741,5.362,13.677,13.677,0,0,1,.383,1.7c.083.427.125.877.176,1.3.029.333.047.648.064.962a21.245,21.245,0,0,1-.8,6.457c-.1.306-.162.618-.258.924-.125.4-.251.794-.4,1.2-.184.531-.4,1.055-.616,1.58q-.431,1.042-.947,2.045c-.406.809-.832,1.63-1.3,2.425-.616,1.056-1.266,2.056-1.97,3.061-.783,1.1-1.587,2.165-2.433,3.2q-1.3,1.574-2.706,3.061c-1.032,1.1-2.1,2.134-3.191,3.166Q88.094,86.308,86,87.963c-1.517,1.2-3.086,2.356-4.7,3.437-1.786,1.206-3.615,2.337-5.476,3.412q-2.967,1.675-6.054,3.121c-1.857.847-3.765,1.65-5.679,2.354-1.851.669-3.713,1.269-5.6,1.784q-2.7.729-5.457,1.227c-1.591.269-3.2.5-4.8.621a40.946,40.946,0,0,1-4.259.137,35.191,35.191,0,0,1-5.019-.425,27.578,27.578,0,0,1-4.328-1.024,21.624,21.624,0,0,1-4.919-2.331l-.664-.441a21.4,21.4,0,0,1-1.766-1.453,15.827,15.827,0,0,1-1.48-1.619,14.767,14.767,0,0,1-2.7-5.289,13.7,13.7,0,0,1-.383-1.7c-.062-.439-.125-.878-.176-1.3-.029-.333-.047-.648-.064-.962a21.244,21.244,0,0,1,.8-6.458c.1-.306.162-.618.258-.924.125-.4.251-.794.4-1.2.184-.531.4-1.055.616-1.58.274-.658.582-1.31.886-1.961.395-.828.832-1.63,1.3-2.425.6-1.044,1.266-2.056,1.951-3.049.7-1,1.446-1.985,2.2-2.944.906-1.123,1.846-2.191,2.836-3.261C34.768,62.584,35.862,61.5,37,60.447c1.248-1.145,2.518-2.253,3.841-3.317q2.153-1.728,4.422-3.3,2.708-1.864,5.558-3.509c1.78-1.027,3.6-1.98,5.438-2.865,1.949-.924,3.929-1.794,5.944-2.557,1.767-.671,3.568-1.286,5.37-1.8,1.7-.506,3.421-.924,5.134-1.266,1.342-.274,2.716-.494,4.06-.67,1.22-.155,2.462-.272,3.715-.321.611-.028,1.232-.037,1.855-.047a.827.827,0,0,0,.354.046Zm-.181,4.6c-.487.007-.974.013-1.451.038-1.171.051-2.371.145-3.539.3-1.272.16-2.563.38-3.843.62-1.609.33-3.187.716-4.773,1.182-1.771.523-3.531,1.114-5.246,1.78-1.562.6-3.112,1.272-4.64,1.98-1.692.8-3.383,1.653-5.01,2.567a76.014,76.014,0,0,0-8.333,5.411,71.938,71.938,0,0,0-6.83,5.842q-1.379,1.358-2.66,2.81c-.808.916-1.594,1.869-2.349,2.83a38.569,38.569,0,0,0-2.287,3.269c-.539.861-1.068,1.741-1.534,2.635-.367.687-.692,1.4-1.018,2.111-.236.536-.451,1.11-.645,1.671q-.244.7-.445,1.405l-.286,1.064c-.076.294-.121.594-.2.888l-.108.662a15.149,15.149,0,0,0,.006,4.593c.037.253.095.495.152.737.091.347.193.713.316,1.067a8.5,8.5,0,0,0,.625,1.413,11.1,11.1,0,0,0,1.2,1.8,13.556,13.556,0,0,0,1.159,1.2c.392.348.825.673,1.247.979a14.577,14.577,0,0,0,1.944,1.1,18.17,18.17,0,0,0,2.46.953,25.556,25.556,0,0,0,3.232.732,29.562,29.562,0,0,0,4.1.353c1.328.034,2.665-.015,4-.111,1.428-.125,2.855-.3,4.27-.542,1.735-.3,3.447-.691,5.147-1.148q2.652-.71,5.228-1.67c1.686-.624,3.35-1.285,4.992-2.032,1.775-.8,3.527-1.687,5.247-2.63a76.75,76.75,0,0,0,8.2-5.211Q82.872,84.624,84.771,83q1.638-1.395,3.188-2.889,1.44-1.393,2.783-2.881,1.281-1.416,2.461-2.92,1.232-1.579,2.318-3.261.871-1.327,1.615-2.731c.377-.719.743-1.453,1.058-2.184.246-.566.479-1.152.685-1.746q.244-.7.445-1.405l.286-1.064c.076-.294.12-.594.2-.888l.108-.662a14.627,14.627,0,0,0-.018-4.661c-.037-.253-.095-.495-.152-.737-.091-.347-.193-.713-.316-1.067a12.274,12.274,0,0,0-.657-1.469A10.151,10.151,0,0,0,97.492,50.6a13.435,13.435,0,0,0-1.222-1.218c-.412-.336-.845-.661-1.288-.955a15.807,15.807,0,0,0-2.039-1.121,18.789,18.789,0,0,0-2.521-.918,27.13,27.13,0,0,0-2.94-.65,32.181,32.181,0,0,0-3.461-.325c-.415-.01-.809-.032-1.214-.024a.829.829,0,0,1-.3.048ZM63.311-.029A.666.666,0,0,1,63.536,0a2.179,2.179,0,0,1,.549.156,2.384,2.384,0,0,1,.824.573,2.362,2.362,0,0,1,.5.885,2.817,2.817,0,0,1,.1.442V16.627a.75.75,0,0,1-.025.234,2.672,2.672,0,0,1-.25.755,2.163,2.163,0,0,1-.4.548,2.679,2.679,0,0,1-.849.548,2.307,2.307,0,0,1-1.648-.026,2.277,2.277,0,0,1-.674-.416,2.144,2.144,0,0,1-.524-.729,1.963,1.963,0,0,1-.2-.65c0-.078-.025-.156-.025-.234V2.079a2.151,2.151,0,0,1,.125-.548,2.379,2.379,0,0,1,.549-.859,2.678,2.678,0,0,1,.849-.548A4.184,4.184,0,0,1,62.986,0h.225c.025-.026.05-.026.1-.026ZM98.781,9.5c.034-.01.078.015.113,0,.078.015.134.017.212.032a1.751,1.751,0,0,1,.593.222,2.308,2.308,0,0,1,.8.67,2.614,2.614,0,0,1,.423.966,1.949,1.949,0,0,1,.008.636,2.27,2.27,0,0,1-.161.628c-.039.068-.043.125-.082.193l-.052.09L93.51,25.273l-.052.09a.6.6,0,0,1-.126.168,1.784,1.784,0,0,1-.548.5,2.23,2.23,0,0,1-.771.336,2.293,2.293,0,0,1-.848.021,2.905,2.905,0,0,1-.9-.34,2.841,2.841,0,0,1-.685-.665,1.917,1.917,0,0,1-.272-.577,1.953,1.953,0,0,1-.1-.72,2.37,2.37,0,0,1,.165-.836c.039-.068.043-.125.082-.193l.052-.09,7.119-12.328.1-.18c.087-.1.186-.223.274-.323a2.321,2.321,0,0,1,.5-.371,2.452,2.452,0,0,1,.593-.228,2.213,2.213,0,0,1,.32-.055c.091-.008.113,0,.2,0,.1.027.134.017.156.03ZM27.812,9.493a.762.762,0,0,1,.217.025,1.769,1.769,0,0,1,.32.055,1.951,1.951,0,0,1,.585.264,2.453,2.453,0,0,1,.494.406,1.378,1.378,0,0,1,.2.245l.1.18L36.849,23l.052.09a.6.6,0,0,1,.082.193,2.37,2.37,0,0,1,.165.836,2.486,2.486,0,0,1-.1.72,2.433,2.433,0,0,1-.467.84,2.322,2.322,0,0,1-.77.565,2.742,2.742,0,0,1-.619.177,2.612,2.612,0,0,1-.848-.021,2.23,2.23,0,0,1-.771-.336,3.822,3.822,0,0,1-.548-.5c-.039-.068-.087-.1-.126-.168l-.051-.09L25.73,12.979l-.052-.09a.6.6,0,0,1-.083-.193,1.783,1.783,0,0,1-.156-.721,3.724,3.724,0,0,1,.042-.626,2.524,2.524,0,0,1,.458-.955,2.4,2.4,0,0,1,.831-.66,2.758,2.758,0,0,1,.618-.177c.078-.015.134-.017.212-.032.034.01.078-.015.113,0C27.721,9.486,27.756,9.5,27.812,9.493ZM2.532,35.266a.566.566,0,0,1,.2.026,1.517,1.517,0,0,1,.32.068,1.378,1.378,0,0,1,.3.113l.18.1L15.852,42.7l.09.052a.594.594,0,0,1,.168.126,2.373,2.373,0,0,1,.561.641,2.447,2.447,0,0,1,.319.9,2.6,2.6,0,0,1-.064.944,1.692,1.692,0,0,1-.267.567,1.73,1.73,0,0,1-.5.548,2.606,2.606,0,0,1-.745.406,2.23,2.23,0,0,1-.836.094,3.822,3.822,0,0,1-.721-.157c-.068-.039-.125-.043-.193-.082l-.09-.052L1.249,39.567l-.09-.052a.594.594,0,0,1-.168-.126,1.785,1.785,0,0,1-.5-.548,1.985,1.985,0,0,1-.306-.667A2.378,2.378,0,0,1,.1,37.552a2.225,2.225,0,0,1,.174-.821,2.331,2.331,0,0,1,.447-.722,2.855,2.855,0,0,1,.5-.4,2.407,2.407,0,0,1,.9-.315,1.1,1.1,0,0,1,.22-.017.389.389,0,0,1,.115.009c-.01-.034.025-.043.068-.017Zm122.352-.014a.137.137,0,0,0,.093,0,1.086,1.086,0,0,0,.22.017,2.544,2.544,0,0,1,.7.229,2.154,2.154,0,0,1,.67.536,2.411,2.411,0,0,1,.4.636,1.609,1.609,0,0,1,.142.61,2.423,2.423,0,0,1-.018.645,1.946,1.946,0,0,1-.236.685,2.216,2.216,0,0,1-.6.724c-.068.039-.1.087-.168.126l-.09.052-12.327,7.116-.09.052a.594.594,0,0,1-.193.082,1.78,1.78,0,0,1-.721.157,2.23,2.23,0,0,1-.836-.094,2.291,2.291,0,0,1-.745-.406,2.451,2.451,0,0,1-.447-.463,2.324,2.324,0,0,1-.384-.874,2.269,2.269,0,0,1,.016-.961,1.954,1.954,0,0,1,.271-.676,2.373,2.373,0,0,1,.561-.641c.068-.039.1-.087.168-.126l.09-.052,12.329-7.119.18-.1a3.843,3.843,0,0,1,.5-.174.982.982,0,0,1,.31-.034.386.386,0,0,0,.115-.009.128.128,0,0,0,.095.061Z" transform="translate(-0.1 0.031)" fill="url(#linear-gradient)"/>
</svg>
