<svg id="javascript" xmlns="http://www.w3.org/2000/svg" width="96" height="96" viewBox="0 0 96 96">
  <g id="Group_65211" data-name="Group 65211">
    <path id="Path_21287" data-name="Path 21287" d="M0,0H96V96H0Z" fill="#f7df1e" fill-rule="evenodd"/>
    <path id="Path_21288" data-name="Path 21288" d="M39,68.388v-31.2h8.4v31.2c0,12-16.8,19.2-26.4,4.8l7.2-4.8C31.8,75.588,39,73.188,39,68.388Zm36-20.4c-4.8-6.6-10.8-3.6-10.8.6,0,6.6,19.8,5.4,19.8,19.8-.6,16.8-24,16.2-31.2,3.6l7.2-4.2c5.4,8.4,15,5.4,15,.6-.6-8.4-19.2-4.2-19.2-19.8-.6-12,17.4-18.6,25.8-4.8l-6.6,4.2" transform="translate(4.2 7.212)" fill="#323232" fill-rule="evenodd"/>
  </g>
</svg>
