<svg xmlns="http://www.w3.org/2000/svg" xmlns:xlink="http://www.w3.org/1999/xlink" width="159" height="160" viewBox="0 0 159 160">
  <defs>
    <linearGradient id="linear-gradient" x1="1" y1="0.638" x2="-0.024" y2="0.308" gradientUnits="objectBoundingBox">
      <stop offset="0" stop-color="#fff"/>
      <stop offset="1" stop-color="#cae4fc"/>
    </linearGradient>
  </defs>
  <g id="Backbone" transform="translate(-94 -66)">
    <g id="Education" transform="translate(93.674 66.254)">
      <ellipse id="Ellipse_404" data-name="Ellipse 404" cx="79.5" cy="80" rx="79.5" ry="80" transform="translate(0.326 -0.254)" opacity="0.53" fill="url(#linear-gradient)"/>
    </g>
    <g id="java-icon" transform="translate(129.001 86)">
      <g id="Group_65214" data-name="Group 65214" transform="translate(0)">
        <path id="Path_21297" data-name="Path 21297" d="M28.6,62.471s-4.612,2.8,3.206,3.607c9.375,1.2,14.426,1,24.844-1a37.54,37.54,0,0,0,6.611,3.206c-23.437,10.02-53.1-.6-34.665-5.812Zm-3-13.024s-5.01,3.806,2.8,4.612a94.9,94.9,0,0,0,32.062-1.6,12.225,12.225,0,0,0,4.807,3c-28.252,8.415-59.909.8-39.675-6.011Zm55.3,22.875s3.4,2.8-3.806,5.01c-13.425,4.012-56.3,5.25-68.324,0-4.207-1.8,3.806-4.406,6.375-4.807a20.037,20.037,0,0,1,4.012-.6C14.549,68.718-11.494,78.536,5.94,81.3c47.887,7.815,87.359-3.4,74.936-9.015ZM30.772,35.82s-21.84,5.25-7.815,7.012c6.011.8,17.831.6,28.852-.2,9.015-.8,18-2.4,18-2.4a48.287,48.287,0,0,0-5.411,2.8C42.16,48.851-.522,46.245,11.7,40.234c10.417-5.01,19.035-4.406,19.035-4.406ZM69.846,57.66c22.44-11.625,12.022-22.875,4.807-21.439a12.666,12.666,0,0,0-2.606.8,3.435,3.435,0,0,1,2-1.6C88.278,30.412,99.5,50.449,69.438,58.3a2.507,2.507,0,0,0,.4-.6ZM33.022,89.321c21.637,1.4,54.7-.8,55.5-11.025,0,0-1.6,4.012-17.831,7.012-18.435,3.4-41.276,3-54.7.8,0,0,2.8,2.4,17.032,3.206Z" transform="translate(0 30.299)" fill="#4e7896"/>
        <path id="Path_21298" data-name="Path 21298" d="M42.909,0s12.424,12.622-11.82,31.657c-19.436,15.427-4.406,24.244,0,34.263C19.667,55.7,11.454,46.683,17.064,38.272,25.276,25.845,47.919,19.871,42.909,0ZM36.534,57.506c5.812,6.611-1.6,12.622-1.6,12.622S49.76,62.516,42.946,53.1c-6.21-9.015-11.025-13.425,15.026-28.451C57.972,24.645,16.9,34.863,36.534,57.506Z" transform="translate(13.347)" fill="#f58219"/>
      </g>
    </g>
  </g>
</svg>
