<svg xmlns="http://www.w3.org/2000/svg" width="142.047" height="96.667" viewBox="0 0 142.047 96.667">
  <g id="laravel" transform="translate(0 0)">
    <path id="Path_21266" data-name="Path 21266" d="M88.234,96.666a2.182,2.182,0,0,1-1.88-1.063L69.808,68,38.863,76.438a2.187,2.187,0,0,1-2.441-1.1L.26,7.349A2.187,2.187,0,0,1,1.9,4.149L32.6.02A2.185,2.185,0,0,1,34.77,1.059L71.835,62.915,114.905,51.2l-14.36-20.286a2.186,2.186,0,0,1,1.218-3.4l20.153-4.763a2.188,2.188,0,0,1,2.211.757l17.438,21.751a2.187,2.187,0,0,1-1.136,3.48L122.112,53.74l16.033,22.594a2.187,2.187,0,0,1-1.063,3.334L88.933,96.509a2.208,2.208,0,0,1-.7.135ZM74.19,66.808l15,25.009,43.705-15.3L117.626,55ZM5.593,8.033l33.84,63.7L67.52,64.111,31.751,4.555Zm100.43,23.007L119.455,49.98l16.706-4.543-14.535-18.1Z" transform="translate(0 0)" fill="#ef533f"/>
  </g>
</svg>
