<svg xmlns="http://www.w3.org/2000/svg" xmlns:xlink="http://www.w3.org/1999/xlink" width="159" height="160" viewBox="0 0 159 160">
  <defs>
    <linearGradient id="linear-gradient" x1="1" y1="0.638" x2="-0.024" y2="0.308" gradientUnits="objectBoundingBox">
      <stop offset="0" stop-color="#fff"/>
      <stop offset="1" stop-color="#cae4fc"/>
    </linearGradient>
  </defs>
  <g id="Lumen" transform="translate(-94 -66)">
    <g id="Education" transform="translate(93.674 66.254)">
      <ellipse id="Ellipse_404" data-name="Ellipse 404" cx="79.5" cy="80" rx="79.5" ry="80" transform="translate(0.326 -0.254)" opacity="0.53" fill="url(#linear-gradient)"/>
    </g>
    <path id="lumen-2" data-name="lumen" d="M2.863,27.043a2.851,2.851,0,0,0,1.2-.267L46.843,6.886A2.861,2.861,0,0,0,44.431,1.7L1.656,21.587a2.861,2.861,0,0,0,1.208,5.455ZM44.431,13.857,1.656,33.746a2.861,2.861,0,1,0,2.412,5.188L46.843,19.045a2.861,2.861,0,0,0-2.412-5.188Zm0,12.261L1.656,46.006a2.861,2.861,0,1,0,2.412,5.188L46.843,31.305a2.861,2.861,0,0,0-2.412-5.188ZM2.863,14.918a2.853,2.853,0,0,0,1.207-.269l19.719-9.2A2.861,2.861,0,1,0,21.371.269L1.652,9.464a2.861,2.861,0,0,0,1.211,5.454ZM44.42,38.28,29.3,45.389a2.861,2.861,0,0,0-1.644,2.589V62.257H21.048V51.6a2.861,2.861,0,0,0-5.721,0v10.66h-4.1a1.954,1.954,0,0,0-1.923,2.3l.965,5.356a1.953,1.953,0,0,0,1.923,1.607H22.229L11.6,73.451a1.43,1.43,0,1,0,.511,2.815l24.385-4.428a1.423,1.423,0,0,0,.9-.573,1.949,1.949,0,0,0,.969-1.4l.827-5.357a1.954,1.954,0,0,0-1.931-2.251H33.377V49.794l13.478-6.336A2.861,2.861,0,0,0,44.42,38.28ZM35.982,76.312,11.6,80.739a1.43,1.43,0,1,0,.511,2.814l24.385-4.427a1.43,1.43,0,1,0-.511-2.814Zm0,7.561L11.6,88.3a1.43,1.43,0,1,0,.511,2.815l24.385-4.427a1.43,1.43,0,1,0-.511-2.814ZM33.065,91.5,14.879,94.632a1.43,1.43,0,1,0,.486,2.819l18.187-3.133a1.43,1.43,0,1,0-.486-2.819Z" transform="translate(149 96.999)" fill="#e54537"/>
  </g>
</svg>
