<svg xmlns="http://www.w3.org/2000/svg" xmlns:xlink="http://www.w3.org/1999/xlink" width="159" height="160" viewBox="0 0 159 160">
  <defs>
    <linearGradient id="linear-gradient" x1="1" y1="0.638" x2="-0.024" y2="0.308" gradientUnits="objectBoundingBox">
      <stop offset="0" stop-color="#fff"/>
      <stop offset="1" stop-color="#cae4fc"/>
    </linearGradient>
  </defs>
  <g id="MongoDB" transform="translate(-94 -66)">
    <ellipse id="Ellipse_404" data-name="Ellipse 404" cx="79.5" cy="80" rx="79.5" ry="80" transform="translate(94 66)" opacity="0.53" fill="url(#linear-gradient)"/>
    <g id="mongodb-2" data-name="mongodb" transform="translate(148 90)">
      <g id="Group_65225" data-name="Group 65225" transform="translate(0 0)">
        <path id="Path_21352" data-name="Path 21352" d="M17.741.218,20.73,5.832a16.772,16.772,0,0,0,2.257,2.807A78.432,78.432,0,0,1,30,16.57,68.558,68.558,0,0,1,40.919,38.591a54.116,54.116,0,0,1,2.317,14.944,52.739,52.739,0,0,1-15.4,38.917,44.437,44.437,0,0,1-5.495,4.7c-1.036,0-1.526-.794-1.953-1.526a12.544,12.544,0,0,1-1.526-4.392,21.251,21.251,0,0,1-.49-5.551v-.854c-.084-.217-1-84.21-.634-84.606Z" transform="translate(7.062 0.087)" fill="#599636"/>
        <path id="Path_21353" data-name="Path 21353" d="M24.8.12c-.122-.245-.245-.059-.367.059A5.64,5.64,0,0,1,23.4,3.539a14.892,14.892,0,0,1-2.684,2.684A58.458,58.458,0,0,0,7.6,22.939,67.134,67.134,0,0,0,.042,50.264c-.3,3.475,1.1,15.739,2.194,19.277a58.439,58.439,0,0,0,15.312,24.1,61.292,61.292,0,0,0,5.425,4.637c.549,0,.609-.49.7-.854a16.743,16.743,0,0,0,.549-2.38l1.225-9.149L24.8.119Z" transform="translate(0 0)" fill="#6cac48"/>
        <path id="Path_21354" data-name="Path 21354" d="M21.228,76.9a8.329,8.329,0,0,1,1.526-3.72,4.039,4.039,0,0,1-1.708-1.585,11.366,11.366,0,0,1-.91-2.012,34.834,34.834,0,0,1-1.281-7.868V60.13c-.3.245-.367,2.317-.367,2.625a60.622,60.622,0,0,1-1.1,8.235,7.321,7.321,0,0,1-.98,3.171,1.23,1.23,0,0,0,.059.427,36.392,36.392,0,0,1,1.585,9.883V85.7c0,1.463-.059,1.155,1.155,1.645a5.35,5.35,0,0,1,1.526.609c.367,0,.427-.3.427-.549l-.182-2.012V79.775a14.846,14.846,0,0,1,.245-2.87Z" transform="translate(6.564 24.052)" fill="#c2bfbf"/>
      </g>
    </g>
  </g>
</svg>
