<svg xmlns="http://www.w3.org/2000/svg" xmlns:xlink="http://www.w3.org/1999/xlink" width="159" height="160" viewBox="0 0 159 160">
  <defs>
    <linearGradient id="linear-gradient" x1="1" y1="0.638" x2="-0.024" y2="0.308" gradientUnits="objectBoundingBox">
      <stop offset="0" stop-color="#fff"/>
      <stop offset="1" stop-color="#cae4fc"/>
    </linearGradient>
  </defs>
  <g id="My_sql" data-name="My sql" transform="translate(-94 -66)">
    <g id="Docker">
      <g id="Education" transform="translate(93.674 66.254)">
        <ellipse id="Ellipse_404" data-name="Ellipse 404" cx="79.5" cy="80" rx="79.5" ry="80" transform="translate(0.326 -0.254)" opacity="0.53" fill="url(#linear-gradient)"/>
      </g>
      <g id="mysql" transform="translate(137 110)">
        <path id="Path_24380" data-name="Path 24380" d="M67.066,55.278a22.915,22.915,0,0,0-9.607,1.387c-.743.3-1.931.3-2.03,1.238.4.4.446,1.04.793,1.585A11.592,11.592,0,0,0,58.8,62.508c1.039.792,2.08,1.585,3.169,2.278,1.931,1.189,4.11,1.882,5.992,3.07,1.089.693,2.179,1.585,3.268,2.327.545.4.891,1.039,1.585,1.288v-.148c-.347-.446-.446-1.089-.792-1.585-.5-.5-.99-.941-1.485-1.436a23.479,23.479,0,0,0-5.15-5c-1.585-1.089-5.051-2.575-5.695-4.408l-.1-.1A20.081,20.081,0,0,0,63,58c1.684-.446,3.219-.347,4.952-.792.792-.2,1.585-.446,2.377-.694v-.445c-.891-.892-1.535-2.08-2.476-2.921a65.9,65.9,0,0,0-8.171-6.091c-1.535-.99-3.516-1.635-5.15-2.476-.594-.3-1.585-.446-1.931-.941a19.962,19.962,0,0,1-2.03-3.813c-1.435-2.724-2.822-5.744-4.061-8.616a52.8,52.8,0,0,0-2.526-5.645c-5.1-8.419-10.647-13.519-19.164-18.521a23.835,23.835,0,0,0-6.338-2.03l-3.714-.2a19.851,19.851,0,0,1-2.278-1.733C9.672,1.3,2.393-2.56.312,2.54c-1.337,3.218,1.981,6.387,3.12,8.022a23.352,23.352,0,0,1,2.526,3.714c.347.841.445,1.733.792,2.625a59.6,59.6,0,0,0,2.575,6.636,23.936,23.936,0,0,0,1.832,3.07c.4.544,1.089.793,1.238,1.684-.694.99-.743,2.476-1.139,3.714-1.783,5.6-1.089,12.529,1.436,16.639.792,1.238,2.674,3.962,5.2,2.921,2.228-.891,1.733-3.714,2.377-6.19.149-.594.05-.99.347-1.386v.1l2.03,4.11a28.28,28.28,0,0,0,6.437,6.636c1.189.891,2.13,2.426,3.615,2.972v-.149h-.1a5.472,5.472,0,0,0-1.139-.99,23.949,23.949,0,0,1-2.575-2.972,63.62,63.62,0,0,1-5.546-9.013c-.792-1.535-1.485-3.219-2.13-4.754-.3-.594-.3-1.485-.793-1.783a18.676,18.676,0,0,0-2.377,3.367c-.94,2.13-1.039,4.754-1.386,7.478-.2.05-.1,0-.2.1-1.585-.4-2.13-2.03-2.724-3.417a21.419,21.419,0,0,1-.445-13.221c.347-1.04,1.832-4.309,1.238-5.3-.3-.941-1.288-1.485-1.832-2.228a20.045,20.045,0,0,1-1.783-3.169c-1.189-2.773-1.783-5.843-3.07-8.617A26.252,26.252,0,0,0,5.361,9.326,24.751,24.751,0,0,1,2.64,5.462c-.248-.544-.594-1.436-.2-2.03a.789.789,0,0,1,.694-.643c.643-.545,2.476.148,3.12.445a25.246,25.246,0,0,1,4.9,2.476c.694.5,1.436,1.436,2.327,1.684h1.04c1.585.347,3.367.1,4.853.544a31.664,31.664,0,0,1,7.131,3.417,43.935,43.935,0,0,1,15.45,16.935c.594,1.139.842,2.179,1.386,3.367,1.04,2.426,2.327,4.9,3.367,7.279a32.545,32.545,0,0,0,3.516,6.636c.743,1.039,3.714,1.585,5.051,2.13A35.087,35.087,0,0,1,58.7,49.087c1.684,1.039,3.367,2.228,4.952,3.367.793.594,3.268,1.832,3.417,2.822h0ZM16.555,12.246a7.836,7.836,0,0,0-2.03.248v.1h.1a16.054,16.054,0,0,0,1.585,2.03L17.348,17l.1-.1a2.794,2.794,0,0,0,1.04-2.476,11.015,11.015,0,0,1-.594-1.04c-.3-.5-.941-.743-1.337-1.139h0Z" transform="translate(0 0)" fill="#00546b"/>
      </g>
    </g>
  </g>
</svg>
