<svg xmlns="http://www.w3.org/2000/svg" xmlns:xlink="http://www.w3.org/1999/xlink" width="75" height="75" viewBox="0 0 75 75">
  <defs>
    <linearGradient id="linear-gradient" x1="0.974" y1="0.238" x2="-0.052" y2="0.609" gradientUnits="objectBoundingBox">
      <stop offset="0" stop-color="#fff"/>
      <stop offset="1" stop-color="#006bc0" stop-opacity="0.071"/>
    </linearGradient>
  </defs>
  <g id="Native_Android" data-name="Native Android" transform="translate(-188 -1351.534)">
    <circle id="Ellipse_421" data-name="Ellipse 421" cx="37.5" cy="37.5" r="37.5" transform="translate(188 1351.534)" opacity="0.42" fill="url(#linear-gradient)"/>
    <g id="android_1_" data-name="android (1)" transform="translate(181.548 1358.715)">
      <g id="Group_65424" data-name="Group 65424" transform="translate(27.428 0)">
        <path id="Path_52130" data-name="Path 52130" d="M113.817,155.433v26.248c0,2.05,1.231,3.658,3.341,3.658h2.754a2.027,2.027,0,0,0-.307,1.037v7.434a3.875,3.875,0,0,0,7.718,0v-7.434a1.91,1.91,0,0,0-.464-1.037h6.718a1.909,1.909,0,0,0-.466,1.037v7.434a3.875,3.875,0,0,0,7.718,0v-7.434a2.028,2.028,0,0,0-.306-1.037h2.758c2.11,0,3.336-1.608,3.336-3.658V155.433h-32.8Z" transform="translate(-103.205 -136.689)" fill="#57c927"/>
        <path id="Path_52131" data-name="Path 52131" d="M31.287,158.977a3.788,3.788,0,0,0-3.859,3.518v15.064a3.875,3.875,0,0,0,7.718,0V162.5A3.789,3.789,0,0,0,31.287,158.977Z" transform="translate(-27.428 -139.806)" fill="#57c927"/>
        <path id="Path_52132" data-name="Path 52132" d="M136.637,5.072l.673-.988.674-.976,1.5-2.195A.573.573,0,0,0,139.32.1a.606.606,0,0,0-.833.164L136.194,3.6l-.69,1.006a20.687,20.687,0,0,0-14.344,0l-.686-1.005-.678-.987L118.185.265A.616.616,0,0,0,117.346.1a.579.579,0,0,0-.168.813l1.5,2.2.674.977.677.985c-5.117,2.32-8.579,6.918-8.579,11.742h33.76C145.212,11.991,141.751,7.393,136.637,5.072ZM121.1,12.131a1.76,1.76,0,1,1,1.809-1.762A1.784,1.784,0,0,1,121.1,12.131Zm14.471,0a1.76,1.76,0,1,1,1.809-1.762A1.786,1.786,0,0,1,135.568,12.131Z" transform="translate(-101.32 0)" fill="#57c927"/>
      </g>
      <path id="Path_52133" data-name="Path 52133" d="M31.459,197.431c-1.5,0-3.066-1.419-4.031-3.67V208.15a3.875,3.875,0,0,0,7.718,0V194.512C34.181,196.319,32.786,197.431,31.459,197.431Z" transform="translate(0 -170.395)" fill="#1cb71c"/>
      <path id="Path_52134" data-name="Path 52134" d="M415.287,158.977a3.788,3.788,0,0,0-3.859,3.518v15.064a3.875,3.875,0,0,0,7.718,0V162.5A3.789,3.789,0,0,0,415.287,158.977Z" transform="translate(-337.694 -139.806)" fill="#57c927"/>
      <g id="Group_65425" data-name="Group 65425" transform="translate(37.56 8.559)">
        <path id="Path_52135" data-name="Path 52135" d="M415.459,197.431c-1.5,0-3.066-1.419-4.031-3.67V208.15a3.875,3.875,0,0,0,7.718,0V194.512C418.181,196.319,416.786,197.431,415.459,197.431Z" transform="translate(-375.254 -178.955)" fill="#1cb71c"/>
        <path id="Path_52136" data-name="Path 52136" d="M131.828,163.754c-7.631,0-14.471-.883-16.4-2.136v25.5c0,2.05,1.231,3.658,3.341,3.658h2.754a2.027,2.027,0,0,0-.307,1.037v7.434a3.875,3.875,0,0,0,7.718,0v-7.434a1.91,1.91,0,0,0-.464-1.037h6.718a1.909,1.909,0,0,0-.466,1.037v7.434a3.875,3.875,0,0,0,7.718,0v-7.434a2.028,2.028,0,0,0-.306-1.037h2.758c2.11,0,3.336-1.608,3.336-3.658v-25.5C146.3,162.87,139.46,163.754,131.828,163.754Z" transform="translate(-114.949 -150.687)" fill="#1cb71c"/>
        <path id="Path_52137" data-name="Path 52137" d="M137.377,72.786a1.81,1.81,0,0,1-3.62,0,1.724,1.724,0,0,1,.619-1.316,37.308,37.308,0,0,0-12.09,0,1.721,1.721,0,0,1,.62,1.316,1.81,1.81,0,0,1-3.619,0,1.721,1.721,0,0,1,.15-.7,21.879,21.879,0,0,0-7.253,3.233,12.8,12.8,0,0,0-.734,3.914h33.76a12.81,12.81,0,0,0-.733-3.912,21.84,21.84,0,0,0-7.251-3.237A1.749,1.749,0,0,1,137.377,72.786Z" transform="translate(-111.452 -70.977)" fill="#1cb71c"/>
      </g>
      <path id="Path_52138" data-name="Path 52138" d="M131.828,238.144c-6.5,0-12.541-1.282-16.4-3.383v16.682c0,2.05,1.231,3.658,3.341,3.658h2.754a2.027,2.027,0,0,0-.307,1.037v7.434a3.875,3.875,0,0,0,7.718,0v-7.434a1.91,1.91,0,0,0-.464-1.037h6.718a1.909,1.909,0,0,0-.466,1.037v7.434a3.875,3.875,0,0,0,7.718,0v-7.434a2.028,2.028,0,0,0-.306-1.037h2.758c2.11,0,3.336-1.608,3.336-3.658V234.761C144.369,236.863,138.327,238.144,131.828,238.144Z" transform="translate(-77.388 -206.451)" fill="#049e42"/>
    </g>
  </g>
</svg>
