<svg xmlns="http://www.w3.org/2000/svg" width="82.25" height="93.999" viewBox="0 0 82.25 93.999">
  <g id="nodejs" transform="translate(0 -0.001)">
    <path id="Path_21267" data-name="Path 21267" d="M37.414,1a7.367,7.367,0,0,1,7.42,0L78.726,20.856a7.286,7.286,0,0,1,3.524,6.232V66.917a7.346,7.346,0,0,1-3.787,6.367L44.692,93.042a7.158,7.158,0,0,1-7.5-.216L27.057,86.75A5.992,5.992,0,0,1,25.1,85.291c.431-.6,1.2-.677,1.826-.94a23.206,23.206,0,0,0,4-1.934.906.906,0,0,1,1.041.065l8.644,5.183c.618.37,1.243-.121,1.772-.427L75.541,67.83a1.148,1.148,0,0,0,.6-1.12l0-39.418a1.239,1.239,0,0,0-.707-1.229L41.787,6.392a1.137,1.137,0,0,0-1.322,0L6.814,26.07A1.222,1.222,0,0,0,6.1,27.293v39.42a1.122,1.122,0,0,0,.61,1.106L15.7,73.083a6.73,6.73,0,0,0,5.619.78,4.42,4.42,0,0,0,2.76-4.154l.012-39.186a.964.964,0,0,1,1.033-1l4.317,0a1.024,1.024,0,0,1,.94,1.195l-.009,39.434c0,3.5-1.384,7.314-4.508,9.029-3.849,2.068-8.607,1.63-12.409-.354-3.292-1.7-6.433-3.715-9.667-5.54A7.332,7.332,0,0,1,0,66.917V27.088a7.3,7.3,0,0,1,3.645-6.311Zm9.822,27.59c4.91-.328,10.166-.194,14.584,2.315,3.42,1.922,5.317,5.957,5.378,9.9a1.035,1.035,0,0,1-1.121.788c-1.424,0-2.849.02-4.273-.011-.6.024-.955-.553-1.032-1.108a6.749,6.749,0,0,0-3.113-4.664c-2.627-1.364-5.674-1.3-8.539-1.267-2.091.115-4.34.3-6.112,1.578a4.106,4.106,0,0,0-1.288,4.487c.457,1.128,1.713,1.492,2.74,1.827C50.378,44.044,56.648,43.884,62.452,46c2.4.861,4.754,2.534,5.577,5.144a11.311,11.311,0,0,1-1.8,10.485,14.03,14.03,0,0,1-7.606,4.251,35.239,35.239,0,0,1-11.48.505c-3.591-.424-7.326-1.4-10.1-3.94a11.2,11.2,0,0,1-3.413-8.669.966.966,0,0,1,1.048-.875l4.3,0a1.023,1.023,0,0,1,1.027,1.032,6.844,6.844,0,0,0,2.426,4.748c2.915,1.951,6.574,1.818,9.912,1.872,2.766-.127,5.87-.166,8.127-2.062A4.77,4.77,0,0,0,61.7,54.042c-.349-1.314-1.674-1.926-2.812-2.326-5.841-1.916-12.181-1.221-17.966-3.388a8.85,8.85,0,0,1-5.521-4.99c-1.258-3.541-.683-7.922,1.968-10.635,2.584-2.7,6.316-3.738,9.862-4.109Z" transform="translate(0 0)" fill="#8cc84b" fill-rule="evenodd"/>
  </g>
</svg>
