<svg xmlns="http://www.w3.org/2000/svg" xmlns:xlink="http://www.w3.org/1999/xlink" width="159" height="160" viewBox="0 0 159 160">
  <defs>
    <linearGradient id="linear-gradient" x1="1" y1="0.638" x2="-0.024" y2="0.308" gradientUnits="objectBoundingBox">
      <stop offset="0" stop-color="#fff"/>
      <stop offset="1" stop-color="#cae4fc"/>
    </linearGradient>
  </defs>
  <g id="Organiv_Seo" data-name="Organiv Seo" transform="translate(-687 570)">
    <ellipse id="Ellipse_404" data-name="Ellipse 404" cx="79.5" cy="80" rx="79.5" ry="80" transform="translate(687 -570)" opacity="0.53" fill="url(#linear-gradient)"/>
    <g id="seo_2_" data-name="seo (2)" transform="translate(726 -531)">
      <path id="Path_21594" data-name="Path 21594" d="M78.916,82H3.084A3.084,3.084,0,0,1,0,78.916V3.084A3.084,3.084,0,0,1,3.084,0H78.916A3.084,3.084,0,0,1,82,3.084V78.916A3.084,3.084,0,0,1,78.916,82Zm0,0" transform="translate(0 0)" fill="#f2f2f2"/>
      <path id="Path_21595" data-name="Path 21595" d="M360.05,377.771a1.233,1.233,0,0,1-.875-.362l-5.589-5.589a1.237,1.237,0,0,1,1.75-1.75l5.589,5.589a1.237,1.237,0,0,1-.875,2.112Zm0,0" transform="translate(-296.653 -310.497)" fill="#426175"/>
      <path id="Path_21596" data-name="Path 21596" d="M446.269,0h-8.863a3.084,3.084,0,0,1,3.084,3.084V78.915A3.084,3.084,0,0,1,437.406,82h8.863a3.084,3.084,0,0,0,3.084-3.084V3.084A3.084,3.084,0,0,0,446.269,0Zm0,0" transform="translate(-367.353 0)" fill="#cdd6df"/>
      <path id="Path_21597" data-name="Path 21597" d="M78.916,0H3.084A3.084,3.084,0,0,0,0,3.084v9.2H82v-9.2A3.084,3.084,0,0,0,78.916,0Zm0,0" transform="translate(0 0)" fill="#426175"/>
      <path id="Path_21598" data-name="Path 21598" d="M68.318,33.084H38.183a1.237,1.237,0,1,1,0-2.474H68.318a1.237,1.237,0,0,1,0,2.474Zm0,0" transform="translate(-31.028 -25.707)" fill="#f2f2f2"/>
      <path id="Path_21599" data-name="Path 21599" d="M449.356,12.279v-9.2A3.084,3.084,0,0,0,446.273,0H437.41a3.084,3.084,0,0,1,3.084,3.084v9.2Zm0,0" transform="translate(-367.356 0)" fill="#2c4456"/>
      <g id="Group_65271" data-name="Group 65271" transform="translate(58.342 4.587)">
        <path id="Path_21600" data-name="Path 21600" d="M367.385,30.193a1.552,1.552,0,1,1-1.552-1.553A1.552,1.552,0,0,1,367.385,30.193Zm0,0" transform="translate(-364.281 -28.641)" fill="#fed066"/>
        <path id="Path_21601" data-name="Path 21601" d="M413.851,30.193a1.552,1.552,0,1,1-1.553-1.553A1.552,1.552,0,0,1,413.851,30.193Zm0,0" transform="translate(-403.305 -28.641)" fill="#fed066"/>
        <path id="Path_21602" data-name="Path 21602" d="M460.316,30.193a1.552,1.552,0,1,1-1.552-1.553A1.552,1.552,0,0,1,460.316,30.193Zm0,0" transform="translate(-442.328 -28.641)" fill="#fed066"/>
      </g>
      <path id="Path_21603" data-name="Path 21603" d="M149.772,141.357a24.9,24.9,0,1,1-24.9-24.9A24.9,24.9,0,0,1,149.772,141.357Zm0,0" transform="translate(-83.961 -97.806)" fill="#33bca5"/>
      <path id="Path_21604" data-name="Path 21604" d="M171.82,168.6a19.705,19.705,0,1,1-19.705-19.705A19.705,19.705,0,0,1,171.82,168.6Zm0,0" transform="translate(-111.204 -125.045)" fill="#f2f2f2"/>
      <path id="Path_21605" data-name="Path 21605" d="M246.142,154.67a19.69,19.69,0,0,0-18.365-5.268,19.707,19.707,0,0,1,0,38.4,19.706,19.706,0,0,0,18.365-33.135Zm0,0" transform="translate(-191.297 -125.052)" fill="#cdd6df"/>
      <path id="Path_21606" data-name="Path 21606" d="M395.1,408.753l-2.828,2.829a1.5,1.5,0,0,1-2.121,0L378.6,400.029a1.5,1.5,0,0,1,0-2.12l2.828-2.829a1.5,1.5,0,0,1,2.121,0L395.1,406.632A1.5,1.5,0,0,1,395.1,408.753Zm0,0" transform="translate(-317.596 -331.437)" fill="#f5b556"/>
      <path id="Path_21607" data-name="Path 21607" d="M175.748,239.08c0-2.938-5.395-1.793-5.395-5.776,0-2.457,2.058-3.187,3.834-3.187,1.079,0,3.021.282,3.021,1.195,0,.332-.233.946-.731.946-.448,0-.88-.631-2.29-.631-1.212,0-2.075.465-2.075,1.511,0,2.456,5.395,1.344,5.395,5.759,0,2.374-1.593,3.535-3.784,3.535-2.158,0-3.668-1.129-3.668-1.959,0-.4.348-.946.763-.946.6,0,1,1.311,2.838,1.311,1.195,0,2.091-.564,2.091-1.759Zm0,0" transform="translate(-142.82 -193.263)" fill="#fd715c"/>
      <path id="Path_21608" data-name="Path 21608" d="M234.1,235.79h2.556a.636.636,0,0,1,.581.714.621.621,0,0,1-.581.681H234.1V241h4.93c.365,0,.581.365.581.8,0,.365-.183.763-.581.763h-5.909c-.382,0-.78-.2-.78-.581V231.01c0-.382.4-.581.78-.581h5.909c.4,0,.581.4.581.763,0,.432-.216.8-.581.8H234.1Zm0,0" transform="translate(-195.132 -193.525)" fill="#fd715c"/>
      <path id="Path_21609" data-name="Path 21609" d="M290.281,238.96v-4.83c0-2.689,1.61-3.7,3.718-3.7,2.091,0,3.734,1.012,3.734,3.7v4.83c0,2.689-1.643,3.7-3.734,3.7C291.891,242.662,290.281,241.649,290.281,238.96Zm5.693-4.83c0-1.461-.747-2.141-1.976-2.141-1.244,0-1.958.68-1.958,2.141v4.83c0,1.461.714,2.141,1.958,2.141,1.229,0,1.976-.681,1.976-2.141Zm0,0" transform="translate(-243.791 -193.525)" fill="#fd715c"/>
      <path id="Path_21610" data-name="Path 21610" d="M367.385,30.193a1.552,1.552,0,1,1-1.552-1.553A1.552,1.552,0,0,1,367.385,30.193Zm0,0" transform="translate(-305.939 -24.054)" fill="#46d1c0"/>
      <path id="Path_21611" data-name="Path 21611" d="M413.851,30.193a1.552,1.552,0,1,1-1.553-1.553A1.552,1.552,0,0,1,413.851,30.193Zm0,0" transform="translate(-344.963 -24.054)" fill="#46d1c0"/>
      <path id="Path_21612" data-name="Path 21612" d="M460.316,30.193a1.552,1.552,0,1,1-1.552-1.553A1.552,1.552,0,0,1,460.316,30.193Zm0,0" transform="translate(-383.986 -24.054)" fill="#46d1c0"/>
    </g>
  </g>
</svg>
