<svg id="photoshop_1_" data-name="photoshop (1)" xmlns="http://www.w3.org/2000/svg" width="104.769" height="104.769" viewBox="0 0 104.769 104.769">
  <path id="Path_21331" data-name="Path 21331" d="M104.769,104.769H0V0H104.769Z" fill="#ccefff"/>
  <path id="Path_21332" data-name="Path 21332" d="M308.384,104.769H256V0h52.384Z" transform="translate(-203.616)" fill="#ace3fc"/>
  <path id="Path_21333" data-name="Path 21333" d="M122.491,122.491H30V30h92.491Z" transform="translate(-23.861 -23.861)" fill="#0c61c6"/>
  <path id="Path_21334" data-name="Path 21334" d="M302.246,122.491H256V30h46.246Z" transform="translate(-203.616 -23.861)" fill="#0a4eaf"/>
  <path id="Path_21335" data-name="Path 21335" d="M140.862,216.468V181.6h14.782c6.766,0,11.1,6.221,11.1,11.59,0,6.328-4.811,11.59-10.853,11.59h-8.251v11.688Zm6.777-17.631H155.5c2.377,0,4.371-2.218,4.371-5.648,0-2.947-1.789-5.648-4.665-5.648h-7.563Z" transform="translate(-112.038 -144.44)" fill="#ccefff"/>
  <g id="Group_65222" data-name="Group 65222" transform="translate(52.384 41.818)">
    <path id="Path_21336" data-name="Path 21336" d="M289.538,250.556a18.535,18.535,0,0,1-11.639-3.978l2.456-4.125c1.572,1.113,5.187,3.389,9.036,3.389,2.495,0,4.223-1.046,4.223-2.848,0-2.213-3.651-2.93-5.648-3.487-1.67-.458-9.184-1.514-9.184-7.17,0-5.445,4.738-8.5,10.117-8.5a14.334,14.334,0,0,1,10.068,3.536l-2.652,3.978a13.319,13.319,0,0,0-7.465-2.848c-2.388,0-3.929,1.02-3.929,2.9,0,2.343,4.108,3.013,5.058,3.241,1.768.459,9.969,1.711,9.969,7.759C299.95,249.553,292.747,250.556,289.538,250.556Z" transform="translate(-273.418 -219.854)" fill="#ace3fc"/>
    <path id="Path_21337" data-name="Path 21337" d="M256,204.362v14.081a11.836,11.836,0,0,0,0-14.081Z" transform="translate(-256 -204.362)" fill="#ace3fc"/>
  </g>
</svg>
