<svg id="php-vertical" xmlns="http://www.w3.org/2000/svg" xmlns:xlink="http://www.w3.org/1999/xlink" width="153.954" height="79.881" viewBox="0 0 153.954 79.881">
  <defs>
    <radialGradient id="radial-gradient" cx="0.3" cy="0.18" r="0.86" gradientUnits="objectBoundingBox">
      <stop offset="0" stop-color="#aeb2d5"/>
      <stop offset="0.003" stop-color="#aeb2d5"/>
      <stop offset="0.007" stop-color="#484c89"/>
    </radialGradient>
  </defs>
  <g id="Group_65209" data-name="Group 65209">
    <path id="Path_21277" data-name="Path 21277" d="M0,39.94C0,62,34.464,79.881,76.977,79.881S153.954,62,153.954,39.94,119.489,0,76.977,0,0,17.883,0,39.94" fill="url(#radial-gradient)"/>
    <path id="Path_21278" data-name="Path 21278" d="M76.23,76.177c40.852,0,73.971-16.554,73.971-36.974S117.082,2.228,76.23,2.228,2.259,18.782,2.259,39.2,35.377,76.177,76.23,76.177" transform="translate(0.749 0.738)" fill="#777bb3"/>
    <path id="Path_21279" data-name="Path 21279" d="M35.992,39.186c3.359,0,5.867-.611,7.453-1.812,1.57-1.192,2.653-3.258,3.222-6.139.53-2.693.328-4.573-.6-5.588-.949-1.036-3-1.562-6.095-1.562H34.6l-2.98,15.1h4.364ZM18.433,57.79a.839.839,0,0,1-.644-.3.821.821,0,0,1-.176-.682L25.5,16.783a.833.833,0,0,1,.82-.667h17c5.343,0,9.318,1.429,11.818,4.254s3.288,6.8,2.306,11.786a18.622,18.622,0,0,1-2.044,5.6,18.913,18.913,0,0,1-3.758,4.649,16.563,16.563,0,0,1-6.191,3.659,28.394,28.394,0,0,1-8.5,1.08H30.062L28.1,57.12a.832.832,0,0,1-.82.667H18.434Z" transform="translate(5.831 5.34)"/>
    <path id="Path_21280" data-name="Path 21280" d="M35.5,25.109h4.68c3.736,0,5.035.808,5.476,1.29.732.8.869,2.487.4,4.879-.529,2.677-1.508,4.576-2.912,5.642-1.438,1.092-3.774,1.644-6.944,1.644H32.849L35.5,25.109ZM43.527,15.5h-17a1.664,1.664,0,0,0-1.64,1.333L17,56.856a1.629,1.629,0,0,0,.351,1.362,1.677,1.677,0,0,0,1.289.6h8.84a1.664,1.664,0,0,0,1.64-1.333l1.835-9.309h6.195a29.233,29.233,0,0,0,8.764-1.12,17.385,17.385,0,0,0,6.5-3.84,18.972,18.972,0,0,0,6.056-10.7c1.034-5.247.194-9.447-2.5-12.485C53.311,17.024,49.124,15.5,43.53,15.5m-12.7,24.715H36.2q5.346,0,7.963-1.986T47.7,31.593q.877-4.461-.8-6.3t-6.715-1.835H34.127l-3.3,16.752M43.531,17.145q7.671,0,11.189,3.971T56.835,32.2a17.743,17.743,0,0,1-1.953,5.36,17.939,17.939,0,0,1-3.6,4.444A15.674,15.674,0,0,1,45.4,45.49a27.479,27.479,0,0,1-8.246,1.038H29.584l-2.1,10.643h-8.84l7.886-40.025h17" transform="translate(5.623 5.135)" fill="#fff"/>
    <path id="Path_21281" data-name="Path 21281" d="M68.346,49.8a.839.839,0,0,1-.644-.3.821.821,0,0,1-.176-.682L71.014,31.1c.331-1.684.25-2.893-.23-3.4-.294-.313-1.177-.836-3.789-.836H60.676L56.29,49.129a.832.832,0,0,1-.82.667H46.7a.839.839,0,0,1-.644-.3.816.816,0,0,1-.176-.682L53.767,8.789a.833.833,0,0,1,.82-.667h8.771a.839.839,0,0,1,.644.3.816.816,0,0,1,.176.682l-1.9,9.66h6.8c5.18,0,8.692.9,10.739,2.753,2.088,1.891,2.736,4.915,1.934,8.985L78.077,49.127a.832.832,0,0,1-.82.667H68.348Z" transform="translate(15.197 2.691)"/>
    <path id="Path_21282" data-name="Path 21282" d="M63.563,7.505h-8.77a1.664,1.664,0,0,0-1.64,1.333L45.267,48.863a1.629,1.629,0,0,0,.351,1.362,1.678,1.678,0,0,0,1.289.6h8.77a1.664,1.664,0,0,0,1.64-1.333l4.255-21.6H67.2c2.607,0,3.154.55,3.177.572.158.165.366.945.023,2.685L66.916,48.864a1.629,1.629,0,0,0,.351,1.362,1.678,1.678,0,0,0,1.289.6h8.909a1.664,1.664,0,0,0,1.64-1.333l3.669-18.625c.861-4.372.125-7.653-2.189-9.749-2.207-2-5.9-2.972-11.3-2.972h-5.79L65.2,9.467a1.629,1.629,0,0,0-.35-1.362,1.678,1.678,0,0,0-1.289-.6m0,1.648L61.466,19.8H69.28q7.375,0,10.173,2.538t1.679,8.221L77.462,49.18H68.553l3.488-17.71q.6-3.021-.438-4.122t-4.4-1.1H60.2L55.679,49.18h-8.77L54.8,9.155h8.77" transform="translate(14.989 2.487)" fill="#fff"/>
    <path id="Path_21283" data-name="Path 21283" d="M87.816,39.186c3.359,0,5.867-.611,7.453-1.812,1.57-1.192,2.653-3.256,3.222-6.139.53-2.693.328-4.573-.6-5.588-.949-1.036-3-1.562-6.095-1.562H86.427l-2.98,15.1h4.364ZM70.258,57.79a.839.839,0,0,1-.644-.3.816.816,0,0,1-.176-.682l7.887-40.025a.833.833,0,0,1,.82-.667h17c5.345,0,9.318,1.429,11.818,4.254s3.286,6.8,2.306,11.786a18.658,18.658,0,0,1-2.044,5.6,18.913,18.913,0,0,1-3.758,4.649,16.563,16.563,0,0,1-6.191,3.659,28.394,28.394,0,0,1-8.5,1.08H81.883L79.918,57.12a.833.833,0,0,1-.82.667h-8.84Z" transform="translate(23.003 5.34)"/>
    <path id="Path_21284" data-name="Path 21284" d="M87.325,25.11H92c3.736,0,5.035.808,5.476,1.29.732.8.871,2.487.4,4.879-.529,2.677-1.508,4.576-2.912,5.642-1.437,1.092-3.774,1.644-6.944,1.644h-3.35ZM95.351,15.5h-17a1.664,1.664,0,0,0-1.64,1.333L68.826,56.857a1.629,1.629,0,0,0,.351,1.362,1.677,1.677,0,0,0,1.289.6h8.84a1.664,1.664,0,0,0,1.64-1.333l1.833-9.309h6.195a29.233,29.233,0,0,0,8.764-1.12,17.371,17.371,0,0,0,6.5-3.841,18.98,18.98,0,0,0,6.055-10.7c1.034-5.247.194-9.447-2.5-12.487-2.665-3.009-6.852-4.535-12.447-4.535m-12.7,24.719h5.377q5.346,0,7.963-1.986t3.532-6.634q.879-4.461-.8-6.3t-6.715-1.835H85.949l-3.3,16.751M95.353,17.146q7.671,0,11.189,3.971T108.657,32.2a17.743,17.743,0,0,1-1.953,5.36,17.939,17.939,0,0,1-3.6,4.444,15.674,15.674,0,0,1-5.883,3.483,27.479,27.479,0,0,1-8.246,1.038H81.405l-2.1,10.643h-8.84l7.887-40.025h17" transform="translate(22.795 5.134)" fill="#fff"/>
  </g>
</svg>
