<svg xmlns="http://www.w3.org/2000/svg" xmlns:xlink="http://www.w3.org/1999/xlink" width="159" height="160" viewBox="0 0 159 160">
  <defs>
    <linearGradient id="linear-gradient" x1="1" y1="0.638" x2="-0.024" y2="0.308" gradientUnits="objectBoundingBox">
      <stop offset="0" stop-color="#fff"/>
      <stop offset="1" stop-color="#cae4fc"/>
    </linearGradient>
    <radialGradient id="radial-gradient" cx="0.3" cy="0.18" r="0.86" gradientUnits="objectBoundingBox">
      <stop offset="0" stop-color="#aeb2d5"/>
      <stop offset="0.003" stop-color="#aeb2d5"/>
      <stop offset="0.007" stop-color="#484c89"/>
    </radialGradient>
  </defs>
  <g id="Php" transform="translate(-94 -66)">
    <g id="Education" transform="translate(93.674 66.254)">
      <ellipse id="Ellipse_404" data-name="Ellipse 404" cx="79.5" cy="80" rx="79.5" ry="80" transform="translate(0.326 -0.254)" opacity="0.53" fill="url(#linear-gradient)"/>
    </g>
    <g id="php-vertical" transform="translate(124 120)">
      <g id="Group_65209" data-name="Group 65209">
        <path id="Path_21277" data-name="Path 21277" d="M0,25.723C0,39.929,22.2,51.446,49.576,51.446S99.152,39.929,99.152,25.723,76.955,0,49.576,0,0,11.517,0,25.723" fill="url(#radial-gradient)"/>
        <path id="Path_21278" data-name="Path 21278" d="M49.9,49.854c26.31,0,47.64-10.661,47.64-23.813S76.209,2.228,49.9,2.228,2.259,12.889,2.259,26.041,23.589,49.854,49.9,49.854" transform="translate(-0.322 -0.318)" fill="#777bb3"/>
        <path id="Path_21279" data-name="Path 21279" d="M29.444,30.974a8.005,8.005,0,0,0,4.8-1.167,6.3,6.3,0,0,0,2.075-3.954c.341-1.735.211-2.945-.386-3.6S34,21.249,32.008,21.249H28.551l-1.919,9.728h2.811ZM18.136,42.955a.54.54,0,0,1-.415-.193.529.529,0,0,1-.113-.439l5.079-25.778a.536.536,0,0,1,.528-.43H34.163c3.441,0,6,.92,7.611,2.739s2.118,4.381,1.485,7.591a11.993,11.993,0,0,1-1.316,3.608,12.181,12.181,0,0,1-2.421,2.994A10.667,10.667,0,0,1,35.535,35.4a18.287,18.287,0,0,1-5.477.7H25.625L24.36,42.524a.536.536,0,0,1-.528.43h-5.7Z" transform="translate(-2.509 -2.298)"/>
        <path id="Path_21280" data-name="Path 21280" d="M28.9,21.688h3.014c2.406,0,3.243.52,3.527.831.472.515.56,1.6.257,3.142a5.812,5.812,0,0,1-1.875,3.634,7.5,7.5,0,0,1-4.472,1.059H27.2L28.9,21.688Zm5.169-6.19H23.127a1.072,1.072,0,0,0-1.056.858L16.991,42.134a1.049,1.049,0,0,0,.226.877,1.08,1.08,0,0,0,.83.386H23.74a1.072,1.072,0,0,0,1.056-.858l1.182-6h3.99a18.827,18.827,0,0,0,5.644-.721A11.2,11.2,0,0,0,39.8,33.35a12.218,12.218,0,0,0,3.9-6.89c.666-3.379.125-6.084-1.609-8.041-1.717-1.938-4.413-2.92-8.016-2.92M25.893,31.415h3.463a8.436,8.436,0,0,0,5.128-1.279,6.774,6.774,0,0,0,2.275-4.273q.565-2.873-.514-4.056T31.92,20.626h-3.9L25.894,31.415m8.182-14.857q4.94,0,7.206,2.558t1.362,7.141a11.427,11.427,0,0,1-1.258,3.452,11.553,11.553,0,0,1-2.317,2.862,10.094,10.094,0,0,1-3.789,2.243,17.7,17.7,0,0,1-5.311.669H25.094L23.74,42.337H18.047l5.079-25.778H34.073" transform="translate(-2.42 -2.209)" fill="#fff"/>
        <path id="Path_21281" data-name="Path 21281" d="M60.344,34.963a.54.54,0,0,1-.415-.193.529.529,0,0,1-.113-.439l2.246-11.407c.213-1.085.161-1.863-.148-2.192-.189-.2-.758-.538-2.44-.538H55.4L52.579,34.532a.536.536,0,0,1-.528.43H46.4a.54.54,0,0,1-.415-.193.526.526,0,0,1-.113-.439L50.954,8.552a.536.536,0,0,1,.528-.43h5.649a.54.54,0,0,1,.415.193.526.526,0,0,1,.113.439l-1.226,6.222h4.379c3.336,0,5.6.58,6.916,1.773,1.344,1.218,1.762,3.166,1.246,5.787l-2.363,12a.536.536,0,0,1-.528.43H60.344Z" transform="translate(-6.539 -1.158)"/>
        <path id="Path_21282" data-name="Path 21282" d="M57.039,7.5H51.392a1.072,1.072,0,0,0-1.056.858L45.256,34.141a1.049,1.049,0,0,0,.226.877,1.08,1.08,0,0,0,.83.386H51.96a1.072,1.072,0,0,0,1.056-.858l2.74-13.909h3.628c1.679,0,2.031.354,2.046.369.1.106.236.609.015,1.729L59.2,34.142a1.049,1.049,0,0,0,.226.877,1.08,1.08,0,0,0,.83.386h5.738a1.072,1.072,0,0,0,1.056-.858l2.363-12c.555-2.816.081-4.929-1.41-6.279-1.422-1.288-3.8-1.914-7.28-1.914H56.993l1.1-5.59a1.049,1.049,0,0,0-.226-.877,1.08,1.08,0,0,0-.83-.386m0,1.062-1.35,6.853h5.032q4.75,0,6.552,1.634t1.081,5.295l-2.363,12H60.253L62.5,22.94q.383-1.946-.282-2.655t-2.834-.708H54.871L51.962,34.345H46.314L51.393,8.567h5.648" transform="translate(-6.449 -1.07)" fill="#fff"/>
        <path id="Path_21283" data-name="Path 21283" d="M81.268,30.974a8.005,8.005,0,0,0,4.8-1.167,6.3,6.3,0,0,0,2.075-3.954c.341-1.735.211-2.945-.387-3.6s-1.932-1.006-3.925-1.006H80.374l-1.919,9.728h2.811ZM69.961,42.955a.54.54,0,0,1-.415-.193.526.526,0,0,1-.113-.439l5.079-25.778a.536.536,0,0,1,.528-.43H85.988c3.443,0,6,.92,7.611,2.739s2.116,4.381,1.485,7.591a12.016,12.016,0,0,1-1.316,3.608,12.181,12.181,0,0,1-2.421,2.994A10.667,10.667,0,0,1,87.36,35.4a18.287,18.287,0,0,1-5.477.7H77.448l-1.266,6.424a.536.536,0,0,1-.528.43H69.961Z" transform="translate(-9.897 -2.298)"/>
        <path id="Path_21284" data-name="Path 21284" d="M80.729,21.688h3.014c2.406,0,3.243.52,3.527.831.472.515.561,1.6.257,3.142a5.812,5.812,0,0,1-1.875,3.634,7.494,7.494,0,0,1-4.472,1.059H79.022ZM85.9,15.5H74.951a1.072,1.072,0,0,0-1.056.858L68.815,42.134a1.049,1.049,0,0,0,.226.877,1.08,1.08,0,0,0,.83.386h5.693a1.072,1.072,0,0,0,1.056-.858l1.181-6h3.99a18.827,18.827,0,0,0,5.644-.721,11.188,11.188,0,0,0,4.188-2.474,12.224,12.224,0,0,0,3.9-6.89c.666-3.379.125-6.084-1.609-8.042C92.2,16.479,89.5,15.5,85.9,15.5m-8.182,15.92H81.18a8.436,8.436,0,0,0,5.128-1.279,6.774,6.774,0,0,0,2.275-4.273q.566-2.873-.514-4.056t-4.325-1.182h-3.9L77.717,31.415M85.9,16.558q4.94,0,7.206,2.558t1.362,7.141a11.427,11.427,0,0,1-1.258,3.452,11.554,11.554,0,0,1-2.317,2.862A10.1,10.1,0,0,1,87.1,34.814a17.7,17.7,0,0,1-5.311.669H76.917l-1.351,6.854H69.872l5.079-25.778H85.9" transform="translate(-9.808 -2.209)" fill="#fff"/>
      </g>
    </g>
  </g>
</svg>
