<svg id="rabbitmq-icon" xmlns="http://www.w3.org/2000/svg" width="90.691" height="95.897" viewBox="0 0 90.691 95.897">
  <path id="Path_21290" data-name="Path 21290" d="M86.939,38.351H56.8a2.727,2.727,0,0,1-2.727-2.727V4.213A4.2,4.2,0,0,0,49.862,0H39.1a4.2,4.2,0,0,0-4.213,4.213v31.2a2.932,2.932,0,0,1-2.94,2.94l-9.88.036a2.911,2.911,0,0,1-2.94-2.94l.07-31.234A4.2,4.2,0,0,0,14.979,0H4.213A4.2,4.2,0,0,0,0,4.215V92.143A3.746,3.746,0,0,0,3.753,95.9H86.938a3.746,3.746,0,0,0,3.753-3.753V42.1a3.731,3.731,0,0,0-3.753-3.753Zm-14.13,33a4.9,4.9,0,0,1-4.888,4.886h-8.5a4.9,4.9,0,0,1-4.886-4.886v-8.5a4.9,4.9,0,0,1,4.886-4.886h8.5a4.9,4.9,0,0,1,4.888,4.886Z" transform="translate(0)" fill="#f60"/>
</svg>
