<svg xmlns="http://www.w3.org/2000/svg" xmlns:xlink="http://www.w3.org/1999/xlink" width="159" height="160" viewBox="0 0 159 160">
  <defs>
    <linearGradient id="linear-gradient" x1="1" y1="0.638" x2="-0.024" y2="0.308" gradientUnits="objectBoundingBox">
      <stop offset="0" stop-color="#fff"/>
      <stop offset="1" stop-color="#cae4fc"/>
    </linearGradient>
  </defs>
  <g id="Radis" transform="translate(-550 -764)">
    <g id="ppc" transform="translate(456 698)">
      <g id="Education" transform="translate(93.674 66.254)">
        <ellipse id="Ellipse_404" data-name="Ellipse 404" cx="79.5" cy="80" rx="79.5" ry="80" transform="translate(0.326 -0.254)" opacity="0.53" fill="url(#linear-gradient)"/>
      </g>
    </g>
    <g id="redis-icon" transform="translate(590 810)">
      <g id="Group_65423" data-name="Group 65423" transform="translate(-0.001 0)">
        <path id="Path_21966" data-name="Path 21966" d="M75.9,45.95c-4.215,2.2-26.053,11.177-30.7,13.6s-7.232,2.4-10.906.646S7.382,49.054,3.194,47.051C1.1,46.05,0,45.209,0,44.412V36.427s30.257-6.587,35.143-8.339,6.576-1.816,10.735-.294S74.893,33.8,79,35.306V43.18c0,.79-.947,1.675-3.093,2.772Z" transform="translate(0.001 6.26)" fill="#a41e11"/>
        <path id="Path_21967" data-name="Path 21967" d="M75.9,39.186c-4.215,2.2-26.053,11.177-30.7,13.6s-7.232,2.4-10.906.646S7.383,42.289,3.193,40.287s-4.272-3.378-.162-4.988L35.143,22.867c4.884-1.75,6.576-1.816,10.735-.294S71.743,32.734,75.826,34.264s4.266,2.723.051,4.942Z" transform="translate(0.001 5.036)" fill="#d82c20"/>
        <path id="Path_21968" data-name="Path 21968" d="M75.9,35.4C71.686,37.6,49.848,46.578,45.2,49s-7.232,2.4-10.906.646S7.382,38.5,3.194,36.5C1.1,35.5,0,34.659,0,33.862V25.877s30.257-6.587,35.143-8.339,6.576-1.816,10.735-.294S74.893,23.25,79,24.756V32.63c0,.79-.947,1.675-3.093,2.772Z" transform="translate(0.001 3.787)" fill="#a41e11"/>
        <path id="Path_21969" data-name="Path 21969" d="M75.9,28.637c-4.215,2.2-26.053,11.177-30.7,13.6s-7.232,2.4-10.906.646S7.383,31.741,3.193,29.739s-4.272-3.378-.162-4.988l32.11-12.43c4.884-1.753,6.576-1.816,10.735-.293S71.742,22.192,75.851,23.693s4.266,2.723.051,4.942Z" transform="translate(0.001 2.564)" fill="#d82c20"/>
        <path id="Path_21970" data-name="Path 21970" d="M75.9,24.46c-4.215,2.2-26.053,11.177-30.7,13.6s-7.232,2.4-10.906.646S7.382,27.565,3.194,25.563C1.1,24.562,0,23.72,0,22.925v-7.99S30.259,8.349,35.145,6.6,41.72,4.78,45.88,6.3,74.893,12.308,79,13.814V21.69c0,.79-.947,1.675-3.093,2.772Z" transform="translate(0.001 1.223)" fill="#a41e11"/>
        <path id="Path_21971" data-name="Path 21971" d="M75.9,17.695c-4.215,2.2-26.053,11.177-30.7,13.6s-7.232,2.4-10.906.646S7.383,20.8,3.193,18.8s-4.272-3.378-.162-4.988L35.143,1.379c4.884-1.753,6.576-1.816,10.735-.294S71.743,11.249,75.852,12.75s4.266,2.723.051,4.942Z" transform="translate(0.001 0)" fill="#d82c20"/>
        <path id="Path_21972" data-name="Path 21972" d="M38.9,13.609,36.42,9.494l-7.9-.712,5.9-2.128-1.77-3.267,5.52,2.158,5.207-1.7L41.964,7.215,47.27,9.2l-6.845.712ZM25.71,21.8l18.3-2.811L38.485,27.1ZM10.991,15.055c0-2.1,4.364-3.793,9.785-3.793s9.785,1.691,9.785,3.793-4.364,3.793-9.785,3.793S10.991,17.157,10.991,15.055Z" transform="translate(2.577 0.793)" fill="#fff"/>
        <path id="Path_21973" data-name="Path 21973" d="M57.773,13.2,46.945,17.481l-.009-8.559Z" transform="translate(11.001 2.091)" fill="#7a0c00"/>
        <path id="Path_21974" data-name="Path 21974" d="M49.222,17.481l-1.173.46L37.23,13.664,49.216,8.923Z" transform="translate(8.726 2.091)" fill="#ad2115"/>
      </g>
    </g>
  </g>
</svg>
