<svg xmlns="http://www.w3.org/2000/svg" width="106.148" height="94.268" viewBox="0 0 106.148 94.268">
  <g id="react-icon" transform="translate(1.367 1.387)">
    <path id="Path_21273" data-name="Path 21273" d="M24.918,30.98a9.647,9.647,0,1,1,9.647,9.647A9.626,9.626,0,0,1,24.918,30.98Z" transform="translate(17.142 14.676)" fill="#00d8ff" fill-rule="evenodd"/>
    <g id="Group_65208" data-name="Group 65208" transform="translate(0 0)">
      <path id="Path_21274" data-name="Path 21274" d="M51.707,15.428c12.952,0,24.983,1.858,34.056,4.981,10.931,3.762,17.651,9.468,17.651,14.633,0,5.385-7.123,11.443-18.861,15.332C75.679,53.316,64,54.848,51.705,54.848c-12.606,0-24.543-1.44-33.516-4.507C6.836,46.459,0,40.322,0,35.042,0,29.919,6.418,24.259,17.193,20.5c9.107-3.173,21.435-5.074,34.514-5.074Z" transform="translate(0 10.614)" fill="none" stroke="#00d8ff" stroke-linecap="round" stroke-linejoin="round" stroke-width="2.734" fill-rule="evenodd"/>
      <path id="Path_21275" data-name="Path 21275" d="M26.125,35.906C32.6,24.686,40.216,15.192,47.454,8.892,56.175,1.3,64.473-1.669,68.948.912,73.61,3.6,75.3,12.8,72.807,24.909c-1.885,9.157-6.391,20.039-12.533,30.69-6.3,10.919-13.509,20.541-20.647,26.781-9.034,7.9-17.767,10.756-22.342,8.117-4.438-2.557-6.136-10.945-4.006-22.158,1.8-9.474,6.313-21.1,12.845-32.432Z" transform="translate(8.507 0)" fill="none" stroke="#00d8ff" stroke-linecap="round" stroke-linejoin="round" stroke-width="2.734" fill-rule="evenodd"/>
      <path id="Path_21276" data-name="Path 21276" d="M26.131,55.584c-6.488-11.206-10.908-22.553-12.749-31.97C11.162,12.27,12.732,3.6,17.2,1.008c4.659-2.7,13.472.432,22.716,8.642,6.992,6.207,14.17,15.544,20.33,26.185C66.564,46.744,71.3,57.8,73.139,67.1c2.329,11.77.442,20.764-4.125,23.41-4.434,2.567-12.547-.15-21.2-7.6C40.506,76.624,32.685,66.9,26.131,55.584Z" transform="translate(8.519 0.043)" fill="none" stroke="#00d8ff" stroke-linecap="round" stroke-linejoin="round" stroke-width="2.734" fill-rule="evenodd"/>
    </g>
  </g>
</svg>
