<svg xmlns="http://www.w3.org/2000/svg" width="125.995" height="107.986" viewBox="0 0 125.995 107.986">
  <g id="redis-icon" transform="translate(0 0)">
    <g id="Group_65421" data-name="Group 65421" transform="translate(-0.001 0)">
      <path id="Path_21950" data-name="Path 21950" d="M121.051,57.4C114.328,60.9,79.5,75.223,72.085,79.087s-11.534,3.827-17.393,1.03S11.773,62.346,5.093,59.152C1.752,57.556,0,56.213,0,54.943V42.208s48.256-10.5,56.048-13.3,10.487-2.9,17.121-.469,46.271,9.58,52.821,11.981V52.979c0,1.26-1.51,2.671-4.933,4.422Z" transform="translate(0.003 25.872)" fill="#a41e11"/>
      <path id="Path_21951" data-name="Path 21951" d="M121.054,49.714C114.331,53.222,79.5,67.54,72.087,71.4s-11.534,3.827-17.393,1.03S11.775,54.663,5.093,51.47s-6.814-5.388-.258-7.955L56.048,23.686c7.79-2.792,10.487-2.9,17.121-.469s41.251,16.206,47.764,18.645,6.8,4.343.081,7.883Z" transform="translate(0.001 20.815)" fill="#d82c20"/>
      <path id="Path_21952" data-name="Path 21952" d="M121.051,46.846C114.328,50.353,79.5,64.673,72.085,68.537s-11.534,3.827-17.393,1.03S11.773,51.8,5.093,48.6C1.752,47.006,0,45.663,0,44.393V31.658s48.256-10.5,56.048-13.3,10.487-2.9,17.121-.469,46.271,9.58,52.821,11.981V42.429c0,1.26-1.51,2.671-4.933,4.422Z" transform="translate(0.003 15.652)" fill="#a41e11"/>
      <path id="Path_21953" data-name="Path 21953" d="M121.054,39.162C114.331,42.671,79.5,56.989,72.087,60.853s-11.534,3.827-17.393,1.03S11.775,44.114,5.093,40.921s-6.814-5.388-.258-7.955L56.046,13.141c7.79-2.8,10.487-2.9,17.121-.467s41.251,16.21,47.805,18.6,6.8,4.343.081,7.883Z" transform="translate(0.001 10.599)" fill="#d82c20"/>
      <path id="Path_21954" data-name="Path 21954" d="M121.051,35.906C114.328,39.413,79.5,53.733,72.085,57.6s-11.534,3.827-17.393,1.03S11.773,40.859,5.093,37.666C1.752,36.07,0,34.727,0,33.459V20.716s48.256-10.5,56.048-13.3,10.487-2.9,17.121-.469,46.271,9.58,52.821,11.981v12.56c0,1.26-1.51,2.671-4.933,4.422Z" transform="translate(0.003 5.053)" fill="#a41e11"/>
      <path id="Path_21955" data-name="Path 21955" d="M121.054,28.221C114.331,31.729,79.5,46.047,72.087,49.911s-11.534,3.827-17.393,1.03S11.775,33.172,5.093,29.979s-6.814-5.388-.258-7.955L56.048,2.2C63.838-.6,66.535-.7,73.17,1.73s41.251,16.21,47.805,18.6,6.8,4.343.081,7.883Z" transform="translate(0.001 0)" fill="#d82c20"/>
      <path id="Path_21956" data-name="Path 21956" d="M55.495,19.69l-3.947-6.564L38.942,11.991,48.348,8.6,45.525,3.386l8.8,3.441,8.3-2.719L60.389,9.493l8.463,3.173L57.936,13.8ZM34.465,32.756l29.193-4.483L54.841,41.206ZM10.991,22c0-3.351,6.959-6.05,15.606-6.05S42.2,18.643,42.2,22s-6.959,6.05-15.606,6.05S10.991,25.348,10.991,22Z" transform="translate(10.648 3.28)" fill="#fff"/>
      <path id="Path_21957" data-name="Path 21957" d="M64.219,15.751,46.95,22.573,46.936,8.922Z" transform="translate(45.466 8.642)" fill="#7a0c00"/>
      <path id="Path_21958" data-name="Path 21958" d="M56.356,22.572l-1.87.734L37.23,16.485,56.346,8.923Z" transform="translate(36.064 8.643)" fill="#ad2115"/>
    </g>
  </g>
</svg>
