<svg xmlns="http://www.w3.org/2000/svg" width="128" height="97" viewBox="0 0 128 97">
  <g id="sass-icon" transform="translate(0 0)">
    <path id="Path_21345" data-name="Path 21345" d="M110.192,55.694a26.144,26.144,0,0,0-11.6,2.73c-1.2-2.4-2.4-4.5-2.6-6.066a16.958,16.958,0,0,1-.226-5.106,41.086,41.086,0,0,1,1.526-5.51c-.024-.229-.276-1.341-2.85-1.365s-4.8.506-5.05,1.189a29.309,29.309,0,0,0-1.076,3.868c-.45,2.376-5.15,10.794-7.826,15.219A15.594,15.594,0,0,1,78.713,56.2a16.958,16.958,0,0,1-.226-5.106,41.088,41.088,0,0,1,1.526-5.51c-.024-.229-.276-1.341-2.85-1.365s-4.8.506-5.05,1.189-.526,2.3-1.076,3.868c-.526,1.567-6.776,15.623-8.4,19.287q-.971,2.219-2.076,4.374c-.526,1.011-.024.077-.074.178l-.7,1.341v.024c-.35.633-.726,1.24-.9,1.24a8.525,8.525,0,0,1,.05-4.02c.926-4.879,3.176-12.489,3.15-12.766,0-.125.426-1.466-1.45-2.15a2.262,2.262,0,0,0-2.626.455c-.15,0-.276.4-.276.4s2.026-8.57-3.876-8.57c-3.7,0-8.8,4.071-11.326,7.785L29.779,63.916l-.276-.3C22.357,55.9,9.13,50.436,9.682,40.075c.2-3.767,1.5-13.7,25.4-25.734,19.577-9.858,35.255-7.154,38-1.138C76.96,21.8,64.708,37.772,44.355,40.1c-7.75.886-11.826-2.15-12.852-3.286-1.076-1.189-1.226-1.24-1.626-1.011-.65.354-.25,1.416,0,2.048.6,1.593,3.1,4.424,7.35,5.84,3.726,1.24,12.826,1.921,23.829-2.376C73.382,36.484,83.009,23.087,80.183,11.89,77.283.469,58.582-3.272,40.905,3.072,30.4,6.839,19,12.772,10.8,20.533,1.03,29.734-.52,37.774.128,41.11c2.276,11.906,18.5,19.667,25,25.406l-.9.506C20.979,68.64,8.6,75.187,5.5,82.113c-3.5,7.836.55,13.474,3.25,14.232,8.35,2.352,16.9-1.87,21.527-8.823,4.6-6.952,4.05-15.975,1.926-20.1l-.076-.152,2.55-1.517c1.65-.987,3.276-1.9,4.7-2.679A31.777,31.777,0,0,0,37.7,71.673c-.35,4.449,1.45,10.212,3.826,12.489a4.2,4.2,0,0,0,3.076,1.011c2.75,0,4-2.3,5.376-5.055,1.7-3.363,3.2-7.255,3.2-7.255S51.306,83.4,56.432,83.4c1.876,0,3.75-2.453,4.6-3.717v.024s.05-.077.15-.253c.2-.3.3-.481.3-.481v-.051c.75-1.314,2.426-4.323,4.926-9.3,3.226-6.42,6.326-14.458,6.326-14.458a46.467,46.467,0,0,0,1.226,5.207,49.953,49.953,0,0,0,2.676,6.066l-1.2,1.668.024.026q-.96,1.286-1.976,2.528c-2.55,3.084-5.6,6.6-6,7.609a2.1,2.1,0,0,0,.55,2.78,4.958,4.958,0,0,0,3.15.506,13.9,13.9,0,0,0,4.7-1.088,16.22,16.22,0,0,0,4.05-2.15,9.154,9.154,0,0,0,3.876-8.064,16.356,16.356,0,0,0-1.476-5.688l.676-1.011a107.062,107.062,0,0,0,7-12.26A46.467,46.467,0,0,0,91.237,56.5a36.815,36.815,0,0,0,2.276,5.207,22.463,22.463,0,0,0-6.826,8.924c-1.476,4.3-.326,6.244,1.85,6.7a6.6,6.6,0,0,0,3.426-.708,15.459,15.459,0,0,0,4.326-2.251c2.5-1.87,4.9-4.475,4.776-7.987a15.461,15.461,0,0,0-1.076-4.728,24.123,24.123,0,0,1,12.4-1.442c11.126,1.314,13.326,8.341,12.9,11.273a7.544,7.544,0,0,1-3.526,5.055c-.776.481-1.026.657-.95,1.011.1.532.45.506,1.126.4a8.72,8.72,0,0,0,6.05-7.812c.3-6.952-6.226-14.535-17.8-14.458ZM24.4,84.944c-3.676,4.071-8.85,5.611-11.05,4.3-2.376-1.391-1.45-7.381,3.076-11.7A58.963,58.963,0,0,1,25.1,70.989L27.379,69.6a2.594,2.594,0,0,1,.25-.152c.176-.1.376-.228.576-.354a16.247,16.247,0,0,1-3.8,15.85ZM51.282,66.466c-1.276,3.161-3.976,11.273-5.6,10.818-1.4-.38-2.25-6.521-.276-12.59a28.184,28.184,0,0,1,4.376-8.115c2.026-2.275,4.226-3.033,4.776-2.1.65,1.213-2.476,10.01-3.276,11.983ZM73.458,77.183c-.55.279-1.05.481-1.276.33-.176-.1.226-.481.226-.481s2.776-3.009,3.876-4.4l2.176-2.807v.3c0,3.64-3.45,6.066-5,7.053Zm17.1-3.943c-.4-.3-.35-1.24,1-4.172a15.629,15.629,0,0,1,3.8-4.954,6.352,6.352,0,0,1,.376,2.174C95.709,70.838,92.509,72.532,90.559,73.24Z" transform="translate(0 0)" fill="#cf649a"/>
  </g>
</svg>
