<svg xmlns="http://www.w3.org/2000/svg" xmlns:xlink="http://www.w3.org/1999/xlink" width="78" height="77" viewBox="0 0 78 77">
  <defs>
    <linearGradient id="linear-gradient" x1="0.974" y1="0.238" x2="-0.052" y2="0.609" gradientUnits="objectBoundingBox">
      <stop offset="0" stop-color="#fff"/>
      <stop offset="1" stop-color="#ffffff" stop-opacity="0.071"/>
    </linearGradient>
  </defs>
  <g id="Social_App" data-name="Social App" transform="translate(-187.529 -1358.734)">
    <ellipse id="Ellipse_381" data-name="Ellipse 381" cx="39" cy="38.5" rx="39" ry="38.5" transform="translate(187.529 1358.734)" opacity="0.42" fill="url(#linear-gradient)"/>
    <g id="Social_App-2" data-name="Social App" transform="translate(133.954 1369.401)">
      <path id="Path_52058" data-name="Path 52058" d="M104.571,49.773a.5.5,0,0,1,.495-.495h.54a.124.124,0,0,0,.087-.211l-5.874-5.874a1.736,1.736,0,0,1,0-2.448l.245-.245a1.736,1.736,0,0,1,2.448,0l1.54,1.54a.124.124,0,0,0,.087.036.122.122,0,0,0,.047-.009.124.124,0,0,0,.076-.114V29.395a1.733,1.733,0,0,1,1.731-1.731h.051a1.726,1.726,0,0,1,1.307.6V1.236A1.24,1.24,0,0,0,106.115,0H79.937A1.24,1.24,0,0,0,78.7,1.236V49.388a1.24,1.24,0,0,0,1.236,1.236H104.57v-.852Z" fill="#2e4c89"/>
      <path id="Path_52059" data-name="Path 52059" d="M111.637,75.161a1.719,1.719,0,0,1,.5-1.224l.245-.245a1.736,1.736,0,0,1,2.448,0l1.54,1.54a.124.124,0,0,0,.087.036.122.122,0,0,0,.047-.009.124.124,0,0,0,.076-.114V62.586a1.733,1.733,0,0,1,1.351-1.687V38.526a.654.654,0,0,0-.652-.652H93.415a.654.654,0,0,0-.652.652V75.236a.654.654,0,0,0,.652.652H111.8A1.73,1.73,0,0,1,111.637,75.161Z" transform="translate(-12.323 -33.191)" fill="#c3ddf4"/>
      <path id="Path_52060" data-name="Path 52060" d="M95.216,75.236V38.526a.654.654,0,0,1,.652-.652H93.415a.654.654,0,0,0-.652.652V75.236a.654.654,0,0,0,.652.652h2.453A.654.654,0,0,1,95.216,75.236Z" transform="translate(-12.323 -33.191)" fill="#aec1ed"/>
      <g id="Group_65378" data-name="Group 65378" transform="translate(86.999 1.287)">
        <circle id="Ellipse_562" data-name="Ellipse 562" cx="2.295" cy="2.295" r="2.295" transform="translate(3.732 42.662)" fill="#1a2b63"/>
        <path id="Path_52061" data-name="Path 52061" d="M178.025,13.2h-7.093a.927.927,0,0,1,0-1.855h7.093a.927.927,0,0,1,0,1.855Z" transform="translate(-167.014 -11.226)" fill="#1a2b63"/>
        <circle id="Ellipse_563" data-name="Ellipse 563" cx="1.043" cy="1.043" r="1.043" transform="translate(0)" fill="#1a2b63"/>
      </g>
      <path id="Path_52062" data-name="Path 52062" d="M117.284,37.874H93.415a.654.654,0,0,0-.652.652v2.9h25.174v-2.9A.655.655,0,0,0,117.284,37.874Z" transform="translate(-12.323 -33.191)" fill="#ff9518"/>
      <path id="Path_52063" data-name="Path 52063" d="M95.869,37.874H93.415a.654.654,0,0,0-.652.652v2.9h2.453v-2.9A.654.654,0,0,1,95.869,37.874Z" transform="translate(-12.323 -33.191)" fill="#ef8318"/>
      <path id="Path_52064" data-name="Path 52064" d="M129.681,171.837a1.24,1.24,0,0,1-1.236,1.236H109.6a1.24,1.24,0,0,1-1.236-1.236v-6.008a1.24,1.24,0,0,1,1.236-1.236h18.843a1.24,1.24,0,0,1,1.236,1.236Z" transform="translate(-25.996 -144.242)" fill="#445ea0"/>
      <path id="Path_52065" data-name="Path 52065" d="M111.637,259.833a1.718,1.718,0,0,1,.5-1.224l.245-.245a1.736,1.736,0,0,1,2.448,0l1.54,1.54a.124.124,0,0,0,.087.036.122.122,0,0,0,.047-.009.124.124,0,0,0,.076-.114V248.6H92.763v11.308a.654.654,0,0,0,.652.652H111.8A1.731,1.731,0,0,1,111.637,259.833Z" transform="translate(-12.323 -217.864)" fill="#eef6ff"/>
      <path id="Path_52066" data-name="Path 52066" d="M95.216,259.909V248.6H92.763v11.308a.654.654,0,0,0,.652.652h2.453A.654.654,0,0,1,95.216,259.909Z" transform="translate(-12.323 -217.864)" fill="#d9eafc"/>
      <g id="Group_65379" data-name="Group 65379" transform="translate(84.2 32.37)">
        <path id="Path_52067" data-name="Path 52067" d="M133.969,263.663h-9.862a.927.927,0,0,1,0-1.855h9.862a.927.927,0,1,1,0,1.855Z" transform="translate(-123.18 -261.808)" fill="#5dc1d8"/>
        <path id="Path_52068" data-name="Path 52068" d="M133.969,288.528h-9.862a.927.927,0,1,1,0-1.855h9.862a.927.927,0,1,1,0,1.855Z" transform="translate(-123.18 -283.599)" fill="#5dc1d8"/>
        <path id="Path_52069" data-name="Path 52069" d="M129.058,313.392h-4.951a.927.927,0,1,1,0-1.855h4.951a.927.927,0,1,1,0,1.855Z" transform="translate(-123.18 -305.389)" fill="#5dc1d8"/>
      </g>
      <path id="Path_52070" data-name="Path 52070" d="M242.288,275.065a.927.927,0,0,1-.749-1.474l1.214-1.665-1.213-1.665a.927.927,0,1,1,1.5-1.092l1.611,2.211a.927.927,0,0,1,0,1.092l-1.611,2.211A.927.927,0,0,1,242.288,275.065Z" transform="translate(-142.549 -235.555)" fill="#ff9518"/>
      <path id="Path_52071" data-name="Path 52071" d="M297.073,439.522v8.535a30.127,30.127,0,0,0,12.327-5.073v-3.463Z" transform="translate(-191.373 -385.18)" fill="#ef8318"/>
      <path id="Path_52072" data-name="Path 52072" d="M297.073,439.522v8.535q1.245-.21,2.453-.521v-8.014Z" transform="translate(-191.373 -385.18)" fill="#db722c"/>
      <path id="Path_52073" data-name="Path 52073" d="M263.468,244.482v-12.85a1.86,1.86,0,0,0-1.855-1.855h-.051a1.86,1.86,0,0,0-1.7,1.113,1.86,1.86,0,0,0-1.7-1.113h-.052a1.86,1.86,0,0,0-1.7,1.113,1.86,1.86,0,0,0-1.7-1.113h-.051a1.856,1.856,0,0,0-1.541.827V224.6a1.86,1.86,0,0,0-1.855-1.855h-.051a1.86,1.86,0,0,0-1.855,1.855v12.558l-1.54-1.54a1.86,1.86,0,0,0-2.623,0l-.245.245a1.86,1.86,0,0,0,0,2.623l6,6Z" transform="translate(-145.226 -195.203)" fill="#ffe2b8"/>
      <path id="Path_52074" data-name="Path 52074" d="M253.407,331.9l-6-6a1.86,1.86,0,0,1,0-2.623l.245-.245c.027-.027.056-.051.085-.077a1.859,1.859,0,0,0-2.538.077l-.245.245a1.86,1.86,0,0,0,0,2.623l6,6Z" transform="translate(-145.225 -282.618)" fill="#ffc987"/>
      <path id="Path_52075" data-name="Path 52075" d="M301.769,402.261a.62.62,0,0,1-.618.618h-13.6a.62.62,0,0,1-.618-.618v-4.074a.62.62,0,0,1,.618-.618h13.6a.62.62,0,0,1,.618.618Z" transform="translate(-182.487 -348.413)" fill="#ff9518"/>
      <path id="Path_52076" data-name="Path 52076" d="M289.386,402.261v-4.074a.62.62,0,0,1,.618-.618h-2.453a.62.62,0,0,0-.618.618v4.074a.62.62,0,0,0,.618.618H290A.62.62,0,0,1,289.386,402.261Z" transform="translate(-182.486 -348.413)" fill="#ef8318"/>
      <circle id="Ellipse_564" data-name="Ellipse 564" cx="1.149" cy="1.149" r="1.149" transform="translate(115.416 50.662)" fill="#db722c"/>
      <path id="Path_52077" data-name="Path 52077" d="M343.934,144.75a.62.62,0,0,1-.618.618H325.538a.62.62,0,0,1-.618-.618V131.924a.62.62,0,0,1,.618-.618h17.778a.62.62,0,0,1,.618.618Z" transform="translate(-215.777 -115.071)" fill="#fe3745"/>
      <path id="Path_52078" data-name="Path 52078" d="M376.7,159.88c0-.68.482-.958,1.071-.618l4.9,2.829a.653.653,0,0,1,0,1.236l-4.9,2.829c-.589.34-1.071.062-1.071-.618Z" transform="translate(-261.153 -139.443)" fill="#fff"/>
      <path id="Path_52079" data-name="Path 52079" d="M342.446,53.273a2.78,2.78,0,0,1-2.682-3.517H325.538a.62.62,0,0,0-.618.618v7.334a.62.62,0,0,0,.618.618h17.778a.62.62,0,0,0,.618-.618V52.839A2.763,2.763,0,0,1,342.446,53.273Z" transform="translate(-215.777 -43.604)" fill="#ffaf10"/>
      <path id="Path_52080" data-name="Path 52080" d="M327.373,144.75V131.924a.62.62,0,0,1,.618-.618h-2.453a.62.62,0,0,0-.618.618V144.75a.62.62,0,0,0,.618.618h2.453A.62.62,0,0,1,327.373,144.75Z" transform="translate(-215.777 -115.071)" fill="#b7092b"/>
      <path id="Path_52081" data-name="Path 52081" d="M327.373,57.708V50.374a.62.62,0,0,1,.618-.618h-2.453a.62.62,0,0,0-.618.618v7.334a.62.62,0,0,0,.618.618h2.453A.62.62,0,0,1,327.373,57.708Z" transform="translate(-215.777 -43.604)" fill="#ef9614"/>
      <circle id="Ellipse_565" data-name="Ellipse 565" cx="2.905" cy="2.905" r="2.905" transform="translate(123.764 3.982)" fill="#b7092b"/>
      <path id="Path_52082" data-name="Path 52082" d="M459.883,46.043a.618.618,0,0,1-.618-.618V44.08a.618.618,0,0,1,.178-1.21h.44a.618.618,0,0,1,.618.618v1.937A.618.618,0,0,1,459.883,46.043Z" transform="translate(-333.125 -37.57)" fill="#eef6ff"/>
      <g id="Group_65380" data-name="Group 65380" transform="translate(111.209 8.064)">
        <path id="Path_52083" data-name="Path 52083" d="M351.4,67.078h-8.852a.927.927,0,0,1,0-1.855H351.4a.927.927,0,1,1,0,1.855Z" transform="translate(-341.622 -65.223)" fill="#db722c"/>
        <path id="Path_52084" data-name="Path 52084" d="M354.078,90.269H342.549a.927.927,0,0,1,0-1.855h11.528a.927.927,0,1,1,0,1.855Z" transform="translate(-341.622 -85.547)" fill="#db722c"/>
      </g>
      <circle id="Ellipse_566" data-name="Ellipse 566" cx="4.615" cy="4.615" r="4.615" transform="translate(88.41 9.727)" fill="#ef8318"/>
      <circle id="Ellipse_567" data-name="Ellipse 567" cx="3.709" cy="3.709" r="3.709" transform="translate(89.317 10.633)" fill="#ff9518"/>
      <path id="Path_52085" data-name="Path 52085" d="M181.478,97.92h-.824v-.2a1.834,1.834,0,1,0-1.259,0v.2h-.824a.6.6,0,0,0-.6.6v1.438a3.708,3.708,0,0,0,4.1,0V98.518A.6.6,0,0,0,181.478,97.92Z" transform="translate(-86.998 -82.524)" fill="#fff"/>
      <path id="Path_52086" data-name="Path 52086" d="M126.822,183.593a.62.62,0,0,1-.618.618h-3.586a.62.62,0,0,1-.618-.618v-3.586a.62.62,0,0,1,.618-.618H126.2a.62.62,0,0,1,.618.618Z" transform="translate(-37.946 -157.209)" fill="#ff9518"/>
      <path id="Path_52087" data-name="Path 52087" d="M123.547,183.593v-3.586a.62.62,0,0,1,.618-.618h-1.547a.62.62,0,0,0-.618.618v3.586a.62.62,0,0,0,.618.618h1.547A.62.62,0,0,1,123.547,183.593Z" transform="translate(-37.946 -157.209)" fill="#ef8318"/>
      <g id="Group_65381" data-name="Group 65381" transform="translate(89.886 23.663)">
        <path id="Path_52088" data-name="Path 52088" d="M176.4,192.316a1.515,1.515,0,0,1,.317-.927h-6.623a.927.927,0,1,0,0,1.855h6.623A1.516,1.516,0,0,1,176.4,192.316Z" transform="translate(-169.166 -191.389)" fill="#1a2b63"/>
        <path id="Path_52089" data-name="Path 52089" d="M251.28,191.389h-1.512a1.514,1.514,0,0,1,0,1.855h1.512a.927.927,0,0,0,0-1.855Z" transform="translate(-239.802 -191.389)" fill="#1a2b63"/>
      </g>
      <circle id="Ellipse_568" data-name="Ellipse 568" cx="1.648" cy="1.648" r="1.648" transform="translate(96.995 22.942)" fill="#ff9518"/>
    </g>
  </g>
</svg>
