<svg xmlns="http://www.w3.org/2000/svg" xmlns:xlink="http://www.w3.org/1999/xlink" width="159" height="160" viewBox="0 0 159 160">
  <defs>
    <linearGradient id="linear-gradient" x1="1" y1="0.638" x2="-0.024" y2="0.308" gradientUnits="objectBoundingBox">
      <stop offset="0" stop-color="#fff"/>
      <stop offset="1" stop-color="#cae4fc"/>
    </linearGradient>
  </defs>
  <g id="Socket_io" data-name="Socket io" transform="translate(-550 -764)">
    <g id="ppc" transform="translate(456 698)">
      <g id="Education" transform="translate(93.674 66.254)">
        <ellipse id="Ellipse_404" data-name="Ellipse 404" cx="79.5" cy="80" rx="79.5" ry="80" transform="translate(0.326 -0.254)" opacity="0.53" fill="url(#linear-gradient)"/>
      </g>
    </g>
    <g id="socketio-icon" transform="translate(591 806)">
      <path id="Path_21975" data-name="Path 21975" d="M76.008,37.123a38.1,38.1,0,0,0-18.257-31.6A38.461,38.461,0,0,0,28.373,1.176C13.581,4.9,1.788,18.3.289,33.565A37.985,37.985,0,1,0,76,37.133ZM40.114,70.329C22.839,72.036,6.133,57.4,5.666,40.072,4.359,26,13.631,12.091,26.872,7.436,45.44-.012,68.249,13.746,70.163,33.66,73.163,51.554,58.268,69.771,40.114,70.329ZM28.746,36.036,53.726,15.6l-13.5,20.482c-3.827,0-7.655,0-11.482-.052Zm7.024,3.777,11.482.052L22.271,60.348Z" transform="translate(0 0)" fill="#010101"/>
    </g>
  </g>
</svg>
