<svg id="socketio-icon" xmlns="http://www.w3.org/2000/svg" width="137.99" height="137.828" viewBox="0 0 137.99 137.828">
  <path id="Path_21959" data-name="Path 21959" d="M137.986,67.393c-.375-23.074-13.241-45.54-33.145-57.37C89.16.257,69.351-2.372,51.509,2.135,24.654,8.9,3.245,33.216.524,60.935c-3.381,26.179,9.859,53.406,32.487,66.832,22.16,13.9,52.3,13.333,73.966-1.294a69.324,69.324,0,0,0,30.988-59.061ZM72.823,127.676c-31.361,3.1-61.689-23.473-62.537-54.929C7.914,47.209,24.745,21.95,48.783,13.5,82.492-.022,123.9,24.954,127.374,61.107,132.822,93.592,105.78,126.663,72.823,127.676ZM52.186,65.42l45.35-37.091L73.03,65.513c-6.948,0-13.9,0-20.844-.095Zm12.751,6.857,20.844.095-45.35,37.184Z" transform="translate(0)" fill="#010101"/>
</svg>
