<svg xmlns="http://www.w3.org/2000/svg" xmlns:xlink="http://www.w3.org/1999/xlink" width="75" height="75" viewBox="0 0 75 75">
  <defs>
    <linearGradient id="linear-gradient" x1="0.974" y1="0.238" x2="-0.052" y2="0.609" gradientUnits="objectBoundingBox">
      <stop offset="0" stop-color="#fff"/>
      <stop offset="1" stop-color="#006bc0" stop-opacity="0.071"/>
    </linearGradient>
  </defs>
  <g id="Rest_Api" data-name="Rest Api" transform="translate(-187.662 -1357.662)">
    <g id="Group_7613" data-name="Group 7613" transform="translate(188 1358)">
      <circle id="Ellipse_376" data-name="Ellipse 376" cx="37.5" cy="37.5" r="37.5" transform="translate(-0.338 -0.338)" opacity="0.42" fill="url(#linear-gradient)"/>
    </g>
    <g id="Rest_Api-2" data-name="Rest Api" transform="translate(200.273 1363.662)">
      <path id="Path_52152" data-name="Path 52152" d="M43.987,211.231v-21.77a3.781,3.781,0,0,0-3.781-3.781H7.184A3.782,3.782,0,0,0,3.4,189.461v21.77Z" transform="translate(0 -163.554)" fill="#3facf1"/>
      <path id="Path_52153" data-name="Path 52153" d="M291.534,185.68h-2.8a3.781,3.781,0,0,1,3.781,3.781v21.77h2.8v-21.77A3.781,3.781,0,0,0,291.534,185.68Z" transform="translate(-251.328 -163.554)" fill="#d0e7f2"/>
      <path id="Path_52154" data-name="Path 52154" d="M125.752,412.378l.508,8.443H111.643l.508-8.443h3.377v2.235a3.509,3.509,0,1,0,7.019,0v-2.235Z" transform="translate(-95.342 -363.237)" fill="#07b2cd"/>
      <g id="Group_65426" data-name="Group 65426" transform="translate(17.803 49.141)">
        <path id="Path_52155" data-name="Path 52155" d="M127.753,418.122a3.5,3.5,0,0,0,1.191-.208,3.511,3.511,0,0,1-2.318-3.3v-2.235h-2.383v2.235A3.51,3.51,0,0,0,127.753,418.122Z" transform="translate(-124.243 -412.378)" fill="#0199b1"/>
        <path id="Path_52156" data-name="Path 52156" d="M212.427,412.378h-2.383l.508,8.443h2.383Z" transform="translate(-199.82 -412.378)" fill="#0199b1"/>
      </g>
      <path id="Path_52157" data-name="Path 52157" d="M3.4,390.875v1.185a2.705,2.705,0,0,0,2.706,2.705H41.282a2.705,2.705,0,0,0,2.706-2.705v-1.185Z" transform="translate(0 -344.297)" fill="#30dde5"/>
      <path id="Path_52158" data-name="Path 52158" d="M300.465,390.875v1.185a2.705,2.705,0,0,1-2.706,2.705h2.8a2.705,2.705,0,0,0,2.706-2.705v-1.185Z" transform="translate(-259.279 -344.297)" fill="#02c7dd"/>
      <g id="Group_65427" data-name="Group 65427" transform="translate(18.223 32.318)">
        <path id="Path_52159" data-name="Path 52159" d="M132.993,272.993h-4.335a.894.894,0,0,1,0-1.788h4.335a.894.894,0,0,1,0,1.788Z" transform="translate(-127.765 -271.206)" fill="#bd80e1"/>
      </g>
      <g id="Group_65428" data-name="Group 65428" transform="translate(18.223 35.828)">
        <path id="Path_52160" data-name="Path 52160" d="M132.993,302.443h-4.335a.894.894,0,1,1,0-1.787h4.335a.894.894,0,1,1,0,1.787Z" transform="translate(-127.765 -300.656)" fill="#bd80e1"/>
      </g>
      <g id="Group_65429" data-name="Group 65429" transform="translate(26.923 17.152)">
        <path id="Path_52161" data-name="Path 52161" d="M224.718,162.694H201.672a.894.894,0,0,1,0-1.787h23.046a1.954,1.954,0,0,0,1.951-1.951V144.829a.894.894,0,0,1,1.787,0v14.127A3.743,3.743,0,0,1,224.718,162.694Z" transform="translate(-200.778 -143.935)" fill="#017297"/>
      </g>
      <g id="Group_65431" data-name="Group 65431" transform="translate(8.275 30.715)">
        <circle id="Ellipse_583" data-name="Ellipse 583" cx="0.896" cy="0.896" r="0.896" fill="#d0e7f2"/>
        <g id="Group_65430" data-name="Group 65430" transform="translate(4.173 0.002)">
          <path id="Path_52162" data-name="Path 52162" d="M82.075,259.554H80.2a.894.894,0,0,1,0-1.787h1.876a.894.894,0,0,1,0,1.787Z" transform="translate(-79.306 -257.767)" fill="#d0e7f2"/>
        </g>
      </g>
      <g id="Group_65433" data-name="Group 65433" transform="translate(7.977 34.08)">
        <circle id="Ellipse_584" data-name="Ellipse 584" cx="0.896" cy="0.896" r="0.896" transform="translate(6.402)" fill="#d0e7f2"/>
        <g id="Group_65432" data-name="Group 65432" transform="translate(0 0.002)">
          <path id="Path_52163" data-name="Path 52163" d="M44.915,287.8H42.682a.894.894,0,1,1,0-1.787h2.233a.894.894,0,1,1,0,1.787Z" transform="translate(-41.788 -286.012)" fill="#d0e7f2"/>
        </g>
      </g>
      <path id="Path_52164" data-name="Path 52164" d="M165.533,267.7h-1.1a1.344,1.344,0,0,1-1.344-1.344v-5.244a1.344,1.344,0,0,1,1.344-1.344h1.1a3.966,3.966,0,1,1,0,7.932Z" transform="translate(-140.658 -228.812)" fill="#6cf5c2"/>
      <path id="Path_52165" data-name="Path 52165" d="M171.345,259.767h-1.1a1.335,1.335,0,0,0-.558.122,3.967,3.967,0,0,1,0,7.688,1.336,1.336,0,0,0,.558.122h1.1a3.966,3.966,0,1,0,0-7.932Z" transform="translate(-146.471 -228.812)" fill="#00f2a6"/>
      <g id="Group_65434" data-name="Group 65434" transform="translate(7.977 37.448)">
        <path id="Path_52166" data-name="Path 52166" d="M48.977,316.044H42.682a.894.894,0,0,1,0-1.787h6.295a.894.894,0,0,1,0,1.787Z" transform="translate(-41.788 -314.257)" fill="#d0e7f2"/>
      </g>
      <g id="Group_65435" data-name="Group 65435" transform="translate(10.22 56.691)">
        <path id="Path_52167" data-name="Path 52167" d="M61.5,478.839a.894.894,0,0,1-.779-1.33,3.474,3.474,0,0,1,3.028-1.775H84.417a3.475,3.475,0,0,1,3.028,1.775.894.894,0,0,1-1.56.873,1.685,1.685,0,0,0-1.469-.861H63.752a1.685,1.685,0,0,0-1.469.861A.893.893,0,0,1,61.5,478.839Z" transform="translate(-60.609 -475.733)" fill="#30dde5"/>
      </g>
      <g id="Group_65436" data-name="Group 65436" transform="translate(40.465 3.021)">
        <path id="Path_52168" data-name="Path 52168" d="M336.343,28.184V38.74a2.832,2.832,0,0,1-2.831,2.832h-16.26a2.833,2.833,0,0,1-2.832-2.832V28.184a2.833,2.833,0,0,1,2.832-2.832h16.26a2.832,2.832,0,0,1,2.831,2.832Z" transform="translate(-314.42 -25.352)" fill="#bd80e1"/>
        <path id="Path_52169" data-name="Path 52169" d="M456.018,25.352H453.5a2.832,2.832,0,0,1,2.831,2.832V38.74a2.832,2.832,0,0,1-2.831,2.832h2.518a2.832,2.832,0,0,0,2.831-2.832V28.184A2.832,2.832,0,0,0,456.018,25.352Z" transform="translate(-436.927 -25.352)" fill="#af66da"/>
      </g>
      <path id="Path_52170" data-name="Path 52170" d="M336.346,2.833V5.853H314.423V2.833A2.833,2.833,0,0,1,317.256,0h16.259a2.833,2.833,0,0,1,2.831,2.833Z" transform="translate(-273.957)" fill="#30dde5"/>
      <circle id="Ellipse_585" data-name="Ellipse 585" cx="1.792" cy="1.792" r="1.792" transform="translate(34.721 33.226)" fill="#02c7dd"/>
      <path id="Path_52171" data-name="Path 52171" d="M458.852,2.833V5.853h-2.519V2.833A2.832,2.832,0,0,0,453.5,0h2.518a2.833,2.833,0,0,1,2.831,2.833Z" transform="translate(-396.464)" fill="#02c7dd"/>
      <circle id="Ellipse_586" data-name="Ellipse 586" cx="0.896" cy="0.896" r="0.896" transform="translate(58.073 2.031)" fill="#bd80e1"/>
      <g id="Group_65437" data-name="Group 65437" transform="translate(44.214 8.818)">
        <path id="Path_52172" data-name="Path 52172" d="M455.386,74a.707.707,0,0,0-.707.707v4.266a.707.707,0,0,0,1.414,0V74.706A.707.707,0,0,0,455.386,74Z" transform="translate(-441.714 -73.999)" fill="#edf5fa"/>
        <path id="Path_52173" data-name="Path 52173" d="M350.261,74.841a.707.707,0,0,0-.682.523,2.546,2.546,0,1,0,0,4.534.707.707,0,0,0,1.39-.184V75.548A.707.707,0,0,0,350.261,74.841Zm-1.839,3.922a1.131,1.131,0,1,1,1.131-1.131A1.133,1.133,0,0,1,348.423,78.763Z" transform="translate(-345.877 -74.741)" fill="#edf5fa"/>
        <path id="Path_52174" data-name="Path 52174" d="M403.324,75.619a2.529,2.529,0,0,0-1.244.326.707.707,0,0,0-1.3.382V82.31a.707.707,0,0,0,1.415,0V80.445a2.546,2.546,0,1,0,1.131-4.826Zm0,3.677a1.131,1.131,0,1,1,1.131-1.131A1.133,1.133,0,0,1,403.324,79.3Z" transform="translate(-394.236 -75.426)" fill="#edf5fa"/>
      </g>
    </g>
  </g>
</svg>
