<svg xmlns="http://www.w3.org/2000/svg" xmlns:xlink="http://www.w3.org/1999/xlink" width="76" height="74" viewBox="0 0 76 74">
  <defs>
    <linearGradient id="linear-gradient" x1="0.974" y1="0.238" x2="-0.052" y2="0.609" gradientUnits="objectBoundingBox">
      <stop offset="0" stop-color="#fff"/>
      <stop offset="1" stop-color="#006bc0" stop-opacity="0.071"/>
    </linearGradient>
  </defs>
  <g id="Open_Source" data-name="Open Source" transform="translate(-188 -1358)">
    <circle id="Ellipse_384" data-name="Ellipse 384" cx="37" cy="37" r="37" transform="translate(188 1358)" opacity="0.42" fill="url(#linear-gradient)"/>
    <g id="open-source" transform="translate(205 1370.001)">
      <path id="Path_52264" data-name="Path 52264" d="M43,47H4a3,3,0,0,1-3-3V4A3,3,0,0,1,4,1H42a3,3,0,0,1,3,3V24l-2,2Z" fill="#4b95ff"/>
      <path id="Path_52265" data-name="Path 52265" d="M6,43a1,1,0,0,1-1-1V10A1,1,0,0,1,6,9H40a1,1,0,0,1,1,1V43Z" fill="#fff"/>
      <path id="Path_52266" data-name="Path 52266" d="M45,39V28a3,3,0,0,1,6,0v3a2,2,0,0,0,4,0V28a7,7,0,1,0-14,0V39Z" fill="#bfdbf0"/>
      <rect id="Rectangle_5341" data-name="Rectangle 5341" width="22" height="22" rx="4" transform="translate(37 37)" fill="#f26d49"/>
      <path id="Path_52267" data-name="Path 52267" d="M50.134,48.716l.624,3.086a1,1,0,0,1-.98,1.2H46.222a1,1,0,0,1-.98-1.2l.626-3.1a.95.95,0,0,0-.183-.8,3,3,0,1,1,4.625.006.96.96,0,0,0-.176.808Z" fill="#c84e3c"/>
      <g id="Group_65458" data-name="Group 65458">
        <path id="Path_52268" data-name="Path 52268" d="M7,6H6A1,1,0,0,1,6,4H7A1,1,0,0,1,7,6Z" fill="#fff"/>
        <path id="Path_52269" data-name="Path 52269" d="M12,6H11a1,1,0,0,1,0-2h1a1,1,0,0,1,0,2Z" fill="#fff"/>
        <path id="Path_52270" data-name="Path 52270" d="M17,6H16a1,1,0,0,1,0-2h1a1,1,0,0,1,0,2Z" fill="#fff"/>
        <path id="Path_52271" data-name="Path 52271" d="M40,6H34a1,1,0,0,1,0-2h6a1,1,0,0,1,0,2Z" fill="#fff"/>
      </g>
      <path id="Path_52272" data-name="Path 52272" d="M16.731,19.318a1,1,0,0,0-1.413-.049L9.633,24.562a1.95,1.95,0,0,0,0,2.876l5.685,5.293a1,1,0,0,0,1.364-1.462L11,26.024l5.686-5.293a1,1,0,0,0,.045-1.413Z" fill="#3778c6"/>
      <path id="Path_52273" data-name="Path 52273" d="M36.367,24.562l-5.685-5.293a1,1,0,0,0-1.364,1.462L35,25.976l-5.686,5.293a1,1,0,1,0,1.364,1.462l5.685-5.293a1.95,1.95,0,0,0,0-2.876Z" fill="#3778c6"/>
      <path id="Path_52274" data-name="Path 52274" d="M26.447,19.1a1,1,0,0,0-1.342.448l-6,12a1,1,0,1,0,1.79.894l6-12A1,1,0,0,0,26.447,19.1Z" fill="#3778c6"/>
    </g>
  </g>
</svg>
