<svg class="formsvg" xmlns="http://www.w3.org/2000/svg" width="16.011" height="15.082" viewBox="0 0 16.011 15.082">
              <g id="attachments" transform="translate(4 -13.856)">
                <g id="Group_65221" data-name="Group 65221" transform="translate(-4 13.856)">
                  <path id="Path_21298" data-name="Path 21298" d="M15.082,16.654a3.181,3.181,0,0,0-4.494,0L3.1,24.143a1.907,1.907,0,1,0,2.7,2.7l5.992-5.992-.9-.9L4.9,25.941a.636.636,0,1,1-.9-.9l7.49-7.49a1.907,1.907,0,1,1,2.7,2.7l-7.49,7.49A3.178,3.178,0,0,1,2.2,23.245l7.49-7.49-.9-.9L1.3,22.346a4.449,4.449,0,0,0,6.291,6.291l7.49-7.49A3.181,3.181,0,0,0,15.082,16.654Z" transform="translate(0 -14.856)" fill="#858585"></path>
                </g>
              </g>
            </svg>