<svg xmlns="http://www.w3.org/2000/svg" width="95.986" height="93.587" viewBox="0 0 95.986 93.587">
  <g id="xd" transform="translate(0 -6.4)">
    <g id="Layer_2_8_" transform="translate(0 6.4)">
      <g id="Surfaces_9_" transform="translate(0 0)">
        <g id="UI_UX_Surface">
          <g id="Outline_no_shadow_9_">
            <path id="Path_21319" data-name="Path 21319" d="M17,6.4H78.989a17,17,0,0,1,17,17V82.989a17,17,0,0,1-17,17H17a17,17,0,0,1-17-17V23.4a17,17,0,0,1,17-17Z" transform="translate(0 -6.4)" fill="#470137"/>
          </g>
        </g>
      </g>
      <g id="Outlined_Mnemonics_Logos_8_" transform="translate(13.975 20.487)">
        <g id="Xd-2" data-name="Xd">
          <path id="Path_21320" data-name="Path 21320" d="M111.029,134.849,99.052,154.617l12.814,20.991a.662.662,0,0,1,.064.483c-.043.151-.193.056-.451.1h-9.143c-.644,0-1.095-.023-1.352-.452q-1.289-2.511-2.576-4.99t-2.736-5.055q-1.449-2.574-2.865-5.216h-.065q-1.289,2.576-2.672,5.151t-2.736,5.119q-1.352,2.544-2.769,5.055c-.172.386-.473.426-.9.426H74.841c-.171,0-.268.068-.29-.1a.646.646,0,0,1,.1-.451l12.427-20.412L74.97,134.784q-.193-.256-.064-.418a.469.469,0,0,1,.387-.161h9.079a1.344,1.344,0,0,1,.58.1,1.167,1.167,0,0,1,.386.354q1.159,2.576,2.576,5.151t2.865,5.087q1.449,2.511,2.672,5.087h.064q1.287-2.64,2.608-5.151t2.7-5.055q1.384-2.543,2.672-5.055a.99.99,0,0,1,.258-.418.936.936,0,0,1,.515-.1h8.435a.369.369,0,0,1,.322.644Z" transform="translate(-74.544 -130.724)" fill="#ff61f6"/>
          <path id="Path_21321" data-name="Path 21321" d="M294.894,161.984a19.949,19.949,0,0,1-8.6-1.8,13.667,13.667,0,0,1-6.02-5.441,17.4,17.4,0,0,1-2.189-9.111,16.815,16.815,0,0,1,2.189-8.435,16.073,16.073,0,0,1,6.375-6.182,20.579,20.579,0,0,1,10.109-2.318q.321,0,.837.032t1.223.1V116.138c0-.3.129-.451.387-.451h8.113a.342.342,0,0,1,.386.29.348.348,0,0,1,0,.1v38.055q0,1.1.1,2.383t.161,2.318a.666.666,0,0,1-.387.644,31.943,31.943,0,0,1-6.5,1.932A34.926,34.926,0,0,1,294.894,161.984ZM298.822,154V136.421a6.384,6.384,0,0,0-1.062-.193,12.837,12.837,0,0,0-1.32-.064,9.944,9.944,0,0,0-4.507,1.03,8.286,8.286,0,0,0-4.7,8.049,11.36,11.36,0,0,0,.676,4.121,7.833,7.833,0,0,0,1.8,2.833,6.867,6.867,0,0,0,2.7,1.61,10.59,10.59,0,0,0,3.316.515q.9,0,1.674-.064A6.888,6.888,0,0,0,298.822,154Z" transform="translate(-239.93 -115.684)" fill="#ff61f6"/>
        </g>
      </g>
    </g>
  </g>
</svg>
