<svg xmlns="http://www.w3.org/2000/svg" xmlns:xlink="http://www.w3.org/1999/xlink" width="656.136" height="450" viewBox="0 0 656.136 450">
  <defs>
    <clipPath id="clip-path">
      <rect id="Rectangle_210" data-name="Rectangle 210" width="656.136" height="18.631" fill="none"/>
    </clipPath>
    <clipPath id="clip-path-2">
      <rect id="Rectangle_213" data-name="Rectangle 213" width="69.279" height="210.21" fill="#e5f0f8"/>
    </clipPath>
    <clipPath id="clip-path-3">
      <rect id="Rectangle_214" data-name="Rectangle 214" width="4.684" height="8.02" fill="none"/>
    </clipPath>
    <clipPath id="clip-path-4">
      <rect id="Rectangle_215" data-name="Rectangle 215" width="83.91" height="83.909" fill="none"/>
    </clipPath>
    <clipPath id="clip-path-5">
      <rect id="Rectangle_216" data-name="Rectangle 216" width="83.784" height="59.621" fill="none"/>
    </clipPath>
    <clipPath id="clip-path-6">
      <rect id="Rectangle_217" data-name="Rectangle 217" width="17.168" height="15.088" fill="none"/>
    </clipPath>
    <clipPath id="clip-path-7">
      <rect id="Rectangle_222" data-name="Rectangle 222" width="50.156" height="30.885" fill="none"/>
    </clipPath>
  </defs>
  <g id="banner-img" transform="translate(-487.864 -242)">
    <path id="Path_772" data-name="Path 772" d="M731.287,792.917a41.89,41.89,0,0,0-2.313-14.682l10.737-9.519-7.035-11.342-13.232,5.369A41.862,41.862,0,0,0,707.268,754l.858-14.263-12.991-3.044-5.591,13.228a41.83,41.83,0,0,0-14.639,2.493l-9.594-10.828-11.337,7.036,5.5,13.565a41.872,41.872,0,0,0-8.367,11.881l-14.762-.89L633.3,786.172,647.085,792a41.885,41.885,0,0,0,2.383,14.013l-11.27,9.993,7.035,11.342,14.019-5.688a41.851,41.851,0,0,0,11.44,8.214l-.909,15.11,12.991,3.045,5.862-13.872a41.824,41.824,0,0,0,14.047-2.211l9.915,11.19,11.337-7.036-5.555-13.7a41.833,41.833,0,0,0,8.579-11.74l14.6.881,3.043-13ZM700.3,809.956a21.083,21.083,0,1,1,6.8-29.031,21.074,21.074,0,0,1-6.8,29.031" transform="translate(42.39 -443.897)" fill="#6ca7dd"/>
    <path id="Path_773" data-name="Path 773" d="M718.039,799.8a41.9,41.9,0,0,0-2.313-14.682l10.736-9.52-7.035-11.342L706.2,769.622a41.862,41.862,0,0,0-12.176-8.744l.858-14.262-12.991-3.044L676.3,756.8a41.815,41.815,0,0,0-14.639,2.492l-9.594-10.827L640.726,755.5l5.5,13.565a41.878,41.878,0,0,0-8.368,11.881l-14.762-.89-3.043,12.994,13.782,5.829a41.862,41.862,0,0,0,2.383,14.012l-11.27,9.993,7.035,11.342L646,828.539a41.857,41.857,0,0,0,11.44,8.214l-.91,15.11,12.991,3.045,5.862-13.871a41.844,41.844,0,0,0,14.046-2.211l9.915,11.19,11.337-7.036-5.555-13.7a41.84,41.84,0,0,0,8.579-11.74l14.6.881,3.043-13Zm-30.983,17.039a21.083,21.083,0,1,1,6.8-29.031,21.075,21.075,0,0,1-6.8,29.031" transform="translate(50.572 -448.146)" fill="#c8e4fe"/>
    <path id="Path_774" data-name="Path 774" d="M628.013,834.724l4.388.264.678-2.895Z" transform="translate(45.658 -502.813)" fill="#a9ceea"/>
    <path id="Path_775" data-name="Path 775" d="M781.734,739.324l5.066-2.63-1.468,3.474Z" transform="translate(-49.275 -443.898)" fill="#a9ceea"/>
    <path id="Path_776" data-name="Path 776" d="M703.751,752.117l5.066-2.631-4.773,2.962Z" transform="translate(-1.115 -451.798)" fill="#a9ceea"/>
    <path id="Path_777" data-name="Path 777" d="M749.411,1029.085l5.067-2.63-3.6-.843Z" transform="translate(-29.313 -622.323)" fill="#a9ceea"/>
    <path id="Path_778" data-name="Path 778" d="M903.132,934.62l5.067-2.63-4.389-.265Z" transform="translate(-124.246 -564.342)" fill="#a9ceea"/>
    <path id="Path_779" data-name="Path 779" d="M827.4,1017.119l5.066-2.631-.293-.331Z" transform="translate(-77.474 -615.249)" fill="#a9ceea"/>
    <path id="Path_780" data-name="Path 780" d="M607.354,631.194a20.366,20.366,0,0,0-1.124-7.135l5.218-4.626-3.419-5.512-6.43,2.609a20.342,20.342,0,0,0-5.917-4.248l.417-6.931-6.313-1.48-2.717,6.428a20.33,20.33,0,0,0-7.114,1.211l-4.662-5.262-5.509,3.419,2.674,6.592a20.349,20.349,0,0,0-4.066,5.774l-7.173-.433-1.479,6.315,6.7,2.833a20.356,20.356,0,0,0,1.158,6.809l-5.477,4.856,3.418,5.511,6.813-2.764a20.339,20.339,0,0,0,5.559,3.992l-.442,7.343,6.313,1.48,2.849-6.741a20.314,20.314,0,0,0,6.826-1.075l4.818,5.438,5.509-3.419-2.7-6.656a20.322,20.322,0,0,0,4.169-5.7l7.1.428,1.479-6.315Zm-15.057,8.28a10.245,10.245,0,1,1,3.3-14.108,10.242,10.242,0,0,1-3.3,14.108" transform="translate(87.821 -361.872)" fill="#6ca7dd"/>
    <path id="Path_781" data-name="Path 781" d="M600.917,634.536a20.355,20.355,0,0,0-1.124-7.135l5.217-4.626-3.419-5.512-6.43,2.609a20.35,20.35,0,0,0-5.917-4.249l.417-6.931-6.313-1.48-2.717,6.428a20.328,20.328,0,0,0-7.114,1.211l-4.662-5.262-5.509,3.419,2.674,6.592a20.353,20.353,0,0,0-4.066,5.774l-7.174-.432-1.479,6.315,6.7,2.833a20.345,20.345,0,0,0,1.158,6.809l-5.477,4.856,3.419,5.511,6.813-2.764a20.338,20.338,0,0,0,5.559,3.992l-.442,7.343,6.313,1.48,2.848-6.741a20.333,20.333,0,0,0,6.826-1.075l4.818,5.438,5.509-3.419-2.7-6.656a20.339,20.339,0,0,0,4.169-5.705l7.1.428,1.479-6.315Zm-15.056,8.28a10.245,10.245,0,1,1,3.3-14.108,10.241,10.241,0,0,1-3.3,14.108" transform="translate(91.797 -363.936)" fill="#c8e4fe"/>
    <path id="Path_782" data-name="Path 782" d="M557.168,651.51l2.132.129.33-1.407Z" transform="translate(89.409 -390.502)" fill="#a9ceea"/>
    <path id="Path_783" data-name="Path 783" d="M631.869,605.15l2.462-1.278-.714,1.688Z" transform="translate(43.277 -361.872)" fill="#a9ceea"/>
    <path id="Path_784" data-name="Path 784" d="M593.973,611.367l2.462-1.278-2.319,1.439Z" transform="translate(66.68 -365.711)" fill="#a9ceea"/>
    <path id="Path_785" data-name="Path 785" d="M616.161,745.96l2.462-1.278-1.748-.41Z" transform="translate(52.977 -448.578)" fill="#a9ceea"/>
    <path id="Path_786" data-name="Path 786" d="M690.862,700.055l2.462-1.278-2.133-.129Z" transform="translate(6.844 -420.402)" fill="#a9ceea"/>
    <path id="Path_787" data-name="Path 787" d="M654.058,740.145l2.462-1.278-.142-.161Z" transform="translate(29.573 -445.14)" fill="#a9ceea"/>
    <g id="Group_1287" data-name="Group 1287" transform="translate(487.864 673.369)" opacity="0.15">
      <g id="Group_1286" data-name="Group 1286" transform="translate(0 0)">
        <g id="Group_1285" data-name="Group 1285" clip-path="url(#clip-path)">
          <path id="Path_788" data-name="Path 788" d="M798.3,1740.142c0,8.586-150.176,10.312-331.363,10.312s-324.772-1.726-324.772-10.312,146.82-8.318,328.007-8.318,328.128-.267,328.128,8.318" transform="translate(-142.162 -1731.823)" fill="#6d6d6d"/>
        </g>
      </g>
    </g>
    <path id="Path_811" data-name="Path 811" d="M785.141,1224.964H318.027a1.4,1.4,0,0,1-1.4-1.4V970.729a20.254,20.254,0,0,1,20.255-20.254H769.478a17.06,17.06,0,0,1,17.06,17.06v256.032a1.4,1.4,0,0,1-1.4,1.4" transform="translate(237.956 -575.922)" fill="#0a6cc7"/>
    <rect id="Rectangle_212" data-name="Rectangle 212" width="413.274" height="244.455" transform="translate(582.904 396.082)" fill="#b6d3ee"/>
    <path id="Path_812" data-name="Path 812" d="M319.418,973.867c0-11.433,9.6-20.7,21.436-20.7H770.267a21.807,21.807,0,0,1,13.7,4.781,21.7,21.7,0,0,0-16.484-7.473H338.067c-11.838,0-21.435,9.269-21.435,20.7v253.789h2.786Z" transform="translate(237.956 -575.922)" fill="#04427d"/>
    <path id="Path_813" data-name="Path 813" d="M238.792,1668.416v6.835a21.447,21.447,0,0,0,21.447,21.447H746.582a21.654,21.654,0,0,0,21.655-21.654v-6.785a.044.044,0,0,0-.044-.044h-529.2a.2.2,0,0,0-.2.2" transform="translate(286.027 -1019.173)" fill="#04427d"/>
    <path id="Path_814" data-name="Path 814" d="M886.877,1674.9h-143.5c0,2.895,4.478,5.24,10,5.24H876.88c5.521,0,10-2.346,10-5.24" transform="translate(-25.586 -1023.298)" fill="#04427d"/>
    <path id="Path_815" data-name="Path 815" d="M240.654,1705.453c2.226,7.437,9.609,13.1,18.731,14.078.3.028.6.063.9.083.24.018.481.021.723.031.538.025,1.074.049,1.62.049H746.7c.544,0,1.082-.024,1.62-.049.24-.01.483-.014.722-.031.3-.02.6-.055.9-.083,9.122-.975,16.506-6.642,18.732-14.078Z" transform="translate(284.877 -1042.169)" fill="#6ca7dd"/>
    <g id="Group_1290" data-name="Group 1290" transform="translate(605.017 412.531)">
      <g id="Group_1289" data-name="Group 1289" transform="translate(0 0)">
        <g id="Group_1288" data-name="Group 1288" clip-path="url(#clip-path-2)">
          <path id="Path_816" data-name="Path 816" d="M514.587,1259.989h-62.9a3.188,3.188,0,0,1-3.188-3.188V1052.967a3.188,3.188,0,0,1,3.188-3.188h62.9a3.188,3.188,0,0,1,3.188,3.188V1256.8a3.188,3.188,0,0,1-3.188,3.188" transform="translate(-448.496 -1049.779)" fill="#e5f0f8"/>
        </g>
      </g>
    </g>
    <path id="Path_817" data-name="Path 817" d="M499.818,1091.008H472.67a1.285,1.285,0,0,1-1.285-1.285v-1.955a1.285,1.285,0,0,1,1.285-1.285h27.148a1.285,1.285,0,0,1,1.285,1.285v1.955a1.285,1.285,0,0,1-1.285,1.285" transform="translate(142.386 -659.916)" fill="#0a6cc7"/>
    <path id="Path_818" data-name="Path 818" d="M514.3,1117.854H472.957a1.572,1.572,0,0,1-1.572-1.572v-1.38a1.573,1.573,0,0,1,1.572-1.573H514.3a1.572,1.572,0,0,1,1.572,1.572v1.38a1.572,1.572,0,0,1-1.572,1.572" transform="translate(142.386 -676.494)" fill="#0a6cc7"/>
    <path id="Path_819" data-name="Path 819" d="M506.774,1144.7H472.815a1.43,1.43,0,0,1-1.43-1.43v-1.664a1.43,1.43,0,0,1,1.43-1.43h33.959a1.43,1.43,0,0,1,1.43,1.43v1.664a1.43,1.43,0,0,1-1.43,1.43" transform="translate(142.386 -693.074)" fill="#0a6cc7"/>
    <path id="Path_820" data-name="Path 820" d="M488.785,1171.546H472.4a1.011,1.011,0,0,1-1.011-1.011v-2.5a1.011,1.011,0,0,1,1.011-1.011h16.387a1.011,1.011,0,0,1,1.012,1.011v2.5a1.011,1.011,0,0,1-1.012,1.011" transform="translate(142.385 -709.653)" fill="#0a6cc7"/>
    <path id="Path_821" data-name="Path 821" d="M494.7,1198.392H472.551a1.166,1.166,0,0,1-1.166-1.166v-2.192a1.166,1.166,0,0,1,1.166-1.166H494.7a1.166,1.166,0,0,1,1.166,1.166v2.192a1.166,1.166,0,0,1-1.166,1.166" transform="translate(142.386 -726.232)" fill="#0a6cc7"/>
    <path id="Path_822" data-name="Path 822" d="M504.576,1225.238H472.771a1.386,1.386,0,0,1-1.386-1.385V1222.1a1.386,1.386,0,0,1,1.386-1.386h31.805a1.386,1.386,0,0,1,1.386,1.386v1.753a1.386,1.386,0,0,1-1.386,1.385" transform="translate(142.386 -742.812)" fill="#0a6cc7"/>
    <path id="Path_823" data-name="Path 823" d="M494.7,1252.084H472.551a1.166,1.166,0,0,1-1.166-1.166v-2.192a1.166,1.166,0,0,1,1.166-1.166H494.7a1.166,1.166,0,0,1,1.166,1.166v2.192a1.166,1.166,0,0,1-1.166,1.167" transform="translate(142.386 -759.391)" fill="#0a6cc7"/>
    <path id="Path_824" data-name="Path 824" d="M515.582,1278.93h-42.6a1.6,1.6,0,0,1-1.595-1.595V1276a1.6,1.6,0,0,1,1.6-1.6h42.6a1.6,1.6,0,0,1,1.6,1.6v1.334a1.6,1.6,0,0,1-1.595,1.595" transform="translate(142.386 -775.97)" fill="#0a6cc7"/>
    <path id="Path_825" data-name="Path 825" d="M500,1305.777H472.674a1.289,1.289,0,0,1-1.289-1.289v-1.947a1.289,1.289,0,0,1,1.289-1.289H500a1.289,1.289,0,0,1,1.289,1.289v1.947a1.289,1.289,0,0,1-1.289,1.289" transform="translate(142.386 -792.549)" fill="#0a6cc7"/>
    <path id="Path_826" data-name="Path 826" d="M516.683,1332.623H473a1.614,1.614,0,0,1-1.614-1.614v-1.3A1.614,1.614,0,0,1,473,1328.1h43.684a1.615,1.615,0,0,1,1.615,1.615v1.3a1.614,1.614,0,0,1-1.615,1.615" transform="translate(142.386 -809.128)" fill="#0a6cc7"/>
    <path id="Path_827" data-name="Path 827" d="M502.745,1359.468H472.733a1.348,1.348,0,0,1-1.348-1.348v-1.828a1.348,1.348,0,0,1,1.348-1.348h30.012a1.348,1.348,0,0,1,1.348,1.348v1.828a1.348,1.348,0,0,1-1.348,1.348" transform="translate(142.386 -825.707)" fill="#0a6cc7"/>
    <path id="Path_828" data-name="Path 828" d="M489.784,1386.314h-17.36a1.039,1.039,0,0,1-1.039-1.039v-2.446a1.039,1.039,0,0,1,1.039-1.039h17.359a1.039,1.039,0,0,1,1.039,1.039v2.446a1.039,1.039,0,0,1-1.039,1.039" transform="translate(142.386 -842.287)" fill="#0a6cc7"/>
    <path id="Path_829" data-name="Path 829" d="M731.917,1091.637h-55.6a1.828,1.828,0,0,1-1.828-1.828v-.937a1.828,1.828,0,0,1,1.828-1.828h55.6a1.828,1.828,0,0,1,1.828,1.828v.937a1.828,1.828,0,0,1-1.828,1.828" transform="translate(16.956 -660.262)" fill="#0a6cc7"/>
    <path id="Path_830" data-name="Path 830" d="M708.6,1115.2H673.07a1.473,1.473,0,0,1-1.473-1.473v-1.648a1.473,1.473,0,0,1,1.473-1.473H708.6a1.473,1.473,0,0,1,1.473,1.473v1.648a1.473,1.473,0,0,1-1.473,1.473" transform="translate(18.742 -674.812)" fill="#0a6cc7"/>
    <path id="Path_831" data-name="Path 831" d="M754.271,1141.53H718.744a1.473,1.473,0,0,1-1.473-1.473v-1.647a1.473,1.473,0,0,1,1.474-1.473h35.526a1.473,1.473,0,0,1,1.473,1.473v1.648a1.473,1.473,0,0,1-1.473,1.473" transform="translate(-9.465 -691.074)" fill="#0a6cc7"/>
    <path id="Path_832" data-name="Path 832" d="M812.034,1165.553H765.207a1.682,1.682,0,0,1-1.682-1.682v-1.229a1.682,1.682,0,0,1,1.682-1.683h46.826a1.683,1.683,0,0,1,1.683,1.683v1.228a1.683,1.683,0,0,1-1.683,1.683" transform="translate(-38.03 -705.909)" fill="#0a6cc7"/>
    <path id="Path_833" data-name="Path 833" d="M800.524,1189.575H763.3a1.507,1.507,0,0,1-1.507-1.507v-1.58a1.507,1.507,0,0,1,1.506-1.506h37.229a1.507,1.507,0,0,1,1.507,1.507v1.58a1.507,1.507,0,0,1-1.506,1.506" transform="translate(-36.958 -720.745)" fill="#0a6cc7"/>
    <path id="Path_834" data-name="Path 834" d="M757.058,1263.029h-40.53a1.569,1.569,0,0,1-1.57-1.569v-1.454a1.569,1.569,0,0,1,1.57-1.569h40.53a1.57,1.57,0,0,1,1.57,1.569v1.454a1.57,1.57,0,0,1-1.57,1.569" transform="translate(-8.037 -766.107)" fill="#0a6cc7"/>
    <path id="Path_835" data-name="Path 835" d="M844.933,1312.921h-33.72a1.437,1.437,0,0,1-1.436-1.436v-1.72a1.437,1.437,0,0,1,1.437-1.437h33.72a1.437,1.437,0,0,1,1.436,1.436v1.721a1.437,1.437,0,0,1-1.436,1.436" transform="translate(-66.593 -796.919)" fill="#0a6cc7"/>
    <path id="Path_836" data-name="Path 836" d="M892.355,1337.868H854.843a1.512,1.512,0,0,1-1.512-1.512v-1.569a1.512,1.512,0,0,1,1.512-1.512h37.512a1.512,1.512,0,0,1,1.512,1.512v1.569a1.512,1.512,0,0,1-1.512,1.512" transform="translate(-93.491 -812.325)" fill="#04427d"/>
    <path id="Path_837" data-name="Path 837" d="M847.259,1387.761H809.747a1.512,1.512,0,0,1-1.512-1.512v-1.569a1.512,1.512,0,0,1,1.512-1.512h37.512a1.512,1.512,0,0,1,1.512,1.512v1.569a1.512,1.512,0,0,1-1.512,1.512" transform="translate(-65.641 -843.137)" fill="#0a6cc7"/>
    <path id="Path_838" data-name="Path 838" d="M810.7,1437.654H766.509a1.636,1.636,0,0,1-1.636-1.636V1434.7a1.636,1.636,0,0,1,1.636-1.636H810.7a1.636,1.636,0,0,1,1.636,1.636v1.321a1.637,1.637,0,0,1-1.636,1.636" transform="translate(-38.862 -873.95)" fill="#0a6cc7"/>
    <path id="Path_839" data-name="Path 839" d="M952.928,1437.654H908.736a1.636,1.636,0,0,1-1.636-1.636V1434.7a1.636,1.636,0,0,1,1.636-1.636h44.192a1.636,1.636,0,0,1,1.636,1.636v1.321a1.636,1.636,0,0,1-1.636,1.636" transform="translate(-126.697 -873.95)" fill="#ff8727"/>
    <path id="Path_840" data-name="Path 840" d="M1106.682,1437.654h-55.529a1.827,1.827,0,0,1-1.827-1.827v-.939a1.827,1.827,0,0,1,1.827-1.827h55.529a1.827,1.827,0,0,1,1.827,1.827v.939a1.827,1.827,0,0,1-1.827,1.827" transform="translate(-214.53 -873.95)" fill="#04427d"/>
    <path id="Path_841" data-name="Path 841" d="M902.857,1362.815H854.178a1.714,1.714,0,0,1-1.714-1.714v-1.165a1.714,1.714,0,0,1,1.714-1.714h48.679a1.714,1.714,0,0,1,1.714,1.714v1.165a1.715,1.715,0,0,1-1.715,1.715" transform="translate(-92.955 -827.731)" fill="#0a6cc7"/>
    <path id="Path_842" data-name="Path 842" d="M1171.036,1362.815h-104.67a2.3,2.3,0,1,1,0-4.594h104.67a2.3,2.3,0,0,1,0,4.594" transform="translate(-223.635 -827.731)" fill="#0a6cc7"/>
    <path id="Path_843" data-name="Path 843" d="M1174.5,1337.868h-37.512a1.512,1.512,0,0,1-1.512-1.512v-1.569a1.512,1.512,0,0,1,1.512-1.512H1174.5a1.512,1.512,0,0,1,1.512,1.512v1.569a1.512,1.512,0,0,1-1.512,1.512" transform="translate(-267.73 -812.325)" fill="#04427d"/>
    <path id="Path_844" data-name="Path 844" d="M1031.988,1337.868H977.653a1.808,1.808,0,0,1-1.808-1.808v-.978a1.808,1.808,0,0,1,1.808-1.808h54.335a1.808,1.808,0,0,1,1.808,1.808v.978a1.808,1.808,0,0,1-1.808,1.808" transform="translate(-169.151 -812.325)" fill="#ff8727"/>
    <path id="Path_845" data-name="Path 845" d="M1094.7,1312.921h-33.72a1.437,1.437,0,0,1-1.437-1.437v-1.72a1.437,1.437,0,0,1,1.437-1.437h33.72a1.436,1.436,0,0,1,1.436,1.436v1.721a1.436,1.436,0,0,1-1.436,1.436" transform="translate(-220.838 -796.919)" fill="#0a6cc7"/>
    <path id="Path_846" data-name="Path 846" d="M966.023,1312.921H927.517a1.531,1.531,0,0,1-1.531-1.531v-1.531a1.531,1.531,0,0,1,1.531-1.531h38.506a1.531,1.531,0,0,1,1.531,1.531v1.531a1.531,1.531,0,0,1-1.531,1.531" transform="translate(-138.36 -796.919)" fill="#ff8727"/>
    <path id="Path_847" data-name="Path 847" d="M828.291,1287.975H764.325a1.956,1.956,0,0,1-1.957-1.957v-.68a1.957,1.957,0,0,1,1.957-1.957h63.966a1.957,1.957,0,0,1,1.957,1.957v.68a1.957,1.957,0,0,1-1.957,1.957" transform="translate(-37.315 -781.513)" fill="#0a6cc7"/>
    <path id="Path_848" data-name="Path 848" d="M980.026,1287.975H962.873a1.041,1.041,0,0,1-1.041-1.042v-2.51a1.041,1.041,0,0,1,1.041-1.042h17.153a1.042,1.042,0,0,1,1.042,1.042v2.51a1.042,1.042,0,0,1-1.042,1.042" transform="translate(-160.497 -781.513)" fill="#ff8727"/>
    <path id="Path_849" data-name="Path 849" d="M790.568,1412.708H766.482a1.223,1.223,0,0,1-1.223-1.223v-2.147a1.223,1.223,0,0,1,1.223-1.223h24.086a1.223,1.223,0,0,1,1.223,1.223v2.147a1.223,1.223,0,0,1-1.223,1.223" transform="translate(-39.101 -858.543)" fill="#0a6cc7"/>
    <path id="Path_850" data-name="Path 850" d="M837.8,1459.366H809.555a1.32,1.32,0,0,1-1.32-1.32v-1.954a1.32,1.32,0,0,1,1.32-1.319H837.8a1.32,1.32,0,0,1,1.32,1.32v1.953a1.32,1.32,0,0,1-1.32,1.32" transform="translate(-65.641 -887.358)" fill="#0a6cc7"/>
    <path id="Path_851" data-name="Path 851" d="M792.92,1484.313H766.16a1.286,1.286,0,0,1-1.287-1.286v-2.021a1.286,1.286,0,0,1,1.287-1.286H792.92a1.286,1.286,0,0,1,1.286,1.286v2.021a1.286,1.286,0,0,1-1.286,1.286" transform="translate(-38.862 -902.764)" fill="#0a6cc7"/>
    <path id="Path_852" data-name="Path 852" d="M789.644,1509.259H762.883a1.287,1.287,0,0,1-1.287-1.286v-2.02a1.287,1.287,0,0,1,1.287-1.286h26.761a1.286,1.286,0,0,1,1.286,1.286v2.02a1.286,1.286,0,0,1-1.286,1.286" transform="translate(-36.839 -918.17)" fill="#0a6cc7"/>
    <path id="Path_853" data-name="Path 853" d="M848.634,1533.744H809.773a1.538,1.538,0,0,1-1.538-1.538v-1.517a1.538,1.538,0,0,1,1.538-1.538h38.861a1.538,1.538,0,0,1,1.538,1.538v1.517a1.538,1.538,0,0,1-1.538,1.538" transform="translate(-65.641 -933.292)" fill="#0a6cc7"/>
    <path id="Path_854" data-name="Path 854" d="M914.65,1558.228H810.531a2.3,2.3,0,0,1-2.3-2.3h0a2.3,2.3,0,0,1,2.3-2.3H914.65a2.3,2.3,0,1,1,0,4.593" transform="translate(-65.641 -948.412)" fill="#0a6cc7"/>
    <path id="Path_855" data-name="Path 855" d="M942.193,1533.744h50.889a1.752,1.752,0,0,0,1.752-1.751v-1.09a1.752,1.752,0,0,0-1.752-1.752H942.193a1.752,1.752,0,0,0-1.752,1.752v1.09a1.752,1.752,0,0,0,1.752,1.751" transform="translate(-147.287 -933.292)" fill="#ff8727"/>
    <path id="Path_856" data-name="Path 856" d="M1153.008,1558.228h71.9a2.071,2.071,0,0,0,2.071-2.071v-.452a2.071,2.071,0,0,0-2.071-2.071h-71.9a2.071,2.071,0,0,0-2.071,2.071v.452a2.071,2.071,0,0,0,2.071,2.071" transform="translate(-277.282 -948.412)" fill="#0a6cc7"/>
    <path id="Path_857" data-name="Path 857" d="M1101.915,1533.744h28.524a1.326,1.326,0,0,0,1.326-1.326v-1.942a1.326,1.326,0,0,0-1.326-1.326h-28.524a1.326,1.326,0,0,0-1.326,1.326v1.941a1.326,1.326,0,0,0,1.326,1.326" transform="translate(-246.188 -933.292)" fill="#0a6cc7"/>
    <path id="Path_858" data-name="Path 858" d="M908.438,1509.259H862.893a1.66,1.66,0,0,1-1.66-1.66v-1.273a1.66,1.66,0,0,1,1.66-1.66h45.544a1.661,1.661,0,0,1,1.661,1.661v1.273a1.66,1.66,0,0,1-1.66,1.66" transform="translate(-98.371 -918.17)" fill="#ff8727"/>
    <path id="Path_859" data-name="Path 859" d="M1039.88,1509.259h-33.826a1.439,1.439,0,0,1-1.439-1.439V1506.1a1.439,1.439,0,0,1,1.439-1.439h33.826a1.439,1.439,0,0,1,1.439,1.439v1.716a1.438,1.438,0,0,1-1.439,1.439" transform="translate(-186.918 -918.17)" fill="#04427d"/>
    <path id="Path_860" data-name="Path 860" d="M1144.662,1509.259h-15.239a.985.985,0,0,1-.985-.985v-2.623a.985.985,0,0,1,.985-.985h15.239a.985.985,0,0,1,.985.985v2.623a.985.985,0,0,1-.985.985" transform="translate(-263.387 -918.17)" fill="#ff8727"/>
    <path id="Path_861" data-name="Path 861" d="M1073.52,1459.366H909.974a2.355,2.355,0,1,1,0-4.594H1073.52a2.355,2.355,0,1,1,0,4.594" transform="translate(-126.697 -887.358)" fill="#0a6cc7"/>
    <path id="Path_862" data-name="Path 862" d="M1187.451,1312.921h-13.1a2.075,2.075,0,0,1-2.075-2.075v-.443a2.076,2.076,0,0,1,2.075-2.075h13.1a2.076,2.076,0,0,1,2.075,2.075v.443a2.075,2.075,0,0,1-2.075,2.075" transform="translate(-290.462 -796.919)" fill="#ff8727"/>
    <path id="Path_863" data-name="Path 863" d="M1019.208,1362.815h-13.1a2.076,2.076,0,0,1-2.075-2.076v-.443a2.076,2.076,0,0,1,2.075-2.075h13.1a2.075,2.075,0,0,1,2.075,2.075v.443a2.076,2.076,0,0,1-2.076,2.076" transform="translate(-186.561 -827.731)" fill="#0a6cc7"/>
    <path id="Path_864" data-name="Path 864" d="M1275.974,1337.868H1263.72a2.017,2.017,0,0,1-2.017-2.017v-.56a2.017,2.017,0,0,1,2.017-2.016h12.255a2.017,2.017,0,0,1,2.017,2.016v.56a2.017,2.017,0,0,1-2.017,2.017" transform="translate(-345.687 -812.325)" fill="#ff8727"/>
    <path id="Path_865" data-name="Path 865" d="M955.765,1263.029H860.639a2.3,2.3,0,0,1-2.3-2.3h0a2.3,2.3,0,0,1,2.3-2.3h95.126a2.3,2.3,0,1,1,0,4.593" transform="translate(-96.585 -766.107)" fill="#0a6cc7"/>
    <path id="Path_866" data-name="Path 866" d="M742.646,1239.93H716.237a1.278,1.278,0,0,1-1.278-1.278v-2.038a1.278,1.278,0,0,1,1.278-1.278h26.409a1.278,1.278,0,0,1,1.278,1.278v2.037a1.278,1.278,0,0,1-1.278,1.278" transform="translate(-8.037 -751.842)" fill="#0a6cc7"/>
    <path id="Path_867" data-name="Path 867" d="M1190.624,1189.575h-16.735a1.029,1.029,0,0,1-1.029-1.03v-2.534a1.029,1.029,0,0,1,1.03-1.029h16.735a1.03,1.03,0,0,1,1.03,1.029v2.534a1.03,1.03,0,0,1-1.03,1.03" transform="translate(-290.82 -720.745)" fill="#0a6cc7"/>
    <path id="Path_868" data-name="Path 868" d="M1317.24,1115.2H1300.5a1.029,1.029,0,0,1-1.029-1.029v-2.534a1.03,1.03,0,0,1,1.03-1.03h16.735a1.029,1.029,0,0,1,1.03,1.03v2.534a1.029,1.029,0,0,1-1.03,1.029" transform="translate(-369.013 -674.812)" fill="#ff8727"/>
    <path id="Path_869" data-name="Path 869" d="M1276.21,1189.575h-42.769a1.611,1.611,0,0,1-1.611-1.611v-1.372a1.611,1.611,0,0,1,1.61-1.61h42.77a1.61,1.61,0,0,1,1.611,1.61v1.373a1.61,1.61,0,0,1-1.611,1.61" transform="translate(-327.238 -720.745)" fill="#ff8727"/>
    <path id="Path_870" data-name="Path 870" d="M991.083,1189.575H897.063a2.3,2.3,0,0,1,0-4.593h94.021a2.3,2.3,0,0,1,0,4.593" transform="translate(-119.08 -720.745)" fill="#ff8727"/>
    <path id="Path_871" data-name="Path 871" d="M864.213,1213.6H764.665a2.3,2.3,0,1,1,0-4.594h99.548a2.3,2.3,0,1,1,0,4.594" transform="translate(-37.315 -735.58)" fill="#0a6cc7"/>
    <path id="Path_872" data-name="Path 872" d="M950.194,1165.553H917a1.426,1.426,0,0,1-1.426-1.426v-1.742a1.426,1.426,0,0,1,1.426-1.426h33.189a1.426,1.426,0,0,1,1.426,1.426v1.742a1.426,1.426,0,0,1-1.426,1.426" transform="translate(-131.933 -705.909)" fill="#ff8727"/>
    <path id="Path_873" data-name="Path 873" d="M922.456,1115.2H812.073a2.3,2.3,0,0,1-2.3-2.3h0a2.3,2.3,0,0,1,2.3-2.3H922.456a2.3,2.3,0,0,1,0,4.593" transform="translate(-66.593 -674.812)" fill="#ff8727"/>
    <path id="Path_874" data-name="Path 874" d="M1174.88,1115.2H1140.2a1.456,1.456,0,0,1-1.456-1.456v-1.681a1.456,1.456,0,0,1,1.456-1.456h34.676a1.456,1.456,0,0,1,1.456,1.456v1.682a1.456,1.456,0,0,1-1.456,1.456" transform="translate(-269.754 -674.812)" fill="#0a6cc7"/>
    <path id="Path_875" data-name="Path 875" d="M284.637,1361.549s-4.187-2.194-7.355,6.318-3.3,21.79-2.144,26.316c0,0-9.23,10.034-1.656,16.62,0,0,10.442,11.082,11.136,13.932.267-.667,4.72-8.781,11.963-9.217s25.055-19.324,15.527-22.286c0,0,.717,3.063-2.534,2.32s-1.228-12.028-1.27-16.021-2.447-13.838-9.384-18.028-14.913-3.915-14.283.046" transform="translate(266.447 -827.884)" fill="#47333c"/>
    <path id="Path_876" data-name="Path 876" d="M316.522,1434.285a61.852,61.852,0,0,0,2.5,6.38s1,2.6-1.937,9.931-10.361,3.24-11.549,1.237-3.811-5.833-1.417-9.645c0,0,3.278-2.379,1.565-7.55,0,0,10.314-2.08,10.834-.353" transform="translate(246.283 -874.282)" fill="#ec9f72"/>
    <path id="Path_877" data-name="Path 877" d="M299.594,1395.063s5.037,5.422,9.265,4.729c4.563-.747,8.107-6.109,9.2-10.039s-.714-11.826-3.429-14.641-12.78-4.681-15.6-1.029-4.721,16.766.561,20.98" transform="translate(250.539 -836.276)" fill="#f8b58e"/>
    <path id="Path_878" data-name="Path 878" d="M261.633,1623.275s-12.027,7.156-12.689,10.76l13.256-4.685Z" transform="translate(279.757 -991.419)" fill="#175699"/>
    <path id="Path_879" data-name="Path 879" d="M287.322,1450.976s9.337,4.128,13.86-.58c0,0,19.639,22.489,8.528,74.413,0,0-36.291-.751-37.031-.621s1.573-11.259,5.939-14.419c4.337-3.138,29.394-17.707,8.606-57.964-.141-.273-.12-.432.1-.83" transform="translate(265.184 -884.655)" fill="#fff"/>
    <path id="Path_880" data-name="Path 880" d="M272.638,1451.61a37.613,37.613,0,0,0-8.1,2c-3.438,2.188-7.753,6.075-6.405,11.281,2.161,8.347,5.634,27.783,2.093,35.749-2.739,6.162-6.06,10.6-11.014,18.929h10.837c8.608-7.087,17.11-15.292,22.5-26.444,10.722-22.182-9.914-41.516-9.914-41.516" transform="translate(279.59 -885.405)" fill="#ff8727"/>
    <path id="Path_881" data-name="Path 881" d="M271.93,1456.384c-3.438,2.188-7.753,6.074-6.405,11.281,2.161,8.347,5.634,27.783,2.093,35.749a89.588,89.588,0,0,1-6.439,11.488c4.353-3.619,13.328-12.355,16.575-21.723,0,0-14.421-22.642-5.019-37.078q-.4.135-.805.283" transform="translate(272.201 -888.178)" fill="#d6670d"/>
    <path id="Path_882" data-name="Path 882" d="M308.784,1451.554l8.282,6.727,1.321-4.791-6.642-1.837Z" transform="translate(242.802 -885.37)" fill="#d6670d"/>
    <path id="Path_883" data-name="Path 883" d="M339.582,1450.4l-4.86,2.188,4.594,5.191s2.229-5.31.266-7.378" transform="translate(226.784 -884.655)" fill="#d6670d"/>
    <path id="Path_884" data-name="Path 884" d="M356.181,1516.368c-.165.868-.3,1.7-.382,2.451h7.257c-.849-5.785-2.656-13.3-3.138-15.264,2.357-13.607,3.93-23.168,2.549-37.324,0,0-.786-5.517-2.051-10.484-.364-1.428-1.163-3.482-2.615-3.941-3.207-1.015-6.865-.9-10.371-1.41,0,0,9.417,37.444,8.751,65.972" transform="translate(218.936 -884.655)" fill="#ff8727"/>
    <path id="Path_885" data-name="Path 885" d="M378.788,1498.377c-2.344,7.228-5.284,14.082-5.284,14.082,1.327,1.126,2.978,4.017,4.623,7.464a100.858,100.858,0,0,0,.661-21.546" transform="translate(202.833 -914.286)" fill="#d6670d"/>
    <path id="Path_886" data-name="Path 886" d="M334.764,1579.656s-9.631,4.592-10.76,4.2c-2.952-1.034-2.975-5.377-2.309-7.2,0,0,.929-.834,1.59-.237s2.937.666,2.321-.459c-.271-.5-.872-.658-.908-1.135-.054-.713.165-1.369.835-1.358a2.754,2.754,0,0,1,.338.029c1.416.206,2.067.976,3.545,2.292s3.926-.856,3.926-.856Z" transform="translate(235.048 -960.654)" fill="#f9ae81"/>
    <path id="Path_887" data-name="Path 887" d="M345.646,1510.077c-1.74.339-2.674-8.022-2.674-8.022s18.726-7.336,19.828-10.42-11.567-23.328-11.963-25.012c-.273-1.161-2.1-5.118.556-8.508a4.877,4.877,0,0,1,6.623-1.163,17.409,17.409,0,0,1,3.952,3.549c6.735,8.427,16.213,34.27,13.92,36.352-2.622,2.381-18.552,8.651-18.552,8.651s-9.59,4.166-11.69,4.574" transform="translate(221.689 -888.197)" fill="#ff8727"/>
    <path id="Path_888" data-name="Path 888" d="M304.52,1584.1s9.631,4.593,10.76,4.2c2.952-1.033,2.975-5.377,2.309-7.205,0,0-.929-.834-1.59-.237s-2.937.666-2.321-.459c.271-.5.872-.657.908-1.135.054-.713-.164-1.369-.836-1.358a2.666,2.666,0,0,0-.338.029c-1.416.206-2.067.976-3.545,2.292s-3.926-.857-3.926-.857Z" transform="translate(245.436 -963.399)" fill="#f9ae81"/>
    <path id="Path_889" data-name="Path 889" d="M261.6,1514.521c1.74.339,2.674-8.022,2.674-8.022s-18.726-7.336-19.828-10.42,11.568-23.328,11.963-25.012c.273-1.161,2.1-5.118-.556-8.508a4.877,4.877,0,0,0-6.622-1.163,17.391,17.391,0,0,0-3.952,3.548c-6.736,8.427-16.213,34.27-13.921,36.352,2.622,2.381,18.552,8.65,18.552,8.65s9.59,4.166,11.69,4.574" transform="translate(290.837 -890.941)" fill="#ff8727"/>
    <path id="Path_890" data-name="Path 890" d="M265.633,1656.143s-.663,4.308,4.5,5.686,8.845,2.293,9.755-.5,1.722-4.413,0-4.819-14.257-.371-14.257-.371" transform="translate(269.468 -1011.717)" fill="#0a6cc7"/>
    <path id="Path_891" data-name="Path 891" d="M334.508,1608.618s29.281-19.5,36.422-19.5,16.577,5.806,13.517,12.931-20.913,12.775-29.584,14.469-19.8-5.345-20.355-7.9" transform="translate(226.916 -970.324)" fill="#04427d"/>
    <path id="Path_892" data-name="Path 892" d="M381.619,1589.3c3.5,2.375,5.682,5.937,3.975,9.91-3.061,7.125-20.913,12.774-29.584,14.469a17.192,17.192,0,0,1-6.449-.1c4.109,2.21,9.739,4,14.6,3.053,8.671-1.694,26.523-7.344,29.584-14.469,2.865-6.67-5.222-12.184-12.125-12.86" transform="translate(217.619 -970.438)" fill="#023363"/>
    <path id="Path_893" data-name="Path 893" d="M255.676,1605.538s-30.859-20.9-37.745-23.445-16.067,2.26-15.047,9.039,8.671,12.711,18.107,16.948,31.624,5.084,31.624,5.084Z" transform="translate(308.251 -965.56)" fill="#04427d"/>
    <path id="Path_894" data-name="Path 894" d="M217.931,1582.093c-6.886-2.542-16.067,2.26-15.047,9.039.014.094.034.188.051.281a12.81,12.81,0,0,1,11.935-2.006c6.886,2.542,37.745,23.446,37.745,23.446l-.123.307.123.005,3.061-7.627s-30.859-20.9-37.745-23.445" transform="translate(308.251 -965.56)" fill="#023363"/>
    <path id="Path_895" data-name="Path 895" d="M355.8,1657.635s3.309,4.367,8.155,2.107,9.567-5.05,6.314-6.9-11.414.265-11.414.265a9.421,9.421,0,0,0-3.054,4.531" transform="translate(213.764 -1009.207)" fill="#0a6cc7"/>
    <path id="Path_896" data-name="Path 896" d="M333.049,1652.14s7.229,1.614,10,2.083c0,0,4.03-4.839,2.064-5.917-1.644-.9-9.006-3.793-9.006-3.793Z" transform="translate(227.817 -1004.535)" fill="#f8b58e"/>
    <path id="Path_897" data-name="Path 897" d="M317.77,1567.316H270.245l-3.007-29.666a2.257,2.257,0,0,1,2.229-2.451H318.7a2.256,2.256,0,0,1,2.232,2.412Z" transform="translate(268.464 -937.026)" fill="#c7d3e2"/>
    <g id="Group_1293" data-name="Group 1293" transform="translate(578.011 605)" opacity="0.67">
      <g id="Group_1292" data-name="Group 1292" transform="translate(0 0)">
        <g id="Group_1291" data-name="Group 1291" clip-path="url(#clip-path-3)">
          <path id="Path_898" data-name="Path 898" d="M382.119,1561.073h-3.792a.447.447,0,0,1-.446-.446V1553.5a.447.447,0,0,1,.446-.446h3.793a.447.447,0,0,1,.446.446v7.129a.447.447,0,0,1-.446.446" transform="translate(-377.881 -1553.052)" fill="#dae1e9"/>
        </g>
      </g>
    </g>
    <path id="Path_899" data-name="Path 899" d="M320.509,1621.554H270.784a.879.879,0,0,1-.877-.877v-1.994a.879.879,0,0,1,.877-.877h49.725a.879.879,0,0,1,.877.877v1.994a.879.879,0,0,1-.877.877" transform="translate(266.811 -988.042)" fill="#b3c1d2"/>
    <path id="Path_900" data-name="Path 900" d="M269.907,1618.994v1.376a1.189,1.189,0,0,0,1.186,1.186h19.772a1.27,1.27,0,0,0,.365-.89V1618.7a1.27,1.27,0,0,0-.365-.89H271.093a1.189,1.189,0,0,0-1.186,1.186" transform="translate(266.811 -988.043)" fill="#95a9bb"/>
    <path id="Path_901" data-name="Path 901" d="M303.65,1537.632l-31.5-.347c-1.223,0-1.717.477-1.62,1.687l2.821,28.555,2.657-.049c-.048-8.393,3.227-25.041,27.646-29.847" transform="translate(266.437 -938.315)" fill="#a2b2cb"/>
    <path id="Path_902" data-name="Path 902" d="M281.206,1405.89s-4.034,1.568-6.335-1.582,1.544-5.033,1.544-5.033-2.5,3.177,1.155,3.583,3.66-5.777,2.371-9.193c-3.725-9.863-1.593-16.339.112-19.866a21.192,21.192,0,0,1,4.749-6.106l2.083-1.17,1.454,3.582a44.413,44.413,0,0,0-3.942,7.781c-1.322,3.734-1.878,8.535,1.253,14.731s3.925,12.279-4.445,13.272" transform="translate(264.199 -832.858)" fill="#47333c"/>
    <path id="Path_903" data-name="Path 903" d="M294.015,1369.695l-1.454-3.582s-4.187-2.195-7.355,6.318a35.818,35.818,0,0,0-1.878,9.967c1.443,5.3,5.51,11.413,7.729,16.605,2.8,6.553-5.729,4.785-5.729,4.785s2.85,4.858,7.114,1.13c4.688-4.1.576-10.891-1.224-14.445s-1.514-10.281.2-14.1a66.563,66.563,0,0,0,2.6-6.678" transform="translate(258.523 -832.448)" fill="#47333c"/>
    <path id="Path_904" data-name="Path 904" d="M308.868,1365.131s9.537-2.531,14.355,9.139-2.049,17.026-.831,20.624,4.467,4.121,7.25.429c0,0-3.425,2.224-3.941-.3s5.174-6.2,4.634-15.818a42.534,42.534,0,0,0-1.371-8.64,19.066,19.066,0,0,0-7.267-9.065c-6.937-4.189-14.913-3.915-14.283.046Z" transform="translate(243.67 -827.884)" fill="#47333c"/>
    <path id="Path_905" data-name="Path 905" d="M1650.568,1712.912l-.375,5.337s-5.661,1.877-6.621.9a13.488,13.488,0,0,1-1.919-3.4v-3.465Z" transform="translate(-580.33 -1046.389)" fill="#feb48c"/>
    <path id="Path_906" data-name="Path 906" d="M1622.127,1721.707a.631.631,0,0,1,.674.635v8.133s.96.98-4.8.98-21.127,0-22.087-.98,0-1.96,4.8-3.92,10.083-5.39,12-7.35c0,0,3.841,0,2.881,2.94,0,0,.89,0,6.528-.437" transform="translate(-551.876 -1050.661)" fill="#0a6cc7"/>
    <path id="Path_907" data-name="Path 907" d="M1749.213,1691.256l1.836,5.012s-4.382,4.112-5.654,3.629a13.152,13.152,0,0,1-3.131-2.272l-1.85-2.982Z" transform="translate(-641.322 -1033.402)" fill="#feb48c"/>
    <path id="Path_908" data-name="Path 908" d="M1734.522,1701.865a.621.621,0,0,1,.872.291l3.317,7.4s1.273.483-3.966,2.931-19.21,8.974-20.483,8.491-.8-1.782,2.767-5.6,6.97-9.184,7.917-11.782c0,0,3.492-1.631,3.819,1.449,0,0,.809-.378,5.757-3.17" transform="translate(-624.775 -1039.904)" fill="#0a6cc7"/>
    <path id="Path_909" data-name="Path 909" d="M1668.486,1535.531s12.019,30.162,26.794,46.317l11.257-4.667s-17.958-36.624-22.179-43.8c0,0-1.6-21.9-3.853-29.618,0,0-15.07,24.693-12.019,31.767" transform="translate(-596.65 -917.613)" fill="#023363"/>
    <path id="Path_910" data-name="Path 910" d="M1651.808,1508.927l-28,.541s-4.016,29.257-1.2,38.95,5.629,40.927,5.629,40.927H1639.5s-.352-30.874-.7-48.466c0,0,10.905-23.335,13.016-31.951" transform="translate(-567.952 -920.802)" fill="#04427d"/>
    <path id="Path_911" data-name="Path 911" d="M1661.639,1331.106l-.879-4.816-10.648-.65-1.192,5.982s4.829,7.864,12.719-.516" transform="translate(-584.818 -807.61)" fill="#ec9f72"/>
    <path id="Path_912" data-name="Path 912" d="M1528.932,1372.77a30.769,30.769,0,0,0-6.363-1.979c-3.364-.615-9.385,1.513-5.654-4.29,3.76-5.849,6.909-3.316,8.325-2.347,2.133,1.458-.117,1.385,2.406,1.846a14.071,14.071,0,0,1,5.157,2.576Z" transform="translate(-502.569 -830.541)" fill="#feb48c"/>
    <path id="Path_913" data-name="Path 913" d="M1573.217,1343.611c-3.423,3.3-10.108,10.143-11.325,14.387,0,0-9.428-4.2-15.255-5.145,0,0-4.675,6.177-4.669,8.4,0,0,17.5,8.714,22.49,5.877s13.064-9.258,14.416-13.651c.821-2.669,1.476-6.261.544-8.776-.867-2.339-4.323-2.9-6.2-1.088" transform="translate(-518.768 -818.046)" fill="#ff8727"/>
    <path id="Path_914" data-name="Path 914" d="M1578.869,1364.856c-1.351,4.393-9.429,10.814-14.415,13.651-4.573,2.6-19.667-4.508-22.138-5.7a4.1,4.1,0,0,0-.349,1.391s17.5,8.714,22.491,5.877,13.064-9.258,14.415-13.651a7.4,7.4,0,0,0,.253-2.921,6.881,6.881,0,0,1-.257,1.358" transform="translate(-518.768 -830.99)" fill="#3368b5"/>
    <path id="Path_915" data-name="Path 915" d="M1642.85,1337.125s-8.7,4-12.92-.562c0,0-19.39,17.228-9.032,67.542,0,0,29.6-.522,30.294-.4s-2.337-3.615-3.567-8.85c-3.923-16.688-15.806-16.814-4.683-56.93a.855.855,0,0,0-.091-.8" transform="translate(-565.632 -814.356)" fill="#f5f8fe"/>
    <path id="Path_916" data-name="Path 916" d="M1666.748,1337.739s.084.01.244.031c.446.063.886.145,1.319.242,2.527.872,9.222,3.885,10.251,11.577,1.272,9.513-6.295,28.3-4.789,36.711.9,5.053,2.478,14.945,4.1,22.335-8.6.95-12.41-2.747-14.137-3.263-2.384-4.64-3.235-14.14-5.523-22.46-.441-1.135-.439-5.185-.769-6.4-5.759-21.16,9.305-38.775,9.305-38.775" transform="translate(-589.271 -815.082)" fill="#ff8727"/>
    <path id="Path_917" data-name="Path 917" d="M1668.246,1389.97s.407,9.424-6.115,11.545c0,0,7.119,4.406,9.634.32s-3.519-11.865-3.519-11.865" transform="translate(-592.977 -847.338)" fill="#d6670d"/>
    <path id="Path_918" data-name="Path 918" d="M1689.516,1352.632c0,.452-.006.916-.028,1.395-.009.188-.016.375-.029.567-.039.6-.092,1.222-.163,1.859-.006.051-.008.1-.015.151-.085.736-.191,1.493-.311,2.265-.014.092-.031.186-.046.278q-.17,1.061-.372,2.156c-.014.075-.028.149-.042.224-1.014,5.39-2.529,11.262-3.41,16.37l-.012.067c-.1.6-.2,1.183-.279,1.756h0a24.468,24.468,0,0,0-.215,7.366c.906,5.052,2.479,14.944,4.1,22.334-8.6.95-12.41-2.747-14.137-3.262a10.376,10.376,0,0,1-.9-3.8c14.165,9.1,13.408,3.062,10.964-3.229-1.86-4.788-1.311-15.032-.917-19.888.142-7.3,1.315-16.384,2.357-24.538a21.53,21.53,0,0,0,.175-3.123,16.05,16.05,0,0,0-6.526-12.574l.01,0,.093.038.176.071c.094.038.184.072.283.115l.03.013.029.013c.187.08.379.165.581.26.076.036.158.079.237.117.152.074.3.148.464.231.094.049.191.1.287.157l.155.086c.093.052.184.1.279.156l.019.01c.1.059.2.124.3.186.154.094.308.188.464.29.108.071.216.147.325.221l.076.054.036.025c.112.078.226.156.339.24s.225.172.338.259l.056.046c.128.1.256.2.383.308s.224.193.335.292c.063.055.124.114.186.171s.149.136.223.206l.018.018q.165.159.327.326c.139.143.276.29.41.441q.158.176.312.36c.061.073.118.152.178.227s.139.172.206.262c.1.13.2.26.291.4.122.175.239.359.354.543.088.14.177.279.261.424.03.053.056.11.086.163.042.082.086.163.129.245s.071.132.105.2c.075.15.153.3.224.451.1.221.189.455.279.688.06.154.125.3.179.462.091.266.166.546.242.826.038.14.084.273.118.418.1.432.187.879.249,1.345a16.823,16.823,0,0,1,.126,1.718c.006.176,0,.36.005.541" transform="translate(-600.094 -815.866)" fill="#d6670d"/>
    <path id="Path_919" data-name="Path 919" d="M1671.01,1337.947l-7.73,6.411-1.232-4.643,6.192-1.78Z" transform="translate(-592.926 -815.203)" fill="#d6670d"/>
    <path id="Path_920" data-name="Path 920" d="M1648.214,1336.563l4.53,2.12-4.282,5.03s-2.078-5.145-.248-7.15" transform="translate(-583.917 -814.356)" fill="#d6670d"/>
    <path id="Path_921" data-name="Path 921" d="M1614.634,1352.2s.4-3.544.945-8.32c.159-1.39,1.516-4.68,3.641-5.578,2.891-1.223,4.471-1.25,7.74-1.737,0,0-8.779,35.63-8.158,62.775a24.4,24.4,0,0,0,.266,5.467s-.9-1.094-4.9.971c-2.761,1.422.352-15.3,1.154-18.63-2.2-12.947-1.971-21.478-.685-34.947" transform="translate(-562.663 -814.356)" fill="#ff8727"/>
    <g id="Group_1296" data-name="Group 1296" transform="translate(903.33 443.596)" opacity="0.23">
      <g id="Group_1295" data-name="Group 1295" transform="translate(0 0)">
        <g id="Group_1294" data-name="Group 1294" clip-path="url(#clip-path-4)">
          <path id="Path_922" data-name="Path 922" d="M1248.322,1208.578a41.949,41.949,0,1,0-13.449-57.78,41.948,41.948,0,0,0,13.449,57.78" transform="translate(-1228.532 -1131.01)" fill="#f3f3f3"/>
        </g>
      </g>
    </g>
    <g id="Group_1299" data-name="Group 1299" transform="translate(903.341 467.884)" opacity="0.47">
      <g id="Group_1298" data-name="Group 1298" transform="translate(0 0)">
        <g id="Group_1297" data-name="Group 1297" clip-path="url(#clip-path-5)">
          <path id="Path_923" data-name="Path 923" d="M1232.466,1194.518a41.948,41.948,0,0,0,77.453,25.178,42.387,42.387,0,0,0,2.424-4.5,41.945,41.945,0,1,1-79.878-20.679" transform="translate(-1228.56 -1194.518)" fill="#f3f3f3"/>
        </g>
      </g>
    </g>
    <path id="Path_924" data-name="Path 924" d="M1237.3,1204.638a47.092,47.092,0,1,0-15.1-64.865,47.092,47.092,0,0,0,15.1,64.865m4.159-6.683a39.221,39.221,0,1,1,54.022-12.574,39.221,39.221,0,0,1-54.022,12.574" transform="translate(-316.896 -679.106)" fill="#2c2e3a"/>
    <g id="Group_1302" data-name="Group 1302" transform="translate(966.317 481.976)" opacity="0.47">
      <g id="Group_1301" data-name="Group 1301" transform="translate(0 0)">
        <g id="Group_1300" data-name="Group 1300" clip-path="url(#clip-path-6)">
          <path id="Path_925" data-name="Path 925" d="M1404.946,1244.262c4.456-2.867,6.611-7.455,4.816-10.246s-7.173-4.663-10.64,1.194c-2.574,4.349-7.291,6.4-5.5,9.189s6.865,2.729,11.32-.138" transform="translate(-1393.229 -1231.366)" fill="#f3f3f3"/>
        </g>
      </g>
    </g>
    <rect id="Rectangle_218" data-name="Rectangle 218" width="10.48" height="48.296" transform="matrix(0.528, -0.849, 0.849, 0.528, 979.168, 514.692)" fill="#2c2e3a"/>
    <path id="Path_926" data-name="Path 926" d="M1531.17,1362.187l3.375-5.423a7.548,7.548,0,0,1,10.4-2.42l52.99,32.98a7.547,7.547,0,0,1,2.42,10.4l-3.375,5.422a7.549,7.549,0,0,1-10.4,2.42l-52.99-32.98a7.548,7.548,0,0,1-2.42-10.4" transform="translate(-511.395 -824.633)" fill="#b6d3ee"/>
    <path id="Path_927" data-name="Path 927" d="M1631.678,1449.636a18.271,18.271,0,0,0-3.7,2.829c-1.589,1.648-3.08,4.144-6.845.024-3.795-4.153-1.682-5.333-.237-4.81s3.414,1.514,4.606.278a10.212,10.212,0,0,1,3.828-1.95Z" transform="translate(-566.334 -881.944)" fill="#feb48c"/>
    <path id="Path_928" data-name="Path 928" d="M1643.495,1389.292s3.712-2.706,7.493-5.222a45.406,45.406,0,0,1,6.96-4.075s-2.2-12.531-.687-17.521,12.047-12.5,11.253-3.7-.237,23.038-4.618,27.583-11.252,3.7-17.319,8.853Z" transform="translate(-581.468 -825.565)" fill="#ff8727"/>
    <path id="Path_929" data-name="Path 929" d="M1667.789,1386.366c4.381-4.546,3.824-18.781,4.618-27.583.3-3.364-1.048-4.34-2.917-3.991.006.033.018.06.024.094,1.2,7.039,2.8,25.419-4.582,28.851-5,2.326-11.474,7.255-15.132,10.194l.67,1.287c6.067-5.155,12.939-4.307,17.319-8.853" transform="translate(-585.362 -825.573)" fill="#d6670d"/>
    <path id="Path_930" data-name="Path 930" d="M1639.76,1288.19s.406,5.434.406,8.168-.765,8.66,4.7,9.571,8.588-1.777,10.6-2.941c0,0,6.567-5.719,5.656-7.541s-1.822-7.29-7.29-7.29-14.073.033-14.073.033" transform="translate(-579.161 -784.462)" fill="#feb48c"/>
    <path id="Path_931" data-name="Path 931" d="M1647.764,1284.686s7.289-5.467,9.111-9.112,1.823-6.378,0-8.2c0,0,1.823-1.823,2.734-1.823,0,0-2.734,0-3.644.911,0,0,.911-2.734,0-3.645a4.5,4.5,0,0,1-.912,2.734s-2.733-8.2-8.2-7.289-14.578,5.467-16.4,4.556a3.99,3.99,0,0,0,2.733.911,19.858,19.858,0,0,1-5.467.911s.911,4.556,8.2,6.378a34.435,34.435,0,0,0,12.756.911s-1.823,6.378-.911,9.112c0,0,1.822-3.645,3.644-3.645s0,2.733-.911,3.645-3.645,3.645-2.733,3.645" transform="translate(-571.725 -765.956)" fill="#47333c"/>
    <rect id="Rectangle_219" data-name="Rectangle 219" width="59.082" height="43.797" transform="translate(518.795 429.728)" fill="#3885c6"/>
    <rect id="Rectangle_220" data-name="Rectangle 220" width="57.721" height="41.922" transform="translate(518.796 429.728)" fill="#b6d3ee"/>
    <path id="Path_932" data-name="Path 932" d="M247.473,1140.737l13.153-6.382v2.5l-10.433,4.856v.056l10.433,4.884v2.47l-13.153-6.382Z" transform="translate(280.666 -689.479)" fill="#0a6cc7"/>
    <path id="Path_933" data-name="Path 933" d="M286.859,1143.371l6.771-20.117h2.386l-6.771,20.117Z" transform="translate(256.342 -682.624)" fill="#0a6cc7"/>
    <path id="Path_934" data-name="Path 934" d="M328.3,1142.791l-13.153,6.326v-2.47l10.6-4.884v-.056l-10.6-4.884v-2.469l13.153,6.326Z" transform="translate(238.872 -689.48)" fill="#0a6cc7"/>
    <path id="Path_935" data-name="Path 935" d="M410.971,942.42h-65.54a4.437,4.437,0,0,1-4.437-4.437v-48.75a4.437,4.437,0,0,1,4.437-4.437h65.54a4.438,4.438,0,0,1,4.437,4.438v48.75a4.437,4.437,0,0,1-4.437,4.437" transform="translate(222.911 -535.36)" fill="#04427d"/>
    <path id="Path_936" data-name="Path 936" d="M408.2,939.6H345.233a4.241,4.241,0,0,1-4.24-4.24V889.035a4.24,4.24,0,0,1,4.24-4.24H408.2a4.24,4.24,0,0,1,4.24,4.24v46.326a4.24,4.24,0,0,1-4.24,4.24" transform="translate(222.911 -535.36)" fill="#b6d3ee"/>
    <path id="Path_937" data-name="Path 937" d="M390.633,933.526,384,943.6l-13.778-21.018-29,37.151a4.332,4.332,0,0,0,4.506,3.572h62.258c2.536,0,4.592-1.765,4.592-3.941v-5.512Z" transform="translate(222.772 -558.694)" fill="#0a6cc7"/>
    <path id="Path_938" data-name="Path 938" d="M480.664,911.315a4.63,4.63,0,1,1-4.628-4.765,4.7,4.7,0,0,1,4.628,4.765" transform="translate(142.372 -548.795)" fill="#3885c6"/>
    <path id="Path_995" data-name="Path 995" d="M1518.463,1033.4h-54.209a3.628,3.628,0,0,0-3.627,3.627V1074.9a3.628,3.628,0,0,0,3.627,3.627h54.209a3.628,3.628,0,0,0,3.627-3.627v-37.873a3.628,3.628,0,0,0-3.627-3.627" transform="translate(-470.535 -625.132)" fill="#3885c6"/>
    <path id="Path_939" data-name="Path 939" d="M1518.463,1033.4h-54.209a3.628,3.628,0,0,0-3.627,3.627V1074.9a3.628,3.628,0,0,0,3.627,3.627h54.209a3.628,3.628,0,0,0,3.627-3.627v-37.873a3.628,3.628,0,0,0-3.627-3.627" transform="translate(-468.535 -627.132)" fill="#b6d3ee"/>
    <path id="Path_940" data-name="Path 940" d="M1508.093,1069.674c2.349-.034,2.618-1.308,2.618-2.382a24.59,24.59,0,0,0-.2-2.684,19.47,19.47,0,0,1-.235-2.718c0-3.154,2.014-4.5,5-4.5h.973v2.416h-.6c-1.744,0-2.349.973-2.349,2.617a12.026,12.026,0,0,0,.235,2.114c.067.738.2,1.543.2,2.416.034,2.349-.973,3.356-2.684,3.758v.067c1.712.4,2.718,1.442,2.684,3.792,0,.906-.134,1.711-.2,2.449a12.012,12.012,0,0,0-.235,2.114c0,1.677.671,2.65,2.349,2.65h.6v2.382h-.973c-2.92,0-5-1.208-5-4.6a19.009,19.009,0,0,1,.235-2.684,24,24,0,0,0,.2-2.651c0-.973-.268-2.348-2.618-2.382Z" transform="translate(-497.849 -641.951)" fill="#0a6cc7"/>
    <path id="Path_941" data-name="Path 941" d="M1560.765,1071.855c-2.315.034-2.617,1.409-2.617,2.382a24.231,24.231,0,0,0,.234,2.65,25.432,25.432,0,0,1,.235,2.684c0,3.388-2.08,4.6-5,4.6h-.974v-2.382h.6c1.678-.034,2.316-.974,2.316-2.651a15.965,15.965,0,0,0-.2-2.114,17.714,17.714,0,0,1-.2-2.449c-.034-2.349.973-3.39,2.651-3.792v-.068c-1.678-.4-2.684-1.409-2.651-3.757a17.63,17.63,0,0,1,.2-2.416,15.977,15.977,0,0,0,.2-2.114c0-1.644-.6-2.583-2.316-2.617h-.6v-2.416h.974c2.986,0,5,1.342,5,4.5a26.044,26.044,0,0,1-.235,2.718,24.836,24.836,0,0,0-.234,2.684c0,1.074.3,2.349,2.617,2.382Z" transform="translate(-525.362 -641.951)" fill="#0a6cc7"/>
    <path id="Path_942" data-name="Path 942" d="M1404.443,748.1c4.453-4.65,4.9-11.948,3.33-18.191s-7.843-11.157-11.764-17.6c-4.169-6.851-2.581-21.055-2.965-23.478-.372-2.35-23.53,1.871-23.53,1.871-.2,11.254-5.078,22.976-4.382,34.259.522,8.468,1.872,17.819,8.389,23.249Z" transform="translate(-409.519 -413.901)" fill="#47333c"/>
    <path id="Path_943" data-name="Path 943" d="M1369.155,712.573c-.184-5.952.587-12.143.179-18.014-.549.1-.862.153-.862.153-.2,11.254-5.078,22.976-4.382,34.259.522,8.467,1.872,17.819,8.39,23.249l1.1,0c-7.1-11.979-4.038-25.909-4.424-39.644" transform="translate(-408.875 -417.877)" fill="#47333c"/>
    <path id="Path_944" data-name="Path 944" d="M1389.5,734.434c2.22-7.028,6.075-13.428,7.334-20.632,1.405,5.974,1.118,11.325,3.12,17.251,2.276-7.433-.07-22.467.615-23.134s2.989,7.985,3.138,8.877a158.523,158.523,0,0,0-2.5-28.534c-3.929.172-9.747,1-13.955,1.672-1.1,14.8-3.273,30.55,2.25,44.5" transform="translate(-422.381 -413.988)" fill="#47333c"/>
    <path id="Path_945" data-name="Path 945" d="M1407.617,744.847c.187,2.734-3.358,13.858-5.636,14.014s-7.1-10.395-7.29-13.129,2.74-2.449,6.309-2.693,6.429-.927,6.617,1.808" transform="translate(-427.81 -447.658)" fill="#feb48c"/>
    <path id="Path_946" data-name="Path 946" d="M1403,731.87h0a4.558,4.558,0,0,1-4.844-4.223l-.543-7.934a4.544,4.544,0,0,1,9.067-.621l.543,7.934A4.557,4.557,0,0,1,1403,731.87" transform="translate(-429.615 -430.413)" fill="#feb48c"/>
    <path id="Path_947" data-name="Path 947" d="M1397.991,725.2c-.159-2.331-.376-5.487-.376-5.487a4.544,4.544,0,1,1,9.067-.621s.1,1.512.247,3.609a8.381,8.381,0,0,1-3.93,2.882,8.163,8.163,0,0,1-5.008-.383" transform="translate(-429.615 -430.412)" fill="#ba6549"/>
    <path id="Path_948" data-name="Path 948" d="M1391.569,663.5c-5.472-.64-11.61.385-12.255,9.019,0,0,.116,8.949.276,10.918s3.691,9.3,7.949,9.8c4.568.534,10.708-5.668,11.318-7.547s2.659-10.281,2.659-10.281c1.391-8.548-4.474-11.27-9.946-11.909" transform="translate(-418.319 -398.602)" fill="#feb48c"/>
    <path id="Path_949" data-name="Path 949" d="M1376.325,701.3a13,13,0,0,1,.007,2.014c-.068.528-.247.905-.669.967s-.932-.257-1.341-.891a4.286,4.286,0,0,1-.508-1.141,5.387,5.387,0,0,1-.2-1.419,4.058,4.058,0,0,1,.642-2.334c.366-.505.8-.679,1.184-.5a1.557,1.557,0,0,1,.693,1.208,16.057,16.057,0,0,1,.188,2.093" transform="translate(-414.802 -419.959)" fill="#feb48c"/>
    <path id="Path_950" data-name="Path 950" d="M1428.955,708.549a14.348,14.348,0,0,0-.793,2.087c-.136.574-.1,1.036.316,1.265a1.726,1.726,0,0,0,1.739-.4,4.756,4.756,0,0,0,.973-.986,5.98,5.98,0,0,0,.757-1.4,4.5,4.5,0,0,0,.245-2.672c-.183-.667-.568-1.018-1.034-.979s-.845.426-1.19.983a17.7,17.7,0,0,0-1.013,2.1" transform="translate(-448.442 -424.611)" fill="#feb48c"/>
    <path id="Path_951" data-name="Path 951" d="M1379.914,658.785a11.849,11.849,0,0,0-2.548,4.783c-.444,1.506-.712,3.058-1.031,4.6a20.445,20.445,0,0,0,10.349-4.938c.351,3.353,2.494,6.261,4.771,8.8a39.083,39.083,0,0,0,8.377,6.641,44.311,44.311,0,0,0,2.285-7.493,17.65,17.65,0,0,0-.547-9.522,10.7,10.7,0,0,0-6.632-6.553,7.873,7.873,0,0,0-8.08,2.22,5.626,5.626,0,0,0-5.529.288,7.269,7.269,0,0,0-1.414,1.173" transform="translate(-416.479 -393.311)" fill="#47333c"/>
    <path id="Path_952" data-name="Path 952" d="M1386.9,672.269c.017,6.57,7.262,13.162,7.262,13.162a26.509,26.509,0,0,1-2.705-2.6c-2.277-2.543-4.419-5.451-4.771-8.8a20.439,20.439,0,0,1-10.349,4.938q.059-.281.114-.562c4.72-.9,7.819-2.148,10.448-6.133" transform="translate(-416.479 -404.111)" fill="#47333c"/>
    <path id="Path_953" data-name="Path 953" d="M1422.366,655.039a7.721,7.721,0,0,1,1,.224,10.7,10.7,0,0,1,6.632,6.553,17.649,17.649,0,0,1,.547,9.522,44.3,44.3,0,0,1-2.286,7.493s.983-6.591,1.278-9.866c.363-5.5-1.834-11.813-7.171-13.928" transform="translate(-444.906 -393.471)" fill="#47333c"/>
    <path id="Path_954" data-name="Path 954" d="M1385.61,659.507a7.269,7.269,0,0,1,1.414-1.173,5.626,5.626,0,0,1,5.529-.288,7.107,7.107,0,0,1,3.136-2.1c-1.653,1-2.61,1.825-3.106,3.651-2.4-2.693-5.45-1.094-7.025-.035.017-.019.034-.039.051-.057" transform="translate(-422.176 -394.032)" fill="#47333c"/>
    <path id="Path_955" data-name="Path 955" d="M1413.063,662.6c-.281,5.777,1.178,10.5,5.933,14.084-4.818-4.169-5.784-9.139-5.933-14.084" transform="translate(-439.141 -398.141)" fill="#47333c"/>
    <path id="Path_956" data-name="Path 956" d="M1427.558,685.748a12.829,12.829,0,0,1-6.4-6.318,9.6,9.6,0,0,0,6.4,6.318" transform="translate(-444.161 -408.534)" fill="#47333c"/>
    <path id="Path_957" data-name="Path 957" d="M1379.372,679.925a31.292,31.292,0,0,0-6.991,19.113s-1.174-6.1-.114-10.555c.9-3.776,1.674-6.737,1.674-6.737Z" transform="translate(-413.693 -408.839)" fill="#47333c"/>
    <path id="Path_958" data-name="Path 958" d="M1423.3,691.265s4.518,10.682,2.541,21.55c0,0,3-5.592,2.965-10.156-.029-3.866-.109-6.919-.109-6.919Z" transform="translate(-445.486 -415.843)" fill="#47333c"/>
    <path id="Path_959" data-name="Path 959" d="M1287.118,832.276a.682.682,0,0,1,1.144.438,2.929,2.929,0,0,1-.343,1.645c-.8,1.521-.869,3.26-.507,3.26s1.376-3.26,2.607-3.006-1.3,4.092-.942,4.6,1.739-2.68,2.39-2.1-1.521,3.912-1.3,4.346,1.666-1.376,1.811-.724-.209,1.956-2.386,3.332c0,0-3.264,2.318-4.857.579-1.511-1.648-2.175-8.176,2.386-12.368" transform="translate(-359.21 -502.813)" fill="#fdc596"/>
    <path id="Path_960" data-name="Path 960" d="M1319.388,785.689c-2.463,4.688-8.524,4.12-8.524,4.12l2.971,6.941c7.6,2.137,14.6-5.029,14.6-5.029,5.65-5.518,7.177-34.769,7.177-34.769-8.982,2.463-13.762,24.048-16.225,28.736" transform="translate(-376.047 -456.409)" fill="#d6670d"/>
    <path id="Path_961" data-name="Path 961" d="M1354.431,1102.765a16.993,16.993,0,0,1,.523,4.227l2.859-.672-.173-3.6Z" transform="translate(-402.952 -669.943)" fill="#f8b58e"/>
    <path id="Path_962" data-name="Path 962" d="M1339.663,1114.274c.047.579,9.242.115,9.242.115l-.213-2.255-2.9.041s-6.176,1.52-6.128,2.1" transform="translate(-393.832 -675.757)" fill="#f8b58e"/>
    <path id="Path_963" data-name="Path 963" d="M1348.429,1115.8l-.145-1.256s-.532.709-3.343.748c-2.477.034-2.768-.847-2.768-.847-2.312.7-3.606.831-3.27,1.3.432.608,9.526.052,9.526.052" transform="translate(-393.33 -677.184)" fill="#0a6cc7"/>
    <path id="Path_964" data-name="Path 964" d="M1357.64,1102.72l.136,3.014a2.952,2.952,0,0,0-2.85.04,22.821,22.821,0,0,0-.5-3.009Z" transform="translate(-402.952 -669.943)" fill="#ec9f72"/>
    <path id="Path_965" data-name="Path 965" d="M1319.353,1103.256a17.007,17.007,0,0,1,.522,4.227l2.859-.672-.173-3.6Z" transform="translate(-381.289 -670.246)" fill="#f8b58e"/>
    <path id="Path_966" data-name="Path 966" d="M1304.584,1114.765c.047.579,9.242.115,9.242.115l-.213-2.255-2.9.041s-6.176,1.52-6.128,2.1" transform="translate(-372.169 -676.06)" fill="#f8b58e"/>
    <path id="Path_967" data-name="Path 967" d="M1313.349,1116.291l-.145-1.256s-.532.709-3.343.748c-2.477.034-2.768-.847-2.768-.847-2.312.7-3.606.831-3.27,1.3.433.608,9.526.052,9.526.052" transform="translate(-371.666 -677.487)" fill="#0a6cc7"/>
    <path id="Path_968" data-name="Path 968" d="M1322.562,1103.212l.136,3.014a2.953,2.953,0,0,0-2.85.04,22.956,22.956,0,0,0-.495-3.009Z" transform="translate(-381.289 -670.247)" fill="#ec9f72"/>
    <path id="Path_969" data-name="Path 969" d="M1313.754,896.093s18.02,5.109,15.608,21.675l-46.39.65s-1.451-7.111,1.455-10.363c2.88-3.223,29.326-11.961,29.326-11.961" transform="translate(-358.598 -542.337)" fill="#04427d"/>
    <path id="Path_970" data-name="Path 970" d="M1283.859,952.1s6.371,18.172,13.213,58.544l4.666-.065s2.886-30.238,2.063-38.377-6.975-20.923-6.975-20.923-8.871-1.89-12.966.821" transform="translate(-359.37 -576.023)" fill="#04427d"/>
    <path id="Path_971" data-name="Path 971" d="M1329.133,936.892l-17.516.141s6.353,12.8,6.791,20.39-2.062,38.377-2.062,38.377l-1.943.027s1.083-32.643.476-37.893-7.694-22.444-7.353-23.608,22.178-7.62,22.178-7.62Z" transform="translate(-373.978 -561.243)" fill="#023363"/>
    <path id="Path_972" data-name="Path 972" d="M1364.045,895.265l36.646-.513-26,13.581Z" transform="translate(-408.889 -541.509)" fill="#3e5c87"/>
    <path id="Path_973" data-name="Path 973" d="M1374.161,894.751s5.358,8.681,1.47,21.872l-54.31.761s-1.2-7.241,1.837-10.368c4.236-4.356,35.706-8.414,51-12.265" transform="translate(-382.36 -541.508)" fill="#04427d"/>
    <path id="Path_974" data-name="Path 974" d="M1321.7,951.905s5.922,13.049,11.842,58.563l4.683-.065s3.42-30.246,2.755-38.387-5.983-20.3-5.983-20.3-9.151-2.526-13.3.186" transform="translate(-382.739 -576.03)" fill="#04427d"/>
    <path id="Path_975" data-name="Path 975" d="M1391.031,932.751l-41.013.574s5.522,13.354,5.983,20.3c.583,8.788-2.755,38.387-2.755,38.387l-1.738.025s2.071-30.384,1.182-37.992-7.64-22.267-6.549-23.842,29.734-3.533,46.188-9.334c0,0,.631,6.909-1.3,11.885" transform="translate(-397.759 -557.636)" fill="#023363"/>
    <path id="Path_976" data-name="Path 976" d="M1370.787,782.838c.112,7.98-2.423,12.954-8.375,22.022,11.993,3.908,24.583,3.37,37.626-.527a62.173,62.173,0,0,0-12.082-19.418l-.106-.119-.143-.161-.1-.113c-2.548-4.463,5.081-9.722,8-18.5,2.972-8.944,1.552-13.57,1.552-13.57-11.291-4.873-17.886-5.941-30.581-.538l-.373,7.744s-3.376,6.088-2.95,8.793,7.477,10.128,7.537,14.384" transform="translate(-407.881 -451.072)" fill="#ff8727"/>
    <path id="Path_978" data-name="Path 978" d="M1391.145,799.473a45.8,45.8,0,0,0-1.212-6.5c-.889-3.965-1.9-8.46-1.739-10.678.269-3.767,3.9-14.5,4.058-14.96l.5.171c-.037.11-3.767,11.127-4.032,14.826-.153,2.141.847,6.6,1.728,10.526a44.438,44.438,0,0,1,1.225,6.617,45.785,45.785,0,0,1-4.3,19.329c-.185-.024-.372-.03-.557-.055a45.336,45.336,0,0,0,4.329-19.274" transform="translate(-422.952 -462.82)" fill="#d6670d"/>
    <path id="Path_979" data-name="Path 979" d="M1365.041,878.087c-2.085,1.369-4.854,2.608-4.78,3.72.162,2.42,3.749,2.815,5.242,1.775,1.421-1.133,2.144-4.006,2.144-4.006s-.542-2.844-2.606-1.489" transform="translate(-406.552 -530.991)" fill="#f4be84"/>
    <path id="Path_980" data-name="Path 980" d="M1351.1,890.474c-.338-.123.49-2.739.849-3.215.288-.381.558-.881,3.8-2.8l-.689,2.4a22.839,22.839,0,0,0-2.368,1.095c-.262.229-.457,2.2-1.6,2.521" transform="translate(-400.844 -535.152)" fill="#f4be84"/>
    <path id="Path_981" data-name="Path 981" d="M1359.987,896.135c-.5.095-.535-2.513-.422-3.121a21.067,21.067,0,0,1,1.2-4.949l.956,2.236s-1.082,2.625-1.135,2.992.052,2.237-.6,2.843" transform="translate(-406.09 -537.379)" fill="#f4be84"/>
    <path id="Path_982" data-name="Path 982" d="M1364.615,896.294c-.483.091-.513-2.412-.4-3a20.189,20.189,0,0,1,1.154-4.751l.918,2.146s-1.039,2.52-1.09,2.872.05,2.147-.577,2.729" transform="translate(-408.96 -537.677)" fill="#f4be84"/>
    <path id="Path_983" data-name="Path 983" d="M1369.715,894.022c-.408.077-.434-2.042-.343-2.536a17.1,17.1,0,0,1,.977-4.021l.777,1.816s-.879,2.133-.923,2.43.043,1.818-.488,2.31" transform="translate(-412.153 -537.01)" fill="#f4be84"/>
    <path id="Path_984" data-name="Path 984" d="M1375.07,876.141l3.587-.711-.893-3.688a40.449,40.449,0,0,0-5,2.653Z" transform="translate(-414.273 -527.3)" fill="#f4be84"/>
    <path id="Path_985" data-name="Path 985" d="M1407.62,759.369c7.047.239,15.206,39.742,10.646,44.844-5.9,7.439-25.483,2.834-36.318,2.983a8.916,8.916,0,0,1-2.232-4.086c7.688-4.457,27.789-4.829,29.533-5.678s-8.654-38.3-1.629-38.063" transform="translate(-418.567 -457.901)" fill="#ff8727"/>
    <path id="Path_986" data-name="Path 986" d="M1418.891,807.671c3.579-4-.683-29.138-6.088-39.908,5.836,9.492,10.826,37.4,7.039,41.635-5.9,7.439-25.484,2.834-36.318,2.983a12.7,12.7,0,0,1-1.256-1.7c10.911-.055,30.782,4.351,36.623-3.014" transform="translate(-420.144 -463.085)" fill="#d6670d"/>
    <path id="Path_987" data-name="Path 987" d="M1406.842,752.021l-8.25,8.435-2.471-3.489-2.284,2.014-1.573-2.29-2.712,2.9-.243-7.708,4.931.486Z" transform="translate(-424.491 -453.278)" fill="#d6670d"/>
    <path id="Path_988" data-name="Path 988" d="M1414.8,743l-3.83-5.725-8.772,6.074,4.048,6.054Z" transform="translate(-432.454 -444.256)" fill="#ff8727"/>
    <path id="Path_989" data-name="Path 989" d="M1392.317,741.232l1.922,4.56-4.3,5.337-.633-5.823Z" transform="translate(-424.491 -446.7)" fill="#ff8727"/>
    <path id="Path_990" data-name="Path 990" d="M1268.522,852.524l41.149-1.938-10.155-31.5-41.149,1.938Z" transform="translate(-343.627 -494.778)" fill="#8394b4"/>
    <rect id="Rectangle_221" data-name="Rectangle 221" width="60.634" height="2.478" transform="translate(925.138 358.176) rotate(-2.644)" fill="#a5c0d7"/>
    <path id="Path_991" data-name="Path 991" d="M1268.764,853.557l40.2-1.854-9.955-30.885-40.2,1.854Z" transform="translate(-343.9 -495.85)" fill="#a5c0d7"/>
    <path id="Path_992" data-name="Path 992" d="M1314.01,858.573a4.411,4.411,0,0,0,4.092,2.573,2.018,2.018,0,0,0,2-2.854,4.412,4.412,0,0,0-4.092-2.573,2.018,2.018,0,0,0-2,2.854" transform="translate(-377.881 -517.401)" fill="#8394b4"/>
    <g id="Group_1305" data-name="Group 1305" transform="translate(914.91 324.969)" opacity="0.2" style="mix-blend-mode: multiply;isolation: isolate">
      <g id="Group_1304" data-name="Group 1304" transform="translate(0 0)">
        <g id="Group_1303" data-name="Group 1303" clip-path="url(#clip-path-7)">
          <path id="Path_993" data-name="Path 993" d="M1308.968,851.7l-9.955-30.885-40.2,1.854Z" transform="translate(-1258.81 -820.819)" fill="#a5c0d7"/>
        </g>
      </g>
    </g>
    <rect id="Rectangle_223" data-name="Rectangle 223" width="19.544" height="2.478" transform="translate(966.184 356.283) rotate(-2.652)" fill="#8394b4"/>
    <rect id="Rectangle_224" data-name="Rectangle 224" width="7.551" height="1.089" transform="translate(953.449 356.396) rotate(-2.641)" fill="#8394b4"/>
    <rect id="Rectangle_225" data-name="Rectangle 225" width="6.462" height="1.089" transform="translate(927.63 357.587) rotate(-2.642)" fill="#8394b4"/>
    <path id="Path_994" data-name="Path 994" d="M1298.767,821.226l-39.831,1.837-.127-.392,40.2-1.854,9.955,30.885-.372.017Z" transform="translate(-343.899 -495.849)" fill="#bad6f2"/>
    <path id="Path_103" data-name="Path 103" d="M338.765,229.3a4.707,4.707,0,0,0-.668-.884,6.7,6.7,0,0,1-.691-1.037,6.961,6.961,0,0,1-.771-2.335.436.436,0,0,0-.5-.317.4.4,0,0,0-.292.489,7.746,7.746,0,0,0,1.676,3.754c.342.418.831.862.4,1.366s-1.216.42-1.824.377c-.529-.037-.537.785-.009.822a3.1,3.1,0,0,0,2.267-.448A1.467,1.467,0,0,0,338.765,229.3Z" transform="translate(223.308 323.275)" fill="#f8b58e" opacity="0.64" style="mix-blend-mode: multiply;isolation: isolate"/>
    <path id="Path_104" data-name="Path 104" d="M330.606,225.816c.146.754.68,1.31,1.193,1.246s.809-.729.663-1.482-.68-1.311-1.193-1.247S330.46,225.063,330.606,225.816Z" transform="translate(223.158 323.263)" fill="#47333c"/>
    <path id="Path_105" data-name="Path 105" d="M338.487,225.336c.146.753.679,1.311,1.192,1.247s.809-.729.663-1.482-.679-1.311-1.192-1.247S338.341,224.583,338.487,225.336Z" transform="translate(223.389 323.249)" fill="#47333c"/>
    <g id="Group_79" data-name="Group 79" transform="translate(561.525 543.083)">
      <path id="Path_106" data-name="Path 106" d="M338.494,220.044a.9.9,0,0,1,.532-.089,2.612,2.612,0,0,1,2.254,2.313,1.351,1.351,0,0,0-.3-.452c-.007-.007-.016-.01-.024-.016a1.241,1.241,0,0,0-.238-.211,2.567,2.567,0,0,0-1.109-.328,3.807,3.807,0,0,1-1.138-.25.482.482,0,0,1-.326-.45A.685.685,0,0,1,338.494,220.044Z" transform="translate(-338.145 -219.949)" fill="#47333c"/>
    </g>
    <g id="Group_80" data-name="Group 80" transform="translate(551.981 543.089)">
      <path id="Path_107" data-name="Path 107" d="M331.721,220.111a.965.965,0,0,0-.529-.154,2.315,2.315,0,0,0-2.319,2.026,1.2,1.2,0,0,1,.313-.414c.008-.006.016-.008.025-.013a1.057,1.057,0,0,1,.244-.181,2.427,2.427,0,0,1,1.116-.188,3.645,3.645,0,0,0,1.145-.106.426.426,0,0,0,.339-.409A.775.775,0,0,0,331.721,220.111Z" transform="translate(-328.873 -219.955)" fill="#47333c"/>
    </g>
    <path id="Path_108" data-name="Path 108" d="M331.009,231.447a5.805,5.805,0,0,0,5.1,1.643.416.416,0,0,1,.163.814,6.684,6.684,0,0,1-5.886-1.947C330.009,231.57,330.631,231.062,331.009,231.447Z" transform="translate(223.149 323.468)" fill="#f8b58e" opacity="0.64" style="mix-blend-mode: multiply;isolation: isolate"/>
    <g id="Group_1306" data-name="Group 1306" transform="translate(963.51 276.481)">
      <path id="Path_103-2" data-name="Path 103" d="M335.832,229a4.4,4.4,0,0,1,.624-.826,6.262,6.262,0,0,0,.645-.969,6.506,6.506,0,0,0,.72-2.182.407.407,0,0,1,.468-.3.374.374,0,0,1,.273.457A7.238,7.238,0,0,1,337,228.693c-.319.391-.776.805-.376,1.276s1.136.392,1.7.352c.494-.035.5.734.009.769a2.893,2.893,0,0,1-2.118-.418A1.371,1.371,0,0,1,335.832,229Z" transform="translate(-333.414 -220.131)" fill="#f8b58e" opacity="0.64" style="mix-blend-mode: multiply;isolation: isolate"/>
      <path id="Path_104-2" data-name="Path 104" d="M332.338,225.719c-.137.7-.636,1.224-1.115,1.164s-.756-.681-.619-1.385.636-1.225,1.115-1.165S332.474,225.015,332.338,225.719Z" transform="translate(-322.156 -220.116)" fill="#47333c"/>
      <path id="Path_105-2" data-name="Path 105" d="M340.218,225.239c-.137.7-.635,1.225-1.114,1.165s-.756-.681-.619-1.385.635-1.225,1.114-1.165S340.354,224.535,340.218,225.239Z" transform="translate(-337.616 -220.098)" fill="#47333c"/>
      <g id="Group_79-2" data-name="Group 79">
        <path id="Path_106-2" data-name="Path 106" d="M340.748,220.038a.841.841,0,0,0-.5-.083,2.441,2.441,0,0,0-2.106,2.161,1.262,1.262,0,0,1,.281-.422c.007-.007.015-.01.022-.015a1.158,1.158,0,0,1,.222-.2,2.4,2.4,0,0,1,1.036-.307,3.558,3.558,0,0,0,1.064-.234.451.451,0,0,0,.3-.42A.64.64,0,0,0,340.748,220.038Z" transform="translate(-338.145 -219.949)" fill="#47333c"/>
      </g>
      <g id="Group_80-2" data-name="Group 80" transform="translate(8.876 0.005)">
        <path id="Path_107-2" data-name="Path 107" d="M329.184,220.1a.9.9,0,0,1,.494-.144,2.163,2.163,0,0,1,2.167,1.893,1.125,1.125,0,0,0-.292-.387c-.008-.006-.015-.008-.023-.013a.988.988,0,0,0-.228-.169,2.267,2.267,0,0,0-1.043-.176,3.406,3.406,0,0,1-1.07-.1.4.4,0,0,1-.316-.382A.724.724,0,0,1,329.184,220.1Z" transform="translate(-328.873 -219.955)" fill="#47333c"/>
      </g>
      <path id="Path_108-2" data-name="Path 108" d="M335.485,231.438a5.425,5.425,0,0,1-4.769,1.535.389.389,0,0,0-.152.761,6.246,6.246,0,0,0,5.5-1.819C336.42,231.553,335.838,231.078,335.485,231.438Z" transform="translate(-325.671 -220.382)" fill="#f8b58e" opacity="0.64" style="mix-blend-mode: multiply;isolation: isolate"/>
    </g>
    <g id="Group_1307" data-name="Group 1307" transform="translate(95.482 -161.628) rotate(9)">
      <path id="Path_71" data-name="Path 71" d="M596.745,221.568c.321-1.723.774-3.432,1.16-5.14.091-.4.724-.3.633.107l-.941,4.156c-.117.518-.537,1.447.075,1.77a2.743,2.743,0,0,0,1.919.043c.394-.112.628.485.232.6C598.616,223.444,596.409,223.369,596.745,221.568Z" transform="translate(466.362 295.411)" fill="#f8b58e" opacity="0.64" style="mix-blend-mode: multiply;isolation: isolate"/>
      <path id="Path_72" data-name="Path 72" d="M600.122,226.016a5.229,5.229,0,0,0,3.818-2.515.322.322,0,0,1,.45-.056.328.328,0,0,1,.056.45,5.839,5.839,0,0,1-4.254,2.758A.321.321,0,0,1,600.122,226.016Z" transform="translate(465.958 294.484)" fill="#f8b58e" opacity="0.64" style="mix-blend-mode: multiply;isolation: isolate"/>
      <path id="Path_73" data-name="Path 73" d="M604.52,217.174c.007.649-.348,1.186-.793,1.2s-.81-.5-.817-1.149.348-1.186.792-1.2S604.514,216.525,604.52,217.174Z" transform="translate(465.564 295.43)" fill="#47333c"/>
      <path id="Path_74" data-name="Path 74" d="M596.215,217.722c.007.649-.348,1.186-.793,1.2s-.81-.5-.817-1.15.349-1.186.793-1.2S596.208,217.074,596.215,217.722Z" transform="translate(466.633 295.359)" fill="#47333c"/>
      <g id="Group_67" data-name="Group 67" transform="translate(1068.059 508.275)">
        <path id="Path_75" data-name="Path 75" d="M606.055,214.527l.005,0a.286.286,0,0,1,.1-.023,3.69,3.69,0,0,0-2.849-2.111,1.1,1.1,0,0,0-.576.051.47.47,0,0,0-.3.459c.029.214.241.352.44.435a5.761,5.761,0,0,0,1.31.3,3.9,3.9,0,0,1,1.287.368A1.7,1.7,0,0,1,606.055,214.527Z" transform="translate(-602.433 -212.376)" fill="#47333c"/>
      </g>
      <g id="Group_68" data-name="Group 68" transform="translate(1060.2 508.475)">
        <path id="Path_76" data-name="Path 76" d="M595.843,212.675a.847.847,0,0,0-.478-.061,2.3,2.3,0,0,0-1.95,2.066,1.181,1.181,0,0,1,.256-.4.158.158,0,0,1,.021-.015,1.068,1.068,0,0,1,.207-.19,2.339,2.339,0,0,1,.979-.315,3.554,3.554,0,0,0,1.01-.249.419.419,0,0,0,.279-.4A.588.588,0,0,0,595.843,212.675Z" transform="translate(-593.414 -212.605)" fill="#47333c"/>
      </g>
    </g>
  </g>
</svg>
