<svg xmlns="http://www.w3.org/2000/svg" xmlns:xlink="http://www.w3.org/1999/xlink" width="74" height="74" viewBox="0 0 74 74">
  <defs>
    <linearGradient id="linear-gradient" x1="0.974" y1="0.238" x2="-0.052" y2="0.609" gradientUnits="objectBoundingBox">
      <stop offset="0" stop-color="#fff"/>
      <stop offset="1" stop-color="#006bc0" stop-opacity="0.071"/>
    </linearGradient>
  </defs>
  <g id="Cloud_Analytics" data-name="Cloud Analytics" transform="translate(-179 -2856)">
    <g id="Laravel_Development" data-name="Laravel Development" transform="translate(179.001 2856.137)">
      <circle id="Ellipse_376" data-name="Ellipse 376" cx="37" cy="37" r="37" transform="translate(-0.001 -0.137)" opacity="0.42" fill="url(#linear-gradient)"/>
    </g>
    <g id="Cloud_Analytics-2" data-name="Cloud Analytics" transform="translate(200 2867)">
      <g id="Group_64103" data-name="Group 64103" transform="translate(16.738 17.512)">
        <path id="Path_50581" data-name="Path 50581" d="M223.178,387.616a.776.776,0,0,0-.776.776v5.945a.776.776,0,0,0,1.553,0v-5.945A.776.776,0,0,0,223.178,387.616Z" transform="translate(-216.118 -365.004)" fill="#45d987"/>
        <path id="Path_50582" data-name="Path 50582" d="M162.476,387.616a.776.776,0,0,0-.776.776v5.945a.776.776,0,1,0,1.553,0v-5.945A.776.776,0,0,0,162.476,387.616Z" transform="translate(-161.7 -365.004)" fill="#45d987"/>
        <path id="Path_50583" data-name="Path 50583" d="M192.828,391.224a.776.776,0,0,0-.776.776v9.333a.776.776,0,1,0,1.553,0V392A.776.776,0,0,0,192.828,391.224Z" transform="translate(-188.91 -368.239)" fill="#45d987"/>
        <path id="Path_50584" data-name="Path 50584" d="M390.223,170.729h5.945a.776.776,0,0,0,0-1.553h-5.945a.776.776,0,0,0,0,1.553Z" transform="translate(-365.872 -169.176)" fill="#45d987"/>
        <path id="Path_50585" data-name="Path 50585" d="M396.168,229.878h-5.945a.776.776,0,1,0,0,1.553h5.945a.776.776,0,1,0,0-1.553Z" transform="translate(-365.871 -223.594)" fill="#45d987"/>
        <path id="Path_50586" data-name="Path 50586" d="M402.042,199.526h-9.519a.776.776,0,0,0,0,1.553h9.519a.776.776,0,1,0,0-1.553Z" transform="translate(-367.933 -196.384)" fill="#45d987"/>
      </g>
      <path id="Path_50587" data-name="Path 50587" d="M372.128,376.652,361.42,365.944a.64.64,0,0,1,0-.9l3.62-3.62a.64.64,0,0,1,.9,0l10.708,10.708a.64.64,0,0,1,0,.9l-3.62,3.62A.64.64,0,0,1,372.128,376.652Z" transform="translate(-323.839 -323.839)" fill="#f78e36"/>
      <path id="Path_50588" data-name="Path 50588" d="M378.418,361.42l-2.262,2.262a.64.64,0,0,1,.9,0l10.708,10.708a.64.64,0,0,1,0,.9l2.262-2.262a.64.64,0,0,0,0-.9L379.323,361.42A.64.64,0,0,0,378.418,361.42Z" transform="translate(-337.218 -323.839)" fill="#f86f1b"/>
      <path id="Path_50589" data-name="Path 50589" d="M0,0H3.2V6.973H0Z" transform="translate(33.321 35.591) rotate(-45)" fill="#4380a0"/>
      <path id="Path_50590" data-name="Path 50590" d="M0,0H6.4V3.2H0Z" transform="translate(39.57 44.103) rotate(-45)" fill="#7be492"/>
      <path id="Path_50591" data-name="Path 50591" d="M0,0H3.2V3.2H0Z" transform="translate(41.832 41.841) rotate(-45)" fill="#45d987"/>
      <circle id="Ellipse_497" data-name="Ellipse 497" cx="20.795" cy="20.795" r="20.795" transform="translate(0 0)" fill="#43809f"/>
      <path id="Path_50592" data-name="Path 50592" d="M187.032,0q-.807,0-1.6.061a20.8,20.8,0,0,1,0,41.468q.792.06,1.6.061a20.795,20.795,0,0,0,0-41.59Z" transform="translate(-166.237 0)" fill="#3a7190"/>
      <circle id="Ellipse_498" data-name="Ellipse 498" cx="17.596" cy="17.596" r="17.596" transform="translate(3.199 3.199)" fill="#f3f3f3"/>
      <path id="Path_50593" data-name="Path 50593" d="M187.032,30.905c-.539,0-1.073.026-1.6.073a17.595,17.595,0,0,1,0,35.044c.527.048,1.06.074,1.6.074a17.6,17.6,0,1,0,0-35.191Z" transform="translate(-166.237 -27.706)" fill="#e4e4e4"/>
      <g id="Group_64104" data-name="Group 64104" transform="translate(11.464 7.305)">
        <path id="Path_50594" data-name="Path 50594" d="M117.142,119.525h-6.4v-9.384a.427.427,0,0,1,.427-.427h5.545a.427.427,0,0,1,.427.427Z" transform="translate(-110.744 -105.662)" fill="#29cef6"/>
        <path id="Path_50595" data-name="Path 50595" d="M141.65,109.714v9.811h3.2v-9.384a.427.427,0,0,0-.427-.427Z" transform="translate(-138.451 -105.662)" fill="#22b5ed"/>
        <path id="Path_50596" data-name="Path 50596" d="M240.764,154.62h-6.4v-5.332a.427.427,0,0,1,.427-.427h5.545a.427.427,0,0,1,.427.427Z" transform="translate(-221.569 -140.756)" fill="#7be492"/>
        <path id="Path_50597" data-name="Path 50597" d="M265.272,148.861v5.759h3.2v-5.332a.427.427,0,0,0-.427-.427Z" transform="translate(-249.276 -140.756)" fill="#45d987"/>
        <path id="Path_50598" data-name="Path 50598" d="M178.953,84.43h-6.4V70.994a.427.427,0,0,1,.427-.427h5.545a.427.427,0,0,1,.427.427Z" transform="translate(-166.157 -70.567)" fill="#f78e36"/>
        <path id="Path_50599" data-name="Path 50599" d="M203.461,70.567V84.43h3.2V70.994a.427.427,0,0,0-.427-.427Z" transform="translate(-193.863 -70.567)" fill="#f86f1b"/>
      </g>
      <path id="Path_50600" data-name="Path 50600" d="M108.889,196.991H85.953a.776.776,0,0,0,0,1.553h22.936a.776.776,0,0,0,0-1.553Z" transform="translate(-76.36 -176.599)" fill="#43809f"/>
      <path id="Path_50601" data-name="Path 50601" d="M129.821,235.643H126.04l-1.716-4.387a.776.776,0,0,0-1.451.013l-2.36,6.364-1.655-4.692a.776.776,0,0,0-1.41-.12l-1.576,2.822H112.1a.776.776,0,1,0,0,1.553h4.225a.777.777,0,0,0,.678-.4l.96-1.719,1.8,5.094a.776.776,0,0,0,.726.518h.006a.776.776,0,0,0,.728-.507l2.4-6.465,1.167,2.983a.776.776,0,0,0,.723.494h4.311a.776.776,0,0,0,0-1.553Z" transform="translate(-99.802 -206.874)" fill="#29cef6"/>
    </g>
  </g>
</svg>
