<?xml version="1.0" standalone="no"?>
<!DOCTYPE svg PUBLIC "-//W3C//DTD SVG 20010904//EN"
 "http://www.w3.org/TR/2001/REC-SVG-20010904/DTD/svg10.dtd">
<svg version="1.0" xmlns="http://www.w3.org/2000/svg"
 width="2000.000000pt" height="2000.000000pt" viewBox="0 0 2000.000000 2000.000000"
 preserveAspectRatio="xMidYMid meet">

<g transform="translate(0.000000,2000.000000) scale(0.100000,-0.100000)"
fill="#000000" stroke="none">
<path d="M17122 13950 c0 -14 2 -19 5 -12 2 6 2 18 0 25 -3 6 -5 1 -5 -13z"/>
<path d="M17121 13824 c0 -11 3 -14 6 -6 3 7 2 16 -1 19 -3 4 -6 -2 -5 -13z"/>
<path d="M2872 13760 c0 -19 2 -27 5 -17 2 9 2 25 0 35 -3 9 -5 1 -5 -18z"/>
<path d="M2871 13704 c0 -11 3 -14 6 -6 3 7 2 16 -1 19 -3 4 -6 -2 -5 -13z"/>
<path d="M2870 13635 c0 -27 3 -45 7 -41 7 7 5 77 -2 85 -3 2 -5 -17 -5 -44z"/>
<path d="M17113 13604 c2 -16 7 -36 12 -43 5 -9 4 -12 -2 -8 -7 4 -12 -8 -15
-33 -2 -22 1 -40 5 -40 5 0 4 -6 -2 -13 -6 -8 -8 -17 -5 -20 15 -14 6 -117
-11 -144 -17 -26 -17 -27 -1 -14 16 14 17 11 12 -30 -2 -24 -5 -53 -6 -64 0
-15 -2 -17 -9 -6 -9 14 -19 4 -15 -16 1 -7 2 -22 3 -34 1 -14 6 -19 15 -16 8
3 13 0 12 -8 -3 -17 -16 -32 -16 -18 0 5 -7 10 -15 10 -9 0 -11 -4 -6 -11 5
-6 7 -18 6 -26 -2 -8 -6 -26 -8 -40 -3 -14 -6 -27 -6 -29 -1 -3 -7 3 -14 14
-11 14 -16 15 -22 5 -6 -9 -4 -11 5 -5 10 6 12 3 7 -14 -5 -19 -2 -22 14 -18
10 3 22 1 25 -4 3 -5 -4 -9 -15 -9 -12 0 -21 -4 -21 -10 0 -5 4 -10 9 -10 5 0
11 -9 14 -20 3 -11 1 -20 -3 -20 -5 0 -11 8 -13 18 -4 16 -5 16 -6 0 0 -10 -6
-18 -12 -18 -5 0 -8 4 -4 9 3 5 1 12 -4 16 -6 3 -8 -4 -6 -16 5 -27 26 -42 39
-29 6 6 15 10 21 10 16 -1 -38 -40 -55 -40 -13 0 -13 1 0 10 9 6 10 10 3 10
-22 0 -25 -21 -4 -27 12 -3 21 -13 20 -22 0 -10 -2 -11 -6 -3 -6 17 -23 15
-23 -2 0 -8 -6 -17 -12 -19 -10 -4 -10 -8 2 -16 15 -11 33 -5 25 9 -3 4 3 10
13 12 11 3 19 0 19 -8 0 -8 -7 -14 -14 -14 -8 0 -11 -5 -7 -12 4 -6 3 -8 -3
-5 -6 4 -16 0 -22 -7 -9 -10 -9 -16 -1 -21 8 -5 5 -11 -7 -21 -12 -9 -14 -13
-4 -14 9 0 7 -5 -6 -17 -10 -10 -13 -14 -6 -9 22 15 15 -12 -9 -34 -15 -14
-17 -19 -7 -15 10 4 20 1 25 -6 4 -8 3 -10 -4 -5 -7 4 -12 2 -12 -3 0 -6 -8
-11 -17 -11 -14 0 -15 -2 -4 -9 10 -6 11 -13 2 -29 -7 -14 -8 -29 -2 -45 11
-28 6 -37 -21 -37 -12 0 -18 -7 -18 -21 0 -12 -8 -28 -17 -35 -17 -12 -16 -13
6 -22 18 -6 20 -10 9 -14 -9 -4 -21 4 -32 22 -16 27 -15 29 4 35 17 5 19 10 9
21 -6 7 -16 11 -21 8 -6 -4 -5 -10 3 -16 11 -8 11 -9 -1 -5 -8 2 -14 10 -13
16 4 14 -14 15 -22 1 -3 -5 -11 -10 -18 -10 -6 0 -2 7 9 15 10 8 14 15 7 15
-21 0 -43 -12 -43 -25 0 -7 -7 -18 -15 -25 -23 -19 -18 -31 10 -24 18 4 32 1
45 -11 11 -10 23 -15 28 -10 4 4 1 10 -5 12 -7 3 -13 12 -13 21 1 15 3 14 16
-3 8 -11 12 -25 9 -33 -2 -7 -1 -11 3 -9 4 3 13 -1 20 -9 8 -9 9 -14 2 -14 -6
0 -9 -4 -6 -9 3 -5 -1 -11 -9 -15 -9 -3 -15 0 -15 10 0 20 -45 64 -66 64 -15
0 -14 -4 7 -27 16 -18 17 -22 5 -13 -18 14 -19 13 -13 -3 5 -15 2 -17 -27 -13
-38 5 -50 -1 -38 -19 4 -6 -1 -2 -11 8 -16 19 -16 20 0 32 12 9 22 10 30 3 13
-11 33 -3 33 13 0 6 -10 8 -22 4 -16 -4 -19 -3 -9 3 11 8 11 10 0 15 -12 5
-12 7 0 15 9 7 10 12 2 16 -6 4 -12 1 -13 -6 0 -7 -2 -17 -2 -23 -3 -23 -19
-35 -49 -36 -29 0 -30 -1 -9 -9 12 -5 22 -14 22 -19 0 -5 3 -18 6 -28 5 -15 4
-16 -5 -3 -9 13 -12 13 -20 1 -5 -7 -13 -11 -19 -7 -6 4 -10 -2 -9 -13 0 -11
4 -19 7 -19 3 0 12 0 20 -1 33 -3 -26 -25 -64 -24 -25 1 -35 -2 -26 -7 7 -4
23 -6 35 -4 14 2 29 -4 41 -18 17 -19 17 -21 2 -15 -10 4 -18 2 -18 -3 0 -6
-7 -10 -15 -10 -9 0 -12 -6 -9 -15 4 -8 1 -15 -5 -15 -6 0 -11 4 -11 8 0 5 -7
9 -15 9 -8 0 -15 -4 -15 -9 0 -4 7 -8 16 -8 13 0 12 -4 -5 -26 -11 -15 -18
-31 -14 -37 4 -7 8 -6 12 4 3 8 11 14 16 13 26 -4 55 -17 55 -25 0 -5 -10 -10
-22 -10 -17 -1 -19 -2 -5 -6 9 -2 17 -12 17 -21 0 -10 -3 -13 -8 -7 -9 13 -52
19 -52 7 0 -5 7 -9 16 -8 9 0 19 -5 21 -12 3 -7 1 -12 -4 -11 -19 3 -23 -2
-13 -21 6 -11 16 -17 25 -14 11 4 13 2 9 -9 -3 -9 -13 -13 -26 -9 -13 3 -19 1
-15 -5 4 -6 0 -13 -8 -17 -18 -6 -30 10 -14 20 8 4 7 9 -2 15 -11 6 -10 9 3
14 9 4 14 13 11 21 -3 8 -9 11 -14 8 -5 -3 -7 -10 -4 -15 4 -5 1 -9 -5 -9 -7
0 -9 -8 -5 -22 6 -17 4 -20 -11 -14 -18 6 -18 5 -1 -8 12 -9 15 -16 7 -21 -7
-5 -4 -18 10 -43 12 -20 15 -30 7 -24 -12 10 -16 8 -20 -10 -7 -26 -1 -38 19
-38 8 0 14 -5 14 -11 0 -6 -7 -9 -15 -5 -8 3 -15 0 -15 -6 0 -7 -7 -3 -16 8
-8 10 -12 13 -9 6 4 -7 -1 -23 -11 -35 -11 -12 -15 -19 -10 -15 5 4 15 3 23
-3 16 -14 18 -33 1 -23 -7 5 -8 3 -4 -5 5 -7 2 -20 -6 -29 -19 -24 -17 -57 4
-57 9 0 19 -4 22 -8 3 -4 3 -5 -1 -2 -3 3 -12 0 -20 -7 -17 -14 -29 -2 -36 32
-3 14 -4 5 -4 -20 1 -29 -2 -45 -10 -46 -7 -1 -20 -2 -29 -3 -8 0 -12 -6 -8
-12 3 -6 14 -9 24 -6 11 3 21 -1 24 -8 3 -9 -2 -11 -15 -8 -15 4 -18 2 -13
-11 5 -12 2 -15 -10 -10 -14 5 -15 2 -7 -20 7 -16 7 -27 1 -31 -6 -4 -10 -11
-10 -16 0 -6 5 -7 11 -3 8 4 8 1 0 -13 -5 -11 -16 -38 -24 -61 -13 -36 -13
-44 1 -63 14 -21 14 -22 -1 -16 -12 4 -14 2 -10 -10 3 -8 0 -19 -8 -24 -10 -6
-7 -9 11 -9 l25 -1 -24 -10 c-23 -9 -23 -10 -6 -36 17 -26 17 -26 -5 -20 -18
5 -21 2 -17 -14 3 -10 1 -19 -4 -19 -5 0 -9 -5 -9 -11 0 -5 4 -8 9 -5 5 4 4
-5 -2 -19 -7 -14 -16 -25 -20 -25 -5 0 -5 4 -2 10 3 5 0 7 -9 4 -12 -5 -12 -8
2 -23 9 -10 24 -16 32 -13 13 3 13 2 0 -6 -8 -6 -18 -8 -23 -5 -5 3 -13 -1
-18 -8 -12 -18 -11 -32 0 -24 5 3 12 1 16 -5 3 -5 -1 -10 -10 -10 -8 0 -18 7
-21 15 -4 8 -10 15 -15 15 -12 0 2 -33 20 -47 14 -11 14 -12 1 -13 -8 0 -21
-9 -28 -21 -9 -15 -17 -18 -25 -10 -10 7 -13 -2 -13 -42 -1 -42 -4 -52 -17
-51 -9 1 -15 -2 -12 -6 3 -5 -4 -12 -15 -15 -17 -5 -19 -10 -9 -21 9 -11 7
-14 -9 -14 -12 0 -24 -4 -27 -10 -3 -5 -2 -10 3 -10 6 0 8 -9 5 -20 -6 -22
-23 -27 -23 -7 -1 6 -7 -3 -15 -20 -14 -33 -40 -44 -47 -21 -3 7 -7 5 -11 -6
-4 -10 -3 -15 3 -11 6 3 10 1 10 -6 0 -8 -12 -10 -37 -6 -22 4 -32 3 -25 -2
16 -10 11 -77 -6 -74 -5 1 -8 -8 -5 -20 4 -21 3 -20 -12 3 -13 22 -15 22 -14
5 1 -11 1 -24 0 -29 -1 -12 -31 14 -31 28 0 6 5 4 10 -4 7 -12 9 -10 7 8 -1
14 -5 18 -11 12 -6 -6 -21 -10 -36 -11 -25 0 -25 0 -2 -9 12 -5 22 -12 22 -16
0 -3 -7 -4 -15 0 -8 3 -14 2 -14 -2 3 -20 -2 -32 -11 -27 -6 4 -18 -2 -28 -12
-9 -10 -14 -14 -9 -9 11 15 8 34 -5 39 -7 2 -3 2 10 0 12 -2 22 1 22 7 0 5 -4
10 -10 10 -5 0 -10 5 -10 11 0 5 5 7 12 3 7 -4 8 -3 4 4 -4 7 -27 12 -52 12
-43 0 -59 15 -29 26 19 8 19 20 -1 28 -8 3 -12 2 -9 -4 7 -12 -23 -45 -32 -36
-8 8 -33 -13 -33 -27 0 -6 6 -3 13 7 13 17 14 17 28 0 8 -11 9 -15 2 -10 -7 4
-13 3 -13 -1 0 -5 -18 -8 -39 -8 -30 0 -37 3 -29 12 6 7 14 11 17 8 4 -2 8 2
8 10 0 20 -16 19 -38 -1 -14 -13 -16 -21 -8 -36 6 -11 8 -22 6 -25 -3 -2 -8 5
-12 17 -4 13 -13 20 -23 18 -10 -2 -28 8 -41 22 -13 14 -18 18 -12 9 10 -14 7
-17 -13 -21 -15 -3 -24 -1 -23 6 1 6 -6 10 -16 8 -10 -2 -16 3 -15 10 2 8 -10
14 -32 16 -19 2 -43 12 -53 22 -9 11 -24 17 -32 14 -12 -5 -14 0 -9 27 4 22 2
29 -4 21 -7 -10 -11 -10 -21 2 -9 11 -19 12 -35 6 -21 -7 -23 -6 -20 17 2 17
-2 23 -11 19 -8 -3 -17 0 -21 6 -4 6 -3 8 3 5 6 -4 10 11 9 38 0 35 -4 45 -17
45 -11 0 -16 7 -14 18 1 9 -5 26 -14 36 -9 11 -10 16 -4 12 16 -9 9 100 -7
119 -6 8 -7 16 -2 19 10 6 9 67 -2 85 -4 6 -2 11 4 11 6 0 8 5 5 10 -4 6 -8
20 -10 33 -2 12 -7 45 -11 72 -4 28 -9 57 -11 65 -7 28 -20 184 -28 335 -9
170 -16 258 -21 266 -3 5 -7 66 -10 135 -2 70 -8 132 -11 137 -4 6 -8 38 -9
72 -2 33 -5 71 -7 85 -2 14 -8 52 -13 85 -4 33 -8 65 -9 70 -1 6 -3 27 -3 48
-1 21 -6 36 -10 33 -5 -3 -9 1 -9 9 0 8 4 15 9 15 4 0 8 7 8 15 0 8 -4 15 -10
15 -5 0 -10 7 -10 16 0 10 -5 14 -15 10 -12 -4 -14 -2 -6 11 6 12 4 21 -7 31
-11 9 -13 15 -6 18 17 7 4 46 -12 40 -8 -3 -11 0 -7 9 3 8 10 12 16 8 6 -3 7
-1 3 5 -11 17 -12 16 -48 -37 -18 -27 -53 -73 -78 -102 -25 -29 -74 -87 -108
-128 -148 -177 -401 -419 -599 -575 l-113 -88 0 -172 c0 -94 -9 -301 -19 -461
-18 -268 -24 -315 -81 -620 -54 -293 -70 -361 -146 -605 -47 -151 -96 -306
-109 -345 -19 -56 -190 -451 -282 -650 -10 -22 -94 -170 -188 -329 -156 -264
-190 -313 -407 -594 -225 -293 -247 -318 -490 -558 -242 -239 -266 -260 -553
-475 -221 -166 -335 -245 -435 -299 -74 -41 -222 -122 -329 -181 -178 -99
-225 -119 -570 -248 l-376 -141 -395 -85 -395 -85 -425 -30 c-484 -34 -577
-36 -855 -15 -906 67 -1750 333 -2519 795 l-139 84 34 28 c24 20 44 28 74 28
28 0 36 3 26 9 -12 8 -13 16 -2 50 6 23 16 41 21 41 5 0 11 9 15 19 5 16 16
23 55 35 3 1 10 4 15 8 6 3 22 5 38 3 15 -2 25 1 22 6 -3 5 13 7 37 5 33 -3
46 0 56 15 7 11 18 16 25 12 16 -10 81 -12 92 -3 6 4 33 7 62 6 32 -2 50 1 46
8 -4 6 1 6 13 2 10 -4 24 -9 31 -10 7 -1 16 -5 19 -9 4 -4 12 -7 18 -7 6 0 4
5 -4 11 -12 9 -11 10 5 4 11 -3 25 -7 30 -8 6 -1 13 -6 16 -10 3 -4 18 -3 32
2 19 8 27 7 27 -1 0 -7 16 -9 45 -6 25 3 45 1 45 -4 0 -5 4 -7 9 -3 5 3 13 0
17 -6 4 -8 9 -7 15 2 6 10 9 10 9 2 0 -11 36 -10 47 1 3 2 18 0 34 -4 18 -5
27 -5 24 1 -8 12 2 11 27 -2 15 -8 19 -8 14 0 -4 6 -2 11 3 11 6 0 11 -6 11
-12 0 -10 3 -9 9 1 6 9 11 10 15 2 5 -8 13 -8 28 0 18 10 20 9 15 -4 -4 -11
-2 -14 9 -10 7 3 14 10 14 17 0 6 4 5 9 -3 6 -8 20 -12 39 -9 17 2 29 1 26 -4
-3 -4 0 -8 5 -8 6 0 11 5 11 11 0 5 5 7 11 4 13 -9 198 -12 193 -4 -2 4 20 6
49 5 28 -1 64 1 78 5 33 9 59 -4 32 -17 -10 -4 -22 -9 -28 -9 -5 -1 -17 -5
-25 -8 -8 -4 -33 -13 -55 -21 -103 -37 49 -2 220 50 318 98 697 283 1010 491
179 119 174 109 59 117 -748 50 -1434 563 -1698 1269 -20 54 -34 102 -31 106
10 17 59 18 149 4 56 -9 164 -15 281 -16 176 0 242 6 385 34 l55 11 -120 34
c-427 118 -787 365 -1064 732 -226 299 -366 691 -387 1085 -6 119 -6 127 12
127 10 0 79 -29 153 -64 222 -104 413 -157 621 -172 l85 -6 -45 33 c-212 157
-401 364 -531 585 -168 284 -257 574 -281 917 -11 154 -13 167 -31 167 -12 0
-17 5 -14 14 4 10 0 12 -14 9 -13 -4 -18 -11 -15 -20 4 -9 1 -13 -6 -10 -7 2
-13 12 -13 23 -1 10 -6 18 -13 16 -9 -1 -10 6 -6 24 4 17 2 29 -7 35 -10 6
-11 9 -1 9 6 0 12 5 12 11 0 5 -6 7 -12 3 -7 -4 -10 -4 -6 0 3 4 0 19 -7 33
-10 19 -11 30 -2 44 6 10 14 16 18 13 4 -2 7 4 6 15 -1 15 -4 17 -14 9 -10 -8
-13 -5 -13 11 0 12 -4 19 -10 16 -9 -5 -15 15 -11 38 0 4 -6 7 -15 7 -8 0 -12
-4 -9 -10 4 -6 -1 -7 -11 -3 -14 5 -14 7 4 17 18 10 19 12 4 26 -14 13 -15 13
-10 -1 4 -10 -1 -15 -15 -17 -16 -1 -18 1 -8 7 16 10 4 36 -30 66 -12 11 -19
14 -15 8 4 -7 2 -13 -3 -13 -14 0 -14 17 -1 25 12 7 8 39 -5 43 -6 1 -10 -4
-10 -10 0 -7 -9 -12 -20 -10 -20 3 -20 2 -1 -13 19 -15 19 -15 -2 -16 -12 -1
-28 -2 -34 -3 -7 -1 -20 2 -28 8 -8 6 -6 0 5 -13 11 -14 15 -21 8 -18 -6 4
-14 3 -18 -3 -11 -18 -23 -10 -21 14 2 16 -1 23 -9 20 -7 -3 -12 -13 -11 -22
1 -12 -8 -18 -29 -21 -27 -3 -28 -4 -10 -12 18 -8 17 -8 -5 -6 -14 1 -24 8
-22 15 1 8 -2 11 -8 7 -6 -3 -8 -11 -5 -16 7 -10 -8 -41 -18 -40 -21 3 -27 -1
-28 -16 0 -11 -3 -13 -6 -5 -2 6 -9 12 -14 12 -4 0 -7 -6 -5 -12 1 -7 1 -10
-1 -5 -8 12 -53 8 -51 -5 2 -8 -9 -13 -29 -13 -31 0 -40 -6 -30 -23 2 -4 2 -1
0 6 -1 7 2 10 7 7 18 -11 10 -32 -16 -44 -21 -9 -24 -14 -14 -26 7 -8 10 -22
6 -31 -3 -8 -1 -25 5 -36 9 -18 8 -19 -10 -13 -12 4 -21 2 -21 -4 0 -6 5 -11
11 -11 8 0 8 -5 -1 -15 -7 -8 -10 -21 -7 -29 3 -8 1 -16 -4 -18 -6 -2 -11 -11
-13 -20 -1 -10 -5 -20 -9 -24 -3 -4 -4 5 -1 19 2 14 0 28 -6 32 -6 3 -7 -1 -4
-9 3 -9 1 -16 -5 -16 -11 0 -15 15 -11 35 1 5 -2 7 -5 3 -11 -11 -13 -78 -4
-84 5 -3 6 1 3 9 -3 8 -1 18 5 21 5 4 9 -3 8 -15 -2 -22 -37 -49 -37 -28 0 7
-3 9 -6 6 -4 -4 -1 -13 6 -22 10 -13 9 -15 -10 -15 -19 0 -21 -4 -16 -27 3
-16 3 -23 0 -16 -8 18 -33 -8 -26 -26 4 -10 1 -13 -9 -9 -10 4 -15 -1 -15 -13
0 -11 5 -19 11 -19 5 0 3 -4 -5 -9 -8 -6 -19 -7 -25 -4 -5 4 0 -5 13 -19 21
-23 21 -25 5 -40 -10 -8 -24 -14 -31 -12 -7 1 -8 0 -2 -3 5 -2 10 -20 10 -39
0 -21 -4 -33 -10 -29 -6 4 -7 -2 -1 -18 7 -17 6 -29 -2 -37 -9 -10 -9 -11 1
-6 8 5 12 0 12 -13 0 -24 -48 -83 -61 -75 -5 3 -8 -6 -7 -20 1 -13 6 -22 10
-20 4 3 8 0 8 -6 0 -6 3 -9 8 -7 4 3 8 -6 8 -19 l2 -24 -20 23 c-15 17 -18 18
-14 5 3 -10 2 -18 -3 -18 -4 0 -8 -14 -9 -31 -1 -27 1 -29 15 -17 14 12 15 11
5 -8 -6 -12 -8 -25 -4 -29 4 -5 1 -5 -5 -1 -13 7 -14 4 -18 -45 -1 -14 -5 -31
-9 -38 -4 -6 -1 -11 8 -11 13 0 13 -4 2 -32 -19 -47 -29 -108 -15 -88 9 12 10
11 4 -5 -17 -46 -26 -173 -14 -181 8 -5 8 -9 0 -13 -13 -8 -19 -44 -26 -146
-3 -38 -8 -81 -11 -95 -7 -31 -16 -131 -16 -187 0 -24 -4 -43 -10 -43 -5 0 -6
-5 -3 -11 4 -5 -3 -19 -16 -30 -12 -10 -17 -19 -11 -19 7 0 12 -4 12 -10 0 -5
-8 -10 -17 -10 -15 0 -14 -2 3 -16 10 -8 14 -13 8 -10 -7 3 -14 -5 -16 -19 -4
-19 -2 -23 7 -15 8 7 12 5 12 -5 0 -8 -6 -15 -14 -15 -12 0 -17 -20 -16 -57 1
-7 -3 -10 -8 -7 -5 3 -10 0 -10 -5 -1 -6 -3 -15 -4 -21 -1 -5 -3 -15 -4 -20 0
-6 -4 -9 -8 -9 -23 4 -33 -3 -33 -21 0 -11 5 -20 10 -20 6 0 10 -4 10 -10 0
-5 -7 -7 -15 -4 -8 4 -15 1 -15 -5 0 -6 5 -11 12 -11 6 0 8 -3 5 -7 -4 -3 -2
-12 5 -20 8 -11 7 -12 -6 -7 -11 4 -16 1 -16 -10 0 -22 -8 -20 -30 7 -19 22
-19 22 -14 1 3 -12 15 -27 27 -33 13 -7 15 -10 4 -7 -14 5 -16 1 -11 -18 4
-19 1 -26 -16 -31 -12 -4 -27 -2 -33 4 -15 15 -27 14 -27 -3 0 -7 -6 -18 -13
-24 -10 -9 -13 -5 -11 18 1 17 -2 28 -7 25 -4 -3 -17 3 -29 15 -11 11 -20 16
-20 10 0 -5 -5 -10 -11 -10 -5 0 -7 5 -4 10 3 6 0 10 -7 10 -7 0 -24 3 -38 5
-23 5 -23 4 3 -6 15 -6 27 -15 27 -20 0 -5 10 -9 23 -9 34 0 44 -12 36 -40 -6
-21 -14 -12 -11 12 1 3 -5 9 -13 12 -9 3 -12 0 -9 -8 6 -17 -12 -30 -21 -16
-4 6 -11 8 -16 5 -5 -3 -6 0 -4 7 3 8 -2 22 -10 33 -10 12 -15 14 -12 5 5 -19
-14 -39 -30 -33 -7 3 -13 0 -13 -6 0 -6 8 -11 18 -11 14 0 15 -2 2 -9 -8 -6
-18 -7 -22 -5 -4 3 -8 0 -8 -5 0 -6 -5 -11 -11 -11 -6 0 -9 6 -6 14 3 8 -1 17
-9 20 -8 3 -14 -1 -14 -9 0 -9 -11 -13 -34 -12 -19 1 -32 5 -30 9 2 4 0 9 -6
13 -5 3 -10 -3 -10 -14 0 -12 7 -21 16 -21 8 0 13 -4 9 -10 -3 -5 -12 -7 -20
-4 -10 4 -13 0 -10 -15 2 -12 0 -19 -6 -16 -5 4 -9 13 -9 20 0 8 -9 19 -20 25
-22 12 -26 40 -8 58 9 9 9 12 0 12 -7 0 -12 -4 -12 -9 0 -6 -9 -8 -20 -6 -13
2 -20 -2 -20 -11 0 -8 -5 -14 -11 -14 -5 0 -7 5 -4 10 8 13 -11 13 -36 0 -14
-8 -19 -7 -19 1 0 8 -4 8 -15 -1 -13 -11 -14 -10 -9 4 3 9 1 16 -5 16 -6 0
-10 6 -8 13 1 6 -4 11 -10 10 -18 -4 -16 12 4 28 14 12 16 12 11 -1 -3 -9 0
-24 8 -34 11 -15 16 -17 28 -7 20 17 10 38 -25 57 -25 12 -29 12 -29 0 0 -7
-6 -19 -14 -25 -8 -7 -12 -21 -8 -34 5 -21 5 -21 -12 -5 -10 10 -14 23 -10 30
4 7 3 10 -1 5 -5 -4 -17 0 -27 10 -10 9 -21 13 -25 10 -3 -4 -1 -7 6 -7 7 0
10 -4 6 -10 -3 -5 -12 -7 -20 -3 -8 3 -15 0 -15 -6 0 -6 -5 -11 -11 -11 -5 0
-7 6 -4 13 4 6 -1 3 -9 -7 -14 -17 -16 -17 -16 -4 0 9 -5 20 -12 24 -7 5 -8 3
-3 -6 5 -9 4 -11 -4 -6 -9 6 -9 11 -1 21 17 21 21 55 5 49 -7 -3 -16 0 -21 7
-5 8 -3 10 7 4 8 -5 6 1 -4 12 -11 12 -14 24 -9 27 12 7 10 32 -3 43 -4 4 -5
2 0 -6 6 -10 4 -12 -4 -7 -7 5 -10 14 -7 21 3 8 0 15 -5 17 -6 2 -11 11 -13
20 -1 10 -14 31 -29 47 -17 20 -22 31 -14 35 7 2 5 5 -4 5 -9 1 -22 8 -29 16
-7 8 -16 13 -20 10 -5 -3 -12 -1 -15 5 -4 6 -3 10 2 9 24 -4 25 3 3 19 -24 16
-42 51 -20 37 5 -3 10 1 10 9 0 9 -5 16 -11 16 -5 0 -7 5 -4 10 4 6 11 8 16 5
14 -9 -13 48 -29 62 -8 7 -12 19 -9 27 4 10 -2 16 -16 19 -17 3 -15 5 8 6 26
1 27 3 12 12 -9 5 -21 8 -26 4 -8 -5 -22 35 -26 75 0 9 -4 21 -9 28 -4 7 -2
20 6 29 7 9 8 14 2 10 -7 -4 -17 0 -24 8 -11 13 -10 14 2 10 14 -5 14 0 4 37
-6 24 -15 47 -21 51 -7 6 -6 10 2 14 8 3 10 11 5 21 -4 9 -7 34 -6 55 0 20 -3
37 -8 37 -5 0 -7 14 -4 31 3 24 0 32 -17 39 -21 8 -21 9 3 10 21 0 22 2 9 10
-13 8 -15 17 -9 45 5 20 4 38 -1 41 -6 3 -7 14 -4 24 3 10 0 22 -6 26 -9 5
-10 2 -6 -9 4 -11 1 -17 -9 -17 -8 0 -13 4 -9 9 6 11 -23 43 -34 37 -4 -3 -7
4 -7 15 0 19 1 19 13 3 7 -10 13 -14 13 -10 0 5 8 2 18 -5 16 -13 16 -13 -1 7
-9 11 -17 26 -17 32 0 22 -30 12 -40 -13 -13 -33 -17 -32 -16 5 1 16 7 32 15
35 11 4 11 8 1 20 -7 9 -8 15 -2 15 5 0 8 10 4 22 -3 14 -1 19 6 14 20 -12 0
27 -23 46 -19 16 -19 17 -2 24 15 5 16 9 5 15 -11 7 -10 11 2 19 13 8 12 10
-4 10 -19 0 -19 0 -1 13 16 13 15 14 -13 9 -21 -3 -32 0 -32 7 0 7 4 9 10 6
18 -11 31 5 20 25 -11 21 -40 17 -40 -5 0 -8 -5 -17 -11 -20 -5 -4 -3 9 5 29
8 20 12 35 8 33 -4 -1 -8 2 -9 6 -1 5 -9 14 -18 21 -16 11 -15 13 2 27 17 13
17 13 3 -5 -14 -18 -14 -19 7 -5 19 11 20 15 8 22 -20 11 -19 25 3 30 15 4 15
5 -2 6 -15 1 -16 4 -6 16 7 9 10 18 6 22 -3 3 -6 1 -6 -5 0 -7 -4 -12 -9 -12
-5 0 -8 8 -7 18 0 9 -6 18 -14 18 -8 1 -21 2 -27 3 -7 0 -13 13 -13 29 0 21
-2 24 -10 12 -6 -9 -10 -10 -10 -3 0 21 21 25 35 7 8 -11 15 -14 15 -7 0 6 -5
15 -10 18 -6 4 -7 11 -4 17 4 7 2 8 -4 4 -7 -4 -12 -1 -12 8 0 8 -6 17 -12 19
-10 4 -9 6 1 6 11 1 10 6 -5 23 -10 12 -13 18 -6 14 19 -12 26 23 8 43 -9 10
-15 20 -14 22 2 2 -3 -2 -9 -10 -10 -11 -13 -11 -13 -2 0 7 -6 19 -14 27 -13
12 -16 12 -25 -3 -12 -22 -24 -11 -28 25 -3 19 -1 23 6 13 5 -7 13 -11 18 -8
6 4 19 0 29 -8 23 -17 34 -19 34 -5 0 5 -3 9 -7 8 -17 -5 -73 34 -73 50 0 15
2 15 10 2 7 -11 10 -12 10 -2 0 8 -9 16 -20 19 -11 3 -17 10 -13 16 3 6 1 7
-6 3 -9 -6 -9 -11 -1 -21 9 -11 5 -17 -18 -29 -18 -9 -33 -11 -38 -6 -6 6 -10
0 -12 -15 -2 -29 5 -32 25 -7 12 14 14 15 10 1 -3 -9 0 -22 6 -29 9 -10 7 -11
-12 -5 -20 6 -23 4 -18 -9 8 -20 -11 -17 -37 7 -17 15 -18 19 -6 27 12 7 12
12 0 34 -11 22 -16 24 -29 13 -14 -10 -14 -10 -3 4 7 9 10 25 6 35 -5 16 -4
16 5 4 6 -8 11 -10 11 -4 0 6 -3 14 -7 17 -3 4 -8 17 -9 29 -7 51 -11 62 -22
66 -7 2 -10 -2 -6 -11 3 -8 1 -18 -5 -22 -7 -3 -8 0 -5 9 4 11 0 13 -18 9 -13
-4 -20 -2 -15 3 5 5 14 9 20 9 7 0 12 16 12 40 0 22 4 46 9 54 6 10 4 12 -12
7 -12 -4 -23 -2 -28 5 -5 9 -2 10 9 6 10 -3 17 -2 17 3 0 5 8 7 18 4 14 -5 15
-4 2 5 -14 10 -7 16 14 12 5 -1 3 5 -4 14 -13 15 -25 12 -25 -6 0 -5 -3 -9 -7
-9 -5 0 -13 0 -19 0 -6 0 -8 9 -4 21 5 15 4 19 -4 15 -6 -4 -11 -2 -11 3 0 6
5 11 10 11 6 0 10 5 10 11 0 5 -5 7 -10 4 -6 -3 -10 -1 -10 4 0 6 5 11 11 11
8 0 8 5 -1 15 -7 8 -8 15 -3 15 11 0 10 28 -3 82 -4 18 -7 36 -6 40 1 4 -4 5
-11 3 -9 -4 -12 28 -12 138 1 116 -2 144 -13 144 -10 0 -12 -8 -8 -29 3 -16 1
-28 -5 -28 -6 0 -10 -28 -10 -67 0 -38 -2 -1438 -4 -3113 -4 -4439 5 -4785
135 -5238 229 -791 757 -1419 1483 -1761 460 -218 710 -265 1527 -292 1235
-39 7052 -35 8120 6 565 22 726 42 988 121 898 272 1559 909 1864 1794 149
434 161 628 179 2820 10 1162 5 5047 -6 5320 -2 41 -4 171 -5 288 -1 157 -4
212 -13 212 -8 0 -8 3 1 9 16 10 9 168 -8 185 -7 7 -9 1 -7 -20z m-14211 -536
c-8 -8 -9 -4 -5 13 4 13 8 18 11 10 2 -7 -1 -18 -6 -23z m8 -60 c0 -18 -2 -20
-9 -8 -6 8 -7 18 -5 22 9 14 14 9 14 -14z m2635 -67 c3 -5 2 -12 -3 -15 -5 -3
-9 1 -9 9 0 17 3 19 12 6z m65 -7 c0 -8 -19 -13 -24 -6 -3 5 1 9 9 9 8 0 15
-2 15 -3z m-2703 -36 c1 -26 -1 -29 -7 -13 -6 17 -3 45 5 45 1 0 2 -15 2 -32z
m14156 -49 c4 -16 3 -18 -9 -8 -7 6 -11 15 -8 20 8 13 11 11 17 -12z m-11817
-8 c-4 -5 0 -11 6 -14 7 -3 3 -4 -9 -4 -23 1 -29 8 -16 20 10 10 25 8 19 -2z
m439 -29 c-3 -3 -11 0 -18 7 -9 10 -8 11 6 5 10 -3 15 -9 12 -12z m-517 -57
c-3 -3 -9 2 -12 12 -6 14 -5 15 5 6 7 -7 10 -15 7 -18z m-2202 -145 c0 -12 -4
-16 -9 -11 -5 5 -6 14 -3 20 10 15 12 14 12 -9z m64 -41 c0 -6 -4 -7 -10 -4
-5 3 -10 11 -10 16 0 6 5 7 10 4 6 -3 10 -11 10 -16z m101 -9 c2 -28 3 -32 18
-59 11 -19 11 -22 -1 -18 -7 2 -11 11 -10 18 2 8 0 10 -5 6 -8 -9 -9 -14 -12
-43 0 -8 -6 -12 -11 -9 -6 4 -17 1 -25 -5 -12 -10 -13 -7 -5 21 11 36 26 56
17 21 -3 -12 -1 -20 4 -16 5 3 9 12 9 20 0 8 4 14 9 14 5 0 8 8 6 18 -1 9 -7
16 -13 15 -5 -1 -8 7 -5 17 7 26 23 26 24 0z m-101 -55 c11 -13 10 -14 -4 -9
-9 3 -16 10 -16 15 0 13 6 11 20 -6z m159 -21 c-7 -8 0 -11 23 -8 18 1 27 0
21 -3 -7 -2 -13 -12 -13 -21 0 -13 -3 -13 -16 4 -8 10 -13 14 -10 7 4 -6 2
-15 -4 -18 -6 -4 -10 -3 -9 2 4 23 -3 24 -26 3 -14 -13 -25 -31 -25 -41 0 -24
-26 -31 -42 -11 -11 13 -11 14 1 7 11 -6 13 -3 8 14 -4 18 -2 21 10 17 22 -9
49 14 31 25 -9 6 -6 9 10 9 15 0 22 6 22 18 0 10 3 22 7 25 11 12 23 -16 12
-29z m-122 -9 c0 -8 -6 -15 -13 -15 -8 0 -11 6 -8 15 4 8 9 15 13 15 4 0 8 -7
8 -15z m13768 -25 c3 -5 -1 -10 -10 -10 -9 0 -13 5 -10 10 3 6 8 10 10 10 2 0
7 -4 10 -10z m-13769 -56 c-5 -20 -9 -22 -20 -12 -11 10 -11 16 -2 27 8 11 8
15 -3 19 -11 4 -11 6 0 13 18 11 32 -16 25 -47z m13884 42 c0 -3 -4 -8 -10
-11 -5 -3 -10 -1 -10 4 0 6 5 11 10 11 6 0 10 -2 10 -4z m-13750 -16 c0 -5 -2
-10 -4 -10 -3 0 -8 5 -11 10 -3 6 -1 10 4 10 6 0 11 -4 11 -10z m50 -40 c0 -5
-5 -10 -11 -10 -5 0 -7 5 -4 10 3 6 8 10 11 10 2 0 4 -4 4 -10z m-87 -15 c-3
-9 -8 -14 -10 -11 -3 3 -2 9 2 15 9 16 15 13 8 -4z m-37 -32 c-3 -4 -6 -1 -6
7 0 10 -3 10 -17 -1 -15 -13 -15 -12 -2 8 11 19 15 20 22 7 5 -9 6 -18 3 -21z
m13721 22 c0 -8 -6 -16 -14 -19 -16 -7 -17 6 -1 22 15 15 15 15 15 -3z m-41
-17 c4 -7 3 -8 -4 -4 -7 4 -12 2 -12 -5 0 -7 -3 -10 -6 -6 -6 5 3 27 11 27 2
0 7 -5 11 -12z m-13674 -56 c-8 -2 -9 -9 -3 -21 6 -11 6 -22 -1 -32 -8 -11 -9
-11 -4 4 3 9 1 17 -5 17 -6 0 -7 5 -3 12 5 8 2 9 -12 4 -18 -7 -18 -6 1 12 11
11 24 17 30 14 5 -3 4 -7 -3 -10z m138 2 c0 -8 -19 -13 -24 -6 -3 5 1 9 9 9 8
0 15 -2 15 -3z m30 -12 c0 -5 -7 -9 -15 -9 -8 0 -12 4 -9 9 3 4 9 8 15 8 5 0
9 -4 9 -8z m13404 -21 c4 -5 -3 -7 -14 -4 -23 6 -26 13 -6 13 8 0 17 -4 20 -9z
m-13410 -33 c-3 -4 -11 -5 -19 -1 -21 7 -19 12 4 10 11 0 18 -5 15 -9z m13391
-16 c-6 -4 -11 -20 -11 -37 0 -21 -4 -29 -14 -27 -8 2 -22 4 -31 5 -9 1 -15 7
-12 14 3 7 8 11 13 8 4 -2 12 7 18 20 7 14 20 25 29 25 11 0 14 -3 8 -8z
m-13558 -17 c0 -8 -4 -12 -9 -9 -5 3 -6 10 -3 15 9 13 12 11 12 -6z m13653
-59 c0 -2 -11 -6 -25 -8 -13 -3 -22 -1 -19 3 5 9 44 13 44 5z m-11862 -55 c-6
-10 -17 -17 -25 -14 -7 3 -10 9 -7 14 3 5 10 7 15 4 5 -4 9 -1 9 4 0 6 5 11
10 11 6 0 6 -7 -2 -19z m11722 -132 c-6 -10 -13 -19 -16 -19 -2 0 0 8 5 19 6
10 7 22 3 26 -4 5 -1 5 6 1 9 -5 9 -12 2 -27z m-13255 -19 c3 -6 -1 -7 -9 -4
-18 7 -21 14 -7 14 6 0 13 -4 16 -10z m13180 -120 c3 -5 -1 -10 -10 -10 -9 0
-13 5 -10 10 3 6 8 10 10 10 2 0 7 -4 10 -10z m-6 -103 c0 -9 -2 -8 -6 1 -2 6
-10 9 -15 6 -7 -4 -8 -2 -4 5 9 13 26 5 25 -12z m-19 -87 c0 -5 -2 -10 -4 -10
-3 0 -8 5 -11 10 -3 6 -1 10 4 10 6 0 11 -4 11 -10z m-13045 -20 c3 -5 1 -10
-4 -10 -6 0 -11 5 -11 10 0 6 2 10 4 10 3 0 8 -4 11 -10z m12957 -192 c-8 -8
-9 -4 -5 13 4 13 8 18 11 10 2 -7 -1 -18 -6 -23z m-1130 -547 c-4 -11 -7 -10
-13 5 -12 29 -10 36 5 22 7 -7 11 -19 8 -27z m868 -85 c0 -3 -4 -8 -10 -11 -5
-3 -10 -1 -10 4 0 6 5 11 10 11 6 0 10 -2 10 -4z m-659 -119 c-10 -9 -11 -8
-5 6 3 10 9 15 12 12 3 -3 0 -11 -7 -18z m112 -22 c-3 -9 -8 -14 -10 -11 -3 3
-2 9 2 15 9 16 15 13 8 -4z m257 5 c0 -5 -4 -10 -10 -10 -5 0 -10 5 -10 10 0
6 5 10 10 10 6 0 10 -4 10 -10z m-11847 -43 c-3 -5 -9 -3 -14 4 -4 7 -5 17 -2
22 3 5 9 3 14 -4 4 -7 5 -17 2 -22z m11567 23 c0 -5 -5 -10 -11 -10 -5 0 -7 5
-4 10 3 6 8 10 11 10 2 0 4 -4 4 -10z m-11680 -21 c0 -5 -6 -8 -12 -6 -7 1
-12 -3 -11 -10 2 -7 -3 -10 -10 -7 -8 3 -14 11 -14 18 0 8 6 12 14 9 7 -3 13
0 13 7 0 6 5 8 10 5 6 -3 10 -10 10 -16z m11824 13 c3 -5 -1 -9 -9 -9 -8 0
-12 4 -9 9 3 4 7 8 9 8 2 0 6 -4 9 -8z m-11614 -52 c0 -5 -5 -10 -11 -10 -5 0
-7 5 -4 10 3 6 8 10 11 10 2 0 4 -4 4 -10z m-50 -25 c0 -1 -12 -2 -26 -2 -17
0 -22 2 -13 7 10 7 39 3 39 -5z m11805 5 c3 -6 -1 -7 -9 -4 -18 7 -21 14 -7
14 6 0 13 -4 16 -10z m-11338 -6 c-3 -3 -12 -4 -19 -1 -8 3 -5 6 6 6 11 1 17
-2 13 -5z m38 -4 c-3 -5 -12 -10 -18 -10 -7 0 -6 4 3 10 19 12 23 12 15 0z
m11085 0 c0 -5 -2 -10 -4 -10 -3 0 -8 5 -11 10 -3 6 -1 10 4 10 6 0 11 -4 11
-10z m-11207 -35 c4 -8 3 -16 -1 -19 -4 -3 -9 4 -9 15 -2 23 3 25 10 4z m-26
-20 c0 -8 -4 -12 -9 -9 -5 3 -6 10 -3 15 9 13 12 11 12 -6z m2683 -3335 c-20
-13 -33 -13 -25 0 3 6 14 10 23 10 15 0 15 -2 2 -10z"/>
<path d="M16659 12188 c-6 -20 -6 -39 0 -42 4 -3 7 6 7 20 0 20 -4 32 -7 22z"/>
<path d="M2870 13555 c0 -14 2 -25 4 -25 2 0 6 11 8 25 3 14 1 25 -3 25 -5 0
-9 -11 -9 -25z"/>
<path d="M2870 13506 c0 -9 5 -16 10 -16 6 0 10 4 10 9 0 6 -4 13 -10 16 -5 3
-10 -1 -10 -9z"/>
<path d="M2872 13444 c-3 -32 10 -45 23 -24 3 6 1 10 -6 10 -10 0 -10 3 -1 12
15 15 15 25 -1 31 -9 3 -14 -6 -15 -29z"/>
<path d="M14712 13378 c-11 -18 -35 -58 -54 -89 -127 -206 -354 -441 -567
-588 -60 -41 -69 -50 -45 -46 223 38 287 50 394 76 145 34 290 77 306 90 6 5
14 6 17 2 4 -3 7 -1 7 5 0 7 -7 12 -15 12 -8 0 -12 6 -9 14 4 11 0 13 -14 9
-11 -2 -23 1 -27 8 -5 8 -4 10 3 5 7 -4 12 -1 12 8 0 8 -5 18 -10 21 -8 5 -7
12 2 23 7 9 8 13 2 9 -6 -4 -20 3 -30 14 -18 20 -18 21 -1 34 15 11 17 17 7
37 -11 22 -11 22 5 3 15 -20 16 -19 21 3 4 12 11 22 16 22 5 0 6 5 3 10 -3 6
-1 10 5 10 7 0 10 7 6 15 -3 9 0 15 8 15 8 0 17 6 20 13 3 6 3 -1 0 -18 l-5
-30 16 28 c9 15 17 47 18 71 1 24 5 42 10 39 14 -9 7 10 -10 24 -10 8 -12 11
-4 7 11 -6 13 -3 6 12 -12 30 -15 83 -4 89 8 5 -7 34 -38 74 -1 2 -10 -2 -20
-10 -11 -9 -14 -10 -9 -1 4 6 5 12 3 12 -3 0 -14 -15 -25 -32z m-61 -295 c13
-16 12 -17 -3 -4 -17 13 -22 21 -14 21 2 0 10 -8 17 -17z m3 -41 c2 -4 -5 -9
-17 -9 -17 -2 -19 0 -7 7 18 12 18 12 24 2z m-142 -131 c-1 -7 2 -10 8 -6 6 3
8 11 5 16 -4 5 1 9 10 9 10 0 13 -5 9 -12 -6 -10 -5 -10 7 -1 12 10 18 10 27
1 9 -9 12 -9 12 0 0 7 7 5 18 -5 15 -16 15 -20 2 -33 -13 -13 -17 -13 -32 3
-10 9 -26 17 -35 17 -15 0 -16 -2 -3 -10 11 -7 11 -10 2 -10 -10 0 -10 -5 -1
-21 6 -12 7 -19 2 -16 -6 4 -33 -3 -62 -13 -58 -23 -87 -25 -97 -8 -4 7 -3 8
4 4 7 -4 12 -1 12 8 0 8 -3 16 -7 19 -5 2 -2 2 5 1 7 -2 15 3 18 11 4 8 14 15
23 16 10 0 11 2 4 6 -21 8 -15 20 12 25 17 4 29 0 36 -11 8 -13 9 -12 5 7 -3
15 0 22 7 19 7 -3 11 -10 9 -16z"/>
<path d="M14440 12861 c0 -6 4 -13 10 -16 6 -3 7 1 4 9 -7 18 -14 21 -14 7z"/>
<path d="M17077 13239 c4 -13 8 -18 11 -10 2 7 -1 18 -6 23 -8 8 -9 4 -5 -13z"/>
<path d="M2911 13184 c0 -11 3 -14 6 -6 3 7 2 16 -1 19 -3 4 -6 -2 -5 -13z"/>
<path d="M17035 13141 c-3 -5 -2 -12 3 -15 5 -3 9 1 9 9 0 17 -3 19 -12 6z"/>
<path d="M2950 13079 c0 -5 5 -7 10 -4 6 3 10 8 10 11 0 2 -4 4 -10 4 -5 0
-10 -5 -10 -11z"/>
<path d="M2951 13034 c0 -11 3 -14 6 -6 3 7 2 16 -1 19 -3 4 -6 -2 -5 -13z"/>
<path d="M2970 13010 c-9 -6 -10 -10 -3 -10 6 0 15 5 18 10 8 12 4 12 -15 0z"/>
<path d="M2971 12971 c-8 -5 -9 -11 -3 -15 5 -3 12 1 16 9 6 17 6 18 -13 6z"/>
<path d="M14680 12971 c0 -6 4 -13 10 -16 6 -3 7 1 4 9 -7 18 -14 21 -14 7z"/>
<path d="M5635 12940 c-3 -5 -1 -10 4 -10 6 0 11 5 11 10 0 6 -2 10 -4 10 -3
0 -8 -4 -11 -10z"/>
<path d="M5312 12929 c2 -7 10 -15 17 -17 8 -3 12 1 9 9 -2 7 -10 15 -17 17
-8 3 -12 -1 -9 -9z"/>
<path d="M16916 12838 c3 -5 10 -6 15 -3 13 9 11 12 -6 12 -8 0 -12 -4 -9 -9z"/>
<path d="M2977 12793 c3 -7 9 -13 14 -13 5 0 9 6 9 13 0 8 -6 14 -14 14 -8 0
-12 -6 -9 -14z"/>
<path d="M16907 12773 c-9 -20 0 -38 20 -39 12 -1 20 3 17 8 -3 4 -9 6 -14 3
-4 -3 -11 2 -14 11 -5 12 -2 15 9 10 9 -3 13 -2 10 4 -7 12 -22 13 -28 3z"/>
<path d="M2980 12766 c0 -2 7 -7 16 -10 8 -3 12 -2 9 4 -6 10 -25 14 -25 6z"/>
<path d="M5710 12760 c-9 -6 -10 -10 -3 -10 6 0 15 5 18 10 8 12 4 12 -15 0z"/>
<path d="M5120 12739 c0 -5 5 -7 10 -4 6 3 10 8 10 11 0 2 -4 4 -10 4 -5 0
-10 -5 -10 -11z"/>
<path d="M5731 12742 c-1 -8 -6 -10 -13 -6 -10 5 -10 4 -1 -6 15 -16 28 -8 20
12 -4 11 -6 11 -6 0z"/>
<path d="M3073 12705 c0 -8 4 -15 9 -15 4 0 8 4 8 9 0 6 -4 12 -8 15 -5 3 -9
-1 -9 -9z"/>
<path d="M5075 12711 c-3 -5 0 -13 6 -17 7 -4 9 -3 5 4 -3 6 2 13 11 15 16 4
16 5 1 6 -9 0 -19 -3 -23 -8z"/>
<path d="M16910 12708 c0 -9 5 -20 10 -23 13 -8 13 5 0 25 -8 13 -10 13 -10
-2z"/>
<path d="M5078 12673 c6 -2 10 -9 6 -14 -9 -15 2 -10 16 6 10 13 9 15 -11 14
-13 0 -18 -3 -11 -6z"/>
<path d="M3073 12646 c18 -14 24 -32 7 -21 -5 3 -10 -1 -10 -9 0 -22 27 -20
32 2 3 11 -2 23 -13 30 -26 16 -38 14 -16 -2z"/>
<path d="M16893 12645 c-10 -11 -8 -13 12 -11 14 2 28 6 33 11 4 4 1 5 -5 1
-7 -4 -13 -2 -13 3 0 15 -13 13 -27 -4z"/>
<path d="M16805 12640 c3 -5 8 -10 11 -10 2 0 4 5 4 10 0 6 -5 10 -11 10 -5 0
-7 -4 -4 -10z"/>
<path d="M16850 12630 c-9 -6 -10 -10 -3 -10 6 0 15 5 18 10 8 12 4 12 -15 0z"/>
<path d="M16815 12610 c-3 -5 -1 -10 4 -10 6 0 11 5 11 10 0 6 -2 10 -4 10 -3
0 -8 -4 -11 -10z"/>
<path d="M16765 12590 c-3 -5 -1 -10 4 -10 6 0 11 5 11 10 0 6 -2 10 -4 10 -3
0 -8 -4 -11 -10z"/>
<path d="M16839 12593 c-1 -5 0 -18 1 -31 1 -13 -4 -31 -11 -40 -8 -9 -9 -14
-5 -10 5 4 15 3 22 -2 32 -27 100 -20 100 10 0 10 -4 16 -8 14 -4 -3 -8 2 -8
10 0 9 6 16 13 16 9 0 8 3 -2 9 -7 5 -22 6 -33 3 -18 -4 -18 -6 -4 -14 9 -5
16 -14 16 -21 0 -7 -4 -6 -10 3 -8 11 -9 8 -6 -12 5 -30 2 -31 -29 -18 -17 7
-17 9 -2 9 19 1 23 16 5 27 -7 4 -8 3 -4 -4 4 -7 1 -12 -8 -12 -14 0 -22 31
-17 63 0 4 -1 7 -4 7 -3 0 -5 -3 -6 -7z"/>
<path d="M16869 12598 c0 -2 -2 -11 -4 -21 -3 -15 -1 -16 11 -6 7 6 11 15 8
20 -5 9 -13 12 -15 7z"/>
<path d="M16920 12596 c0 -2 7 -7 16 -10 8 -3 12 -2 9 4 -6 10 -25 14 -25 6z"/>
<path d="M3215 12570 c-3 -5 -1 -10 4 -10 6 0 11 5 11 10 0 6 -2 10 -4 10 -3
0 -8 -4 -11 -10z"/>
<path d="M16790 12569 c0 -5 -4 -8 -8 -5 -4 2 -14 0 -22 -6 -12 -8 -12 -9 3
-4 12 4 17 0 18 -17 l2 -22 4 23 c2 12 9 20 14 17 5 -3 6 1 3 9 -7 18 -14 21
-14 5z"/>
<path d="M16821 12554 c0 -11 3 -14 6 -6 3 7 2 16 -1 19 -3 4 -6 -2 -5 -13z"/>
<path d="M16756 12500 c-6 -11 22 -51 28 -42 3 6 1 14 -5 18 -8 4 -4 11 12 20
l24 12 -29 -1 c-15 -1 -29 -4 -30 -7z"/>
<path d="M3277 12476 c-4 -10 -5 -21 -2 -24 9 -9 17 6 13 25 -3 17 -4 17 -11
-1z"/>
<path d="M16704 12426 c-10 -8 -16 -18 -11 -22 4 -4 7 -2 7 5 0 7 4 10 9 6 5
-3 13 0 16 6 11 17 0 20 -21 5z"/>
<path d="M3303 12373 c-9 -3 -10 -10 -4 -21 5 -9 9 -20 10 -24 2 -18 14 -11
16 9 2 28 -6 41 -22 36z"/>
<path d="M16645 12349 c-4 -6 -4 -13 -1 -16 3 -4 6 -1 6 6 0 7 5 9 12 5 7 -4
8 -3 4 4 -9 15 -13 15 -21 1z"/>
<path d="M3350 12276 c0 -14 4 -27 8 -30 5 -3 6 8 4 25 -5 35 -12 38 -12 5z"/>
<path d="M3340 12158 c0 -4 4 -8 9 -8 6 0 12 4 15 8 3 5 -1 9 -9 9 -8 0 -15
-4 -15 -9z"/>
<path d="M4900 12150 c0 -13 18 -22 24 -11 3 5 -1 11 -9 15 -8 3 -15 1 -15 -4z"/>
<path d="M3395 11980 c3 -5 10 -10 16 -10 5 0 9 5 9 10 0 6 -7 10 -16 10 -8 0
-12 -4 -9 -10z"/>
<path d="M16504 11756 c-1 -17 2 -23 12 -19 10 4 11 10 3 24 -13 24 -14 24
-15 -5z"/>
<path d="M16477 11651 c-3 -11 1 -22 8 -24 8 -4 10 3 7 19 -5 29 -8 30 -15 5z"/>
<path d="M16297 11033 c-3 -5 1 -13 8 -20 10 -9 14 -8 18 8 5 18 -16 28 -26
12z"/>
<path d="M15721 10733 c0 -12 -4 -23 -8 -26 -5 -2 -3 -3 3 -1 6 1 18 -3 25 -9
10 -10 11 -9 2 3 -6 8 -13 24 -16 35 -4 19 -5 19 -6 -2z"/>
<path d="M15774 10701 c4 -5 0 -11 -6 -14 -7 -2 -1 -4 14 -4 15 0 29 6 33 15
4 12 3 13 -10 2 -10 -8 -15 -9 -15 -1 0 6 -5 11 -11 11 -5 0 -8 -4 -5 -9z"/>
<path d="M15900 10691 c0 -6 4 -13 10 -16 6 -3 7 1 4 9 -7 18 -14 21 -14 7z"/>
<path d="M16000 10679 c-21 -17 -22 -19 -3 -10 16 8 22 8 25 -1 3 -8 7 -6 11
5 9 25 -6 28 -33 6z"/>
<path d="M15700 10674 c0 -8 5 -12 10 -9 6 4 8 11 5 16 -9 14 -15 11 -15 -7z"/>
<path d="M15870 10670 c-13 -8 -12 -10 3 -10 9 0 17 5 17 10 0 12 -1 12 -20 0z"/>
<path d="M3906 10658 c3 -5 10 -6 15 -3 13 9 11 12 -6 12 -8 0 -12 -4 -9 -9z"/>
<path d="M15665 10660 c-3 -5 1 -13 10 -16 22 -9 29 1 11 15 -10 8 -16 9 -21
1z"/>
<path d="M4080 10646 c0 -8 4 -17 9 -20 5 -4 7 3 4 14 -6 23 -13 26 -13 6z"/>
<path d="M3961 10642 c-1 -8 -6 -10 -13 -6 -10 5 -10 4 -1 -6 15 -16 28 -8 20
12 -4 11 -6 11 -6 0z"/>
<path d="M4365 10629 c-4 -6 -5 -12 -2 -15 2 -3 7 2 10 11 7 17 1 20 -8 4z"/>
<path d="M4575 10623 c16 -13 17 -15 3 -10 -13 5 -18 1 -18 -12 0 -24 22 -42
38 -32 18 11 -5 71 -26 71 -14 -1 -14 -3 3 -17z m15 -44 c0 -6 -4 -7 -10 -4
-5 3 -10 11 -10 16 0 6 5 7 10 4 6 -3 10 -11 10 -16z"/>
<path d="M4300 10619 c0 -5 5 -7 10 -4 6 3 10 8 10 11 0 2 -4 4 -10 4 -5 0
-10 -5 -10 -11z"/>
<path d="M4327 10617 c-3 -8 1 -14 8 -14 7 0 11 6 8 14 -3 7 -6 13 -8 13 -2 0
-5 -6 -8 -13z"/>
<path d="M4491 10617 c-8 -10 -7 -14 2 -14 8 0 14 6 14 14 0 7 -1 13 -2 13 -2
0 -8 -6 -14 -13z"/>
<path d="M4241 10597 c0 -10 -5 -16 -9 -13 -5 3 -9 -1 -9 -8 0 -8 6 -12 13 -9
6 2 19 -6 28 -19 9 -12 17 -18 17 -13 6 44 4 55 -8 59 -8 3 -11 1 -8 -4 3 -6
2 -10 -4 -10 -5 0 -12 8 -14 18 -4 16 -5 16 -6 -1z"/>
<path d="M4525 10590 c3 -5 11 -10 16 -10 6 0 7 5 4 10 -3 6 -11 10 -16 10 -6
0 -7 -4 -4 -10z"/>
<path d="M4080 10575 c-14 -8 -20 -14 -14 -15 5 0 19 7 30 15 24 18 16 19 -16
0z"/>
<path d="M4180 10540 c19 -13 30 -13 30 0 0 6 -10 10 -22 10 -19 0 -20 -2 -8
-10z"/>
<path d="M4180 10526 c0 -2 7 -9 15 -16 9 -7 15 -8 15 -2 0 5 -7 12 -15 16 -8
3 -15 4 -15 2z"/>
<path d="M6886 7051 c-4 -5 3 -7 14 -4 23 6 26 13 6 13 -8 0 -17 -4 -20 -9z"/>
<path d="M6780 7030 c-20 -6 -21 -8 -5 -8 11 0 31 4 45 8 20 6 21 8 5 8 -11 0
-31 -4 -45 -8z"/>
<path d="M5768 6943 c6 -2 18 -2 25 0 6 3 1 5 -13 5 -14 0 -19 -2 -12 -5z"/>
</g>
</svg>
