<?xml version="1.0" encoding="utf-8"?>
<!-- Generator: Adobe Illustrator 22.0.1, SVG Export Plug-In . SVG Version: 6.00 Build 0)  -->
<svg version="1.1" xmlns="http://www.w3.org/2000/svg" xmlns:xlink="http://www.w3.org/1999/xlink" x="0px" y="0px"
	 viewBox="0 0 660 425.7" enable-background="new 0 0 660 425.7" xml:space="preserve">
<g id="OBJECTS">
	<g>
		<g>
			<path fill="#FF5B2E" d="M523.6,208.7L523.6,208.7l-46.9-8l-59.6,17.6l-25.4-9.4c-3.5,0.9-6.7,1.8-9.6,2.6l0,0
				c0,0-91.9,14.7-80.8,96l51.3,1.2c1.4,4.4,1.5,3.3,2.6,6l18.4,60.8H524l1.4-49.6l45.7,29.4c5.6,3.6,13.1,0,13.7-6.7
				c1.9-21.1,4.3-58.3,4.3-59.2C591.5,221.9,523.6,208.7,523.6,208.7z"/>
			<path fill="#121936" d="M357.5,323.5c-0.4,0-0.9-0.3-1-0.8l-9.1-35.6c-0.1-0.5,0.2-1.1,0.7-1.2c0.5-0.1,1.1,0.2,1.2,0.7l9.1,35.6
				c0.1,0.5-0.2,1.1-0.7,1.2C357.6,323.5,357.5,323.5,357.5,323.5z"/>
			<path fill="#121936" d="M533.1,330c-0.2,0-0.4-0.1-0.6-0.2l-28.1-21.6c-3.4-2.3-5.7-6-6.1-10.2l-2.9-28.3c-0.1-0.5,0.3-1,0.9-1.1
				c0.5,0,1,0.3,1.1,0.9l2.9,28.3c0.4,3.6,2.3,6.8,5.3,8.7l28.1,21.6c0.4,0.3,0.5,1,0.2,1.4C533.7,329.8,533.4,330,533.1,330z"/>
		</g>
		<g>
			<g>
				<g>
					<g>
						<g>
							<g>
								<g>
									<g>
										<g>
											<path fill="#FFAA89" d="M456.4,114L456.4,114l-13.9-0.5c-6.8-0.2-12.8,3.7-15.5,9.5l2.7-39.4c0,0-13.9,8-32.1-2.5
												c0,0-20.9-6.9-27.5,9.2c0,0.2,0,0.3,0,0.5l-4,58.5c-1.5,21.4,13.1,40.1,33.2,43.4l4.7,23.2c3.5,17.1,20.5,28.3,38,24.8
												l0.7-0.1c17.4-3.5,32.3-16.7,28.9-33.8L457.8,150l3.2,0.1c9.9,0.3,18.3-7.5,18.7-17.4l0-1.3c0.2-4.9-1.9-9.5-5.2-12.6
												c-2.8-2.7-6.6-4.4-10.7-4.5L456.4,114z"/>
										</g>
									</g>
								</g>
								<path fill="#FF6A48" d="M399.5,193.5c0,0,35.1-4.2,38.9-17.6c3.8-13.4,0,0,0,0s4.7,18.7-35.7,35.6L399.5,193.5z"/>
							</g>
							
								<path fill="none" stroke="#121936" stroke-width="5" stroke-linecap="round" stroke-linejoin="round" stroke-miterlimit="10" d="
								M466,131.3"/>
						</g>
					</g>
				</g>
				<g>
					<path fill="#121936" d="M460.5,161.4c0,0,0-5.2,2.7-11.1l-15.3-0.5L460.5,161.4z"/>
					<path fill="#121936" d="M457.4,72.9c0,0,9.5-16.6-15.9-28.6c-25.4-12-34.8,10.5-34.8,10.5s-3-20.6-33.8-10.6
						c-30.8,10-3.5,48.1-3.5,48.1c0.2-0.7,0.4-1.3,0.7-1.9c6.6-16.2,27.5-9.2,27.5-9.2c18.2,10.5,32.1,2.5,32.1,2.5l-2.4,34.9
						c-1,7-2.4,16.2-3.4,22.8c-0.6,4.3-5.1,6.8-9.1,5.2l-22-8.9c-1.1-0.4-2.2-0.6-3.3-0.4l-17.4,2.2c-3.1,0.4-5.6,2.9-5.8,6.1
						l-1.3,16.7c-1.5,18.5,13.4,34.2,31.9,33.8l9.7-0.2c0.7,0,1.3-0.1,1.9-0.3l2.4-0.1c24.9-1.4,40.7-27.4,30.5-50.2h0
						c-0.9-1.2-1.3-2.7-1.2-4.1l1-25.5c0-0.7-0.1-1.4-0.2-2c0.5,0,1,0,1.5,0l13.9,0.5l7.4,0.3c4.2,0.1,7.9,1.8,10.7,4.5
						c4.4-11.1,8.3-22,9.4-28.7C486.9,71.7,457.4,72.9,457.4,72.9z"/>
				</g>
				
					<path fill="none" stroke="#FF6969" stroke-width="5" stroke-linecap="round" stroke-linejoin="round" stroke-miterlimit="10" d="
					M469.6,132.6"/>
				<g>
					<path fill="#FF6A48" d="M465.3,138.1c-0.2,0-0.4-0.1-0.5-0.2l-5.8-3.8c-0.2-0.2-0.4-0.4-0.4-0.7c0-0.3,0.1-0.6,0.2-0.8l6.2-6.9
						c0.4-0.4,1-0.4,1.4-0.1c0.4,0.4,0.4,1,0.1,1.4l-5.4,6l4.8,3.1c0.5,0.3,0.6,0.9,0.3,1.4C465.9,138,465.6,138.1,465.3,138.1z"/>
					<g>
						<path fill="#121936" d="M372.4,120c-0.4,2,0.9,4,2.9,4.5c2,0.4,4-0.9,4.5-2.9c0.4-2-0.9-4-2.9-4.5
							C374.9,116.7,372.9,118,372.4,120z"/>
						<path fill="#121936" d="M399.5,120.8c0,2.1,1.7,3.8,3.8,3.7c2.1,0,3.8-1.7,3.7-3.8c0-2.1-1.7-3.8-3.8-3.7
							C401.1,117.1,399.5,118.8,399.5,120.8z"/>
						<g>
							<path fill="#FFA386" d="M406.9,125c0,0-3.2-2.6-6.6,0"/>
							<path fill="#FF6A48" d="M400.2,126c-0.3,0-0.6-0.1-0.8-0.4c-0.3-0.4-0.3-1.1,0.2-1.4c3.2-2.5,6.6-1.1,7.9,0
								c0.4,0.4,0.5,1,0.1,1.4c-0.3,0.4-1,0.5-1.4,0.1c-0.1-0.1-2.7-2.1-5.4,0C400.7,126,400.4,126,400.2,126z"/>
						</g>
						<path fill="#FF6A48" d="M372.6,126.9c-0.3,0-0.5-0.1-0.7-0.3c-0.4-0.4-0.3-1,0.1-1.4c2.9-2.7,6.2-1.5,7.5-0.5
							c0.4,0.3,0.5,1,0.2,1.4c-0.3,0.4-1,0.5-1.4,0.2c-0.3-0.2-2.6-1.8-4.9,0.4C373.1,126.8,372.9,126.9,372.6,126.9z"/>
					</g>
					<path fill="#FFFFFF" d="M373.2,132.9c-7,0-12.6-6.5-12.6-14.5c0-8,5.7-14.5,12.6-14.5s12.6,6.5,12.6,14.5
						C385.8,126.4,380.2,132.9,373.2,132.9z M373.2,105.9c-5.9,0-10.6,5.6-10.6,12.5s4.8,12.5,10.6,12.5c5.9,0,10.6-5.6,10.6-12.5
						S379,105.9,373.2,105.9z"/>
					<g>
						<path fill="#FFAA89" d="M388.1,112.2v13.1h-6.8c-1.7,0-3.2,1.4-3.2,3.2v1.4c0,3.4,2.8,6.2,6.2,6.2h6.2"/>
						<path fill="#FF6A48" d="M390.5,137h-6.2c-4,0-7.2-3.2-7.2-7.2v-1.4c0-2.3,1.9-4.2,4.2-4.2h5.8v-12.1c0-0.6,0.4-1,1-1
							c0.6,0,1,0.4,1,1v14.1h-7.8c-1.2,0-2.2,1-2.2,2.2v1.4c0,2.9,2.3,5.2,5.2,5.2h6.2c0.6,0,1,0.4,1,1
							C391.5,136.6,391.1,137,390.5,137z"/>
					</g>
					<path fill="#FFFFFF" d="M403.7,131.9c-7,0-12.6-6.5-12.6-14.5c0-8,5.7-14.5,12.6-14.5s12.6,6.5,12.6,14.5
						C416.3,125.5,410.6,131.9,403.7,131.9z M403.7,105c-5.9,0-10.6,5.6-10.6,12.5c0,6.9,4.8,12.5,10.6,12.5
						c5.9,0,10.6-5.6,10.6-12.5C414.3,110.6,409.5,105,403.7,105z"/>
					<g>
						<g>
							<g>
								<g>
									<g>
										<g>
											<path fill="#121936" d="M413.8,104c-1.2,0.2-2.6-0.3-3.9-0.7c-1.4-0.4-2.7-0.9-3.9-1.2c-1.2-0.3-2.6-0.6-4-0.9
												c-1.4-0.3-2.8-0.5-3.8-1.3c-0.9-0.7-1-2.1,0.6-3.3c1.5-1.2,5-2.1,9-1c4,1.1,6.5,3.5,7.3,5.3
												C415.8,102.7,415,103.8,413.8,104z"/>
										</g>
									</g>
								</g>
								<g>
									<g>
										<g>
											<path fill="#121936" d="M367.8,99.9c0.9,0.4,2,0.1,3.1,0c1.1-0.2,2.2-0.3,3.2-0.4c1-0.1,2.1-0.1,3.2-0.1
												c1.1,0,2.3,0,3.1-0.5c0.8-0.5,1.1-1.7,0-3c-1-1.3-3.6-2.6-6.8-2.4c-3.2,0.3-5.5,2-6.3,3.4
												C366.5,98.4,366.9,99.6,367.8,99.9z"/>
										</g>
									</g>
								</g>
							</g>
						</g>
					</g>
					<path fill="#FFFFFF" d="M392,117.3h-5.2c-0.6,0-1-0.4-1-1c0-0.6,0.4-1,1-1h5.2c0.6,0,1,0.4,1,1
						C393,116.8,392.6,117.3,392,117.3z"/>
					<path fill="#FFFFFF" d="M415.3,116.8c-0.5,0-0.9-0.4-1-0.9c-0.1-0.5,0.4-1,0.9-1.1l30.6-2.9c0.5,0,1,0.4,1.1,0.9
						c0.1,0.5-0.4,1-0.9,1.1L415.3,116.8C415.4,116.8,415.3,116.8,415.3,116.8z"/>
					<path fill="#FF6A48" d="M398.6,154.7c0,0-0.1,0-0.1,0l-12-0.2c-0.6,0-1-0.5-1-1c0-0.5,0.5-1,1-1c0,0,0,0,0,0l12,0.2
						c3.3,0,6.4-2.3,7.1-5.6l1.9,0.5C406.7,151.7,402.9,154.7,398.6,154.7z"/>
				</g>
			</g>
		</g>
		<g>
			<path fill="#FFFFFF" d="M399.7,197.6l-15.4,13.3l2.3,31.4c0.1,1.6,2,2.4,3.2,1.3l28.3-25.2L399.7,197.6z"/>
			<path fill="#FFFFFF" d="M467.2,189.2l-50.3,29l20.2,33.9c0.9,1.6,3.1,1.9,4.5,0.7l48.9-41.4L467.2,189.2z"/>
			<polygon fill="#121936" points="393.7,240.2 407,267.3 435.8,250.1 417.4,219.1 			"/>
		</g>
	</g>
	<g>
		<g>
			<path fill="#121936" d="M239.2,101.4l-31.1,0.2l-40.7,0l0.1-15.1c0-2-0.2-4-0.5-5.9c-5.4-29.8-49.1-30-54.8-0.2
				c-0.4,2-0.6,4-0.6,6.1v18.1h0l0.1,13.5c0.1,14.3-9.1,26.5-21.1,29.1c-0.3,0.1,1.3,0.1,2.9,0.1c2.2,0.1,3.9,0,3.9,0l116.1,0.2
				c14.3-0.1,25.8-13.3,25.7-29.4L239.2,101.4z"/>
			<g>
				<g>
					<path fill="#EDEDED" d="M333.6,101.2c0-18.5-11.7-34.3-28.1-40.4c-4-1.8-8.4-2.8-13-2.9L196,58.1l0,0h-52.6
						c-0.7,0-1.4,0-2.1,0.1l-1.8,0v0.1c0.1,0,0.3,0,0.4,0.1c15,2,26.6,14.4,27.5,29.6h0v300c0,14.6,11.9,26.4,26.7,26.4h139.5V293.2
						h0.1V101.2z"/>
					<g>
						<path fill="#121936" d="M309.4,219.9H196.2c-0.6,0-1-0.4-1-1c0-0.6,0.4-1,1-1h113.3c0.6,0,1,0.4,1,1
							C310.4,219.4,310,219.9,309.4,219.9z"/>
						<path fill="#121936" d="M275.3,203.9h-47.7c-0.6,0-1-0.4-1-1c0-0.6,0.4-1,1-1h47.7c0.6,0,1,0.4,1,1
							C276.3,203.4,275.9,203.9,275.3,203.9z"/>
						<path fill="#121936" d="M309.4,243.4H196.2c-0.6,0-1-0.4-1-1c0-0.6,0.4-1,1-1h113.3c0.6,0,1,0.4,1,1
							C310.4,242.9,310,243.4,309.4,243.4z"/>
						<path fill="#121936" d="M309.4,266.8H196.2c-0.6,0-1-0.4-1-1c0-0.6,0.4-1,1-1h113.3c0.6,0,1,0.4,1,1
							C310.4,266.4,310,266.8,309.4,266.8z"/>
						<path fill="#121936" d="M309.4,288.8H196.2c-0.6,0-1-0.4-1-1s0.4-1,1-1h113.3c0.6,0,1,0.4,1,1S310,288.8,309.4,288.8z"/>
					</g>
				</g>
				<g>
					<g>
						<path fill="#FFD066" d="M247.6,93.9L247.6,93.9c-1.4-4.2-7.6-3.2-7.6,1.2l0,0c0,3.8-4.8,5.3-7,2.3v0c-2.6-3.6-8.2-0.7-6.8,3.5
							l0,0c1.2,3.6-2.9,6.6-6,4.3v0c-3.6-2.6-8,1.8-5.4,5.4h0c2.2,3-0.8,7.2-4.3,6h0c-4.2-1.4-7.1,4.2-3.5,6.8l0,0
							c3.1,2.2,1.5,7-2.3,7l0,0c-4.4,0-5.4,6.2-1.2,7.6l0,0c3.6,1.2,3.6,6.2,0,7.4l0,0c-4.2,1.4-3.2,7.6,1.2,7.6l0,0
							c3.8,0,5.3,4.8,2.3,7l0,0c-3.6,2.6-0.7,8.2,3.5,6.8h0c3.6-1.2,6.6,2.9,4.3,6l0,0c-2.6,3.6,1.8,8,5.4,5.4l0,0
							c3-2.2,7.2,0.8,6,4.3h0c-1.4,4.2,4.2,7.1,6.8,3.5l0,0c2.2-3.1,7-1.5,7,2.3l0,0c0,4.4,6.2,5.4,7.6,1.2l0,0
							c1.2-3.6,6.2-3.6,7.4,0l0,0c1.4,4.2,7.6,3.2,7.6-1.2l0,0c0-3.8,4.8-5.3,7-2.3l0,0c2.6,3.6,8.2,0.7,6.8-3.5l0,0
							c-1.2-3.6,2.9-6.6,6-4.3l0,0c3.6,2.6,8-1.8,5.4-5.4v0c-2.2-3,0.8-7.2,4.3-6h0c4.2,1.4,7.1-4.2,3.5-6.8l0,0
							c-3.1-2.2-1.5-7,2.3-7l0,0c4.4,0,5.4-6.2,1.2-7.6l0,0c-3.6-1.2-3.6-6.2,0-7.4l0,0c4.2-1.4,3.2-7.6-1.2-7.6l0,0
							c-3.8,0-5.3-4.8-2.3-7l0,0c3.6-2.6,0.7-8.2-3.5-6.8h0c-3.6,1.2-6.6-2.9-4.3-6l0,0c2.6-3.6-1.8-8-5.4-5.4v0
							c-3,2.2-7.2-0.8-6-4.3v0c1.4-4.2-4.2-7.1-6.8-3.5v0c-2.2,3.1-7,1.5-7-2.3l0,0c0-4.4-6.2-5.4-7.6-1.2l0,0
							C253.9,97.5,248.8,97.5,247.6,93.9z"/>
						<g>
							<path fill="#121936" d="M269.1,172.2h-35.7c-4.2,0-7.6-3.4-7.6-7.6v-28.2c0-4.2,3.4-7.6,7.6-7.6h35.7c4.2,0,7.6,3.4,7.6,7.6
								v28.2C276.7,168.8,273.3,172.2,269.1,172.2z M233.5,131.9c-2.5,0-4.6,2-4.6,4.6v28.2c0,2.5,2,4.6,4.6,4.6h35.7
								c2.5,0,4.6-2,4.6-4.6v-28.2c0-2.5-2-4.6-4.6-4.6H233.5z"/>
							<path fill="#121936" d="M268.3,131.9c-0.8,0-1.5-0.7-1.5-1.5v-8.2c0-5.5-5-9.9-11.2-9.9h-8.4c-6.2,0-11.2,4.4-11.2,9.9v8.2
								c0,0.8-0.7,1.5-1.5,1.5c-0.8,0-1.5-0.7-1.5-1.5v-8.2c0-7.1,6.4-12.9,14.2-12.9h8.4c7.9,0,14.2,5.8,14.2,12.9v8.2
								C269.8,131.2,269.1,131.9,268.3,131.9z"/>
							<g>
								<g>
									<path fill="#121936" d="M260.4,146.1c0-4.7-4-8.4-8.9-8.3c-4.6,0.1-8.5,3.6-8.6,8c-0.1,2.8,1.2,5.3,3.3,6.9
										c0.5,0.3,0.7,0.9,0.7,1.4v2.3c0,1,0.8,1.8,1.9,1.8h5.6c1,0,1.9-0.8,1.9-1.8v-2.3c0-0.6,0.3-1.1,0.7-1.4
										C259.1,151.2,260.4,148.8,260.4,146.1z"/>
									<g>
										<path fill="#121936" d="M253.5,161.3c0,1-0.8,1.9-1.9,1.9s-1.9-0.8-1.9-1.9s0.8-1.9,1.9-1.9S253.5,160.3,253.5,161.3z"/>
										<path fill="#FFD066" d="M251.6,163.4c-1.2,0-2.1-0.9-2.1-2.1c0-1.2,0.9-2.1,2.1-2.1c1.2,0,2.1,0.9,2.1,2.1
											C253.7,162.5,252.8,163.4,251.6,163.4z M251.6,159.7c-0.9,0-1.6,0.7-1.6,1.6s0.7,1.6,1.6,1.6c0.9,0,1.6-0.7,1.6-1.6
											S252.5,159.7,251.6,159.7z"/>
									</g>
									<g>
										<path fill="#121936" d="M254.4,160.2h-5.5c-0.4,0-0.7-0.3-0.7-0.7v-0.2c0-0.4,0.3-0.7,0.7-0.7h5.5c0.4,0,0.7,0.3,0.7,0.7
											v0.2C255,159.9,254.7,160.2,254.4,160.2z"/>
										<path fill="#FFD066" d="M254.4,160.4h-5.5c-0.5,0-0.9-0.4-0.9-0.9v-0.2c0-0.5,0.4-0.9,0.9-0.9h5.5c0.5,0,0.9,0.4,0.9,0.9
											v0.2C255.3,160,254.9,160.4,254.4,160.4z M248.8,158.9c-0.2,0-0.4,0.2-0.4,0.4v0.2c0,0.2,0.2,0.4,0.4,0.4h5.5
											c0.2,0,0.4-0.2,0.4-0.4v-0.2c0-0.2-0.2-0.4-0.4-0.4H248.8z"/>
									</g>
									<g>
										<path fill="#121936" d="M254,161.6h-4.9c-0.3,0-0.6-0.3-0.6-0.6v-0.2c0-0.3,0.3-0.6,0.6-0.6h4.9c0.3,0,0.6,0.3,0.6,0.6
											v0.2C254.6,161.3,254.3,161.6,254,161.6z"/>
										<path fill="#FFD066" d="M254,161.8h-4.9c-0.5,0-0.8-0.4-0.8-0.8v-0.2c0-0.5,0.4-0.8,0.8-0.8h4.9c0.5,0,0.8,0.4,0.8,0.8
											v0.2C254.9,161.4,254.5,161.8,254,161.8z M249.2,160.4c-0.2,0-0.3,0.2-0.3,0.3v0.2c0,0.2,0.2,0.3,0.3,0.3h4.9
											c0.2,0,0.3-0.2,0.3-0.3v-0.2c0-0.2-0.2-0.3-0.3-0.3H249.2z"/>
									</g>
									<path fill="#FFD066" d="M245.5,148.1c-0.2,0-0.3-0.1-0.4-0.3c-1.1-4,2.1-6.3,2.1-6.3c0.2-0.1,0.4-0.1,0.5,0.1
										c0.1,0.2,0.1,0.4-0.1,0.5c-0.1,0.1-2.8,2-1.8,5.5C245.9,147.9,245.8,148.1,245.5,148.1
										C245.6,148.1,245.5,148.1,245.5,148.1z"/>
								</g>
							</g>
						</g>
						<path fill="#121936" d="M203.6,106.4c-0.2,0-0.4-0.1-0.6-0.2l-9.4-7.5c-0.4-0.3-0.5-1-0.2-1.4c0.3-0.4,1-0.5,1.4-0.2l9.4,7.5
							c0.4,0.3,0.5,1,0.2,1.4C204.2,106.3,203.9,106.4,203.6,106.4z"/>
						<path fill="#121936" d="M183,142.2c-0.5,0-0.9-0.3-1-0.8c-0.1-0.5,0.2-1.1,0.7-1.2l11.7-2.8c0.5-0.1,1.1,0.2,1.2,0.7
							c0.1,0.5-0.2,1.1-0.7,1.2l-11.7,2.8C183.1,142.2,183,142.2,183,142.2z"/>
						<path fill="#121936" d="M196.4,123.2c-0.1,0-0.2,0-0.3,0l-11.6-3.2c-0.5-0.1-0.8-0.7-0.7-1.2c0.1-0.5,0.7-0.8,1.2-0.7
							l11.6,3.2c0.5,0.1,0.8,0.7,0.7,1.2C197.2,122.9,196.8,123.2,196.4,123.2z"/>
						<path fill="#121936" d="M306.6,141.3c-0.5,0-1-0.4-1-0.9c0-0.6,0.4-1,0.9-1.1l12-1c0.6,0,1,0.4,1.1,0.9c0,0.6-0.4,1-0.9,1.1
							L306.6,141.3C306.7,141.3,306.7,141.3,306.6,141.3z"/>
						<path fill="#121936" d="M305.1,123.2c-0.4,0-0.8-0.3-1-0.7c-0.1-0.5,0.2-1.1,0.7-1.2l11.6-3.2c0.5-0.1,1.1,0.2,1.2,0.7
							c0.1,0.5-0.2,1.1-0.7,1.2l-11.6,3.2C305.3,123.2,305.2,123.2,305.1,123.2z"/>
						<path fill="#121936" d="M314.3,161.2c-0.2,0-0.3,0-0.5-0.1l-10.7-5.6c-0.5-0.3-0.7-0.9-0.4-1.3c0.3-0.5,0.9-0.7,1.3-0.4
							l10.7,5.6c0.5,0.3,0.7,0.9,0.4,1.3C315,161.1,314.6,161.2,314.3,161.2z"/>
						<g>
							<path fill="#121936" d="M300.4,107c0,7.7-6.2,14.2-14.1,14.2c-7.9,0-14-6.4-14-14.1s6.2-14.2,14.1-14.2
								C294.2,92.9,300.4,99.2,300.4,107z M275.1,107.1c0,6.1,4.8,11.2,11.1,11.2c6.4,0,11.2-5.1,11.2-11.3s-4.9-11.2-11.1-11.2
								C280,95.8,275.1,100.9,275.1,107.1z M290.9,104.1L290.9,104.1c-0.6,0.7-1.7,1-2.5,0.4c-0.6-0.4-1.2-0.6-1.8-0.6
								c-1.6,0-2.7,1.2-2.7,3c0,1.8,1.2,3,2.7,3c0.6,0,1.2-0.2,1.8-0.6c0.7-0.4,1.7-0.3,2.2,0.3l0,0c0.8,0.8,0.6,2.1-0.3,2.8
								c-1.3,0.8-2.7,1.3-4.1,1.3c-4,0-6.9-2.8-6.9-6.7c0-3.9,3-6.7,7.1-6.7c1.3,0,2.8,0.4,4,1.1C291.5,102,291.6,103.3,290.9,104.1
								z"/>
						</g>
					</g>
				</g>
			</g>
		</g>
		<g>
			<path fill="#EDEDED" d="M285,336.2v44.2c0,17.5,14.2,31.7,31.7,31.7h5.9c21,0,38.1-17,38.1-38.1v0c0-14.8,12-26.8,26.8-26.8h11
				c2.5,0,4.9,0.4,7.2,1.2v-1.2h0.3v-16.6c0-11.8-9.6-21.4-21.4-21.4H259.2v0C273.6,309.8,285,321.7,285,336.2z"/>
			
				<line fill="none" stroke="#FAF8F3" stroke-width="0" stroke-linecap="round" stroke-linejoin="round" x1="576.4" y1="414.3" x2="576.4" y2="414.3"/>
			<path fill="#EDEDED" d="M552.6,385.7l-0.2-17.1c0-11.8-9.6-21.4-21.4-21.4h-125h-0.3v1.2c9,3,15.6,11.5,15.6,21.6v10.8
				c0,18.5,15,33.5,33.5,33.5l0,0h121.7C562.7,411.6,552.8,399.7,552.6,385.7z"/>
			<path fill="#121936" d="M167.3,388.1c0,1.7,0.2,3.4,0.5,5c-0.3-1.7-0.5-3.4-0.5-5.3L167.3,388.1z"/>
			
				<line fill="none" stroke="#121936" stroke-width="0" stroke-linecap="round" stroke-linejoin="round" x1="454.7" y1="414.3" x2="454.7" y2="414.3"/>
			<path fill="#121936" d="M421.2,380.8V370c0-10.1-6.5-18.6-15.6-21.6c-2.3-0.8-4.7-1.2-7.2-1.2h-11c-14.8,0-26.8,12-26.8,26.8v0
				c0,21-17,38.1-38.1,38.1h-5.9c-17.5,0-31.7-14.2-31.7-31.7v-44.2c0-14.5-11.5-26.4-25.8-27c-0.4,0-0.8,0-1.2,0h0
				c-18.3,0-33,14.8-33,33v36.2c0,18.6-15.1,33.7-33.7,33.7h0c-11.5,0-21.1-8.1-23.4-18.9c2.3,12.3,12.8,21.1,26,21.1h211.7h49.1
				C436.2,414.3,421.2,399.3,421.2,380.8z"/>
		</g>
	</g>
	<g>
		<g>
			<g>
				<path fill="#FFA386" d="M198.2,254.9c-4.7-10.1-15.6-2.7-22.6,0.9c-3.2,2-6.1,3.7-8.9,5.3c0.5-3.8,1.1-7.7,0.3-11.5
					c-0.3-1.2-0.8-2.6-1.9-3.2c-0.8-0.5-1.9-0.4-2.7,0.1c-0.8,0.4-1.5,1.1-2.1,1.8c-5.7,6.3-18.5,27.9-18.5,27.9
					c-2.4,5.2-4.1,11-4.8,16.8c-2.2,16.7,13,32,29,28.6c2-0.4,3.7-1,4.9-2l26.9-19.3c5.1-3.3,5.7-11.5,0.9-11.5
					c4.6-1.4,9-4.6,6.4-10.3c-1.1-3.3-3.7-3.8-6.4-3.4c4.1-1.4,7.9-3.5,6-8.4c-1.3-5.5-5.8-5.7-9.9-4.7
					C197.5,260.6,199.5,258.5,198.2,254.9z"/>
			</g>
			<path fill="#FF6A48" d="M155.1,268.9c-0.3,0-0.7-0.2-0.9-0.5c-0.3-0.5-0.1-1.1,0.4-1.4l14.5-8.5c0.5-0.3,1.1-0.1,1.4,0.4
				c0.3,0.5,0.1,1.1-0.4,1.4l-14.5,8.5C155.4,268.8,155.2,268.9,155.1,268.9z"/>
			<path fill="#FF6A48" d="M184.3,268.9c-0.3,0-0.7-0.2-0.9-0.5c-0.3-0.5-0.1-1.1,0.3-1.4c1-0.6,10-6,11.9-6.5
				c0.5-0.1,1.1,0.2,1.2,0.7c0.1,0.5-0.2,1.1-0.7,1.2c-1.2,0.3-7.6,4-11.4,6.3C184.6,268.8,184.4,268.9,184.3,268.9z"/>
			<path fill="#FF6A48" d="M189.7,281.5c-0.3,0-0.7-0.2-0.9-0.5c-0.3-0.5-0.1-1.1,0.4-1.4l9.1-5.3c0.5-0.3,1.1-0.1,1.4,0.4
				c0.3,0.5,0.1,1.1-0.4,1.4l-9.1,5.3C190,281.4,189.8,281.5,189.7,281.5z"/>
			<path fill="#FF6A48" d="M192.4,293.3c-0.4,0-0.7-0.2-0.9-0.5c-0.3-0.5-0.1-1.1,0.4-1.4l5-2.7c0.5-0.3,1.1-0.1,1.4,0.4
				c0.3,0.5,0.1,1.1-0.4,1.4l-5,2.7C192.7,293.3,192.6,293.3,192.4,293.3z"/>
		</g>
		<g>
			<g>
				<path fill="#FF6A48" d="M380.5,199.7l6.1,5.3c1.6,1.3,1.7,3.8,0.3,5.4l-5.5,6.4c-1.4,1.6-3.8,1.9-5.4,0.5l-6.1-5.3
					c-1.6-1.3-1.7-3.8-0.3-5.4l5.5-6.4C376.6,198.5,379,198.3,380.5,199.7z"/>
				
					<rect x="306.4" y="233.6" transform="matrix(0.651 -0.7591 0.7591 0.651 -61.0687 349.9908)" fill="#FFD066" width="87.4" height="15.6"/>
				<path fill="#FFAA89" d="M315.8,269.6l11.6,9.9c0.1,0,0.2,0.2,0,0.2l-18.2,9.4l0,0l6.5-19.5C315.7,269.6,315.8,269.5,315.8,269.6
					z"/>
				<path fill="#233863" d="M311.6,282.1l4.2,3.6c0,0,0.1,0.1,0,0.1l-6.5,3.4l0,0L311.6,282.1C311.5,282.1,311.6,282.1,311.6,282.1z
					"/>
				<path fill="#FFFFFF" d="M368.4,225.6c-0.1,0-0.2,0-0.3-0.1c-0.2-0.2-0.2-0.5-0.1-0.7l8.2-9.5c0.2-0.2,0.5-0.2,0.7-0.1
					c0.2,0.2,0.2,0.5,0.1,0.7l-8.2,9.5C368.7,225.5,368.6,225.6,368.4,225.6z"/>
				<path fill="#FFFFFF" d="M348.3,239.5c-0.1,0-0.2,0-0.3-0.1c-0.2-0.2-0.2-0.5-0.1-0.7l23.6-27.5c0.2-0.2,0.5-0.2,0.7-0.1
					c0.2,0.2,0.2,0.5,0.1,0.7l-23.6,27.5C348.6,239.4,348.5,239.5,348.3,239.5z"/>
			</g>
			<g>
				<path fill="#FFAA89" d="M524.3,319l-100.9-66.7L400,233.9c-6.5-5.1-14.4-8.3-22.7-9.1l-26.8-2.7c-3.8-0.4-7.7,0.3-11.2,2.1
					l-12.7,6.5c-2,1-3.2,3.2-3.1,5.5l0.1,1.5l-1,0.5c-2.7,1.3-4.4,4-4.4,6.9l0,5.3l-0.9,2.1c-1.2,2.8-0.7,6.1,1.4,8.4l19.8,22.2
					c1.2,1.4,3.3,1.4,4.6,0.1c3.1-3.2,3.3-8.3,0.5-11.8l-6.1-7.6l20.5,12.1c3.4,2,7.2,3.2,11.1,3.4l12.6,0.8l13,14.9l78.3,94.4
					c9.4,10.1,21.4,15.8,33.8,17.3c24.9,3.1,48.6-11.8,57.8-35.2l7.2-15.7L524.3,319z"/>
			</g>
			<path fill="#FF6A48" d="M324,239.1c-0.4,0-0.8-0.3-1-0.7c-0.2-0.5,0.1-1.1,0.6-1.3l15.2-4.9c0.5-0.2,1.1,0.1,1.3,0.6
				c0.2,0.5-0.1,1.1-0.6,1.3l-15.2,4.9C324.2,239.1,324.1,239.1,324,239.1z"/>
			<path fill="#FF6A48" d="M318.9,251.2c-0.4,0-0.9-0.3-1-0.8c-0.1-0.5,0.2-1.1,0.7-1.2l18.9-4.8c0.5-0.1,1.1,0.2,1.2,0.7
				c0.1,0.5-0.2,1.1-0.7,1.2l-18.9,4.8C319.1,251.1,319,251.2,318.9,251.2z"/>
			<path fill="#FF6A48" d="M337.5,264.6c-0.3,0-0.5-0.1-0.7-0.3l-3.8-4.3c-0.4-0.4-0.3-1,0.1-1.4c0.4-0.4,1-0.3,1.4,0.1l3.8,4.3
				c0.4,0.4,0.3,1-0.1,1.4C338,264.6,337.8,264.6,337.5,264.6z"/>
			<path fill="#FF6A48" d="M381.7,280.9c-0.5,0-1-0.4-1-1c0-0.6,0.4-1,1-1l14.9-0.6c0.5,0,1,0.4,1,1c0,0.6-0.4,1-1,1L381.7,280.9
				C381.7,280.9,381.7,280.9,381.7,280.9z"/>
		</g>
	</g>
</g>
<g id="BACKGROUND">
	<g>
		<g>
			<path fill="#FFFFFF" d="M7.6,184.9c-1.6,0-2.9-1.3-2.9-2.9c0-1.6,1.3-2.9,2.9-2.9c1.6,0,2.9,1.3,2.9,2.9
				C10.4,183.6,9.2,184.9,7.6,184.9z M7.6,180.1c-1,0-1.9,0.8-1.9,1.9c0,1,0.8,1.9,1.9,1.9s1.9-0.8,1.9-1.9
				C9.4,181,8.6,180.1,7.6,180.1z"/>
			<path fill="#FFFFFF" d="M152.2,17.9c-1.1,0-2.1-0.9-2.1-2.1c0-1.1,0.9-2.1,2.1-2.1c1.1,0,2.1,0.9,2.1,2.1
				C154.3,17,153.4,17.9,152.2,17.9z M152.2,14.5c-0.7,0-1.3,0.6-1.3,1.3c0,0.7,0.6,1.3,1.3,1.3c0.7,0,1.3-0.6,1.3-1.3
				C153.5,15.1,152.9,14.5,152.2,14.5z"/>
			<path fill="#121936" d="M43.5,191.4c0,1.7-1.3,3-3,3c-1.7,0-3-1.3-3-3c0-1.7,1.3-3,3-3C42.2,188.4,43.5,189.7,43.5,191.4z"/>
			<path fill="#121936" d="M127.8,44c0,0.8-0.7,1.5-1.5,1.5c-0.8,0-1.5-0.7-1.5-1.5c0-0.8,0.7-1.5,1.5-1.5
				C127.1,42.5,127.8,43.1,127.8,44z"/>
			<path fill="#121936" d="M55.5,356c0,0.8-0.7,1.5-1.5,1.5c-0.8,0-1.5-0.7-1.5-1.5s0.7-1.5,1.5-1.5C54.9,354.5,55.5,355.1,55.5,356
				z"/>
			<path fill="#121936" d="M166.4,225.2c0,0.8-0.7,1.5-1.5,1.5c-0.8,0-1.5-0.7-1.5-1.5c0-0.8,0.7-1.5,1.5-1.5
				C165.7,223.7,166.4,224.4,166.4,225.2z"/>
			<path fill="#FFFFFF" d="M14.4,218.3c0,1.2-1,2.2-2.2,2.2c-1.2,0-2.2-1-2.2-2.2c0-1.2,1-2.2,2.2-2.2
				C13.4,216.1,14.4,217.1,14.4,218.3z"/>
			<path fill="#FFFFFF" d="M99.8,375.5c-0.1,0-0.3,0-0.4,0c-0.8-0.1-1.4-0.5-1.9-1.1c-1-1.3-0.7-3.1,0.5-4c1.3-1,3.1-0.7,4,0.5
				c0.5,0.6,0.7,1.4,0.6,2.1c-0.1,0.8-0.5,1.4-1.1,1.9C101,375.3,100.4,375.5,99.8,375.5z M99.8,370.8c-0.4,0-0.8,0.1-1.1,0.4
				c-0.8,0.6-1,1.8-0.3,2.6c0.3,0.4,0.7,0.7,1.2,0.7c0.5,0.1,1-0.1,1.4-0.4c0.4-0.3,0.7-0.7,0.7-1.2c0.1-0.5-0.1-1-0.4-1.4v0
				c-0.3-0.4-0.7-0.7-1.2-0.7C100,370.8,99.9,370.8,99.8,370.8z"/>
			<path fill="#121936" d="M129.8,341.5c1,1.3,0.8,3.2-0.6,4.2s-3.2,0.8-4.2-0.6c-1-1.3-0.8-3.2,0.6-4.2
				C126.9,340,128.8,340.2,129.8,341.5z"/>
			<path fill="#FFFFFF" d="M176.3,35.2c0,0.6-0.5,1.1-1.1,1.1c-0.6,0-1.1-0.5-1.1-1.1c0-0.6,0.5-1.1,1.1-1.1
				C175.8,34.1,176.3,34.6,176.3,35.2z"/>
			<path fill="#FFFFFF" d="M122.8,186.6c0,0.6-0.5,1.1-1.1,1.1c-0.6,0-1.1-0.5-1.1-1.1c0-0.6,0.5-1.1,1.1-1.1
				C122.3,185.5,122.8,186,122.8,186.6z"/>
			<path fill="#FFFFFF" d="M79.4,401.9c0,0.6-0.5,1.1-1.1,1.1c-0.6,0-1.1-0.5-1.1-1.1c0-0.6,0.5-1.1,1.1-1.1
				C78.9,400.8,79.4,401.3,79.4,401.9z"/>
			<circle fill="#FFFFFF" cx="97.3" cy="25.6" r="3"/>
			<circle fill="#FFFFFF" cx="142.7" cy="400.8" r="3"/>
		</g>
		<g>
			<path fill="#FFFFFF" d="M654.4,104.5c-0.2,0-0.4,0-0.6-0.1c-0.8-0.2-1.4-0.6-1.8-1.2c-0.9-1.3-0.5-3.1,0.8-4
				c1.3-0.9,3.1-0.5,4,0.8c0.9,1.3,0.5,3.1-0.8,4C655.5,104.4,655,104.5,654.4,104.5z M654.4,99.8c-0.4,0-0.7,0.1-1,0.3
				c-0.9,0.6-1.1,1.7-0.5,2.6v0c0.3,0.4,0.7,0.7,1.2,0.8c0.5,0.1,1,0,1.4-0.3c0.9-0.6,1.1-1.7,0.5-2.6
				C655.6,100.1,655,99.8,654.4,99.8z"/>
			<path fill="#FFFFFF" d="M483.2,17.9c-1.1,0-2.1-0.9-2.1-2.1c0-1.1,0.9-2.1,2.1-2.1c1.1,0,2.1,0.9,2.1,2.1
				C485.3,17,484.3,17.9,483.2,17.9z M483.2,14.5c-0.7,0-1.3,0.6-1.3,1.3c0,0.7,0.6,1.3,1.3,1.3c0.7,0,1.3-0.6,1.3-1.3
				C484.5,15.1,483.9,14.5,483.2,14.5z"/>
			<path fill="#121936" d="M629.7,129.4c0.9,1.4,2.8,1.7,4.2,0.8c1.4-0.9,1.7-2.8,0.8-4.2c-0.9-1.4-2.8-1.7-4.2-0.8
				C629.2,126.1,628.8,128,629.7,129.4z"/>
			<path fill="#121936" d="M485.8,52.4c0,0.8,0.7,1.5,1.5,1.5s1.5-0.7,1.5-1.5c0-0.8-0.7-1.5-1.5-1.5S485.8,51.6,485.8,52.4z"/>
			<path fill="#121936" d="M352.9,115.8c0,0.8,0.7,1.5,1.5,1.5c0.8,0,1.5-0.7,1.5-1.5s-0.7-1.5-1.5-1.5
				C353.6,114.3,352.9,114.9,352.9,115.8z"/>
			<circle fill="#121936" cx="611.1" cy="367.4" r="3.2"/>
			<path fill="#121936" d="M650,261.5c0,0.8,0.7,1.5,1.5,1.5s1.5-0.7,1.5-1.5s-0.7-1.5-1.5-1.5S650,260.7,650,261.5z"/>
			<path fill="#FFFFFF" d="M668.9,135.7c0.7,1,2,1.3,3.1,0.6c1-0.7,1.3-2,0.6-3.1c-0.7-1-2-1.3-3.1-0.6
				C668.5,133.3,668.2,134.6,668.9,135.7z"/>
			<path fill="#FFFFFF" d="M654.4,351.3c-0.6,0-1.2-0.2-1.7-0.6c-0.6-0.5-1-1.1-1.1-1.9c-0.1-0.8,0.1-1.5,0.6-2.1l0,0
				c0.5-0.6,1.1-1,1.9-1.1c0.8-0.1,1.5,0.1,2.1,0.6c1.3,1,1.5,2.8,0.5,4C656.1,350.9,655.3,351.3,654.4,351.3z M654.4,346.6
				c-0.1,0-0.2,0-0.2,0c-0.5,0.1-0.9,0.3-1.2,0.7v0c-0.3,0.4-0.4,0.9-0.4,1.4c0.1,0.5,0.3,0.9,0.7,1.2c0.8,0.6,2,0.5,2.6-0.3
				c0.6-0.8,0.5-2-0.3-2.6C655.2,346.7,654.8,346.6,654.4,346.6z M652.5,347L652.5,347L652.5,347z"/>
			<path fill="#FFFFFF" d="M437.8,13.3c0,0.6,0.5,1.1,1.1,1.1c0.6,0,1.1-0.5,1.1-1.1c0-0.6-0.5-1.1-1.1-1.1
				C438.3,12.2,437.8,12.7,437.8,13.3z"/>
			<path fill="#121936" d="M314.5,33.8c-0.2,0.8,0.3,1.6,1.2,1.8c0.8,0.2,1.6-0.3,1.8-1.2c0.2-0.8-0.3-1.6-1.2-1.8
				C315.4,32.4,314.6,33,314.5,33.8z"/>
			<path fill="#FFFFFF" d="M331.6,2.9c-0.1,0.6,0.3,1.2,0.9,1.3c0.6,0.1,1.2-0.3,1.3-0.9s-0.3-1.2-0.9-1.3
				C332.3,1.9,331.7,2.3,331.6,2.9z"/>
			<path fill="#FFFFFF" d="M672.5,303.5c0,0.6,0.5,1.1,1.1,1.1c0.6,0,1.1-0.5,1.1-1.1c0-0.6-0.5-1.1-1.1-1.1
				C673,302.4,672.5,302.9,672.5,303.5z"/>
			<path fill="#FFFFFF" d="M638.5,62c0,0.6,0.5,1.1,1.1,1.1c0.6,0,1.1-0.5,1.1-1.1c0-0.6-0.5-1.1-1.1-1.1
				C639,60.9,638.5,61.4,638.5,62z"/>
			<path fill="#FFFFFF" d="M351.8,71.1c0,0.6,0.5,1.1,1.1,1.1c0.6,0,1.1-0.5,1.1-1.1c0-0.6-0.5-1.1-1.1-1.1
				C352.3,70,351.8,70.5,351.8,71.1z"/>
			<path fill="#FFFFFF" d="M589.9,211.5c0,0.6,0.5,1.1,1.1,1.1c0.6,0,1.1-0.5,1.1-1.1c0-0.6-0.5-1.1-1.1-1.1
				C590.4,210.4,589.9,210.9,589.9,211.5z"/>
			<path fill="#FFFFFF" d="M639.8,393.7c0,0.6,0.5,1.1,1.1,1.1c0.6,0,1.1-0.5,1.1-1.1s-0.5-1.1-1.1-1.1
				C640.3,392.6,639.8,393,639.8,393.7z"/>
			<path fill="#FFFFFF" d="M512.4,10.3c0,1.7,1.4,3,3,3c1.7,0,3-1.4,3-3s-1.4-3-3-3C513.7,7.2,512.4,8.6,512.4,10.3z"/>
			<path fill="#FFFFFF" d="M376.7,20.8c-0.3,1.6,0.7,3.2,2.3,3.6c1.6,0.3,3.2-0.7,3.6-2.3c0.3-1.6-0.7-3.2-2.3-3.6
				C378.7,18.1,377.1,19.2,376.7,20.8z"/>
			<circle fill="#FFFFFF" cx="588" cy="400.8" r="3"/>
		</g>
	</g>
	<g>
		<g>
			<g>
				<path fill="#FFC0B3" d="M149.7,189.4c-1,0-1.9,0.8-1.9,1.9s0.8,1.9,1.9,1.9c1,0,1.9-0.8,1.9-1.9S150.7,189.4,149.7,189.4z"/>
			</g>
		</g>
		<g>
			<g>
				<path fill="#FFC0B3" d="M185.5,237.2l-25.1-25.1c4.1-6.2,6.3-13.3,6.3-20.8c0-20.8-16.9-37.7-37.7-37.7s-37.7,16.9-37.7,37.7
					S108.2,229,129,229c7.5,0,14.6-2.2,20.8-6.3l7,7c0,0,0,0,0,0l18.2,18.2c1.4,1.4,3.3,2.2,5.3,2.2c2,0,3.9-0.8,5.3-2.2
					c1.4-1.4,2.2-3.3,2.2-5.3C187.7,240.5,187,238.7,185.5,237.2z M148.8,218.8C148.8,218.8,148.8,218.8,148.8,218.8
					c-5.8,4.2-12.7,6.5-19.9,6.5c-18.7,0-33.9-15.2-33.9-33.9s15.2-33.9,33.9-33.9s33.9,15.2,33.9,33.9c0,7.2-2.2,14.1-6.5,19.9
					C154.3,214.1,151.8,216.7,148.8,218.8z M152.8,220.5c1.9-1.6,3.7-3.4,5.3-5.3l5.3,5.3c-1.6,1.9-3.4,3.7-5.3,5.3L152.8,220.5z
					 M182.9,245.2c-0.7,0.7-1.7,1.1-2.7,1.1s-2-0.4-2.7-1.1l-16.7-16.7c1.9-1.6,3.7-3.4,5.3-5.3l16.7,16.7c0.7,0.7,1.1,1.7,1.1,2.7
					C184,243.6,183.6,244.5,182.9,245.2z"/>
			</g>
		</g>
		<g>
			<g>
				<path fill="#FFC0B3" d="M129,161.2c-16.6,0-30.1,13.5-30.1,30.1s13.5,30.1,30.1,30.1s30.1-13.5,30.1-30.1S145.6,161.2,129,161.2
					z M129,217.7c-14.5,0-26.4-11.8-26.4-26.4S114.4,165,129,165s26.4,11.8,26.4,26.4C155.3,205.9,143.5,217.7,129,217.7z"/>
			</g>
		</g>
		<g>
			<g>
				<path fill="#FFC0B3" d="M150.1,183.2c-1.6-4.2-4.4-7.8-8.2-10.4c-3.8-2.7-8.3-4.1-12.9-4.1c-1,0-1.9,0.8-1.9,1.9
					c0,1,0.8,1.9,1.9,1.9c7.7,0,14.8,4.9,17.6,12.1c0.3,0.7,1,1.2,1.8,1.2c0.2,0,0.5,0,0.7-0.1C150,185.3,150.4,184.2,150.1,183.2z"
					/>
			</g>
		</g>
	</g>
</g>
</svg>
