<svg xmlns="http://www.w3.org/2000/svg" xmlns:xlink="http://www.w3.org/1999/xlink" width="160" height="160" viewBox="0 0 160 160">
  <defs>
    <linearGradient id="linear-gradient" x1="1" y1="0.638" x2="-0.024" y2="0.308" gradientUnits="objectBoundingBox">
      <stop offset="0" stop-color="#fff"/>
      <stop offset="1" stop-color="#cae4fc"/>
    </linearGradient>
  </defs>
  <g id="Banking" transform="translate(-1882 -4535)">
    <circle id="Ellipse_404" data-name="Ellipse 404" cx="80" cy="80" r="80" transform="translate(1882 4535)" opacity="0.53" fill="url(#linear-gradient)"/>
    <g id="bank" transform="translate(1917.322 4565.271)">
      <g id="Group_65185" data-name="Group 65185" transform="translate(17.126 0.063)">
        <path id="Path_21180" data-name="Path 21180" d="M153.334,114.368a4.026,4.026,0,0,0-.6-2.124l-3.819-6.148a6.733,6.733,0,0,1-.719-3.048V84.105a22.264,22.264,0,0,0-22.264-22.264H115.655A22.264,22.264,0,0,0,93.391,84.105v18.942a6.727,6.727,0,0,1-.719,3.048l-3.819,6.148a4.026,4.026,0,0,0-.6,2.124h0a4.005,4.005,0,0,0,3.99,3.99h57.1A4.006,4.006,0,0,0,153.334,114.368Z" transform="translate(-88.253 -49.853)" fill="#88b337"/>
        <path id="Path_21181" data-name="Path 21181" d="M204.174,12.051,212.737.063h-27.4L193.9,12.051v3.425h10.276Z" transform="translate(-166.496 -0.063)" fill="#88b337"/>
      </g>
      <path id="Path_21182" data-name="Path 21182" d="M233.608,147.808l-3.819-6.148a6.733,6.733,0,0,1-.719-3.048V119.669a22.258,22.258,0,0,0-4.675-13.7c-4.573,25.193-20.672,39.716-35.794,47.954h41.617a4.008,4.008,0,0,0,3.425-6.114Z" transform="translate(-152.001 -85.353)" fill="#6b962a"/>
      <path id="Path_21183" data-name="Path 21183" d="M228.858,151.546v-1.1A5.772,5.772,0,0,0,223.1,144.7h-1.1V141.27h-3.425V144.7h-1.1a5.754,5.754,0,0,0-2.021,11.149l3.117,1.165v6.525h-1.1a2.33,2.33,0,0,1-2.329-2.329h0v-1.1h-3.425v1.1a5.772,5.772,0,0,0,5.755,5.755H223.1a5.754,5.754,0,0,0,2.021-11.149l-3.117-1.165v-6.525h1.1a2.33,2.33,0,0,1,2.329,2.329h0v1.1Zm-4.932,7.467a2.365,2.365,0,0,1,1.507,2.192,2.33,2.33,0,0,1-2.329,2.329h-1.1v-5.241Zm-5.343-5.652-1.918-.719a2.365,2.365,0,0,1-1.507-2.192,2.33,2.33,0,0,1,2.329-2.329h1.1Z" transform="translate(-170.628 -113.805)" fill="#fff"/>
      <g id="Group_65186" data-name="Group 65186" transform="translate(0 3.488)">
        <path id="Path_21184" data-name="Path 21184" d="M404,31.414h0a8.323,8.323,0,0,0-6.851-6.851h0A8.323,8.323,0,0,0,404,17.713h0a8.323,8.323,0,0,0,6.851,6.851h0A8.323,8.323,0,0,0,404,31.414Z" transform="translate(-320.076 -17.713)" fill="#fdb62f"/>
        <path id="Path_21185" data-name="Path 21185" d="M6.851,207.924h0A8.323,8.323,0,0,0,0,201.074H0a8.323,8.323,0,0,0,6.851-6.851h0a8.323,8.323,0,0,0,6.851,6.851h0A8.322,8.322,0,0,0,6.851,207.924Z" transform="translate(0 -159.97)" fill="#fdb62f"/>
      </g>
      <path id="Path_21186" data-name="Path 21186" d="M134.161,273.2a5.138,5.138,0,0,0-6.851-1.9l-24.3,10.379a3.437,3.437,0,0,1-1.353.274H71.529a3.425,3.425,0,0,1,0-6.851h13.7a10.275,10.275,0,0,0,10.276-10.276h-28.5a15.572,15.572,0,0,0-12.143,5.84l-10.738,13,12.091,22.161,46.533-11.184a24.715,24.715,0,0,0,5.789-2.124l23.977-12.28A5.136,5.136,0,0,0,134.161,273.2Z" transform="translate(-35.564 -213.384)" fill="#fec9a3"/>
      <path id="Path_21187" data-name="Path 21187" d="M86.578,386.116l3.853,7.056,46.533-11.184a24.714,24.714,0,0,0,5.789-2.124l12.965-6.662C134.172,379.8,105.571,383.907,86.578,386.116Z" transform="translate(-69.777 -300.73)" fill="#f7bb8f"/>
      <path id="Path_21188" data-name="Path 21188" d="M0,331.743V362.57H22.264l5.138-5.138L6.851,326.6Z" transform="translate(0 -263.174)" fill="#4398d1"/>
      <path id="Path_21189" data-name="Path 21189" d="M0,467.129H22.264l5.138-5.138-3.768-5.652A121.124,121.124,0,0,1,0,463.378Z" transform="translate(0 -367.732)" fill="#3e8cc7"/>
      <circle id="Ellipse_449" data-name="Ellipse 449" cx="3.425" cy="3.425" r="3.425" transform="translate(11.988 87.413)" fill="#d9d9d9"/>
    </g>
  </g>
</svg>
