<svg xmlns="http://www.w3.org/2000/svg" xmlns:xlink="http://www.w3.org/1999/xlink" width="159" height="160" viewBox="0 0 159 160">
  <defs>
    <linearGradient id="linear-gradient" x1="1" y1="0.638" x2="-0.024" y2="0.308" gradientUnits="objectBoundingBox">
      <stop offset="0" stop-color="#fff"/>
      <stop offset="1" stop-color="#cae4fc"/>
    </linearGradient>
  </defs>
  <g id="Figma" transform="translate(-94 -66)">
    <g id="Education" transform="translate(93.674 66.254)">
      <ellipse id="Ellipse_404" data-name="Ellipse 404" cx="79.5" cy="80" rx="79.5" ry="80" transform="translate(0.326 -0.254)" opacity="0.53" fill="url(#linear-gradient)"/>
    </g>
    <g id="figma-2" data-name="figma" transform="translate(58.266 100)">
      <path id="Path_21322" data-name="Path 21322" d="M256.6,185.889a15.222,15.222,0,1,1,15.222,15.222A15.222,15.222,0,0,1,256.6,185.889Z" transform="translate(-141.207 -140.223)" fill="#00bcff"/>
      <path id="Path_21323" data-name="Path 21323" d="M85.932,336.83a15.222,15.222,0,0,1,15.222-15.222l8.112-4.283,7.11,4.283V336.83a15.222,15.222,0,0,1-30.444,0Z" transform="translate(-0.984 -260.719)" fill="#00cf7f"/>
      <path id="Path_21324" data-name="Path 21324" d="M218.448,0l-8.283,14.39,8.283,16.054h15.009a15.222,15.222,0,0,0,0-30.444Z" transform="translate(-103.056)" fill="#ff7361"/>
      <path id="Path_21325" data-name="Path 21325" d="M84.734,15.222A15.222,15.222,0,0,0,99.956,30.444l8.075,3.119,7.361-3.119V0H99.956A15.222,15.222,0,0,0,84.734,15.222Z" fill="#ff4d12"/>
      <path id="Path_21326" data-name="Path 21326" d="M85.932,185.888a15.222,15.222,0,0,0,15.222,15.222h15.222V170.666H101.154A15.222,15.222,0,0,0,85.932,185.888Z" transform="translate(-0.984 -140.222)" fill="#b659ff"/>
    </g>
  </g>
</svg>
