<svg xmlns="http://www.w3.org/2000/svg" width="71.307" height="96.665" viewBox="0 0 71.307 96.665">
  <g id="java-icon" transform="translate(0)">
    <g id="Group_65215" data-name="Group 65215" transform="translate(0)">
      <path id="Path_21299" data-name="Path 21299" d="M23.042,57.057s-3.715,2.259,2.583,2.906c7.552.967,11.621.807,20.012-.807a30.24,30.24,0,0,0,5.326,2.583c-18.88,8.071-42.773-.483-27.924-4.682ZM20.625,46.566s-4.036,3.066,2.26,3.715a76.444,76.444,0,0,0,25.827-1.29,9.848,9.848,0,0,0,3.873,2.42c-22.758,6.779-48.259.646-31.959-4.842ZM65.172,64.992s2.743,2.26-3.066,4.036c-10.814,3.232-45.353,4.229-55.038,0-3.389-1.45,3.066-3.549,5.135-3.873a16.14,16.14,0,0,1,3.232-.483C11.72,62.089-9.259,70,4.785,72.224c38.575,6.3,70.371-2.743,60.363-7.262Zm-40.384-29.4s-17.593,4.229-6.3,5.649c4.842.646,14.364.483,23.241-.16,7.262-.646,14.5-1.933,14.5-1.933A38.9,38.9,0,0,0,51.875,41.4C33.962,46.085-.42,43.986,9.427,39.144a33.456,33.456,0,0,1,15.333-3.549ZM56.264,53.181c18.076-9.364,9.684-18.426,3.873-17.27a10.2,10.2,0,0,0-2.1.646,2.767,2.767,0,0,1,1.613-1.29c11.461-4.036,20.5,12.1-3.715,18.426a2.02,2.02,0,0,0,.323-.483ZM26.6,78.685c17.43,1.13,44.063-.646,44.707-8.881,0,0-1.29,3.232-14.364,5.649C42.094,78.2,23.694,77.869,12.88,76.1c0,0,2.26,1.933,13.72,2.583Z" transform="translate(0 17.673)" fill="#4e7896"/>
      <path id="Path_21300" data-name="Path 21300" d="M37.531,0S47.539,10.168,28.01,25.5c-15.656,12.427-3.549,19.529,0,27.6-9.2-8.231-15.817-15.5-11.3-22.272C23.328,20.819,41.567,16.007,37.531,0ZM32.4,46.323c4.682,5.326-1.29,10.168-1.29,10.168s11.944-6.132,6.455-13.72c-5-7.262-8.881-10.814,12.1-22.918,0,0-33.086,8.231-17.269,26.471Z" transform="translate(7.785)" fill="#f58219"/>
    </g>
  </g>
</svg>
