<svg xmlns="http://www.w3.org/2000/svg" xmlns:xlink="http://www.w3.org/1999/xlink" width="159" height="160" viewBox="0 0 159 160">
  <defs>
    <linearGradient id="linear-gradient" x1="1" y1="0.638" x2="-0.024" y2="0.308" gradientUnits="objectBoundingBox">
      <stop offset="0" stop-color="#fff"/>
      <stop offset="1" stop-color="#cae4fc"/>
    </linearGradient>
  </defs>
  <g id="Jquery" transform="translate(-94 -66)">
    <g id="Education" transform="translate(93.674 66.254)">
      <ellipse id="Ellipse_404" data-name="Ellipse 404" cx="79.5" cy="80" rx="79.5" ry="80" transform="translate(0.326 -0.254)" opacity="0.53" fill="url(#linear-gradient)"/>
    </g>
    <g id="jquery-icon" transform="translate(131 105)">
      <path id="Path_21289" data-name="Path 21289" d="M5.446,19.4C-2.143,30.314-1.2,44.51,4.6,56.137c.134.279.282.552.424.826l.268.523c.054.1.113.2.169.3.1.188.2.359.3.542l.555.949.316.52L7.277,60.8l.274.424.93,1.341.182.247q.415.57.847,1.126l.322.408.783.965.3.359c.357.421.724.839,1.091,1.247a.829.829,0,0,1,.064.07l1.11,1.169.357.359.885.869.362.349q.6.563,1.215,1.1l1.33,1.126.456.365.92.719.491.375,1.032.74.483.341c.33.228.665.445,1,.662l.434.29q.776.493,1.569.96l.434.268,1.18.66c.215.115.434.225.652.335l.842.437.2.094.349.166,1.335.617.282.126q.774.336,1.558.646l.375.15,1.469.544.188.064q.814.28,1.636.536l.4.118a13.76,13.76,0,0,0,1.689.477c36.72,6.7,47.382-22.068,47.382-22.068-8.956,11.67-24.857,14.748-39.954,11.321-.571-.129-1.126-.306-1.681-.472l-.418-.126q-.814-.249-1.62-.528l-.223-.08-1.427-.528-.4-.161q-.777-.306-1.542-.644l-.308-.134-1.3-.606-.375-.18c-.338-.161-.67-.341-1.006-.536l-.67-.349c-.408-.215-.8-.445-1.207-.676l-.408-.228q-.792-.467-1.569-.96c-.142-.091-.282-.188-.424-.282l-1.115-.743a3.471,3.471,0,0,1-.359-.252l-1.056-.764-.469-.354-.952-.745-.424-.341-1.185-1c-.043-.038-.088-.074-.134-.107l-1.247-1.134-.349-.338-.89-.885-.349-.349q-.558-.562-1.073-1.164a.561.561,0,0,1-.054-.059q-.569-.625-1.115-1.271l-.268-.349-.8-.992-.268-.367-.928-1.233c-8.414-11.4-11.423-27.163-4.735-40.088m17.644-1.676c-5.492,7.9-5.194,18.5-.912,26.836A35.014,35.014,0,0,0,30.534,41.1a19.252,19.252,0,0,0,2.826,3.529c.4.437.81.858,1.233,1.279l.322.322q.615.6,1.258,1.169c.019.013.032.032.054.046.488.429.981.8,1.483,1.228l.333.26q.754.581,1.539,1.124l.046.032c.231.161.467.308.7.464.113.072.22.15.333.22q.562.361,1.14.7l.161.094,1.008.536c.118.067.268.123.359.188l.705.365c.035.019.072.032.107.048q.726.362,1.469.684l.322.134q.6.254,1.207.488l.515.188,1.107.383.5.161a13.328,13.328,0,0,0,1.6.464c28.351,4.7,34.9-17.161,34.9-17.161-5.9,8.5-17.322,12.549-29.518,9.385q-.808-.213-1.606-.464c-.161-.048-.322-.1-.483-.156l-1.126-.386-.536-.188q-.607-.235-1.207-.488l-.327-.134q-.748-.325-1.48-.686l-.743-.375-.429-.22c-.315-.172-.629-.347-.939-.528l-.225-.126q-.575-.338-1.137-.7c-.115-.072-.228-.153-.343-.228l-.737-.488q-.778-.539-1.528-1.121l-.349-.268a34.034,34.034,0,0,1-11.579-16.5,25.6,25.6,0,0,1,2-20.54m15.37-.491A16.533,16.533,0,0,0,47.529,19.28,22.558,22.558,0,0,0,60.416,31.346l.7.268.311.1,1.011.268c15.654,3.025,19.9-8.034,21.031-9.661-3.719,5.355-9.97,6.639-17.639,4.778-.606-.147-1.271-.367-1.856-.574a22.685,22.685,0,0,1-2.2-.914,22.8,22.8,0,0,1-3.864-2.357C51.047,18.046,46.783,8.087,51.261,0" transform="translate(0)" fill="#0868ac"/>
    </g>
  </g>
</svg>
