<svg xmlns="http://www.w3.org/2000/svg" xmlns:xlink="http://www.w3.org/1999/xlink" width="75" height="75" viewBox="0 0 75 75">
  <defs>
    <linearGradient id="linear-gradient" x1="0.974" y1="0.238" x2="-0.052" y2="0.609" gradientUnits="objectBoundingBox">
      <stop offset="0" stop-color="#fff"/>
      <stop offset="1" stop-color="#ffffff" stop-opacity="0.071"/>
    </linearGradient>
  </defs>
  <g id="Native_Ios" data-name="Native Ios" transform="translate(-187.662 -1357.662)">
    <g id="Group_7613" data-name="Group 7613" transform="translate(188 1358)">
      <circle id="Ellipse_376" data-name="Ellipse 376" cx="37.5" cy="37.5" r="37.5" transform="translate(-0.338 -0.338)" opacity="0.42" fill="url(#linear-gradient)"/>
    </g>
    <g id="apple" transform="translate(172.903 1366.162)">
      <path id="Path_52139" data-name="Path 52139" d="M248.367,8.766A11.886,11.886,0,0,0,250.98,0a12.68,12.68,0,0,0-8.206,4.442c-1.79,2.176-3.261,5.409-2.686,8.551A10.69,10.69,0,0,0,248.367,8.766Z" transform="translate(-181.599)"/>
      <path id="Path_52140" data-name="Path 52140" d="M80.758,121.676A13.663,13.663,0,0,0,70.441,116.2c-4.842,0-6.891,2.318-10.254,2.318-3.47,0-6.1-2.311-10.293-2.311-4.115,0-8.5,2.515-11.274,6.814-3.9,6.056-3.238,17.437,3.093,27.133,2.264,3.471,5.286,7.369,9.241,7.4,3.52.035,4.513-2.257,9.283-2.284s5.674,2.313,9.187,2.273c3.958-.031,7.148-4.353,9.411-7.824a38.967,38.967,0,0,0,3.487-6.547C73.163,139.695,71.695,126.674,80.758,121.676Z" transform="translate(0 -103.56)" fill="#1b546b"/>
      <path id="Path_52141" data-name="Path 52141" d="M77.315,228.08c-6.922,5.6-16.708,9.106-27.569,9.106A48.709,48.709,0,0,1,38.566,235.9a33.859,33.859,0,0,0,5.258,13.961c2.264,3.471,5.286,7.369,9.241,7.4,3.52.035,4.513-2.257,9.283-2.284s5.674,2.313,9.187,2.273c3.958-.031,7.148-4.353,9.411-7.824a38.967,38.967,0,0,0,3.487-6.547A12.028,12.028,0,0,1,77.315,228.08Z" transform="translate(-2.111 -203.269)"/>
    </g>
  </g>
</svg>
