<svg xmlns="http://www.w3.org/2000/svg" xmlns:xlink="http://www.w3.org/1999/xlink" width="159" height="160" viewBox="0 0 159 160">
  <defs>
    <linearGradient id="linear-gradient" x1="1" y1="0.638" x2="-0.024" y2="0.308" gradientUnits="objectBoundingBox">
      <stop offset="0" stop-color="#fff"/>
      <stop offset="1" stop-color="#cae4fc"/>
    </linearGradient>
  </defs>
  <g id="Xd" transform="translate(-94 -66)">
    <g id="Education" transform="translate(93.674 66.254)">
      <ellipse id="Ellipse_404" data-name="Ellipse 404" cx="79.5" cy="80" rx="79.5" ry="80" transform="translate(0.326 -0.254)" opacity="0.53" fill="url(#linear-gradient)"/>
    </g>
    <g id="xd-2" data-name="xd" transform="translate(134 101.6)">
      <g id="Layer_2_8_" transform="translate(0 6.4)">
        <g id="Surfaces_9_" transform="translate(0 0)">
          <g id="UI_UX_Surface">
            <g id="Outline_no_shadow_9_">
              <path id="Path_21319" data-name="Path 21319" d="M13.924,6.4H64.708A13.925,13.925,0,0,1,78.633,20.324V69.142A13.925,13.925,0,0,1,64.708,83.067H13.924A13.925,13.925,0,0,1,0,69.142V20.324A13.925,13.925,0,0,1,13.924,6.4Z" transform="translate(0 -6.4)" fill="#470137"/>
            </g>
          </g>
        </g>
        <g id="Outlined_Mnemonics_Logos_8_" transform="translate(11.448 16.783)">
          <g id="Xd-3" data-name="Xd">
            <path id="Path_21320" data-name="Path 21320" d="M104.433,134.731l-9.811,16.194,10.5,17.2a.542.542,0,0,1,.053.4c-.035.124-.158.046-.369.08h-7.49c-.528,0-.9-.019-1.108-.371q-1.056-2.057-2.11-4.088T91.852,160q-1.187-2.109-2.347-4.273h-.053q-1.056,2.11-2.189,4.22t-2.242,4.194q-1.108,2.084-2.268,4.141c-.141.317-.387.349-.739.349H74.787c-.14,0-.219.055-.237-.085a.529.529,0,0,1,.079-.369l10.18-16.722-9.917-16.774q-.158-.21-.053-.343a.385.385,0,0,1,.317-.132h7.437a1.1,1.1,0,0,1,.475.079.956.956,0,0,1,.317.29q.95,2.11,2.11,4.22t2.347,4.167q1.187,2.057,2.189,4.167h.053q1.054-2.162,2.136-4.22t2.215-4.141q1.134-2.083,2.189-4.141a.811.811,0,0,1,.211-.343.767.767,0,0,1,.422-.079h6.91a.3.3,0,0,1,.264.527Z" transform="translate(-74.544 -131.352)" fill="#ff61f6"/>
            <path id="Path_21321" data-name="Path 21321" d="M291.856,153.613a16.342,16.342,0,0,1-7.042-1.477,11.2,11.2,0,0,1-4.932-4.457,14.254,14.254,0,0,1-1.793-7.464,13.775,13.775,0,0,1,1.793-6.91,13.167,13.167,0,0,1,5.222-5.064,16.858,16.858,0,0,1,8.282-1.9q.263,0,.686.026t1,.079V116.056c0-.246.106-.369.317-.369h6.646a.28.28,0,0,1,.316.237.284.284,0,0,1,0,.079v31.175q0,.9.079,1.952t.132,1.9a.545.545,0,0,1-.317.528,26.168,26.168,0,0,1-5.328,1.582A28.612,28.612,0,0,1,291.856,153.613Zm3.218-6.541v-14.4a5.23,5.23,0,0,0-.87-.158,10.52,10.52,0,0,0-1.081-.053,8.146,8.146,0,0,0-3.692.844,6.788,6.788,0,0,0-3.851,6.594,9.306,9.306,0,0,0,.554,3.376,6.417,6.417,0,0,0,1.477,2.321,5.625,5.625,0,0,0,2.215,1.319,8.675,8.675,0,0,0,2.717.422q.738,0,1.371-.053A5.642,5.642,0,0,0,295.074,147.073Z" transform="translate(-246.829 -115.684)" fill="#ff61f6"/>
          </g>
        </g>
      </g>
    </g>
  </g>
</svg>
