<svg xmlns="http://www.w3.org/2000/svg" version="1.1" xmlns:xlink="http://www.w3.org/1999/xlink" xmlns:svgjs="http://svgjs.dev/svgjs" width="180" height="70" viewBox="0 0 395 137"><g transform="matrix(1,0,0,1,-0.6056459771216396,0.1408204829401143)"><svg viewBox="0 0 396 137" data-background-color="#ffffff" preserveAspectRatio="xMidYMid meet" height="137" width="395" xmlns="http://www.w3.org/2000/svg" xmlns:xlink="http://www.w3.org/1999/xlink"><g id="tight-bounds" transform="matrix(1,0,0,1,0.23983580694016382,-0.05592001786317269)"><svg viewBox="0 0 395.52 137.11184003572632" height="137.11184003572632" width="395.52"><g><svg viewBox="0 0 705.0916376390339 244.42863023485924" height="137.11184003572632" width="395.52"><g><rect width="10.446509680147331" height="228.2025440270793" x="271.7782439794433" y="8.113043103889964" fill="#0063db" opacity="1" stroke-width="0" stroke="transparent" fill-opacity="1" class="rect-i$-0" data-fill-palette-color="primary" rx="1%" id="i$-0" data-palette-color="#0063db"></rect></g><g transform="matrix(1,0,0,1,309.5716376390339,27.129921772813233)"><svg viewBox="0 0 395.52000000000004 190.16878668923277" height="190.16878668923277" width="395.52000000000004"><g id="textblocktransform"><svg viewBox="0 0 395.52000000000004 190.16878668923277" height="190.16878668923277" width="395.52000000000004" id="textblock"><g><svg viewBox="0 0 395.52000000000004 115.83932284282719" height="115.83932284282719" width="395.52000000000004"><g transform="matrix(1,0,0,1,0,0)"><svg width="395.52000000000004" viewBox="2.9 -38.5 177.23373767489568 51.45" height="115.83932284282719" data-palette-color="#0063db"><g transform="matrix(1,0,0,1,0,0)"><g><svg width="4.594117296809808" viewBox="3.16 -36.36 28.68 36.36" height="5.825852770195966" data-palette-color="#0063db" id="scriptelement" x="172.1435290264908" y="-35.71977638509798"><path d="M10.85 0L3.16 0 3.16-36.36 17.51-36.36Q21.63-36.36 24.55-34.9 27.47-33.43 29-30.76 30.54-28.09 30.54-24.49L30.54-24.49Q30.54-20.86 28.98-18.26 27.41-15.66 24.46-14.28 21.5-12.89 17.31-12.89L17.31-12.89 7.71-12.89 7.71-19.07 16.07-19.07Q18.27-19.07 19.73-19.67 21.18-20.28 21.9-21.48 22.62-22.69 22.62-24.49L22.62-24.49Q22.62-26.3 21.9-27.54 21.18-28.78 19.72-29.43 18.25-30.08 16.03-30.08L16.03-30.08 10.85-30.08 10.85 0ZM14.51-16.55L22.8-16.55 31.84 0 23.35 0 14.51-16.55Z" opacity="1" transform="matrix(1,0,0,1,0,0)" fill="#0063db" class="undefined-123" id="av-123"></path></svg></g></g><path d="M168.747-32.807C168.747-35.951 171.296-38.5 174.441-38.5 177.585-38.5 180.134-35.951 180.134-32.807 180.134-29.663 177.585-27.114 174.441-27.114 171.296-27.114 168.747-29.663 168.747-32.807ZM174.441-27.666C177.28-27.666 179.581-29.968 179.581-32.807 179.581-35.646 177.28-37.947 174.441-37.947 171.602-37.947 169.3-35.646 169.3-32.807 169.3-29.968 171.602-27.666 174.441-27.666Z" fill="#0063db" id="scriptcircle" data-fill-palette-color="primary"></path><path d="M15.2 0.35Q11.7 0.35 8.9-0.88 6.1-2.1 4.5-4.35 2.9-6.6 2.9-9.6L2.9-9.6 9-9.6Q9.2-7.35 10.78-5.9 12.35-4.45 15.2-4.45L15.2-4.45Q18.15-4.45 19.8-5.88 21.45-7.3 21.45-9.55L21.45-9.55Q21.45-11.3 20.43-12.4 19.4-13.5 17.88-14.1 16.35-14.7 13.65-15.4L13.65-15.4Q10.25-16.3 8.13-17.23 6-18.15 4.5-20.1 3-22.05 3-25.3L3-25.3Q3-28.3 4.5-30.55 6-32.8 8.7-34 11.4-35.2 14.95-35.2L14.95-35.2Q20-35.2 23.23-32.68 26.45-30.15 26.8-25.75L26.8-25.75 20.5-25.75Q20.35-27.65 18.7-29 17.05-30.35 14.35-30.35L14.35-30.35Q11.9-30.35 10.35-29.1 8.8-27.85 8.8-25.5L8.8-25.5Q8.8-23.9 9.78-22.88 10.75-21.85 12.25-21.25 13.75-20.65 16.35-19.95L16.35-19.95Q19.8-19 21.98-18.05 24.15-17.1 25.68-15.13 27.2-13.15 27.2-9.85L27.2-9.85Q27.2-7.2 25.78-4.85 24.35-2.5 21.63-1.07 18.9 0.35 15.2 0.35L15.2 0.35ZM48.2-28Q51.35-28 53.82-26.65 56.3-25.3 57.72-22.65 59.15-20 59.15-16.25L59.15-16.25 59.15 0 53.5 0 53.5-15.4Q53.5-19.1 51.65-21.08 49.8-23.05 46.6-23.05L46.6-23.05Q43.4-23.05 41.52-21.08 39.65-19.1 39.65-15.4L39.65-15.4 39.65 0 33.95 0 33.95-37 39.65-37 39.65-24.35Q41.1-26.1 43.32-27.05 45.55-28 48.2-28L48.2-28ZM69.3-31.2Q67.75-31.2 66.7-32.25 65.65-33.3 65.65-34.85L65.65-34.85Q65.65-36.4 66.7-37.45 67.75-38.5 69.3-38.5L69.3-38.5Q70.8-38.5 71.85-37.45 72.9-36.4 72.9-34.85L72.9-34.85Q72.9-33.3 71.85-32.25 70.8-31.2 69.3-31.2L69.3-31.2ZM66.4-27.55L72.1-27.55 72.1 0 66.4 0 66.4-27.55ZM82.44-27.55L90.24-5.1 98.04-27.55 104.09-27.55 93.59 0 86.79 0 76.34-27.55 82.44-27.55ZM106.49-13.9Q106.49-18.05 108.22-21.25 109.94-24.45 112.92-26.23 115.89-28 119.49-28L119.49-28Q122.74-28 125.17-26.73 127.59-25.45 129.04-23.55L129.04-23.55 129.04-27.55 134.79-27.55 134.79 0 129.04 0 129.04-4.1Q127.59-2.15 125.09-0.85 122.59 0.45 119.39 0.45L119.39 0.45Q115.84 0.45 112.89-1.38 109.94-3.2 108.22-6.48 106.49-9.75 106.49-13.9L106.49-13.9ZM129.04-13.8Q129.04-16.65 127.87-18.75 126.69-20.85 124.79-21.95 122.89-23.05 120.69-23.05L120.69-23.05Q118.49-23.05 116.59-21.98 114.69-20.9 113.52-18.82 112.34-16.75 112.34-13.9L112.34-13.9Q112.34-11.05 113.52-8.9 114.69-6.75 116.62-5.63 118.54-4.5 120.69-4.5L120.69-4.5Q122.89-4.5 124.79-5.6 126.69-6.7 127.87-8.83 129.04-10.95 129.04-13.8L129.04-13.8ZM161.19-27.55L167.09-27.55 150.19 12.95 144.29 12.95 149.89-0.45 139.04-27.55 145.39-27.55 153.14-6.55 161.19-27.55Z" opacity="1" transform="matrix(1,0,0,1,0,0)" fill="#0063db" class="undefined-text-0" data-fill-palette-color="primary" id="text-0"></path></svg></g></svg></g><g transform="matrix(1,0,0,1,0,143.18620682227046)"><svg viewBox="0 0 232.20979200000002 46.982579866962304" height="46.982579866962304" width="232.20979200000002"><g transform="matrix(1,0,0,1,0,0)"><svg width="232.20979200000002" viewBox="4.35 -35.85 180.38 36.5" height="46.982579866962304" data-palette-color="#0063db"><path d="M4.35-34.5L8.75-34.5 8.75 0 4.35 0 4.35-34.5ZM31.8-24.95L31.8-24.95Q38.4-24.95 38.4-18.25L38.4-18.25 38.4 0 34.15 0 34.15-17.05Q34.15-19.5 33.35-20.43 32.55-21.35 30.65-21.35L30.65-21.35Q28.4-21.35 26.15-20.25 23.9-19.15 20.8-17.25L20.8-17.25 20.6-20.3Q23.45-22.5 26.25-23.73 29.05-24.95 31.8-24.95ZM17-24.35L20.6-24.35 20.95-19.7 21.25-18.95 21.25 0 17 0 17-24.35ZM55.05-35.85L55.05-35.85Q55.85-35.85 57.1-35.83 58.34-35.8 59.65-35.73 60.95-35.65 61.9-35.5L61.9-35.5 61.55-32.35 56.55-32.35Q54.15-32.35 53.17-31.4 52.2-30.45 52.2-28.25L52.2-28.25 52.2 0 47.95 0 47.95-28.7Q47.95-31 48.65-32.58 49.35-34.15 50.9-35 52.45-35.85 55.05-35.85ZM48.2-24.35L60-24.35 60-21 43.55-21 43.55-24.1 48.2-24.35ZM74.94-24.95L74.94-24.95Q79.14-24.95 81.67-23.7 84.19-22.45 85.29-19.63 86.39-16.8 86.39-12.15L86.39-12.15Q86.39-7.5 85.29-4.67 84.19-1.85 81.67-0.6 79.14 0.65 74.94 0.65L74.94 0.65Q70.79 0.65 68.27-0.6 65.74-1.85 64.62-4.67 63.49-7.5 63.49-12.15L63.49-12.15Q63.49-16.8 64.62-19.63 65.74-22.45 68.27-23.7 70.79-24.95 74.94-24.95ZM74.94-21.35L74.94-21.35Q72.29-21.35 70.77-20.53 69.24-19.7 68.59-17.7 67.94-15.7 67.94-12.15L67.94-12.15Q67.94-8.6 68.59-6.6 69.24-4.6 70.77-3.78 72.29-2.95 74.94-2.95L74.94-2.95Q77.59-2.95 79.14-3.78 80.69-4.6 81.34-6.6 81.99-8.6 81.99-12.15L81.99-12.15Q81.99-15.7 81.34-17.7 80.69-19.7 79.14-20.53 77.59-21.35 74.94-21.35ZM94.84-31.55L99.09-31.55 99.09-6.7Q99.09-4.95 99.84-4.2 100.59-3.45 102.39-3.45L102.39-3.45 106.09-3.45 106.59-0.2Q105.79 0 104.74 0.15 103.69 0.3 102.69 0.38 101.69 0.45 101.09 0.45L101.09 0.45Q98.04 0.45 96.44-1.25 94.84-2.95 94.84-6.15L94.84-6.15 94.84-31.55ZM95.24-24.35L106.84-24.35 106.84-21 90.44-21 90.44-24.1 95.24-24.35ZM122.04-24.95L122.04-24.95Q127.54-24.95 130.01-22.95 132.49-20.95 132.49-17L132.49-17Q132.54-13.75 131.14-11.93 129.74-10.1 126.69-10.1L126.69-10.1 112.49-10.1 112.49-13.4 125.59-13.4Q127.24-13.4 127.74-14.53 128.24-15.65 128.24-17L128.24-17Q128.19-19.35 126.84-20.35 125.49-21.35 122.24-21.35L122.24-21.35Q119.59-21.35 118.06-20.58 116.54-19.8 115.91-17.88 115.29-15.95 115.29-12.5L115.29-12.5Q115.29-8.6 116.06-6.55 116.84-4.5 118.54-3.75 120.24-3 123.04-3L123.04-3Q124.99-3 127.31-3.18 129.64-3.35 131.49-3.6L131.49-3.6 131.94-0.75Q130.79-0.3 129.11 0 127.44 0.3 125.66 0.45 123.89 0.6 122.49 0.6L122.49 0.6Q118.29 0.6 115.74-0.68 113.19-1.95 112.01-4.78 110.84-7.6 110.84-12.25L110.84-12.25Q110.84-17.05 112.01-19.83 113.19-22.6 115.66-23.78 118.14-24.95 122.04-24.95ZM149.29-24.95L149.29-24.95Q150.39-24.95 151.74-24.85 153.09-24.75 154.51-24.5 155.94-24.25 157.14-23.8L157.14-23.8 156.59-21.05Q154.94-21.2 153.11-21.28 151.29-21.35 149.99-21.35L149.99-21.35Q147.09-21.35 145.39-20.55 143.69-19.75 142.94-17.75 142.19-15.75 142.19-12.2L142.19-12.2Q142.19-8.65 142.94-6.63 143.69-4.6 145.39-3.8 147.09-3 149.99-3L149.99-3Q150.74-3 151.94-3.05 153.14-3.1 154.51-3.2 155.89-3.3 157.14-3.5L157.14-3.5 157.59-0.65Q155.74 0 153.56 0.3 151.39 0.6 149.24 0.6L149.24 0.6Q145.04 0.6 142.49-0.65 139.94-1.9 138.81-4.7 137.69-7.5 137.69-12.2L137.69-12.2Q137.69-16.9 138.84-19.7 139.99-22.5 142.54-23.73 145.09-24.95 149.29-24.95ZM178.13-24.95L178.13-24.95Q184.73-24.95 184.73-18.25L184.73-18.25 184.73 0 180.43 0 180.43-17.05Q180.43-19.5 179.66-20.43 178.88-21.35 176.98-21.35L176.98-21.35Q174.73-21.35 172.48-20.3 170.23-19.25 167.13-17.25L167.13-17.25 166.93-20.3Q169.78-22.45 172.58-23.7 175.38-24.95 178.13-24.95ZM163.33-35L167.58-35 167.63-25.35Q167.63-23.7 167.51-22.25 167.38-20.8 167.13-19.7L167.13-19.7 167.58-18.95 167.58 0 163.33 0 163.33-35Z" opacity="1" transform="matrix(1,0,0,1,0,0)" fill="#0063db" class="undefined-text-1" data-fill-palette-color="secondary" id="text-1"></path></svg></g></svg></g></svg></g></svg></g><g><svg viewBox="0 0 244.43136000000004 244.42863023485924" height="244.42863023485924" width="244.43136000000004"><g><svg xmlns="http://www.w3.org/2000/svg" xmlns:xlink="http://www.w3.org/1999/xlink" version="1.1" x="0" y="0" viewBox="5.228 5.229 89.543 89.542" enable-background="new 0 0 100 100" xml:space="preserve" height="244.42863023485924" width="244.43136000000004" class="icon-icon-0" data-fill-palette-color="accent" id="icon-0"><g fill="#0074d9" data-fill-palette-color="accent"><path d="M50 94.771C25.312 94.771 5.228 74.688 5.228 50 5.228 25.313 25.312 5.229 50 5.229c24.688 0 44.771 20.084 44.771 44.771C94.771 74.688 74.688 94.771 50 94.771zM50 9.033C27.409 9.033 9.031 27.41 9.031 50S27.409 90.969 50 90.969 90.967 72.59 90.967 50 72.59 9.033 50 9.033z" fill="#0074d9" data-fill-palette-color="accent"></path><g fill="#0074d9" data-fill-palette-color="accent"><path d="M30.022 64.336c-7.849 0-14.234-6.386-14.234-14.233 0-7.85 6.386-14.234 14.234-14.234 3.276 0 7.944 2.246 13.875 6.676 0.842 0.628 1.015 1.82 0.385 2.663-0.628 0.842-1.82 1.016-2.662 0.385-6.896-5.149-10.227-5.919-11.599-5.919-5.751 0-10.43 4.68-10.43 10.431 0 5.75 4.679 10.428 10.43 10.428 4.415 0 13.82-7.25 18.711-11.818 0.769-0.717 1.973-0.676 2.689 0.093 0.718 0.768 0.677 1.969-0.092 2.688C49.924 52.807 37.373 64.336 30.022 64.336z" fill="#0074d9" data-fill-palette-color="accent"></path><path d="M70.16 64.336c-3.287 0-7.766-2.141-13.693-6.541-0.844-0.626-1.02-1.818-0.395-2.662 0.628-0.843 1.818-1.02 2.662-0.393 6.785 5.039 10.072 5.791 11.426 5.791 5.751 0 10.43-4.68 10.43-10.429 0-5.751-4.679-10.431-10.43-10.431-4.414 0-13.82 7.25-18.711 11.819-0.768 0.718-1.971 0.676-2.689-0.092-0.716-0.769-0.675-1.971 0.092-2.688 1.407-1.314 13.96-12.844 21.309-12.844 7.851 0 14.233 6.385 14.233 14.234S78.012 64.336 70.16 64.336z" fill="#0074d9" data-fill-palette-color="accent"></path></g></g></svg></g></svg></g></svg></g><defs></defs></svg><rect width="395.52" height="137.11184003572632" fill="none" stroke="none" visibility="hidden"></rect></g></svg></g></svg>