<svg xmlns="http://www.w3.org/2000/svg" version="1.1" xmlns:xlink="http://www.w3.org/1999/xlink" xmlns:svgjs="http://svgjs.dev/svgjs" width="1000" height="227" viewBox="0 0 1000 227"><g transform="matrix(1,0,0,1,-0.6060606060606233,-0.5083009851800995)"><svg viewBox="0 0 396 90" data-background-color="#ffffff" preserveAspectRatio="xMidYMid meet" height="227" width="1000" xmlns="http://www.w3.org/2000/svg" xmlns:xlink="http://www.w3.org/1999/xlink"><g id="tight-bounds" transform="matrix(1,0,0,1,0.2400000000000091,0.20152902496127467)"><svg viewBox="0 0 395.52 89.59694195007745" height="89.59694195007745" width="395.52"><g><svg viewBox="0 0 611.5886005461932 138.54285077990085" height="89.59694195007745" width="395.52"><g transform="matrix(1,0,0,1,216.06860054619324,35.85539770545915)"><svg viewBox="0 0 395.52000000000004 66.83205536898255" height="66.83205536898255" width="395.52000000000004"><g id="textblocktransform"><svg viewBox="0 0 395.52000000000004 66.83205536898255" height="66.83205536898255" width="395.52000000000004" id="textblock"><g><svg viewBox="0 0 395.52000000000004 40.05893563666759" height="40.05893563666759" width="395.52000000000004"><g transform="matrix(1,0,0,1,0,0)"><svg width="395.52000000000004" viewBox="0.25 -35.5 358.87 36.35" height="40.05893563666759" data-palette-color="#0074d9"><path d="M13.1-35.5Q16.6-35.5 19.28-34.38 21.95-33.25 24.15-31.05L24.15-31.05 20.5-26.85Q17.25-29.65 13.85-29.65L13.85-29.65Q11.95-29.65 10.85-28.7 9.75-27.75 9.75-26.1L9.75-26.1Q9.75-25 10.25-24.25 10.75-23.5 12-22.8 13.25-22.1 15.7-21.2L15.7-21.2Q18.9-20 20.88-18.63 22.85-17.25 23.9-15.2 24.95-13.15 24.95-10.1L24.95-10.1Q24.95-6.9 23.43-4.42 21.9-1.95 19.03-0.55 16.15 0.85 12.3 0.85L12.3 0.85Q5.05 0.85 0.25-4.05L0.25-4.05 4.15-8.4Q6-6.8 7.88-5.95 9.75-5.1 11.85-5.1L11.85-5.1Q14.15-5.1 15.4-6.3 16.65-7.5 16.65-9.5L16.65-9.5Q16.65-11.4 15.5-12.55 14.35-13.7 11.15-14.85L11.15-14.85Q5.95-16.8 3.75-19.25 1.55-21.7 1.55-25.5L1.55-25.5Q1.55-28.45 3.05-30.73 4.55-33 7.18-34.25 9.8-35.5 13.1-35.5L13.1-35.5ZM53.35 0L45.35 0 45.35-14.9 36.7-14.9 36.7 0 28.7 0 28.7-34.65 36.7-34.65 36.7-21.15 45.35-21.15 45.35-34.65 53.35-34.65 53.35 0ZM58.8-34.65L66.8-34.65 66.8 0 58.8 0 58.8-34.65ZM88.29-34.65L96.29-34.65 87.84 0 77.74 0 68.94-34.65 77.14-34.65 82.94-6.3 88.29-34.65ZM123.44 0L115.19 0 113.64-7.55 104.84-7.55 103.29 0 95.19 0 104.54-34.65 114.14-34.65 123.44 0ZM109.24-28.8L106.04-13.3 112.44-13.3 109.24-28.8ZM142.19-34.65L150.44-34.65 140.44-13 140.44 0 132.44 0 132.44-12.95 122.44-34.65 130.99-34.65 136.54-19.25 142.19-34.65ZM163.13-34.65L171.13-34.65 171.13 0 163.13 0 163.13-34.65ZM201.03-34.65L201.03 0 191.03 0 182.53-27.2Q182.63-26.6 182.63-26.2L182.63-26.2Q183.08-22.6 183.33-19.68 183.58-16.75 183.58-12.9L183.58-12.9 183.58 0 176.58 0 176.58-34.65 186.48-34.65 195.13-7.4Q194.03-13.9 194.03-20.35L194.03-20.35 194.03-34.65 201.03-34.65ZM214.53 0L206.53 0 206.53-34.65 225.53-34.65 224.68-28.95 214.53-28.95 214.53-19.55 223.43-19.55 223.43-13.85 214.53-13.85 214.53 0ZM241.58-35.5Q248.43-35.5 252.13-30.88 255.83-26.25 255.83-17.35L255.83-17.35Q255.83-8.55 252.1-3.85 248.38 0.85 241.58 0.85L241.58 0.85Q234.78 0.85 231.05-3.8 227.33-8.45 227.33-17.35L227.33-17.35Q227.33-26.1 231.05-30.8 234.78-35.5 241.58-35.5L241.58-35.5ZM241.58-29.65Q238.53-29.65 237.1-26.8 235.68-23.95 235.68-17.35L235.68-17.35Q235.68-10.65 237.13-7.83 238.58-5 241.58-5L241.58-5Q244.63-5 246.05-7.83 247.48-10.65 247.48-17.35L247.48-17.35Q247.48-23.95 246.05-26.8 244.63-29.65 241.58-29.65L241.58-29.65ZM257.67-34.65L281.87-34.65 281.02-28.55 273.57-28.55 273.57 0 265.57 0 265.57-28.55 257.67-28.55 257.67-34.65ZM284.57-34.65L304.17-34.65 303.32-28.95 292.57-28.95 292.57-20.4 301.97-20.4 301.97-14.8 292.57-14.8 292.57-5.8 304.07-5.8 304.07 0 284.57 0 284.57-34.65ZM321.37-35.5Q324.37-35.5 326.72-34.55 329.07-33.6 331.17-31.7L331.17-31.7 327.37-27.25Q326.02-28.4 324.69-28.98 323.37-29.55 321.87-29.55L321.87-29.55Q315.37-29.55 315.37-17.4L315.37-17.4Q315.37-5.35 321.92-5.35L321.92-5.35Q323.62-5.35 324.94-6.03 326.27-6.7 327.92-8L327.92-8 331.52-3.6Q329.67-1.65 327.09-0.4 324.52 0.85 321.42 0.85L321.42 0.85Q317.07 0.85 313.84-1.2 310.62-3.25 308.82-7.35 307.02-11.45 307.02-17.4L307.02-17.4Q307.02-23.2 308.87-27.28 310.72-31.35 313.94-33.43 317.17-35.5 321.37-35.5L321.37-35.5ZM359.12 0L351.12 0 351.12-14.9 342.47-14.9 342.47 0 334.47 0 334.47-34.65 342.47-34.65 342.47-21.15 351.12-21.15 351.12-34.65 359.12-34.65 359.12 0Z" opacity="1" transform="matrix(1,0,0,1,0,0)" fill="#0074d9" class="undefined-text-0" data-fill-palette-color="primary" id="text-0"></path></svg></g></svg></g><g transform="matrix(1,0,0,1,0,49.51588892602953)"><svg viewBox="0 0 232.20979200000002 17.31616644295302" height="17.31616644295302" width="232.20979200000002"><g transform="matrix(1,0,0,1,0,0)"><svg width="232.20979200000002" viewBox="0.75 -37.5 670.43 50" height="17.31616644295302" data-palette-color="#ff851b"><path d="M15.7 0L10.95 0 10.95-30.7 0.75-30.7 0.75-35 25.9-35 25.9-30.7 15.7-30.7 15.7 0ZM32.35 0.5L32.35 0.5Q30.07 0.5 28.37-0.43 26.67-1.35 25.73-2.95 24.8-4.55 24.8-6.6L24.8-6.6Q24.8-8.68 25.71-10.16 26.62-11.65 28.16-12.64 29.7-13.63 31.6-14.21 33.5-14.8 35.53-15.06 37.57-15.33 39.45-15.35L39.45-15.35Q39.45-18.85 38.07-19.93 36.7-21 34.1-21L34.1-21Q32.72-21 31.16-20.58 29.6-20.15 27.65-18.8L27.65-18.8 27-22.45Q28.47-23.58 30.67-24.29 32.87-25 35.3-25L35.3-25Q38.4-25 40.3-23.91 42.2-22.83 43.07-20.25 43.95-17.68 43.95-13.25L43.95-13.25 43.95-8.25Q43.95-6.5 44.11-5.36 44.27-4.23 44.86-3.66 45.45-3.1 46.75-3.1L46.75-3.1 47.2-3.1 46.5 0.5 46.15 0.5Q43.97 0.5 42.78 0.08 41.6-0.35 40.97-1.15 40.35-1.95 39.85-3.1L39.85-3.1Q38.47-1.5 36.6-0.5 34.72 0.5 32.35 0.5ZM33.2-3.1L33.2-3.1Q35-3.1 36.69-4 38.37-4.9 39.45-6.4L39.45-6.4 39.45-12.25Q35.87-12.13 33.66-11.55 31.45-10.98 30.42-9.83 29.4-8.68 29.4-6.85L29.4-6.85Q29.4-4.88 30.46-3.99 31.52-3.1 33.2-3.1ZM55.09 0L50.59 0 50.59-37.5 55.09-37.5 55.09-13.45 64.09-24.5 69.59-24.5 59.84-13.1 69.84 0 64.34 0 55.09-12.45 55.09 0ZM83.69 0.5L83.69 0.5Q79.37 0.5 76.42-1.28 73.47-3.05 71.96-5.99 70.44-8.93 70.44-12.45L70.44-12.45Q70.44-15.88 71.86-18.73 73.27-21.58 75.96-23.29 78.64-25 82.44-25L82.44-25Q85.49-25 87.88-23.79 90.27-22.58 91.63-20.26 92.99-17.95 92.99-14.65L92.99-14.65Q92.99-14.13 92.96-13.51 92.92-12.9 92.79-12.25L92.79-12.25 75.04-12.25Q75.37-8.85 76.67-6.95 77.97-5.05 79.94-4.28 81.92-3.5 84.24-3.5L84.24-3.5Q85.94-3.5 87.79-3.85 89.64-4.2 91.29-4.95L91.29-4.95 91.89-1.4Q90.47-0.78 88.42-0.14 86.37 0.5 83.69 0.5ZM75.44-15.35L75.44-15.35 88.34-15.35Q88.34-17.07 87.69-18.35 87.04-19.63 85.72-20.31 84.39-21 82.34-21L82.34-21Q79.34-21 77.73-19.51 76.12-18.03 75.44-15.35ZM128.64-13.75L128.64-9.45 113.64-9.45 113.64-13.75 128.64-13.75ZM131.19 0L120.44-30.35 121.84-30.35 111.09 0 106.09 0 118.64-35 123.64-35 136.19 0 131.19 0ZM148.74 0.5L148.74 0.5Q145.61 0.5 143.09-1.2 140.56-2.9 139.07-5.78 137.59-8.65 137.59-12.2L137.59-12.2Q137.59-15.58 138.95-18.5 140.31-21.43 142.81-23.21 145.31-25 148.74-25L148.74-25Q151.19-25 153.47-23.94 155.76-22.88 157.19-20.4L157.19-20.4 156.24-19.75 156.24-37.5 160.74-37.5 160.74 0 156.74 0 155.89-5.2 157.04-4.4Q155.96-1.98 153.66-0.74 151.36 0.5 148.74 0.5ZM149.54-3.5L149.54-3.5Q151.24-3.5 152.9-4.38 154.56-5.25 155.65-7.16 156.74-9.08 156.74-12.2L156.74-12.2Q156.74-15.1 155.65-17.06 154.56-19.03 152.9-20.01 151.24-21 149.54-21L149.54-21Q147.24-21 145.59-19.85 143.94-18.7 143.06-16.71 142.19-14.73 142.19-12.2L142.19-12.2Q142.19-9.83 143.06-7.85 143.94-5.88 145.59-4.69 147.24-3.5 149.54-3.5ZM178.58 0L173.53 0 164.18-24.5 169.18-24.5 176.03-4.95 182.83-24.5 187.88-24.5 178.58 0ZM196.78 0.5L196.78 0.5Q194.5 0.5 192.81-0.43 191.1-1.35 190.17-2.95 189.23-4.55 189.23-6.6L189.23-6.6Q189.23-8.68 190.14-10.16 191.06-11.65 192.59-12.64 194.13-13.63 196.03-14.21 197.93-14.8 199.97-15.06 202-15.33 203.88-15.35L203.88-15.35Q203.88-18.85 202.5-19.93 201.13-21 198.53-21L198.53-21Q197.16-21 195.59-20.58 194.03-20.15 192.08-18.8L192.08-18.8 191.43-22.45Q192.91-23.58 195.1-24.29 197.31-25 199.73-25L199.73-25Q202.83-25 204.73-23.91 206.63-22.83 207.5-20.25 208.38-17.68 208.38-13.25L208.38-13.25 208.38-8.25Q208.38-6.5 208.54-5.36 208.71-4.23 209.29-3.66 209.88-3.1 211.18-3.1L211.18-3.1 211.63-3.1 210.93 0.5 210.58 0.5Q208.41 0.5 207.22 0.08 206.03-0.35 205.41-1.15 204.78-1.95 204.28-3.1L204.28-3.1Q202.91-1.5 201.03-0.5 199.16 0.5 196.78 0.5ZM197.63-3.1L197.63-3.1Q199.43-3.1 201.12-4 202.81-4.9 203.88-6.4L203.88-6.4 203.88-12.25Q200.31-12.13 198.09-11.55 195.88-10.98 194.85-9.83 193.83-8.68 193.83-6.85L193.83-6.85Q193.83-4.88 194.89-3.99 195.96-3.1 197.63-3.1ZM219.58 0L215.08 0 215.08-24.5 218.58-24.5 219.48-19.8 217.73-20.55Q220.2-23.3 222.56-24.15 224.93-25 227.18-25L227.18-25Q232.55-25 234.87-21.9 237.18-18.8 237.18-13.5L237.18-13.5 237.18 0 232.68 0 232.68-13.5Q232.68-17.4 231.23-19.2 229.78-21 226.28-21L226.28-21Q223.8-21 221.74-19.91 219.68-18.82 219.03-16.45L219.03-16.45 219.58-19.2 219.58 0ZM255.13 0.5L251.08 0.5Q248.75 0.5 247.35-0.35 245.95-1.2 245.31-2.54 244.68-3.88 244.68-5.35L244.68-5.35 244.68-21 240.48-21 240.88-24.5 244.68-24.5 244.68-30.55 249.18-31 249.18-24.5 255.63-24.5 255.63-21 249.18-21 249.18-8.1Q249.18-5.75 249.45-4.7 249.73-3.65 250.81-3.38 251.9-3.1 254.33-3.1L254.33-3.1 255.48-3.1 255.13 0.5ZM265.17 0.5L265.17 0.5Q262.9 0.5 261.2-0.43 259.5-1.35 258.56-2.95 257.62-4.55 257.62-6.6L257.62-6.6Q257.62-8.68 258.54-10.16 259.45-11.65 260.99-12.64 262.52-13.63 264.42-14.21 266.32-14.8 268.36-15.06 270.4-15.33 272.27-15.35L272.27-15.35Q272.27-18.85 270.9-19.93 269.52-21 266.92-21L266.92-21Q265.55-21 263.99-20.58 262.42-20.15 260.47-18.8L260.47-18.8 259.82-22.45Q261.3-23.58 263.5-24.29 265.7-25 268.12-25L268.12-25Q271.22-25 273.12-23.91 275.02-22.83 275.9-20.25 276.77-17.68 276.77-13.25L276.77-13.25 276.77-8.25Q276.77-6.5 276.94-5.36 277.1-4.23 277.69-3.66 278.27-3.1 279.57-3.1L279.57-3.1 280.02-3.1 279.32 0.5 278.97 0.5Q276.8 0.5 275.61 0.08 274.42-0.35 273.8-1.15 273.17-1.95 272.67-3.1L272.67-3.1Q271.3-1.5 269.42-0.5 267.55 0.5 265.17 0.5ZM266.02-3.1L266.02-3.1Q267.82-3.1 269.51-4 271.2-4.9 272.27-6.4L272.27-6.4 272.27-12.25Q268.7-12.13 266.49-11.55 264.27-10.98 263.25-9.83 262.22-8.68 262.22-6.85L262.22-6.85Q262.22-4.88 263.29-3.99 264.35-3.1 266.02-3.1ZM293.37 12.5L293.37 12.5Q290.02 12.5 287.38 11.68 284.75 10.85 283.23 9.22 281.72 7.6 281.72 5.2L281.72 5.2Q281.72 3.2 282.86 1.76 284 0.33 285.97-0.55L285.97-0.55Q284.8-1.13 284.18-1.91 283.57-2.7 283.57-3.65L283.57-3.65Q283.57-4.78 284.26-5.69 284.94-6.6 286.47-7.2L286.47-7.2Q284.42-8.47 283.32-10.64 282.22-12.8 282.22-15.45L282.22-15.45Q282.22-18.13 283.42-20.29 284.62-22.45 286.88-23.73 289.15-25 292.32-25L292.32-25Q294.02-25 295.53-24.5 297.05-24 298.32-23.1L298.32-23.1Q299.44-23.75 300.98-24.18 302.52-24.6 304.42-24.6L304.42-24.6Q304.55-24.6 304.63-24.6 304.72-24.6 304.82-24.6L304.82-24.6 304.27-21.6Q303.97-21.6 303.69-21.6 303.42-21.6 303.12-21.6L303.12-21.6Q302.87-21.6 301.97-21.53 301.07-21.45 300.32-21.25L300.32-21.25Q301.35-20.05 301.91-18.56 302.47-17.07 302.47-15.45L302.47-15.45Q302.47-12.65 301.26-10.44 300.05-8.22 297.77-6.94 295.5-5.65 292.32-5.65L292.32-5.65Q291.42-5.65 290.6-5.76 289.77-5.88 289.02-6.1L289.02-6.1Q287.87-5.73 287.87-4.8L287.87-4.8Q287.87-4.25 288.52-3.84 289.17-3.43 290.62-3.2L290.62-3.2 297.17-2.15Q301.15-1.53 303.31 0.15 305.47 1.83 305.47 4.9L305.47 4.9Q305.47 7.45 303.98 9.14 302.5 10.83 299.77 11.66 297.05 12.5 293.37 12.5ZM293.77 8.5L293.77 8.5Q297.22 8.5 299.07 7.61 300.92 6.73 300.92 5L300.92 5Q300.92 3.65 299.76 2.88 298.6 2.1 296.42 1.7L296.42 1.7 289.44 0.53Q288.07 1.13 287.05 2.14 286.02 3.15 286.02 4.5L286.02 4.5Q286.02 6.6 288.13 7.55 290.25 8.5 293.77 8.5ZM292.32-9.25L292.32-9.25Q295.17-9.25 296.67-10.96 298.17-12.68 298.17-15.4L298.17-15.4Q298.17-18.03 296.67-19.71 295.17-21.4 292.32-21.4L292.32-21.4Q289.47-21.4 288-19.71 286.52-18.03 286.52-15.4L286.52-15.4Q286.52-12.68 288-10.96 289.47-9.25 292.32-9.25ZM320.12 0.5L320.12 0.5Q315.79 0.5 312.84-1.28 309.89-3.05 308.38-5.99 306.87-8.93 306.87-12.45L306.87-12.45Q306.87-15.88 308.28-18.73 309.69-21.58 312.38-23.29 315.07-25 318.87-25L318.87-25Q321.92-25 324.31-23.79 326.69-22.58 328.06-20.26 329.42-17.95 329.42-14.65L329.42-14.65Q329.42-14.13 329.38-13.51 329.34-12.9 329.22-12.25L329.22-12.25 311.47-12.25Q311.79-8.85 313.09-6.95 314.39-5.05 316.37-4.28 318.34-3.5 320.67-3.5L320.67-3.5Q322.37-3.5 324.22-3.85 326.07-4.2 327.72-4.95L327.72-4.95 328.32-1.4Q326.89-0.78 324.84-0.14 322.79 0.5 320.12 0.5ZM311.87-15.35L311.87-15.35 324.77-15.35Q324.77-17.07 324.12-18.35 323.47-19.63 322.14-20.31 320.82-21 318.77-21L318.77-21Q315.77-21 314.15-19.51 312.54-18.03 311.87-15.35ZM355.91 0.5L355.91 0.5Q352.06 0.5 349.35-1.21 346.64-2.93 345.2-5.81 343.76-8.7 343.76-12.25L343.76-12.25Q343.76-15.8 345.2-18.69 346.64-21.58 349.35-23.29 352.06-25 355.91-25L355.91-25Q359.74-25 362.46-23.29 365.19-21.58 366.63-18.69 368.06-15.8 368.06-12.25L368.06-12.25Q368.06-8.7 366.63-5.81 365.19-2.93 362.46-1.21 359.74 0.5 355.91 0.5ZM355.91-3.5L355.91-3.5Q359.56-3.5 361.51-5.81 363.46-8.13 363.46-12.25L363.46-12.25Q363.46-16.38 361.51-18.69 359.56-21 355.91-21L355.91-21Q352.29-21 350.33-18.69 348.36-16.38 348.36-12.25L348.36-12.25Q348.36-8.13 350.33-5.81 352.29-3.5 355.91-3.5ZM378.66 0L374.16 0 374.16-21 369.91-21 370.51-24.5 374.16-24.5 374.16-30.3Q374.16-33.58 375.91-35.54 377.66-37.5 381.06-37.5L381.06-37.5Q382.31-37.5 383.25-37.33 384.19-37.15 384.96-36.85L384.96-36.85 384.26-33.05Q383.66-33.27 383.09-33.39 382.51-33.5 381.76-33.5L381.76-33.5Q380.31-33.5 379.49-32.69 378.66-31.88 378.66-30L378.66-30 378.66-24.5 385.26-24.5 385.26-21 378.66-21 378.66 0ZM412.91 0L408.16 0 408.16-30.7 397.96-30.7 397.96-35 423.11-35 423.11-30.7 412.91-30.7 412.91 0ZM434.7 0.5L434.7 0.5Q430.38 0.5 427.43-1.28 424.48-3.05 422.97-5.99 421.45-8.93 421.45-12.45L421.45-12.45Q421.45-15.88 422.87-18.73 424.28-21.58 426.97-23.29 429.65-25 433.45-25L433.45-25Q436.5-25 438.89-23.79 441.28-22.58 442.64-20.26 444-17.95 444-14.65L444-14.65Q444-14.13 443.97-13.51 443.93-12.9 443.8-12.25L443.8-12.25 426.05-12.25Q426.38-8.85 427.68-6.95 428.98-5.05 430.95-4.28 432.93-3.5 435.25-3.5L435.25-3.5Q436.95-3.5 438.8-3.85 440.65-4.2 442.3-4.95L442.3-4.95 442.9-1.4Q441.48-0.78 439.43-0.14 437.38 0.5 434.7 0.5ZM426.45-15.35L426.45-15.35 439.35-15.35Q439.35-17.07 438.7-18.35 438.05-19.63 436.73-20.31 435.4-21 433.35-21L433.35-21Q430.35-21 428.74-19.51 427.13-18.03 426.45-15.35ZM459.8 0.5L459.8 0.5Q455.65 0.5 452.84-1.19 450.03-2.88 448.59-5.74 447.15-8.6 447.15-12.1L447.15-12.1Q447.15-15.75 448.54-18.68 449.93-21.6 452.8-23.3 455.68-25 460.15-25L460.15-25Q462.08-25 463.79-24.61 465.5-24.23 466.85-23.55L466.85-23.55 466.15-19.6Q464.78-20.25 463.24-20.63 461.7-21 460.05-21L460.05-21Q456-21 453.88-18.7 451.75-16.4 451.75-12.3L451.75-12.3Q451.75-8.3 453.78-5.88 455.8-3.45 459.95-3.45L459.95-3.45Q461.65-3.45 463.21-3.85 464.78-4.25 466.2-4.95L466.2-4.95 466.8-1.35Q465.8-0.65 463.88-0.08 461.95 0.5 459.8 0.5ZM475.75 0L471.2 0 471.2-37.5 475.75-37.5 475.75-20.25 474.15-20.35Q475.87-22.53 477.86-23.76 479.85-25 482.95-25L482.95-25Q486.12-25 488.25-23.58 490.37-22.15 491.44-19.6 492.5-17.05 492.5-13.65L492.5-13.65 492.5 0 488 0 488-13.1Q488-17.15 486.51-19.07 485.02-21 481.95-21L481.95-21Q479.62-21 477.84-19.75 476.05-18.5 475-16.4L475-16.4 475.75-19.15 475.75 0ZM502.85 0L498.35 0 498.35-24.5 501.85-24.5 502.75-19.8 501-20.55Q503.47-23.3 505.83-24.15 508.2-25 510.45-25L510.45-25Q515.82-25 518.13-21.9 520.45-18.8 520.45-13.5L520.45-13.5 520.45 0 515.95 0 515.95-13.5Q515.95-17.4 514.5-19.2 513.05-21 509.55-21L509.55-21Q507.07-21 505.01-19.91 502.95-18.82 502.3-16.45L502.3-16.45 502.85-19.2 502.85 0ZM536.99 0.5L536.99 0.5Q533.14 0.5 530.43-1.21 527.72-2.93 526.28-5.81 524.84-8.7 524.84-12.25L524.84-12.25Q524.84-15.8 526.28-18.69 527.72-21.58 530.43-23.29 533.14-25 536.99-25L536.99-25Q540.82-25 543.54-23.29 546.27-21.58 547.71-18.69 549.14-15.8 549.14-12.25L549.14-12.25Q549.14-8.7 547.71-5.81 546.27-2.93 543.54-1.21 540.82 0.5 536.99 0.5ZM536.99-3.5L536.99-3.5Q540.64-3.5 542.59-5.81 544.54-8.13 544.54-12.25L544.54-12.25Q544.54-16.38 542.59-18.69 540.64-21 536.99-21L536.99-21Q533.37-21 531.41-18.69 529.44-16.38 529.44-12.25L529.44-12.25Q529.44-8.13 531.41-5.81 533.37-3.5 536.99-3.5ZM561.54 0.5L560.09 0.5Q557.72 0.5 556.33-0.36 554.94-1.23 554.34-2.58 553.74-3.93 553.74-5.4L553.74-5.4 553.74-37.5 558.24-37.5 558.24-8Q558.24-5.9 558.51-4.85 558.79-3.8 559.63-3.45 560.47-3.1 562.19-3.1L562.19-3.1 561.54 0.5ZM576.04 0.5L576.04 0.5Q572.19 0.5 569.47-1.21 566.76-2.93 565.32-5.81 563.89-8.7 563.89-12.25L563.89-12.25Q563.89-15.8 565.32-18.69 566.76-21.58 569.47-23.29 572.19-25 576.04-25L576.04-25Q579.86-25 582.59-23.29 585.31-21.58 586.75-18.69 588.19-15.8 588.19-12.25L588.19-12.25Q588.19-8.7 586.75-5.81 585.31-2.93 582.59-1.21 579.86 0.5 576.04 0.5ZM576.04-3.5L576.04-3.5Q579.69-3.5 581.64-5.81 583.59-8.13 583.59-12.25L583.59-12.25Q583.59-16.38 581.64-18.69 579.69-21 576.04-21L576.04-21Q572.41-21 570.45-18.69 568.49-16.38 568.49-12.25L568.49-12.25Q568.49-8.13 570.45-5.81 572.41-3.5 576.04-3.5ZM602.73 12.5L602.73 12.5Q599.38 12.5 596.75 11.68 594.11 10.85 592.6 9.22 591.08 7.6 591.08 5.2L591.08 5.2Q591.08 3.2 592.22 1.76 593.36 0.33 595.33-0.55L595.33-0.55Q594.16-1.13 593.55-1.91 592.93-2.7 592.93-3.65L592.93-3.65Q592.93-4.78 593.62-5.69 594.31-6.6 595.83-7.2L595.83-7.2Q593.78-8.47 592.68-10.64 591.58-12.8 591.58-15.45L591.58-15.45Q591.58-18.13 592.78-20.29 593.98-22.45 596.25-23.73 598.51-25 601.68-25L601.68-25Q603.38-25 604.9-24.5 606.41-24 607.68-23.1L607.68-23.1Q608.81-23.75 610.35-24.18 611.88-24.6 613.78-24.6L613.78-24.6Q613.91-24.6 614-24.6 614.08-24.6 614.18-24.6L614.18-24.6 613.63-21.6Q613.33-21.6 613.06-21.6 612.78-21.6 612.48-21.6L612.48-21.6Q612.23-21.6 611.33-21.53 610.43-21.45 609.68-21.25L609.68-21.25Q610.71-20.05 611.27-18.56 611.83-17.07 611.83-15.45L611.83-15.45Q611.83-12.65 610.62-10.44 609.41-8.22 607.13-6.94 604.86-5.65 601.68-5.65L601.68-5.65Q600.78-5.65 599.96-5.76 599.13-5.88 598.38-6.1L598.38-6.1Q597.23-5.73 597.23-4.8L597.23-4.8Q597.23-4.25 597.88-3.84 598.53-3.43 599.98-3.2L599.98-3.2 606.53-2.15Q610.51-1.53 612.67 0.15 614.83 1.83 614.83 4.9L614.83 4.9Q614.83 7.45 613.35 9.14 611.86 10.83 609.13 11.66 606.41 12.5 602.73 12.5ZM603.13 8.5L603.13 8.5Q606.58 8.5 608.43 7.61 610.28 6.73 610.28 5L610.28 5Q610.28 3.65 609.12 2.88 607.96 2.1 605.78 1.7L605.78 1.7 598.81 0.53Q597.43 1.13 596.41 2.14 595.38 3.15 595.38 4.5L595.38 4.5Q595.38 6.6 597.5 7.55 599.61 8.5 603.13 8.5ZM601.68-9.25L601.68-9.25Q604.53-9.25 606.03-10.96 607.53-12.68 607.53-15.4L607.53-15.4Q607.53-18.03 606.03-19.71 604.53-21.4 601.68-21.4L601.68-21.4Q598.83-21.4 597.36-19.71 595.88-18.03 595.88-15.4L595.88-15.4Q595.88-12.68 597.36-10.96 598.83-9.25 601.68-9.25ZM623.18 0L618.68 0 618.68-24.5 623.18-24.5 623.18 0ZM623.18-30L618.68-30 618.68-35 623.18-35 623.18-30ZM641.03 0.5L641.03 0.5Q636.7 0.5 633.75-1.28 630.8-3.05 629.29-5.99 627.78-8.93 627.78-12.45L627.78-12.45Q627.78-15.88 629.19-18.73 630.6-21.58 633.29-23.29 635.98-25 639.78-25L639.78-25Q642.83-25 645.22-23.79 647.6-22.58 648.97-20.26 650.33-17.95 650.33-14.65L650.33-14.65Q650.33-14.13 650.29-13.51 650.25-12.9 650.13-12.25L650.13-12.25 632.38-12.25Q632.7-8.85 634-6.95 635.3-5.05 637.28-4.28 639.25-3.5 641.58-3.5L641.58-3.5Q643.28-3.5 645.13-3.85 646.98-4.2 648.63-4.95L648.63-4.95 649.23-1.4Q647.8-0.78 645.75-0.14 643.7 0.5 641.03 0.5ZM632.78-15.35L632.78-15.35 645.68-15.35Q645.68-17.07 645.03-18.35 644.38-19.63 643.05-20.31 641.73-21 639.68-21L639.68-21Q636.68-21 635.07-19.51 633.45-18.03 632.78-15.35ZM661.83 0.5L661.83 0.5Q658.58 0.5 656.44-0.28 654.3-1.05 653.43-1.65L653.43-1.65 653.98-6Q654.78-5.3 656.8-4.4 658.83-3.5 661.63-3.5L661.63-3.5Q664-3.5 665.26-4.3 666.53-5.1 666.53-6.55L666.53-6.55Q666.53-7.83 665.71-8.61 664.9-9.4 663.76-9.86 662.63-10.33 661.63-10.6L661.63-10.6Q659.95-11.05 658.16-11.74 656.38-12.43 655.15-13.8 653.93-15.18 653.93-17.65L653.93-17.65Q653.93-19.53 654.83-21.21 655.73-22.9 657.75-23.95 659.78-25 663.13-25L663.13-25Q665.58-25 667.11-24.49 668.65-23.98 669.78-23.4L669.78-23.4 669.23-19.3Q668.15-20.2 666.73-20.83 665.3-21.45 663.23-21.45L663.23-21.45Q661.13-21.45 659.8-20.66 658.48-19.88 658.48-18.15L658.48-18.15Q658.48-16.43 659.89-15.7 661.3-14.98 664.18-14.1L664.18-14.1Q665.08-13.85 666.26-13.38 667.45-12.9 668.58-12.1 669.7-11.3 670.44-10.01 671.18-8.72 671.18-6.8L671.18-6.8Q671.18-5.18 670.4-3.49 669.63-1.8 667.6-0.65 665.58 0.5 661.83 0.5Z" opacity="1" transform="matrix(1,0,0,1,0,0)" fill="#ff851b" class="undefined-text-1" data-fill-palette-color="secondary" id="text-1"></path></svg></g></svg></g></svg></g></svg></g><g><svg viewBox="0 0 206.6116472568313 138.54285077990085" height="138.54285077990085" width="206.6116472568313"><g><svg xmlns="http://www.w3.org/2000/svg" xmlns:xlink="http://www.w3.org/1999/xlink" version="1.1" x="0" y="0" viewBox="2.2 15.4 85.9 57.6" enable-background="new 0 0 90 90" xml:space="preserve" height="138.54285077990085" width="206.6116472568313" class="icon-icon-0" data-fill-palette-color="accent" id="icon-0"><g fill="#ff851b" data-fill-palette-color="accent"><path d="M6.6 25c0 1.4 1.1 2.5 2.5 2.5s2.5-1.1 2.5-2.5-1.1-2.5-2.5-2.5S6.6 23.6 6.6 25zM10.7 25c0 0.9-0.7 1.6-1.6 1.6-0.9 0-1.6-0.7-1.6-1.6 0-0.9 0.7-1.6 1.6-1.6C10 23.4 10.7 24.1 10.7 25z" fill="#ff851b" data-fill-palette-color="accent"></path><path d="M64.3 27.8H17.2v14.1h47.1V27.8zM63.4 41H18.1V28.7h45.3V41z" fill="#ff851b" data-fill-palette-color="accent"></path><path d="M17.2 53.3H30v-9.7H17.2V53.3zM18.1 44.5h10.9v7.9H18.1V44.5z" fill="#ff851b" data-fill-palette-color="accent"></path><rect x="32.9" y="44.2" width="31" height="0.9" fill="#ff851b" data-fill-palette-color="accent"></rect><rect x="32.9" y="46.6" width="31" height="0.9" fill="#ff851b" data-fill-palette-color="accent"></rect><rect x="32.9" y="49.1" width="31" height="0.9" fill="#ff851b" data-fill-palette-color="accent"></rect><rect x="32.9" y="51.6" width="18" height="0.9" fill="#ff851b" data-fill-palette-color="accent"></rect><rect x="27.8" y="70.5" width="26.1" height="2.5" fill="#ff851b" data-fill-palette-color="accent"></rect><path d="M4.1 20.5h73.5v10.9h1.8V20.5c0-2.8-2.3-5.1-5.1-5.1H7.3c-2.8 0-5.1 2.3-5.1 5.1v38c0 2.8 2.3 5.1 5.1 5.1h24.1L31 69.4h1.8l0.5-5.8h15.1l0.5 5.8h1.8l-0.5-5.8h15.9v-6H4.1V20.5z" fill="#ff851b" data-fill-palette-color="accent"></path><path d="M82.2 32.3h-9.2c-3.3 0-5.9 2.7-5.9 5.9v28.1c0 3.3 2.7 5.9 5.9 5.9h9.2c3.3 0 5.9-2.7 5.9-5.9V38.2C88.1 35 85.4 32.3 82.2 32.3zM68.2 64.8V38.6h18.7v26.2H68.2zM75.9 35.2h3.3c0.3 0 0.6 0.3 0.6 0.6s-0.3 0.6-0.6 0.6h-3.3c-0.3 0-0.6-0.3-0.6-0.6S75.5 35.2 75.9 35.2zM79.3 68c0 0.7-0.6 1.3-1.3 1.3h-0.7c-0.7 0-1.3-0.6-1.3-1.3V68c0-0.7 0.6-1.3 1.3-1.3h0.7C78.6 66.6 79.3 67.2 79.3 68L79.3 68z" fill="#ff851b" data-fill-palette-color="accent"></path><path d="M68.9 49.9h17.2v-6.7H68.9V49.9zM69.7 44h15.5v5H69.7V44z" fill="#ff851b" data-fill-palette-color="accent"></path><path d="M77.2 50.3h-8.4V57h8.4V50.3zM76.4 56.2h-6.6v-5h6.6V56.2z" fill="#ff851b" data-fill-palette-color="accent"></path><path d="M77.7 57h8.4v-6.7h-8.4V57zM78.6 51.2h6.6v5h-6.6V51.2z" fill="#ff851b" data-fill-palette-color="accent"></path><path d="M77.4 42.6c1 0 1.8-0.8 1.8-1.8S78.3 39 77.4 39s-1.8 0.8-1.8 1.8S76.4 42.6 77.4 42.6zM77.4 39.9c0.5 0 0.9 0.4 0.9 0.9s-0.4 0.9-0.9 0.9-0.9-0.4-0.9-0.9S76.8 39.9 77.4 39.9z" fill="#ff851b" data-fill-palette-color="accent"></path><rect x="68.9" y="57.9" width="17.2" height="0.9" fill="#ff851b" data-fill-palette-color="accent"></rect><rect x="68.9" y="59.6" width="17.2" height="0.9" fill="#ff851b" data-fill-palette-color="accent"></rect><rect x="68.9" y="61.2" width="17.2" height="0.9" fill="#ff851b" data-fill-palette-color="accent"></rect><rect x="68.9" y="62.8" width="10.1" height="0.9" fill="#ff851b" data-fill-palette-color="accent"></rect></g></svg></g></svg></g></svg></g><defs></defs></svg><rect width="395.52" height="89.59694195007745" fill="none" stroke="none" visibility="hidden"></rect></g></svg></g></svg>