<svg xmlns="http://www.w3.org/2000/svg" version="1.1" xmlns:xlink="http://www.w3.org/1999/xlink" xmlns:svgjs="http://svgjs.dev/svgjs" width="1000" height="353" viewBox="0 0 1000 353"><g transform="matrix(1,0,0,1,-0.6060571174565439,0.4817787637176707)"><svg viewBox="0 0 396 140" data-background-color="#ffffff" preserveAspectRatio="xMidYMid meet" height="353" width="1000" xmlns="http://www.w3.org/2000/svg" xmlns:xlink="http://www.w3.org/1999/xlink"><g id="tight-bounds" transform="matrix(1,0,0,1,0.23999861851280002,-0.1910737306529029)"><svg viewBox="0 0 395.52 140.38214746130583" height="140.38214746130583" width="395.52"><g><svg viewBox="0 0 644.3354315356332 228.69435569472947" height="140.38214746130583" width="395.52"><g transform="matrix(1,0,0,1,248.8154315356332,82.74209828756243)"><svg viewBox="0 0 395.52 63.21015911960461" height="63.21015911960461" width="395.52"><g id="textblocktransform"><svg viewBox="0 0 395.52 63.21015911960461" height="63.21015911960461" width="395.52" id="textblock"><g><svg viewBox="0 0 395.52 34.09253942104024" height="34.09253942104024" width="395.52"><g transform="matrix(1,0,0,1,0,0)"><svg width="395.52" viewBox="1.4500000476837158 -36.22999954223633 424.8699951171875 36.630001068115234" height="34.09253942104024" data-palette-color="#0074d9"><path d="M23.88-32.52L22.7-30.23Q22.48-29.85 22.23-29.66 21.98-29.48 21.58-29.48L21.58-29.48Q21.15-29.48 20.59-29.9 20.03-30.33 19.16-30.84 18.3-31.35 17.09-31.78 15.88-32.2 14.15-32.2L14.15-32.2Q12.53-32.2 11.28-31.76 10.03-31.33 9.19-30.58 8.35-29.83 7.93-28.81 7.5-27.8 7.5-26.63L7.5-26.63Q7.5-25.13 8.24-24.14 8.97-23.15 10.19-22.45 11.4-21.75 12.94-21.24 14.48-20.73 16.09-20.18 17.7-19.63 19.24-18.94 20.78-18.25 21.99-17.2 23.2-16.15 23.94-14.63 24.68-13.1 24.68-10.88L24.68-10.88Q24.68-8.53 23.88-6.46 23.08-4.4 21.54-2.88 20-1.35 17.76-0.48 15.53 0.4 12.68 0.4L12.68 0.4Q9.2 0.4 6.34-0.86 3.48-2.13 1.45-4.28L1.45-4.28 2.85-6.58Q3.05-6.85 3.34-7.04 3.63-7.23 3.98-7.23L3.98-7.23Q4.5-7.23 5.18-6.66 5.85-6.1 6.86-5.43 7.88-4.75 9.31-4.19 10.75-3.63 12.83-3.63L12.83-3.63Q14.55-3.63 15.9-4.1 17.25-4.58 18.19-5.44 19.13-6.3 19.63-7.5 20.13-8.7 20.13-10.18L20.13-10.18Q20.13-11.8 19.39-12.84 18.65-13.88 17.45-14.58 16.25-15.28 14.71-15.76 13.18-16.25 11.56-16.76 9.95-17.28 8.41-17.95 6.88-18.63 5.68-19.7 4.48-20.78 3.74-22.39 3-24 3-26.38L3-26.38Q3-28.28 3.74-30.05 4.48-31.83 5.88-33.2 7.28-34.58 9.34-35.4 11.4-36.23 14.08-36.23L14.08-36.23Q17.07-36.23 19.55-35.27 22.03-34.33 23.88-32.52L23.88-32.52ZM59.9-35.83L59.9 0 55.02 0 55.02-16.3 35.72-16.3 35.72 0 30.85 0 30.85-35.83 35.72-35.83 35.72-19.85 55.02-19.85 55.02-35.83 59.9-35.83ZM74.4-35.83L74.4 0 69.55 0 69.55-35.83 74.4-35.83ZM94.44 0L79.84-35.83 83.72-35.83Q84.37-35.83 84.77-35.5 85.17-35.18 85.37-34.68L85.37-34.68 95.49-9.4Q95.84-8.55 96.13-7.55 96.42-6.55 96.69-5.48L96.69-5.48Q96.92-6.55 97.18-7.55 97.44-8.55 97.79-9.4L97.79-9.4 107.87-34.68Q108.04-35.1 108.47-35.46 108.89-35.83 109.52-35.83L109.52-35.83 113.42-35.83 98.82 0 94.44 0ZM129.74-35.83L144.06 0 140.31 0Q139.67 0 139.27-0.33 138.87-0.65 138.67-1.15L138.67-1.15 135.31-9.8 119.24-9.8 115.89-1.15Q115.72-0.7 115.29-0.35 114.87 0 114.24 0L114.24 0 110.49 0 124.82-35.83 129.74-35.83ZM126.22-27.85L120.59-13.3 133.97-13.3 128.34-27.88Q127.79-29.23 127.27-31.25L127.27-31.25Q126.99-30.23 126.73-29.36 126.47-28.5 126.22-27.85L126.22-27.85ZM171.44-35.83L158.29-14.25 158.29 0 153.46 0 153.46-14.25 140.34-35.83 144.59-35.83Q145.24-35.83 145.61-35.5 145.99-35.18 146.26-34.7L146.26-34.7 154.46-20.78Q154.96-19.9 155.3-19.13 155.64-18.35 155.91-17.6L155.91-17.6Q156.19-18.38 156.51-19.15 156.84-19.93 157.34-20.78L157.34-20.78 165.51-34.7Q165.74-35.1 166.13-35.46 166.51-35.83 167.14-35.83L167.14-35.83 171.44-35.83ZM191.33-35.83L191.33 0 186.48 0 186.48-35.83 191.33-35.83ZM203.43-35.83L203.43-35.83Q204.08-35.83 204.39-35.66 204.71-35.5 205.11-35L205.11-35 225.86-8Q225.78-8.65 225.76-9.26 225.73-9.88 225.73-10.45L225.73-10.45 225.73-35.83 229.98-35.83 229.98 0 227.53 0Q226.96 0 226.57-0.2 226.18-0.4 225.81-0.88L225.81-0.88 205.08-27.85Q205.13-27.23 205.16-26.63 205.18-26.03 205.18-25.53L205.18-25.53 205.18 0 200.93 0 200.93-35.83 203.43-35.83ZM238.73-35.83L260.8-35.83 260.8-31.88 243.6-31.88 243.6-19.35 258.3-19.35 258.3-15.4 243.6-15.4 243.6 0 238.73 0 238.73-35.83ZM300.3-17.9L300.3-17.9Q300.3-13.88 299.03-10.51 297.75-7.15 295.43-4.73 293.1-2.3 289.84-0.96 286.58 0.38 282.63 0.38L282.63 0.38Q278.68 0.38 275.43-0.96 272.18-2.3 269.85-4.73 267.53-7.15 266.25-10.51 264.98-13.88 264.98-17.9L264.98-17.9Q264.98-21.93 266.25-25.29 267.53-28.65 269.85-31.09 272.18-33.52 275.43-34.88 278.68-36.23 282.63-36.23L282.63-36.23Q286.58-36.23 289.84-34.88 293.1-33.52 295.43-31.09 297.75-28.65 299.03-25.29 300.3-21.93 300.3-17.9ZM295.33-17.9L295.33-17.9Q295.33-21.2 294.43-23.83 293.53-26.45 291.88-28.26 290.23-30.08 287.88-31.05 285.53-32.02 282.63-32.02L282.63-32.02Q279.75-32.02 277.4-31.05 275.05-30.08 273.39-28.26 271.73-26.45 270.83-23.83 269.93-21.2 269.93-17.9L269.93-17.9Q269.93-14.6 270.83-11.99 271.73-9.38 273.39-7.56 275.05-5.75 277.4-4.79 279.75-3.83 282.63-3.83L282.63-3.83Q285.53-3.83 287.88-4.79 290.23-5.75 291.88-7.56 293.53-9.38 294.43-11.99 295.33-14.6 295.33-17.9ZM300.82-35.83L328.87-35.83 328.87-31.75 317.3-31.75 317.3 0 312.45 0 312.45-31.75 300.82-31.75 300.82-35.83ZM333.97-35.83L356.05-35.83 356.05-31.88 338.85-31.88 338.85-19.98 352.77-19.98 352.77-16.18 338.85-16.18 338.85-3.95 356.05-3.95 356.05 0 333.97 0 333.97-35.83ZM388.27-7.4L388.27-7.4Q388.67-7.4 388.99-7.08L388.99-7.08 390.89-5Q388.69-2.45 385.56-1.03 382.42 0.4 377.99 0.4L377.99 0.4Q374.12 0.4 370.97-0.94 367.82-2.27 365.59-4.69 363.37-7.1 362.14-10.48 360.92-13.85 360.92-17.9L360.92-17.9Q360.92-21.95 362.23-25.33 363.54-28.7 365.92-31.13 368.29-33.55 371.61-34.89 374.92-36.23 378.92-36.23L378.92-36.23Q382.87-36.23 385.73-35 388.59-33.77 390.82-31.68L390.82-31.68 389.24-29.45Q389.07-29.2 388.84-29.04 388.62-28.88 388.19-28.88L388.19-28.88Q387.87-28.88 387.51-29.11 387.14-29.35 386.64-29.7 386.14-30.05 385.47-30.45 384.79-30.85 383.87-31.2 382.94-31.55 381.72-31.79 380.49-32.02 378.89-32.02L378.89-32.02Q376.02-32.02 373.63-31.04 371.24-30.05 369.52-28.23 367.79-26.4 366.83-23.78 365.87-21.15 365.87-17.9L365.87-17.9Q365.87-14.55 366.83-11.93 367.79-9.3 369.46-7.49 371.12-5.68 373.39-4.73 375.67-3.78 378.29-3.78L378.29-3.78Q379.89-3.78 381.17-3.96 382.44-4.15 383.53-4.55 384.62-4.95 385.56-5.56 386.49-6.18 387.44-7.03L387.44-7.03Q387.87-7.4 388.27-7.4ZM426.32-35.83L426.32 0 421.44 0 421.44-16.3 402.14-16.3 402.14 0 397.27 0 397.27-35.83 402.14-35.83 402.14-19.85 421.44-19.85 421.44-35.83 426.32-35.83Z" opacity="1" transform="matrix(1,0,0,1,0,0)" fill="#0074d9" class="undefined-text-0" data-fill-palette-color="primary" id="text-0"></path></svg></g></svg></g><g transform="matrix(1,0,0,1,0,42.14096975740174)"><svg viewBox="0 0 211.63032015971302 21.06918936220287" height="21.06918936220287" width="211.63032015971302"><g transform="matrix(1,0,0,1,0,0)"><svg width="211.63032015971302" viewBox="2.759999990463257 -31.610000610351562 401.72998046875 40" height="21.06918936220287" data-palette-color="#ff851b"><path d="M7.61-20.2Q7.07-17.82 7.07-15.55 7.07-13.28 7.61-10.86 8.16-8.45 9.48-6.64 10.8-4.83 12.76-3.74 14.71-2.64 17.53-2.64 20.34-2.64 22.36-3.74 24.37-4.83 25.63-6.64 26.9-8.45 27.5-10.86 28.1-13.28 28.1-15.55 28.1-17.82 27.5-20.2 26.9-22.59 25.63-24.4 24.37-26.21 22.36-27.3 20.34-28.39 17.53-28.39 14.71-28.39 12.76-27.3 10.8-26.21 9.48-24.4 8.16-22.59 7.61-20.2ZM2.76-15.63L2.76-15.63Q2.76-18.97 3.74-21.95 4.71-24.94 6.67-27.07L6.67-27.07Q10.57-31.55 17.47-31.61L17.47-31.61Q24.48-31.61 28.45-27.07L28.45-27.07Q30.34-24.94 31.29-21.95 32.24-18.97 32.24-15.63L32.24-15.63Q32.24-12.24 31.29-9.17 30.34-6.09 28.45-4.02L28.45-4.02Q24.48 0.46 17.47 0.46L17.47 0.46Q10.52 0.46 6.67-4.02L6.67-4.02Q4.71-6.21 3.74-9.22 2.76-12.24 2.76-15.63ZM38.45-1.61L38.45-20.17Q38.45-20.92 39.02-21.38 39.6-21.84 40.17-21.84L40.17-21.84Q41.38-21.84 41.72-20.92 42.07-20 41.89-18.16L41.89-18.16Q42.58-19.89 44.88-21.15L44.88-21.15Q46.89-22.24 48.88-22.24 50.86-22.24 52.24-21.75 53.62-21.26 54.77-20.23L54.77-20.23Q57.07-18.05 57.07-13.79L57.07-13.79 57.07-1.61Q57.07-0.8 56.46-0.4 55.86 0 55.23 0L55.23 0Q54.54 0 54.02-0.43 53.5-0.86 53.5-1.61L53.5-1.61 53.5-14.02Q53.5-16.72 52.01-18.16L52.01-18.16Q50.63-19.54 48.56-19.54L48.56-19.54Q45.8-19.54 43.85-17.93L43.85-17.93Q41.89-16.21 41.89-12.64L41.89-12.64 41.89-1.61Q41.89-0.8 41.32-0.4 40.74 0 40.05 0L40.05 0Q39.37 0 38.91-0.43 38.45-0.86 38.45-1.61L38.45-1.61ZM83.21-11.55L83.21-11.55Q83.21-10.34 81.83-10.23L81.83-10.23 66.09-10.23Q66.32-4.37 70.68-2.64L70.68-2.64Q71.89-2.24 73.44-2.24L73.44-2.24Q76.66-2.24 80-4.6L80-4.6Q81.03-5.17 81.72-4.48L81.72-4.48Q82.06-4.14 81.95-3.79L81.95-3.79Q81.95-2.99 81.55-2.64L81.55-2.64Q78.39 0.52 73.21 0.46L73.21 0.46Q68.5 0.46 65.63-2.59L65.63-2.59Q62.41-5.75 62.41-10.92L62.41-10.92Q62.41-15.69 65.05-18.79L65.05-18.79Q67.81-22.24 72.87-22.24L72.87-22.24Q77.93-22.24 80.57-19.2L80.57-19.2Q83.1-16.44 83.21-11.55ZM66.2-12.59L79.82-12.59Q79.65-15.69 77.81-17.7L77.81-17.7Q76.09-19.54 72.87-19.54L72.87-19.54Q70.11-19.54 68.16-17.47L68.16-17.47Q66.37-15.4 66.2-12.59L66.2-12.59ZM103.84-23.45L103.84-23.45Q103.84-22.24 104.65-21.18 105.45-20.11 106.71-19.43 107.98-18.74 109.59-18.22 111.2-17.7 112.98-17.13 114.76-16.55 116.48-15.86 118.21-15.17 119.47-14.14L119.47-14.14Q122.23-11.9 122.23-8.05L122.23-8.05Q122.23-6.21 121.37-4.57 120.51-2.93 118.96-1.84L118.96-1.84Q115.79 0.46 110.51 0.46L110.51 0.46Q105.51 0.46 101.71-2.07L101.71-2.07Q99.36-3.56 99.36-4.6L99.36-4.6Q99.36-5.52 100.28-6.09L100.28-6.09Q100.51-6.32 100.85-6.32 101.2-6.32 101.6-6.03 102-5.75 102.55-5.34 103.09-4.94 103.93-4.45 104.76-3.97 105.68-3.56L105.68-3.56Q107.98-2.64 110.16-2.7 112.35-2.76 113.67-3.05 114.99-3.33 116.02-4.02L116.02-4.02Q118.21-5.52 118.27-7.82L118.27-7.82Q118.27-10.69 115.45-12.24L115.45-12.24Q114.19-12.93 112.6-13.48 111.02-14.02 109.27-14.54 107.52-15.06 105.79-15.8 104.07-16.55 102.75-17.59L102.75-17.59Q99.93-19.83 99.93-23.33L99.93-23.33Q99.93-25.17 100.82-26.78 101.71-28.39 103.27-29.43L103.27-29.43Q106.25-31.55 110.74-31.61L110.74-31.61Q117.23-31.61 121.2-27.41L121.2-27.41Q121.43-27.07 121.43-26.64 121.43-26.21 121.4-25.92 121.37-25.63 121.08-25.34L121.08-25.34Q120.68-24.83 120.02-24.83 119.36-24.83 118.61-25.69L118.61-25.69Q116.71-27.07 115.56-27.47L115.56-27.47Q113.27-28.39 111.08-28.39L111.08-28.39Q108.27-28.39 106.25-27.24L106.25-27.24Q103.84-25.86 103.84-23.45ZM139.59-1.26L139.59-1.26Q139.59 0.46 135.5 0.46L135.5 0.46Q132.46 0.46 131.19-1.21L131.19-1.21Q129.82-2.99 129.7-7.07L129.7-7.07 129.7-19.14 127.17-19.14Q126.48-19.14 126.08-19.57 125.68-20 125.68-20.46L125.68-20.46Q125.68-20.92 126.02-21.38 126.37-21.84 127.17-21.84L127.17-21.84 129.93-21.84 130.16-28.05Q130.27-28.74 130.79-29.11 131.31-29.48 131.88-29.48 132.46-29.48 132.86-29.14 133.26-28.79 133.26-28.05L133.26-28.05 133.26-21.84 137.23-21.84Q137.92-21.84 138.29-21.38 138.67-20.92 138.67-20.46L138.67-20.46Q138.67-19.89 138.29-19.51 137.92-19.14 137.23-19.14L137.23-19.14 133.26-19.14 133.26-8.97Q133.26-4.71 133.55-3.82 133.84-2.93 134.47-2.59 135.1-2.24 136.02-2.24L136.02-2.24 138.26-2.41Q138.9-2.41 139.24-2.01 139.59-1.61 139.59-1.26ZM141.94-10.86L141.94-10.86Q141.94-12.93 142.6-15 143.26-17.07 144.64-18.74L144.64-18.74Q147.51-22.24 152.8-22.24 158.09-22.24 160.96-18.74L160.96-18.74Q163.66-15.4 163.66-10.92L163.66-10.92Q163.66-6.38 160.96-3.1L160.96-3.1Q158.09 0.46 152.8 0.46 147.51 0.46 144.64-3.1L144.64-3.1Q141.94-6.32 141.94-10.86ZM145.67-10.86L145.67-10.86Q145.67-9.48 146.05-7.93 146.42-6.38 147.4-5.06L147.4-5.06Q149.35-2.24 152.8-2.24L152.8-2.24Q156.42-2.24 158.2-5.06L158.2-5.06Q159.87-7.7 159.87-10.92L159.87-10.92Q159.87-14.25 158.2-16.67L158.2-16.67Q156.36-19.54 152.8-19.54L152.8-19.54Q149.35-19.54 147.4-16.67L147.4-16.67Q145.67-14.31 145.67-10.86ZM171.99-18.1L171.99-18.1Q174.24-22.24 179.81-22.24L179.81-22.24Q184.41-22.24 186.82-18.74L186.82-18.74Q189.01-15.52 189.01-10.8L189.01-10.8Q189.01-5.98 186.71-2.93L186.71-2.93Q184.24 0.52 179.75 0.46L179.75 0.46Q175.96 0.46 173.55-1.84L173.55-1.84Q172.68-2.59 171.99-3.62L171.99-3.62 171.99 6.72Q171.99 7.59 171.42 7.99 170.84 8.39 170.27 8.39L170.27 8.39Q169.58 8.39 169.01 7.93 168.43 7.47 168.43 6.72L168.43 6.72 168.43-20.17Q168.43-21.03 168.95-21.44 169.47-21.84 170.44-21.84L170.44-21.84Q172.34-21.84 171.99-18.1ZM173.4-17.01Q172.57-15.86 172.28-14.25 171.99-12.64 171.99-10.89 171.99-9.14 172.4-7.61 172.8-6.09 173.6-4.83L173.6-4.83Q175.44-2.18 178.89-2.24L178.89-2.24Q182.22-2.24 183.95-5L183.95-5Q185.27-7.24 185.27-10.92L185.27-10.92Q185.27-16.72 181.99-18.74L181.99-18.74Q180.79-19.48 178.86-19.51 176.94-19.54 175.59-18.85 174.24-18.16 173.4-17.01ZM206.99-1.9L206.99-29.48Q206.99-30.69 208.14-31.21L208.14-31.21Q208.48-31.26 209.12-31.32 209.75-31.38 210.29-30.92 210.84-30.46 210.84-29.48L210.84-29.48 210.84-1.9Q210.84-0.52 209.63-0.11L209.63-0.11Q209.29 0 208.71 0 208.14 0 207.56-0.46 206.99-0.92 206.99-1.9L206.99-1.9ZM230.26-1.26L230.26-1.26Q230.26 0.46 226.18 0.46L226.18 0.46Q223.14 0.46 221.87-1.21L221.87-1.21Q220.49-2.99 220.38-7.07L220.38-7.07 220.38-19.14 217.85-19.14Q217.16-19.14 216.76-19.57 216.35-20 216.35-20.46L216.35-20.46Q216.35-20.92 216.7-21.38 217.04-21.84 217.85-21.84L217.85-21.84 220.61-21.84 220.84-28.05Q220.95-28.74 221.47-29.11 221.99-29.48 222.56-29.48 223.14-29.48 223.54-29.14 223.94-28.79 223.94-28.05L223.94-28.05 223.94-21.84 227.91-21.84Q228.6-21.84 228.97-21.38 229.34-20.92 229.34-20.46L229.34-20.46Q229.34-19.89 228.97-19.51 228.6-19.14 227.91-19.14L227.91-19.14 223.94-19.14 223.94-8.97Q223.94-4.71 224.23-3.82 224.52-2.93 225.15-2.59 225.78-2.24 226.7-2.24L226.7-2.24 228.94-2.41Q229.57-2.41 229.92-2.01 230.26-1.61 230.26-1.26ZM249.4-23.45L249.4-23.45Q249.4-22.24 250.2-21.18 251-20.11 252.27-19.43 253.53-18.74 255.14-18.22 256.75-17.7 258.53-17.13 260.31-16.55 262.04-15.86 263.76-15.17 265.03-14.14L265.03-14.14Q267.79-11.9 267.79-8.05L267.79-8.05Q267.79-6.21 266.92-4.57 266.06-2.93 264.51-1.84L264.51-1.84Q261.35 0.46 256.06 0.46L256.06 0.46Q251.06 0.46 247.27-2.07L247.27-2.07Q244.91-3.56 244.91-4.6L244.91-4.6Q244.91-5.52 245.83-6.09L245.83-6.09Q246.06-6.32 246.41-6.32 246.75-6.32 247.15-6.03 247.56-5.75 248.1-5.34 248.65-4.94 249.48-4.45 250.31-3.97 251.23-3.56L251.23-3.56Q253.53-2.64 255.72-2.7 257.9-2.76 259.22-3.05 260.54-3.33 261.58-4.02L261.58-4.02Q263.76-5.52 263.82-7.82L263.82-7.82Q263.82-10.69 261-12.24L261-12.24Q259.74-12.93 258.16-13.48 256.58-14.02 254.83-14.54 253.07-15.06 251.35-15.8 249.63-16.55 248.3-17.59L248.3-17.59Q245.49-19.83 245.49-23.33L245.49-23.33Q245.49-25.17 246.38-26.78 247.27-28.39 248.82-29.43L248.82-29.43Q251.81-31.55 256.29-31.61L256.29-31.61Q262.79-31.61 266.75-27.41L266.75-27.41Q266.98-27.07 266.98-26.64 266.98-26.21 266.95-25.92 266.92-25.63 266.64-25.34L266.64-25.34Q266.23-24.83 265.57-24.83 264.91-24.83 264.17-25.69L264.17-25.69Q262.27-27.07 261.12-27.47L261.12-27.47Q258.82-28.39 256.64-28.39L256.64-28.39Q253.82-28.39 251.81-27.24L251.81-27.24Q249.4-25.86 249.4-23.45ZM272.09-10.86L272.09-10.86Q272.09-12.93 272.75-15 273.42-17.07 274.8-18.74L274.8-18.74Q277.67-22.24 282.96-22.24 288.24-22.24 291.12-18.74L291.12-18.74Q293.82-15.4 293.82-10.92L293.82-10.92Q293.82-6.38 291.12-3.1L291.12-3.1Q288.24 0.46 282.96 0.46 277.67 0.46 274.8-3.1L274.8-3.1Q272.09-6.32 272.09-10.86ZM275.83-10.86L275.83-10.86Q275.83-9.48 276.2-7.93 276.58-6.38 277.55-5.06L277.55-5.06Q279.51-2.24 282.96-2.24L282.96-2.24Q286.58-2.24 288.36-5.06L288.36-5.06Q290.02-7.7 290.02-10.92L290.02-10.92Q290.02-14.25 288.36-16.67L288.36-16.67Q286.52-19.54 282.96-19.54L282.96-19.54Q279.51-19.54 277.55-16.67L277.55-16.67Q275.83-14.31 275.83-10.86ZM299.05-1.72L299.05-29.54Q299.05-30.46 299.62-30.86 300.19-31.26 300.65-31.26 301.11-31.26 301.4-31.21 301.69-31.15 301.98-30.86L301.98-30.86Q302.61-30.46 302.61-29.54L302.61-29.54 302.61-1.72Q302.61-0.86 302.03-0.43 301.46 0 300.77 0L300.77 0Q300.08 0 299.56-0.43 299.05-0.86 299.05-1.72L299.05-1.72ZM328.01-20.11L328.01-1.61Q328.01-0.8 327.41-0.4 326.8 0 326.37 0 325.94 0 325.59-0.09 325.25-0.17 325.02-0.46L325.02-0.46Q324.45-0.86 324.45-1.61L324.45-1.61 324.45-3.62Q323.07-0.57 319.39 0.17L319.39 0.17Q318.24 0.46 316.92 0.46 315.59 0.46 314.16 0 312.72-0.46 311.69-1.49L311.69-1.49Q309.39-3.68 309.39-8.05L309.39-8.05 309.39-20.11Q309.39-20.92 309.91-21.38 310.42-21.84 311.11-21.84L311.11-21.84Q311.8-21.84 312.32-21.38 312.84-20.92 312.84-20.11L312.84-20.11 312.84-7.76Q312.84-4.66 314.1-3.45L314.1-3.45Q315.36-2.24 317.89-2.24L317.89-2.24Q322.15-2.24 323.76-5.69L323.76-5.69Q324.39-6.9 324.45-8.45L324.45-8.45 324.45-20.11Q324.45-20.92 325.02-21.38 325.59-21.84 326.28-21.84L326.28-21.84Q326.97-21.84 327.49-21.38 328.01-20.92 328.01-20.11L328.01-20.11ZM346.22-1.26L346.22-1.26Q346.22 0.46 342.14 0.46L342.14 0.46Q339.1 0.46 337.83-1.21L337.83-1.21Q336.45-2.99 336.34-7.07L336.34-7.07 336.34-19.14 333.81-19.14Q333.12-19.14 332.72-19.57 332.32-20 332.32-20.46L332.32-20.46Q332.32-20.92 332.66-21.38 333.01-21.84 333.81-21.84L333.81-21.84 336.57-21.84 336.8-28.05Q336.91-28.74 337.43-29.11 337.95-29.48 338.52-29.48 339.1-29.48 339.5-29.14 339.9-28.79 339.9-28.05L339.9-28.05 339.9-21.84 343.87-21.84Q344.56-21.84 344.93-21.38 345.3-20.92 345.3-20.46L345.3-20.46Q345.3-19.89 344.93-19.51 344.56-19.14 343.87-19.14L343.87-19.14 339.9-19.14 339.9-8.97Q339.9-4.71 340.19-3.82 340.48-2.93 341.11-2.59 341.74-2.24 342.66-2.24L342.66-2.24 344.9-2.41Q345.53-2.41 345.88-2.01 346.22-1.61 346.22-1.26ZM354.27-29.43L354.27-29.43Q354.27-28.51 353.64-27.93 353-27.36 351.85-27.36 350.7-27.36 350.07-27.93 349.44-28.51 349.44-29.43L349.44-29.43Q349.44-30.23 350.07-30.8 350.7-31.38 351.88-31.38 353.06-31.38 353.66-30.8 354.27-30.23 354.27-29.43ZM350.13-1.72L350.13-20Q350.13-20.86 350.7-21.35 351.28-21.84 351.74-21.84 352.2-21.84 352.49-21.7 352.77-21.55 353.06-21.26L353.06-21.26Q353.69-20.86 353.69-20L353.69-20 353.69-1.72Q353.69-0.86 353.12-0.43 352.54 0 351.85 0L351.85 0Q351.16 0 350.65-0.43 350.13-0.86 350.13-1.72L350.13-1.72ZM358.92-10.86L358.92-10.86Q358.92-12.93 359.58-15 360.24-17.07 361.62-18.74L361.62-18.74Q364.5-22.24 369.78-22.24 375.07-22.24 377.94-18.74L377.94-18.74Q380.64-15.4 380.64-10.92L380.64-10.92Q380.64-6.38 377.94-3.1L377.94-3.1Q375.07 0.46 369.78 0.46 364.5 0.46 361.62-3.1L361.62-3.1Q358.92-6.32 358.92-10.86ZM362.66-10.86L362.66-10.86Q362.66-9.48 363.03-7.93 363.4-6.38 364.38-5.06L364.38-5.06Q366.33-2.24 369.78-2.24L369.78-2.24Q373.4-2.24 375.18-5.06L375.18-5.06Q376.85-7.7 376.85-10.92L376.85-10.92Q376.85-14.25 375.18-16.67L375.18-16.67Q373.35-19.54 369.78-19.54L369.78-19.54Q366.33-19.54 364.38-16.67L364.38-16.67Q362.66-14.31 362.66-10.86ZM385.87-1.61L385.87-20.17Q385.87-20.92 386.45-21.38 387.02-21.84 387.6-21.84L387.6-21.84Q388.8-21.84 389.15-20.92 389.49-20 389.32-18.16L389.32-18.16Q390.01-19.89 392.31-21.15L392.31-21.15Q394.32-22.24 396.3-22.24 398.29-22.24 399.67-21.75 401.04-21.26 402.19-20.23L402.19-20.23Q404.49-18.05 404.49-13.79L404.49-13.79 404.49-1.61Q404.49-0.8 403.89-0.4 403.29 0 402.65 0L402.65 0Q401.96 0 401.45-0.43 400.93-0.86 400.93-1.61L400.93-1.61 400.93-14.02Q400.93-16.72 399.44-18.16L399.44-18.16Q398.06-19.54 395.99-19.54L395.99-19.54Q393.23-19.54 391.27-17.93L391.27-17.93Q389.32-16.21 389.32-12.64L389.32-12.64 389.32-1.61Q389.32-0.8 388.75-0.4 388.17 0 387.48 0L387.48 0Q386.79 0 386.33-0.43 385.87-0.86 385.87-1.61L385.87-1.61Z" opacity="1" transform="matrix(1,0,0,1,0,0)" fill="#ff851b" class="undefined-text-1" data-fill-palette-color="secondary" id="text-1"></path></svg></g></svg></g></svg></g></svg></g><g><svg viewBox="0 0 228.69435569472947 228.69435569472947" height="228.69435569472947" width="228.69435569472947"><g><svg viewBox="0 0 228.69435569472947 228.69435569472947" height="228.69435569472947" width="228.69435569472947"><g transform="matrix(1,0,0,1,66.02075279730306,60.443401270420885)"><svg viewBox="0 0 96.65285010012335 107.8075531538877" height="107.8075531538877" width="96.65285010012335"><g><svg xmlns="http://www.w3.org/2000/svg" data-name="Layer 1" viewBox="66.55990600585938 25.359987258911133 413.590087890625 461.322509765625" x="0" y="0" height="107.8075531538877" width="96.65285010012335" class="icon-s-0" data-fill-palette-color="accent" id="s-0"><polygon points="436.7 476.55 447.86 469.03 447.86 415.45 436.7 422.98 436.7 476.55" fill="#ff851b" data-fill-palette-color="accent"></polygon><polygon points="468.99 401.19 468.99 454.75 480.15 447.23 480.15 393.65 468.99 401.19" fill="#ff851b" data-fill-palette-color="accent"></polygon><path d="M107.37 321.64a145 145 0 0 0 20.13 9.59l0.73 0.29h0l0.77 0.29a174.72 174.72 0 0 0 16.81 5.39h0a227.52 227.52 0 0 0 113.8 0h0a171.45 171.45 0 0 0 16.83-5.41l0.77-0.28 0.73-0.28 0.69-0.27a151 151 0 0 0 15.33-7l-3.75-2.18a141.87 141.87 0 0 1-17.14 7.71l-0.76 0.29-0.8 0.3c-41.88 15.31-95.71 15.31-137.58 0-0.28-0.1-0.55-0.19-0.82-0.3s-0.53-0.18-0.79-0.29a141.26 141.26 0 0 1-20.69-9.69c-12.22-7.06-21.46-15.19-27.75-23.86-5.83-8-9.11-16.55-9.84-25.12a0 0 0 0 0 0 0c1.5-17.81 14-35.37 37.59-49a147 147 0 0 1 27.63-12.13v61.12s0 0 0 0 0.11 0.46 0.33 1.35a24.51 24.51 0 0 0 1.35 3.75A29.61 29.61 0 0 0 148.85 286c0.51 0.44 1.05 0.88 1.61 1.32 5.08 4 12.31 7.62 21.17 10.25a99.78 99.78 0 0 0 14.49 3.16 118.84 118.84 0 0 0 33.27 0 99.63 99.63 0 0 0 14.48-3.16c8.87-2.63 16.09-6.25 21.17-10.25 0.57-0.44 1.1-0.87 1.62-1.32a29.86 29.86 0 0 0 7.87-10.12 24.24 24.24 0 0 0 1.34-3.75c0.23-0.89 0.33-1.35 0.33-1.35s0 0 0 0V209.63a146.67 146.67 0 0 1 27.63 12.13c23.57 13.61 36.09 31.17 37.59 49a0 0 0 0 0 0 0c-0.73 8.56-4 17.07-9.83 25.12A74.63 74.63 0 0 1 309.31 309l3.95 2.28 0.31-0.26a87 87 0 0 0 8-7.56c0.78-0.84 1.53-1.69 2.25-2.54 0-0.06 0.08-0.09 0.1-0.12a1.37 1.37 0 0 1 0.16-0.18c8.66-10.33 13.24-21.9 13.23-33.42 0-20.52-13.92-39.86-39.19-54.45a154.09 154.09 0 0 0-31.94-13.67V91.15c-0.74 8.78-6.91 17.44-18.53 24.15-24.81 14.32-65 14.32-89.83 0-11.62-6.71-17.8-15.37-18.54-24.15V199.06a154 154 0 0 0-31.93 13.67c-25.28 14.59-39.2 33.93-39.2 54.45 0 12.85 5.46 25.24 15.75 36.29A100 100 0 0 0 107.37 321.64ZM266.2 203a144.9 144.9 0 0 1 27.37 12c22.76 13.14 36 30.77 37.35 49.16C327.12 248 314.28 233 294.11 221.3a145.56 145.56 0 0 0-27.91-12.23Zm-15.91-5.5a3 3 0 0 1-0.18 0.5 2.39 2.39 0 0 1-0.28 0.49 2.71 2.71 0 0 1-0.82 0.72 66.73 66.73 0 0 1-7.43 3.69c-0.29 0.13-0.56 0.25-0.85 0.36h0c-0.32 0.14-0.63 0.26-0.95 0.38a99.36 99.36 0 0 1-32.19 6.5 13 13 0 0 0 6.54-5.83 95 95 0 0 0 13.49-2.4l1.49-0.37 0 0 1.24-0.35a74.2 74.2 0 0 0 11.5-4.32l0.86-0.4 0.73-0.38c1-0.49 1.94-1 2.87-1.55a2.68 2.68 0 0 1 0.8-0.3 2.65 2.65 0 0 1 2.07 0.43 2.43 2.43 0 0 1 0.81 0.87A2.64 2.64 0 0 1 250.29 197.52Zm-35.07-2.74c1.67-0.2 3.31-0.43 4.95-0.72l2.12-0.37q0.86-0.16 1.71-0.36c2.29-0.48 4.56-1 6.76-1.7 0.43-0.11 0.85-0.24 1.27-0.38s0.8-0.25 1.19-0.39a69.33 69.33 0 0 0 13.1-5.75 2.69 2.69 0 1 1 2.69 4.67q-2.53 1.49-5.27 2.74l-0.85 0.39-0.88 0.38c-1.45 0.64-2.95 1.23-4.47 1.77-0.33 0.13-0.66 0.25-1 0.36s-0.74 0.26-1.13 0.38a95.44 95.44 0 0 1-18.52 4.14l-1.35 0.17 0-0.26a13 13 0 0 0 0.11-1.66A12.81 12.81 0 0 0 215.22 194.78Zm31.1-19.12a2.69 2.69 0 1 1 2.69 4.67 83.47 83.47 0 0 1-26.82 9.36l-2.18 0.36c-0.85 0.13-1.69 0.26-2.54 0.36-1.34 0.19-2.69 0.34-4.05 0.46-0.17-0.24-0.34-0.48-0.53-0.7a4.79 4.79 0 0 0-0.46-0.55 5.69 5.69 0 0 0-0.54-0.56A12.71 12.71 0 0 0 207 186C221.32 185.41 235.38 182 246.32 175.66Zm-90.82 1a2.7 2.7 0 0 1 3.69-1c10.93 6.31 25 9.75 39.34 10.32a12.75 12.75 0 0 0-4.92 3.08 7.11 7.11 0 0 0-0.53 0.56 4.79 4.79 0 0 0-0.46 0.55 7.25 7.25 0 0 0-0.54 0.7c-1.36-0.12-2.7-0.27-4.05-0.46-0.84-0.1-1.69-0.23-2.53-0.36s-1.45-0.23-2.17-0.36a83.5 83.5 0 0 1-26.84-9.36A2.71 2.71 0 0 1 155.5 176.64Zm0 9.45a2.7 2.7 0 0 1 3.69-1 68.69 68.69 0 0 0 13.1 5.75c0.4 0.14 0.79 0.27 1.19 0.39s0.83 0.27 1.26 0.38c2.2 0.66 4.47 1.22 6.77 1.7 0.57 0.13 1.13 0.25 1.71 0.36l2.12 0.37c1.63 0.29 3.28 0.52 4.95 0.72a12.81 12.81 0 0 0-0.46 3.41 15.1 15.1 0 0 0 0.1 1.66l0 0.26-1.35-0.17a95.54 95.54 0 0 1-18.53-4.14c-0.38-0.12-0.76-0.24-1.12-0.38s-0.68-0.23-1-0.36c-1.51-0.54-3-1.13-4.47-1.77-0.3-0.12-0.58-0.25-0.87-0.38l-0.86-0.39q-2.73-1.26-5.27-2.74A2.71 2.71 0 0 1 155.5 186.09Zm0 9.46a2.49 2.49 0 0 1 0.8-0.87 2.68 2.68 0 0 1 2.07-0.43 2.8 2.8 0 0 1 0.82 0.3c0.93 0.54 1.89 1.06 2.86 1.55l0.74 0.38 0.85 0.4a74.71 74.71 0 0 0 11.51 4.32l1.24 0.35 0 0 1.49 0.37a95 95 0 0 0 13.49 2.4 12.87 12.87 0 0 0 6.53 5.83 99.35 99.35 0 0 1-32.18-6.5c-0.32-0.12-0.63-0.24-1-0.38h0c-0.29-0.11-0.57-0.23-0.86-0.36a66.73 66.73 0 0 1-7.43-3.69 2.56 2.56 0 0 1-0.81-0.72 2 2 0 0 1-0.28-0.49 2.13 2.13 0 0 1-0.18-0.5A2.65 2.65 0 0 1 155.5 195.55Zm-43.56 19.51a145.09 145.09 0 0 1 27.36-12v6a146 146 0 0 0-27.89 12.23C91.23 233 78.38 248 74.59 264.22 75.89 245.83 89.18 228.2 111.94 215.06Z" fill="#ff851b" data-fill-palette-color="accent"></path><path d="M336.06 307.77a45.19 45.19 0 0 0 1.27-10.67V296h0V281.3a59.09 59.09 0 0 1-11.49 20.57Z" fill="#ff851b" data-fill-palette-color="accent"></path><path d="M321.41 357.66l-0.51-0.3-0.75-0.43h0l-2-1.17L316 354.52h0l-10.65-6.14-0.52-0.3-0.51-0.3L279 333.11h0c-4.93 1.95-10.07 3.68-15.35 5.21a220.84 220.84 0 0 1-60.91 8.25 220.69 220.69 0 0 1-60.89-8.25h0Q133.66 336 126.05 333l-0.73-0.29-0.71-0.29a145.07 145.07 0 0 1-18.31-8.88 104.38 104.38 0 0 1-22.38-16.92c-7.7-7.81-13-16.32-15.75-25.25v15.79c0 12.84 5.45 25.23 15.75 36.28a91.37 91.37 0 0 0 14.8 12.68l0.48 0.33 0.46 0.31q3.65 2.52 7.71 4.85l1 0.54c25.36 14.37 58.82 22.26 94.42 22.26 27.87 0 54.45-4.85 76.85-13.84l0.6 0.34 0.57 0.34 0 0c-23.31 9.47-50.64 14.21-78 14.21-34.54 0-69.08-7.57-95.52-22.71l-0.4-0.23c-2.85-1.65-5.57-3.36-8.11-5.13l-0.46-0.31-0.48-0.34a92.86 92.86 0 0 1-13.86-11.79V352s0.06 0.69 0.2 2.11c0 0.35 0.08 0.74 0.12 1.18s0.16 0.92 0.26 1.45c0 0.28 0.1 0.58 0.16 0.89s0.07 0.45 0.12 0.69a0.78 0.78 0 0 0 0 0.14c0 0.14 0.07 0.29 0.1 0.44 0.13 0.48 0.26 1 0.4 1.51 1.37 5.53 4.93 13.82 13.17 22.43A87.54 87.54 0 0 0 116.78 397a126.9 126.9 0 0 0 20.31 9.62c17.48 6.52 39.61 11.08 65.66 11.16 26.06-0.08 48.2-4.64 65.68-11.16A127.47 127.47 0 0 0 288.72 397 87 87 0 0 0 307 382.82c1.37-1.42 2.61-2.84 3.72-4.24l2.06 1.19a63.88 63.88 0 0 1-7.09 8.46 83.48 83.48 0 0 1-10.2 8.75c-2.2 1.62-4.54 3.21-7 4.75A130.53 130.53 0 0 1 265 413a183.35 183.35 0 0 1-62.28 10.48A183.23 183.23 0 0 1 140.49 413 129.56 129.56 0 0 1 117 401.73c-2.49-1.54-4.83-3.13-7-4.75a84.89 84.89 0 0 1-10.19-8.75 60.62 60.62 0 0 1-10.47-14 46.47 46.47 0 0 1-4.49-11.92c-0.22-1-0.38-2-0.5-2.87 0-0.21-0.07-0.42-0.1-0.64s0-0.49-0.08-0.72c-0.14-1.23-0.21-2.28-0.23-3.15v3.39C72.59 370 66.56 383.22 66.56 397a45.28 45.28 0 0 0 0.53 7v4.36c0 20.05 13.25 40.08 39.74 55.38 53 30.59 138.87 30.59 191.84 0 26.5-15.3 39.74-35.33 39.74-55.38V404a44.08 44.08 0 0 0 0.54-7c0-0.72 0-1.42-0.06-2.14l70.48 40.73 0.54 0.31v0.61l0 26.08 24.6 14.15V423l-113-65.28ZM337.88 397c0 10.36-3.51 20.41-10.19 29.72s-16.55 17.84-29.28 25.2c-52.74 30.45-138.57 30.45-191.31 0C81.64 437.2 67.63 417.7 67.63 397c0-13.15 5.64-25.81 16.29-37.07v30a40.14 40.14 0 0 0 0.63 7.07 46.79 46.79 0 0 0 8.07 18.74c5.8 8.26 14.5 16 26.1 22.71 46.41 26.79 121.65 26.79 168.07 0 20.07-11.6 31.48-26.31 34.16-41.45a39.22 39.22 0 0 0 0.64-7.07v-5.08l16.19 9.37C337.85 395.12 337.88 396.05 337.88 397Z" fill="#ff851b" data-fill-palette-color="accent"></path><path d="M83.91 354.62c0 0.12 0 0.24 0 0.35v-3S83.91 352.88 83.91 354.62Z" fill="#ff851b" data-fill-palette-color="accent"></path><path d="M318.44 338l-0.48-0.28-0.48-0.28-21.3-12.3-0.57 0.32c-0.56 0.3-1.12 0.6-1.68 0.88l-1.7 0.87c-1 0.5-2 1-3.05 1.49l-1.33 0.62c-0.88 0.41-1.78 0.82-2.69 1.22-1.21 0.52-2.43 1-3.66 1.55h0l3.24 1.87h0l4.89 2.83h0l16.56 9.58h0l0.5 0.29h0l0.09 0.06a4.28 4.28 0 0 1 0.38 0.26l0 0 4.17 2.4v0l9.82 5.66 0.3 0.17 114 65.88 12.31-8.32-126.31-73Z" fill="#ff851b" data-fill-palette-color="accent"></path><path d="M336.72 309.39l-0.07-0.05-0.39-0.22-0.48-0.28-2.73-1.58-7.89-4.56h0l0 0c-0.31 0.37-0.62 0.72-0.94 1.07s-0.51 0.58-0.78 0.87l-0.18 0.19c-0.21 0.24-0.43 0.46-0.64 0.68a0.23 0.23 0 0 1-0.08 0.09 5.42 5.42 0 0 1-0.41 0.43l-0.5 0.51c-0.35 0.34-0.67 0.7-1 1l-0.06 0.06-0.08 0.08c-0.28 0.27-0.57 0.53-0.84 0.81-0.1 0.1-0.21 0.19-0.3 0.29l-0.05 0-0.49 0.46a1.54 1.54 0 0 0-0.14 0.13l-0.26 0.24-0.88 0.78 0 0s0 0-0.05 0l-0.12 0.12c-0.16 0.12-0.34 0.27-0.5 0.41l-0.4 0.37a1.09 1.09 0 0 0-0.11 0.1h0a0.87 0.87 0 0 1-0.15 0.13c-0.07 0.07-0.16 0.13-0.23 0.19s0 0 0 0l-0.09 0.08c-0.17 0.15-0.34 0.3-0.52 0.44h0l6.34 3.67 9 5.22 0.45 0.26 0.44 0.25 36.37 21 99 57.22h0l12.31-8.32Z" fill="#ff851b" data-fill-palette-color="accent"></path><path d="M139.85 86.94c0.86 8.84 7.33 17.18 18.26 23.49 24.62 14.21 64.67 14.21 89.29 0 10.92-6.31 17.39-14.64 18.25-23.49l-0.08-0.07 0.09-0.24a65.15 65.15 0 0 0-18.38-42.38 61.8 61.8 0 0 0-44.52-18.89h0a61.85 61.85 0 0 0-44.54 18.89 65.2 65.2 0 0 0-18.38 42.37l0.1 0.24Z" fill="#ff851b" data-fill-palette-color="accent"></path></svg></g></svg></g><path d="M26.437 152.735l-1.318-0.21c-0.149-0.028-0.266-0.074-0.349-0.138-0.09-0.062-0.157-0.159-0.2-0.291v0c-0.045-0.139-0.029-0.323 0.051-0.552 0.079-0.229 0.156-0.509 0.229-0.841 0.078-0.34 0.121-0.732 0.13-1.176 0.011-0.437-0.075-0.937-0.259-1.5v0c-0.173-0.531-0.4-0.978-0.68-1.342-0.271-0.359-0.576-0.638-0.913-0.835-0.335-0.191-0.69-0.303-1.064-0.334-0.374-0.032-0.754 0.015-1.14 0.141v0c-0.493 0.161-0.862 0.414-1.106 0.76-0.244 0.346-0.415 0.755-0.512 1.227-0.097 0.473-0.147 0.986-0.148 1.539-0.008 0.555-0.013 1.127-0.017 1.716-0.012 0.585-0.047 1.163-0.105 1.735-0.062 0.58-0.2 1.122-0.413 1.625-0.211 0.51-0.527 0.966-0.949 1.37-0.421 0.403-0.992 0.723-1.712 0.958v0c-0.771 0.252-1.534 0.358-2.289 0.318-0.761-0.038-1.474-0.229-2.139-0.572-0.656-0.338-1.246-0.828-1.77-1.468-0.528-0.632-0.944-1.413-1.248-2.342v0c-0.372-1.138-0.502-2.243-0.39-3.315 0.105-1.07 0.401-2.048 0.888-2.935v0l1.352 0.314c0.111 0.041 0.21 0.096 0.295 0.166 0.094 0.074 0.16 0.168 0.197 0.282v0c0.056 0.171 0.028 0.397-0.083 0.678-0.111 0.281-0.224 0.622-0.337 1.023-0.112 0.407-0.183 0.875-0.214 1.403-0.031 0.528 0.065 1.13 0.286 1.806v0c0.184 0.563 0.427 1.039 0.73 1.43 0.296 0.393 0.636 0.695 1.02 0.906 0.379 0.219 0.791 0.343 1.234 0.373 0.446 0.036 0.909-0.024 1.389-0.181v0c0.531-0.173 0.928-0.436 1.191-0.788 0.263-0.352 0.444-0.761 0.544-1.227 0.1-0.466 0.147-0.975 0.141-1.526-0.007-0.557-0.011-1.126-0.011-1.707-0.007-0.578 0.017-1.157 0.073-1.734 0.058-0.572 0.197-1.11 0.417-1.616 0.226-0.508 0.562-0.967 1.008-1.379 0.446-0.412 1.058-0.744 1.836-0.999v0c0.62-0.202 1.259-0.278 1.919-0.228 0.654 0.052 1.279 0.233 1.877 0.541 0.6 0.315 1.145 0.763 1.636 1.345 0.493 0.588 0.882 1.318 1.167 2.19v0c0.32 0.98 0.457 1.925 0.412 2.835-0.048 0.904-0.266 1.756-0.656 2.555zM37.246 169.843l-16.258 8.734-1.19-2.214 7.399-3.976-4.707-8.762-7.399 3.976-1.185-2.206 16.258-8.734 1.185 2.205-7.25 3.896 4.707 8.761 7.25-3.895zM42.821 176.964l-14.671 11.198-1.519-1.991 14.671-11.197zM38.673 198.751l6.889-18.701 1.473 1.345c0.167 0.152 0.264 0.318 0.291 0.495 0.022 0.173 0.004 0.346-0.054 0.518v0l-4.939 13.133c-0.1 0.296-0.231 0.604-0.396 0.922-0.16 0.323-0.328 0.65-0.506 0.983v0c0.306-0.216 0.609-0.421 0.911-0.613 0.297-0.197 0.586-0.361 0.868-0.492v0l12.623-6.117c0.143-0.068 0.309-0.096 0.497-0.086 0.188 0.001 0.364 0.075 0.526 0.223v0l1.481 1.352-17.999 8.558zM66.569 196.783l-3.485 19.569-1.643-1.022c-0.186-0.116-0.309-0.259-0.367-0.429-0.059-0.17-0.073-0.343-0.042-0.519v0l0.891-4.698-7.029-4.375-3.822 2.874c-0.132 0.098-0.291 0.16-0.479 0.183-0.187 0.024-0.372-0.02-0.552-0.132v0l-1.643-1.022 16.02-11.768zM62.856 199.313l-6.424 4.826 5.853 3.643 1.508-7.898c0.082-0.497 0.232-1.09 0.448-1.777v0c-0.265 0.25-0.517 0.478-0.754 0.682-0.228 0.203-0.438 0.377-0.631 0.524zM87.212 206.402l-10.439 7.773-2.746 6.81-2.303-0.929 2.746-6.81-2.117-12.836 2.036 0.821c0.204 0.082 0.346 0.2 0.427 0.355 0.075 0.152 0.126 0.32 0.152 0.502v0l1.24 8.234c0.048 0.342 0.075 0.658 0.081 0.947 0.005 0.289 0.006 0.572 0.001 0.85v0c0.186-0.212 0.381-0.42 0.586-0.624 0.198-0.207 0.432-0.414 0.702-0.62v0l6.587-5.078c0.126-0.1 0.273-0.18 0.441-0.242 0.171-0.067 0.355-0.061 0.552 0.019v0zM101.585 209.592l-3.302 18.158-2.463-0.448 3.302-18.158zM109.256 210.071v0c0.219 0.003 0.382 0.031 0.488 0.086 0.112 0.061 0.234 0.179 0.365 0.354v0l10.522 14.037c-0.024-0.226-0.038-0.443-0.042-0.649-0.011-0.213-0.015-0.419-0.013-0.618v0l0.162-13.068 2.194 0.027-0.227 18.454-1.267-0.015c-0.193-0.002-0.355-0.038-0.488-0.106-0.132-0.075-0.264-0.193-0.395-0.354v0l-10.502-14.027c0.017 0.213 0.028 0.423 0.033 0.628 0.004 0.206 0.005 0.396 0.002 0.569v0l-0.162 13.148-2.184-0.027 0.227-18.455zM128.418 209.233l11.171-2.136 0.382 1.999-8.711 1.665 1.212 6.34 7.437-1.422 0.382 1.999-7.437 1.422 1.489 7.79-2.459 0.47zM162.899 207.511v0c0.528 1.271 0.811 2.526 0.849 3.762 0.038 1.237-0.152 2.393-0.57 3.467-0.418 1.074-1.055 2.037-1.911 2.889-0.862 0.855-1.92 1.542-3.173 2.062v0c-1.253 0.52-2.484 0.783-3.691 0.788-1.202 0.002-2.331-0.228-3.387-0.69-1.062-0.459-2.014-1.14-2.857-2.043-0.849-0.9-1.538-1.986-2.065-3.258v0c-0.53-1.278-0.815-2.535-0.854-3.772-0.042-1.228 0.148-2.384 0.57-3.467 0.416-1.08 1.047-2.048 1.895-2.903 0.853-0.858 1.907-1.548 3.16-2.068v0c1.253-0.52 2.488-0.781 3.704-0.782 1.21 0.002 2.345 0.236 3.403 0.704 1.058 0.468 2.011 1.149 2.858 2.043 0.849 0.9 1.539 1.99 2.069 3.268zM160.531 208.494v0c-0.436-1.05-0.968-1.931-1.594-2.644-0.635-0.716-1.333-1.251-2.092-1.605-0.762-0.361-1.581-0.539-2.458-0.535-0.873-0.005-1.771 0.184-2.692 0.567v0c-0.909 0.377-1.673 0.878-2.293 1.503-0.616 0.616-1.068 1.322-1.356 2.118-0.291 0.791-0.405 1.662-0.34 2.615 0.056 0.949 0.301 1.949 0.737 2.999v0c0.434 1.044 0.967 1.921 1.6 2.631 0.627 0.712 1.323 1.244 2.088 1.595 0.768 0.358 1.587 0.536 2.458 0.535 0.874-0.01 1.766-0.204 2.675-0.581v0c0.921-0.383 1.691-0.879 2.31-1.488 0.622-0.618 1.074-1.324 1.356-2.119 0.285-0.788 0.4-1.657 0.344-2.605-0.062-0.947-0.309-1.942-0.743-2.986zM160.444 198.172l11.994-8.068 1.17 1.739-4.95 3.329 9.131 13.576-2.078 1.397-9.131-13.575-4.967 3.341zM175.506 187.343l8.279-7.797 1.395 1.482-6.456 6.08 4.199 4.459 5.222-4.917 1.347 1.43-5.222 4.918 4.316 4.583 6.456-6.08 1.396 1.481-8.28 7.797zM206.089 173.679v0c0.077-0.108 0.195-0.175 0.353-0.202v0l1.437-0.175c0.268 1.123 0.289 2.266 0.063 3.429-0.226 1.163-0.78 2.361-1.661 3.595v0c-0.773 1.082-1.662 1.931-2.666 2.546-1 0.61-2.06 0.984-3.181 1.124-1.121 0.139-2.276 0.045-3.465-0.282-1.185-0.332-2.343-0.902-3.474-1.71v0c-1.131-0.808-2.038-1.734-2.723-2.779-0.679-1.041-1.12-2.133-1.325-3.276-0.206-1.153-0.165-2.325 0.123-3.517 0.288-1.192 0.832-2.348 1.632-3.469v0c0.789-1.104 1.642-1.933 2.561-2.486 0.909-0.552 1.878-0.93 2.907-1.134v0l0.464 1.324c0.036 0.099 0.054 0.198 0.057 0.298 0.001 0.09-0.041 0.195-0.127 0.314v0c-0.066 0.092-0.168 0.166-0.306 0.223-0.144 0.053-0.313 0.112-0.507 0.177-0.198 0.071-0.419 0.163-0.662 0.275-0.249 0.108-0.515 0.257-0.798 0.448-0.279 0.185-0.578 0.425-0.895 0.721-0.309 0.295-0.623 0.666-0.944 1.115v0c-0.572 0.801-0.958 1.633-1.158 2.496-0.203 0.868-0.223 1.725-0.059 2.569 0.17 0.849 0.525 1.667 1.067 2.455 0.543 0.796 1.268 1.519 2.178 2.169v0c0.936 0.669 1.866 1.129 2.79 1.38 0.925 0.261 1.806 0.338 2.641 0.232 0.841-0.102 1.621-0.375 2.338-0.818 0.721-0.449 1.343-1.039 1.865-1.769v0c0.321-0.449 0.582-0.872 0.783-1.268 0.206-0.392 0.361-0.78 0.464-1.164 0.103-0.384 0.163-0.766 0.182-1.146 0.016-0.389 0-0.801-0.049-1.236v0c-0.018-0.193 0.014-0.346 0.095-0.459zM202.955 146.464l16.838 7.557-1.03 2.293-7.663-3.439-4.072 9.074 7.663 3.44-1.025 2.284-16.838-7.557 1.025-2.284 7.509 3.37 4.072-9.074-7.508-3.37z" fill="#ff851b" data-fill-palette-color="accent"></path><path d="M7.393 75.042L8.317 75.973C8.421 76.084 8.488 76.189 8.518 76.29 8.555 76.393 8.552 76.508 8.511 76.634V76.634C8.466 76.773 8.343 76.912 8.145 77.05 7.948 77.182 7.722 77.36 7.467 77.584 7.212 77.809 6.951 78.095 6.684 78.441 6.423 78.79 6.202 79.243 6.021 79.799V79.799C5.85 80.324 5.768 80.811 5.775 81.261 5.782 81.711 5.865 82.113 6.023 82.465 6.174 82.815 6.393 83.11 6.678 83.35 6.955 83.594 7.284 83.778 7.663 83.902V83.902C8.15 84.061 8.591 84.072 8.985 83.934 9.384 83.805 9.758 83.581 10.107 83.261 10.462 82.943 10.804 82.561 11.131 82.116 11.463 81.678 11.802 81.226 12.15 80.759 12.497 80.298 12.861 79.857 13.243 79.436 13.627 79.008 14.054 78.654 14.523 78.374 14.986 78.091 15.502 77.913 16.071 77.84 16.643 77.76 17.289 77.838 18.01 78.073V78.073C18.769 78.32 19.438 78.682 20.017 79.157 20.597 79.633 21.053 80.198 21.385 80.852 21.716 81.512 21.905 82.249 21.955 83.063 21.998 83.874 21.869 84.742 21.568 85.665V85.665C21.204 86.784 20.668 87.739 19.963 88.531 19.249 89.326 18.441 89.937 17.539 90.364V90.364L16.643 89.316C16.575 89.224 16.527 89.124 16.499 89.017 16.467 88.902 16.469 88.787 16.506 88.673V88.673C16.562 88.503 16.716 88.34 16.97 88.185 17.219 88.021 17.507 87.814 17.833 87.564 18.155 87.305 18.484 86.971 18.82 86.563 19.154 86.162 19.43 85.625 19.649 84.955V84.955C19.83 84.399 19.916 83.878 19.907 83.392 19.891 82.904 19.793 82.463 19.614 82.069 19.435 81.675 19.178 81.336 18.844 81.052 18.512 80.762 18.105 80.538 17.625 80.382V80.382C17.1 80.211 16.631 80.19 16.217 80.322 15.804 80.453 15.424 80.675 15.077 80.988 14.723 81.3 14.386 81.68 14.065 82.128 13.746 82.569 13.419 83.026 13.084 83.497 12.75 83.962 12.392 84.405 12.01 84.826 11.632 85.255 11.207 85.606 10.733 85.879 10.26 86.151 9.725 86.323 9.128 86.394 8.525 86.463 7.84 86.373 7.075 86.124V86.124C6.462 85.924 5.907 85.61 5.41 85.182 4.919 84.756 4.525 84.247 4.229 83.654 3.929 83.052 3.754 82.376 3.705 81.625 3.655 80.875 3.772 80.066 4.055 79.2V79.2C4.37 78.233 4.812 77.401 5.382 76.705 5.947 76.001 6.618 75.447 7.393 75.042ZM16.605 53.027L32.691 61.659 31.517 63.848 24.203 59.923 19.552 68.591 26.866 72.515 25.691 74.704 9.605 66.072 10.779 63.883 17.952 67.732 22.603 59.065 15.43 55.216ZM24.267 42.65L38.781 53.724 37.28 55.691 22.766 44.617ZM47.777 44.783L29.971 36.321 31.43 34.989C31.592 34.841 31.762 34.762 31.942 34.751 32.116 34.745 32.284 34.781 32.445 34.859V34.859L44.939 40.891C45.22 41.021 45.512 41.178 45.814 41.361 46.116 41.545 46.425 41.74 46.741 41.947V41.947C46.548 41.628 46.372 41.311 46.212 40.998 46.047 40.689 45.912 40.389 45.808 40.097V40.097L40.91 27.129C40.855 26.981 40.842 26.813 40.869 26.626 40.892 26.434 40.982 26.266 41.139 26.123V26.123L42.605 24.784 49.42 43.283ZM54.361 17.031L70.2 28.675 68.582 29.682C68.396 29.798 68.214 29.845 68.035 29.823 67.866 29.803 67.708 29.737 67.56 29.625V29.625L63.787 26.792 56.833 31.12 57.71 35.757C57.74 35.918 57.725 36.088 57.664 36.267 57.603 36.446 57.482 36.592 57.301 36.705V36.705L55.684 37.712 52.227 18.359ZM54.987 21.435L56.474 29.241 62.259 25.64 55.892 20.849C55.495 20.563 55.037 20.174 54.519 19.682V19.682C54.623 20.025 54.715 20.343 54.796 20.637 54.881 20.937 54.945 21.203 54.987 21.435ZM78.615 5.569L76.517 18.268 79.233 25.004 76.948 25.926 74.232 19.19 63.922 11.493 65.93 10.684C66.133 10.602 66.318 10.588 66.484 10.643 66.643 10.701 66.796 10.786 66.942 10.9V10.9L73.471 15.915C73.737 16.13 73.971 16.337 74.173 16.535 74.383 16.737 74.579 16.938 74.76 17.138V17.138C74.749 16.862 74.744 16.581 74.743 16.295 74.748 16.006 74.775 15.698 74.822 15.37V15.37L76.037 7.233C76.053 7.076 76.1 6.917 76.178 6.756 76.254 6.589 76.391 6.466 76.589 6.386V6.386ZM97.881 0.989L101.111 18.957 98.676 19.395 95.446 1.427ZM109.621 0.137V0.137C109.841 0.135 110.004 0.163 110.111 0.222 110.218 0.274 110.339 0.386 110.473 0.557V0.557L121.186 14.197C121.158 13.977 121.139 13.765 121.13 13.559 121.121 13.353 121.116 13.15 121.114 12.95V12.95L120.983 0.022 123.148 0 123.333 18.255 122.086 18.268C121.886 18.27 121.72 18.238 121.586 18.173 121.459 18.108 121.328 17.993 121.193 17.828V17.828L110.5 4.198C110.522 4.411 110.538 4.617 110.546 4.816 110.555 5.022 110.56 5.209 110.562 5.375V5.375L110.694 18.383 108.529 18.405 108.344 0.15ZM133.503 1.455L144.552 3.591 144.169 5.57 135.56 3.905 134.348 10.174 141.703 11.596 141.321 13.574 133.965 12.152 132.477 19.851 130.038 19.379ZM165.384 21.54V21.54C164.858 22.798 164.176 23.872 163.337 24.761 162.497 25.65 161.556 26.324 160.514 26.783 159.466 27.239 158.343 27.462 157.144 27.452 155.951 27.444 154.734 27.181 153.494 26.664V26.664C152.255 26.146 151.212 25.466 150.368 24.624 149.523 23.781 148.894 22.827 148.482 21.761 148.075 20.698 147.893 19.555 147.934 18.333 147.97 17.108 148.25 15.866 148.775 14.608V14.608C149.303 13.344 149.988 12.272 150.831 11.391 151.671 10.502 152.613 9.825 153.657 9.36 154.705 8.904 155.827 8.676 157.023 8.678 158.218 8.68 159.436 8.94 160.676 9.457V9.457C161.916 9.974 162.957 10.658 163.799 11.506 164.647 12.358 165.277 13.316 165.69 14.382 166.094 15.451 166.275 16.597 166.234 17.819 166.195 19.035 165.911 20.276 165.384 21.54ZM163.045 20.564V20.564C163.478 19.527 163.725 18.538 163.786 17.598 163.847 16.657 163.737 15.797 163.457 15.018 163.18 14.232 162.737 13.532 162.129 12.917 161.518 12.309 160.758 11.815 159.85 11.436V11.436C158.948 11.06 158.065 10.868 157.203 10.862 156.339 10.861 155.527 11.037 154.767 11.39 154.009 11.737 153.318 12.263 152.692 12.968 152.067 13.672 151.537 14.543 151.104 15.58V15.58C150.674 16.612 150.429 17.597 150.368 18.537 150.309 19.472 150.422 20.333 150.705 21.121 150.991 21.904 151.438 22.602 152.047 23.216 152.658 23.825 153.415 24.317 154.317 24.694V24.694C155.225 25.073 156.11 25.266 156.972 25.272 157.837 25.273 158.645 25.098 159.396 24.749 160.15 24.393 160.838 23.866 161.461 23.168 162.087 22.463 162.615 21.595 163.045 20.564ZM174.294 16.236L186.134 24.23 184.968 25.958 180.081 22.659 171.033 36.061 168.982 34.677 178.031 21.274 173.128 17.964ZM192.339 29.514L200.515 37.245 199.131 38.709 192.759 32.685 188.592 37.092 193.746 41.965 192.416 43.371 187.262 38.498 182.985 43.021 189.357 49.046 187.972 50.51 179.796 42.779ZM202.118 63.514V63.514C202.195 63.622 202.22 63.755 202.194 63.913V63.913L201.893 65.314C200.753 65.203 199.677 64.855 198.664 64.27 197.657 63.68 196.718 62.773 195.846 61.549V61.549C195.083 60.476 194.575 59.372 194.323 58.237 194.07 57.103 194.059 55.992 194.29 54.906 194.522 53.81 194.983 52.759 195.672 51.755 196.365 50.756 197.273 49.857 198.394 49.059V49.059C199.516 48.26 200.672 47.711 201.862 47.411 203.058 47.107 204.225 47.044 205.364 47.221 206.501 47.408 207.582 47.826 208.608 48.476 209.628 49.129 210.531 50.009 211.318 51.114V51.114C212.097 52.209 212.597 53.273 212.818 54.307 213.046 55.338 213.089 56.368 212.949 57.398V57.398L211.554 57.399C211.452 57.406 211.357 57.392 211.267 57.358 211.181 57.329 211.096 57.255 211.011 57.136V57.136C210.946 57.044 210.911 56.926 210.906 56.782 210.898 56.633 210.895 56.456 210.896 56.251 210.893 56.041 210.88 55.805 210.858 55.544 210.831 55.277 210.776 54.981 210.692 54.657 210.608 54.333 210.478 53.977 210.3 53.59 210.126 53.207 209.881 52.794 209.564 52.35V52.35C208.998 51.553 208.343 50.921 207.602 50.453 206.861 49.984 206.066 49.693 205.217 49.579 204.374 49.46 203.494 49.527 202.579 49.778 201.664 50.029 200.757 50.475 199.858 51.115V51.115C198.931 51.774 198.199 52.495 197.662 53.277 197.125 54.06 196.768 54.86 196.592 55.68 196.421 56.495 196.427 57.311 196.609 58.129 196.796 58.943 197.148 59.712 197.664 60.439V60.439C197.981 60.883 198.288 61.264 198.588 61.581 198.893 61.895 199.207 62.165 199.532 62.391 199.857 62.608 200.197 62.787 200.55 62.928 200.903 63.068 201.293 63.187 201.721 63.282V63.282C201.905 63.323 202.037 63.4 202.118 63.514ZM225.001 77.877L208.331 85.322 207.318 83.054 214.897 79.669 210.886 70.688 203.307 74.072 202.294 71.804 218.964 64.36 219.977 66.628 212.544 69.947 216.555 78.929 223.988 75.609Z" fill="#ff851b" data-fill-palette-color="accent"></path><path d="M2.349 116.981c0-3.894 3.156-7.05 7.05-7.05 3.894 0 7.05 3.156 7.05 7.05 0 3.894-3.156 7.05-7.05 7.05-3.894 0-7.05-3.156-7.05-7.05zM212.245 116.981c0-3.894 3.156-7.05 7.05-7.05 3.894 0 7.05 3.156 7.051 7.05 0 3.894-3.156 7.05-7.051 7.05-3.894 0-7.05-3.156-7.05-7.05z" fill="#ff851b" data-fill-palette-color="accent"></path></svg></g></svg></g></svg></g><defs></defs></svg><rect width="395.52" height="140.38214746130583" fill="none" stroke="none" visibility="hidden"></rect></g></svg></g></svg>