<svg xmlns="http://www.w3.org/2000/svg" width="30" height="30" viewBox="0 0 30 30">
  <g id="Group_65372" data-name="Group 65372" transform="translate(21637 -7423)">
    <rect id="Rectangle_4604" data-name="Rectangle 4604" width="30" height="30" transform="translate(-21637 7423)" fill="#3458e0" opacity="0"/>
    <g id="information-button" transform="translate(-21635 7425)">
      <path id="Path_21496" data-name="Path 21496" d="M13,0A13,13,0,1,0,26,13,13,13,0,0,0,13,0Zm2.706,20.147q-1,.4-1.6.6a4.224,4.224,0,0,1-1.389.208,2.768,2.768,0,0,1-1.89-.593,1.914,1.914,0,0,1-.672-1.5,5.465,5.465,0,0,1,.05-.725c.034-.247.088-.524.162-.835l.838-2.958c.074-.284.138-.554.188-.8a3.567,3.567,0,0,0,.075-.7,1.073,1.073,0,0,0-.233-.789,1.325,1.325,0,0,0-.895-.221,2.348,2.348,0,0,0-.666.1c-.226.069-.422.132-.582.194l.221-.911q.822-.335,1.574-.573a4.649,4.649,0,0,1,1.42-.24,2.716,2.716,0,0,1,1.862.583A1.938,1.938,0,0,1,14.82,12.5q0,.193-.045.679a4.544,4.544,0,0,1-.167.893l-.833,2.949c-.068.237-.129.507-.184.81a4.283,4.283,0,0,0-.08.689.989.989,0,0,0,.263.8,1.472,1.472,0,0,0,.91.214,2.64,2.64,0,0,0,.689-.107,3.917,3.917,0,0,0,.557-.187ZM15.558,8.176a1.988,1.988,0,0,1-1.4.541,2.009,2.009,0,0,1-1.409-.541,1.729,1.729,0,0,1-.587-1.313,1.746,1.746,0,0,1,.587-1.316A2,2,0,0,1,14.155,5a1.972,1.972,0,0,1,1.4.547,1.773,1.773,0,0,1,0,2.629Z" fill="#3458e0"/>
    </g>
  </g>
</svg>
