<svg xmlns="http://www.w3.org/2000/svg" width="30" height="30" viewBox="0 0 30 30">
  <g id="Group_65346" data-name="Group 65346" transform="translate(21843 -7372)">
    <rect id="Rectangle_4587" data-name="Rectangle 4587" width="30" height="30" transform="translate(-21843 7372)" fill="#3458e0" opacity="0"/>
    <path id="cloud-service" d="M42.161,21.336a4.821,4.821,0,0,0,0,9.642h6.621v2.914H42.114a.377.377,0,0,0-.378.378v3H40.154a.377.377,0,0,0-.378.378v3.922a.377.377,0,0,0,.378.378h3.92a.377.377,0,0,0,.378-.378V37.65a.377.377,0,0,0-.378-.378H42.492V34.65h6.29v2.621H47.2a.377.377,0,0,0-.378.378v3.922a.377.377,0,0,0,.378.378h3.922a.379.379,0,0,0,.378-.378V37.65a.379.379,0,0,0-.378-.378H49.54V34.65h6.4v2.621H54.356a.377.377,0,0,0-.378.378v3.922a.377.377,0,0,0,.378.378h3.922a.379.379,0,0,0,.378-.378V37.65a.379.379,0,0,0-.378-.378H56.695v-3a.377.377,0,0,0-.378-.378H49.541V30.978h6.621a4.821,4.821,0,0,0,0-9.642.378.378,0,0,1-.378-.378,3.033,3.033,0,0,0-3.942-2.891.379.379,0,0,1-.414-.13,4.957,4.957,0,0,0-8.888,3.021A.378.378,0,0,1,42.161,21.336Zm8.123-2.518a.378.378,0,0,1-.6.462,2.757,2.757,0,0,0-4.944,1.678.378.378,0,1,1-.757,0,3.514,3.514,0,0,1,6.3-2.14Z" transform="translate(-21877.34 7358)" fill="#3458e0" fill-rule="evenodd"/>
  </g>
</svg>
