<svg xmlns="http://www.w3.org/2000/svg" width="30" height="30" viewBox="0 0 30 30">
  <g id="Group_65374" data-name="Group 65374" transform="translate(21485 -7426)">
    <rect id="Rectangle_4606" data-name="Rectangle 4606" width="30" height="30" transform="translate(-21485 7426)" fill="#3458e0" opacity="0"/>
    <g id="Layer_2" data-name="Layer 2" transform="translate(-21484.25 7426.742)">
      <path id="Path_21500" data-name="Path 21500" d="M19.8,12.151A6.651,6.651,0,1,0,13.151,18.8,6.651,6.651,0,0,0,19.8,12.151ZM14.687,10.18a.762.762,0,1,1-.762.762.762.762,0,0,1,.762-.762Zm-3.072,0a.762.762,0,1,1-.762.762A.762.762,0,0,1,11.615,10.18Zm-.883,4.2a.568.568,0,0,1,.52-.629.58.58,0,0,1,.629.52,1.209,1.209,0,0,0,1.27,1.016,1.209,1.209,0,0,0,1.27-1.016.58.58,0,0,1,.629-.52.568.568,0,0,1,.52.629,2.322,2.322,0,0,1-2.419,2.056,2.322,2.322,0,0,1-2.419-2.056Z" transform="translate(1.099 0.679)" fill="#3458e0"/>
      <path id="Path_21501" data-name="Path 21501" d="M4.576,18.574a2.116,2.116,0,0,0,2.116-2.116V11.62a7.558,7.558,0,1,1,15.116,0v7.256a3.942,3.942,0,0,1-3.93,3.93h-.109A1.826,1.826,0,0,0,16.064,21.6H13.645a1.814,1.814,0,0,0-1.814,1.814v.6a1.814,1.814,0,0,0,1.814,1.814h2.419a1.826,1.826,0,0,0,1.705-1.209h.109a5.744,5.744,0,0,0,5.744-5.744v-.339a1.209,1.209,0,0,0,.3,0,3.326,3.326,0,0,0,3.326-3.29V12.83A3.326,3.326,0,0,0,23.924,9.5h-.556a9.36,9.36,0,0,0-18.236,0H4.576A3.326,3.326,0,0,0,1.25,12.83v2.419a3.326,3.326,0,0,0,3.326,3.326Z" transform="translate(0)" fill="#3458e0"/>
    </g>
  </g>
</svg>
