<svg xmlns="http://www.w3.org/2000/svg" width="57.292" height="54" viewBox="0 0 57.292 54">
  <g id="Group_65316" data-name="Group 65316" transform="translate(-158 -2532)">
    <g id="startup" transform="translate(156.807 2528.983)">
      <path id="Path_21512" data-name="Path 21512" d="M45.569,20.21a4.512,4.512,0,0,0-2.287-.63,4.387,4.387,0,0,0-1.126.144,4.507,4.507,0,1,0,5.466,3.251A4.444,4.444,0,0,0,45.569,20.21Z" transform="translate(-3.737 -1.647)" fill="#fff"/>
      <path id="Path_21513" data-name="Path 21513" d="M57.545,3.056a43.784,43.784,0,0,0-9.005,2.1,126.65,126.65,0,0,1,12.374,12.6,41.275,41.275,0,0,0,2.242-9.186,5,5,0,0,0-5.61-5.511Z" transform="translate(-4.709 0)" fill="#fff"/>
      <path id="Path_21514" data-name="Path 21514" d="M43.86,6.19A39.541,39.541,0,0,0,24.327,22.634c-1.756,2.972-3.746,6.583-3.647,10.122.054,1.855,2.008,3.521,3.17,4.836a31.575,31.575,0,0,0,4.8,4.44,5,5,0,0,0,4.233.874,30.806,30.806,0,0,0,11.266-5.529A46.434,46.434,0,0,0,57.4,19.977,124.621,124.621,0,0,0,43.86,6.19Zm3.035,19.776a6.324,6.324,0,0,1-5.421,3.089A6.3,6.3,0,1,1,44.688,17.33a6.307,6.307,0,0,1,2.206,8.636Z" transform="translate(-1.938 -0.316)" fill="#fff"/>
      <path id="Path_21515" data-name="Path 21515" d="M17.156,32.869c.279-3.521,2.107-6.9,3.845-9.843a36.256,36.256,0,0,1,2.4-3.566,32.267,32.267,0,0,0-20.5,10.3C7.637,29.618,13.193,30.2,17.156,32.869Z" transform="translate(-0.17 -1.635)" fill="#fff"/>
      <path id="Path_21516" data-name="Path 21516" d="M34.718,48.107a1.278,1.278,0,0,1-.2.045c1.522,4.341,1.378,7.9,1.729,12.13,6.637-6.259,10.834-11.311,11.707-19.173-.423.369-.847.738-1.288,1.108A32.785,32.785,0,0,1,34.718,48.107Z" transform="translate(-3.314 -3.788)" fill="#fff"/>
      <path id="Path_21517" data-name="Path 21517" d="M14.662,44.548a.726.726,0,0,0-.459-.279c-.261-.045-.7-.108-6.808,4.458S1.235,53.743,1.2,54a.687.687,0,0,0,.144.522c.126.153.225.288.441.288.585,0,2-.883,6.808-4.485C15.239,45.35,15.086,45.133,14.662,44.548Z" transform="translate(0 -4.102)" fill="#fff"/>
      <path id="Path_21518" data-name="Path 21518" d="M16.859,51.2c1.414-1.72,1.369-2.224,1.351-2.386a.834.834,0,0,0-.261-.5c-.558-.459-1.18.117-1.477.387a12.3,12.3,0,0,0-1.153,1.234c-1.711,2.08-1.477,2.567-1.09,2.891a.7.7,0,0,0,.441.18c.4.009,1.018-.378,2.188-1.8Z" transform="translate(-1.269 -4.487)" fill="#fff"/>
      <path id="Path_21519" data-name="Path 21519" d="M21.673,50.155c-.729-.369-.729-.36-3.719,4.836l-.5.856c-3.044,5.3-3.044,5.3-2.359,5.736a.717.717,0,0,0,.387.108.792.792,0,0,0,.153-.018c.865-.207,3.476-4.71,3.764-5.214.117-.207,2.882-5.016,2.621-5.881a.716.716,0,0,0-.351-.423Z" transform="translate(-1.346 -4.674)" fill="#fff"/>
      <path id="Path_21520" data-name="Path 21520" d="M22.364,42.015c-.2-.216-.414-.45-.639-.693A15.875,15.875,0,0,1,19.6,38.71c-.5,2.278-.423,4.719,1.117,6.574,1.477,1.783,4.26,1.792,6.664,1.387A34.608,34.608,0,0,1,22.364,42.015Z" transform="translate(-1.803 -3.55)" fill="#fff"/>
    </g>
  </g>
</svg>
