<svg xmlns="http://www.w3.org/2000/svg" width="44.502" height="44.328" viewBox="0 0 44.502 44.328">
  <g id="Group_65316" data-name="Group 65316" transform="translate(-158 -2532)">
    <g id="web-development_2_" data-name="web-development (2)" transform="translate(158 2532)">
      <path id="Path_21504" data-name="Path 21504" d="M44.5,11.43V4.911A3.916,3.916,0,0,0,40.591,1H3.911A3.916,3.916,0,0,0,0,4.911V11.43ZM30.074,6.215H37.9a1.3,1.3,0,1,1,0,2.608H30.074a1.3,1.3,0,1,1,0-2.608Zm-13.038,0a1.3,1.3,0,1,1-1.3,1.3A1.3,1.3,0,0,1,17.036,6.215Zm-5.215,0a1.3,1.3,0,1,1-1.3,1.3A1.3,1.3,0,0,1,11.821,6.215Zm-5.215,0a1.3,1.3,0,1,1-1.3,1.3A1.3,1.3,0,0,1,6.606,6.215Z" transform="translate(0 -1)" fill="#fff"/>
      <path id="Path_21505" data-name="Path 21505" d="M0,151v27.379a3.916,3.916,0,0,0,3.911,3.911H40.591a3.916,3.916,0,0,0,3.911-3.911V151Zm15.243,18.538a1.3,1.3,0,1,1-1.629,2.036L7.1,166.359a1.3,1.3,0,0,1,0-2.036l6.519-5.215a1.3,1.3,0,1,1,1.629,2.036L10,165.341Zm12.118-12.81-7.823,18.253a1.3,1.3,0,1,1-2.4-1.027L24.964,155.7a1.3,1.3,0,1,1,2.4,1.027Zm10.046,9.631-6.519,5.215a1.3,1.3,0,1,1-1.629-2.036l5.246-4.2-5.246-4.2a1.3,1.3,0,1,1,1.629-2.036l6.519,5.215A1.3,1.3,0,0,1,37.407,166.36Z" transform="translate(0 -137.962)" fill="#fff"/>
    </g>
  </g>
</svg>
