<svg xmlns="http://www.w3.org/2000/svg" width="30" height="30" viewBox="0 0 30 30">
  <g id="Group_65353" data-name="Group 65353" transform="translate(21931 -7409)">
    <rect id="Rectangle_4592" data-name="Rectangle 4592" width="30" height="30" transform="translate(-21931 7409)" fill="#3458e0" opacity="0"/>
    <g id="digital-marketing_1_" data-name="digital-marketing (1)" transform="translate(-21935.826 7401.396)">
      <g id="Group_65352" data-name="Group 65352" transform="translate(5.825 9.604)">
        <path id="Path_21433" data-name="Path 21433" d="M7.608,98.4h-1.5a.281.281,0,0,0,0,.562h1.5a.281.281,0,0,0,0-.562Z" transform="translate(-5.825 -73.444)" fill="#3458e0"/>
        <path id="Path_21434" data-name="Path 21434" d="M37.251,92.088H35.806a2.566,2.566,0,0,0,.97-2.01v-.455H11.485v.455a2.571,2.571,0,0,0,1.325,2.249.265.265,0,0,0-.009.042.281.281,0,0,0,.281.281H37.251a.281.281,0,1,0,0-.562Z" transform="translate(-9.895 -67.137)" fill="#3458e0"/>
        <path id="Path_21435" data-name="Path 21435" d="M38.024,29.46a1.846,1.846,0,0,0-1.846-1.846H33.289a2.207,2.207,0,0,1-.073,1.661h2.962a.188.188,0,0,1,.185.188V43.095H16V29.463a.186.186,0,0,1,.185-.188H22.63l1.2-1.661H16.187a1.846,1.846,0,0,0-1.849,1.846V44.477H38.024V29.46Z" transform="translate(-11.946 -22.553)" fill="#3458e0"/>
        <path id="Path_21436" data-name="Path 21436" d="M27.9,41l1.456,2.657a.572.572,0,0,0,.777.227l.522-.286.03.054a.424.424,0,0,0,.576.168l2.559-1.4a.424.424,0,0,0,.168-.576L31.919,38.07a.424.424,0,0,0-.576-.168l-2.559,1.4a.424.424,0,0,0-.168.576l.03.054-.522.286A.572.572,0,0,0,27.9,41Z" transform="translate(-21.643 -29.912)" fill="#3458e0"/>
        <path id="Path_21437" data-name="Path 21437" d="M43.853,22.424l2.065,3.768a.739.739,0,0,1,.076.183l7.135-.4-5.213-9.509-4.179,5.8a.851.851,0,0,1,.115.163Z" transform="translate(-33.084 -14.536)" fill="#3458e0"/>
        <path id="Path_21438" data-name="Path 21438" d="M64.894,21.317a.717.717,0,0,0,.974.284l.107-.058a.717.717,0,0,0,.284-.974l-5.8-10.592a.717.717,0,0,0-.974-.284l-.107.058a.717.717,0,0,0-.284.974Z" transform="translate(-44.058 -9.604)" fill="#3458e0"/>
        <path id="Path_21439" data-name="Path 21439" d="M75.4,25.179a1.67,1.67,0,0,0-1.6-.86l1.464,2.672a1.662,1.662,0,0,0,.141-1.813Z" transform="translate(-54.697 -20.18)" fill="#3458e0"/>
        <path id="Path_21440" data-name="Path 21440" d="M44.3,62.332l1.489-.815a.386.386,0,0,0,.152-.523,11.175,11.175,0,0,1-2.625-3.971l-1.818,1,2.279,4.159A.383.383,0,0,0,44.3,62.332Z" transform="translate(-31.473 -43.698)" fill="#3458e0"/>
      </g>
    </g>
  </g>
</svg>
