<svg xmlns="http://www.w3.org/2000/svg" width="30" height="30" viewBox="0 0 30 30">
  <g id="Group_65351" data-name="Group 65351" transform="translate(21885 -7408)">
    <rect id="Rectangle_4591" data-name="Rectangle 4591" width="30" height="30" transform="translate(-21885 7408)" fill="#ff8727" opacity="0"/>
    <g id="_x31_5" transform="translate(-21885 7408)">
      <path id="Path_21427" data-name="Path 21427" d="M27.5,7a1.851,1.851,0,0,0-1.6.929H21V9.786h4.9A1.854,1.854,0,1,0,27.5,7Z" transform="translate(-1.357 -0.357)" fill="#ff8727"/>
      <path id="Path_21428" data-name="Path 21428" d="M27.5,11.929a1.851,1.851,0,0,0-1.6.929h-.8l-1.585-1.585A.928.928,0,0,0,22.857,11H21v1.857h1.473l1.585,1.585a.928.928,0,0,0,.657.272H25.9a1.854,1.854,0,1,0,1.6-2.786Z" transform="translate(-1.357 -0.643)" fill="#ff8727"/>
      <path id="Path_21429" data-name="Path 21429" d="M23.514,6.371,25.1,4.786h.8a1.857,1.857,0,1,0,0-1.857H24.714a.928.928,0,0,0-.657.272L22.473,4.786H21V6.643h1.857a.928.928,0,0,0,.657-.272Z" transform="translate(-1.357)" fill="#ff8727"/>
      <path id="Path_21430" data-name="Path 21430" d="M18.047,26.973l-.644-.641a1.849,1.849,0,0,1-1.474.74H4.786a1.859,1.859,0,0,1-1.857-1.857V4.786A1.859,1.859,0,0,1,4.786,2.929H15.929a1.859,1.859,0,0,1,1.857,1.857V16.872c.042-.05.077-.1.123-.15a2.322,2.322,0,0,1,.805-.518V4.786A2.789,2.789,0,0,0,15.929,2H4.786A2.789,2.789,0,0,0,2,4.786V25.214A2.789,2.789,0,0,0,4.786,28H15.929a2.769,2.769,0,0,0,2.132-1.014l-.014-.013Z" transform="translate(0 0)" fill="#ff8727"/>
      <path id="Path_21431" data-name="Path 21431" d="M26.61,19.693l-2.639-2.627h0a1.406,1.406,0,0,0-1.98,0,1.594,1.594,0,0,0-.33,1.643c-.029.042-.011-.041-.015-.015l-.315-.314a1.406,1.406,0,0,0-1.98,0,1.391,1.391,0,0,0,0,1.972l-3.96-3.943a1.406,1.406,0,0,0-1.98,0,1.391,1.391,0,0,0,0,1.972l3.3,3.19v2.785a.463.463,0,0,0,.137.329l2.64,2.629c.072.071,5.568,1.684,5.568,1.684a.468.468,0,0,0,.4-.131l3.2-4.034a.464.464,0,0,0,.113-.476s-2.1-4.61-2.152-4.661Z" transform="translate(-0.786 -1)" fill="#ff8727"/>
      <path id="Path_21432" data-name="Path 21432" d="M13.757,14.214a2.316,2.316,0,0,1,1.645.679l1.6,1.59V4.929A.929.929,0,0,0,16.071,4H12.357A1.857,1.857,0,1,1,8.643,4H4.929A.929.929,0,0,0,4,4.929V25.357a.929.929,0,0,0,.929.929H16.071a.917.917,0,0,0,.8-.484l-1.324-1.318a1.4,1.4,0,0,1-.41-.987V21.106L12.121,18.19a2.322,2.322,0,0,1,1.636-3.975ZM12.493,8.508a.464.464,0,0,1,.657-.657l1.857,1.857a.464.464,0,0,1,0,.657L13.15,12.222a.464.464,0,0,1-.657-.657l1.529-1.529ZM8.507,11.566a.464.464,0,1,1-.657.657L5.993,10.365a.464.464,0,0,1,0-.657L7.85,7.851a.464.464,0,0,1,.657.657L6.978,10.037Zm2.908-3.274-.929,3.714a.464.464,0,1,1-.9-.225l.929-3.714a.464.464,0,1,1,.9.225Z" transform="translate(-0.143 -0.143)" fill="#ff8727"/>
    </g>
  </g>
</svg>
