<svg xmlns="http://www.w3.org/2000/svg" width="58.501" height="59.286" viewBox="0 0 58.501 59.286">
  <g id="Group_65316" data-name="Group 65316" transform="translate(-158 -2532)">
    <g id="_x39_5_x2C__prototype_x2C__art_x2C__design_x2C__seo_x2C__interface" transform="translate(158 2532)">
      <g id="XMLID_1433_" transform="translate(0 0)">
        <g id="XMLID_1434_" transform="translate(0)">
          <circle id="XMLID_1362_" cx="1.819" cy="1.819" r="1.819" transform="translate(17.121 3.49)" fill="#fff"/>
          <circle id="XMLID_1361_" cx="2.426" cy="2.426" r="2.426" transform="translate(53.509 45.943)" fill="#fff"/>
          <ellipse id="XMLID_1360_" cx="1.819" cy="1.213" rx="1.819" ry="1.213" transform="translate(1.353 4.703)" fill="#fff"/>
          <ellipse id="XMLID_1359_" cx="1.819" cy="1.213" rx="1.819" ry="1.213" transform="translate(26.824 9.555)" fill="#fff"/>
          <circle id="XMLID_1358_" cx="1.213" cy="1.213" r="1.213" transform="translate(30.463 45.943)" fill="#fff"/>
          <circle id="XMLID_1357_" cx="1.213" cy="1.213" r="1.213" transform="translate(43.805 56.86)" fill="#fff"/>
          <path id="XMLID_1356_" d="M324.829,23.5H310.062A4.067,4.067,0,0,0,306,27.562v2.3h22.892v-2.3A4.067,4.067,0,0,0,324.829,23.5Z" transform="translate(-270.391 -23.5)" fill="#fff"/>
          <path id="XMLID_1355_" d="M306,285.8a4.067,4.067,0,0,0,4.062,4.062h14.767a4.067,4.067,0,0,0,4.062-4.062v-2.3H306Z" transform="translate(-270.391 -250.434)" fill="#fff"/>
          <path id="XMLID_1354_" d="M306,96.218h11.818l-1.458-1.458a.636.636,0,0,1,.9-.9L319.8,96.4a.637.637,0,0,1,0,.9l-2.543,2.543a.636.636,0,0,1-.9-.9l1.458-1.458H306v10.174h22.891V83.5H306Z" transform="translate(-270.391 -75.869)" fill="#fff"/>
          <path id="XMLID_1353_" d="M36.81,251.3a4.451,4.451,0,1,1,4.4-5.087h7.677V233.5H26v24.163H48.892V247.489H41.215a4.457,4.457,0,0,1-4.4,3.815Z" transform="translate(-26 -206.793)" fill="#fff"/>
          <path id="XMLID_1352_" d="M48.892,177.562a4.067,4.067,0,0,0-4.062-4.062H30.062A4.067,4.067,0,0,0,26,177.562v2.3H48.892Z" transform="translate(-26 -154.424)" fill="#fff"/>
          <path id="XMLID_1351_" d="M89.179,313.5a3.179,3.179,0,1,0,3.179,3.179A3.183,3.183,0,0,0,89.179,313.5Z" transform="translate(-78.369 -276.619)" fill="#fff"/>
          <path id="XMLID_1350_" d="M26,435.8a4.067,4.067,0,0,0,4.062,4.062H44.829a4.067,4.067,0,0,0,4.062-4.062v-2.3H26Z" transform="translate(-26 -381.358)" fill="#fff"/>
          <path id="XMLID_1349_" d="M215.948,183.5a4.867,4.867,0,0,0-4.861,4.861v10.625a3.594,3.594,0,0,1-3.59,3.59H206v1.272h1.5a4.867,4.867,0,0,0,4.861-4.861V188.361a3.594,3.594,0,0,1,3.59-3.59h2.769V183.5Z" transform="translate(-183.108 -163.152)" fill="#fff"/>
        </g>
      </g>
    </g>
  </g>
</svg>
