<svg xmlns="http://www.w3.org/2000/svg" width="54" height="54" viewBox="0 0 54 54">
  <g id="Group_65316" data-name="Group 65316" transform="translate(-173 -2532)">
    <g id="_x32_0" transform="translate(173 2532)">
      <path id="Path_21506" data-name="Path 21506" d="M30.929,2H7.786A5.792,5.792,0,0,0,2,7.786V50.214A5.792,5.792,0,0,0,7.786,56H30.929a5.792,5.792,0,0,0,5.786-5.786V46.357H34.786v3.857a3.861,3.861,0,0,1-3.857,3.857H7.786a3.861,3.861,0,0,1-3.857-3.857V7.786A3.861,3.861,0,0,1,7.786,3.929H30.929a3.861,3.861,0,0,1,3.857,3.857V9.714h1.929V7.786A5.792,5.792,0,0,0,30.929,2Z" transform="translate(-2 -2)" fill="#fff"/>
      <path id="Path_21507" data-name="Path 21507" d="M20.929,16.607a4.821,4.821,0,1,1,9.643,0v.857a6.75,6.75,0,1,0-9.643,0Z" transform="translate(13.786 1.714)" fill="#fff"/>
      <path id="Path_21508" data-name="Path 21508" d="M37.321,22.536a2.893,2.893,0,0,0-2.893,2.893V23.5a2.893,2.893,0,0,0-5.786,0V12.893a2.893,2.893,0,0,0-5.786,0v9.643l-3.292,3.292A1.929,1.929,0,0,0,19,27.192v4.532a1.928,1.928,0,0,0,.2.862l3.857,7.205a1.928,1.928,0,0,0,1.725,1.066H34.2a1.928,1.928,0,0,0,1.543-.771l4.085-7.393a1.929,1.929,0,0,0,.386-1.157V25.429a2.893,2.893,0,0,0-2.893-2.893Z" transform="translate(13.786 5.429)" fill="#fff"/>
      <path id="Path_21509" data-name="Path 21509" d="M10.821,25.714a.961.961,0,0,1-.682-.283L8.211,23.5A.964.964,0,1,1,9.575,22.14l1.247,1.247,3.663-3.663a5.018,5.018,0,1,0,.951,1.776L11.5,25.432a.961.961,0,0,1-.682.283Z" transform="translate(1.714 12.857)" fill="#fff"/>
      <path id="Path_21510" data-name="Path 21510" d="M10.821,16.714a.961.961,0,0,1-.682-.283L8.211,14.5A.964.964,0,1,1,9.575,13.14l1.247,1.247,3.663-3.663a5.018,5.018,0,1,0,.951,1.776L11.5,16.432a.961.961,0,0,1-.682.283Z" transform="translate(1.714 4.5)" fill="#fff"/>
      <path id="Path_21511" data-name="Path 21511" d="M29.071,4H21.357a3.857,3.857,0,1,1-7.714,0H5.929A1.929,1.929,0,0,0,4,5.929V48.357a1.929,1.929,0,0,0,1.929,1.929H29.071A1.929,1.929,0,0,0,31,48.357V5.929A1.929,1.929,0,0,0,29.071,4ZM19.429,35.821A6.824,6.824,0,1,1,17.7,31.36l.078-.078a.964.964,0,1,1,1.364,1.364L18.791,33a6.68,6.68,0,0,1,.638,2.82Zm0-17.357A6.824,6.824,0,1,1,17.7,14l.078-.078a.964.964,0,1,1,1.364,1.364l-.355.355a6.68,6.68,0,0,1,.638,2.82Z" transform="translate(-0.143 -0.143)" fill="#fff"/>
    </g>
  </g>
</svg>
