<svg xmlns="http://www.w3.org/2000/svg" width="44.938" height="53.108" viewBox="0 0 44.938 53.108">
  <g id="Group_65316" data-name="Group 65316" transform="translate(-177 -2540)">
    <g id="document_1_" data-name="document (1)" transform="translate(177 2540)">
      <path id="Path_21381" data-name="Path 21381" d="M288.621,31.068h5.964l-5.964-6.783Z" transform="translate(-259.954 -21.529)" fill="#fff"/>
      <g id="Group_65315" data-name="Group 65315" transform="translate(0 0)">
        <path id="Path_21382" data-name="Path 21382" d="M70.995,22.3a13.415,13.415,0,0,1,1.679.105V12.89H62.925a1.593,1.593,0,0,1-1.615-1.639V0H36.129A.129.129,0,0,0,36,.129V52.98a.129.129,0,0,0,.129.129H72.544a.129.129,0,0,0,.129-.129v-4.23A13.313,13.313,0,0,1,57.8,37.253H41.682V33.9H57.8A13.312,13.312,0,0,1,70.995,22.3ZM58.469,42.925v3.352H41.682V42.925ZM41.682,6.832H55.628v3.352H41.682Zm0,9.023H67.25v3.352H41.682ZM58.469,28.23H41.682V24.879H58.469Z" transform="translate(-36 0)" fill="#fff"/>
        <path id="Path_21383" data-name="Path 21383" d="M266.7,226.049a9.926,9.926,0,1,0,9.943,9.926A9.946,9.946,0,0,0,266.7,226.049Zm-.162,14.526a1.7,1.7,0,0,1-2.2.22l-3.849-2.747,1.953-2.726,2.65,1.891,5.569-5.964,2.456,2.285Z" transform="translate(-231.706 -200.397)" fill="#fff"/>
      </g>
    </g>
  </g>
</svg>
