<svg xmlns="http://www.w3.org/2000/svg" width="41.738" height="54" viewBox="0 0 41.738 54">
  <g id="Group_65316" data-name="Group 65316" transform="translate(-158 -2532)">
    <g id="customer-support" transform="translate(142.781 2527)">
      <path id="Path_21521" data-name="Path 21521" d="M56.628,52.767c-1.208-3.6-6.025-5.848-9.458-7.357-1.345-.589-5.069-1.589-5.517-3.283a3.5,3.5,0,0,1-.007-1.737,3.357,3.357,0,0,1-.634.063H38.774a3.236,3.236,0,1,1,0-6.472h2.237a3.227,3.227,0,0,1,2.005.7,14.4,14.4,0,0,0,2.373-.52A20.071,20.071,0,0,0,47.3,27.547c.73-9.029-4.8-14.311-12.741-13.4-5.77.664-9.217,4.967-9.59,10.506a19.079,19.079,0,0,0,3.94,12.875c.974,1.337,2,2.2,1.84,3.809-.182,1.906-2.22,2.437-3.677,3.022a42.1,42.1,0,0,0-4.465,2.233c-3.026,1.671-6.347,3.683-7.093,6.436-1.653,6.1,3.929,7.949,8.538,8.8a69,69,0,0,0,12.083.787c6.635,0,18.567-.266,20.491-5.254a8.307,8.307,0,0,0,0-4.6Z" transform="translate(0 -3.619)" fill="#fff"/>
      <path id="Path_21522" data-name="Path 21522" d="M43.929,32.686a1.691,1.691,0,0,0-1.415-.77H40.277a1.685,1.685,0,1,0,0,3.371h2.237A1.672,1.672,0,0,0,44,34.375a15.129,15.129,0,0,0,7.737-2.605,2.779,2.779,0,0,0,1.513.447h.14A2.812,2.812,0,0,0,56.2,29.4V23.781a2.8,2.8,0,0,0-1.6-2.534,17.03,17.03,0,0,0-34.023,0,2.8,2.8,0,0,0-1.6,2.534V29.4a2.812,2.812,0,0,0,2.81,2.816h.142A2.813,2.813,0,0,0,24.739,29.4V23.781a2.806,2.806,0,0,0-1.565-2.515,14.435,14.435,0,0,1,28.829,0,2.808,2.808,0,0,0-1.563,2.515V29.4a2.828,2.828,0,0,0,.2,1.045A13.774,13.774,0,0,1,43.929,32.686Z" transform="translate(-1.502 0)" fill="#fff"/>
    </g>
  </g>
</svg>
