<svg xmlns="http://www.w3.org/2000/svg" width="30" height="30" viewBox="0 0 30 30">
  <g id="Group_65359" data-name="Group 65359" transform="translate(21573 -7422)">
    <rect id="Rectangle_4598" data-name="Rectangle 4598" width="30" height="30" transform="translate(-21573 7422)" fill="#ff8727" opacity="0"/>
    <g id="Page-1" transform="translate(-21571 7424)">
      <g id="_038---Cloud-Data" data-name="038---Cloud-Data">
        <path id="Shape" d="M8.812,24.687c.264,0,.523,0,.781-.008a4.32,4.32,0,0,1,3.416-.715A5.519,5.519,0,0,1,17.6,21.441h.026V18.362c-2.37,1.205-8.492,1.224-8.812,1.224S2.37,19.567,0,18.362v4.92C.232,23.79,3.349,24.687,8.812,24.687Zm-7.421-5.1a.464.464,0,1,1-.464.464A.464.464,0,0,1,1.391,19.586ZM.928,21.9a.464.464,0,1,1,.928,0v.928a.464.464,0,1,1-.928,0Z" transform="translate(0 -9.845)" fill="#ff8727"/>
        <path id="Shape-2" data-name="Shape" d="M8.812,11.687c5.475,0,8.593-.9,8.812-1.409V5.362c-2.37,1.205-8.492,1.224-8.812,1.224S2.37,6.567,0,5.362V10.3C.2,10.781,3.322,11.687,8.812,11.687Zm3.658-2.211a23.464,23.464,0,0,0,3.648-.557.464.464,0,0,1,.229.9,24.446,24.446,0,0,1-3.8.584h-.04a.464.464,0,0,1-.039-.928ZM1.391,6.586a.464.464,0,1,1-.464.464A.464.464,0,0,1,1.391,6.586ZM.928,8.9a.464.464,0,1,1,.928,0v.928a.464.464,0,0,1-.928,0Z" transform="translate(0 -2.875)" fill="#ff8727"/>
        <path id="Shape-3" data-name="Shape" d="M8.812,2.783c5.41,0,8.52-.881,8.805-1.391C17.333.881,14.223,0,8.812,0,3.339,0,.22.9,0,1.409v.009c.22.464,3.339,1.365,8.812,1.365Z" transform="translate(0)" fill="#ff8727"/>
        <path id="Shape-4" data-name="Shape" d="M7.58,34.719A5.115,5.115,0,0,1,8.6,32.586c-1.154-.012-6.435-.124-8.6-1.224v5.383c.093.188.993.754,3.9,1.119A4.269,4.269,0,0,1,7.58,34.719ZM1.855,35.832a.464.464,0,1,1-.928,0V34.9a.464.464,0,1,1,.928,0Zm-.464-2.319a.464.464,0,1,1,.464-.464A.464.464,0,0,1,1.391,33.513Z" transform="translate(0 -16.816)" fill="#ff8727"/>
        <path id="Shape-5" data-name="Shape" d="M28.027,31.793a.464.464,0,0,1-.378-.392A4.931,4.931,0,0,0,22.961,27a4.634,4.634,0,0,0-3.978,2.365.464.464,0,0,1-.532.208,3.41,3.41,0,0,0-.981-.144,3.869,3.869,0,0,0-3.677,3.465.464.464,0,0,1-.459.4h-.076a3.594,3.594,0,0,0,0,7.156h14.13a4.185,4.185,0,0,0,3.975-4.36,4.24,4.24,0,0,0-3.335-4.3Z" transform="translate(-5.362 -14.477)" fill="#ff8727"/>
      </g>
    </g>
  </g>
</svg>
