<svg xmlns="http://www.w3.org/2000/svg" width="30" height="30" viewBox="0 0 30 30">
  <g id="Group_65355" data-name="Group 65355" transform="translate(21969 -7409)">
    <rect id="Rectangle_4594" data-name="Rectangle 4594" width="30" height="30" transform="translate(-21969 7409)" fill="#3458e0" opacity="0"/>
    <g id="coding" transform="translate(-21970 7408)">
      <path id="Path_21443" data-name="Path 21443" d="M17.744,23a.746.746,0,0,0-.466,1.33l.8.636A12.457,12.457,0,0,1,17.882,23Z" transform="translate(-7.854 -11.223)" fill="#3458e0"/>
      <path id="Path_21444" data-name="Path 21444" d="M3,51.5v1.755H5.633V47.206A4.836,4.836,0,0,0,3,51.5Z" transform="translate(0 -24.806)" fill="#3458e0"/>
      <path id="Path_21445" data-name="Path 21445" d="M15.74,5.75a1.986,1.986,0,0,1,.044,1.587,1.129,1.129,0,0,0,.038.922l.731,1.461a.422.422,0,0,1,.075-.065L19.562,7.7a4.454,4.454,0,0,1,2.477-.749,3.605,3.605,0,0,0,2.243-.787l1.091-.873a.439.439,0,0,1,.639.1L27.03,6.917A4.814,4.814,0,0,1,27.8,8.966l.382-1.049A3.664,3.664,0,0,0,24.735,3H21.01a13.983,13.983,0,0,0-6.588,1.647l.132.044A1.986,1.986,0,0,1,15.74,5.75Z" transform="translate(-6.409)" fill="#3458e0"/>
      <path id="Path_21446" data-name="Path 21446" d="M26.317,24.755a.439.439,0,0,0,.439-.439V23H25v1.317a.439.439,0,0,0,.439.439Z" transform="translate(-12.345 -11.223)" fill="#3458e0"/>
      <path id="Path_21447" data-name="Path 21447" d="M36.317,24.755a.439.439,0,0,0,.439-.439V23H35v1.317a.439.439,0,0,0,.439.439Z" transform="translate(-17.957 -11.223)" fill="#3458e0"/>
      <path id="Path_21448" data-name="Path 21448" d="M30.655,13.781a3.936,3.936,0,0,0-.663-2.191l-.753-1.13-.717.574a4.484,4.484,0,0,1-2.792.979,3.578,3.578,0,0,0-1.991.6L21,14.443v.643h3.95a.439.439,0,0,1,.439.439v.439h.878v-.439a.439.439,0,0,1,.439-.439h3.95Z" transform="translate(-10.101 -4.187)" fill="#3458e0"/>
      <path id="Path_21449" data-name="Path 21449" d="M21.015,23a11.5,11.5,0,0,0,1.629,5.705h6.384A11.5,11.5,0,0,0,30.656,23h-.87v1.317a1.317,1.317,0,0,1-1.317,1.317h-.878a1.317,1.317,0,0,1-1.317-1.317v-.439H25.4v.439a1.317,1.317,0,0,1-1.317,1.317H23.2a1.317,1.317,0,0,1-1.317-1.317V23Z" transform="translate(-10.109 -11.223)" fill="#3458e0"/>
      <path id="Path_21450" data-name="Path 21450" d="M55,47.206v6.053h2.633V51.5A4.836,4.836,0,0,0,55,47.206Z" transform="translate(-29.18 -24.806)" fill="#3458e0"/>
      <path id="Path_21451" data-name="Path 21451" d="M28.115,38h-15.8A1.317,1.317,0,0,0,11,39.317v8.777H29.432V39.317A1.317,1.317,0,0,0,28.115,38Zm-6.934.614.7.527L19.25,42.652l-.7-.527Zm-3.288,3.464-.621.621-1.755-1.755a.439.439,0,0,1,0-.621l1.755-1.755.621.621-1.446,1.445Zm2.322,4.7a1.755,1.755,0,1,1,1.755-1.755A1.755,1.755,0,0,1,20.216,46.777Zm4.7-5.834L23.159,42.7l-.621-.621,1.445-1.445-1.445-1.445.621-.621,1.755,1.755a.439.439,0,0,1,0,.621Z" transform="translate(-4.489 -19.64)" fill="#3458e0"/>
      <path id="Path_21452" data-name="Path 21452" d="M30.878,52a.878.878,0,1,0,.878.878A.878.878,0,0,0,30.878,52Z" transform="translate(-15.151 -27.496)" fill="#3458e0"/>
      <path id="Path_21453" data-name="Path 21453" d="M44.739,23a12.355,12.355,0,0,1-.191,1.966l.8-.636A.746.746,0,0,0,44.878,23Z" transform="translate(-23.315 -11.223)" fill="#3458e0"/>
    </g>
  </g>
</svg>
