<svg xmlns="http://www.w3.org/2000/svg" width="30" height="30" viewBox="0 0 30 30">
  <g id="Group_65356" data-name="Group 65356" transform="translate(22081 -7442)">
    <rect id="Rectangle_4595" data-name="Rectangle 4595" width="30" height="30" transform="translate(-22081 7442)" fill="none"/>
    <g id="Icon" transform="translate(-22080.25 7442.75)">
      <path id="Path_21454" data-name="Path 21454" d="M22.684,18.735a3.949,3.949,0,1,0-3.949,3.949A3.951,3.951,0,0,0,22.684,18.735Zm-1.823,0a2.126,2.126,0,1,1-2.126-2.126A2.129,2.129,0,0,1,20.862,18.735Z" transform="translate(2.912 2.912)" fill="#ff8727" fill-rule="evenodd"/>
      <path id="Path_21455" data-name="Path 21455" d="M14.161,19.109H15.94a.911.911,0,1,0,0-1.823H14.161a.911.911,0,0,0,0,1.823Z" transform="translate(2.581 3.45)" fill="#ff8727" fill-rule="evenodd"/>
      <path id="Path_21456" data-name="Path 21456" d="M16,21.882l1.259-1.259a.911.911,0,1,0-1.289-1.288l-1.259,1.258A.912.912,0,0,0,16,21.882Z" transform="translate(2.839 3.833)" fill="#ff8727" fill-rule="evenodd"/>
      <path id="Path_21457" data-name="Path 21457" d="M19.109,22.476V20.7a.911.911,0,0,0-1.823,0v1.779a.911.911,0,1,0,1.823,0Z" transform="translate(3.45 3.987)" fill="#ff8727" fill-rule="evenodd"/>
      <path id="Path_21458" data-name="Path 21458" d="M21.882,20.543l-1.259-1.259a.911.911,0,0,0-1.288,1.289l1.258,1.259a.912.912,0,0,0,1.289-1.289Z" transform="translate(3.833 3.822)" fill="#ff8727" fill-rule="evenodd"/>
      <path id="Path_21459" data-name="Path 21459" d="M22.476,17.286H20.7a.911.911,0,0,0,0,1.823h1.779a.911.911,0,1,0,0-1.823Z" transform="translate(3.987 3.45)" fill="#ff8727" fill-rule="evenodd"/>
      <path id="Path_21460" data-name="Path 21460" d="M20.593,14.713l-1.258,1.259a.911.911,0,1,0,1.288,1.289L21.882,16a.912.912,0,0,0-1.289-1.289Z" transform="translate(3.833 2.839)" fill="#ff8727" fill-rule="evenodd"/>
      <path id="Path_21461" data-name="Path 21461" d="M17.286,14.161V15.94a.911.911,0,1,0,1.823,0V14.161a.911.911,0,0,0-1.823,0Z" transform="translate(3.45 2.581)" fill="#ff8727" fill-rule="evenodd"/>
      <path id="Path_21462" data-name="Path 21462" d="M14.713,15.953l1.259,1.258a.911.911,0,0,0,1.289-1.288L16,14.663a.912.912,0,0,0-1.289,1.289Z" transform="translate(2.839 2.828)" fill="#ff8727" fill-rule="evenodd"/>
      <path id="Path_21463" data-name="Path 21463" d="M1.25,9.148v13.67a4.557,4.557,0,0,0,4.557,4.557H19.725a2.142,2.142,0,0,1-.19-.653,2.126,2.126,0,0,1-3.013-2.961,2.127,2.127,0,0,1,.066-4.236,2.126,2.126,0,0,1,2.948-3.041,2.127,2.127,0,0,1,4.226.038,2.126,2.126,0,0,1,2.961,3.013,2.142,2.142,0,0,1,.653.19V9.148Zm8.265,2.446L7.66,17.162a.911.911,0,0,0,1.729.576l1.855-5.568a.911.911,0,1,0-1.729-.576ZM5.8,12.165,3.948,14.022a.91.91,0,0,0,0,1.288L5.8,17.167a.912.912,0,0,0,1.289-1.289L5.881,14.666l1.211-1.211A.912.912,0,0,0,5.8,12.165Zm6.009,1.289,1.211,1.211-1.211,1.211A.912.912,0,1,0,13.1,17.167l1.855-1.857a.91.91,0,0,0,0-1.288L13.1,12.165a.912.912,0,0,0-1.289,1.289ZM1.25,7.326H27.375V5.807A4.557,4.557,0,0,0,22.818,1.25H5.807A4.557,4.557,0,0,0,1.25,5.807ZM15.224,3.68a.911.911,0,1,1-.911.911A.912.912,0,0,1,15.224,3.68Zm3.342,0a.911.911,0,1,1-.911.911.912.912,0,0,1,.911-.911Zm3.342,0A.911.911,0,1,1,21,4.592.912.912,0,0,1,21.907,3.68Z" transform="translate(0 0)" fill="#ff8727" fill-rule="evenodd"/>
    </g>
  </g>
</svg>
