<svg xmlns="http://www.w3.org/2000/svg" width="30" height="30" viewBox="0 0 30 30">
  <g id="Group_65357" data-name="Group 65357" transform="translate(21704 -7431)">
    <rect id="Rectangle_4596" data-name="Rectangle 4596" width="30" height="30" transform="translate(-21704 7431)" fill="#3458e0" opacity="0"/>
    <g id="_x30_3" transform="translate(-21704 7431)">
      <path id="Path_21464" data-name="Path 21464" d="M15.929,2H4.786A2.786,2.786,0,0,0,2,4.786V25.214A2.786,2.786,0,0,0,4.786,28H15.929a2.786,2.786,0,0,0,2.786-2.786V4.786A2.786,2.786,0,0,0,15.929,2Zm1.857,22.75a2.324,2.324,0,0,1-2.321,2.321H5.25A2.324,2.324,0,0,1,2.929,24.75V5.25A2.324,2.324,0,0,1,5.25,2.929H15.464A2.324,2.324,0,0,1,17.786,5.25Z" transform="translate(0 0)" fill="#3458e0"/>
      <path id="Path_21465" data-name="Path 21465" d="M15.607,4h-3.25A1.857,1.857,0,1,1,8.643,4H5.393A1.394,1.394,0,0,0,4,5.393v19.5a1.394,1.394,0,0,0,1.393,1.393H15.607A1.394,1.394,0,0,0,17,24.893V5.393A1.394,1.394,0,0,0,15.607,4ZM9.413,18.043a.464.464,0,0,1-.611.7l-3.714-3.25a.464.464,0,0,1,0-.7L8.8,11.543a.464.464,0,0,1,.611.7L6.1,15.143Zm6.5-2.551L12.2,18.742a.464.464,0,1,1-.611-.7l3.315-2.9-3.315-2.9a.464.464,0,1,1,.611-.7l3.714,3.25a.464.464,0,0,1,0,.7Z" transform="translate(-0.143 -0.143)" fill="#3458e0"/>
      <path id="Path_21466" data-name="Path 21466" d="M28.885,17.047l-1.309-.738a6.912,6.912,0,0,0,0-2.047l1.309-.738a.929.929,0,0,0,.344-1.281l-1.9-3.216a.929.929,0,0,0-1.256-.336l-1.331.751A7.648,7.648,0,0,0,22.9,8.4V6.929A.928.928,0,0,0,21.972,6H21v5.571A3.714,3.714,0,0,1,21,19v5.571h.972a.928.928,0,0,0,.929-.929V22.175a7.68,7.68,0,0,0,1.84-1.045l1.331.751a.928.928,0,0,0,1.256-.336l1.9-3.216a.929.929,0,0,0-.344-1.281Z" transform="translate(-1.357 -0.286)" fill="#3458e0"/>
    </g>
  </g>
</svg>
