<svg xmlns="http://www.w3.org/2000/svg" width="30" height="30" viewBox="0 0 30 30">
  <g id="Group_65358" data-name="Group 65358" transform="translate(21518 -7400)">
    <rect id="Rectangle_4597" data-name="Rectangle 4597" width="30" height="30" transform="translate(-21518 7400)" fill="#0865c2" opacity="0"/>
    <g id="content-management-system" transform="translate(-21517.004 7400.996)">
      <path id="Path_21467" data-name="Path 21467" d="M20.07,12a8.07,8.07,0,1,0,8.07,8.07A8.07,8.07,0,0,0,20.07,12ZM15.587,22.312a.9.9,0,0,0,.9-.9.448.448,0,0,1,.9,0,1.793,1.793,0,1,1-3.587,0v-2.69a1.793,1.793,0,1,1,3.587,0,.448.448,0,0,1-.9,0,.9.9,0,1,0-1.793,0v2.69A.9.9,0,0,0,15.587,22.312Zm6.277.448a.448.448,0,1,1-.9,0V19.853l-.477,1.272a.448.448,0,0,1-.84,0l-.477-1.272V22.76a.448.448,0,1,1-.9,0V17.38a.448.448,0,0,1,.868-.158l.925,2.468.925-2.466a.448.448,0,0,1,.868.156Zm4.483-4.035a.448.448,0,0,1-.9,0,.9.9,0,1,0-.9.9,1.793,1.793,0,1,1-1.793,1.793.448.448,0,0,1,.9,0,.9.9,0,1,0,.9-.9,1.793,1.793,0,1,1,1.793-1.793Z" transform="translate(-6.066 -6.066)" fill="#ff8727"/>
      <path id="Path_21468" data-name="Path 21468" d="M26.941,12.785a.8.8,0,0,0-.673-.691l-1.728-.282A10.694,10.694,0,0,0,23,8.108l1.02-1.426a.807.807,0,0,0-.008-.967,10.673,10.673,0,0,0-.82-.9,12.085,12.085,0,0,0-.9-.82.807.807,0,0,0-.967-.008L19.9,5a10.694,10.694,0,0,0-3.7-1.536l-.283-1.727a.8.8,0,0,0-.69-.673,11.462,11.462,0,0,0-2.438,0,.8.8,0,0,0-.69.673l-.283,1.727A10.694,10.694,0,0,0,8.108,5L6.682,3.985a.807.807,0,0,0-.967.008,12.084,12.084,0,0,0-.9.82,10.674,10.674,0,0,0-.82.9.807.807,0,0,0-.008.967L5,8.108a10.694,10.694,0,0,0-1.536,3.7l-1.727.282a.8.8,0,0,0-.673.691,11.462,11.462,0,0,0,0,2.438.81.81,0,0,0,.673.69l1.727.283A10.694,10.694,0,0,0,5,19.9l-1.02,1.426a.807.807,0,0,0,.008.967,12.084,12.084,0,0,0,.82.9,11.28,11.28,0,0,0,.9.821.8.8,0,0,0,.967.008L8.107,23a10.694,10.694,0,0,0,3.7,1.536l.283,1.727a.8.8,0,0,0,.69.673,11.462,11.462,0,0,0,2.438,0,.8.8,0,0,0,.69-.673L16.2,24.54A10.694,10.694,0,0,0,19.9,23l1.426,1.02a.8.8,0,0,0,.967-.008,11.28,11.28,0,0,0,.9-.82,12.085,12.085,0,0,0,.821-.9.807.807,0,0,0,.008-.967L23,19.9a10.694,10.694,0,0,0,1.536-3.7l1.727-.283a.81.81,0,0,0,.673-.69,11.462,11.462,0,0,0,0-2.438ZM14,22.971A8.967,8.967,0,1,1,22.971,14,8.967,8.967,0,0,1,14,22.971Z" transform="translate(0 0)" fill="#ff8727"/>
    </g>
  </g>
</svg>
