<svg xmlns="http://www.w3.org/2000/svg" width="30.857" height="54" viewBox="0 0 30.857 54">
  <g id="Group_65316" data-name="Group 65316" transform="translate(-181 -2538)">
    <g id="ux-design" transform="translate(181 2538)">
      <path id="Path_21502" data-name="Path 21502" d="M41.964,56a2.893,2.893,0,0,0,2.893-2.893V4.893A2.893,2.893,0,0,0,41.964,2H37.143v.964A2.893,2.893,0,0,1,34.25,5.857H24.607a2.893,2.893,0,0,1-2.893-2.893V2H16.893A2.893,2.893,0,0,0,14,4.893V53.107A2.893,2.893,0,0,0,16.893,56ZM24.607,45.393a1.929,1.929,0,0,0,1.929-1.929v-6.75a.964.964,0,1,1,1.929,0v6.75a3.857,3.857,0,0,1-7.714,0v-6.75a.964.964,0,1,1,1.929,0v6.75A1.929,1.929,0,0,0,24.607,45.393Zm11.571,8.679h-13.5a.964.964,0,0,1,0-1.929h13.5a.964.964,0,1,1,0,1.929Zm.964-8.679a.964.964,0,0,1,0,1.929H31.357a.964.964,0,1,1,0-1.929h1.929V37.679H31.357a.964.964,0,1,1,0-1.929h5.786a.964.964,0,0,1,0,1.929H35.214v7.714ZM30.531,11.175a.964.964,0,1,1,1.653-.993l2.066,3.444,2.066-3.443a.964.964,0,1,1,1.653.993l-2.6,4.325,2.595,4.325a.964.964,0,1,1-1.653.993L34.25,17.375l-2.066,3.443a.964.964,0,1,1-1.653-.993l2.6-4.325Zm-9.781-.5a.964.964,0,1,1,1.929,0v6.75a1.929,1.929,0,1,0,3.857,0v-6.75a.964.964,0,1,1,1.929,0v6.75a3.857,3.857,0,1,1-7.714,0ZM17.587,30.967l23.143-6.75a.964.964,0,0,1,.54,1.851l-23.143,6.75a.964.964,0,1,1-.54-1.851Z" transform="translate(-14 -2)" fill="#fff"/>
      <path id="Path_21503" data-name="Path 21503" d="M34.607,3.929a.964.964,0,0,0,.964-.964V2H24v.964a.964.964,0,0,0,.964.964Z" transform="translate(-14.357 -2)" fill="#fff"/>
    </g>
  </g>
</svg>
