<svg xmlns="http://www.w3.org/2000/svg" width="30" height="30" viewBox="0 0 30 30">
  <g id="Group_65341" data-name="Group 65341" transform="translate(19909 -9646)">
    <rect id="Rectangle_4582" data-name="Rectangle 4582" width="30" height="30" transform="translate(-19909 9646)" fill="none"/>
    <g id="web-development" transform="translate(-19906.477 9647.525)">
      <path id="Path_21384" data-name="Path 21384" d="M24.625,6.771V3.164A2.167,2.167,0,0,0,22.461,1H2.164A2.167,2.167,0,0,0,0,3.164V6.771ZM16.641,3.886H20.97a.721.721,0,0,1,0,1.443H16.641a.721.721,0,1,1,0-1.443Zm-7.214,0a.721.721,0,1,1-.721.721A.721.721,0,0,1,9.427,3.886Zm-2.886,0a.721.721,0,1,1-.721.721A.721.721,0,0,1,6.541,3.886Zm-2.886,0a.721.721,0,1,1-.721.721A.721.721,0,0,1,3.655,3.886Z" fill="#3458e0"/>
      <path id="Path_21385" data-name="Path 21385" d="M0,151v15.15a2.167,2.167,0,0,0,2.164,2.164h20.3a2.167,2.167,0,0,0,2.164-2.164V151Zm8.434,10.258a.721.721,0,1,1-.9,1.127L3.926,159.5a.722.722,0,0,1,0-1.127l3.607-2.886a.721.721,0,1,1,.9,1.127l-2.9,2.322Zm6.705-7.088-4.329,10.1a.721.721,0,0,1-1.326-.568l4.329-10.1a.721.721,0,0,1,1.326.568ZM20.7,159.5l-3.607,2.886a.721.721,0,1,1-.9-1.127l2.9-2.322-2.9-2.322a.721.721,0,1,1,.9-1.127l3.607,2.886A.722.722,0,0,1,20.7,159.5Z" transform="translate(0 -142.786)" fill="#3458e0"/>
    </g>
  </g>
</svg>
