<svg xmlns="http://www.w3.org/2000/svg" xmlns:xlink="http://www.w3.org/1999/xlink" width="159" height="160" viewBox="0 0 159 160">
  <defs>
    <linearGradient id="linear-gradient" x1="1" y1="0.638" x2="-0.024" y2="0.308" gradientUnits="objectBoundingBox">
      <stop offset="0" stop-color="#fff"/>
      <stop offset="1" stop-color="#cae4fc"/>
    </linearGradient>
  </defs>
  <g id="Adwords" transform="translate(-94 -66)">
    <g id="Education" transform="translate(93.674 66.254)">
      <ellipse id="Ellipse_404" data-name="Ellipse 404" cx="79.5" cy="80" rx="79.5" ry="80" transform="translate(0.326 -0.254)" opacity="0.53" fill="url(#linear-gradient)"/>
    </g>
    <g id="_x34_3.Google_Adwords" transform="translate(124 96.486)">
      <path id="Path_21654" data-name="Path 21654" d="M57.193,15.5a14.661,14.661,0,0,0-20.039,5.37L11.992,64.455C5.5,75.7,15.9,89.333,28.493,85.959A14.573,14.573,0,0,0,37.4,79.124L62.562,35.541A14.686,14.686,0,0,0,57.193,15.5Z" fill="#fabc04"/>
      <path id="Path_21655" data-name="Path 21655" d="M88.038,64.455,62.875,20.872a14.576,14.576,0,0,0-8.907-6.835c-12.593-3.375-22.991,10.262-16.5,21.5L62.63,79.124A14.669,14.669,0,1,0,88.038,64.455Z" fill="#3c8bd9"/>
      <path id="Path_21656" data-name="Path 21656" d="M38.865,67.993A14.661,14.661,0,0,0,20.9,57.62C8.306,60.994,6.119,78,17.361,84.494,28.577,90.969,42.258,80.654,38.865,67.993Z" fill="#34a852"/>
    </g>
  </g>
</svg>
