<svg xmlns="http://www.w3.org/2000/svg" xmlns:xlink="http://www.w3.org/1999/xlink" width="159" height="160" viewBox="0 0 159 160">
  <defs>
    <linearGradient id="linear-gradient" x1="1" y1="0.638" x2="-0.024" y2="0.308" gradientUnits="objectBoundingBox">
      <stop offset="0" stop-color="#fff"/>
      <stop offset="1" stop-color="#cae4fc"/>
    </linearGradient>
  </defs>
  <g id="Call_center" data-name="Call center" transform="translate(-0.326 0.254)">
    <ellipse id="Ellipse_404" data-name="Ellipse 404" cx="79.5" cy="80" rx="79.5" ry="80" transform="translate(0.326 -0.254)" opacity="0.53" fill="url(#linear-gradient)"/>
    <g id="call-center" transform="translate(-26.119 35.747)">
      <path id="Path_24355" data-name="Path 24355" d="M138.222.136a24.192,24.192,0,0,0-22.517,24.22V55.49a1.918,1.918,0,0,0,1.918,1.918h44.864a1.36,1.36,0,0,0,1.36-1.36V24.158A24.1,24.1,0,0,0,138.222.136Z" transform="translate(-33.366 -0.073)" fill="#647892"/>
      <path id="Path_24356" data-name="Path 24356" d="M127.7,55.418V24.284A24.27,24.27,0,0,1,145.769.77a24.131,24.131,0,0,0-30.064,23.514V55.418a1.918,1.918,0,0,0,1.918,1.918h11.991A1.918,1.918,0,0,1,127.7,55.418Z" transform="translate(-33.366)" fill="#4d6682"/>
      <g id="Group_65924" data-name="Group 65924" transform="translate(75.445 54.388)">
        <path id="Path_24357" data-name="Path 24357" d="M137.2,383.785l-2.513-12.62a7.783,7.783,0,0,0-5.067-5.894l-1.03-.3h0c-.03-.008-4.935-1.223-9.177-2.272l-8.637,10.144a5.438,5.438,0,0,1-8.759-.014l-8.605-10.157c-1.222.3-4.15,1.026-9.287,2.3h0a7.938,7.938,0,0,0-6.1,6.2l-2.513,12.62a3.722,3.722,0,0,0,3.431,4.446l.012.006h54.8l.012-.006A3.722,3.722,0,0,0,137.2,383.785Z" transform="translate(-75.445 -354.959)" fill="#3997ee"/>
        <path id="Path_24358" data-name="Path 24358" d="M214.154,317.644h-.007c.01,0-.054.016-.08.02h.087v-.021Z" transform="translate(-190.332 -317.644)" fill="#3997ee"/>
      </g>
      <path id="Path_24359" data-name="Path 24359" d="M80.28,391.565s2.222-12.57,2.513-14.031a7.661,7.661,0,0,1,4.129-5.479l-2.793.692h0a7.938,7.938,0,0,0-6.1,6.2l-2.513,12.62a3.722,3.722,0,0,0,3.431,4.446l.012.006h4.761l-.012-.006A3.722,3.722,0,0,1,80.28,391.565Z" transform="translate(0 -308.35)" fill="#1e88d8"/>
      <path id="Path_24360" data-name="Path 24360" d="M200.284,324.167a1.479,1.479,0,0,1-1.124-1.436v-5.087h-1.284a16.728,16.728,0,0,1-11.54,0h-1.285v5.2a1.334,1.334,0,0,1-1.011,1.294l-5.088,1.273,8.852,10.448a5.438,5.438,0,0,0,8.759.014l8.884-10.434Z" transform="translate(-85.785 -263.256)" fill="#edb87e"/>
      <path id="Path_24361" data-name="Path 24361" d="M195.526,336.879l-3.416-3.835a9.064,9.064,0,0,1-2.3-6.029V318.51a16.7,16.7,0,0,1-3.477-.866h-1.285v5.2a1.334,1.334,0,0,1-1.011,1.294l-5.088,1.273,8.852,10.448C189.984,338.435,193.1,338.773,195.526,336.879Z" transform="translate(-85.786 -263.256)" fill="#e4a970"/>
      <g id="Group_65925" data-name="Group 65925" transform="translate(86.835 78.938)">
        <path id="Path_24362" data-name="Path 24362" d="M144.612,462.344a1.323,1.323,0,1,0-2.645,0v7.406h2.645Z" transform="translate(-141.967 -461.021)" fill="#1e88d8"/>
        <path id="Path_24363" data-name="Path 24363" d="M356.768,469.75v-7.406a1.323,1.323,0,1,0-2.645,0v7.406Z" transform="translate(-317.797 -461.021)" fill="#1e88d8"/>
      </g>
      <path id="Path_24364" data-name="Path 24364" d="M208.522,397.929a5.438,5.438,0,0,0,8.759.014l4.607-5.411H203.95Z" transform="translate(-106.502 -325.322)" fill="#fac149"/>
      <path id="Path_24365" data-name="Path 24365" d="M208.522,397.929a5.905,5.905,0,0,0,4.04,2.208,5.358,5.358,0,0,0,3.68-1.193c-2.86-3.375-4.1-4.158-5.026-6.412H203.95Z" transform="translate(-106.502 -325.322)" fill="#f8a748"/>
      <path id="Path_24366" data-name="Path 24366" d="M160.315,140.736a2.254,2.254,0,0,0-2.385,2.252v3.16a16.842,16.842,0,1,0,33.681.24v-10.77a2.194,2.194,0,0,0-1.913-2.174,5.816,5.816,0,0,1-4.6-3.488.979.979,0,0,0-1.67-.155A26.457,26.457,0,0,1,160.315,140.736Z" transform="translate(-68.361 -107.246)" fill="#f4c48b"/>
      <path id="Path_24367" data-name="Path 24367" d="M162.692,201.22v-5.606q-1.156.026-2.376-.046a2.254,2.254,0,0,0-2.385,2.252v3.16a17,17,0,0,0,17.639,17.062q.8-.037,1.582-.149A16.843,16.843,0,0,1,162.692,201.22Z" transform="translate(-68.362 -162.079)" fill="#edb87e"/>
      <g id="Group_65926" data-name="Group 65926" transform="translate(85.916 3.52)">
        <path id="Path_24368" data-name="Path 24368" d="M157.04,234.312h-9.466c-5.849,0-10.979-3.856-10.979-9.825v-2.71a1.323,1.323,0,0,1,2.645,0v2.71c0,4.428,3.886,7.18,8.334,7.18h9.466a1.323,1.323,0,0,1,0,2.645Z" transform="translate(-136.595 -186.227)" fill="#efefef"/>
        <path id="Path_24369" data-name="Path 24369" d="M176.582,46.247a1.323,1.323,0,0,1-1.323-1.323v-3.6a17.9,17.9,0,1,0-35.8-.228v3.824a1.323,1.323,0,1,1-2.645,0V41.1a20.545,20.545,0,1,1,41.088.227v3.6A1.323,1.323,0,0,1,176.582,46.247Z" transform="translate(-136.779 -20.557)" fill="#efefef"/>
      </g>
      <path id="Path_24370" data-name="Path 24370" d="M382.366,168.276v11.286A6.094,6.094,0,0,0,382.366,168.276Z" transform="translate(-254.368 -139.463)" fill="#fac149"/>
      <path id="Path_24371" data-name="Path 24371" d="M382.366,185.616v6.216a6.089,6.089,0,0,0,2.946-8.751A6.136,6.136,0,0,1,382.366,185.616Z" transform="translate(-254.368 -151.733)" fill="#f8a748"/>
      <path id="Path_24372" data-name="Path 24372" d="M111.849,168.276v11.286A6.085,6.085,0,0,1,111.849,168.276Z" transform="translate(-27.014 -139.463)" fill="#fac149"/>
      <path id="Path_24373" data-name="Path 24373" d="M108.99,181.864a6.075,6.075,0,0,0,2.824,8.96V184.2A6.151,6.151,0,0,1,108.99,181.864Z" transform="translate(-26.979 -150.725)" fill="#f8a748"/>
      <path id="Path_24374" data-name="Path 24374" d="M234.838,284.007h3.187a2.43,2.43,0,0,0,2.453-2.273,2.381,2.381,0,0,0-2.378-2.488h-3.336a2.381,2.381,0,0,0-2.378,2.488A2.43,2.43,0,0,0,234.838,284.007Z" transform="translate(-130.066 -231.432)" fill="#3997ee"/>
      <path id="Path_24375" data-name="Path 24375" d="M236.434,281.734a2.379,2.379,0,0,1,2.022-2.459,2.4,2.4,0,0,0-.356-.03h-3.336a2.381,2.381,0,0,0-2.378,2.488,2.43,2.43,0,0,0,2.453,2.273h3.187a2.489,2.489,0,0,0,.431-.039A2.412,2.412,0,0,1,236.434,281.734Z" transform="translate(-130.066 -231.432)" fill="#1e88d8"/>
      <path id="Path_24376" data-name="Path 24376" d="M130.187,167.681V156.4a2.43,2.43,0,0,1,2.273-2.453,2.381,2.381,0,0,1,2.488,2.378v11.434a2.381,2.381,0,0,1-2.488,2.378A2.43,2.43,0,0,1,130.187,167.681Z" transform="translate(-45.369 -127.583)" fill="#f8a748"/>
      <path id="Path_24377" data-name="Path 24377" d="M132.46,195.958a2.43,2.43,0,0,1-2.273-2.453v6.965a2.43,2.43,0,0,0,2.273,2.453,2.381,2.381,0,0,0,2.488-2.378V193.58A2.381,2.381,0,0,1,132.46,195.958Z" transform="translate(-45.369 -160.372)" fill="#f38d1a"/>
      <path id="Path_24378" data-name="Path 24378" d="M354.616,167.681V156.4a2.431,2.431,0,0,1,2.275-2.453,2.382,2.382,0,0,1,2.49,2.378v11.434a2.382,2.382,0,0,1-2.49,2.378A2.431,2.431,0,0,1,354.616,167.681Z" transform="translate(-231.37 -127.583)" fill="#f8a748"/>
      <path id="Path_24379" data-name="Path 24379" d="M356.89,195.958a2.431,2.431,0,0,1-2.275-2.453v6.965a2.431,2.431,0,0,0,2.275,2.453,2.382,2.382,0,0,0,2.49-2.378V193.58A2.382,2.382,0,0,1,356.89,195.958Z" transform="translate(-231.369 -160.372)" fill="#f38d1a"/>
    </g>
  </g>
</svg>
