<svg xmlns="http://www.w3.org/2000/svg" width="100.43" height="100.43" viewBox="0 0 100.43 100.43">
  <g id="Ecommerce_SEO" data-name="Ecommerce SEO" transform="translate(0)">
    <path id="Path_21575" data-name="Path 21575" d="M96.653,100.43H3.777A3.777,3.777,0,0,1,0,96.653V3.777A3.777,3.777,0,0,1,3.777,0H96.652a3.777,3.777,0,0,1,3.777,3.777V96.653a3.777,3.777,0,0,1-3.777,3.777Zm0,0" transform="translate(0 0)" fill="#f2f2f2"/>
    <path id="Path_21576" data-name="Path 21576" d="M361.585,379.583a1.51,1.51,0,0,1-1.071-.444l-6.845-6.845a1.515,1.515,0,0,1,2.143-2.143L362.657,377a1.515,1.515,0,0,1-1.072,2.587Zm0,0" transform="translate(-283.938 -297.188)" fill="#426175"/>
    <path id="Path_21577" data-name="Path 21577" d="M448.261,0H437.406a3.777,3.777,0,0,1,3.777,3.777V96.652a3.777,3.777,0,0,1-3.777,3.777h10.855a3.777,3.777,0,0,0,3.777-3.777V3.777A3.777,3.777,0,0,0,448.261,0Zm0,0" transform="translate(-351.608 0)" fill="#cdd6df"/>
    <path id="Path_21578" data-name="Path 21578" d="M96.653,0H3.777A3.777,3.777,0,0,0,0,3.777V15.039H100.43V3.777A3.777,3.777,0,0,0,96.653,0Zm0,0" fill="#426175"/>
    <path id="Path_21579" data-name="Path 21579" d="M75.369,33.64H38.461a1.515,1.515,0,1,1,0-3.03H75.37a1.515,1.515,0,0,1,0,3.03Zm0,0" transform="translate(-29.698 -24.605)" fill="#f2f2f2"/>
    <path id="Path_21580" data-name="Path 21580" d="M452.041,15.039V3.777A3.777,3.777,0,0,0,448.264,0H437.41a3.777,3.777,0,0,1,3.777,3.777V15.039Zm0,0" transform="translate(-351.611)" fill="#2c4456"/>
    <g id="Group_65270" data-name="Group 65270" transform="translate(71.455 5.618)">
      <path id="Path_21581" data-name="Path 21581" d="M368.083,30.542a1.9,1.9,0,1,1-1.9-1.9A1.9,1.9,0,0,1,368.083,30.542Zm0,0" transform="translate(-364.281 -28.641)" fill="#fed066"/>
      <path id="Path_21582" data-name="Path 21582" d="M414.549,30.542a1.9,1.9,0,1,1-1.9-1.9A1.9,1.9,0,0,1,414.549,30.542Zm0,0" transform="translate(-401.632 -28.641)" fill="#fed066"/>
      <path id="Path_21583" data-name="Path 21583" d="M461.014,30.542a1.9,1.9,0,1,1-1.9-1.9A1.9,1.9,0,0,1,461.014,30.542Zm0,0" transform="translate(-438.983 -28.641)" fill="#fed066"/>
    </g>
    <path id="Path_21584" data-name="Path 21584" d="M160.966,146.953a30.5,30.5,0,1,1-30.5-30.5A30.5,30.5,0,0,1,160.966,146.953Zm0,0" transform="translate(-80.362 -93.614)" fill="#33bca5"/>
    <path id="Path_21585" data-name="Path 21585" d="M180.678,173.025a24.134,24.134,0,1,1-24.134-24.134A24.134,24.134,0,0,1,180.678,173.025Zm0,0" transform="translate(-106.437 -119.686)" fill="#f2f2f2"/>
    <path id="Path_21586" data-name="Path 21586" d="M250.27,155.967a24.115,24.115,0,0,0-22.493-6.452,24.136,24.136,0,0,1,0,47.034,24.135,24.135,0,0,0,22.493-40.582Zm0,0" transform="translate(-183.098 -119.692)" fill="#cdd6df"/>
    <path id="Path_21587" data-name="Path 21587" d="M398.909,411.925l-3.464,3.465a1.837,1.837,0,0,1-2.6,0L378.7,401.24a1.836,1.836,0,0,1,0-2.6l3.464-3.465a1.837,1.837,0,0,1,2.6,0l14.149,14.149A1.837,1.837,0,0,1,398.909,411.925Zm0,0" transform="translate(-303.984 -317.231)" fill="#f5b556"/>
    <path id="Path_21588" data-name="Path 21588" d="M177.028,241.095c0-3.6-6.607-2.2-6.607-7.075,0-3.009,2.521-3.9,4.7-3.9,1.321,0,3.7.346,3.7,1.463,0,.407-.285,1.159-.895,1.159-.549,0-1.077-.772-2.805-.772-1.484,0-2.542.569-2.542,1.85,0,3.008,6.607,1.646,6.607,7.054,0,2.907-1.952,4.33-4.635,4.33-2.643,0-4.492-1.382-4.492-2.4,0-.487.427-1.159.935-1.159.732,0,1.22,1.606,3.476,1.606,1.463,0,2.561-.691,2.561-2.155Zm0,0" transform="translate(-136.698 -184.979)" fill="#fd715c"/>
    <path id="Path_21589" data-name="Path 21589" d="M234.5,237h3.13a.779.779,0,0,1,.712.874.761.761,0,0,1-.712.834H234.5v4.675h6.038c.447,0,.711.447.711.976,0,.447-.224.935-.711.935H233.3c-.468,0-.955-.244-.955-.712V231.14c0-.467.487-.711.955-.711h7.237c.487,0,.711.487.711.935,0,.529-.264.976-.711.976H234.5Zm0,0" transform="translate(-186.769 -185.23)" fill="#fd715c"/>
    <path id="Path_21590" data-name="Path 21590" d="M290.281,240.877v-5.915c0-3.293,1.971-4.533,4.554-4.533,2.561,0,4.574,1.24,4.574,4.533v5.915c0,3.293-2.012,4.534-4.574,4.534C292.252,245.411,290.281,244.171,290.281,240.877Zm6.973-5.915c0-1.789-.915-2.622-2.42-2.622-1.524,0-2.4.833-2.4,2.622v5.915c0,1.789.874,2.623,2.4,2.623,1.5,0,2.42-.834,2.42-2.623Zm0,0" transform="translate(-233.342 -185.23)" fill="#fd715c"/>
    <path id="Path_21591" data-name="Path 21591" d="M368.083,30.542a1.9,1.9,0,1,1-1.9-1.9A1.9,1.9,0,0,1,368.083,30.542Zm0,0" transform="translate(-292.827 -23.023)" fill="#46d1c0"/>
    <path id="Path_21592" data-name="Path 21592" d="M414.549,30.542a1.9,1.9,0,1,1-1.9-1.9A1.9,1.9,0,0,1,414.549,30.542Zm0,0" transform="translate(-330.177 -23.023)" fill="#46d1c0"/>
    <path id="Path_21593" data-name="Path 21593" d="M461.014,30.542a1.9,1.9,0,1,1-1.9-1.9A1.9,1.9,0,0,1,461.014,30.542Zm0,0" transform="translate(-367.528 -23.023)" fill="#46d1c0"/>
  </g>
</svg>
