<svg id="linkedin" xmlns="http://www.w3.org/2000/svg" width="103.787" height="96.981" viewBox="0 0 103.787 96.981">
  <path id="Path_21727" data-name="Path 21727" d="M12.652,0a9.516,9.516,0,0,1,7.6,3.2,12.719,12.719,0,0,1,2.957,8.039A11.2,11.2,0,0,1,20.1,19.283a11.223,11.223,0,0,1-8.519,3.267h-.128a10.981,10.981,0,0,1-8.362-3.267A11.233,11.233,0,0,1,0,11.241,10.539,10.539,0,0,1,3.4,3.164C5.677,1.047,8.766,0,12.652,0ZM1.361,31.483H23.548V96.976H1.361ZM103.787,59.425V96.976H81.6V61.932c0-4.458-.873-8.026-2.607-10.743-1.725-2.693-4.594-4.043-8.686-4.043a10.768,10.768,0,0,0-7.453,2.489,14.811,14.811,0,0,0-4.028,5.485,9.855,9.855,0,0,0-.52,2.42c-.085.876-.122,1.828-.122,2.828V96.981H35.863l.146-30.467V44.293l-.085-8.249-.061-4.56H58.185v9.273l-.122.269h.122v-.269a26.8,26.8,0,0,1,2.658-3.58,20.718,20.718,0,0,1,3.995-3.484,22.352,22.352,0,0,1,5.705-2.655,25.66,25.66,0,0,1,7.7-1.049,29.1,29.1,0,0,1,10.13,1.735,20.7,20.7,0,0,1,8.126,5.456,26.218,26.218,0,0,1,5.364,9.195,39.225,39.225,0,0,1,1.928,13.05Z" transform="translate(0 0)" fill="#00679b" fill-rule="evenodd"/>
</svg>
