<svg xmlns="http://www.w3.org/2000/svg" xmlns:xlink="http://www.w3.org/1999/xlink" width="159" height="160" viewBox="0 0 159 160">
  <defs>
    <linearGradient id="linear-gradient" x1="1" y1="0.638" x2="-0.024" y2="0.308" gradientUnits="objectBoundingBox">
      <stop offset="0" stop-color="#fff"/>
      <stop offset="1" stop-color="#cae4fc"/>
    </linearGradient>
  </defs>
  <g id="Organiv_Seo" data-name="Organiv Seo" transform="translate(-687 570)">
    <ellipse id="Ellipse_404" data-name="Ellipse 404" cx="79.5" cy="80" rx="79.5" ry="80" transform="translate(687 -570)" opacity="0.53" fill="url(#linear-gradient)"/>
    <g id="layer1" transform="translate(729.471 -807.596)">
      <path id="path18154" d="M12.985,290.01,3.86,299.145l.873.873L9.3,304.58l9.126-9.135Z" transform="translate(12.17 34.397)" fill="#c8d4d9"/>
      <path id="path18158" d="M16.521,291.178a1.231,1.231,0,0,0-.854.364L2.414,304.794a6.456,6.456,0,0,0,9.135,9.126l13.243-13.243a1.232,1.232,0,0,0,0-1.745l-7.381-7.39a1.231,1.231,0,0,0-.891-.364Z" transform="translate(0 38.664)" fill="#33658a"/>
      <path id="path18162" d="M32.555,280.6a28.318,28.318,0,1,0,28.323,28.323A28.343,28.343,0,0,0,32.555,280.6Z" transform="translate(13.533 0)" fill="#33b9ef"/>
      <path id="path18168" d="M28.853,281.608a23.609,23.609,0,1,0,23.6,23.614A23.63,23.63,0,0,0,28.853,281.608Z" transform="translate(17.237 3.698)" fill="#dbe9ee"/>
      <path id="path18175" d="M19.99,283.241A12.338,12.338,0,0,0,7.672,295.557c0,4.837,2.965,9.592,5.81,13.227a51.86,51.86,0,0,0,5.69,6.161,1.232,1.232,0,0,0,1.635,0,51.829,51.829,0,0,0,5.69-6.161c2.845-3.635,5.808-8.39,5.808-13.227A12.336,12.336,0,0,0,19.99,283.241Z" transform="translate(26.1 9.664)" fill="#ff6b6b"/>
      <path id="path18182" d="M15.151,284.3A6.158,6.158,0,1,0,21.3,290.46,6.177,6.177,0,0,0,15.151,284.3Z" transform="translate(30.939 13.53)" fill="#dbe9ee"/>
    </g>
  </g>
</svg>
