<svg xmlns="http://www.w3.org/2000/svg" xmlns:xlink="http://www.w3.org/1999/xlink" width="159" height="160" viewBox="0 0 159 160">
  <defs>
    <linearGradient id="linear-gradient" x1="1" y1="0.638" x2="-0.024" y2="0.308" gradientUnits="objectBoundingBox">
      <stop offset="0" stop-color="#fff"/>
      <stop offset="1" stop-color="#cae4fc"/>
    </linearGradient>
  </defs>
  <g id="Mowing" transform="translate(-0.326 0.254)">
    <ellipse id="Ellipse_404" data-name="Ellipse 404" cx="79.5" cy="80" rx="79.5" ry="80" transform="translate(0.326 -0.254)" opacity="0.53" fill="url(#linear-gradient)"/>
    <g id="g509" transform="translate(26.324 26.746)">
      <path id="path4" d="M46.7,52.008,23.923,12.148A2.277,2.277,0,0,0,21.946,11H8.28a2.278,2.278,0,1,0,0,4.555H20.623L42.746,54.267A2.277,2.277,0,0,0,46.7,52.008Z" transform="translate(0 0)" fill="#989898" fill-rule="evenodd"/>
      <path id="path8" d="M44.057,52.907,17.864,46.074a2.282,2.282,0,0,0-2.858,2.2V79.027A2.273,2.273,0,0,0,17.283,81.3H45.754c1.253,0-.262-24.909-.08-25.618a2.277,2.277,0,0,0-1.617-2.779ZM82.2,51.695a2.273,2.273,0,0,0-2.278-2.278H68.531a2.273,2.273,0,0,0-2.278,2.278v7.972a2.273,2.273,0,0,0,2.278,2.278H79.919A2.273,2.273,0,0,0,82.2,59.666Z" transform="translate(1.25 4.859)" fill="#ede6de" fill-rule="evenodd"/>
      <path id="path12" d="M79.778,45.278A2.278,2.278,0,0,0,77.5,43H59.279A2.278,2.278,0,0,0,57,45.278v6.833a2.278,2.278,0,0,0,2.278,2.278H77.5a2.278,2.278,0,0,0,2.278-2.278Z" transform="translate(7.081 4.443)" fill="#fbb03b" fill-rule="evenodd"/>
      <path id="path16" d="M55.085,48.277A2.277,2.277,0,0,0,52.807,46H40.28A2.277,2.277,0,0,0,38,48.277V71.054a2.277,2.277,0,0,0,2.278,2.278H86.972s2.278-.13,2.278-2.278A13.666,13.666,0,0,0,75.584,57.388h-20.5Z" transform="translate(4.443 4.859)" fill="#f35d68" fill-rule="evenodd"/>
      <path id="rect20" d="M40.005,70H87.837v9.111H40.005Z" transform="translate(4.721 8.191)" fill="#3c92cf" fill-rule="evenodd"/>
      <path id="path24" d="M88.517,68a9.68,9.68,0,1,0,9.68,9.68A9.686,9.686,0,0,0,88.517,68ZM40.686,68a9.68,9.68,0,1,0,9.68,9.68A9.686,9.686,0,0,0,40.686,68Z" transform="translate(3.471 7.914)" fill="#989898" fill-rule="evenodd"/>
      <path id="path28" d="M39.714,75a1.708,1.708,0,1,1-1.708,1.708A1.707,1.707,0,0,1,39.714,75Zm47.831,0a1.708,1.708,0,1,1-1.708,1.708A1.707,1.707,0,0,1,87.545,75Z" transform="translate(4.443 8.886)" fill="#ede6de" fill-rule="evenodd"/>
    </g>
  </g>
</svg>
