<svg xmlns="http://www.w3.org/2000/svg" xmlns:xlink="http://www.w3.org/1999/xlink" width="160" height="160" viewBox="0 0 160 160">
  <defs>
    <linearGradient id="linear-gradient" x1="1" y1="0.638" x2="-0.024" y2="0.308" gradientUnits="objectBoundingBox">
      <stop offset="0" stop-color="#fff"/>
      <stop offset="1" stop-color="#cae4fc"/>
    </linearGradient>
  </defs>
  <g id="Real_Estate" data-name="Real Estate" transform="translate(286 -4535)">
    <circle id="Ellipse_404" data-name="Ellipse 404" cx="80" cy="80" r="80" transform="translate(-286 4535)" opacity="0.53" fill="url(#linear-gradient)"/>
    <g id="real-estate" transform="translate(-262.662 4564)">
      <path id="Path_21203" data-name="Path 21203" d="M125.982,266.942v43.332a3.049,3.049,0,0,1-3.047,3.047H48.751a3.049,3.049,0,0,1-3.047-3.047V266.942a3.049,3.049,0,0,1,3.047-3.047h74.184A3.049,3.049,0,0,1,125.982,266.942Zm0,0" transform="translate(-36.599 -211.322)" fill="#ffd399"/>
      <path id="Path_21204" data-name="Path 21204" d="M284.722,266.942v43.332a3.049,3.049,0,0,1-3.047,3.047h-37.74V263.895h37.74a3.049,3.049,0,0,1,3.047,3.047Zm0,0" transform="translate(-195.338 -211.322)" fill="#ffb655"/>
      <g id="Group_65193" data-name="Group 65193" transform="translate(-0.001 22.613)">
        <path id="Path_21205" data-name="Path 21205" d="M115.463,342.774V360.86a3.046,3.046,0,0,1-3.048,3.047H94.329a3.048,3.048,0,0,1-3.048-3.047V342.774a3.048,3.048,0,0,1,3.048-3.047h18.085a3.046,3.046,0,0,1,3.048,3.047Zm0,0" transform="translate(-73.096 -294.659)" fill="#ff7037"/>
        <path id="Path_21206" data-name="Path 21206" d="M306.072,342.774v31.273H277.7V342.774a3.048,3.048,0,0,1,3.047-3.047h22.274a3.048,3.048,0,0,1,3.048,3.047Zm0,0" transform="translate(-222.379 -294.659)" fill="#ff7037"/>
        <path id="Path_21207" data-name="Path 21207" d="M96.842,145.2l-15.7-30.055a3.048,3.048,0,0,0-2.7-1.637h-59.7a3.047,3.047,0,0,0-2.7,1.637L.349,145.2a3.05,3.05,0,0,0,2.7,4.459H94.14a3.05,3.05,0,0,0,2.7-4.459Zm0,0" transform="translate(0.001 -113.508)" fill="#ff7037"/>
      </g>
      <path id="Path_21208" data-name="Path 21208" d="M289.478,149.659H243.934V113.508h29.848a3.051,3.051,0,0,1,2.7,1.637l15.7,30.055a3.05,3.05,0,0,1-2.7,4.458Zm0,0" transform="translate(-195.338 -90.895)" fill="#ff4c04"/>
      <path id="Path_21209" data-name="Path 21209" d="M171.584,23.96a23.954,23.954,0,0,1-15.011,22.227,3.034,3.034,0,0,1-1.138.221c-16.565-.076-15.79.171-16.759-.221A23.96,23.96,0,1,1,171.584,23.96Zm0,0" transform="translate(-99.028)" fill="#ffd422"/>
      <path id="Path_21210" data-name="Path 21210" d="M267.893,23.96a23.954,23.954,0,0,1-15.011,22.227c-.955.386-1.026.152-8.948.221V0a23.987,23.987,0,0,1,23.96,23.96Zm0,0" transform="translate(-195.338 0)" fill="#eebf00"/>
      <path id="Path_21211" data-name="Path 21211" d="M189.99,48.462a17.782,17.782,0,0,1-10.67,16.352H164.93A17.865,17.865,0,1,1,189.99,48.462Zm0,0" transform="translate(-123.53 -24.502)" fill="#fff1b6"/>
      <path id="Path_21212" data-name="Path 21212" d="M261.8,48.462a17.782,17.782,0,0,1-10.67,16.352h-7.194V30.6A17.884,17.884,0,0,1,261.8,48.462Zm0,0" transform="translate(-195.338 -24.502)" fill="#ffe477"/>
      <path id="Path_21213" data-name="Path 21213" d="M213.518,68.088a6.655,6.655,0,0,1-5.141,6.469v1.178a3.048,3.048,0,0,1-3.047,3.048h0a3.049,3.049,0,0,1-3.046-3.048v-1h-3.448a3.047,3.047,0,1,1,0-6.095h8.04a.549.549,0,1,0,0-1.1h-4.507a6.644,6.644,0,0,1-.086-13.287V53.247a3.049,3.049,0,0,1,3.046-3.048h0a3.048,3.048,0,0,1,3.047,3.048v1h2.093a3.048,3.048,0,1,1,0,6.1h-8.1a.549.549,0,1,0,0,1.1h4.507a6.652,6.652,0,0,1,6.644,6.644Zm0,0" transform="translate(-156.732 -40.198)" fill="#ffd422"/>
      <path id="Path_21214" data-name="Path 21214" d="M252.124,113.289a6.655,6.655,0,0,1-5.141,6.469v1.178a3.048,3.048,0,0,1-3.047,3.048h0V113.837h1.546a.549.549,0,0,0,0-1.1h-1.546v-6.1h1.546a6.652,6.652,0,0,1,6.644,6.644Zm0,0" transform="translate(-195.338 -85.399)" fill="#eebf00"/>
      <path id="Path_21215" data-name="Path 21215" d="M249.076,60.347h-5.142V50.2h0a3.048,3.048,0,0,1,3.047,3.048v1h2.093a3.048,3.048,0,1,1,0,6.1Zm0,0" transform="translate(-195.338 -40.199)" fill="#eebf00"/>
      <path id="Path_21216" data-name="Path 21216" d="M156.6,208.443H106.864a3.048,3.048,0,0,1,0-6.1H156.6a3.048,3.048,0,0,1,0,6.1Zm0,0" transform="translate(-83.134 -162.036)" fill="#d03b00"/>
      <path id="Path_21217" data-name="Path 21217" d="M271.848,205.4a3.047,3.047,0,0,1-3.048,3.047H243.934v-6.1H268.8A3.047,3.047,0,0,1,271.848,205.4Zm0,0" transform="translate(-195.339 -162.039)" fill="#ae3200"/>
      <path id="Path_21218" data-name="Path 21218" d="M164.067,342.774V360.86a3.046,3.046,0,0,1-3.048,3.047h-9.042V339.726h9.042A3.046,3.046,0,0,1,164.067,342.774Zm0,0" transform="translate(-121.7 -272.047)" fill="#ff4c04"/>
      <path id="Path_21219" data-name="Path 21219" d="M363.087,342.774v31.273H348.9v-34.32h11.137a3.048,3.048,0,0,1,3.048,3.047Zm0,0" transform="translate(-279.395 -272.047)" fill="#ff4c04"/>
    </g>
  </g>
</svg>
