<svg xmlns="http://www.w3.org/2000/svg" xmlns:xlink="http://www.w3.org/1999/xlink" width="160" height="160" viewBox="0 0 160 160">
  <defs>
    <linearGradient id="linear-gradient" x1="1" y1="0.638" x2="-0.024" y2="0.308" gradientUnits="objectBoundingBox">
      <stop offset="0" stop-color="#fff"/>
      <stop offset="1" stop-color="#cae4fc"/>
    </linearGradient>
  </defs>
  <g id="Social" transform="translate(-334 -4536)">
    <circle id="Ellipse_404" data-name="Ellipse 404" cx="80" cy="80" r="80" transform="translate(334 4536)" opacity="0.53" fill="url(#linear-gradient)"/>
    <g id="content-social_network-marketing-like-rating" data-name="content-social network-marketing-like-rating" transform="translate(363.155 4574.626)">
      <path id="Path_21159" data-name="Path 21159" d="M22,31.5V16.8a6.534,6.534,0,0,1,6.534-6.534h1.634a3.267,3.267,0,0,1,3.267,3.267A6.534,6.534,0,0,1,39.969,7h4.9a9.8,9.8,0,0,1,9.8,9.8V31.5Z" transform="translate(12.136 2.534)" fill="#58595b"/>
      <path id="Path_21160" data-name="Path 21160" d="M24.267,21A3.277,3.277,0,0,0,21,24.267V25.9a3.277,3.277,0,0,0,3.267,3.267h3.267V21Z" transform="translate(11.502 11.404)" fill="#ffac96"/>
      <path id="Path_21161" data-name="Path 21161" d="M42.267,29.168A3.277,3.277,0,0,0,45.534,25.9V24.267A3.277,3.277,0,0,0,42.267,21H39v8.168Z" transform="translate(22.907 11.404)" fill="#ffac96"/>
      <path id="Path_21162" data-name="Path 21162" d="M44.6,17H28.267A3.277,3.277,0,0,0,25,20.267V31.7a11.4,11.4,0,0,0,5.554,9.8H42.316a11.4,11.4,0,0,0,5.554-9.8V20.267A3.277,3.277,0,0,0,44.6,17Z" transform="translate(14.037 8.87)" fill="#ffbcab"/>
      <path id="Path_21163" data-name="Path 21163" d="M47,37.08a13.018,13.018,0,0,1,6.534,11.3v4.525a4.844,4.844,0,0,0-3.267-1.258H47Z" transform="translate(27.975 21.592)" fill="#ed1c24"/>
      <path id="Path_21164" data-name="Path 21164" d="M19.534,51.651H16.267A4.844,4.844,0,0,0,13,52.909V48.384a13.018,13.018,0,0,1,6.534-11.3Z" transform="translate(6.434 21.592)" fill="#ed1c24"/>
      <path id="Path_21165" data-name="Path 21165" d="M6.686,39.654,12.9,35.139l6.214,4.515L16.74,32.348l6.214-4.515H15.273L12.9,20.528l-2.374,7.305H2.845l6.214,4.515Z" transform="translate(0 11.105)" fill="#ff9811"/>
      <path id="Path_21166" data-name="Path 21166" d="M9.534,20.069V7H3V21.7H9.534Z" transform="translate(0.098 2.534)" fill="#006df0"/>
      <path id="Path_21167" data-name="Path 21167" d="M22.418,22.6a3.267,3.267,0,0,0,3.171-2.475l1.634-6.534a3.267,3.267,0,0,0-3.171-4.059H20.069V6.267A3.267,3.267,0,0,0,16.8,3H15.168V4.634a6.534,6.534,0,0,1-6.534,6.534H7V22.6Z" transform="translate(2.632)" fill="#ffac96"/>
      <path id="Path_21168" data-name="Path 21168" d="M66.007,35.267v29.4H17v-29.4A3.277,3.277,0,0,1,20.267,32H62.74A3.277,3.277,0,0,1,66.007,35.267Z" transform="translate(8.968 18.373)" fill="#006df0"/>
      <path id="Path_21169" data-name="Path 21169" d="M74.877,52H3v6.534H97.747V52H74.877Z" transform="translate(0.098 31.045)" fill="#6d6e71"/>
      <path id="Path_21170" data-name="Path 21170" d="M50.267,55.8a4.9,4.9,0,0,0,0-9.8H47v9.8Z" transform="translate(27.975 27.243)" fill="#ffbcab"/>
      <path id="Path_21171" data-name="Path 21171" d="M20.168,46H16.9a4.9,4.9,0,0,0,0,9.8h3.267Z" transform="translate(5.8 27.243)" fill="#ffbcab"/>
      <path id="Path_21172" data-name="Path 21172" d="M57.9,6.415l-1.16,1.16-1.16-1.16a4.9,4.9,0,1,0-6.926,6.926l8.086,8.086,8.086-8.086A4.9,4.9,0,0,0,57.9,6.415Z" transform="translate(28.035 1.175)" fill="#ed1c24"/>
      <path id="Path_21173" data-name="Path 21173" d="M5,57H93.213v6.534H5Z" transform="translate(1.365 34.213)" fill="#bcbec0"/>
      <path id="Path_21174" data-name="Path 21174" d="M5,57H93.213v1.634H5Z" transform="translate(1.365 34.213)" fill="#a7a9ac"/>
      <path id="Path_21175" data-name="Path 21175" d="M64.335,37.336a1.612,1.612,0,0,1-.662-.14l-14.7-6.534a1.634,1.634,0,0,1,0-2.986l14.7-6.534A1.634,1.634,0,0,1,65,24.127L53.655,29.168,65,34.209a1.634,1.634,0,0,1-.663,3.127Z" transform="translate(28.609 11.404)" fill="#5eac24"/>
      <path id="Path_21176" data-name="Path 21176" d="M29.634,25.9a1.634,1.634,0,0,0,1.634-1.634V22.634a1.634,1.634,0,1,0-3.267,0v1.634A1.634,1.634,0,0,0,29.634,25.9Z" transform="translate(15.937 11.404)" fill="#58595b"/>
      <path id="Path_21177" data-name="Path 21177" d="M35.634,25.9a1.634,1.634,0,0,0,1.634-1.634V22.634a1.634,1.634,0,1,0-3.267,0v1.634A1.634,1.634,0,0,0,35.634,25.9Z" transform="translate(19.739 11.404)" fill="#58595b"/>
      <path id="Path_21178" data-name="Path 21178" d="M34.534,51.069a6.534,6.534,0,0,0,6.119-8.831,1.633,1.633,0,1,0-3.06,1.144,3.267,3.267,0,1,1-3.059-2.114,1.634,1.634,0,1,0,0-3.267,6.534,6.534,0,1,0,0,13.069Z" transform="translate(15.937 22.175)" fill="#004fac"/>
      <path id="Path_21179" data-name="Path 21179" d="M40.566,27.479a1.634,1.634,0,0,0-2.308,0,5.42,5.42,0,0,1-7.485,0,1.634,1.634,0,0,0-2.3,2.311,8.558,8.558,0,0,0,12.1,0,1.634,1.634,0,0,0-.007-2.311Z" transform="translate(15.959 15.207)" fill="#58595b"/>
      <g id="Group_65184" data-name="Group 65184" transform="translate(74.975 30.771)">
        <circle id="Ellipse_446" data-name="Ellipse 446" cx="3.267" cy="3.267" r="3.267" transform="translate(14.702 13.069)" fill="#7ed63e"/>
        <circle id="Ellipse_447" data-name="Ellipse 447" cx="3.267" cy="3.267" r="3.267" transform="translate(14.702)" fill="#7ed63e"/>
        <circle id="Ellipse_448" data-name="Ellipse 448" cx="3.267" cy="3.267" r="3.267" transform="translate(0 6.534)" fill="#7ed63e"/>
      </g>
    </g>
  </g>
</svg>
