<svg xmlns="http://www.w3.org/2000/svg" xmlns:xlink="http://www.w3.org/1999/xlink" width="115" height="115" viewBox="0 0 115 115">
  <defs>
    <linearGradient id="linear-gradient" x1="0.974" y1="0.238" x2="-0.052" y2="0.609" gradientUnits="objectBoundingBox">
      <stop offset="0" stop-color="#fff"/>
      <stop offset="1" stop-color="#006bc0" stop-opacity="0.071"/>
    </linearGradient>
  </defs>
  <g id="tech-integratedMarketing" transform="translate(-188 -1358)">
    <g id="PHP_Development" data-name="PHP Development">
      <g id="Group_7613" data-name="Group 7613">
        <circle id="Ellipse_376" data-name="Ellipse 376" cx="57.5" cy="57.5" r="57.5" transform="translate(188 1358)" opacity="0.42" fill="url(#linear-gradient)"/>
      </g>
    </g>
    <g id="FLAT" transform="translate(195.04 1344)">
      <path id="Path_51162" data-name="Path 51162" d="M44.266,143.77v-7.238A21.714,21.714,0,0,1,65.98,114.818h0a21.714,21.714,0,0,1,21.714,21.714v7.238H107.96v-5.79A41.98,41.98,0,0,0,65.98,96h0A41.98,41.98,0,0,0,24,137.98v5.79Z" transform="translate(0 -58.972)" fill="#006bc0"/>
      <circle id="Ellipse_541" data-name="Ellipse 541" cx="13.096" cy="13.096" r="13.096" transform="translate(52.865 24)" fill="#8bb276"/>
      <path id="Path_51163" data-name="Path 51163" d="M181.975,241.4l-2.513-1.437A15.843,15.843,0,0,1,193.184,232h.255a15.673,15.673,0,0,1,11.322,4.781l-2.075,2.019a12.8,12.8,0,0,0-9.247-3.9h-.255a12.941,12.941,0,0,0-11.209,6.509Z" transform="translate(-127.331 -170.362)" fill="#62b8d3"/>
      <path id="Path_51164" data-name="Path 51164" d="M170.9,298.293H168a15.793,15.793,0,0,1,.693-4.64l2.768.849a12.91,12.91,0,0,0-.565,3.791Z" transform="translate(-117.944 -220.86)" fill="#62b8d3"/>
      <path id="Path_51165" data-name="Path 51165" d="M104,392h5.79v14.476H104Z" transform="translate(-65.524 -301.411)" fill="#008cb7"/>
      <path id="Path_51166" data-name="Path 51166" d="M37.321,394.9l-2.047-2.047A2.9,2.9,0,0,0,33.226,392H29.743a2.9,2.9,0,0,0-2.873,2.536l-.724,5.79a2.9,2.9,0,0,0,2.873,3.254H31.53l-.8,1.6a2.9,2.9,0,0,0,2.59,4.19h1.106l2.9-5.79h2.9V394.9Z" transform="translate(-1.74 -301.411)" fill="#ffcbb1"/>
      <path id="Path_51167" data-name="Path 51167" d="M392.686,392l-2.9,5.79H384l4.343,4.343-1.448,7.238,5.79-4.343,5.79,4.343-1.448-7.238,4.343-4.343h-5.79Z" transform="translate(-294.859 -301.411)" fill="#f4aa8e"/>
      <path id="Path_51168" data-name="Path 51168" d="M234.37,48.73,223.215,60.815l-3.3-4.4L217.6,58.152l4.343,5.79a1.448,1.448,0,0,0,1.084.577l.074,0a1.448,1.448,0,0,0,1.063-.466l11.891-12.882a13.053,13.053,0,0,0-1.685-2.444Z" transform="translate(-158.568 -20.255)" fill="#ccdcc2"/>
      <path id="Path_51169" data-name="Path 51169" d="M88.45,158.4q-1.058.988-2.047,2.047l13.687,13.687a21.839,21.839,0,0,1,1.951-2.144Z" transform="translate(-51.111 -110.083)" fill="#00779c"/>
      <path id="Path_51170" data-name="Path 51170" d="M352.766,158.4l-13.591,13.591a21.84,21.84,0,0,1,1.951,2.144l13.687-13.687Q353.825,159.392,352.766,158.4Z" transform="translate(-258.145 -110.083)" fill="#00779c"/>
      <path id="Path_51171" data-name="Path 51171" d="M213.388,164.715l30.917-41.242L239.673,120l-4.341,5.791-5.791-4.341-3.473,4.633,5.791,4.341-3.473,4.633-3.475-2.6-3.473,4.633,3.475,2.6-16.156,21.552a5.84,5.84,0,0,1-5.365,2.27,11.581,11.581,0,1,0,9.286,6.9,5.73,5.73,0,0,1,.713-5.7Zm-6.708,13.775a5.79,5.79,0,1,1-1.16-8.106A5.79,5.79,0,0,1,206.681,178.49Z" transform="translate(-136.346 -78.629)" fill="#9cbd8a"/>
    </g>
  </g>
</svg>
