<svg xmlns="http://www.w3.org/2000/svg" width="113.224" height="92" viewBox="0 0 113.224 92">
  <g id="twitter-official" transform="translate(0 0)">
    <path id="Path_21726" data-name="Path 21726" d="M35.607,92c42.726,0,66.1-35.4,66.1-66.1,0-1.006,0-2.007-.068-3.008a47.268,47.268,0,0,0,11.59-12.019,46.369,46.369,0,0,1-13.342,3.655A23.312,23.312,0,0,0,110.094,1.685,46.555,46.555,0,0,1,95.343,7.323,23.252,23.252,0,0,0,55.756,28.51,65.952,65.952,0,0,1,7.881,4.238a23.247,23.247,0,0,0,7.191,31.01A23.056,23.056,0,0,1,4.529,32.341v.294A23.238,23.238,0,0,0,23.166,55.406a23.193,23.193,0,0,1-10.489.4,23.256,23.256,0,0,0,21.7,16.132A46.612,46.612,0,0,1,5.53,81.9,47.254,47.254,0,0,1,0,81.565,65.765,65.765,0,0,0,35.607,91.982" transform="translate(0 0)" fill="#1da1f2"/>
  </g>
</svg>
