<?xml version="1.0" encoding="utf-8"?>
<!-- Generator: Adobe Illustrator 22.0.1, SVG Export Plug-In . SVG Version: 6.00 Build 0)  -->
<svg version="1.1" id="Слой_1" xmlns="http://www.w3.org/2000/svg" xmlns:xlink="http://www.w3.org/1999/xlink" x="0px" y="0px" width="647" height="432"
	 viewBox="0 0 647.8 432" style="enable-background:new 0 0 647.8 432;" xml:space="preserve">
<style type="text/css">
	.st0{opacity:0.8;clip-path:url(#SVGID_2_);}
	.st1{fill:#FFFFFF;}
	.st2{opacity:0.41;fill:#EFEFEF;}
	.st3{fill:#D8DEE8;}
	.st4{fill:url(#SVGID_3_);}
	.st5{opacity:0.8;clip-path:url(#SVGID_5_);}
	.st6{fill:url(#SVGID_6_);}
	.st7{fill:url(#SVGID_7_);}
	.st8{fill:url(#SVGID_8_);}
	.st9{fill:url(#SVGID_9_);}
	.st10{fill:url(#SVGID_10_);}
	.st11{fill:url(#SVGID_11_);}
	.st12{opacity:0.4;fill:url(#SVGID_12_);}
	.st13{fill:#F4F7FA;}
	.st14{opacity:0.4;fill:#F4F7FA;}
	.st15{fill:url(#SVGID_13_);}
	.st16{fill:url(#SVGID_14_);}
	.st17{fill:url(#SVGID_15_);}
	.st18{fill:url(#SVGID_16_);}
	.st19{fill:url(#SVGID_17_);}
	.st20{fill:url(#SVGID_18_);}
	.st21{fill:url(#SVGID_19_);}
	.st22{fill:url(#SVGID_20_);}
	.st23{fill:url(#SVGID_21_);}
	.st24{opacity:0.3;fill:#FFFFFF;}
	.st25{fill:url(#SVGID_22_);}
	.st26{fill:url(#SVGID_23_);}
	.st27{opacity:0.4;fill:url(#SVGID_24_);}
	.st28{fill:url(#SVGID_25_);}
	.st29{fill:url(#SVGID_26_);}
	.st30{fill:url(#SVGID_27_);}
	.st31{fill:url(#SVGID_28_);}
	.st32{fill:url(#SVGID_29_);}
	.st33{fill:url(#SVGID_30_);}
	.st34{fill:url(#SVGID_31_);}
	.st35{fill:url(#SVGID_32_);}
	.st36{fill:url(#SVGID_33_);}
	.st37{opacity:0.2;}
	.st38{fill:url(#SVGID_34_);}
	.st39{fill:url(#SVGID_35_);}
	.st40{fill:url(#SVGID_36_);}
	.st41{fill:url(#SVGID_37_);}
	.st42{opacity:0.3;}
	.st43{fill:url(#SVGID_38_);}
	.st44{fill:url(#SVGID_39_);}
	.st45{fill:url(#SVGID_40_);}
	.st46{fill:url(#SVGID_41_);}
	.st47{fill:url(#SVGID_42_);}
	.st48{fill:url(#SVGID_43_);}
	.st49{fill:url(#SVGID_44_);}
	.st50{fill:url(#SVGID_45_);}
	.st51{fill:url(#SVGID_46_);}
	.st52{fill:url(#SVGID_47_);}
	.st53{fill:url(#SVGID_48_);}
	.st54{fill:url(#SVGID_49_);}
	.st55{fill:url(#SVGID_50_);}
	.st56{fill:url(#SVGID_51_);}
	.st57{fill:url(#SVGID_52_);}
	.st58{fill:url(#SVGID_53_);}
	.st59{opacity:0.3;fill:url(#SVGID_54_);}
	.st60{fill:url(#SVGID_55_);}
	.st61{fill:url(#SVGID_56_);}
	.st62{fill:url(#SVGID_57_);}
	.st63{fill:url(#SVGID_58_);}
	.st64{fill:url(#SVGID_59_);}
	.st65{fill:url(#SVGID_60_);}
	.st66{fill:url(#SVGID_61_);}
	.st67{fill:url(#SVGID_62_);}
	.st68{fill:url(#SVGID_63_);}
	.st69{fill:url(#SVGID_64_);}
	.st70{fill:url(#SVGID_65_);}
	.st71{fill:url(#SVGID_66_);}
	.st72{fill:url(#SVGID_67_);}
	.st73{fill:url(#SVGID_68_);}
	.st74{fill:url(#SVGID_69_);}
	.st75{fill:url(#SVGID_70_);}
	.st76{fill:url(#SVGID_71_);}
	.st77{fill:url(#SVGID_72_);}
	.st78{fill:#26264F;}
	.st79{fill:url(#SVGID_73_);}
	.st80{opacity:0.3;fill:url(#SVGID_74_);}
	.st81{fill:url(#SVGID_75_);}
	.st82{opacity:0.41;fill:#FFFFFF;}
	.st83{fill:url(#SVGID_76_);}
	.st84{opacity:0.39;fill:#FFFFFF;}
	.st85{fill:url(#SVGID_77_);}
	.st86{opacity:0.4;fill:#FFFFFF;}
</style>
<g>
	<g>
		<defs>
			<path id="SVGID_1_" d="M509.7,266.8c10.9-22,10.2-30.9,24.8-61.7c16.5-34.8,26.6-55.1,44.9-54.9c12.5,0.1,27.1,9.8,33.5,22.3
				c10.6,21-2.9,48.5-7.5,57.9c-7.7,15.8-15.6,20.6-15.2,35.3c0.3,12.4,6.1,15.7,6.2,25c0.3,26.4-45.6,37.9-53.1,39.7
				c-29.2,7.3-57.3,2.3-78.8-4.7C488.1,304.8,501.6,283.1,509.7,266.8z"/>
		</defs>
		<use xlink:href="#SVGID_1_"  style="overflow:visible;fill:#D8DEE8;"/>
		<clipPath id="SVGID_2_">
			<use xlink:href="#SVGID_1_"  style="overflow:visible;"/>
		</clipPath>
		<g class="st0">
			<g>
				<path class="st1" d="M460,327.6C460,327.6,460,327.6,460,327.6c25.4-5.5,48.7-17.7,69.4-36.2c16.5-14.8,31.4-33.7,44.3-56.2
					c21.9-38.2,30.3-74,30.4-74.3c0.1-0.4-0.1-0.7-0.3-0.8c-0.3-0.1-0.5,0.1-0.6,0.4c-0.1,0.4-8.5,35.9-30.2,74
					c-20.1,35.1-55.9,79.5-112.9,91.8c-0.3,0.1-0.5,0.4-0.4,0.8C459.5,327.3,459.7,327.6,460,327.6z"/>
			</g>
			<g>
				<path class="st1" d="M572.5,236.7c0.1,0,0.2,0,0.2-0.1c0.2-0.2,0.3-0.6,0.2-0.9c-0.1-0.3-13.5-33.5-10.7-79.2
					c0-0.4-0.2-0.7-0.5-0.7c-0.3,0-0.5,0.2-0.5,0.6c-2.9,46.1,10.7,79.6,10.8,79.9C572.2,236.6,572.3,236.7,572.5,236.7z"/>
			</g>
			<g>
				<path class="st1" d="M574.2,236.6c2.8,0,8.9-0.3,16.4-2.4c9.8-2.7,24.2-9,37.5-23.8c0.2-0.2,0.2-0.7,0.1-0.9
					c-0.2-0.3-0.5-0.3-0.7-0.1c-13.1,14.6-27.4,20.8-37,23.5c-10.5,2.9-17.9,2.3-18,2.3c-0.3,0-0.5,0.3-0.5,0.6s0.2,0.7,0.5,0.7
					C572.4,236.6,573.1,236.6,574.2,236.6z"/>
			</g>
			<g>
				<path class="st1" d="M563.4,288c12.1,0,30.8-4.6,56.9-23.5c0.2-0.2,0.3-0.6,0.2-0.9c-0.1-0.3-0.4-0.4-0.7-0.3
					c-29.2,21.1-49.1,24.2-60.6,23.1c-12.5-1.2-18.1-7.5-18.2-7.5c-0.2-0.2-0.5-0.2-0.7,0.1c-0.2,0.3-0.2,0.7,0.1,0.9
					c0.2,0.3,5.9,6.6,18.6,7.8C560.4,287.9,561.8,288,563.4,288z"/>
			</g>
			<g>
				<path class="st1" d="M583.1,352.1c0.3,0,0.5-0.3,0.5-0.6c0-0.4-0.2-0.7-0.5-0.7c-33.2-4.4-50.9-16.7-60-26.3
					c-9.7-10.3-11.6-19.5-11.6-19.6c-0.1-0.4-0.3-0.6-0.6-0.5c-0.3,0.1-0.4,0.5-0.4,0.8c0.1,0.4,2,9.8,12,20.3
					C531.6,335.2,549.5,347.7,583.1,352.1C583,352.1,583,352.1,583.1,352.1z"/>
			</g>
			<g>
				<path class="st1" d="M538.3,282.6c0.1,0,0.3-0.1,0.4-0.2c0.2-0.3,0.2-0.7,0-0.9c0-0.1-4.7-6.6-8.1-19.1
					c-3.1-11.5-5.5-30.7,0.1-56.3c0.1-0.4-0.1-0.7-0.3-0.8c-0.3-0.1-0.5,0.1-0.6,0.5c-5.7,26-3.2,45.4-0.1,57.1
					c3.4,12.7,8.1,19.2,8.3,19.5C538,282.6,538.1,282.6,538.3,282.6z"/>
			</g>
		</g>
	</g>
</g>
<path class="st2" d="M527.6,177.2c-10.8-70.7-55.1-157.6-142.6-166.6c0,0-66.4-8.1-131.9,4.2c-38.9,7.3-72.9,28.9-94.5,60
	c-21.6,31.1-28.8,69-20,105.2c5.7,23.5,9.5,47.8,8.5,71.9c-1.8,42-0.8,81.2,40,106.2c36.4,22.4,82.2,42.1,125.9,45.5
	c29.7,2.3,63-1.5,91.6-9.2C550.3,355,538.4,247.9,527.6,177.2z"/>
<path class="st3" d="M513,160.9l-9.2-3.1c0.6-4.5,0.8-9.2,0.7-13.8l9.5-2c2.7-0.6,4.4-3.2,3.8-5.9l-3.6-16.8
	c-0.6-2.7-3.2-4.4-5.8-3.8l-9.5,2c-1.7-4.3-3.8-8.4-6.2-12.3l7.1-6.5c2-1.8,2.2-4.9,0.3-7l-11.3-12.6c-1.8-2-4.9-2.2-6.9-0.4
	l-7.2,6.5c-3.6-2.8-7.4-5.3-11.4-7.4l3-9.2c0.8-2.6-0.6-5.3-3.1-6.2l-16-5.2c-2.6-0.8-5.3,0.6-6.2,3.1l-3,9.3
	c-4.4-0.6-8.9-0.8-13.4-0.7l-2-9.6c-0.5-2.6-3.1-4.3-5.8-3.8l-16.5,3.5c-2.6,0.6-4.3,3.1-3.8,5.8l2,9.7c-4.2,1.7-8.2,3.7-12,6.1
	l-6.5-7.4c-1.8-2-4.9-2.2-6.9-0.4l-12.6,11.3c-2,1.8-2.2,4.9-0.4,6.9l6.6,7.5c-2.8,3.5-5.3,7.3-7.4,11.3l-9.5-3.1
	c-2.6-0.8-5.3,0.6-6.2,3.1l-5.4,16.2c-0.9,2.6,0.5,5.4,3,6.2l9.5,3.2c-0.7,4.4-1,8.9-0.8,13.5l-9.9,2.1c-2.7,0.6-4.4,3.2-3.9,5.9
	l3.3,16.9c0.5,2.7,3.1,4.4,5.8,3.9l9.9-2.1c1.6,4.3,3.6,8.4,5.9,12.2l-7.6,6.8c-2,1.8-2.3,5-0.5,7.1l11.2,13c1.8,2.1,4.9,2.3,7,0.4
	l7.6-6.9c3.5,2.9,7.3,5.4,11.2,7.6l-3.2,9.8c-0.9,2.7,0.5,5.5,3.1,6.4l16.2,5.5c2.6,0.9,5.4-0.6,6.3-3.2l3.2-9.7
	c4.4,0.7,9,0.9,13.6,0.8l2,10c0.6,2.7,3.2,4.5,5.9,3.9l16.8-3.6c2.7-0.6,4.4-3.3,3.8-6l-2-9.9c4.3-1.7,8.4-3.8,12.2-6.2l6.6,7.5
	c1.8,2.1,5,2.3,7,0.4l12.7-11.6c2-1.9,2.2-5,0.4-7.1l-6.6-7.5c2.8-3.6,5.3-7.5,7.5-11.6l9.3,3.1c2.6,0.9,5.4-0.6,6.2-3.2l5.2-16.5
	C517,164.6,515.6,161.8,513,160.9z M439.1,206c-32.5,6.9-64.1-14.3-70.7-47.1c-6.5-32.6,14.3-64.4,46.5-71.2
	c32.1-6.8,63.7,13.9,70.5,46.5C492.3,166.8,471.6,199.1,439.1,206z"/>
<g>
	<linearGradient id="SVGID_3_" gradientUnits="userSpaceOnUse" x1="107.725" y1="169.7364" x2="249.8677" y2="169.7364">
		<stop  offset="0" style="stop-color:#FF9085"/>
		<stop  offset="1" style="stop-color:#FB6FBB"/>
	</linearGradient>
	<path class="st4" d="M221.3,211.8C231.2,167,271.4,35,189,43.2c-55.4,5.5-18.2,50.6-53.6,65.2c-35.4,14.6-40.5,57.4,6.6,112.5
		s107.9,75.8,107.9,75.8S211.4,256.6,221.3,211.8z"/>
	<g>
		<defs>
			<path id="SVGID_4_" d="M221.3,211.8C231.2,167,271.6,37.2,189,43.2c-53.2,3.8-18.2,50.6-53.6,65.2
				c-35.4,14.6-40.5,57.4,6.6,112.5s107.9,75.8,107.9,75.8S211.4,256.6,221.3,211.8z"/>
		</defs>
		<clipPath id="SVGID_5_">
			<use xlink:href="#SVGID_4_"  style="overflow:visible;"/>
		</clipPath>
		<g class="st5">
			<g>
				<path class="st1" d="M258.2,301.8c-0.1,0-0.2,0-0.3-0.1c-90.2-45.1-77.9-139.3-70.6-195.6c0.9-6.6,1.7-12.9,2.2-18.3
					c2.6-26.1-2.8-39.6-7.8-46.3c-5.3-7.2-11.4-8.3-11.4-8.3c-0.3-0.1-0.6-0.4-0.5-0.7c0.1-0.3,0.4-0.6,0.7-0.5
					c0.3,0,6.5,1.2,12.2,8.7c5.1,6.9,10.7,20.6,8.1,47.2c-0.5,5.5-1.4,11.7-2.2,18.4c-7.3,56-19.4,149.6,69.9,194.3
					c0.3,0.2,0.4,0.5,0.3,0.9C258.7,301.7,258.5,301.8,258.2,301.8z"/>
			</g>
			<g>
				<path class="st1" d="M184.4,138.3c-0.2,0-0.4-0.1-0.5-0.3c-0.1-0.1-7.2-11.2-18.5-21.4c-10.4-9.3-26.5-19.8-44.3-16.6
					c-0.3,0.1-0.7-0.2-0.7-0.5c-0.1-0.3,0.2-0.7,0.5-0.7c14.5-2.6,30.2,3.2,45.4,16.9c11.4,10.3,18.7,21.5,18.7,21.6
					c0.2,0.3,0.1,0.7-0.2,0.9C184.6,138.3,184.5,138.3,184.4,138.3z"/>
			</g>
			<g>
				<path class="st1" d="M185.5,202c-0.2,0-0.4-0.1-0.5-0.2c-0.1-0.1-10-11.7-25.2-21.9c-14-9.4-35.3-19.6-58.1-14.7
					c-0.3,0.1-0.7-0.1-0.8-0.5c-0.1-0.3,0.1-0.7,0.5-0.8c23.2-5,44.9,5.3,59.1,14.9c15.3,10.3,25.3,22,25.4,22.1
					c0.2,0.3,0.2,0.7-0.1,0.9C185.8,202,185.7,202,185.5,202z"/>
			</g>
			<g>
				<path class="st1" d="M187.8,106.5c-0.1,0-0.2,0-0.3-0.1c-0.3-0.2-0.4-0.6-0.2-0.9c0.1-0.1,7.3-11.3,18.7-21.6
					c15.2-13.7,30.9-19.5,45.4-16.9c0.3,0.1,0.6,0.4,0.5,0.7c-0.1,0.3-0.4,0.6-0.7,0.5c-17.8-3.2-33.9,7.2-44.3,16.6
					c-11.3,10.2-18.5,21.3-18.5,21.4C188.3,106.4,188.1,106.5,187.8,106.5z"/>
			</g>
			<g>
				<path class="st1" d="M183.3,180.7c-0.1,0-0.2,0-0.3-0.1c-0.3-0.2-0.4-0.6-0.2-0.9c0.1-0.1,7.8-13.5,20-24.3
					c7.2-6.4,14.6-10.6,21.9-12.5c9.2-2.5,18.3-1.4,27,3.2c0.3,0.2,0.4,0.5,0.3,0.9c-0.2,0.3-0.5,0.4-0.9,0.3
					c-15.4-8.1-31.4-5.1-47.5,9.1c-12.1,10.6-19.7,23.9-19.7,24C183.7,180.5,183.5,180.7,183.3,180.7z"/>
			</g>
			<g>
				<path class="st1" d="M194.8,236.6c-0.1,0-0.2,0-0.3-0.1c-0.3-0.2-0.4-0.6-0.2-0.9c0.1-0.1,7.8-13.5,20-24.3
					c7.2-6.4,14.6-10.6,21.9-12.5c9.2-2.5,18.3-1.4,27,3.2c0.3,0.2,0.4,0.5,0.3,0.9c-0.2,0.3-0.5,0.4-0.9,0.3
					c-15.4-8.1-31.4-5.1-47.5,9.1c-12.1,10.6-19.7,23.9-19.7,24C195.2,236.5,195,236.6,194.8,236.6z"/>
			</g>
		</g>
	</g>
</g>
<g>
	<g>
		<g>
			<g>
				
					<linearGradient id="SVGID_6_" gradientUnits="userSpaceOnUse" x1="-7044.6045" y1="379.2371" x2="-6868.8115" y2="379.2371" gradientTransform="matrix(0.9998 1.990000e-02 -1.990000e-02 0.9998 7230.8516 -11.7586)">
					<stop  offset="0" style="stop-color:#B7C0CE"/>
					<stop  offset="1" style="stop-color:#EBEFF2"/>
				</linearGradient>
				<path class="st6" d="M328.8,96.6l24.7,251.7c0.4,3.7-2.2,7.1-5.8,7.5l-124.2,15.4c-7.7,0.6-11.9-3.3-12.3-7.3L182.8,91.8
					c-0.4-4.1,3.5-7.8,11.4-7.6l127.3,5.3C325.1,89.6,328.4,92.8,328.8,96.6z"/>
				
					<linearGradient id="SVGID_7_" gradientUnits="userSpaceOnUse" x1="-6969.3369" y1="420.5341" x2="-6945.6875" y2="354.8862" gradientTransform="matrix(0.9998 1.990000e-02 -1.990000e-02 0.9998 7230.8516 -11.7586)">
					<stop  offset="0.494" style="stop-color:#EBEFF2"/>
					<stop  offset="1" style="stop-color:#FFFFFF"/>
				</linearGradient>
				<path class="st7" d="M334.3,96.3l24.8,252.8c0.4,3.7-2.2,7.1-5.8,7.5l-128.6,14.7c-4.1,0.5-7.8-2.5-8.2-6.5L188.1,91.4
					c-0.4-4.1,2.7-7.4,6.9-7.2l132.1,4.9C330.7,89.2,334,92.5,334.3,96.3z"/>
				
					<linearGradient id="SVGID_8_" gradientUnits="userSpaceOnUse" x1="6004.7476" y1="230.8803" x2="6097.939" y2="722.4642" gradientTransform="matrix(-1 0 0 1 6278.3081 0)">
					<stop  offset="0" style="stop-color:#AA80F9"/>
					<stop  offset="0.9964" style="stop-color:#6165D7"/>
				</linearGradient>
				<path class="st8" d="M331.6,110.3l23,234.4c0.3,3.5-2.1,6.7-5.4,7l-121,13.4c-3.8,0.4-7.2-2.3-7.6-6.1l-26.2-252.2
					c-0.4-3.8,2.5-6.9,6.4-6.8l124,3.6C328.2,103.8,331.3,106.8,331.6,110.3z"/>
			</g>
			
				<linearGradient id="SVGID_9_" gradientUnits="userSpaceOnUse" x1="-6959.5581" y1="235.2469" x2="-7106.3638" y2="632.8453" gradientTransform="matrix(0.9998 1.990000e-02 -1.990000e-02 0.9998 7230.8516 -11.7586)">
				<stop  offset="0" style="stop-color:#FFC444"/>
				<stop  offset="0.9964" style="stop-color:#F36F56"/>
			</linearGradient>
			<path class="st9" d="M266.6,94.8c0.1,1.4-0.8,2.5-2.2,2.4c-1.4,0-2.6-1.2-2.7-2.6c-0.1-1.4,0.8-2.5,2.2-2.4
				C265.3,92.3,266.5,93.5,266.6,94.8z"/>
		</g>
	</g>
	<circle class="st1" cx="277.5" cy="257" r="60.7"/>
	<g>
		<linearGradient id="SVGID_10_" gradientUnits="userSpaceOnUse" x1="274.3488" y1="250.4528" x2="328.1246" y2="250.4528">
			<stop  offset="0" style="stop-color:#AA80F9"/>
			<stop  offset="0.9964" style="stop-color:#6165D7"/>
		</linearGradient>
		<path class="st10" d="M328.1,246.3c0,5.1-3.6,9.8-8.9,10.9l-40.3,8.6l-2.1-9.7l-2.5-11.2l40.1-9.4c5.6-1.3,11.4,1.9,13.2,7.4
			c0,0,0.1,0.1,0.1,0.1v0C327.7,244.1,328.1,245.2,328.1,246.3z"/>
		<linearGradient id="SVGID_11_" gradientUnits="userSpaceOnUse" x1="323.8081" y1="241.2582" x2="314.857" y2="252.5648">
			<stop  offset="0" style="stop-color:#444B8C"/>
			<stop  offset="0.9964" style="stop-color:#26264F"/>
		</linearGradient>
		<circle class="st11" cx="320.5" cy="245.4" r="4"/>
		<linearGradient id="SVGID_12_" gradientUnits="userSpaceOnUse" x1="276.7981" y1="254.391" x2="328.0707" y2="254.391">
			<stop  offset="0" style="stop-color:#AA80F9"/>
			<stop  offset="0.9964" style="stop-color:#6165D7"/>
		</linearGradient>
		<path class="st12" d="M328.1,246.3c0,5.1-3.5,9.8-8.8,10.9l-40.3,8.6l-2.1-9.7c7.6-1.2,26.2-4.2,36.8-5.5
			c12.7-1.6,13.9-6.8,14-7.5C327.9,244.1,328.1,245.2,328.1,246.3z"/>
	</g>
	<g>
		<g>
			<path class="st13" d="M282,246.3l-14.1,16.1l-4-3.5l-27.2-23.3c-4.3-3.7-5.1-10-2-14.6c0.1-0.1,0.2-0.2,0.2-0.4
				c2.2-3,5.6-4.6,9-4.6c2.6,0,5.3,0.9,7.4,2.8L282,246.3z"/>
			<path class="st14" d="M271.3,253.4l-7.5,5.6l-27.2-23.3c-4.3-3.7-5.1-10-2-14.6L271.3,253.4z"/>
		</g>
		
			<linearGradient id="SVGID_13_" gradientUnits="userSpaceOnUse" x1="-3715.8201" y1="-2428.217" x2="-3749.0955" y2="-2386.1848" gradientTransform="matrix(0.7131 -0.7011 0.7011 0.7131 4624.9644 -640.1858)">
			<stop  offset="0" style="stop-color:#444B8C"/>
			<stop  offset="0.9964" style="stop-color:#26264F"/>
		</linearGradient>
		<circle class="st15" cx="274.9" cy="252.9" r="14.9"/>
	</g>
	<g>
		<linearGradient id="SVGID_14_" gradientUnits="userSpaceOnUse" x1="219.8677" y1="279.9138" x2="232.5612" y2="279.9138">
			<stop  offset="0" style="stop-color:#444B8C"/>
			<stop  offset="0.9964" style="stop-color:#26264F"/>
		</linearGradient>
		<path class="st16" d="M226.5,271.7c0,0-8.7,5.1-6.1,11.1c1.6,3.6,5.4,4.9,8.2,5.3c1.8,0.3,3.4-1,3.6-2.8l0.5-4.9L226.5,271.7z"/>
		<g>
			<linearGradient id="SVGID_15_" gradientUnits="userSpaceOnUse" x1="399.878" y1="200.4704" x2="341.4779" y2="234.3709">
				<stop  offset="0" style="stop-color:#FCB148"/>
				<stop  offset="5.207239e-02" style="stop-color:#FDBA46"/>
				<stop  offset="0.1424" style="stop-color:#FFC244"/>
				<stop  offset="0.3183" style="stop-color:#FFC444"/>
				<stop  offset="0.4849" style="stop-color:#FDB946"/>
				<stop  offset="0.7754" style="stop-color:#F99C4D"/>
				<stop  offset="0.8658" style="stop-color:#F8924F"/>
				<stop  offset="1" style="stop-color:#F8924F"/>
			</linearGradient>
			<path class="st17" d="M330.9,221.6c-0.5,4.9,3,18.9,7.9,19.4l40.2-5.3l1.9-17.7l-40.2-4.3C335.8,213.2,331.4,216.7,330.9,221.6z"
				/>
			<linearGradient id="SVGID_16_" gradientUnits="userSpaceOnUse" x1="400.3594" y1="204.2651" x2="345.3481" y2="236.1985">
				<stop  offset="0" style="stop-color:#FCB148"/>
				<stop  offset="5.207239e-02" style="stop-color:#FDBA46"/>
				<stop  offset="0.1424" style="stop-color:#FFC244"/>
				<stop  offset="0.3183" style="stop-color:#FFC444"/>
				<stop  offset="0.4849" style="stop-color:#FDB946"/>
				<stop  offset="0.7754" style="stop-color:#F99C4D"/>
				<stop  offset="0.8658" style="stop-color:#F8924F"/>
				<stop  offset="1" style="stop-color:#F8924F"/>
			</linearGradient>
			<path class="st18" d="M408.3,188c-3.8-3.1-9.4-2.5-12.5,1.3l-25.4,31.4l13.8,11.2l25.4-31.4C412.7,196.7,412.1,191.1,408.3,188z"
				/>
			
				<linearGradient id="SVGID_17_" gradientUnits="userSpaceOnUse" x1="-2030.0271" y1="-804.0746" x2="-2058.7947" y2="-767.7368" gradientTransform="matrix(0.7131 -0.7011 0.7011 0.7131 2386.3462 -640.1858)">
				<stop  offset="0" style="stop-color:#444B8C"/>
				<stop  offset="0.9964" style="stop-color:#26264F"/>
			</linearGradient>
			<circle class="st19" cx="376.8" cy="226.6" r="12.9"/>
		</g>
		<linearGradient id="SVGID_18_" gradientUnits="userSpaceOnUse" x1="338.7973" y1="156.6243" x2="378.6179" y2="156.6243">
			<stop  offset="0" style="stop-color:#FFC444"/>
			<stop  offset="0.9964" style="stop-color:#F36F56"/>
		</linearGradient>
		<ellipse class="st20" cx="358.7" cy="156.6" rx="19.9" ry="28"/>
		<linearGradient id="SVGID_19_" gradientUnits="userSpaceOnUse" x1="190.8081" y1="142.1739" x2="367.4284" y2="142.1739">
			<stop  offset="0" style="stop-color:#FCB148"/>
			<stop  offset="5.207239e-02" style="stop-color:#FDBA46"/>
			<stop  offset="0.1424" style="stop-color:#FFC244"/>
			<stop  offset="0.3183" style="stop-color:#FFC444"/>
			<stop  offset="0.4849" style="stop-color:#FDB946"/>
			<stop  offset="0.7754" style="stop-color:#F99C4D"/>
			<stop  offset="0.8658" style="stop-color:#F8924F"/>
			<stop  offset="1" style="stop-color:#F8924F"/>
		</linearGradient>
		<path class="st21" d="M297.9,88.8h-37.5c-38.4,0-69.6,31.1-69.6,69.6c0,20.5,16.6,37.1,37.1,37.1h102.4
			c20.5,0,37.1-16.6,37.1-37.1C367.4,120,336.3,88.8,297.9,88.8z"/>
		<linearGradient id="SVGID_20_" gradientUnits="userSpaceOnUse" x1="342.0311" y1="170.0095" x2="226.6414" y2="299.6216">
			<stop  offset="0" style="stop-color:#FCB148"/>
			<stop  offset="5.207239e-02" style="stop-color:#FDBA46"/>
			<stop  offset="0.1424" style="stop-color:#FFC244"/>
			<stop  offset="0.3183" style="stop-color:#FFC444"/>
			<stop  offset="0.4849" style="stop-color:#FDB946"/>
			<stop  offset="0.7754" style="stop-color:#F99C4D"/>
			<stop  offset="0.8658" style="stop-color:#F8924F"/>
			<stop  offset="1" style="stop-color:#F8924F"/>
		</linearGradient>
		<path class="st22" d="M295.1,292.7H264c-31.8,0-57.7-25.8-57.7-57.7c0-17,13.8-30.8,30.8-30.8H322c17,0,30.8,13.8,30.8,30.8
			C352.8,266.9,326.9,292.7,295.1,292.7z"/>
		<g>
			<linearGradient id="SVGID_21_" gradientUnits="userSpaceOnUse" x1="243.0641" y1="157.2668" x2="347.4017" y2="157.2668">
				<stop  offset="0" style="stop-color:#444B8C"/>
				<stop  offset="0.9964" style="stop-color:#26264F"/>
			</linearGradient>
			<path class="st23" d="M331.9,180.5h-71.2c-9.7,0-17.6-7.4-17.6-16.5v-14c0-9.1,7.9-16.3,17.6-16l71.2,2.3
				c8.6,0.3,15.5,7.4,15.5,15.9v13C347.4,173.6,340.5,180.5,331.9,180.5z"/>
			<g>
				<g>
					<path class="st1" d="M283.5,159.6c0,0.3,0,0.9,0,0.9h-23.3c-0.1-0.5-0.1-0.9-0.1-1.3c0-6.2,5.3-11.1,11.8-10.9
						C278.3,148.4,283.5,153.5,283.5,159.6z"/>
					<path class="st1" d="M331.6,160.5h-21.9c0,0,0-0.2,0-0.3c0-6,5-10.7,11-10.6C326.7,149.7,331.6,154.6,331.6,160.5z"/>
				</g>
			</g>
		</g>
		<path class="st24" d="M305,185.8c-10.6-12.4-5.9-22.4-19.7-39.3c-19.1-23.2-41.3-20.6-46.4-36.3c-1.4-4.4-1.6-10.3,2.2-18.6
			c-29,8.4-50.3,35.1-50.3,66.9c0,20.5,16.6,37.1,37.1,37.1h89.2C311.8,192.6,307.9,189.2,305,185.8z"/>
		<linearGradient id="SVGID_22_" gradientUnits="userSpaceOnUse" x1="180.9099" y1="156.4296" x2="220.7304" y2="156.4296">
			<stop  offset="0" style="stop-color:#FFC444"/>
			<stop  offset="0.9964" style="stop-color:#F36F56"/>
		</linearGradient>
		<ellipse class="st25" cx="200.8" cy="156.4" rx="19.9" ry="28"/>
		<linearGradient id="SVGID_23_" gradientUnits="userSpaceOnUse" x1="176.3633" y1="156.4296" x2="193.7763" y2="156.4296">
			<stop  offset="0" style="stop-color:#FFC444"/>
			<stop  offset="0.9964" style="stop-color:#F36F56"/>
		</linearGradient>
		<ellipse class="st26" cx="185.1" cy="156.4" rx="8.7" ry="12.2"/>
		<linearGradient id="SVGID_24_" gradientUnits="userSpaceOnUse" x1="206.3741" y1="248.4977" x2="303.8779" y2="248.4977">
			<stop  offset="0" style="stop-color:#FCB148"/>
			<stop  offset="5.207239e-02" style="stop-color:#FDBA46"/>
			<stop  offset="0.1424" style="stop-color:#FFC244"/>
			<stop  offset="0.3183" style="stop-color:#FFC444"/>
			<stop  offset="0.4849" style="stop-color:#FDB946"/>
			<stop  offset="0.7754" style="stop-color:#F99C4D"/>
			<stop  offset="0.8658" style="stop-color:#F8924F"/>
			<stop  offset="1" style="stop-color:#F8924F"/>
		</linearGradient>
		<path class="st27" d="M302.7,261c-4.3-20-51.4-19.5-52.7-32.6c-1-10.1,26.1-20.1,29.5-21.3c2.9-1.1,5.8-2,8.7-2.8h-51.1
			c-17,0-30.8,13.8-30.8,30.8c0,31.8,25.8,57.7,57.7,57.7h31.1c3,0,5.9-0.2,8.8-0.7c-2.7-3.4-4.5-7-4.9-11
			C298,272.2,304.4,268.7,302.7,261z"/>
		<linearGradient id="SVGID_25_" gradientUnits="userSpaceOnUse" x1="258.3851" y1="375.8192" x2="272.4907" y2="266.6857">
			<stop  offset="0" style="stop-color:#FCB148"/>
			<stop  offset="5.207239e-02" style="stop-color:#FDBA46"/>
			<stop  offset="0.1424" style="stop-color:#FFC244"/>
			<stop  offset="0.3183" style="stop-color:#FFC444"/>
			<stop  offset="0.3975" style="stop-color:#FEC045"/>
			<stop  offset="0.7095" style="stop-color:#FAA34B"/>
			<stop  offset="0.8658" style="stop-color:#F8924F"/>
			<stop  offset="1" style="stop-color:#F8924F"/>
		</linearGradient>
		<ellipse class="st28" cx="280.3" cy="206" rx="49.1" ry="5.9"/>
		
			<linearGradient id="SVGID_26_" gradientUnits="userSpaceOnUse" x1="871.4911" y1="123.707" x2="913.7101" y2="123.707" gradientTransform="matrix(0.9798 0.2002 -0.2002 0.9798 -645.4821 -65.51)">
			<stop  offset="0" style="stop-color:#FCB148"/>
			<stop  offset="5.207239e-02" style="stop-color:#FDBA46"/>
			<stop  offset="0.1424" style="stop-color:#FFC244"/>
			<stop  offset="0.3183" style="stop-color:#FFC444"/>
			<stop  offset="0.4849" style="stop-color:#FDB946"/>
			<stop  offset="0.7754" style="stop-color:#F99C4D"/>
			<stop  offset="0.8658" style="stop-color:#F8924F"/>
			<stop  offset="1" style="stop-color:#F8924F"/>
		</linearGradient>
		<path class="st29" d="M182.3,236.6l30.4-18.5c4.3-2.6,9.8-1.5,12.8,2.6c3.4,4.6,2,11.1-2.9,14l-30.8,17.9L182.3,236.6z"/>
		
			<linearGradient id="SVGID_27_" gradientUnits="userSpaceOnUse" x1="2585.3069" y1="-844.0065" x2="2608.1008" y2="-844.0065" gradientTransform="matrix(0.7098 0.7044 -0.7044 0.7098 -2209.1897 -960.7358)">
			<stop  offset="0" style="stop-color:#444B8C"/>
			<stop  offset="0.9964" style="stop-color:#26264F"/>
		</linearGradient>
		<path class="st30" d="M242.3,260.4l1.3,7.7c0.4,2.3-1.5,4.4-3.9,4.2c-5-0.4-12.6,0.1-15.5,6.4c-0.8,1.7-0.9,3.5-0.5,5.3l0.7,2.9
			c0,0-13.9-4.6-7.3-20.4c5.2-12.4,17.6-10.4,22.6-9C241.1,257.9,242.1,259.1,242.3,260.4z"/>
		
			<linearGradient id="SVGID_28_" gradientUnits="userSpaceOnUse" x1="3404.0256" y1="-2469.3098" x2="3446.249" y2="-2469.3098" gradientTransform="matrix(0.2665 0.9638 -0.9638 0.2665 -3092.2429 -2383.282)">
			<stop  offset="0" style="stop-color:#FCB148"/>
			<stop  offset="5.207239e-02" style="stop-color:#FDBA46"/>
			<stop  offset="0.1424" style="stop-color:#FFC244"/>
			<stop  offset="0.3183" style="stop-color:#FFC444"/>
			<stop  offset="0.4849" style="stop-color:#FDB946"/>
			<stop  offset="0.7754" style="stop-color:#F99C4D"/>
			<stop  offset="0.8658" style="stop-color:#F8924F"/>
			<stop  offset="1" style="stop-color:#F8924F"/>
		</linearGradient>
		<path class="st31" d="M188.6,241.2l30.3,18.7c4.3,2.6,5.8,8.1,3.5,12.6c-2.6,5.1-9,6.8-13.8,3.7l-29.9-19.3L188.6,241.2z"/>
		
			<linearGradient id="SVGID_29_" gradientUnits="userSpaceOnUse" x1="-2181.1821" y1="-923.379" x2="-2209.9497" y2="-887.0411" gradientTransform="matrix(0.7131 -0.7011 0.7011 0.7131 2386.3462 -640.1858)">
			<stop  offset="0" style="stop-color:#444B8C"/>
			<stop  offset="0.9964" style="stop-color:#26264F"/>
		</linearGradient>
		<circle class="st32" cx="185.4" cy="247.5" r="12.9"/>
		<g>
			<linearGradient id="SVGID_30_" gradientUnits="userSpaceOnUse" x1="412.9566" y1="170.7898" x2="394.8599" y2="181.3271">
				<stop  offset="0" style="stop-color:#444B8C"/>
				<stop  offset="0.9964" style="stop-color:#26264F"/>
			</linearGradient>
			<path class="st33" d="M405.3,173.1l-8.7-6.3c0,0-2.9,9-2,11.4c1,2.4,10.2,10.7,10.2,10.7s-0.8-7,1.4-12.4
				C406.8,175.3,406.4,173.9,405.3,173.1z"/>
			<linearGradient id="SVGID_31_" gradientUnits="userSpaceOnUse" x1="393.5591" y1="179.7759" x2="433.3316" y2="179.7759">
				<stop  offset="0" style="stop-color:#444B8C"/>
				<stop  offset="0.9964" style="stop-color:#26264F"/>
			</linearGradient>
			<path class="st34" d="M396.7,166.8c0.8,0,1.4,0.8,1.1,1.5c-1.3,4-3.7,14.6,6.6,16.9c9.6,2.2,13.7-3.2,17-11.4
				c0.5-1.2,1.9-1.7,3.1-1.2l7.5,3.6c1.3,0.6,1.7,2.2,0.9,3.3c-3.5,5.1-13.4,16.8-27.3,12c-17-5.8-11.6-20.7-10.1-24.1
				C395.8,167.1,396.2,166.8,396.7,166.8z"/>
		</g>
	</g>
</g>
<g>
	<linearGradient id="SVGID_32_" gradientUnits="userSpaceOnUse" x1="427.8512" y1="-5.9095" x2="473.0488" y2="84.7911">
		<stop  offset="0" style="stop-color:#FFC444"/>
		<stop  offset="0.9964" style="stop-color:#F36F56"/>
	</linearGradient>
	<path class="st35" d="M499.1,75.6c0-15.7-14.5-27.9-31.7-27.3c-9.8,0.3-18.3,4.7-23.7,11.3c0,0,0,0,0,0c0,0-0.1,0.1-0.1,0.1
		c-0.1,0.1-0.2,0.2-0.3,0.3c-0.2,0.2-0.3,0.4-0.5,0.6c-0.1,0.1-0.2,0.3-0.3,0.4c-0.2,0.2-0.3,0.4-0.4,0.6c-0.1,0.1-0.2,0.2-0.2,0.4
		c-0.2,0.3-0.3,0.5-0.5,0.8c-0.1,0.1-0.1,0.2-0.2,0.3c-0.2,0.3-0.4,0.7-0.6,1.1c0,0.1-0.1,0.2-0.1,0.3c-0.1,0.3-0.3,0.5-0.4,0.8
		c-0.1,0.1-0.1,0.3-0.2,0.4c-0.1,0.2-0.2,0.5-0.3,0.7c-0.1,0.1-0.1,0.3-0.2,0.4c-0.1,0.3-0.2,0.5-0.3,0.8c0,0.1-0.1,0.3-0.1,0.4
		c-0.1,0.3-0.2,0.6-0.3,1c0,0.1,0,0.1-0.1,0.2c-0.1,0.4-0.2,0.8-0.3,1.2c0,0.1,0,0.2-0.1,0.4c-0.1,0.3-0.1,0.6-0.2,0.9
		c0,0.1,0,0.3-0.1,0.4c0,0.3-0.1,0.5-0.1,0.8c0,0.2,0,0.3-0.1,0.5c0,0.3-0.1,0.6-0.1,0.9c0,0.1,0,0.3,0,0.4c0,0.4,0,0.8,0,1.3
		c0,10.1,6.1,18.9,15.2,23.7c0.8,0.4,1.7,0.8,2.6,1.2c0.4,0.2,0.9,0.4,1.4,0.5c3.2,1.2,6.7,1.8,10.4,1.9c0.5,0,1,0,1.5,0
		c0.2,0,0.3,0,0.5,0c0.3,0,0.7,0,1,0c0.2,0,0.4,0,0.6,0c0.3,0,0.6,0,0.9-0.1c0.2,0,0.4,0,0.6-0.1c0.3,0,0.6-0.1,0.8-0.1
		c0.2,0,0.4-0.1,0.7-0.1c0.3,0,0.5-0.1,0.8-0.1c0.2,0,0.4-0.1,0.7-0.1c0.3-0.1,0.5-0.1,0.8-0.2c0.2-0.1,0.4-0.1,0.7-0.2
		c0.3-0.1,0.5-0.1,0.8-0.2c0.2-0.1,0.4-0.1,0.6-0.2c0.1,0,0.2,0,0.2-0.1c0,0,0,0,0,0C490.5,97.8,499.1,87.7,499.1,75.6z"/>
	<linearGradient id="SVGID_33_" gradientUnits="userSpaceOnUse" x1="454.4305" y1="53.6655" x2="498.3312" y2="135.0882">
		<stop  offset="0" style="stop-color:#FFC444"/>
		<stop  offset="0.9964" style="stop-color:#F36F56"/>
	</linearGradient>
	<path class="st36" d="M496.8,75.6c0,15.6-14.4,27.9-31.5,27.4c-16.5-0.5-29.4-12.7-29.4-27.3c0-14.6,12.9-26.8,29.4-27.4
		C482.4,47.8,496.8,60,496.8,75.6z"/>
	<path class="st1" d="M463.3,59.6l-4.6,8.5l-9.3,1.1c-1.3,0.2-2,1.8-1.1,2.8l6.3,7l-2.1,9.6c-0.3,1.4,1.1,2.6,2.3,2l8.8-4.2l8.5,5.2
		c1.3,0.8,2.8-0.3,2.6-1.8l-1.3-10l7.4-6.7c1.1-1,0.6-2.8-0.9-3l-9.7-1.7l-3.9-8.8C465.7,58.4,463.9,58.3,463.3,59.6z"/>
	<g class="st37">
		<linearGradient id="SVGID_34_" gradientUnits="userSpaceOnUse" x1="442.3744" y1="59.0766" x2="485.0227" y2="144.6614">
			<stop  offset="0" style="stop-color:#FFC444"/>
			<stop  offset="0.9964" style="stop-color:#F36F56"/>
		</linearGradient>
		<path class="st38" d="M472.7,96.2c-3.7-8.2,0-15.7-5-21c-5-5.3-11.5-0.3-18.4-4.6c-2.6-1.6-5.5-4.7-7.7-11.1
			c-3.7,4.5-5.9,10.1-5.9,16.2c0,14.6,12.9,26.8,29.4,27.3c3.9,0.1,7.6-0.4,11.1-1.5C474.6,99.7,473.5,97.9,472.7,96.2z"/>
	</g>
</g>
<g>
	<linearGradient id="SVGID_35_" gradientUnits="userSpaceOnUse" x1="460.2902" y1="21.3361" x2="367.2046" y2="254.0502">
		<stop  offset="0" style="stop-color:#311944"/>
		<stop  offset="1" style="stop-color:#893976"/>
	</linearGradient>
	<path class="st39" d="M446.5,133.2c0,0.8,0,1.6-0.1,2.4c0,0.3,0,0.7-0.1,1c-0.1,0.7-0.2,1.3-0.4,2c-0.1,0.3-0.2,0.7-0.3,1
		c-0.1,0.2-0.1,0.4-0.2,0.6c-1.7,5-5.1,9.4-9.6,12.6c-0.1,0.1-0.2,0.1-0.3,0.2c-1.6,1.1-3.3,2-5.1,2.9c-0.1,0-0.2,0.1-0.3,0.1
		c-0.8,0.3-1.6,0.7-2.4,1c-0.4,0.1-0.7,0.2-1.1,0.4c-0.2,0.1-0.5,0.2-0.7,0.2c-0.4,0.1-0.7,0.2-1.1,0.3c-0.2,0.1-0.5,0.1-0.7,0.2
		c-3.1,0.7-6.5,1-9.9,0.9c-0.3,0-0.5,0-0.8,0c-0.1,0-0.1,0-0.2,0c0,0,0,0-0.1,0c-0.2,0-0.3,0-0.5,0c-0.1,0-0.2,0-0.2,0
		c-0.2,0-0.3,0-0.5,0c-0.1,0-0.1,0-0.2,0c-0.2,0-0.4,0-0.5-0.1c-0.1,0-0.1,0-0.2,0c-0.2,0-0.4,0-0.6-0.1c0,0-0.1,0-0.1,0
		c-0.2,0-0.4-0.1-0.6-0.1c0,0-0.1-0.3-0.1-0.3c-0.2,0-0.5-0.4-0.7-0.4h0c-2,0-3.8-0.6-5.6-1.3c0,0,0,0.1,0,0.1
		c-0.6-0.2-1.1-0.4-1.6-0.6c-0.5-0.2-1-0.4-1.4-0.6c-0.2,0.2-0.5,0.4-0.8,0.6c-3.7-1.6-7-3.8-9.7-6.5c0.3-0.4,0.6-0.9,0.9-1.3
		c-3.8-4.4-6.1-9.8-6.1-15.5c0-13.8,13-25.3,29.7-25.8c0.5,0,0.9,0,1.5,0c16.4,0.2,30.1,11.1,30.7,25.1v0c0,0.2,0,0.4,0,0.5v0.1
		C446.4,132.9,446.5,133,446.5,133.2z"/>
	<g>
		<linearGradient id="SVGID_36_" gradientUnits="userSpaceOnUse" x1="401.8168" y1="111.4357" x2="444.6466" y2="190.8722">
			<stop  offset="0" style="stop-color:#FF9085"/>
			<stop  offset="1" style="stop-color:#FB6FBB"/>
		</linearGradient>
		<path class="st40" d="M444.5,133.1c0,14.7-14.2,26.1-31.3,25.8c-0.4,0-0.8,0-1.2,0c-0.4,0-0.7,0-1.1-0.1c-0.4,0-0.7-0.1-1.1-0.1
			c-0.1,0-0.1,0-0.2,0c-0.2,0-0.5,0-0.7-0.1c-0.2,0-0.5-0.1-0.7-0.1c-0.3,0-0.7-0.1-1-0.2c-0.2,0-0.4-0.1-0.6-0.1
			c-1.9-0.4-3.8-0.9-5.6-1.6c-0.5-0.2-1.1-0.4-1.6-0.6c-3.7-1.6-7-3.8-9.7-6.5c-4.7-4.6-7.4-10.6-7.4-16.9c0-13.8,13-25.3,29.7-25.8
			c1.3,0,2.6,0,3.9,0.1c13.6,1,24.9,9.3,27.9,20.5c0,0,0,0,0,0c0.1,0.3,0.1,0.6,0.2,0.8c0,0.1,0,0.2,0.1,0.3c0,0.2,0.1,0.5,0.1,0.7
			c0.1,0.3,0.1,0.7,0.2,1c0,0,0,0,0,0c0,0.1,0,0.3,0,0.4c0,0.2,0,0.3,0,0.5c0,0.2,0,0.4,0,0.5c0,0.1,0,0.1,0,0.2c0,0.2,0,0.4,0,0.6
			C444.4,132.7,444.5,132.9,444.5,133.1z"/>
		<linearGradient id="SVGID_37_" gradientUnits="userSpaceOnUse" x1="401.8168" y1="111.4357" x2="444.6466" y2="190.8722">
			<stop  offset="0" style="stop-color:#FF9085"/>
			<stop  offset="1" style="stop-color:#FB6FBB"/>
		</linearGradient>
		<path class="st41" d="M444.5,133.1c0,14.7-14.2,26.1-31.3,25.8c-0.4,0-0.8,0-1.2,0c-0.4,0-0.7,0-1.1-0.1c-0.4,0-0.7-0.1-1.1-0.1
			c-0.1,0-0.1,0-0.2,0c-0.2,0-0.5,0-0.7-0.1c-0.2,0-0.5-0.1-0.7-0.1c-0.3,0-0.7-0.1-1-0.2c-0.2,0-0.4-0.1-0.6-0.1
			c-1.9-0.4-3.8-0.9-5.6-1.6c-0.5-0.2-1.1-0.4-1.6-0.6c-3.7-1.6-7-3.8-9.7-6.5c-4.7-4.6-7.4-10.6-7.4-16.9c0-13.8,13-25.3,29.7-25.8
			c1.3,0,2.6,0,3.9,0.1c13.6,1,24.9,9.3,27.9,20.5c0,0,0,0,0,0c0.1,0.3,0.1,0.6,0.2,0.8c0,0.1,0,0.2,0.1,0.3c0,0.2,0.1,0.5,0.1,0.7
			c0.1,0.3,0.1,0.7,0.2,1c0,0,0,0,0,0c0,0.1,0,0.3,0,0.4c0,0.2,0,0.3,0,0.5c0,0.2,0,0.4,0,0.5c0,0.1,0,0.1,0,0.2c0,0.2,0,0.4,0,0.6
			C444.4,132.7,444.5,132.9,444.5,133.1z"/>
		<g>
			<path class="st1" d="M395,125.9c1.3-3.6,4.4-6.2,8.1-6.2c4.9-0.1,8.9,4.3,8.9,9.7c0-5.4,4.1-9.9,9.2-10c4,0,7.4,2.6,8.7,6.3
				c5.3,13.5-17.9,25.4-17.9,25.4S390.2,138.7,395,125.9z"/>
		</g>
		<g class="st42">
			
				<linearGradient id="SVGID_38_" gradientUnits="userSpaceOnUse" x1="-3756.7212" y1="115.9714" x2="-3714.7393" y2="200.219" gradientTransform="matrix(-1 0 0 1 -3320.321 0)">
				<stop  offset="0" style="stop-color:#FF9085"/>
				<stop  offset="1" style="stop-color:#FB6FBB"/>
			</linearGradient>
			<path class="st43" d="M404.5,152.1c3.7-7.5,0-14.7,4.9-19.6c5.1-5,11.9-0.3,19.4-4.5c2.9-1.6,6.2-4.8,8.7-11.3
				c4.3,4.5,6.9,10.2,6.9,16.4c0,15-14.9,26.6-32.5,25.8c-3.9-0.2-7.6-0.9-11-2.2C402.7,155.2,403.8,153.6,404.5,152.1z"/>
		</g>
	</g>
</g>
<g>
	<linearGradient id="SVGID_39_" gradientUnits="userSpaceOnUse" x1="517.8018" y1="85.3395" x2="442.8806" y2="272.6425">
		<stop  offset="0" style="stop-color:#311944"/>
		<stop  offset="1" style="stop-color:#893976"/>
	</linearGradient>
	<path class="st44" d="M506.7,175.4c0,0.7,0,1.3,0,2c0,0.3,0,0.6-0.1,0.8c-0.1,0.5-0.2,1.1-0.3,1.6c-0.1,0.3-0.1,0.5-0.2,0.8
		c-0.1,0.2-0.1,0.3-0.2,0.5c-1.3,4-4.1,7.5-7.7,10.1c-0.1,0.1-0.2,0.1-0.2,0.2c-1.3,0.9-2.6,1.6-4.1,2.3c-0.1,0-0.2,0.1-0.3,0.1
		c-0.6,0.3-1.3,0.5-2,0.8c-0.3,0.1-0.6,0.2-0.9,0.3c-0.2,0.1-0.4,0.1-0.6,0.2c-0.3,0.1-0.6,0.2-0.9,0.2c-0.2,0-0.4,0.1-0.6,0.1
		c-2.5,0.6-5.2,0.8-8,0.7c-0.2,0-0.4,0-0.6,0c-0.1,0-0.1,0-0.2,0c0,0,0,0,0,0c-0.1,0-0.3,0-0.4,0c-0.1,0-0.1,0-0.2,0
		c-0.1,0-0.3,0-0.4,0c-0.1,0-0.1,0-0.2,0c-0.1,0-0.3,0-0.4,0c-0.1,0-0.1,0-0.2,0c-0.2,0-0.3,0-0.5-0.1c0,0-0.1,0-0.1,0
		c-0.2,0-0.3,0-0.5-0.1c0,0,0-0.2-0.1-0.2c-0.2,0-0.4-0.3-0.6-0.3h0c-1.6,0-3.1-0.5-4.5-1c0,0,0,0.1,0,0.1c-0.4-0.2-0.9-0.3-1.3-0.5
		c-0.4-0.2-0.8-0.3-1.1-0.5c-0.2,0.1-0.4,0.3-0.6,0.5c-3-1.3-5.6-3.1-7.8-5.2c0.3-0.3,0.5-0.7,0.7-1.1c-3.1-3.5-4.9-7.9-4.9-12.5
		c0-11.1,10.4-20.4,23.9-20.8c0.4,0,0.8,0,1.2,0c13.2,0.2,24.3,8.9,24.7,20.2v0c0,0.1,0,0.3,0,0.4v0.1
		C506.6,175.1,506.7,175.3,506.7,175.4z"/>
	<linearGradient id="SVGID_40_" gradientUnits="userSpaceOnUse" x1="470.7387" y1="157.8573" x2="505.2108" y2="221.7928">
		<stop  offset="0" style="stop-color:#FF9085"/>
		<stop  offset="1" style="stop-color:#FB6FBB"/>
	</linearGradient>
	<path class="st45" d="M505.1,175.3c0,11.8-11.4,21-25.2,20.8c-0.3,0-0.6,0-1,0c-0.3,0-0.6,0-0.9-0.1c-0.3,0-0.6,0-0.9-0.1
		c-0.1,0-0.1,0-0.2,0c-0.2,0-0.4,0-0.6-0.1c-0.2,0-0.4,0-0.6-0.1c-0.3,0-0.5-0.1-0.8-0.1c-0.2,0-0.3-0.1-0.5-0.1
		c-1.6-0.3-3.1-0.7-4.5-1.3c-0.4-0.2-0.9-0.3-1.3-0.5c-3-1.3-5.6-3.1-7.8-5.2c-3.7-3.7-6-8.5-6-13.6c0-11.1,10.4-20.4,23.9-20.8
		c1,0,2.1,0,3.1,0.1c10.9,0.8,20.1,7.5,22.4,16.5c0,0,0,0,0,0c0.1,0.2,0.1,0.5,0.2,0.7c0,0.1,0,0.1,0,0.2c0,0.2,0.1,0.4,0.1,0.5
		c0,0.3,0.1,0.5,0.1,0.8c0,0,0,0,0,0c0,0.1,0,0.2,0,0.3c0,0.1,0,0.3,0,0.4c0,0.1,0,0.3,0,0.4c0,0,0,0.1,0,0.1c0,0.2,0,0.3,0,0.5
		C505.1,175,505.1,175.1,505.1,175.3z"/>
	<linearGradient id="SVGID_41_" gradientUnits="userSpaceOnUse" x1="470.7387" y1="157.8573" x2="505.2108" y2="221.7928">
		<stop  offset="0" style="stop-color:#AA80F9"/>
		<stop  offset="0.9964" style="stop-color:#6165D7"/>
	</linearGradient>
	<path class="st46" d="M505.1,175.3c0,11.8-11.4,21-25.2,20.8c-0.3,0-0.6,0-1,0c-0.3,0-0.6,0-0.9-0.1c-0.3,0-0.6,0-0.9-0.1
		c-0.1,0-0.1,0-0.2,0c-0.2,0-0.4,0-0.6-0.1c-0.2,0-0.4,0-0.6-0.1c-0.3,0-0.5-0.1-0.8-0.1c-0.2,0-0.3-0.1-0.5-0.1
		c-1.6-0.3-3.1-0.7-4.5-1.3c-0.4-0.2-0.9-0.3-1.3-0.5c-3-1.3-5.6-3.1-7.8-5.2c-3.7-3.7-6-8.5-6-13.6c0-11.1,10.4-20.4,23.9-20.8
		c1,0,2.1,0,3.1,0.1c10.9,0.8,20.1,7.5,22.4,16.5c0,0,0,0,0,0c0.1,0.2,0.1,0.5,0.2,0.7c0,0.1,0,0.1,0,0.2c0,0.2,0.1,0.4,0.1,0.5
		c0,0.3,0.1,0.5,0.1,0.8c0,0,0,0,0,0c0,0.1,0,0.2,0,0.3c0,0.1,0,0.3,0,0.4c0,0.1,0,0.3,0,0.4c0,0,0,0.1,0,0.1c0,0.2,0,0.3,0,0.5
		C505.1,175,505.1,175.1,505.1,175.3z"/>
	<g>
		<path class="st1" d="M474.7,187.1c0-9.7,0.4-16.8,0.7-17.6c0.1-0.2,0.2-0.4,0.3-0.8c1.6-4.4,0.4-7.2,1.8-8.2
			c0.6-0.4,1.4-0.2,2.1-0.1c3.2,0.8,5.3,5.2,4.6,8.6c-0.1,0.5-0.3,0.9-0.4,1.2c0.2,0,0.4,0,0.6,0c1.4,0.1,2.9,0,4.3,0.2
			c2.8,0.4,4.9,2.8,4.9,5.7c0,1.5,0,3.1-0.2,4.6c-0.4,2.4-1.9,4.1-3.9,5.3c-1.2,0.7-2.4,1.2-3.7,1.4c-0.8,0.1-1.4,0.1-1.7,0.1
			C480.6,187.4,475.4,187.2,474.7,187.1z"/>
		<path class="st1" d="M473,169.9c-0.2,5.8-0.4,11.5-0.6,17.2c-1.2,0-2.4-0.1-3.6-0.1c-0.6,0-0.9-0.6-0.9-1.2c0-1.1,0.1-2.2,0.1-3.3
			c0.1-3.8,0.3-7.5,0.4-11.3c0-1,0.5-1.4,1.4-1.4C470.9,169.8,471.9,169.8,473,169.9z"/>
	</g>
	<g class="st42">
		
			<linearGradient id="SVGID_42_" gradientUnits="userSpaceOnUse" x1="-3818.8945" y1="161.508" x2="-3785.1047" y2="229.3158" gradientTransform="matrix(-1 0 0 1 -3320.321 0)">
			<stop  offset="0" style="stop-color:#AA80F9"/>
			<stop  offset="0.9964" style="stop-color:#6165D7"/>
		</linearGradient>
		<path class="st47" d="M472.9,190.5c3-6.1,0-11.8,4-15.8c4.1-4.1,9.6-0.2,15.6-3.6c2.4-1.3,5-3.8,7-9.1c3.5,3.6,5.5,8.2,5.5,13.2
			c0,12.1-12,21.4-26.1,20.8c-3.1-0.1-6.1-0.8-8.8-1.8C471.4,193.1,472.3,191.8,472.9,190.5z"/>
	</g>
</g>
<g>
	<g>
		<g>
			
				<linearGradient id="SVGID_43_" gradientUnits="userSpaceOnUse" x1="-2386.6477" y1="257.2712" x2="-2388.0029" y2="260.9308" gradientTransform="matrix(1 0 0 1 2838.8535 0)">
				<stop  offset="0" style="stop-color:#444B8C"/>
				<stop  offset="0.9964" style="stop-color:#26264F"/>
			</linearGradient>
			<path class="st48" d="M453.4,272.9l-2.7-10.2c-0.1-0.4-0.4-0.7-0.8-0.9l-4.8-1.5c0,0,0,0,0,0l0,0c0,0,0,0,0,0c0,0,0,0,0,0
				c0,0,0,0,0,0c-0.2,0-0.7,0-1.1,0.4c0.3,0.2,0.5,0.2,0.7,0.1l3.4,11l5,1.5c0.1,0,0.3,0,0.4-0.1
				C453.4,273.2,453.5,273.1,453.4,272.9z"/>
			
				<linearGradient id="SVGID_44_" gradientUnits="userSpaceOnUse" x1="-2395.061" y1="266.9887" x2="-2386.238" y2="266.9887" gradientTransform="matrix(1 0 0 1 2838.8535 0)">
				<stop  offset="0" style="stop-color:#444B8C"/>
				<stop  offset="0.9964" style="stop-color:#26264F"/>
			</linearGradient>
			<path class="st49" d="M452.6,272.9l-2.7-9.9c-0.1-0.4-0.4-0.7-0.8-0.9l-4.9-1.6c-0.1,0-0.2,0-0.3,0.1c-0.1,0.1-0.1,0.2-0.1,0.3
				l3.2,10.4c0.1,0.3,0.3,0.5,0.5,0.5l4.5,1.4c0.1,0,0.3,0,0.4-0.1C452.6,273.2,452.6,273.1,452.6,272.9z"/>
		</g>
		
			<linearGradient id="SVGID_45_" gradientUnits="userSpaceOnUse" x1="-2400.1809" y1="277.0536" x2="-2360.8809" y2="277.0536" gradientTransform="matrix(1 0 0 1 2838.8535 0)">
			<stop  offset="0" style="stop-color:#AA80F9"/>
			<stop  offset="0.9964" style="stop-color:#6165D7"/>
		</linearGradient>
		<path class="st50" d="M439.2,269.2c-2,1.8,1.7,15.2,12.2,19.2c8.3,3.1,18.2-0.3,23-7.2c2.7-4,5.2-11.1,2.2-14.6
			c-0.1-0.2-1.9-2.1-4.3-1.9c-5.7,0.3-6,11-12.1,12.3c-1.4,0.3-1.9-0.2-13.9-5.4C440.5,269,439.7,268.7,439.2,269.2z"/>
		
			<linearGradient id="SVGID_46_" gradientUnits="userSpaceOnUse" x1="-2371.8699" y1="391.9101" x2="-2366.1943" y2="435.6374" gradientTransform="matrix(1 0 0 1 2838.8535 0)">
			<stop  offset="0" style="stop-color:#FFC444"/>
			<stop  offset="0.9964" style="stop-color:#F36F56"/>
		</linearGradient>
		<path class="st51" d="M454.7,274.5c0,0,0.5-2-0.7-2.9c-1.2-0.9-1.7-3.3-1.9-2.4s0,1.9,0,1.9s-4.4-3.8-4.3-2.5
			c0.1,1.3,3.2,5.7,5.2,6.6C455,276,454.7,276.2,454.7,274.5z"/>
		
			<linearGradient id="SVGID_47_" gradientUnits="userSpaceOnUse" x1="-2384.8884" y1="393.6004" x2="-2379.2129" y2="437.3277" gradientTransform="matrix(1 0 0 1 2838.8535 0)">
			<stop  offset="0" style="stop-color:#FFC444"/>
			<stop  offset="0.9964" style="stop-color:#F36F56"/>
		</linearGradient>
		<path class="st52" d="M439.8,269.3c0,0-0.1-2.8-1.5-3.5c-1.5-0.6-3.1-3.9-3-2.2c0.1,1.7,1.6,2.4,1.6,2.4s-2.4,0.9-1.4,2.2
			c1.1,1.3,2.2,1.6,3.5,2.2c0,0,0.3,1,1.2,0.9S440.2,269.8,439.8,269.3z"/>
		<g>
			
				<linearGradient id="SVGID_48_" gradientUnits="userSpaceOnUse" x1="-2354.9702" y1="269.1953" x2="-2323.9482" y2="293.989" gradientTransform="matrix(1 0 0 1 2838.8535 0)">
				<stop  offset="0" style="stop-color:#311944"/>
				<stop  offset="1" style="stop-color:#893976"/>
			</linearGradient>
			<path class="st53" d="M490.9,304.2c8.1,3.9,15.8,2.7,21.2,1.9c6.1-0.9,12-1.8,14.3-6.3c2.3-4.5,0.2-11-3.4-14.5
				c-4.2-4.1-8.4-2.1-11.4-6.1c-3-4.1,0.5-7.5-2.2-12.1c-3.4-5.8-10.7-3.3-14.3-9.2c-2.9-4.8,0.7-8.8-2.3-11.9
				c-4.1-4.3-15.9-2-17.8,3.1c-0.7,2,0.4,3.4,1.2,6.2c2.6,8.8-2.8,13.8-3.3,21.9C472.3,288,480.9,299.4,490.9,304.2z"/>
			
				<linearGradient id="SVGID_49_" gradientUnits="userSpaceOnUse" x1="-2354.9397" y1="388.2561" x2="-2340.8857" y2="404.8651" gradientTransform="matrix(1 0 0 1 2838.8535 0)">
				<stop  offset="0" style="stop-color:#444B8C"/>
				<stop  offset="0.9964" style="stop-color:#3E4177"/>
			</linearGradient>
			<path class="st54" d="M496.4,396.4c0,0-8.1,1-8.4,2.9c-0.4,2.1,9,0.3,9,0.3S498.4,399,496.4,396.4z"/>
			<linearGradient id="SVGID_50_" gradientUnits="userSpaceOnUse" x1="493.0087" y1="394.5995" x2="496.0439" y2="394.5995">
				<stop  offset="0" style="stop-color:#FFC444"/>
				<stop  offset="0.9964" style="stop-color:#F36F56"/>
			</linearGradient>
			<path class="st55" d="M495.8,392l0.2,4.5c0,0-1,1.3-2.1,0.3L493,392H495.8z"/>
			
				<linearGradient id="SVGID_51_" gradientUnits="userSpaceOnUse" x1="-2363.7292" y1="395.6935" x2="-2349.6755" y2="412.3025" gradientTransform="matrix(1 0 0 1 2838.8535 0)">
				<stop  offset="0" style="stop-color:#444B8C"/>
				<stop  offset="0.9964" style="stop-color:#3E4177"/>
			</linearGradient>
			<path class="st56" d="M483.1,398.6c0,0-8.1,1-8.4,2.9c-0.4,2.1,9,0.3,9,0.3S485.2,401.2,483.1,398.6z"/>
			<linearGradient id="SVGID_52_" gradientUnits="userSpaceOnUse" x1="479.7828" y1="396.7941" x2="482.8181" y2="396.7941">
				<stop  offset="0" style="stop-color:#FFC444"/>
				<stop  offset="0.9964" style="stop-color:#F36F56"/>
			</linearGradient>
			<path class="st57" d="M482.6,394.2l0.2,4.5c0,0-1,1.3-2.1,0.3l-0.9-4.9H482.6z"/>
			
				<linearGradient id="SVGID_53_" gradientUnits="userSpaceOnUse" x1="-2367.1824" y1="354.7192" x2="-2340.5217" y2="354.7192" gradientTransform="matrix(1 0 0 1 2838.8535 0)">
				<stop  offset="0" style="stop-color:#444B8C"/>
				<stop  offset="0.9964" style="stop-color:#3E4177"/>
			</linearGradient>
			<path class="st58" d="M471.7,319.5c0.4,6.6,1.5,16,4.3,27.1c1,4,2,7.3,4.4,14.3c2.8,8.3,6.6,19.6,11.7,33.2
				c1.5,0.2,2.9,0.4,4.4,0.7c3-11.1,2.2-19.8-1-26.7c-1.8-4.1-2.9-4.1-4.8-8.7c-2-4.9-2.8-9.8-2.3-26.3c0.1-4.7,0.4-10.9,1-18.3
				C483.4,316.3,477.5,317.9,471.7,319.5z"/>
			
				<linearGradient id="SVGID_54_" gradientUnits="userSpaceOnUse" x1="-2367.1824" y1="354.7192" x2="-2341.1577" y2="354.7192" gradientTransform="matrix(1 0 0 1 2838.8535 0)">
				<stop  offset="0" style="stop-color:#444B8C"/>
				<stop  offset="0.9964" style="stop-color:#3E4177"/>
			</linearGradient>
			<path class="st59" d="M471.7,319.5c0.4,6.6,1.5,16,4.3,27.1c1,4,2,7.3,4.4,14.3c2.8,8.3,6.6,19.6,11.7,33.2
				c1.5,0.2,2.9,0.4,4.4,0.7c2.6-10.3,0.7-15.8-1.7-18.8c-1.5-1.9-3.3-3.1-4.6-6.4c-1.6-3.8-0.5-5.6-1.3-10.1
				c-1.1-6.1-3.7-6.1-4.6-10.9c-1.1-5.6,2-8.3,4.1-15.6c1.2-4.1,2.2-10.2,1-18.3C483.4,316.3,477.5,317.9,471.7,319.5z"/>
			
				<linearGradient id="SVGID_55_" gradientUnits="userSpaceOnUse" x1="-2371.3884" y1="356.043" x2="-2340.2861" y2="356.043" gradientTransform="matrix(1 0 0 1 2838.8535 0)">
				<stop  offset="0" style="stop-color:#444B8C"/>
				<stop  offset="0.9964" style="stop-color:#3E4177"/>
			</linearGradient>
			<path class="st60" d="M481.8,318.4c-3.7,4.7-14.1,19-14.4,39.8c-0.3,19.4,8.4,33.3,11.8,38.3c1.4-0.1,2.9-0.3,4.3-0.4
				c0.4-4.1,0.5-10.3-0.7-17.6c-1.9-10.9-4.9-12.1-4.4-18.3c0.6-7.8,5.5-9.1,13.2-23.2c4.1-7.6,9.1-16.8,5.9-20.1
				C496.9,316.2,493.9,313.6,481.8,318.4z"/>
			
				<linearGradient id="SVGID_56_" gradientUnits="userSpaceOnUse" x1="-2374.2322" y1="295.079" x2="-2321.3735" y2="295.079" gradientTransform="matrix(1 0 0 1 2838.8535 0)">
				<stop  offset="0" style="stop-color:#AA80F9"/>
				<stop  offset="0.9964" style="stop-color:#6165D7"/>
			</linearGradient>
			<path class="st61" d="M478.1,261.4c-5.2,0.9-8.3,4.5-9.2,5.5c-1.1,1.3-4.2,5.4-4.3,15.9c-0.1,10.1,2.8,11.2,3.7,20.8
				c1.3,14.1-4.1,20.7-0.4,23.9c3.2,2.7,7.1-2.1,18-1.6c8.9,0.4,10.7,3.9,18.4,3c1.2-0.1,11.4-1.4,13-6.8c1.1-3.7-3-6.2-8.5-15.2
				c-5.3-8.6-7.9-16.7-9.2-20.7c-3.9-12.1-2.3-15.4-6.7-19.8C492.3,265.9,486.1,259.9,478.1,261.4z"/>
			
				<linearGradient id="SVGID_57_" gradientUnits="userSpaceOnUse" x1="-2366.8193" y1="264.1727" x2="-2353.2847" y2="256.8663" gradientTransform="matrix(1 0 0 1 2838.8535 0)">
				<stop  offset="0" style="stop-color:#FFC444"/>
				<stop  offset="0.9964" style="stop-color:#F36F56"/>
			</linearGradient>
			<path class="st62" d="M483.3,251.8c0,0-1.1,7.4,3,11.3c0.3,0.3,0.2,0.8-0.2,0.8c-1.9,0.4-6.2,1-10.5-0.4
				c-0.4-0.1-0.5-0.6-0.1-0.9c0.9-0.7,2.4-2.1,3.2-3.7c1.2-2.4,1.4-6.5,1.4-6.5L483.3,251.8z"/>
			<g class="st37">
				
					<linearGradient id="SVGID_58_" gradientUnits="userSpaceOnUse" x1="-2374.2322" y1="295.7554" x2="-2321.3735" y2="295.7554" gradientTransform="matrix(1 0 0 1 2838.8535 0)">
					<stop  offset="0" style="stop-color:#AA80F9"/>
					<stop  offset="0.9964" style="stop-color:#6165D7"/>
				</linearGradient>
				<path class="st63" d="M508.8,306.9c-5.3-8.6-7.9-16.7-9.2-20.7c-3.9-12.1-2.3-15.4-6.7-19.8c-0.3-0.3-2.1-2-4.8-3.4
					c0.7,2.4,1.2,5.2,0.8,8.2c-1.4,10.3-11.3,13.9-10.1,20.2c1.2,5.8,10,5.6,11.3,11.9c1.3,6.4-7.2,10.7-5.5,15.2
					c1.7,4.4,10.3,2.1,18.8,7.3c1.3,0.8,2.5,1.7,3.5,2.7c3.5-0.7,9.3-2.4,10.5-6.4C518.4,318.4,514.3,315.9,508.8,306.9z"/>
			</g>
			<linearGradient id="SVGID_59_" gradientUnits="userSpaceOnUse" x1="482.0734" y1="245.9603" x2="478.5907" y2="277.1756">
				<stop  offset="0" style="stop-color:#FFC444"/>
				<stop  offset="0.9964" style="stop-color:#F36F56"/>
			</linearGradient>
			<path class="st64" d="M483.5,254.4c0,0-1.8,2.5-4.7,1.5c-2.6-0.9-1-7.6,1-8.3c0.7-0.3,1.9-0.1,2.8,0.4c0.6,0.4,2.1,2.3,1.3,4.5
				c0.6-0.2,1.2,0,1.4,0.3c0.2,0.4-0.4,1-0.5,1.1C484.2,254.3,483.7,254.4,483.5,254.4z"/>
			<linearGradient id="SVGID_60_" gradientUnits="userSpaceOnUse" x1="472.9608" y1="281.9718" x2="451.6829" y2="338.5334">
				<stop  offset="0" style="stop-color:#AA80F9"/>
				<stop  offset="0.9964" style="stop-color:#6165D7"/>
			</linearGradient>
			<path class="st65" d="M451.7,274.6c1-0.4,1.9-0.7,2.9-1.1c0.6,1,4.4,7.7,11.4,8.7c6.7,1,13-3.6,15.9-8c2.8-4.2,2.2-7.9,4.8-8.7
				c2.6-0.8,5.8,2.1,7.4,4.1c3.6,4.7,3.5,11.7,1.3,16.7c-3.6,8.2-13.4,12.3-21.8,11.5c-12.9-1.3-18.9-14.3-19.9-16.7
				C452.5,278.5,452,276.3,451.7,274.6z"/>
		</g>
	</g>
</g>
<g>
	
		<linearGradient id="SVGID_61_" gradientUnits="userSpaceOnUse" x1="359.8829" y1="239.2089" x2="384.953" y2="296.9099" gradientTransform="matrix(1 0 0 1 42 0)">
		<stop  offset="0" style="stop-color:#FF9085"/>
		<stop  offset="1" style="stop-color:#FB6FBB"/>
	</linearGradient>
	<path class="st66" d="M419.9,265.3c0,0,37.9,31.5,12.8,38.6c0,0-11.8,3.8-19,0c0.3-7.5,2.4-9.9,2.4-9.9s7.5-1.1,4.8-5
		c-2.7-4-6.5-9.5-6.5-9.5L419.9,265.3z"/>
	
		<linearGradient id="SVGID_62_" gradientUnits="userSpaceOnUse" x1="295.905" y1="207.6482" x2="310.6082" y2="241.4889" gradientTransform="matrix(1 0 0 1 42 0)">
		<stop  offset="0" style="stop-color:#FFC444"/>
		<stop  offset="0.9964" style="stop-color:#F36F56"/>
	</linearGradient>
	<path class="st67" d="M349,231.3c0,0-1.5-8.1-3.1-10.5c-1.5-2.4-4.4-4-4.4-4s-0.6,1,1.3,3.1c1.9,2.1,0.3,2.3,0,3
		c-0.3,0.7,0.4,3.1,1.7,3.9c1.4,0.9,1.9,5.5,1.9,5.5L349,231.3z"/>
	
		<linearGradient id="SVGID_63_" gradientUnits="userSpaceOnUse" x1="320.8911" y1="231.7085" x2="352.9487" y2="305.4919" gradientTransform="matrix(1 0 0 1 42 0)">
		<stop  offset="0" style="stop-color:#FF9085"/>
		<stop  offset="1" style="stop-color:#FB6FBB"/>
	</linearGradient>
	<path class="st68" d="M344.5,230.3c1.7-0.3,3.3-0.6,5-0.9c5.9,11,12.9,18.1,17.7,22.2c5.6,4.9,9.2,8,15.2,9.6
		c8.8,2.3,16.4-0.4,17.4,2.1c0.5,1.2-1.2,2.5-3.9,5.7c-7.8,9.3-7.1,14.3-11.3,15.7c-3.5,1.1-7.1-1.3-13.2-5.6
		c-5.5-3.9-12.4-8.8-18.2-18.2C345.3,248.3,344.5,235.9,344.5,230.3z"/>
	
		<linearGradient id="SVGID_64_" gradientUnits="userSpaceOnUse" x1="2788.5796" y1="827.2641" x2="2793.6301" y2="831.7567" gradientTransform="matrix(0.9902 -0.14 0.14 0.9902 -2455.9326 -23.4311)">
		<stop  offset="0" style="stop-color:#444B8C"/>
		<stop  offset="0.9964" style="stop-color:#26264F"/>
	</linearGradient>
	<path class="st69" d="M422.6,407.6c0.1-0.8,2.7-1.5,4-0.4c0.6,0.5,1.1,1.6,0.7,2.1c-0.1,0.2,0.4,0.5-0.1,0.5
		C425.4,409.7,422.4,408.4,422.6,407.6z"/>
	
		<linearGradient id="SVGID_65_" gradientUnits="userSpaceOnUse" x1="1868.179" y1="831.7443" x2="1868.179" y2="822.9456" gradientTransform="matrix(0.9902 -0.14 0.14 0.9902 -1539.7316 -152.9471)">
		<stop  offset="0" style="stop-color:#FFC444"/>
		<stop  offset="0.9964" style="stop-color:#F36F56"/>
	</linearGradient>
	<path class="st70" d="M425.2,407.9l2.6-0.4c-1.2-1.5-1-6.1-1-6.1l-2.8,0.6c0,0,0.3,1.3,0.9,3.2
		C425.1,405.8,425.2,406.8,425.2,407.9z"/>
	
		<linearGradient id="SVGID_66_" gradientUnits="userSpaceOnUse" x1="2789.0874" y1="826.6934" x2="2794.1379" y2="831.1859" gradientTransform="matrix(0.9902 -0.14 0.14 0.9902 -2455.9326 -23.4311)">
		<stop  offset="0" style="stop-color:#444B8C"/>
		<stop  offset="0.9964" style="stop-color:#26264F"/>
	</linearGradient>
	<path class="st71" d="M425,407.6c0,0,3.2-0.7,3.5-0.1c0.3,0.6,0.6,2.3-1.4,2.3C425.1,409.7,424.8,408.1,425,407.6z"/>
	
		<linearGradient id="SVGID_67_" gradientUnits="userSpaceOnUse" x1="2952.4666" y1="408.1172" x2="2957.5176" y2="412.61" gradientTransform="matrix(1 0 0 1 -2567.0793 0)">
		<stop  offset="0" style="stop-color:#444B8C"/>
		<stop  offset="0.9964" style="stop-color:#26264F"/>
	</linearGradient>
	<path class="st72" d="M386.5,410.6c0.3-0.8,2.9-1.1,4,0.1c0.5,0.6,0.8,1.7,0.4,2.2c-0.2,0.2,0.3,0.5-0.2,0.5
		C389,413.1,386.2,411.3,386.5,410.6z"/>
	
		<linearGradient id="SVGID_68_" gradientUnits="userSpaceOnUse" x1="2032.0217" y1="412.619" x2="2032.0217" y2="403.8199" gradientTransform="matrix(1 0 0 1 -1641.7692 0)">
		<stop  offset="0" style="stop-color:#FFC444"/>
		<stop  offset="0.9964" style="stop-color:#F36F56"/>
	</linearGradient>
	<path class="st73" d="M389.1,411.2h2.7c-1-1.6-0.1-6.2-0.1-6.2l-2.9,0.2c0,0,0.1,1.3,0.4,3.3C389.3,409.2,389.2,410.2,389.1,411.2z
		"/>
	
		<linearGradient id="SVGID_69_" gradientUnits="userSpaceOnUse" x1="-11543.1699" y1="416.6539" x2="-11576.1055" y2="283.6782" gradientTransform="matrix(-1 0 0 1 -11153.332 0)">
		<stop  offset="0" style="stop-color:#444B8C"/>
		<stop  offset="0.9964" style="stop-color:#26264F"/>
	</linearGradient>
	<path class="st74" d="M382.2,310.8c-1.2,4.1-3,10.6-4.1,18.8c-3.2,23.5,3.6,24.2,2.4,50.2c-0.4,8.3,7.2,27.4,7.9,27.9
		c0.3,0,0.7,0.1,1.1,0c0.7,0,1.6-0.1,2.7-0.4c1.2-0.2,5.5-12,4.5-19c-0.7-4.9-0.5-10.3-0.1-20.9c0.1-1.7,4.5-33.5,4.5-33.5
		c1.3,11.8,2.9,21.7,4.2,29.5c4.3,24.9,18.2,39.9,19,40.2c0.1,0.1,1.5,0.5,2.5-0.2c0.5-0.3,0.6-0.7,0.6-0.7
		c0.4-0.3-0.1-24.8-4.4-43.3c-6.2-26.8-3.5-33.1-5.4-45.1C415.8,304.1,382.2,310.8,382.2,310.8z"/>
	
		<linearGradient id="SVGID_70_" gradientUnits="userSpaceOnUse" x1="330.1144" y1="223.9957" x2="365.4276" y2="305.2723" gradientTransform="matrix(1 0 0 1 42 0)">
		<stop  offset="0" style="stop-color:#FF9085"/>
		<stop  offset="1" style="stop-color:#FB6FBB"/>
	</linearGradient>
	<path class="st75" d="M420.8,285.5c-1.3,5-1.3,4.5-2.9,10.8c-1.1,4.4-3.4,9.2-0.5,18.1c-2.9,1.5-7.1,3.3-12.3,4
		c-11.4,1.7-20.9-1.7-24.6-3.6c-0.4-1.9-0.8-4.2-1.1-7.6c-0.2-3.5-0.3-8.2,0.2-14.6c0.2-2.2,0.7-7.3,2.4-13.3c1-3.4,2-5.7,3.1-7.6
		c1.5-2.7,3.2-4.7,3.7-5.3c0.5-0.6-0.5-1.2-0.5-1.3c5.2-4.7,14.6-3.2,18.7-3.1c3,0.1,8.2,0.2,12.2,2.8c0.9,0.6,1.7,1.3,2.5,2.1
		C423.3,268.8,422.9,277.2,420.8,285.5z"/>
	
		<linearGradient id="SVGID_71_" gradientUnits="userSpaceOnUse" x1="2952.9744" y1="407.5465" x2="2958.0251" y2="412.0392" gradientTransform="matrix(1 0 0 1 -2567.0793 0)">
		<stop  offset="0" style="stop-color:#444B8C"/>
		<stop  offset="0.9964" style="stop-color:#26264F"/>
	</linearGradient>
	<path class="st76" d="M388.9,410.9c0,0,3.2-0.3,3.5,0.4c0.3,0.7,0.3,2.4-1.7,2C388.7,413,388.7,411.4,388.9,410.9z"/>
	<g>
		
			<linearGradient id="SVGID_72_" gradientUnits="userSpaceOnUse" x1="2469.2007" y1="-68.5336" x2="2436.54" y2="-36.2949" gradientTransform="matrix(-0.9208 -0.3901 -0.3901 0.9208 2712.1323 1443.8917)">
			<stop  offset="0" style="stop-color:#FFC444"/>
			<stop  offset="0.9964" style="stop-color:#F36F56"/>
		</linearGradient>
		<path class="st77" d="M408.2,258.4c2-1.5,2.4-4,2.5-4.5c0.4-2.3,0.3-2.6,0.1-3.2l-0.3-0.8c0,0,0,0,0-0.1c-0.3-0.4-1.5-1.4-1.8-1.6
			c-0.9-0.5-4.4,2.2-7.7,7c-0.2,0.2-0.3,0.3-0.5,0.5c-0.7,0.6-5,5.6-5.9,5.9c-6.1,1.7-8.3,1.5-6.9,2.7c1.6,1.5,20.9,0.3,21-0.9
			c0.1-0.5-1.8-1-3.5-1.5c-1.8-0.5-2-2.3-1.5-3.1C404.2,258.9,406.7,259.5,408.2,258.4z"/>
		<path class="st78" d="M413.3,249.9c-1.1,1.4-3,2.4-3.5,2.4c-0.1,0-0.5,0-1,0.2c-0.1,0-0.1,0.1-0.2,0.1c-1,0.7-0.4,2.8-1,3
			c-0.4,0.1-1.1-1-1.4-0.9c-0.3,0.2,0.1,1.3-0.2,1.5c-0.3,0.1-0.6-0.4-1.2-0.4c-0.3,0-0.3,0.2-0.9,0.6c-0.3,0.2-0.7,0.4-0.9,0.5
			c-1.2,0.5-2.8-0.3-2.8-0.9c0-0.2,0.1-0.2,0.3-0.6c0,0,0.2-0.3,0.2-0.8c0.1-0.7-0.3-1.6-0.7-2.7c-0.6-2-0.3-3.1-0.2-3.4
			c0-0.1,0.1-0.2,0.1-0.3c0.5-1.3,1.7-2.9,2.9-3.5c2-1,3.3,1.2,6,0.7c3.1-0.5,4.1-3.8,5.2-3.4C415.2,242.7,415.3,247.2,413.3,249.9z
			"/>
		
			<linearGradient id="SVGID_73_" gradientUnits="userSpaceOnUse" x1="2463.9421" y1="-73.8616" x2="2431.2815" y2="-41.6229" gradientTransform="matrix(-0.9208 -0.3901 -0.3901 0.9208 2712.1323 1443.8917)">
			<stop  offset="0" style="stop-color:#FFC444"/>
			<stop  offset="0.9964" style="stop-color:#F36F56"/>
		</linearGradient>
		<path class="st79" d="M407.3,254.9c0-0.8-0.9-0.8-1.4-0.2c-0.5,0.6-0.4,1.7,0.3,2.1C406.8,257.1,407.3,255.9,407.3,254.9z"/>
	</g>
	
		<linearGradient id="SVGID_74_" gradientUnits="userSpaceOnUse" x1="338.9552" y1="244.3436" x2="366.5216" y2="307.7901" gradientTransform="matrix(1 0 0 1 42 0)">
		<stop  offset="0" style="stop-color:#FF9085"/>
		<stop  offset="1" style="stop-color:#FB6FBB"/>
	</linearGradient>
	<path class="st80" d="M420.8,285.5c-1.3,5-1.3,4.5-2.9,10.8c-1.1,4.4-3.4,9.2-0.5,18.1c-2.9,1.5-7.1,3.3-12.3,4
		c-11.4,1.7-20.9-1.7-24.6-3.6c-0.4-1.9-0.8-4.2-1.1-7.6c7.9-3.7,21.5-1.5,21.5-4.4c0-4.2-3.5-9.9,7.6-13.9c11.1-4,10.7-24,10.7-24
		c0.9,0.6,1.7,1.3,2.5,2.1C423.3,268.8,422.9,277.2,420.8,285.5z"/>
</g>
<g>
	<g>
		<g>
			<linearGradient id="SVGID_75_" gradientUnits="userSpaceOnUse" x1="122.7434" y1="367.0843" x2="188.0403" y2="243.1309">
				<stop  offset="0" style="stop-color:#A737D5"/>
				<stop  offset="1" style="stop-color:#EF497A"/>
			</linearGradient>
			<path class="st81" d="M179.5,314.1c0.6,15.8-11.7,29-27.8,29.5c-16.2,0.5-29.9-12.2-30.6-28.3c-0.6-16.1,12.1-29.3,28.3-29.5
				C165.5,285.6,178.9,298.3,179.5,314.1z"/>
			<path class="st82" d="M176,314.2c0.6,13.9-10.3,25.5-24.4,25.8c-14.2,0.4-26.2-10.7-26.8-24.8c-0.6-14.1,10.6-25.7,24.8-25.9
				C163.7,289.2,175.5,300.3,176,314.2z"/>
		</g>
	</g>
	<g>
		<path class="st1" d="M158.7,304c0,4.5-3.7,9.4-8.2,9.4c-4.5,0-8.2-4.9-8.2-9.4c0-4.5,3.7-7.8,8.2-7.8
			C155,296.3,158.7,299.5,158.7,304z"/>
		<path class="st1" d="M140.2,330.9h20.1c2.1,0,4-1.4,4.6-3.4l1.1-3.4c0.8-2.5-0.5-5.1-2.9-6c-8.2-3-16.6-2.6-25.3,0.3
			c-2.4,0.8-3.8,3.4-3.1,5.9l0.8,3.1C136.1,329.5,138.1,330.9,140.2,330.9z"/>
	</g>
</g>
<g>
	<g>
		<g>
			<g>
				<linearGradient id="SVGID_76_" gradientUnits="userSpaceOnUse" x1="156.5874" y1="336.6943" x2="165.4048" y2="430.9716">
					<stop  offset="0" style="stop-color:#53D8FF"/>
					<stop  offset="1" style="stop-color:#3840F7"/>
				</linearGradient>
				<path class="st83" d="M185.4,382.4c0.5,13.3-9.9,24.4-23.3,24.8c-13.6,0.4-25.2-10.3-25.7-23.8c-0.5-13.5,10.2-24.6,23.8-24.8
					C173.7,358.5,184.9,369.1,185.4,382.4z"/>
				<path class="st84" d="M182.5,382.5c0.5,11.7-8.7,21.4-20.5,21.7c-11.9,0.3-22.1-9-22.5-20.9c-0.5-11.9,8.9-21.6,20.9-21.7
					C172.1,361.5,182,370.8,182.5,382.5z"/>
			</g>
		</g>
	</g>
	<g>
		<path class="st1" d="M152.6,397.4l1.1-8.4l-3.5,0v-4.3l4.2,0.1l0.7-5.2l-3.7-0.1V375l4.3,0.1l1.1-8.1l3.8,0.1l-1.1,8.1l3.9,0.1
			l1.1-8.1l3.8,0.1l-1.1,8.1l3.4,0.1v4.3l-3.9-0.1l-0.7,5.2l3.5,0.1v4.3l-4.1-0.1l-1.1,8.3l-3.8,0l1.1-8.4l-3.9,0l-1.1,8.4
			L152.6,397.4z M162.1,384.8l0.7-5.2l-3.9-0.1l-0.7,5.2L162.1,384.8z"/>
	</g>
</g>
<g>
	<g>
		<g>
			<linearGradient id="SVGID_77_" gradientUnits="userSpaceOnUse" x1="79.5876" y1="403.6362" x2="130.0306" y2="307.88">
				<stop  offset="0" style="stop-color:#FDF53F"/>
				<stop  offset="1" style="stop-color:#D93C65"/>
			</linearGradient>
			<path class="st85" d="M123.5,362.7c0.5,12.2-9.1,22.4-21.4,22.8c-12.5,0.4-23.1-9.4-23.6-21.9c-0.5-12.4,9.3-22.6,21.9-22.8
				C112.6,340.7,123,350.5,123.5,362.7z"/>
			<path class="st86" d="M120.7,362.8c0.4,10.7-8,19.7-18.8,20c-11,0.3-20.3-8.3-20.7-19.2c-0.4-10.9,8.2-19.8,19.2-20
				C111.2,343.4,120.3,352,120.7,362.8z"/>
		</g>
	</g>
	<path class="st1" d="M110.9,355.6c-2.6-2.6-6.7-1.8-9.6,0.6c-0.4,0.3-1,0.3-1.4,0c-2.9-2.3-7-3-9.6-0.4c-2.8,2.9-2.8,7.5,0.1,10.3
		l9.6,9.4c0.4,0.4,1.1,0.4,1.6,0l9.4-9.6C113.8,363,113.8,358.4,110.9,355.6z"/>
</g>
</svg>
