<?xml version="1.0" encoding="utf-8"?>
<!-- Generator: Adobe Illustrator 22.0.1, SVG Export Plug-In . SVG Version: 6.00 Build 0)  -->
<svg version="1.1" id="Слой_1" xmlns="http://www.w3.org/2000/svg" xmlns:xlink="http://www.w3.org/1999/xlink" x="0px" y="0px" width="647" height="432"
	 viewBox="0 0 647.8 432" style="enable-background:new 0 0 647.8 432;" xml:space="preserve">
<style type="text/css">
	.st0{fill:url(#SVGID_1_);}
	.st1{fill:url(#SVGID_2_);}
	.st2{fill:url(#SVGID_3_);}
	.st3{fill:url(#SVGID_4_);}
	.st4{fill:url(#SVGID_5_);}
	.st5{fill:url(#SVGID_6_);}
	.st6{fill:url(#SVGID_7_);}
	.st7{fill:url(#SVGID_8_);}
	.st8{fill:url(#SVGID_9_);}
	.st9{fill:url(#SVGID_10_);}
	.st10{fill:url(#SVGID_11_);}
	.st11{fill:url(#SVGID_12_);}
	.st12{fill:url(#SVGID_13_);}
	.st13{fill:url(#SVGID_14_);}
	.st14{fill:url(#SVGID_15_);}
	.st15{fill:url(#SVGID_16_);}
	.st16{fill:url(#SVGID_17_);}
	.st17{fill:url(#SVGID_18_);}
	.st18{fill:url(#SVGID_19_);}
	.st19{fill:url(#SVGID_20_);}
	.st20{fill:url(#SVGID_21_);}
	.st21{fill:url(#SVGID_22_);}
	.st22{fill:url(#SVGID_23_);}
	.st23{fill:url(#SVGID_24_);}
	.st24{fill:url(#SVGID_25_);}
	.st25{fill:url(#SVGID_26_);}
	.st26{fill:url(#SVGID_27_);}
	.st27{fill:#FF7759;}
	.st28{fill:#FF6A59;}
	.st29{fill:url(#SVGID_28_);}
	.st30{fill:url(#SVGID_29_);}
	.st31{fill:url(#SVGID_30_);}
	.st32{opacity:0.95;fill:url(#SVGID_31_);}
	.st33{fill:#FF5458;}
	.st34{fill:url(#SVGID_32_);}
	.st35{fill:#38D2E0;}
	.st36{fill:#EEA886;}
	.st37{fill:#DB9C7C;}
	.st38{fill:#323657;}
	.st39{fill:#424773;}
	.st40{fill:#292C47;}
	.st41{fill:#E2D2CA;}
	.st42{fill:#EFAA88;}
	.st43{fill:#CF8C6C;}
	.st44{fill:#EB4747;}
	.st45{fill:#23344A;}
	.st46{fill:#9E4CC7;}
	.st47{fill:#3F74A0;}
	.st48{fill:#5B83C2;}
	.st49{fill:#AD3434;}
	.st50{fill:#B06E2A;}
	.st51{fill:#223247;}
	.st52{fill:#FAA146;}
	.st53{fill:#5B2C73;}
	.st54{fill:#F0DDD5;}
	.st55{fill:#A77860;}
	.st56{fill:#FF4D4D;}
	.st57{fill:#C43B3B;}
	.st58{fill:#EEECF0;}
	.st59{fill:#78C2FF;}
	.st60{fill:#E6E6E6;}
</style>
<g>
	<linearGradient id="SVGID_1_" gradientUnits="userSpaceOnUse" x1="112.5717" y1="213.1541" x2="450.5631" y2="213.1541">
		<stop  offset="0" style="stop-color:#A246C4"/>
		<stop  offset="1" style="stop-color:#5EAFFF"/>
	</linearGradient>
	<rect x="133.1" y="67.6" class="st0" width="302.4" height="291.1"/>
	<g>
		<linearGradient id="SVGID_2_" gradientUnits="userSpaceOnUse" x1="453.4258" y1="240.3042" x2="511.1134" y2="240.3042">
			<stop  offset="5.181350e-03" style="stop-color:#595959"/>
			<stop  offset="1" style="stop-color:#FFFFFF"/>
		</linearGradient>
		<path class="st1" d="M507.8,252.4c0,0-16.4-45.1-54.4-33.3c0,0,32,5.1,48.5,32C518.3,278,507.8,252.4,507.8,252.4z"/>
		<linearGradient id="SVGID_3_" gradientUnits="userSpaceOnUse" x1="498.056" y1="240.3042" x2="555.7432" y2="240.3042">
			<stop  offset="5.181350e-03" style="stop-color:#595959"/>
			<stop  offset="1" style="stop-color:#FFFFFF"/>
		</linearGradient>
		<path class="st2" d="M501.4,252.4c0,0,16.4-45.1,54.4-33.3c0,0-32,5.1-48.5,32C490.9,278,501.4,252.4,501.4,252.4z"/>
		<linearGradient id="SVGID_4_" gradientUnits="userSpaceOnUse" x1="541.3555" y1="237.0138" x2="573.1856" y2="237.0138">
			<stop  offset="5.181350e-03" style="stop-color:#B3B3B3"/>
			<stop  offset="1" style="stop-color:#FFFFFF"/>
		</linearGradient>
		<path class="st3" d="M541.4,217.2c0,0,25.8-2.7,1,38l13.4,1.6C555.7,256.9,603.3,215.2,541.4,217.2z"/>
		<linearGradient id="SVGID_5_" gradientUnits="userSpaceOnUse" x1="495.7724" y1="250.0279" x2="512.3262" y2="250.0279">
			<stop  offset="5.181350e-03" style="stop-color:#B3B3B3"/>
			<stop  offset="1" style="stop-color:#FFFFFF"/>
		</linearGradient>
		<path class="st4" d="M512.3,252.6l-4.5,2l-1.2,0.5c0,0-17.8-5-7.8-9.3c2.4-1,4.4-1.2,6.1-0.8C510.3,246.2,512.3,252.6,512.3,252.6
			z"/>
		<linearGradient id="SVGID_6_" gradientUnits="userSpaceOnUse" x1="495.7724" y1="250.0279" x2="507.8155" y2="250.0279">
			<stop  offset="5.181350e-03" style="stop-color:#595959"/>
			<stop  offset="1" style="stop-color:#FFFFFF"/>
		</linearGradient>
		<path class="st5" d="M507.8,254.6l-1.2,0.5c0,0-17.8-5-7.8-9.3c2.4-1,4.4-1.2,6.1-0.8c0,0,0,0,0,0
			C505,245.1,497.1,247.8,507.8,254.6z"/>
		<linearGradient id="SVGID_7_" gradientUnits="userSpaceOnUse" x1="502.7026" y1="381.494" x2="502.7026" y2="288.755">
			<stop  offset="0" style="stop-color:#40D5E6"/>
			<stop  offset="1" style="stop-color:#5577FF"/>
		</linearGradient>
		<rect x="433.5" y="250" class="st6" width="138.3" height="108.7"/>
		<linearGradient id="SVGID_8_" gradientUnits="userSpaceOnUse" x1="428.6231" y1="266.3611" x2="576.7803" y2="266.3611">
			<stop  offset="0" style="stop-color:#40D5E6"/>
			<stop  offset="1" style="stop-color:#5577FF"/>
		</linearGradient>
		<rect x="428.6" y="250" class="st7" width="148.2" height="32.6"/>
		<linearGradient id="SVGID_9_" gradientUnits="userSpaceOnUse" x1="525.2145" y1="304.3812" x2="478.7054" y2="304.3812">
			<stop  offset="5.181350e-03" style="stop-color:#B3B3B3"/>
			<stop  offset="1" style="stop-color:#FFFFFF"/>
		</linearGradient>
		<rect x="487.8" y="250" class="st8" width="29.8" height="108.7"/>
	</g>
	<g>
		<linearGradient id="SVGID_10_" gradientUnits="userSpaceOnUse" x1="568.0832" y1="277.6134" x2="591.0547" y2="277.6134">
			<stop  offset="0" style="stop-color:#1F3073"/>
			<stop  offset="1" style="stop-color:#4E6CDE"/>
		</linearGradient>
		<path class="st9" d="M591.1,286.3c0,0-12-4.4-18.7-9.3c-2-1.5-3.5-3-4-4.4c-0.5-1.3-0.3-2.5,0.9-3.6c0,0,0.8-0.3,2.8,0.5
			c3,1.3,8.8,5.1,18.6,16.4C590.8,286,590.9,286.2,591.1,286.3z"/>
		<linearGradient id="SVGID_11_" gradientUnits="userSpaceOnUse" x1="556.8381" y1="280.422" x2="591.0547" y2="280.422">
			<stop  offset="0" style="stop-color:#7C3596"/>
			<stop  offset="1" style="stop-color:#3098FF"/>
		</linearGradient>
		<path class="st10" d="M591.1,286.3l-0.7,3.4c0,0-24,6-31.7-1.8c-0.1-0.1-0.2-0.2-0.3-0.3c-0.7-0.8-1.1-1.6-1.3-2.4
			c-2.2-7.4,12.2-16.1,12.2-16.1c-0.3,0.4-0.2,1,0.2,1.7c0.4,0.7,1.1,1.5,2,2.3C577.1,278.3,591.1,286.3,591.1,286.3z"/>
		<linearGradient id="SVGID_12_" gradientUnits="userSpaceOnUse" x1="553.1491" y1="288.9645" x2="574.6454" y2="267.9662">
			<stop  offset="0" style="stop-color:#354996"/>
			<stop  offset="1" style="stop-color:#4E6CDE"/>
		</linearGradient>
		<path class="st11" d="M571.4,273c0,0-4.9,2-6.4,5.2c-1.5,3.2-2.3,5.9-4.4,6.9c-1,0.5-1.7,1.4-2.2,2.4c-0.7-0.8-1.1-1.6-1.3-2.4
			c0.2-1.3,0.6-2.7,1.7-3.9c3.1-3.6,6.2-6.3,6.6-7.6c0.3-1,2.9-2.3,4.1-2.9C569.8,271.3,570.5,272.1,571.4,273L571.4,273z"/>
		<linearGradient id="SVGID_13_" gradientUnits="userSpaceOnUse" x1="598.377" y1="277.6134" x2="621.3502" y2="277.6134">
			<stop  offset="0" style="stop-color:#1F3073"/>
			<stop  offset="1" style="stop-color:#4E6CDE"/>
		</linearGradient>
		<path class="st12" d="M598.4,286.3c0,0,12-4.4,18.7-9.3c2-1.5,3.5-3,4-4.4c0.5-1.3,0.3-2.5-0.9-3.6c0,0-0.8-0.3-2.8,0.5
			c-3,1.3-8.8,5.1-18.6,16.4C598.6,286,598.5,286.2,598.4,286.3z"/>
		<linearGradient id="SVGID_14_" gradientUnits="userSpaceOnUse" x1="598.377" y1="280.422" x2="632.5952" y2="280.422">
			<stop  offset="0" style="stop-color:#7C3596"/>
			<stop  offset="1" style="stop-color:#3098FF"/>
		</linearGradient>
		<path class="st13" d="M598.4,286.3l0.7,3.4c0,0,24,6,31.7-1.8c0.1-0.1,0.2-0.2,0.3-0.3c0.7-0.8,1.1-1.6,1.3-2.4
			c2.2-7.4-12.2-16.1-12.2-16.1c0.3,0.4,0.2,1-0.2,1.7c-0.4,0.7-1.1,1.5-2,2.3C612.4,278.3,598.4,286.3,598.4,286.3z"/>
		<linearGradient id="SVGID_15_" gradientUnits="userSpaceOnUse" x1="594.6685" y1="288.4929" x2="594.1703" y2="282.4055">
			<stop  offset="0" style="stop-color:#354996"/>
			<stop  offset="1" style="stop-color:#4E6CDE"/>
		</linearGradient>
		<path class="st14" d="M590.1,286.3c0,0,1.1-1.3,1.9-0.8c0.8,0.5,1.9-1,3.1-0.4c1.2,0.6,1.3-1,2.8-0.1c1.5,0.9,2.3,3.8,1.2,5.2
			c-1.1,1.5-1.7-0.3-2.2,0c-0.5,0.3-1.5,1.6-3.2,0.6c-1.7-1-4.1,0.9-3.9-0.3C590,289.3,589.4,288.7,590.1,286.3z"/>
		<linearGradient id="SVGID_16_" gradientUnits="userSpaceOnUse" x1="594.7158" y1="344.8929" x2="594.7158" y2="294.8988">
			<stop  offset="0" style="stop-color:#FFC05C"/>
			<stop  offset="1" style="stop-color:#FF3857"/>
		</linearGradient>
		<rect x="550.7" y="289.5" class="st15" width="88.1" height="69.2"/>
		<linearGradient id="SVGID_17_" gradientUnits="userSpaceOnUse" x1="594.7159" y1="317.6676" x2="594.7159" y2="262.5386">
			<stop  offset="0" style="stop-color:#FFC05C"/>
			<stop  offset="1" style="stop-color:#FF3857"/>
		</linearGradient>
		<rect x="547.6" y="289.5" class="st16" width="94.3" height="24"/>
		<linearGradient id="SVGID_18_" gradientUnits="userSpaceOnUse" x1="594.7158" y1="360.9402" x2="594.7158" y2="265.3197">
			<stop  offset="0" style="stop-color:#7C3596"/>
			<stop  offset="1" style="stop-color:#3098FF"/>
		</linearGradient>
		<rect x="585.2" y="289.5" class="st17" width="18.9" height="69.2"/>
	</g>
	<g>
		<linearGradient id="SVGID_19_" gradientUnits="userSpaceOnUse" x1="39.4108" y1="120.0764" x2="126.3202" y2="120.0764">
			<stop  offset="0" style="stop-color:#40D5E6"/>
			<stop  offset="1" style="stop-color:#5577FF"/>
		</linearGradient>
		<path class="st18" d="M82,169.4c15.2,10.6,30.2,17.7,38.2,13.4c0.5-0.3,0.9-0.6,1.3-0.9c4.6-3.6,6.2-12.1,3.1-27.5
			c-8.2-40.9-33.9-47.4-57.9-59.7c-23.7-12.1-14.7-38-14.4-38.6C19.6,114.1,56.2,151.4,82,169.4z"/>
		<g>
			
				<linearGradient id="SVGID_20_" gradientUnits="userSpaceOnUse" x1="-5856.1274" y1="2266.3643" x2="-5856.1274" y2="2182.3962" gradientTransform="matrix(-0.7847 0.6199 0.6199 0.7847 -5871.3154 2044.3596)">
				<stop  offset="0" style="stop-color:#40D5E6"/>
				<stop  offset="1" style="stop-color:#5577FF"/>
			</linearGradient>
			<path class="st19" d="M120.3,182.8c0.5-0.3,0.9-0.6,1.3-0.9c-3-8-9.7-23.3-18.8-31.7c-4.3-3.9-9.3-7.5-14.6-11.2
				c-10-7.1-20.3-14.5-27.3-25.3l-1.3,0.8c7.2,11.1,17.6,18.5,27.7,25.7c5.2,3.7,10.2,7.3,14.4,11.1
				C110.6,159.5,117.3,175,120.3,182.8z"/>
		</g>
	</g>
	<g>
		<linearGradient id="SVGID_21_" gradientUnits="userSpaceOnUse" x1="5.3067" y1="192.5489" x2="156.1348" y2="192.5489">
			<stop  offset="0" style="stop-color:#40D5E6"/>
			<stop  offset="1" style="stop-color:#5577FF"/>
		</linearGradient>
		<path class="st20" d="M37.3,211.2c21,3.4,34.6-13.2,58.8,17.4c20.9,26.4,50.5-2.8,58.1-11.3c1.2-1.3,1.9-2.2,1.9-2.2
			s-0.5,0.1-1.3,0.3c-5.2,1.1-25.1,4.4-29.8-10.8c-5.4-17.5-20.9-41.2-41.3-34.9c-20.4,6.3-24.8-9.1-39.9-20.7
			c-15.1-11.6-38.5,9.8-38.5,9.8S16.3,207.7,37.3,211.2z"/>
		<g>
			
				<linearGradient id="SVGID_22_" gradientUnits="userSpaceOnUse" x1="-3141.3499" y1="1979.5908" x2="-3141.3499" y2="1876.1083" gradientTransform="matrix(-0.5585 0.8295 0.8295 0.5585 -3248.3137 1730.4866)">
				<stop  offset="0" style="stop-color:#40D5E6"/>
				<stop  offset="1" style="stop-color:#5577FF"/>
			</linearGradient>
			<path class="st21" d="M103.2,205.4c4,6.9,8.1,14.1,17.5,18.1c12.8,5.4,25.8-0.9,33.6-6.1c1.2-1.3,1.9-2.2,1.9-2.2
				s-0.5,0.1-1.3,0.3c-7.3,5.2-20.7,12.4-33.7,6.9c-9-3.8-13-10.8-16.9-17.6c-4.5-7.8-9.2-15.9-21.4-18.7
				c-5.4-1.2-10.2-0.8-14.9-0.5c-6.7,0.6-13,1.1-19.9-3.7l-0.7,1c7.3,5,13.8,4.5,20.7,3.9c4.6-0.4,9.3-0.8,14.5,0.4
				C94.3,189.9,98.6,197.5,103.2,205.4z"/>
		</g>
	</g>
	<g>
		
			<linearGradient id="SVGID_23_" gradientUnits="userSpaceOnUse" x1="3878.7896" y1="-5659.3877" x2="3923.5005" y2="-5723.5767" gradientTransform="matrix(0.7071 0.7071 -0.7071 0.7071 -6350.7275 1368.4747)">
			<stop  offset="0" style="stop-color:#40D5E6"/>
			<stop  offset="1" style="stop-color:#5577FF"/>
		</linearGradient>
		<path class="st22" d="M429.2,113.4c2.3,41.6,35.2,39.5,37.8,39.3c0.1,0,0.2,0,0.2,0c-0.7-0.8-1.4-1.7-2-2.5
			c-16.5-22.9,2.3-54.2,2-77.2c-0.3-23.9-21.6-29.1-21.6-29.1C461.2,57,426.8,70.1,429.2,113.4z"/>
		<g>
			
				<linearGradient id="SVGID_24_" gradientUnits="userSpaceOnUse" x1="-11960.5957" y1="-667.3395" x2="-11915.8857" y2="-731.5264" gradientTransform="matrix(-0.9932 -0.1166 -0.1166 0.9932 -11895.4805 -1356.8865)">
				<stop  offset="0" style="stop-color:#40D5E6"/>
				<stop  offset="1" style="stop-color:#5577FF"/>
			</linearGradient>
			<path class="st23" d="M448.5,134.3c4.5,8,11.5,14,18.5,18.3c0.1,0,0.2,0,0.2,0c-0.7-0.8-1.4-1.7-2-2.5c-6-4.1-11.8-9.5-15.7-16.3
				c-5-8.8-5.8-18.6-2.5-29c10.4-33,4.5-38.3,4.3-38.5l-0.4,0.5l-0.4,0.4c0,0,0,0,0,0c0.3,0.3,5.2,6.2-4.6,37.3
				C442.5,115.1,443.4,125.2,448.5,134.3z"/>
		</g>
	</g>
	<g>
		<linearGradient id="SVGID_25_" gradientUnits="userSpaceOnUse" x1="470.1356" y1="181.5092" x2="517.3134" y2="-13.5003">
			<stop  offset="0" style="stop-color:#40D5E6"/>
			<stop  offset="1" style="stop-color:#5577FF"/>
		</linearGradient>
		<path class="st24" d="M495.6,154.9c-13.1,16.2-27,28.5-37,26.3c-0.6-0.1-1.2-0.3-1.7-0.5c-6.1-2.5-10.4-11.1-11.9-28.6
			c-3.9-46.5,21.7-61.5,43.8-82.2c21.8-20.4,14.4-45.4,13.9-46C556,76.1,517.8,127.5,495.6,154.9z"/>
		<g>
			<linearGradient id="SVGID_26_" gradientUnits="userSpaceOnUse" x1="443.4205" y1="171.2352" x2="529.6928" y2="84.9629">
				<stop  offset="0" style="stop-color:#40D5E6"/>
				<stop  offset="1" style="stop-color:#5577FF"/>
			</linearGradient>
			<path class="st25" d="M458.6,181.2c-0.6-0.1-1.2-0.3-1.7-0.5c0.8-9.5,3.2-28.1,10.4-39.9c3.4-5.6,7.7-10.9,12.2-16.6
				c8.5-10.7,17.4-21.9,21.5-35.7l1.7,0.5c-4.2,14.2-13.2,25.4-21.8,36.3c-4.5,5.6-8.7,11-12.1,16.4
				C461.8,153.2,459.4,171.9,458.6,181.2z"/>
		</g>
	</g>
	<linearGradient id="SVGID_27_" gradientUnits="userSpaceOnUse" x1="92.5684" y1="228.3792" x2="476.0176" y2="228.3792">
		<stop  offset="0" style="stop-color:#FFC05C"/>
		<stop  offset="1" style="stop-color:#FF3857"/>
	</linearGradient>
	<path class="st26" d="M456.5,347.4H112.1c-10.8,0-19.5-8.7-19.5-19.5v-199c0-10.8,8.7-19.5,19.5-19.5h344.4
		c10.8,0,19.5,8.7,19.5,19.5v199C476,338.7,467.3,347.4,456.5,347.4z"/>
	<g>
		<path class="st27" d="M410.5,191.4c-17.4,0-31.6-14.2-31.6-31.6c0-17.4,14.2-31.6,31.6-31.6c17.4,0,31.6,14.2,31.6,31.6
			C442,177.2,427.9,191.4,410.5,191.4z M410.5,132.9c-14.8,0-26.9,12.1-26.9,26.9c0,14.8,12.1,26.9,26.9,26.9
			c14.8,0,26.9-12.1,26.9-26.9C437.4,145,425.3,132.9,410.5,132.9z"/>
	</g>
	<g>
		<path class="st28" d="M135.5,293c-1.7,0-3.3-0.3-4.8-0.9c-1.5-0.6-2.8-1.4-3.9-2.4c-1.1-1-2-2.2-2.6-3.6c-0.6-1.4-1-2.8-1-4.4
			c0-1.5,0.3-3,1-4.4c0.6-1.4,1.5-2.6,2.6-3.6c1.1-1,2.4-1.8,3.9-2.4c1.5-0.6,3.1-0.9,4.8-0.9c1.7,0,3.3,0.3,4.8,0.9
			c1.5,0.6,2.8,1.4,3.9,2.4c1.1,1,2,2.2,2.6,3.6c0.6,1.4,1,2.8,1,4.4c0,1.6-0.3,3.1-1,4.4c-0.6,1.4-1.5,2.5-2.6,3.6
			c-1.1,1-2.4,1.8-3.9,2.4C138.8,292.7,137.2,293,135.5,293z M127.4,320.4l20.9-24.4l19.3-25.4l4.5,4l-20.3,24l-20,25.8L127.4,320.4
			z M135.5,288c0.7,0,1.4-0.2,2-0.5c0.6-0.3,1.2-0.8,1.7-1.4c0.5-0.6,0.9-1.2,1.2-2c0.3-0.8,0.4-1.6,0.4-2.4c0-1.7-0.5-3.2-1.6-4.4
			c-1-1.2-2.3-1.8-3.7-1.8c-0.7,0-1.4,0.2-2,0.5c-0.6,0.3-1.2,0.8-1.7,1.4c-0.5,0.6-0.9,1.2-1.2,2c-0.3,0.7-0.4,1.5-0.4,2.4
			c0,1.7,0.5,3.2,1.6,4.5C132.8,287.4,134.1,288,135.5,288z M164.2,324.7c-1.7,0-3.3-0.3-4.8-0.9c-1.5-0.6-2.8-1.4-3.9-2.4
			c-1.1-1-2-2.2-2.6-3.5c-0.6-1.4-1-2.8-1-4.4c0-1.6,0.3-3.1,1-4.4c0.6-1.4,1.5-2.5,2.6-3.6c1.1-1,2.4-1.8,3.9-2.4
			c1.5-0.6,3.1-0.9,4.8-0.9c1.7,0,3.3,0.3,4.8,0.9c1.5,0.6,2.8,1.4,3.9,2.4c1.1,1,2,2.2,2.6,3.6c0.6,1.4,0.9,2.8,0.9,4.4
			c0,1.6-0.3,3.1-0.9,4.4c-0.6,1.4-1.5,2.5-2.6,3.5c-1.1,1-2.4,1.8-3.9,2.4C167.5,324.4,165.9,324.7,164.2,324.7z M164.2,319.7
			c0.7,0,1.4-0.2,2-0.5c0.6-0.3,1.2-0.8,1.7-1.4c0.5-0.6,0.9-1.2,1.2-2c0.3-0.7,0.4-1.5,0.4-2.4c0-0.9-0.1-1.7-0.4-2.5
			c-0.3-0.8-0.7-1.4-1.2-2c-0.5-0.6-1-1-1.7-1.3c-0.6-0.3-1.3-0.5-2-0.5c-0.7,0-1.4,0.2-2,0.5c-0.6,0.3-1.2,0.8-1.7,1.4
			c-0.5,0.6-0.9,1.2-1.2,2c-0.3,0.8-0.4,1.6-0.4,2.4c0,1.7,0.5,3.2,1.6,4.4C161.5,319.1,162.7,319.7,164.2,319.7z"/>
	</g>
	<linearGradient id="SVGID_28_" gradientUnits="userSpaceOnUse" x1="36.7941" y1="147.4823" x2="361.5567" y2="147.4823">
		<stop  offset="0" style="stop-color:#FFC05C"/>
		<stop  offset="1" style="stop-color:#FF3857"/>
	</linearGradient>
	<rect x="115" y="140.2" class="st29" width="203.4" height="14.6"/>
	<linearGradient id="SVGID_29_" gradientUnits="userSpaceOnUse" x1="36.7941" y1="130.1214" x2="361.5567" y2="130.1214">
		<stop  offset="0" style="stop-color:#FFC05C"/>
		<stop  offset="1" style="stop-color:#FF3857"/>
	</linearGradient>
	<rect x="115" y="128.2" class="st30" width="203.4" height="3.8"/>
	<linearGradient id="SVGID_30_" gradientUnits="userSpaceOnUse" x1="36.7942" y1="170.0872" x2="361.5571" y2="170.0872">
		<stop  offset="0" style="stop-color:#FFC05C"/>
		<stop  offset="1" style="stop-color:#FF3857"/>
	</linearGradient>
	<rect x="115" y="162.8" class="st31" width="104" height="14.6"/>
	<linearGradient id="SVGID_31_" gradientUnits="userSpaceOnUse" x1="432.3257" y1="269.5389" x2="149.4536" y2="269.5389">
		<stop  offset="0" style="stop-color:#EDF4FF"/>
		<stop  offset="1" style="stop-color:#EDFFFE"/>
	</linearGradient>
	<path class="st32" d="M349,369H219.6c-8.2,0-14.9-6.7-14.9-14.9V185c0-8.2,6.7-14.9,14.9-14.9H349c8.2,0,14.9,6.7,14.9,14.9v169.1
		C363.9,362.3,357.2,369,349,369z"/>
	<g>
		<path class="st33" d="M324.6,334.6c-9.7,0-17.5-7.9-17.5-17.5c0-9.7,7.9-17.5,17.5-17.5c9.7,0,17.5,7.9,17.5,17.5
			C342.1,326.8,334.3,334.6,324.6,334.6z M324.6,302.9c-7.8,0-14.1,6.3-14.1,14.1c0,7.8,6.3,14.1,14.1,14.1
			c7.8,0,14.1-6.3,14.1-14.1C338.7,309.3,332.4,302.9,324.6,302.9z"/>
	</g>
	<g>
		<polygon class="st33" points="323.5,324 315.5,316 317.9,313.6 323.5,319.2 331.3,311.4 333.7,313.8 		"/>
	</g>
	<g>
		<rect x="373.3" y="309.4" class="st27" width="5.1" height="23.5"/>
		<rect x="380.8" y="309.4" class="st27" width="2.5" height="23.5"/>
		<rect x="385.8" y="309.4" class="st27" width="4.6" height="23.5"/>
		<rect x="393" y="309.4" class="st27" width="2.8" height="23.5"/>
		<rect x="397.7" y="309.5" class="st27" width="1.3" height="23.5"/>
		<rect x="400.9" y="309.4" class="st27" width="4.4" height="23.5"/>
		<rect x="407.1" y="309.4" class="st27" width="3.4" height="23.5"/>
		<rect x="412.1" y="309.4" class="st27" width="1.7" height="23.5"/>
		<rect x="415.7" y="309.4" class="st27" width="4.8" height="23.5"/>
		<rect x="421.7" y="309.4" class="st27" width="3.6" height="23.5"/>
		<rect x="426.8" y="309.4" class="st27" width="1.8" height="23.5"/>
		<rect x="430" y="309.4" class="st27" width="2.5" height="23.5"/>
		<rect x="434.2" y="309.5" class="st27" width="7.8" height="23.5"/>
	</g>
	<linearGradient id="SVGID_32_" gradientUnits="userSpaceOnUse" x1="284.294" y1="97.4303" x2="284.294" y2="48.9032">
		<stop  offset="0" style="stop-color:#7C3596"/>
		<stop  offset="1" style="stop-color:#3098FF"/>
	</linearGradient>
	<path class="st34" d="M123.9,48.9V92c0,0,8.6,12.2,18.9,0h18.9c0,0,8.6,12.2,18.9,0h18.9c0,0,8.6,12.2,18.9,0h18.9
		c0,0,8.6,12.2,18.9,0h18.9c0,0,8.6,12.2,18.9,0h18.9c0,0,8.6,12.2,18.9,0h18.9c0,0,8.6,12.2,18.9,0H388c0,0,8.6,12.2,18.9,0h18.9
		c0,0,8.6,12.2,18.9,0V48.9H123.9z"/>
	<g>
		<path class="st35" d="M142.8,92c0,0,8.6,12.2,18.9,0V48.9h-18.9V92z"/>
		<path class="st35" d="M180.5,92c0,0,8.6,12.2,18.9,0V48.9h-18.9V92z"/>
		<path class="st35" d="M218.3,92c0,0,8.6,12.2,18.9,0V48.9h-18.9V92z"/>
		<path class="st35" d="M256,92c0,0,8.6,12.2,18.9,0V48.9H256V92z"/>
		<path class="st35" d="M293.7,92c0,0,8.6,12.2,18.9,0V48.9h-18.9V92z"/>
		<path class="st35" d="M331.5,92c0,0,8.6,12.2,18.9,0V48.9h-18.9V92z"/>
		<path class="st35" d="M369.2,92c0,0,8.6,12.2,18.9,0V48.9h-18.9V92z"/>
		<path class="st35" d="M406.9,48.9V92c0,0,8.6,12.2,18.9,0V48.9H406.9z"/>
	</g>
	<path class="st33" d="M314,199.7l-2.7,11.7h-68.1v2.7l9.8,45.5v1.3h5.6l1.4,5.9h2c-1.9,0.7-3.3,2.5-3.3,4.7c0,2.7,2.2,5,5,5
		c2.7,0,5-2.2,5-5c0-2.1-1.4-4-3.3-4.7h28c-1.9,0.7-3.3,2.5-3.3,4.7c0,2.7,2.2,5,5,5c2.7,0,5-2.2,5-5c0-2.1-1.4-4-3.3-4.7h2.2v-2.1
		h-37.4l-0.9-3.8H303v-1.3l8-37.2l4.7-20.5h28.6v-2.1H314z M266.6,271.4c0,1.6-1.3,2.9-2.9,2.9c-1.6,0-2.9-1.3-2.9-2.9
		c0-1.6,1.3-2.9,2.9-2.9C265.3,268.5,266.6,269.8,266.6,271.4z M298,271.4c0,1.6-1.3,2.9-2.9,2.9c-1.6,0-2.9-1.3-2.9-2.9
		c0-1.6,1.3-2.9,2.9-2.9C296.7,268.5,298,269.8,298,271.4z M269.1,229.6h17.8l-0.9,13h-16L269.1,229.6z M267.7,242.6h-15.9l-2.8-13
		h17.8L267.7,242.6z M287.1,227h-18.2l-0.9-13H288L287.1,227z M290.4,214h20l-2.8,13h-18.2L290.4,214z M285.8,245.3l-0.9,13h-13.7
		l-0.9-13H285.8z M288.1,245.3h15.5l-2.8,13h-13.7L288.1,245.3z M304.2,242.6h-15.9l0.9-13H307l-2.7,12.7L304.2,242.6z M265.6,214
		l0.9,13h-18.2l-2.8-13H265.6z M252.3,245.3h15.5l0.9,13h-13.7L252.3,245.3z"/>
	<rect x="276.3" y="346.4" class="st33" width="16" height="2"/>
	<rect x="276.3" y="181.4" class="st33" width="16" height="2"/>
	<rect x="228.3" y="308.1" class="st33" width="39.4" height="5.3"/>
	<rect x="228.3" y="320.8" class="st33" width="58.4" height="5.3"/>
	<rect x="380.8" y="222.6" class="st28" width="61.2" height="20.1"/>
	<rect x="380.8" y="248.3" class="st28" width="61.2" height="12"/>
	<g>
		<g>
			<g>
				<g>
					<path class="st36" d="M408.6,313.2c0,0-0.8,1.3-0.9,2.4c-0.1,0.8-0.8,2.1-1.1,2.8c-0.3,0.7-1.3,3.9-1.3,4.7
						c0,0.3,0.7,2.5,0.6,3.1c-0.1,0.7-0.5,2,0.1,2.1c0.6,0.1,1.3-1,1.3-1s-0.1,0.6,0.5,0.9c1,0.5,1.5,0.1,1.5,0.1s0.4,0.7,0.8,0.8
						c1,0.2,1.5-0.2,1.5-0.2s0.5,0.4,1.2,0.4c0.9,0,1.3-0.8,1.3-0.8s1.1,0.2,1.5-0.3c0.3-0.5,0.3-1.1,0.4-1.6c0.1-0.5,0-4.9-1.5-8
						c-1.5-3.2,0.4-6.2,0.4-6.2L408.6,313.2z"/>
				</g>
			</g>
		</g>
		<g>
			<g>
				<path class="st37" d="M407.1,326.9c0,0-0.1-3.9,0.9-4.8c1-0.8,1.2,0.6,1.2,0.6s-0.1-1.4,1-1.6c1.1-0.2,1.2,1.5,1.2,1.5
					s0.2-1.1,1.4-0.9c1.2,0.2,0.9,1.6,0.9,1.6s1.1-1.4,1.9-0.1c1.2,2.2,0,4.8,0,4.8s-0.4,0.6-1.5,0.3c0,0-0.8,1.5-2.5,0.4
					c0,0-1.7,1-2.4-0.6C409.3,328.2,407.4,329.1,407.1,326.9z"/>
			</g>
		</g>
		<path class="st38" d="M395.2,256.4c0,0,6.7,22.5,9,30.7c0.7,2.6,2.4,27.4,2.7,28.4c0.3,1,8.9,2.4,8.9,2.4s-1-31-1.1-32.7
			c-0.1-1.7-9.4-36.4-12.1-37.6c-2-0.9-3.1-0.2-5.7,1.7C393.3,252.1,395.2,256.4,395.2,256.4z"/>
		<g>
			<g>
				<path class="st39" d="M400.7,409.8c0,0,0.6,4.3,0.7,4.9c0.1,0.6,6.8-0.4,6.8-0.4l0.5-5.1C408.8,409.3,401.5,409.2,400.7,409.8z"
					/>
			</g>
		</g>
		<g>
			<g>
				<path class="st40" d="M401.3,414.2c0,0-2.1,2.6-4.2,3.7c-2.1,1.1-5.3,1.6-6.5,2.7c-0.9,0.8-3.2,4.4,5.4,4.4
					c8.6-0.1,12.7,0.5,13.7-0.9c0.9-1.4-1.3-10.2-1.3-10.2S406.2,414.6,401.3,414.2z"/>
			</g>
		</g>
		<g>
			<g>
				<path class="st39" d="M352.3,409.8c0,0,0.6,4.3,0.7,4.9c0.1,0.6,6.8-0.4,6.8-0.4l0.5-5.1C360.3,409.3,353.1,409.2,352.3,409.8z"
					/>
			</g>
		</g>
		<g>
			<g>
				<path class="st40" d="M352.9,414.2c0,0-2.1,2.6-4.2,3.7c-2.1,1.1-9.7,2-10.9,3.2c-0.9,0.8-2.4,4.2,9.7,3.9
					c8.6-0.2,12.7,0.5,13.7-0.9c0.9-1.4-1.3-10.2-1.3-10.2S357.9,414.7,352.9,414.2z"/>
			</g>
		</g>
		<g>
			<g>
				<path class="st40" d="M395.1,300.2c0,0,6.3,10.1,5.9,19.2c-0.5,9.1,2.3,19.1,3.3,28.6c1.1,10.6,5.4,35.8,5.6,41.4
					c0.2,5.7-0.7,23.8-0.7,23.8l-8.7,0.2c0,0-7.3-43.9-9.2-48.4c-1.9-4.5-11.3-36.5-11.6-40C379.3,321.4,395.1,300.2,395.1,300.2z"
					/>
			</g>
		</g>
		<g>
			<g>
				<path class="st40" d="M361.7,301.6c0,0-4.8,25-5.4,30.6c-0.6,5.6-1.1,27-1.4,30.5c-0.3,3.5-3,45.5-3.8,50.8h11.1
					c0,0,8.5-30.6,8.5-45.1c0-14.5,6.6-31.5,10.9-41.1c4.3-9.6,14-9.8,16.6-27.5C398.3,299.7,365.2,296,361.7,301.6z"/>
			</g>
		</g>
		<g>
			<g>
				<path class="st36" d="M384.5,215.4c0,0-8.5-3.2-12.5,3.3c-3.9,6.5-3.6,19.5,0.7,21.1c4.3,1.6,10.7,0.8,12.9-3.3
					c2.2-4.1,4.2-9.9,4.1-13.8C389.7,218.7,386.7,216.6,384.5,215.4z"/>
			</g>
		</g>
		<g>
			<g>
				<path class="st36" d="M373.7,240.1c0,0,0.4,2.3-0.2,3.4c-0.6,1.1,11,1.2,11,1.2s0.9-6.2,2.7-11.4
					C389,228.1,373.7,240.1,373.7,240.1z"/>
			</g>
		</g>
		<g>
			<g>
				<path class="st38" d="M387.3,233.3c0,0-0.8,1.3-4.1,0.8c-3.3-0.5-7.3-4.9-8.6-5.4c-1.4-0.5-1.4-1.3-1.4-1.3l-0.9,1.3l-1.5,0.1
					c0,0,1.3-3.9-0.7-5.5c-2-1.6,2.1-12.6,12.6-8.9c0,0,8.1,2.2,7.8,6.8C390.2,225.8,389.1,231,387.3,233.3z"/>
			</g>
		</g>
		<g>
			<g>
				<path class="st41" d="M372.8,243.4c0,0,0-2.2,1-2.4c1-0.2,10.8-1.2,12-0.7v2.5C385.8,242.9,383.5,244.3,372.8,243.4z"/>
			</g>
		</g>
		<g>
			<g>
				<path class="st36" d="M373.4,225.8c0.2-0.8,2.1-3,2.9-0.6c0.8,2.4-1.1,5.5-2.2,5.3C373,230.2,372.9,227.8,373.4,225.8z"/>
			</g>
		</g>
		<g>
			<g>
				<path class="st38" d="M333.7,269C333.7,269,333.7,269,333.7,269C333.6,269,333.6,269,333.7,269z"/>
			</g>
		</g>
		<g>
			<g>
				<path class="st38" d="M386.9,216.2c0,0,10.9,0.9,0.3,17.1L386.9,216.2z"/>
			</g>
		</g>
		<path class="st42" d="M312.9,219.5c0.3-1.1,1.5-1.4,1.5-1.4c0.5-0.7,1.7-1.1,1.7-1.1c0-0.1,0-0.1,0.1-0.1c-0.8-0.8-3-2.4-3.1-2.7
			c-0.2-0.4-0.1-0.4,0.3-0.6c0.4-0.2,4,2.2,5.2,3c0.3,0.2,0.5,0.4,0.6,0.4c0.3,0.3,1,0.5,1.6,1.1c0.1,0.1,0.1,0.1,0.2,0.2
			c0.6,0.8,2,7,2,7l-2.5,1.1l-2.5,2.1c0,0-2.9-2.4-3.6-3.1c-0.7-0.7-1.1-1.6-1.3-2c0-0.1-0.1-0.2-0.2-0.4c-0.3-0.5-0.8-1.1-0.8-1.1
			c-0.3-0.4-0.4-1.2-0.4-1.2C311.7,220,312.9,219.5,312.9,219.5z"/>
		<g>
			<g>
				<path class="st38" d="M356.5,246.7c6.8-0.9,16.3-3.3,16.3-3.3l13.1-0.5c0,0,12,2.6,16.7,4.8c0.4,0.2,0.4,10.7,1.7,13.4l-3.9,8.3
					c0,0-2.3,16.4-2.7,23.6c-0.2,3.3,4.7,31.3,4.7,31.3s-5.2,1.5-14.1,2.5c-8.9,1-31.2-0.4-31.3-1.4c-0.1-1.1,4.3-39.2,4.5-41.2
					c0.3-3-1-19.1-1-19.1c-2.1-1.6-20.1-10-25.1-14.4c-1.3-1.2-6.9-6.6-8.5-8.5c-5.6-6.6-10.2-12.3-10.8-13.5
					c-0.6-0.7,6.1-4.4,6.7-4.6c0.5-0.2,8.1,9.6,11,12.8c1.3,1.4,6.7,5.3,6.7,5.3S352.3,246.9,356.5,246.7z"/>
			</g>
		</g>
	</g>
	<g>
		<g>
			<path class="st36" d="M145,241.5c0,0,1.6-2.9,1.8-3.4c0.3-0.4,1.5-1.1,3.1-1.7c1.5-0.6,3.9-0.7,4.1-0.5c0.2,0.2,0.5,0.2,0.8,0.9
				c0.2,0.7,0,1.4,0,1.4s0.6,0.7,0.4,1.6c0,0,0.7,0.6,0.2,1.6c0,0,0.7,0.7,0.3,1.3c0,0-1.3,0.6-1.7,1c-0.4,0.4-3.2,1.5-6,2.2
				C148,245.9,145.1,245.6,145,241.5z"/>
		</g>
		<g>
			<path class="st43" d="M149.6,240.3c0,0-0.2,1.7-0.4,2.1c-0.3,0.4,3.2,1.9,3.2,1.9S151.6,240.5,149.6,240.3z"/>
		</g>
		<g>
			<g>
				<polygon class="st44" points="189.5,283.2 147.8,288.6 140.7,250.4 184.3,243 				"/>
			</g>
		</g>
		<g>
			<g>
				<path class="st45" d="M168.4,246.7c-0.1-4-1.6-8.8-4.7-11.4c-2.3-1.9-5.1-2.3-8-1.8c-6.8,1.1-7.2,8.2-5.8,13.1L168.4,246.7z
					 M150.5,245.8c-1.2-5.3-0.1-10.5,5.3-11.4c2.6-0.4,5.2-0.1,7.3,1.6c2.7,2.2,4,6.3,4.3,9.8L150.5,245.8z"/>
			</g>
		</g>
		<g>
			<g>
				<path class="st45" d="M170,246.7c-0.1-4-1.9-8.8-5-11.4c-2.3-1.9-5.1-2.3-8-1.8c-6.8,1.1-6,8.2-4.6,13.1L170,246.7z
					 M153.1,245.8c-1.2-5.3-1.4-10.5,4.1-11.4c2.6-0.4,5.2-0.1,7.3,1.6c2.7,2.2,4.6,6.3,4.9,9.8L153.1,245.8z"/>
			</g>
		</g>
		<g>
			<g>
				<polygon class="st46" points="183,289.3 134.4,285.5 138.3,246.1 183.5,244.8 				"/>
			</g>
		</g>
		<g>
			<path class="st36" d="M47.2,267.5c0,0,0.4-3.3,0.4-3.8c0-0.5-0.6-1.8-1.6-3.1c-0.9-1.4-2.8-2.8-3-2.8c-0.3,0-0.6-0.1-1.2,0.3
				c-0.6,0.4-0.8,1.1-0.8,1.1s-1,0.2-1.3,1.1c0,0-0.9,0.2-1,1.2c0,0-0.9,0.2-1,0.9c0,0,0.7,1.2,0.8,1.8c0.1,0.5,1.7,3,3.6,5.2
				C42.2,269.3,44.7,270.8,47.2,267.5z"/>
		</g>
		<g>
			<g>
				<path class="st45" d="M52.5,272c0.4-3.1,0-7-2-9.4c-1.4-1.6-3.2-2.2-5.2-2.3c-2.8-0.1-5.4,0.7-7.3,2.8
					c-2.6,2.8-3.3,7.6-2.9,11.4L52.5,272z M35.8,273.5c-0.2-3.3,0.5-7.3,2.8-9.8c1.7-1.9,4.1-2.6,6.7-2.5c1.8,0,3.4,0.6,4.6,2
					c1.7,2,2.2,5.4,1.9,8.1L35.8,273.5z"/>
			</g>
		</g>
		<g>
			<g>
				<polygon class="st47" points="16.4,317 19.6,275.9 26.7,316.4 21.8,315.5 				"/>
			</g>
		</g>
		<g>
			<g>
				<polygon class="st48" points="26.7,316.4 69,309 62.1,269.5 19.5,275.6 				"/>
			</g>
		</g>
		<g>
			<g>
				<path class="st45" d="M72,280.9c0.7,2,0,4.6-0.8,6.5l0.8,0.1c0.9-2,1.5-4.6,0.8-6.7L72,280.9z"/>
			</g>
		</g>
		<g>
			<g>
				<polygon class="st44" points="40.8,318 75.5,322.5 81.4,290.7 45.1,284.5 				"/>
			</g>
		</g>
		<g>
			<g>
				<polygon class="st49" points="33.7,317 45.1,284.5 40.8,317.8 37.1,316.4 				"/>
			</g>
		</g>
		<g>
			<g>
				<path class="st45" d="M72.7,279.9c1.2,2.4,0.6,5.8,0.4,6.7l0.7,0.3c0.2-1,1.1-5-0.8-7.9L72.7,279.9z"/>
			</g>
		</g>
		<g>
			<g>
				<polygon class="st50" points="37.1,321.8 44.8,286.8 46.1,322.9 41.9,321.2 				"/>
			</g>
		</g>
		<g>
			<path class="st36" d="M42.2,269.3c0,0,2.6,2.3,3.9,2.3c1.3,0,2-3.6,2-3.6l-1.2-2.3L42.2,269.3z"/>
		</g>
		<g>
			<path class="st36" d="M143.2,243.6c0,0,1.3-1.2,1.9-2.3c0.6-1.1,3.2,4.5,3.2,4.5s-3.2,0.1-4.6,1.1
				C142.2,248,143.2,243.6,143.2,243.6z"/>
		</g>
		<g>
			<path class="st37" d="M153.6,236c0,0-3.8,1.6-3.7,2.2c0.2,0.6,0.6,0.8,0.6,0.8l-1.3,1.4c0,0-0.3,1.4,1.3,1.3c0,0-0.4,1.3,1.1,1
				c0,0,0.1,1,0.8,1c0.7,0,3.2-1.1,3.2-1.1s0.4-0.5-0.2-1.3c0,0,0.5-0.9-0.2-1.6c0,0,0.3-0.8-0.4-1.6c0,0,0.5-1.7-0.9-2.3
				C154,235.9,153.7,236,153.6,236z"/>
		</g>
		<g>
			<path class="st36" d="M146.9,238c0,0,2.8,0.2,4.3,1c0.3,0.2,0.6,0.4,0.6,0.8c0,0.4-0.6,0.8-1.9,0.8c-1.2,0-2.8,0.5-2.8,0.5
				S145.9,240.7,146.9,238z"/>
		</g>
		<g>
			<path class="st43" d="M44.1,263.8c0,0-0.8,1.5-0.9,2c0,0.5-3.7-0.3-3.7-0.3S42.3,262.9,44.1,263.8z"/>
		</g>
		<g>
			<path class="st37" d="M43.3,258.1c0,0,2.2,3.5,1.7,3.9c-0.5,0.4-1,0.3-1,0.3l0.3,1.9c0,0-0.5,1.3-1.8,0.4c0,0-0.4,1.3-1.5,0.2
				c0,0-0.6,0.7-1.2,0.3c-0.6-0.4-2-2.7-2-2.7s-0.1-0.6,0.9-1c0,0,0.1-1,1.1-1.2c0,0,0.2-0.8,1.2-1c0,0,0.6-1.7,2-1.4
				C43,257.7,43.2,257.9,43.3,258.1z"/>
		</g>
		<g>
			<path class="st36" d="M47.5,263.5c0,0-2.5-1.4-4.1-1.6c-0.4,0-0.8,0-0.9,0.3c-0.2,0.3,0.1,1,1.1,1.7c1,0.7,2.1,2,2.1,2
				S46.9,266.3,47.5,263.5z"/>
		</g>
		<g>
			<g>
				<path class="st47" d="M93.1,416.8c-2,0.6-2.6,4-4.3,5c-1.7,1-9.9,1.7-10.2-0.9c-0.3-2.6,3.5-4.9,5.1-6.2
					c1.7-1.3,5.5-5.5,6.3-7.2c0,0,0.7,1.1,2.7,0.7c2-0.3,2.4-0.9,2.4-0.9c-0.1,2,0.6,3.4,0.8,4.2C96.6,414.2,95.1,416.2,93.1,416.8z
					"/>
			</g>
		</g>
		<g>
			<g>
				<path class="st47" d="M106.5,417.3c-1.5,1.4-1.8,3.6-3.5,4.6c-0.5,0.3-1.5,0.6-2.6,0.8c-2.1,0.4-4.7,0.4-6-0.3
					c-0.4-0.3-0.7-0.6-0.8-1.1c-0.3-2.6,3.5-5.5,5.2-6.8c1-0.8,2.1-2.6,3-4.3c0.5-1.1,1-2.1,1.3-2.7c0,0,0,0,0,0
					c0,0,0.1,0.2,0.3,0.4c0.3,0.2,1,0.5,2.2,0.3c1.6-0.3,2.2-0.7,2.4-0.9c0,0,0,0,0,0c0,0,0,0,0,0c0,0,0,0,0,0c0,0,0,0,0,0l0,0
					c0,0,0,0,0,0c0.3,1.6,0.9,3.3,1.1,4C109.9,414,108,416,106.5,417.3z"/>
			</g>
		</g>
		<g>
			<g>
				<path class="st51" d="M92,213.5c0,0,6.4-0.7,8.8,5.6c2.3,6.2,4.5,8.3,4.8,11.5c1.1,13.2,7.3,10.2,5.5,17.9
					c-1.7,7.6-2.9,8.8-2.9,8.8l-14.8-2.9l-15,0c0,0,5.9-2.9,4.5-9.1c-1.3-6.2-4.5-16.4-2.7-23.4C82.1,214.9,88.1,214.1,92,213.5z"/>
			</g>
		</g>
		<g>
			<g>
				<polygon class="st52" points="46.1,322.9 83.5,321.5 84.2,286.6 44.8,286.6 				"/>
			</g>
		</g>
		<g>
			<g>
				<polygon class="st49" points="199.3,280.4 184.3,243 189.5,283.2 193.8,280.6 				"/>
			</g>
		</g>
		<g>
			<g>
				<polygon class="st53" points="193.9,288 183.5,244.8 183,289.3 188.1,287.3 				"/>
			</g>
		</g>
		<g>
			<g>
				<path class="st36" d="M81.3,302.3c0,0-5.4,18.9-6.4,23.8c-0.9,4.8-3.6,28.2-3.9,32.2c-0.3,4,8.9,22.6,9.4,24
					c1.9,5.2,9.8,24.1,9.8,24.1s5.1,3,4.5-1.4c-1.7-13.5-2.5-16.8-3.8-23.8c-2.7-15.3-8.2-17.3-7.3-19.6
					c8.5-22.6,10.2-37.9,11.4-39.3c1.1-1.3,1.3,0.7,2,3.6c0.7,2.9-0.3,23.2,0.9,31c0.7,4.2,2.1,13.8,2.6,19.3c0.5,5.5,3,30.9,3,30.9
					s0.3,0.9,4.1-1.2c0.6-0.3,3.6-22.5,3.7-29c0.1-6.5-2.8-7.5-0.5-20.1c5-27.1,4.3-31.8-1.5-51.3C95.2,257.7,81.3,302.3,81.3,302.3
					z"/>
			</g>
		</g>
		<g>
			<g>
				<path class="st54" d="M147.6,246.9c-0.2-0.2-14,10.3-15.5,11.2c-3,1.7-6.2,1.6-9.5,1.8c-3.7,0.2-8-0.2-11.7,0.6
					c-1.9,0.4-2.1,0.9-3.1,2.9c-2.7,5.5-3.6,12.4-3.9,18.5c-0.4,6.3,2.1,10.7,4.6,16.3c0.9,1.9,2.1,3.9,0.4,5.6
					c-1.5,1.6-4.5,1.9-6.5,2.1c-4.9,0.6-12.4,1-17.1-0.9c-5.8-2.4-4.7-9.6-5.3-14.7c-0.4-3.4-2-8.5-3-11.7c-0.9-3.2-1-4.6-0.8-8
					c-1.8,5.1-3.3,13.8-8.1,17c-3.7,2.5-7.1-0.9-9.8-3.2c-5.1-4.4-10.2-8.9-15.3-13.3c1.1-1,2.2-2,3.3-3c0.4-0.3,0.4-0.4,0.8-0.7
					c1-0.8,0.8-1,1.8-0.4c0.7,0.4,2.4,2.1,3,2.6c1.8,1.7,3.5,2.8,5.3,4.5c1.6,1.5,4.4,5,6.8,3.7c1.9-0.9,2.4-4.8,3.1-6.5
					c1.8-4.8,3.6-9.6,5.8-14.2c2.3-5,7.4-7.6,12.4-9.6c4.3-1.7,10-1.4,14.4-0.3c3.1,0.8,4.1,0.8,7.2,1.7c2.9,0.8,5.6,1.8,8.6,2.4
					c3.4,0.7,6.9,1,10.4,1c2.8,0,3.9-0.4,6.2-2c3.1-2.2,7.7-5.9,11.1-7.6C145.2,241.6,145.9,245.1,147.6,246.9z"/>
			</g>
		</g>
		<g>
			<g>
				<path class="st36" d="M96.4,239.4c0,0-0.5,6.4,0.7,8.4c1.2,1.9-1.1,4.5-5.8,3.6c-4.7-0.9-4.5-3.6-4.5-3.6s1.3-4,0.9-7.2
					C87.4,237.5,96.4,239.4,96.4,239.4z"/>
			</g>
		</g>
		<g>
			<g>
				<path class="st36" d="M99.5,247.2c0,0-4.3,10-9.8,12.1c0,0-5.5-4.8-4-12C85.7,247.3,92.8,243.6,99.5,247.2z"/>
			</g>
		</g>
		<g>
			<g>
				<path class="st36" d="M92.8,217.2c0,0,8.5,1.2,7.3,13.8c-1.3,12.6-8.8,11.6-9.3,11.6c-0.5,0-7.6,0.3-8.2-15.1
					C82.7,227.5,82.4,216.1,92.8,217.2z"/>
			</g>
		</g>
		<g>
			<g>
				<path class="st51" d="M91.9,221.7c0,0,4,4.2,5.8,6.3c1.9,2.1,2.1,6.2,2.1,6.2s3.1-3.8,1.8-8.3c-1.3-4.4-4.4-13.1-12.2-10.4
					c-7.8,2.7-8.1,14.3-7.2,20.1C82.2,235.7,85.7,223,91.9,221.7z"/>
			</g>
		</g>
		<g>
			<path class="st55" d="M88.6,242.1c0,0,3.7,1.8,7.4-1.1c0,0-1.4,2.4-3.9,2.5C89.5,243.6,88.6,242.1,88.6,242.1z"/>
		</g>
		<g>
			<path class="st45" d="M65.1,276.6c-0.4,0.8-1.2,1.2-1.2,1.2c-3.9,2.1-4.6,7.1-4.7,8.8l-0.8,0C59.1,277.4,65.1,276.6,65.1,276.6z"
				/>
		</g>
		<g>
			<path class="st45" d="M64.9,276.6c0,0-6.3,0.3-8.1,9.9l0.6,0.1c0,0,1.2-7,6.3-8.9C63.7,277.7,64.4,277.4,64.9,276.6z"/>
		</g>
		<g>
			<path class="st54" d="M109.5,300.7c0,0,8.6,17.9,2.8,54.1c0,0-17.6-1.6-44-3.5c0,0,12-48.7,12.3-51.8
				C81,296.3,109.5,300.7,109.5,300.7z"/>
		</g>
		<g>
			<g>
				<path class="st36" d="M90.1,406c0,0,2.5,1.6,4.7-0.5l0.2,1.9c0,0-3.9,3.5-4.9-0.3V406z"/>
			</g>
		</g>
		<g>
			<g>
				<path class="st36" d="M104.2,405.7c0,0,1.5,1.3,3.7-0.7l0.3,2.2c0,0-3.8,3.9-4.8,0.1L104.2,405.7z"/>
			</g>
		</g>
		<g>
			<g>
				<path class="st47" d="M90.1,407.1c0,0-2,2.4-1.8,2.8c0.2,0.4,4.6,1.3,5.3,0.3c0.7-0.9,1.5-2.9,1.5-2.9S91.2,409.1,90.1,407.1z"
					/>
			</g>
		</g>
		<g>
			<g>
				<path class="st47" d="M103.5,407c0,0-1.9,2.7-1.7,3.1c0.2,0.4,4.1,1,4.8,0.1c0.7-0.9,1.6-2.9,1.6-2.9S104.6,409,103.5,407z"/>
			</g>
		</g>
		<g>
			<path class="st56" d="M80.4,296.8c0,0,10.4,3.8,25.3-4.6c0,0,0.6,1.2,1.3,2.9c0,0-13.6,8.4-26.3,4.3
				C80.7,299.4,80.3,297.5,80.4,296.8z"/>
		</g>
		<g>
			<path class="st49" d="M77.5,261.8c-1.2,3.1-1.3,8.7-1.3,8.7s-0.4,1.5-1,3.2C75,265.4,77.5,261.8,77.5,261.8z"/>
		</g>
		<g>
			<g>
				<path class="st57" d="M91.1,248c-0.5,0-1-0.1-1.5-0.1c-1.7-0.3-2.4-1.1-2.5-1.2l0.2-0.8c0,0,1,0.9,2.5,1.1
					c2,0.4,4.3-0.2,6.6-1.6l0.3,0.8C94.6,247.6,92.6,248,91.1,248z"/>
			</g>
		</g>
	</g>
	<g>
		<path class="st58" d="M117.6,113.4l-20,3.7c-1.1,0.2-2.2,0.8-2.9,1.7l-45.3,52.4c-1.8,2.1-1.6,5.4,0.5,7.2L69.1,195
			c2.1,1.8,5.4,1.6,7.2-0.5l45.3-52.4c0.8-0.9,1.2-2,1.2-3.1l0.8-20.3C123.8,115.4,120.9,112.8,117.6,113.4z M120.5,120.4
			c-1,1.1-2.7,1.3-3.9,0.3c-1.1-1-1.3-2.7-0.3-3.9c1-1.1,2.7-1.3,3.9-0.3C121.4,117.5,121.5,119.2,120.5,120.4z"/>
		<g>
			<path class="st59" d="M78.7,175.2c-0.7,0.8-1.4,1.4-2.3,1.9c-0.9,0.5-1.8,0.8-2.7,0.9l-0.7-2.9c0.1,0,0.4,0,0.7,0
				c0.3-0.1,0.7-0.2,1.1-0.3c0.4-0.2,0.8-0.4,1.2-0.6c0.4-0.3,0.8-0.6,1.2-1c0.5-0.6,0.8-1.2,0.8-1.7c0-0.5-0.2-0.9-0.6-1.3
				c-0.2-0.2-0.4-0.3-0.7-0.3c-0.2,0-0.5,0-0.8,0.2c-0.3,0.1-0.6,0.3-1,0.5c-0.3,0.2-0.7,0.4-1.1,0.7c-0.9,0.6-1.7,0.9-2.4,1
				c-0.7,0.1-1.4-0.1-2-0.7c-0.6-0.6-1.1-1.2-1.4-1.9s-0.4-1.4-0.4-2.1c0-0.7,0.2-1.5,0.5-2.2c0.3-0.7,0.7-1.4,1.3-2
				c0.6-0.7,1.3-1.3,2.1-1.6c0.7-0.4,1.4-0.6,2.1-0.7l0.6,2.8c-0.1,0-0.3,0-0.5,0c-0.3,0-0.5,0.1-0.9,0.3c-0.3,0.1-0.6,0.3-1,0.5
				c-0.3,0.2-0.6,0.5-0.9,0.8c-0.5,0.6-0.8,1.2-0.8,1.7c0,0.5,0.2,1,0.7,1.4c0.2,0.2,0.4,0.2,0.6,0.3c0.2,0,0.4,0,0.7-0.1
				c0.3-0.1,0.5-0.2,0.8-0.4c0.3-0.2,0.6-0.4,1-0.6c0.5-0.3,0.9-0.6,1.4-0.8c0.4-0.2,0.9-0.3,1.3-0.4c0.4-0.1,0.8,0,1.2,0.1
				c0.4,0.1,0.8,0.3,1.2,0.7c0.7,0.6,1.2,1.2,1.4,1.9c0.3,0.7,0.4,1.4,0.3,2.1c-0.1,0.7-0.3,1.4-0.6,2.1
				C79.7,173.9,79.2,174.6,78.7,175.2z"/>
			<path class="st59" d="M86.1,166.7c-0.4,0.5-0.8,0.8-1.3,1c-0.5,0.2-1,0.3-1.5,0.3c-0.5,0-1-0.1-1.6-0.4c-0.5-0.2-1-0.5-1.5-0.9
				c-0.7-0.6-1.2-1.3-1.6-2c-0.4-0.8-0.7-1.6-0.8-2.4c-0.1-0.8-0.1-1.6,0.1-2.4c0.2-0.8,0.5-1.5,1-2.1c0.5-0.6,1-0.9,1.7-1.1
				c0.6-0.1,1.2-0.1,1.8,0.2l-1.1-1.5l1.8-2.1l4.7,6.1c0.1,0.1,0.2,0.2,0.2,0.3c0.2,0.2,0.4,0.2,0.7-0.1l1.4,1.9
				c-0.1,0.2-0.2,0.4-0.3,0.6c-0.1,0.2-0.2,0.3-0.3,0.4c-0.3,0.4-0.6,0.6-1,0.7c-0.3,0.1-0.7,0-1-0.3c-0.1-0.1-0.3-0.3-0.5-0.6
				c0.2,0.8,0.2,1.6,0,2.4C86.9,165.5,86.6,166.1,86.1,166.7z M85.2,164.2c0.2-0.2,0.3-0.4,0.4-0.7c0.1-0.3,0.2-0.5,0.2-0.8
				c0-0.3,0-0.6,0-0.9c0-0.3-0.1-0.6-0.2-0.9l-1.6-2.1c-0.5-0.3-1-0.5-1.6-0.4c-0.6,0-1,0.3-1.3,0.7c-0.3,0.3-0.5,0.7-0.6,1.2
				c-0.1,0.5-0.1,0.9,0,1.4c0.1,0.5,0.2,0.9,0.5,1.4c0.2,0.4,0.5,0.8,0.9,1.2c0.5,0.5,1.1,0.7,1.7,0.7
				C84.2,165,84.7,164.7,85.2,164.2z"/>
			<path class="st59" d="M93.4,158.2c-0.5,0.5-0.9,0.8-1.4,0.9c-0.5,0.1-1-0.1-1.4-0.5c-0.1-0.1-0.2-0.2-0.3-0.3
				c-0.1-0.1-0.2-0.2-0.3-0.3l-7.7-10.2l1.8-2.1l7.1,9.4c0,0.1,0.1,0.1,0.1,0.2c0,0,0.1,0.1,0.1,0.1c0.4,0.4,0.8,0.3,1.2-0.1
				c0.1-0.1,0.2-0.3,0.3-0.4c0.1-0.2,0.2-0.4,0.2-0.6l1.5,1.4c-0.1,0.4-0.3,0.8-0.6,1.3C93.9,157.5,93.7,157.9,93.4,158.2z"/>
			<path class="st59" d="M99,151.8c-0.4,0.5-0.9,0.9-1.5,1.2c-0.5,0.3-1.1,0.4-1.6,0.4c-0.6,0-1.1-0.1-1.7-0.3
				c-0.5-0.2-1.1-0.5-1.6-1c-0.7-0.6-1.2-1.3-1.6-2.1c-0.4-0.8-0.6-1.6-0.7-2.5c-0.1-0.9,0-1.7,0.3-2.6c0.3-0.9,0.7-1.7,1.3-2.4
				c0.8-0.9,1.6-1.4,2.4-1.6c0.8-0.2,1.6,0,2.4,0.7c1.7,1.5,1.3,3.8-1.4,7c-0.2,0.2-0.3,0.4-0.5,0.6c-0.2,0.2-0.4,0.4-0.6,0.6
				l0.2,0.2c0.5,0.5,1.1,0.7,1.7,0.8c0.6,0,1.1-0.2,1.5-0.7c0.4-0.4,0.6-0.9,0.7-1.4c0.1-0.5,0.1-1.1-0.1-1.6l1.9-1.2
				c0.1,0.5,0.2,1,0.2,1.5c0,0.5-0.1,1.1-0.2,1.6c-0.1,0.5-0.3,1-0.5,1.5C99.6,151,99.3,151.4,99,151.8z M93.3,144.3
				c-0.3,0.3-0.4,0.6-0.6,1c-0.1,0.4-0.2,0.7-0.2,1.1c0,0.4,0.1,0.7,0.2,1.1c0.1,0.4,0.3,0.7,0.5,1.1c0.2-0.2,0.3-0.3,0.4-0.5
				c0.1-0.2,0.3-0.3,0.4-0.5c0.4-0.5,0.8-0.9,1-1.3c0.2-0.4,0.4-0.7,0.5-1c0.1-0.3,0.1-0.6,0-0.8c-0.1-0.2-0.2-0.4-0.4-0.6
				c-0.3-0.3-0.6-0.3-1-0.2C94,143.7,93.7,144,93.3,144.3z"/>
		</g>
	</g>
	<g>
		<g>
			<path class="st60" d="M120.3,116.8l-0.2-0.6c0,0,1.5-0.4,3.6-1.6l0.3,0.6C121.9,116.4,120.4,116.8,120.3,116.8z"/>
		</g>
		<g>
			<path class="st60" d="M364.6,169.9l-0.6-0.2c0.9-2.7,1.7-5.1,2.4-7.6l0.6,0.2C366.3,164.7,365.5,167.2,364.6,169.9z M369.1,154.6
				l-0.6-0.2c0.7-2.7,1.3-5.3,1.7-7.7l0.7,0.1C370.4,149.4,369.8,152,369.1,154.6z M372.1,139l-0.7-0.1c0.3-2.7,0.5-5.4,0.6-7.9
				l0.7,0C372.6,133.6,372.5,136.2,372.1,139z M371.7,123.1c-0.3-2.7-0.8-5.3-1.5-7.7l0.6-0.2c0.7,2.5,1.2,5.1,1.5,7.9L371.7,123.1z
				 M130.1,110l-0.5-0.4c1.6-2,2.8-4.4,3.5-6.9l0.6,0.2C133,105.5,131.8,107.9,130.1,110z M367.4,108c-1.2-2.3-2.7-4.5-4.3-6.5
				l0.5-0.4c1.7,2,3.2,4.3,4.4,6.7L367.4,108z M357.4,96c-2-1.6-4.2-3-6.6-4.2l0.3-0.6c2.4,1.3,4.7,2.7,6.7,4.3L357.4,96z
				 M134.7,94.9l-0.7,0c0.1-2.4,0.3-5.2,0.7-8l0.7,0.1C135,89.8,134.8,92.5,134.7,94.9z M343.5,88.7c-2.4-0.8-4.9-1.6-7.6-2.2
				l0.2-0.6c2.7,0.6,5.3,1.4,7.7,2.2L343.5,88.7z M328.1,85c-2.5-0.4-5.2-0.7-7.9-0.9l0.1-0.7c2.7,0.2,5.4,0.5,7.9,0.9L328.1,85z
				 M312.3,83.5c-2.7-0.3-5.4-0.6-7.9-1l0.1-0.7c2.5,0.4,5.1,0.7,7.9,1L312.3,83.5z M296.6,81c-2.7-0.6-5.3-1.3-7.7-2.1l0.2-0.6
				c2.4,0.8,4.9,1.5,7.6,2.1L296.6,81z M136.8,79.2l-0.6-0.1c0.6-2.6,1.3-5.2,2.1-7.7l0.6,0.2C138.1,74,137.4,76.6,136.8,79.2z
				 M281.5,75.9c-2.4-1.1-4.7-2.4-7-3.9l0.4-0.6c2.2,1.4,4.5,2.7,6.9,3.8L281.5,75.9z M268.1,67.4c-2.2-1.8-4.3-3.6-6-5.2l0.4-0.5
				c1.7,1.6,3.8,3.4,6,5.2L268.1,67.4z M141.8,64.1l-0.6-0.3c1.1-2.5,2.3-4.9,3.6-7.1l0.6,0.3C144.1,59.3,142.9,61.6,141.8,64.1z
				 M256.3,56.8c-2.2-2-4.2-3.6-6.1-5.1l0.4-0.5c1.9,1.5,3.9,3.1,6.1,5.1L256.3,56.8z M149.8,50.5l-0.5-0.4c1.7-2.1,3.5-4.1,5.4-5.9
				l0.5,0.5C153.3,46.4,151.5,48.4,149.8,50.5z M243.8,47.1c-2.2-1.4-4.5-2.7-6.9-3.9l0.3-0.6c2.4,1.2,4.7,2.5,6.9,4L243.8,47.1z
				 M229.7,39.9c-2.4-1-4.9-1.9-7.4-2.7l0.2-0.6c2.6,0.8,5.1,1.8,7.5,2.7L229.7,39.9z M161.3,39.7l-0.4-0.6c2.2-1.5,4.6-2.8,7-3.9
				l0.3,0.6C165.8,37,163.5,38.3,161.3,39.7z M214.7,35c-2-0.5-4.2-1-6.3-1.5c-0.5-0.1-0.9-0.2-1.4-0.3l0.1-0.7
				c0.5,0.1,0.9,0.2,1.4,0.3c2.2,0.5,4.3,1,6.4,1.5L214.7,35z M175.6,33.3l-0.2-0.6c2.5-0.7,5.1-1.2,7.8-1.5l0.1,0.7
				C180.7,32.2,178.1,32.6,175.6,33.3z M199.1,32c-2.7-0.3-5.4-0.5-7.9-0.5l0-0.7c2.6,0,5.3,0.2,8,0.5L199.1,32z"/>
		</g>
		<g>
			<path class="st60" d="M360.4,181.6l-0.6-0.2c0.4-1.2,0.9-2.5,1.4-3.7l0.6,0.2C361.3,179.1,360.8,180.3,360.4,181.6z"/>
		</g>
	</g>
	<g>
		<path class="st59" d="M523.3,182.7l21-12.1l20.1-13.2l2.2,4l-20.4,11.9l-20.6,13.3L523.3,182.7z M535.9,165.2
			c-1.2-0.4-2.3-1-3.2-1.8c-0.9-0.8-1.6-1.7-2.1-2.7s-0.8-2.1-0.9-3.2c-0.1-1.1,0-2.3,0.4-3.4c0.4-1.1,1-2,1.8-2.9
			c0.8-0.8,1.7-1.4,2.7-1.9c1-0.4,2.1-0.7,3.3-0.7c1.2,0,2.4,0.1,3.6,0.6c1.2,0.4,2.3,1,3.2,1.8c0.9,0.8,1.6,1.7,2.2,2.7
			c0.5,1,0.8,2,0.9,3.2c0.1,1.1,0,2.3-0.4,3.3c-0.4,1.1-1,2.1-1.8,2.9c-0.8,0.8-1.7,1.4-2.7,1.9c-1,0.4-2.1,0.7-3.4,0.7
			C538.3,165.9,537.1,165.7,535.9,165.2z M537.1,161.7c0.5,0.2,1.1,0.2,1.6,0.1c0.5-0.1,1-0.3,1.5-0.6c0.5-0.3,0.9-0.7,1.3-1.1
			c0.4-0.5,0.7-1,0.9-1.6c0.4-1.2,0.4-2.4,0-3.5c-0.4-1.1-1.2-1.9-2.2-2.2c-0.5-0.2-1.1-0.2-1.6-0.1c-0.5,0.1-1,0.3-1.5,0.6
			c-0.5,0.3-0.9,0.6-1.3,1.1c-0.4,0.5-0.7,1-0.9,1.6c-0.4,1.2-0.4,2.4,0,3.6C535.4,160.6,536.1,161.4,537.1,161.7z M548.3,194.9
			c-1.2-0.4-2.3-1-3.2-1.8c-0.9-0.8-1.6-1.7-2.1-2.7c-0.5-1-0.8-2-1-3.2c-0.1-1.1,0-2.3,0.4-3.4c0.4-1.1,1-2.1,1.8-2.9
			c0.8-0.8,1.7-1.4,2.7-1.9c1-0.4,2.1-0.7,3.3-0.7c1.2,0,2.4,0.1,3.6,0.6c1.2,0.4,2.3,1,3.2,1.8c0.9,0.8,1.6,1.7,2.2,2.7
			c0.5,1,0.9,2.1,0.9,3.2c0.1,1.1-0.1,2.2-0.5,3.4c-0.4,1.1-1,2.1-1.8,2.9c-0.8,0.8-1.7,1.4-2.7,1.8c-1,0.4-2.2,0.7-3.4,0.7
			C550.7,195.5,549.5,195.4,548.3,194.9z M549.5,191.4c0.5,0.2,1.1,0.2,1.6,0.1c0.5-0.1,1-0.3,1.5-0.6c0.5-0.3,0.9-0.6,1.3-1.1
			c0.4-0.5,0.7-1,0.9-1.6c0.2-0.6,0.3-1.3,0.3-1.9c0-0.6-0.1-1.2-0.3-1.7c-0.2-0.5-0.5-1-0.9-1.4c-0.4-0.4-0.8-0.7-1.3-0.8
			c-0.5-0.2-1.1-0.2-1.6-0.1c-0.5,0.1-1,0.3-1.5,0.6c-0.5,0.3-0.9,0.7-1.3,1.1c-0.4,0.5-0.7,1-0.9,1.6c-0.4,1.2-0.4,2.4,0,3.5
			C547.8,190.3,548.5,191,549.5,191.4z"/>
	</g>
	<g>
		<path class="st59" d="M70.6,31.9c-0.7,0.5-1.5,0.8-2.3,1c-0.8,0.2-1.5,0.2-2.3,0.1c-0.7-0.1-1.4-0.4-2.1-0.8
			c-0.6-0.4-1.2-0.9-1.6-1.6c-0.4-0.6-0.7-1.3-0.8-2.1c-0.1-0.8-0.1-1.5,0.1-2.2c0.2-0.7,0.5-1.4,1-2.1c0.5-0.7,1-1.2,1.8-1.7
			c0.7-0.5,1.5-0.8,2.2-0.9c0.8-0.2,1.6-0.2,2.3-0.1c0.7,0.1,1.4,0.4,2.1,0.8c0.7,0.4,1.2,0.9,1.6,1.6c0.4,0.7,0.7,1.4,0.8,2.1
			c0.1,0.7,0.1,1.5-0.1,2.2c-0.2,0.7-0.5,1.4-1,2.1C71.9,30.8,71.3,31.4,70.6,31.9z M69.2,29.8c0.3-0.2,0.5-0.5,0.7-0.8
			c0.2-0.3,0.3-0.7,0.3-1c0-0.4,0-0.8-0.1-1.2c-0.1-0.4-0.3-0.8-0.5-1.1c-0.5-0.7-1.1-1.2-1.9-1.4c-0.8-0.2-1.5-0.1-2.1,0.3
			c-0.3,0.2-0.5,0.5-0.7,0.8c-0.2,0.3-0.3,0.7-0.3,1c0,0.4,0,0.8,0.1,1.1c0.1,0.4,0.3,0.8,0.5,1.1c0.5,0.7,1.1,1.2,1.9,1.4
			C68,30.3,68.6,30.2,69.2,29.8z M74.8,45.6l2-16l1.1-15.9l3,0.4L79,29.7L77.8,46L74.8,45.6z M91.3,37.2c-0.7,0.5-1.5,0.8-2.3,1
			c-0.8,0.2-1.5,0.2-2.3,0.1c-0.7-0.1-1.4-0.4-2.1-0.8c-0.6-0.4-1.2-0.9-1.6-1.6c-0.4-0.7-0.7-1.4-0.8-2.1c-0.1-0.7-0.1-1.5,0.1-2.2
			c0.2-0.7,0.5-1.4,0.9-2.1c0.5-0.7,1-1.2,1.8-1.7c0.7-0.5,1.5-0.8,2.3-1c0.8-0.2,1.5-0.2,2.3-0.1c0.7,0.1,1.4,0.4,2.1,0.8
			c0.6,0.4,1.2,0.9,1.6,1.6c0.4,0.7,0.7,1.4,0.8,2.1c0.1,0.7,0.1,1.5-0.1,2.2c-0.2,0.7-0.5,1.4-1,2.1C92.7,36.2,92.1,36.7,91.3,37.2
			z M90,35.1c0.3-0.2,0.5-0.5,0.7-0.8c0.2-0.3,0.3-0.7,0.3-1c0-0.4,0-0.8-0.1-1.1c-0.1-0.4-0.3-0.8-0.5-1.1
			c-0.2-0.4-0.5-0.7-0.9-0.9c-0.3-0.2-0.7-0.4-1-0.5c-0.4-0.1-0.7-0.1-1.1-0.1c-0.4,0-0.7,0.2-1,0.4c-0.3,0.2-0.5,0.5-0.7,0.8
			c-0.2,0.3-0.3,0.7-0.3,1c0,0.4,0,0.8,0.1,1.2c0.1,0.4,0.3,0.8,0.5,1.1c0.5,0.7,1.1,1.2,1.9,1.4C88.7,35.6,89.4,35.5,90,35.1z"/>
	</g>
</g>
</svg>
