<?xml version="1.0" encoding="utf-8"?>
<!-- Generator: Adobe Illustrator 22.0.1, SVG Export Plug-In . SVG Version: 6.00 Build 0)  -->
<svg version="1.1" id="Слой_1" xmlns="http://www.w3.org/2000/svg" xmlns:xlink="http://www.w3.org/1999/xlink" x="0px" y="0px" width="647" height="432"
	 viewBox="0 0 647.8 432" style="enable-background:new 0 0 647.8 432;" xml:space="preserve">
<style type="text/css">
	.st0{fill:#35C4A6;}
	.st1{fill:#BCDFFD;}
	.st2{fill:#FFFFFF;}
	.st3{fill:#FF5C5B;}
	.st4{fill:#121B46;}
	.st5{fill:#FDB32C;}
	.st6{fill:#CC6F49;}
	.st7{fill:#DFDFDF;}
	.st8{fill:#A1B0CF;}
	.st9{fill:#C4533A;}
	.st10{fill:#ADADAD;}
	.st11{fill:#6DB2E3;}
	.st12{fill:#3CDEBC;}
	.st13{clip-path:url(#SVGID_2_);}
	.st14{fill:#FF9F9E;}
	.st15{fill:#F7BB8B;}
	.st16{fill:#F28766;}
	.st17{fill:#28AD92;}
	.st18{fill:#C4C4C4;}
	.st19{fill:#919191;}
	.st20{fill:#EBEBEB;}
	.st21{fill:#EBA771;}
	.st22{fill:#F08D6E;}
	.st23{fill:#FA9778;}
	.st24{fill:#FA7C55;}
	.st25{fill:#E3F2FF;}
</style>
<g>
	<g>
		<path class="st0" d="M377.9,260c11-10.7,25.8,24.3,30.9,37.7l10.2-11.8c-7.2-8.6-33.1-41.6-11.8-50c14.6-5.8,14.3,34.4,13.8,47.8
			l13.8-15.9c-3.6-8.3-20.7-50.5,3-52.3c15.8-1.2,3.3,37.9-1,50.1l14.7-16.9c5.5-13.2,21.2-47.9,31.9-36.9
			c15,15.5-17.5,33.8-29.6,39.8l-14.1,16.1c12.4-7.4,45.6-25.6,47.5-10.4c3,23.2-40.8,15.6-50.3,13.6l-15,17.2
			c10.4-2.7,54.3-13.1,51.5,3.3c-4.1,23.6-45.2,2-52.6-2.1l-10.7,12.3c0.1,0.2,0.1,0.3,0.2,0.5c11.8,1.8,54.3,9.2,45.5,22.9
			c-12.5,19.6-40.8-13.7-47.2-21.7l-23.7,27.2l-2.7-2.4l24-27.5C394.4,294.2,362.5,275.1,377.9,260z"/>
		<g>
			<g>
				<path class="st0" d="M434.6,387.8c-12.1,0-23.8-3.3-28.2-13.2c-9.6-21.8,16.1-41.1,32.8-49c6.3-3,12.9-5.5,19.3-8
					c5.8-2.2,11.9-4.5,17.6-7.2l0,0c15.3-7,29-16.7,40.8-28.7c0.7-0.7,1.8-1,2.8-0.5c1,0.4,1.6,1.4,1.5,2.4
					c-0.7,16.8-1.9,33.1-8.5,48c-5,11.3-13.4,22-26.2,33.8c-6.6,6.1-15.6,13.6-26.2,17.8C454,385.7,444.2,387.8,434.6,387.8z
					 M477.1,312.5c-5.8,2.7-11.9,5-17.7,7.2c-6.3,2.4-12.9,4.9-19.1,7.9c-15.9,7.6-40.5,25.7-31.6,45.9c7.3,16.7,39,12.1,50.9,7.4
					c10.3-4.1,19-11.4,25.5-17.3c12.6-11.6,20.7-22,25.6-33c6.5-14.5,7.6-30.6,8.3-47.1c0,0,0-0.1-0.1-0.2c-0.1-0.1-0.2,0-0.2,0
					C506.6,295.6,492.6,305.4,477.1,312.5L477.1,312.5z"/>
			</g>
		</g>
	</g>
	<g>
		<path class="st0" d="M225.9,322.4c-11-10.7-25.8,24.3-30.9,37.7l-10.2-11.8c7.2-8.6,33.1-41.6,11.8-50
			c-14.6-5.8-14.3,34.4-13.8,47.8L169,330.3c3.6-8.3,20.7-50.5-3-52.3c-15.8-1.2-3.3,37.9,1,50.1l-14.7-16.9
			c-5.5-13.2-21.2-47.9-31.9-36.9C105.4,289.8,138,308,150,314l14.1,16.1c-12.4-7.4-45.6-25.6-47.5-10.4
			c-3,23.2,40.8,15.6,50.3,13.6l15,17.2c-10.4-2.7-54.3-13.1-51.5,3.3c4.1,23.6,45.2,2,52.6-2.1l10.7,12.3c-0.1,0.2-0.1,0.3-0.2,0.5
			c-11.8,1.8-54.3,9.2-45.5,22.9c12.5,19.6,40.8-13.7,47.2-21.7l23.7,27.2l2.7-2.4l-24-27.5C209.4,356.6,241.4,337.5,225.9,322.4z"
			/>
		<path class="st0" d="M186.5,305.1c-2.9-16.6-8.9-32.7-17.6-47.2c-0.6-1.1,0.4-2.4,1.6-2c15.5,4.8,31.2,10,43.8,20.2
			c11.1,8.9,19.1,21,25.8,33.5c4.9,9.3,9.2,19.1,10.4,29.5c1.8,14.5-2.7,45.8-21,48.7c-22.9,3.6-34.5-25.8-37.8-43.2
			C189.3,331.6,188.8,318.2,186.5,305.1z"/>
	</g>
</g>
<g>
	<g>
		<path class="st1" d="M516.3,52.6l0-1.2c2.6,0,5.2-0.8,7.5-2.1l0.6,1C522,51.8,519.2,52.6,516.3,52.6z M508.2,50.6
			c-2.5-1.4-4.6-3.4-6.1-5.8l1-0.6c1.4,2.2,3.3,4.1,5.6,5.4L508.2,50.6z M530.3,44.4l-1-0.6c1.3-2.3,2-4.9,2-7.5c0-0.3,0-0.6,0-1
			l1.2-0.1c0,0.3,0,0.7,0,1C532.4,39.2,531.7,42,530.3,44.4z M499.8,36.8c0-0.2,0-0.3,0-0.5c0-2.7,0.7-5.3,1.9-7.6l1,0.5
			c-1.1,2.2-1.8,4.6-1.8,7.1c0,0.2,0,0.3,0,0.5L499.8,36.8z M528.7,28c-1.4-2.2-3.4-4-5.8-5.2l0.5-1c2.5,1.3,4.7,3.2,6.2,5.6
			L528.7,28z M508,23.5l-0.6-1c2.4-1.5,5.1-2.4,8-2.5l0.1,1.2C512.7,21.3,510.2,22.1,508,23.5z"/>
	</g>
</g>
<g>
	<g>
		<path class="st1" d="M612.1,258.1c-2.8-0.2-5.5-1-8-2.3l0.5-1c2.3,1.2,4.9,2,7.5,2.2L612.1,258.1z M620.4,257.1L620,256
			c2.5-0.9,4.8-2.2,6.7-4.1l0.8,0.9C625.5,254.7,623.1,256.1,620.4,257.1z M597.7,250.5c-1.8-2.2-3-4.7-3.7-7.4l1.1-0.3
			c0.7,2.6,1.9,4.9,3.5,7L597.7,250.5z M632.4,246l-1.1-0.5c1.1-2.4,1.6-5,1.6-7.7h1.2C634.1,240.6,633.5,243.4,632.4,246z
			 M632.8,235.7c-0.3-2.6-1.1-5.2-2.4-7.5l1-0.6c1.4,2.5,2.3,5.1,2.6,7.9L632.8,235.7z M594.7,234.9l-1.2-0.2
			c0.4-2.8,1.4-5.4,2.9-7.8l1,0.6C596,229.8,595.1,232.3,594.7,234.9z M625.1,222.4c-2.1-1.6-4.5-2.7-7.1-3.3l0.3-1.1
			c2.7,0.6,5.3,1.8,7.6,3.5L625.1,222.4z M602.9,221.9l-0.7-1c2.3-1.6,4.9-2.7,7.7-3.2l0.2,1.1C607.5,219.4,605.1,220.4,602.9,221.9
			z"/>
	</g>
</g>
<g>
	<g>
		<path class="st1" d="M473.1,21.5c0,4.1-3.3,7.3-7.3,7.3c-4.1,0-7.3-3.3-7.3-7.3c0-4.1,3.3-7.3,7.3-7.3
			C469.8,14.1,473.1,17.4,473.1,21.5z"/>
	</g>
</g>
<g>
	<g>
		<path class="st1" d="M29.6,190.1c0,3.5-2.9,6.4-6.4,6.4s-6.4-2.9-6.4-6.4c0-3.5,2.9-6.4,6.4-6.4S29.6,186.6,29.6,190.1z"/>
	</g>
</g>
<g>
	<g>
		<circle class="st1" cx="597.1" cy="214.6" r="4.7"/>
	</g>
</g>
<g>
	<g>
		<path class="st1" d="M195.3,27c0,2.4-1.9,4.3-4.3,4.3c-2.4,0-4.3-1.9-4.3-4.3s1.9-4.3,4.3-4.3C193.4,22.7,195.3,24.6,195.3,27z"/>
	</g>
</g>
<g>
	<path class="st2" d="M167.8,93h-41c-2.7,0-4.9,2.2-4.9,4.9v26.4c0,2.7,2.2,4.9,4.9,4.9H139l3.9,6.7l4.4,7.7l4.4-7.7l3.9-6.7h12.2
		c2.7,0,4.9-2.2,4.9-4.9V97.9C172.7,95.2,170.5,93,167.8,93z"/>
	<path class="st3" d="M139.1,169.3c-8.6-5.3-13.9,5-13.9,5.1c0-0.1-5.4-10.4-13.9-5.1c-9.8,6.1-0.2,25.2,13.9,29.9l0,0c0,0,0,0,0,0
		c0,0,0,0,0,0l0,0C139.4,194.5,149,175.3,139.1,169.3z"/>
	<g>
		<g>
			<path class="st2" d="M82.3,114c3.6,0.4,7.2,0.5,10.7,0.1c0.9-0.1,1.7-0.2,2.5-0.7c0.7-0.5,1.3-1.2,1.1-2.1c0.6,0,1.2-0.5,1.6-1
				c0.2-0.2,0.4-0.4,0.5-0.6c0.1-0.3,0.2-0.6,0.1-0.9c-0.1-1-0.5-1.9-1.3-2.3c0.8-0.2,1.4-0.9,1.6-1.6c0.2-0.8,0.1-1.6-0.5-2.3
				c-0.3-0.4-0.8-0.6-1.2-0.8c0.4-0.3,0.8-0.5,1.1-0.8c0.4-0.5,0.2-1.3-0.3-1.8c-0.5-0.4-1.2-0.6-1.8-0.7c-1.2-0.1-2.4,0.1-3.6,0.1
				c-1.2,0-2.5-0.2-3.5-0.7c-0.2-1.6,0.1-3.2-0.3-4.7c-0.5-1.9-2.3-3.3-4.2-3.4c-0.4,0-0.8,0-1,0.3c-0.2,0.2-0.2,0.5-0.2,0.8
				c0,1.3,0.5,2.5,0.8,3.7c0.3,1.2,0.4,2.6-0.4,3.7c-0.3,0.4-0.7,0.7-0.9,1.2c-0.3,0.6-0.3,1.3-0.5,2c-0.2,0.7-0.7,1.4-1.4,1.3
				L82.3,114z"/>
		</g>
		<g>
			<g>
				<path class="st4" d="M81.7,115.3h-4.2c-0.3,0-0.6-0.3-0.6-0.6V99.9c0-0.3,0.3-0.6,0.6-0.6h4.2c0.3,0,0.6,0.3,0.6,0.6v14.8
					C82.3,115,82,115.3,81.7,115.3z"/>
			</g>
			<g>
				<circle class="st2" cx="79.4" cy="101.3" r="0.7"/>
			</g>
		</g>
	</g>
	<g>
		<path class="st5" d="M517.2,137.9h-41c-2.7,0-4.9,2.2-4.9,4.9v26.4c0,2.7,2.2,4.9,4.9,4.9h12.2l3.9,6.7l4.4,7.7l4.4-7.7l3.9-6.7
			h12.2c2.7,0,4.9-2.2,4.9-4.9v-26.4C522.1,140.1,519.9,137.9,517.2,137.9z"/>
		<g>
			<g>
				<path class="st2" d="M493.4,167.8c3.6,0.4,7.2,0.5,10.7,0.1c0.9-0.1,1.7-0.2,2.5-0.7c0.7-0.5,1.3-1.2,1.1-2.1
					c0.6,0,1.2-0.5,1.6-1c0.2-0.2,0.4-0.4,0.5-0.6c0.1-0.3,0.2-0.6,0.1-0.9c-0.1-1-0.5-1.9-1.3-2.3c0.8-0.2,1.4-0.9,1.6-1.6
					c0.2-0.8,0.1-1.6-0.5-2.3c-0.3-0.4-0.8-0.6-1.2-0.8c0.4-0.3,0.8-0.5,1.1-0.8c0.4-0.5,0.2-1.3-0.3-1.8c-0.5-0.4-1.2-0.6-1.8-0.7
					c-1.2-0.1-2.4,0.1-3.6,0.1c-1.2,0-2.5-0.2-3.5-0.7c-0.2-1.6,0.1-3.2-0.3-4.7c-0.5-1.9-2.3-3.3-4.2-3.4c-0.4,0-0.8,0-1,0.3
					c-0.2,0.2-0.2,0.5-0.2,0.8c0,1.3,0.5,2.5,0.8,3.7c0.3,1.2,0.4,2.6-0.4,3.7c-0.3,0.4-0.7,0.7-0.9,1.2c-0.3,0.6-0.3,1.3-0.5,2
					c-0.2,0.7-0.7,1.4-1.4,1.3L493.4,167.8z"/>
			</g>
			<g>
				<g>
					<path class="st4" d="M492.8,169.1h-4.2c-0.3,0-0.6-0.3-0.6-0.6v-14.8c0-0.3,0.3-0.6,0.6-0.6h4.2c0.3,0,0.6,0.3,0.6,0.6v14.8
						C493.4,168.9,493.1,169.1,492.8,169.1z"/>
				</g>
				<g>
					<path class="st2" d="M491.2,155.1c0,0.4-0.3,0.7-0.7,0.7c-0.4,0-0.7-0.3-0.7-0.7s0.3-0.7,0.7-0.7
						C490.9,154.5,491.2,154.8,491.2,155.1z"/>
				</g>
			</g>
		</g>
	</g>
</g>
<g>
	<g>
		<g>
			<path class="st6" d="M495.6,387.8h-11.9c0.9,7.3,1.7,12.9,2,15.3c0,0-8.3,5.7-14,4.9c-0.3,0-0.6,0.1-0.8,0.3
				c-0.3,0.3-0.4,0.9,0.1,1.6c0.2,0.2,0.4,0.3,0.7,0.3h22.5c0.8,0,1.6-0.6,1.7-1.5c0.1-1,0.2-3.3-0.4-5.4L495.6,387.8z"/>
			<path class="st4" d="M482.5,405.1c0,0,2,1.3,2.3,2.7c0.2,0.7,2.3,0.6,4.4,0.3c2.1-0.3,4.1-1.2,5.9-2.5c0.3-0.2,0.6-0.4,0.9-0.3
				c0.8,0.2,0.7,4.8-0.2,5.2c-0.8,0.4-21.5,0.1-24.7,0c-0.3,0-0.5-0.2-0.5-0.5c0-0.8,0.1-2.4,1.3-2.5
				C473.5,407.2,482.5,405.1,482.5,405.1z"/>
		</g>
		<g>
			<path class="st6" d="M523.1,387.8h-11.9l2.9,15.6c-0.2,2.1,0.2,4.4,0.6,5.4c0.3,0.8,1.1,1.5,1.9,1.5h18.7c0-0.8,0-1.6,0-2.4
				c-5.3-1-11.5-4.8-11.5-4.8C523.7,400.7,523.4,395.1,523.1,387.8z"/>
			<path class="st4" d="M527.4,405.1c0,0-2,1.3-2.3,2.7c-0.2,0.7-2.3,0.6-4.4,0.3c-2.1-0.3-4.1-1.2-5.9-2.5
				c-0.3-0.2-0.6-0.4-0.9-0.3c-0.8,0.2-0.7,4.8,0.2,5.2c0.8,0.4,21.5,0.1,24.7,0c0.3,0,0.5-0.2,0.5-0.5c0-0.8-0.1-2.4-1.3-2.5
				C536.5,407.2,527.4,405.1,527.4,405.1z"/>
		</g>
	</g>
	<g>
		<g>
			<path class="st5" d="M481.4,248c0,0-6.9,6.3-6.3,11.4c0.6,5.1,5.3,20.6,3.9,31.2c-1.4,10.6-4.7,19.8-3.9,31
				c0.8,11.2,7.7,73.4,7.7,73.4s15.7-5.3,21.2-2.9c5.5,2.4,20.6,4.5,22.6,3.7c0,0-3.5-83.8-14.9-99.5c0,0-2-22.5-0.1-27.6
				c2-5-0.5-19-5.5-20.6C501.2,246.4,481.4,248,481.4,248z"/>
			<g>
				<g>
					<path class="st4" d="M486.5,255.8c3.9-0.5,7.7-0.9,11.4-1.6c1.9-0.3,3.7-0.7,5.6-1.2c1.9-0.5,3.7-1,5.5-1.6
						c-1.6,1.1-3.4,1.9-5.3,2.5c-1.9,0.6-3.8,1.1-5.7,1.4c-1.9,0.3-3.9,0.5-5.8,0.6C490.3,256.1,488.4,256,486.5,255.8z"/>
				</g>
				<g>
					<path class="st4" d="M490.8,355.7c2.7-3.2,5.3-6.4,7.8-9.7c2.5-3.3,4.9-6.7,7.3-10.2c-1.6,3.9-3.8,7.5-6.3,10.9
						C497,350,494.1,353.1,490.8,355.7z"/>
				</g>
				<g>
					<path class="st4" d="M498.9,354.1c0.6-1.8,1.4-3.4,2.3-4.9c0.9-1.5,2-3,3.3-4.3c-0.5,1.8-1.4,3.4-2.3,4.9
						C501.2,351.3,500.2,352.8,498.9,354.1z"/>
				</g>
			</g>
		</g>
		<g>
			<g>
				<g>
					<path class="st6" d="M499.2,291.8c0.1-1-6.3-2.7-6.1-3.3c0.2-0.6,1.8-0.8,2.7-0.8c0.2,0,0.3-0.1,0.3-0.3c0-0.4-0.2-0.9-1.1-1
						c-1.2-0.1-3.4-0.3-6.1,0.5c0,0,0,0,0,0c-0.3-0.2-3.2-1.7-7.4-4.1c-0.7,2.5-1.4,5.1-2.4,7.5c2.8,0.5,5.7,0.9,8.6,1.1v0l0,0
						c1.6,1.5,5.4,4.9,7.5,5.5c0.2,0.1,0.3-0.1,0.3-0.3c-0.1-0.4-0.6-1-2.1-2.2c0,0,3.7,1.6,4.4,1.3c0.7-0.3-3.8-2.9-3.8-2.9
						s4.4,1.3,4.9,0.8c0.5-0.5-4.3-2.6-4.3-2.6S499.2,292.2,499.2,291.8z"/>
					<path class="st5" d="M479.2,250c0,0-8.9,9.1-13.9,16.1c-5,7-6,10.9-4.8,15.3c1.2,4.4,8.9,6.9,11.1,7.6
						c2.2,0.7,13.3,2.8,13.3,2.8l1.8-6.5l-12.7-7.3l13.1-18.8L479.2,250z"/>
				</g>
				<g>
					<g>
						<path class="st4" d="M469.3,276.2c0.9,0,1.7,0.2,2.5,0.4c0.8,0.2,1.6,0.5,2.3,0.8l-0.7,0.8c-0.5-0.9-1-1.9-1.2-3
							c0.9,0.7,1.6,1.6,2.2,2.5l0.9,1.4l-1.6-0.6c-0.8-0.3-1.5-0.6-2.3-0.9C470.7,277.2,470,276.8,469.3,276.2z"/>
					</g>
					<g>
						<path class="st4" d="M480.6,270.6c0.5-1.2,1.3-2.1,2.2-2.9c0.9-0.8,1.8-1.6,3-2.1c-0.5,1.2-1.3,2.1-2.2,2.9
							C482.7,269.3,481.8,270.1,480.6,270.6z"/>
					</g>
				</g>
			</g>
			<g>
				<path class="st7" d="M513.4,295.5h-38.5v-23.2c0-0.9,0.7-1.7,1.7-1.7h35.2c0.9,0,1.7,0.7,1.7,1.7V295.5z"/>
				<rect x="474.9" y="295.1" class="st8" width="38.5" height="2.9"/>
				<path class="st2" d="M497.6,284.1c0,1.9-1.6,3.5-3.5,3.5c-1.9,0-3.5-1.6-3.5-3.5c0-1.9,1.6-3.5,3.5-3.5
					C496.1,280.6,497.6,282.1,497.6,284.1z"/>
			</g>
		</g>
		<g>
			<g>
				<path class="st6" d="M515.7,290.2l-0.6-0.8c-0.2,0-0.3,0.1-0.5,0.1c-0.2-0.2-0.5-0.3-0.7-0.5c-0.2,0.4-0.4,0.7-0.4,0.7
					c0,0,0,0,0,0c-2.7,0.8-4.5,2.2-5.4,3c-0.7,0.6-0.6,1.1-0.4,1.4c0.1,0.2,0.3,0.2,0.4,0.1c0.7-0.5,2.2-1.2,2.7-0.8
					c0.6,0.4-3.9,5.4-3.3,6.1c0.2,0.3,3.5-3.1,3.5-3.1s-2.8,4.4-2.1,4.5c0.7,0.1,3.6-3.4,3.6-3.4s-2.3,4.7-1.6,4.5
					c0.7-0.1,3-3.5,3-3.5c-0.6,1.8-0.7,2.6-0.6,3c0,0.2,0.2,0.2,0.4,0.1c1.4-1.7,2.7-6.6,3.3-8.7l0,0l0,0c0.5-0.4,1-0.8,1.4-1.2
					C517.4,291.3,516.5,290.8,515.7,290.2z"/>
				<path class="st5" d="M508,249.3c0,0,3.5,1.4,5.4,2.7c1.9,1.2,20.2,16.8,20.4,21.3c0.2,4.5-16,20.2-16,20.2l-4.2-4.2l6.5-13.7
					l-17.7-16.4L508,249.3z"/>
			</g>
			<g>
				<g>
					<path class="st4" d="M522.3,272.5c-0.2,0.7-0.4,1.3-0.7,1.8c-0.3,0.6-0.6,1.1-1,1.6l-0.9,1.1l-0.1-1.4c0-0.5,0-1,0-1.5
						c0-0.5,0.1-1,0.3-1.5c0.3,0.5,0.4,1,0.6,1.4c0.1,0.5,0.2,1,0.3,1.5l-1-0.3c0.3-0.5,0.8-1,1.2-1.5
						C521.3,273.3,521.7,272.9,522.3,272.5z"/>
				</g>
				<g>
					<path class="st4" d="M514.4,288.5c1,0.2,1.8,0.6,2.5,1.2c0.7,0.6,1.4,1.2,1.8,2.1c-1-0.2-1.8-0.6-2.5-1.2
						C515.5,290.1,514.8,289.4,514.4,288.5z"/>
				</g>
				<polygon class="st4" points="511.9,268.1 506,264.9 511.4,270.2 				"/>
			</g>
		</g>
	</g>
	<g>
		<g>
			<path class="st6" d="M507.5,229.2c-0.3-1.1-1.5-1.9-2.6-1.6c0.5-14.8-11.8-12.8-11.8-12.8c-7.7,0.7-8.6,8.9-8.5,13.1
				c-0.2-0.1-0.5-0.3-0.6-0.3c-1.1-0.3-2.3,0.6-2.6,1.6c-0.3,0.8-0.1,1.8,0.4,2.6c0.4,0.6,1.1,1.2,1.8,1.5c0.2,0.1,0.8,0.2,1.3,0.2
				c1.2,9.6,9.9,8.7,9.9,8.7c7.6,0.4,9.5-4.9,10-8.7c0.3,0,0.5-0.1,0.6-0.1c0.7-0.3,1.4-0.8,1.8-1.5
				C507.6,231,507.8,230,507.5,229.2z"/>
			<g>
				<g>
					<circle class="st9" cx="500.9" cy="232.9" r="2.5"/>
					<circle class="st9" cx="488.6" cy="232.9" r="2.5"/>
				</g>
				<g>
					<g>
						<g>
							<ellipse class="st4" cx="497.9" cy="228.1" rx="0.7" ry="1.5"/>
							<path class="st4" d="M499.3,226.1c-0.1,0.2-0.3,0.4-0.5,0.6c-0.2,0.2-0.5,0.3-0.7,0.4l0,0c-0.1,0-0.3-0.1-0.3-0.2
								c0-0.1,0.1-0.3,0.2-0.3c0,0,0,0,0.1,0c0.4,0,0.8-0.2,1.1-0.6l0,0c0,0,0.1,0,0.1,0C499.3,226.1,499.3,226.1,499.3,226.1z"/>
						</g>
						<g>
							<ellipse class="st4" cx="491.7" cy="228.1" rx="0.7" ry="1.5"/>
							<path class="st4" d="M490.4,226.1c0.3,0.4,0.7,0.6,1.1,0.6c0.1,0,0.3,0.1,0.3,0.3c0,0.1-0.1,0.3-0.3,0.3c0,0,0,0-0.1,0l0,0
								c-0.3-0.1-0.5-0.2-0.7-0.4c-0.2-0.2-0.4-0.4-0.5-0.6c0,0,0-0.1,0-0.1C490.3,226,490.3,226,490.4,226.1L490.4,226.1z"/>
						</g>
					</g>
				</g>
				<g>
					<g>
						<path class="st4" d="M497.5,232.5c-0.2,0.5-0.6,0.9-1.1,1.2c-0.5,0.3-1,0.5-1.6,0.5c-0.6,0-1.1-0.2-1.6-0.5
							c-0.2-0.2-0.4-0.4-0.6-0.5c-0.2-0.2-0.3-0.4-0.5-0.7c0.2,0.2,0.4,0.3,0.6,0.5c0.2,0.1,0.4,0.3,0.7,0.4
							c0.4,0.3,0.9,0.4,1.4,0.4c0.5,0,1-0.1,1.4-0.4C496.6,233.2,497.1,232.9,497.5,232.5z"/>
						<path class="st4" d="M495.5,235.1c-0.2,0.2-0.5,0.2-0.8,0.3c-0.3,0-0.5-0.1-0.8-0.3c0.3,0,0.5,0.1,0.8,0.1
							C495,235.2,495.3,235.1,495.5,235.1z"/>
					</g>
				</g>
				<g>
					<g>
						<path class="st4" d="M493,223c-0.3-0.3-0.7-0.4-1.1-0.4c-0.4,0-0.8,0-1.2,0.2c-0.4,0.1-0.7,0.3-1,0.6
							c-0.3,0.3-0.5,0.6-0.7,0.9c-0.1,0.2,0,0.4,0.1,0.5c0.1,0.1,0.3,0,0.4,0l0,0c0.2-0.2,0.5-0.4,0.7-0.6c0.2-0.2,0.5-0.2,0.8-0.3
							c0.3-0.1,0.6-0.1,0.8-0.1c0.3,0,0.6,0,0.9-0.1l0.1,0c0.2,0,0.3-0.2,0.3-0.4C493.1,223.1,493,223,493,223z"/>
						<path class="st4" d="M496.6,223c0.3-0.3,0.7-0.4,1.1-0.4c0.4,0,0.8,0,1.2,0.2c0.4,0.1,0.7,0.3,1,0.6c0.3,0.3,0.5,0.6,0.7,0.9
							c0.1,0.2,0,0.4-0.1,0.5c-0.1,0.1-0.3,0-0.4,0l0,0c-0.2-0.2-0.5-0.4-0.7-0.6c-0.2-0.2-0.5-0.2-0.8-0.3
							c-0.3-0.1-0.6-0.1-0.8-0.1c-0.3,0-0.6,0-0.9-0.1l-0.1,0c-0.2,0-0.3-0.2-0.3-0.4C496.5,223.1,496.5,223,496.6,223z"/>
					</g>
				</g>
				<path class="st4" d="M494.9,225.8c0.1,0.6,0.2,1.1,0.3,1.6c0.1,0.5,0.2,1.1,0.4,1.6c0,0.1,0.1,0.3,0.1,0.4
					c0,0.1,0.1,0.3,0.1,0.5c0,0.4-0.2,0.7-0.5,0.9c-0.3,0.2-0.7,0.1-0.9,0c-0.3-0.1-0.5-0.3-0.7-0.4c0.5,0.2,1.1,0.3,1.5,0.1
					c0.2-0.1,0.3-0.3,0.3-0.5c0-0.1,0-0.2-0.1-0.3c-0.1-0.1-0.1-0.3-0.1-0.4c-0.2-0.6-0.2-1.1-0.3-1.7
					C494.9,227,494.9,226.4,494.9,225.8z"/>
				<path class="st4" d="M482.2,230c0-0.3,0.1-0.7,0.4-1c0.3-0.3,0.8-0.2,1.1-0.1c0.4,0.1,0.7,0.4,0.9,0.6c0.2,0.3,0.4,0.6,0.6,0.9
					c0.1,0.1,0,0.3-0.1,0.3c-0.1,0-0.2,0-0.3-0.1l0,0c-0.2-0.2-0.5-0.5-0.8-0.6c-0.1,0-0.2,0-0.3,0c-0.1,0.1-0.2,0.2-0.2,0.4
					c-0.1,0.3-0.2,0.7,0.1,0.8c0.3,0.2,0.7,0.1,1.1,0.1c-0.4,0.2-0.7,0.3-1.2,0.2c-0.2-0.1-0.4-0.3-0.4-0.6c0-0.2,0-0.4,0.1-0.6
					c0.1-0.2,0.1-0.4,0.3-0.6c0.2-0.2,0.5-0.2,0.7-0.2c0.5,0.1,0.8,0.4,1.1,0.7l-0.4,0.2c-0.2-0.6-0.6-1.1-1.1-1.4
					c-0.3-0.1-0.6-0.2-0.8-0.1C482.5,229.3,482.3,229.6,482.2,230z"/>
				<path class="st4" d="M506.9,230c0-0.3-0.1-0.7-0.4-1c-0.3-0.3-0.8-0.2-1.1-0.1c-0.4,0.1-0.7,0.4-0.9,0.6
					c-0.2,0.3-0.4,0.6-0.6,0.9c-0.1,0.1,0,0.3,0.1,0.3c0.1,0,0.2,0,0.3-0.1l0,0c0.2-0.2,0.5-0.5,0.8-0.6c0.1,0,0.2,0,0.3,0
					c0.1,0.1,0.2,0.2,0.2,0.4c0.1,0.3,0.2,0.7-0.1,0.8c-0.3,0.2-0.7,0.1-1.1,0.1c0.4,0.2,0.7,0.3,1.2,0.2c0.2-0.1,0.4-0.3,0.4-0.6
					c0-0.2,0-0.4-0.1-0.6c-0.1-0.2-0.1-0.4-0.3-0.6c-0.2-0.2-0.5-0.2-0.7-0.2c-0.5,0.1-0.8,0.4-1.1,0.7l0.4,0.2
					c0.2-0.6,0.6-1.1,1.1-1.4c0.3-0.1,0.6-0.2,0.8-0.1C506.7,229.3,506.8,229.6,506.9,230z"/>
			</g>
		</g>
		<g>
			<path class="st4" d="M509.6,249.3c0,0-0.1,0-0.1,0c-2.7-0.8-4.3-3.6-3.7-6.4c1-4.9,2.6-13.7,2.3-16.1
				c-0.4-3.5-2.8-13.4-11.9-14.1c-9.2-0.7-14.8,5.4-15.9,14.3c-1.1,8.9,1.8,18.5,1.8,18.5c-0.1,1.4-4.8,5.8-6.1,7.1
				c-0.2,0.2-0.1,0.4,0.1,0.5c13.9,4.4,29.7-1.5,33.6-3.1C510,249.8,509.9,249.4,509.6,249.3z M494.8,241.4c-5.3,0-9.6-5-9.6-11.2
				c0-6.2,4.3-11.2,9.6-11.2c5.3,0,9.6,5,9.6,11.2C504.4,236.4,500.1,241.4,494.8,241.4z"/>
			<g>
				<g>
					<path class="st2" d="M477.6,252.4c2-0.7,4-1.5,6-2.3c2-0.8,3.9-1.7,5.8-2.7c1.9-1,3.7-2,5.5-3.2c1.7-1.2,3.4-2.6,4.9-4.1
						c-1.2,1.8-2.7,3.4-4.4,4.8c-1.7,1.4-3.6,2.5-5.5,3.5C486.1,250.4,481.9,251.8,477.6,252.4z"/>
				</g>
				<g>
					<path class="st2" d="M488.8,239.9c-1.3-0.4-2.4-1.2-3.4-2.2c-1-1-1.8-2.1-2.3-3.4c-0.5-1.3-0.8-2.6-0.8-4
						c-0.1-0.7,0.1-1.4,0.2-2c0.1-0.7,0.3-1.3,0.5-1.9c0,0.7,0,1.3,0,2c0.1,0.6,0,1.3,0.2,1.9l0.1,0.9l0.2,0.9
						c0.1,0.3,0.2,0.6,0.3,0.9c0.1,0.3,0.2,0.6,0.3,0.9c0.4,1.2,1.1,2.2,1.9,3.3C486.9,238.1,487.8,239,488.8,239.9z"/>
				</g>
				<path class="st2" d="M487.1,223.5c0,0,8.1-3.7,15.4,0C502.5,223.5,495,211.5,487.1,223.5z"/>
			</g>
		</g>
	</g>
</g>
<g>
	<g>
		<g>
			<g>
				<path class="st7" d="M418.4,410.6H221.8c-11.3,0-20.4-9.1-20.4-20.4V57.8c0-11.3,9.1-20.4,20.4-20.4h196.6
					c11.3,0,20.4,9.1,20.4,20.4v332.4C438.8,401.5,429.7,410.6,418.4,410.6z"/>
				<rect x="292.6" y="46.4" class="st10" width="55.1" height="4.1"/>
				<rect x="294" y="389.8" class="st10" width="52.2" height="10.6"/>
			</g>
			<g>
				<rect x="207.1" y="61.4" class="st2" width="226" height="321.5"/>
				<rect x="207.1" y="61.4" class="st4" width="226" height="12.2"/>
			</g>
		</g>
		<g>
			<circle class="st11" cx="227.2" cy="289.3" r="9.1"/>
			<circle class="st12" cx="227.2" cy="364.9" r="9.1"/>
			<circle class="st11" cx="252.3" cy="289.3" r="9.1"/>
			<rect x="266.5" y="282.3" class="st1" width="48.3" height="4.7"/>
			<g>
				<g>
					<rect x="219.8" y="304.3" class="st1" width="200.7" height="4.7"/>
					<rect x="219.8" y="313.9" class="st1" width="200.7" height="4.7"/>
					<rect x="219.8" y="323.5" class="st1" width="48.3" height="4.7"/>
				</g>
			</g>
			<rect x="240" y="357.5" class="st1" width="48.3" height="4.7"/>
			<ellipse transform="matrix(0.2306 -0.973 0.973 0.2306 61.0717 311.064)" class="st3" cx="227.2" cy="116.9" rx="9.1" ry="9.1"/>
			<rect x="240" y="109.5" class="st1" width="48.3" height="4.7"/>
			<rect x="266.5" y="291.1" class="st1" width="77.9" height="4.7"/>
		</g>
	</g>
	<g>
		<rect x="207.1" y="129.1" class="st3" width="226" height="146.8"/>
		<g>
			<defs>
				<polygon id="SVGID_1_" points="433.1,276 207.1,276 207.1,247 163.9,157.5 190,83.8 442.5,78.2 433.1,245 				"/>
			</defs>
			<clipPath id="SVGID_2_">
				<use xlink:href="#SVGID_1_"  style="overflow:visible;"/>
			</clipPath>
			<g class="st13">
				<g>
					<path class="st14" d="M370.5,289.1c-7.3,0-14.6-3.4-20.4-6c-7.5-3.5-12.4-12.9-10.8-21c1.1-5.6,5.2-10.4,10.3-11.8
						c0.5-0.2,1.1-0.3,1.7-0.4c0.9-0.2,1.7-0.4,2.4-0.7c2.8-1.1,5-4,5.9-7.7c0.8-3.2,0.5-6.6,0.3-9.9l0-0.5
						c-0.4-5.7-0.5-11.6,1.5-17.1c1.9-5.1,6.6-10.4,12.9-10.9c0.7-0.1,1.5,0,2.2,0c1,0,2,0,3-0.1c4.5-0.8,7.3-5.5,9.6-9.2
						c2.3-3.8,6-8.8,11.3-8.7c3.3,0.1,6.5,2.3,7.9,5.6c1.3,2.8,1.4,6.3,0.3,9.8c-0.3,1-0.7,2-1.1,2.9c-1.2,3-2.3,5.9-1.2,8.6
						c0.5,1.2,1.4,2.2,2.4,3.2c0.4,0.4,0.7,0.7,1,1.1c4.7,5.5,5.4,14.2,1.5,20.4c-2.6,4.1-6.7,6.9-10.7,9.6
						c-5,3.4-9.8,6.7-11.4,12.1c-0.8,2.8-0.6,5.8-0.4,8.9c0.2,2.7,0.4,5.4-0.1,8.1c-1.1,5.4-5.1,10.2-10.6,12.4
						C375.6,288.7,373,289.1,370.5,289.1z M375.5,204.3c-0.4,0-0.8,0-1.1,0c-5.7,0.4-10,5.4-11.8,10.1c-2,5.3-1.8,11.1-1.5,16.6
						l0,0.5c0.2,3.4,0.4,6.9-0.4,10.2c-1,4.1-3.4,7.3-6.6,8.5c-0.9,0.3-1.8,0.5-2.6,0.7c-0.5,0.1-1.1,0.2-1.6,0.4l0,0
						c-4.6,1.3-8.4,5.7-9.5,10.9c-1.5,7.4,3.2,16.4,10.1,19.6c7.6,3.5,18,8.3,27,4.5c5.1-2.1,8.9-6.5,9.8-11.5
						c0.5-2.5,0.3-5.2,0.1-7.8c-0.2-3.1-0.4-6.3,0.5-9.3c1.7-5.9,6.9-9.4,11.9-12.8c3.9-2.7,7.9-5.4,10.3-9.2
						c3.6-5.7,3-13.8-1.4-18.9c-0.3-0.4-0.7-0.7-1-1.1c-1-1.1-2-2.1-2.6-3.5c-1.3-3.1-0.1-6.4,1.2-9.5c0.4-0.9,0.8-1.9,1-2.8
						c1-3.2,0.9-6.4-0.2-8.9c-1.3-2.9-4-4.8-6.8-4.9c-4.7,0-8.1,4.6-10.2,8.1c-2.4,4-5.4,8.9-10.5,9.8c-1.1,0.2-2.2,0.2-3.2,0.1
						C376.1,204.3,375.8,204.3,375.5,204.3z"/>
				</g>
				<g>
					<path class="st14" d="M411.4,177.8c-2.3,0-4.1-1.9-4.1-4.1c0-2.3,1.9-4.1,4.1-4.1s4.1,1.9,4.1,4.1
						C415.6,175.9,413.7,177.8,411.4,177.8z M411.4,170.8c-1.6,0-2.9,1.3-2.9,2.9s1.3,2.9,2.9,2.9c1.6,0,2.9-1.3,2.9-2.9
						S413,170.8,411.4,170.8z"/>
				</g>
				<g>
					<path class="st14" d="M393.2,156.1c0,0.8-0.7,1.5-1.5,1.5c-0.8,0-1.5-0.7-1.5-1.5s0.7-1.5,1.5-1.5
						C392.6,154.5,393.2,155.2,393.2,156.1z"/>
				</g>
				<g>
					<circle class="st14" cx="228.8" cy="244.3" r="2"/>
				</g>
				<g>
					<path class="st14" d="M411.1,255.2c-2.1,0-3.8-1.7-3.8-3.8s1.7-3.8,3.8-3.8c2.1,0,3.8,1.7,3.8,3.8S413.2,255.2,411.1,255.2z
						 M411.1,248.8c-1.4,0-2.6,1.2-2.6,2.6c0,1.4,1.2,2.6,2.6,2.6c1.4,0,2.6-1.2,2.6-2.6C413.7,249.9,412.6,248.8,411.1,248.8z"/>
				</g>
			</g>
			<g class="st13">
				<g>
					<path class="st4" d="M286.3,243.8c0,0-11.8,19.6-15.3,36.5h79.7c0,0-6.1-29.4-13.1-36.3L286.3,243.8z"/>
					<g>
						<g>
							<path class="st2" d="M284.3,249.5c2.3-0.1,4.6-0.2,7-0.3l7-0.2c4.6-0.1,9.3-0.1,13.9-0.1c4.6,0,9.3,0,13.9,0.1l7,0.2
								c2.3,0.1,4.6,0.2,7,0.3c-2.3,0.1-4.6,0.2-7,0.3l-7,0.2c-4.6,0.1-9.3,0.1-13.9,0.1c-4.6,0-9.3,0-13.9-0.1l-7-0.2
								C289,249.7,286.7,249.7,284.3,249.5z"/>
						</g>
						<g>
							<path class="st2" d="M292.4,250c-0.3,1.5-0.8,3-1.5,4.4c-0.7,1.4-1.5,2.7-2.6,4c-1,1.2-2.3,2.3-3.8,2.9
								c-1.5,0.7-3.2,0.8-4.7,0.3c1.6,0,3-0.4,4.3-1.1c1.3-0.7,2.3-1.8,3.3-2.9c1-1.1,1.8-2.4,2.6-3.6
								C290.9,252.7,291.7,251.3,292.4,250z"/>
						</g>
						<g>
							<path class="st2" d="M316.3,249.4c0.2,3.9,0.3,7.9,0.4,11.8l0.1,5.9l0,5.9l0,0.2l-0.2,0.2c-2.1,2.2-4.2,4.3-6.4,6.5l-1,1
								l0-1.4c0.1-5,0-9.9,0.1-14.9c0.1-5,0.2-9.9,0.4-14.9c0.2,5,0.3,9.9,0.4,14.9c0.1,5,0.1,9.9,0.1,14.9l-1-0.4
								c2.1-2.2,4.3-4.3,6.5-6.4l-0.2,0.4l0-5.9l0.1-5.9C316,257.2,316.1,253.3,316.3,249.4z"/>
						</g>
						<g>
							<path class="st2" d="M334.4,249.5c0.2,1.4,0.4,2.8,0.7,4.1c0.4,1.3,0.8,2.6,1.6,3.7c0.7,1.1,1.8,1.9,3,2.4
								c0.3,0.1,0.6,0.3,0.9,0.3l1,0.2c0.7,0.1,1.4,0.1,2.1,0.2c-1.4,0.4-2.9,0.6-4.3,0.2c-1.5-0.4-2.8-1.3-3.7-2.6
								c-0.8-1.3-1.3-2.7-1.5-4.2C334,252.4,334,250.9,334.4,249.5z"/>
						</g>
					</g>
				</g>
				<g>
					<g>
						<g>
							<g>
								<g>
									<path class="st15" d="M378,163.3l-9.8,0.3c0,0-3.2,14.5-7.5,33.8c-1.4-2.3-2.8-4.5-4-6.5c-4.4,8.6-9.8,16.6-15.6,24.3
										c3.3,5.6,7.1,11.7,11.3,18c0.1,0.1,0.1,0.2,0.2,0.3c7.6,11.2,25.1,7.1,26.9-6.3c0-0.2,0-0.3,0.1-0.5
										C382.2,206.6,382.7,184.5,378,163.3z"/>
									<path class="st16" d="M372.2,148.8c-0.2-2.6-0.6-5.2-1-5.2c-0.7,0.1-1.1,1.9-1.4,4.2C370.6,148.1,371.4,148.4,372.2,148.8z
										"/>
									<path class="st16" d="M376.4,151.9c0-2.8-0.2-8.1-1.2-8.6c-0.7-0.4-1.5,3.1-2,6C374.4,150,375.5,150.9,376.4,151.9z"/>
									<path class="st15" d="M383.2,148.3c-0.7,0.5-1.8,1.8-3.2,5.5c0,0,1-8.4,0-9.6c-0.8-0.9-2.6,5.5-3.4,8.2
										c0.5,0.6,0.8,1.3,1,2c0.3,1.1,0.4,2.1,0.3,2.9c1.2,3.2-0.8,6.9-4.1,8c-1.3,0.5-2.7,0.5-4,0.3c-1,0.4-2.1,0.5-3.2,0.3
										c0.8,1.3,1.7,2.7,2.8,4l6.9-1.3c0,0,7.5-14.2,7.6-20.1C383.9,148.2,383.5,148,383.2,148.3z"/>
								</g>
								<g>
									<g>
										<path class="st4" d="M359.2,212.7c-0.1-2.6,0.1-5.1,0.2-7.6c0.1-1.3,0.2-2.5,0.3-3.8c0.1-1.3,0.3-2.5,0.5-3.8l0.9,0.3
											c-1.2,1.9-2.5,3.8-3.9,5.6c0.9-2.1,2-4.1,3-6.1l1.1-2l-0.1,2.3c-0.1,1.3-0.2,2.5-0.3,3.8c-0.1,1.3-0.3,2.5-0.4,3.8
											C360.1,207.6,359.8,210.2,359.2,212.7z"/>
									</g>
								</g>
							</g>
							<g>
								<g>
									<g>
										<path class="st7" d="M362.7,144.7l11.8,22.1c0.5,1,1.6,1.4,2.6,1.1c2.2-0.6,5.6-2,6.5-4.8c1.3-4.1-9.4-24.8-9.4-24.8
											L362.7,144.7z"/>
										<path class="st17" d="M350,116l-4,1.2c-1.2,0.4-2,1.5-1.8,2.8c0.5,3.6,2.1,11.5,6.7,22c0.5,1.2,1.8,1.8,3,1.4l3.5-1.1
											L350,116z"/>
										<g>
											<path class="st0" d="M369.6,105.3l-18.8,5.6c-2.8,0.8-2.7,9.3,0.2,19c2.9,9.7,7.5,16.9,10.2,16l18.8-5.6L369.6,105.3z"/>
											<path class="st12" d="M379.9,121.4c2.9,9.7,3,18.2,0.2,19c-2.8,0.8-7.4-6.3-10.2-16c-2.9-9.7-3-18.2-0.2-19
												C372.4,104.5,377,111.7,379.9,121.4z"/>
										</g>
										<path class="st7" d="M405.1,82.7l-34.8,26.9l0.1,2.4c0.4,9.1,3.4,18.2,8.3,25.7l0,0l43.4,0.3L405.1,82.7z"/>
										<path class="st18" d="M428.1,106c4.6,15.4,2.7,29.6-4.4,31.8c-5.5,1.6-12.3-4.5-17.3-14.5c-1.4-2.9-2.7-6.2-3.8-9.6
											c-0.9-3.1-1.6-6.2-2-9.2c-1.6-11.5,0.8-20.9,6.4-22.6C414,79.8,423.4,90.6,428.1,106z"/>
										<path class="st19" d="M413.7,110.3c2.9,9.6,3.2,18.7,1.3,24.7c-4.9-4-9.6-11.8-12.5-21.4c-2.9-9.6-3.2-18.7-1.3-24.7
											C406.1,92.9,410.8,100.7,413.7,110.3z"/>
										<g>
											<path class="st20" d="M413.8,103.4l3.8,12.6l-11.3,7.3c-1.4-2.9-2.7-6.2-3.8-9.6c-0.9-3.1-1.6-6.2-2-9.2L413.8,103.4z"/>
											<path class="st0" d="M418.6,108.8c1,3.5,0.6,6.7-1,7.2c-1.6,0.5-3.7-2-4.8-5.4s-0.6-6.7,1-7.2
												C415.4,102.9,417.6,105.4,418.6,108.8z"/>
										</g>
									</g>
									<g>
										<g>
											<path class="st4" d="M373.8,107.5c0.5,2.7,1,5.3,1.6,7.9c0.6,2.6,1.3,5.2,2.1,7.8c0.8,2.5,1.7,5.1,2.9,7.5
												c1.2,2.4,2.5,4.7,4.1,6.9c-2-1.9-3.6-4.1-5-6.5c-1.3-2.4-2.3-5-3.2-7.5c-0.8-2.6-1.4-5.3-1.9-7.9
												C374,113,373.8,110.2,373.8,107.5z"/>
										</g>
										<g>
											<path class="st4" d="M358.6,142.4c2.5-1.2,5.1-2.1,7.7-2.9c2.6-0.8,5.3-1.4,8-1.8c-2.5,1.2-5.1,2.1-7.7,2.9
												C364,141.4,361.3,142.1,358.6,142.4z"/>
										</g>
										<g>
											<path class="st4" d="M417,109c0.2,0.6,0.3,1.2,0.3,1.9c0,0.3,0.1,0.6,0,1c0,0.2-0.1,0.3-0.1,0.5
												c-0.1,0.2-0.2,0.4-0.5,0.5c-0.3,0.1-0.5,0-0.7-0.1c-0.2-0.1-0.3-0.2-0.5-0.3c-0.3-0.3-0.5-0.5-0.6-0.8
												c-0.4-0.6-0.6-1.2-0.8-1.9c-0.1-0.7-0.2-1.3-0.2-2c0-0.3,0.1-0.7,0.2-1c0.1-0.2,0.1-0.3,0.3-0.5c0.1-0.2,0.3-0.4,0.6-0.4
												c0.3,0,0.5,0.1,0.6,0.2c0.2,0.1,0.3,0.3,0.4,0.4c0.2,0.3,0.3,0.6,0.4,0.9C416.7,107.7,416.9,108.3,417,109z M417,109
												c-0.2-0.6-0.4-1.2-0.7-1.7c-0.2-0.3-0.4-0.5-0.6-0.7c-0.2-0.2-0.5-0.3-0.6-0.3c-0.1,0-0.2,0.3-0.2,0.5c0,0.3,0,0.6,0,0.8
												c0.1,0.6,0.2,1.2,0.3,1.7c0.1,0.6,0.3,1.1,0.5,1.7c0.1,0.3,0.2,0.5,0.4,0.8c0.1,0.2,0.3,0.4,0.4,0.4
												c0.1,0,0.3-0.2,0.4-0.5c0.1-0.3,0.2-0.6,0.2-0.9C417.2,110.2,417.1,109.6,417,109z"/>
										</g>
										<g>
											<path class="st4" d="M408,83.1c2.8,0.6,5.4,1.9,7.6,3.6c1.1,0.9,2.1,1.9,3,3c0.9,1.1,1.6,2.4,2.4,3.6
												c2.9,4.9,5.2,10.1,7,15.5c0.8,2.7,1.5,5.5,1.8,8.3c0.4,2.8,0.5,5.7,0,8.6c-0.5,2.8-1.3,5.6-2.9,8c-0.9,1.2-2,2.2-3.3,2.7
												c-1.3,0.5-2.9,0.5-4.2,0c0.7,0.2,1.4,0.3,2.1,0.2c0.7,0,1.4-0.2,2-0.5c1.3-0.6,2.2-1.6,3-2.8c1.4-2.3,2.1-5.1,2.5-7.8
												c0.7-5.5-0.4-11.1-2.1-16.4c-1.6-5.3-3.9-10.5-6.6-15.4c-0.7-1.2-1.4-2.5-2.2-3.6c-0.8-1.1-1.7-2.1-2.8-3
												C413.2,85.3,410.7,83.9,408,83.1z"/>
										</g>
									</g>
								</g>
								<path class="st15" d="M367.6,168.2c0,0-4.1-9-3.7-11c0.4-2,5-7,7.2-6.2c2.2,0.8-1.2,7.1-1.2,7.1s5.5,6.6,4.8,10
									C374.3,171.4,367.6,168.2,367.6,168.2z"/>
							</g>
						</g>
						<path class="st5" d="M327.8,160.9c0,0,17.8,9.4,20.8,13.1c3.1,3.7,11.2,21,11.2,21l-17.7,23.9
							C342.2,218.9,323.2,190.6,327.8,160.9z"/>
					</g>
					<g>
						<g>
							<path class="st15" d="M331.4,167.1c-0.8-1.3-1-2.5-0.9-3.6c-1-0.7-1.9-1.5-2.7-2.5c-0.3-1.1-1-3.9-1.6-7
								c-0.5-2.8-0.8-5.9-0.6-8.3v0c0.1-1.2,0.4-2.2,0.8-3l-27-15.2c0,0.1,0,0.2,0.1,0.3c0.4,2.5,3.7,22.2,0.3,32.6
								c-2,0.9-4.5,1.6-7.6,1.7c-3.3,0.1-6.6,1.3-9,3.6c-2.6,2.5-5,6.6-5,13.6c2.5,0.3,4.9,0.8,7.4,1.2c7.4,1.3,14.7,2.7,22.1,4
								c9.5,1.6,19.3,1.9,28.9,3C336.2,180.3,334.8,172.8,331.4,167.1z"/>
							<path class="st21" d="M326.2,153.9c-14.7,1.9-22.1-15.7-22.4-16.3c2.7,4.3,6.6,6.5,10.5,7.5c4.7,1.3,9.3,0.9,11.2,0.6
								c0,0,0.1,0,0.1,0C325.4,148.1,325.7,151.1,326.2,153.9z"/>
						</g>
						<g>
							<path class="st5" d="M299.1,160.1c0,0,17.3,19.2,22.4,16.1c5.1-3.1,6.4-14.8,6.4-14.8s17.5,15.2,19.9,20.1
								c2.4,4.9,2.2,14.5-3.9,29.6s-3.8,35.5-3.8,35.5h-55.9c0,0,4.7-9.8,3.3-21.2c-1.4-11.4-14.9-47.9-14.9-47.9
								S270,160.8,299.1,160.1z"/>
							<g>
								<g>
									<path class="st4" d="M298.6,162.2c1.4,1.5,2.7,3,4.2,4.4c1.4,1.4,2.9,2.8,4.4,4.2c1.5,1.3,3.1,2.6,4.7,3.7
										c1.6,1.1,3.3,2.2,5.2,2.9c1.8,0.7,3.8,0.9,5.5,0.2c1.8-0.7,3-2.2,4-4c0.9-1.7,1.5-3.7,1.8-5.7c0.4-2,0.6-4,0.6-6
										c0.3,4,0,8.2-1.6,12.1c-0.8,1.9-2.3,3.7-4.3,4.6c-1,0.4-2.1,0.6-3.2,0.6c-1.1-0.1-2.1-0.3-3.1-0.7c-2-0.8-3.8-1.8-5.4-3.1
										c-1.7-1.2-3.2-2.6-4.7-4C303.7,168.6,301,165.5,298.6,162.2z"/>
								</g>
								<g>
									<path class="st4" d="M339,184.8c0.9,2.7,2.2,5.2,3.6,7.7c1.3,2.5,2.5,5.3,2.8,8.2c0.3,2.9-0.1,5.9-0.9,8.7
										c-0.8,2.8-1.9,5.4-3.1,8c0.8-2.8,1.6-5.5,2.2-8.2c0.6-2.8,0.9-5.6,0.6-8.3c-0.2-2.8-1.3-5.4-2.5-8c-0.6-1.3-1.1-2.6-1.6-4
										C339.6,187.5,339.2,186.2,339,184.8z"/>
								</g>
								<g>
									<path class="st4" d="M312.8,216.8c2-0.7,4.1-0.8,6.1-0.7c2.1,0.2,4.1,0.7,5.9,1.7c-2.1-0.1-4-0.4-6-0.5
										C316.8,217.1,314.8,217.1,312.8,216.8z"/>
								</g>
							</g>
						</g>
					</g>
					<g>
						<g>
							<g>
								<path class="st15" d="M266.8,211.8c-1.1-1.1-2.3-2.1-3.4-3.2c-5.3-5-10.7-9.7-15.9-14.7c-1.5,1.6-2.9,3.2-4.4,4.9
									c-3.4,3.8-6.8,7.8-10.2,12.1c-4.4,5.5-4.5,13.2-0.4,18.8c2.7,3.8,5.6,7.5,8.6,11.1c8.8,10.7,18.9,20.7,30.3,29l7.1-6.8
									c0,0-10-17.9-22-39.8C260,219.4,263.5,215.6,266.8,211.8z"/>
								<path class="st15" d="M270.9,267.9c0,0,3.8,15.6,7.7,20.1c0.2,0.3,0.7,0.2,0.7-0.2c0.2-0.8,0.1-2.5-1.3-6.2
									c0,0,4.9,6.9,6.4,7.2c1.5,0.3-3.4-9.4-3.4-9.4s6.3,7.2,7.7,6.9c1.4-0.3-4.7-9.3-4.7-9.3s6.9,7,7.4,6.4
									c1.2-1.6-8.3-11.8-7.1-12.7c1-0.8,4.2,0.6,5.6,1.6c0.3,0.2,0.7,0.1,0.9-0.2c0.3-0.7,0.5-1.8-0.9-3
									c-2.3-1.8-7.2-5.5-14.7-6.7L270.9,267.9z"/>
							</g>
							<g>
								<path class="st4" d="M251.8,218.7c1.1,0.5,2,1.2,2.8,1.9c0.8,0.8,1.5,1.6,1.9,2.8c-1.1-0.5-2-1.2-2.8-1.9
									C253,220.6,252.3,219.8,251.8,218.7z"/>
							</g>
						</g>
						<g>
							<path class="st5" d="M242.6,198.1l20.4,18.8l25.7-26.5c0,0,1.7-27.5-3.8-28C276.7,161.6,250.4,186.9,242.6,198.1z"/>
							<polygon class="st4" points="280.1,199.2 290.5,189.4 282.9,208.3 							"/>
						</g>
					</g>
				</g>
				<g>
					<g>
						<path class="st15" d="M340,121c-0.3-8-1.3-16.2-4-23.2c-3.5-9.1-20.2-12.6-31.8-2.5c-5.4,4.7-6.5,13.2-6.2,20.9
							c-0.3-0.1-0.5-0.2-0.7-0.3c-2.4-0.6-4.7,1.2-5.4,3.4c-0.6,1.8-0.2,3.8,0.8,5.3c0.8,1.3,2.2,2.5,3.7,3.1c0.4,0.1,2,0.4,3.1,0.3
							c1.1,5.1,3.7,9.8,7.7,13.1c5.1,4.2,11.6,5.9,18,4.6c5-1,12.4-4.3,14.3-9.5c0.5-1.4,0.5-2.8,0.5-4.3c0-0.3,0-0.7,0-1
							C340.2,127.8,340.2,124.4,340,121z"/>
						<g>
							<g>
								<path class="st21" d="M340.1,131c-0.4,0.1-0.9,0.2-1.3,0.2c-2.8,0-5.2-2.3-5.2-5.2c0-2.8,2.3-5.2,5.2-5.2
									c0.4,0,0.8,0.1,1.2,0.2C340.2,124.4,340.2,127.8,340.1,131z"/>
								<path class="st21" d="M308,126c0,2.8,2.3,5.2,5.2,5.2c2.8,0,5.2-2.3,5.2-5.2c0-2.8-2.3-5.2-5.2-5.2
									C310.3,120.9,308,123.2,308,126z"/>
							</g>
							<g>
								<g>
									<path class="st4" d="M330.9,116c0,1.7,0.7,3,1.5,3c0.8,0,1.5-1.4,1.5-3c0-1.7-0.7-3-1.5-3C331.6,113,330.9,114.3,330.9,116
										z"/>
									<path class="st4" d="M335.5,112c-0.3,0.5-0.6,0.9-1,1.3c-0.4,0.4-1,0.7-1.6,0.8l0,0c-0.3,0.1-0.6-0.1-0.7-0.4
										c-0.1-0.3,0.1-0.6,0.4-0.7c0,0,0.1,0,0.1,0c0.8,0,1.8-0.5,2.4-1.2l0,0c0.1-0.1,0.2-0.1,0.3,0
										C335.5,111.8,335.5,111.9,335.5,112z"/>
								</g>
								<g>
									<g>
										<path class="st4" d="M314.2,115.6c0.6,0.7,1.6,1.2,2.4,1.2c0.3,0,0.6,0.2,0.6,0.5c0,0.3-0.2,0.6-0.5,0.6c0,0-0.1,0-0.1,0
											l0,0c-0.6-0.1-1.1-0.4-1.6-0.8c-0.4-0.4-0.8-0.8-1-1.3c0-0.1,0-0.2,0.1-0.2C314,115.5,314.1,115.5,314.2,115.6
											L314.2,115.6z"/>
									</g>
									<path class="st4" d="M316.1,116.9c0.5-0.6,1.1-0.9,1.7-1.2c0.6-0.3,1.3-0.4,2-0.4c0.7,0.1,1.3,0.3,1.9,0.6
										c0.3,0.1,0.6,0.3,0.8,0.5l0.7,0.6c0.1,0.1,0.2,0.3,0,0.5c-0.1,0.1-0.3,0.2-0.4,0.1l0,0l-0.7-0.5c-0.3-0.1-0.5-0.3-0.8-0.4
										c-0.5-0.2-1.1-0.3-1.6-0.3c-0.5,0-1.1,0.1-1.5,0.4c-0.5,0.2-0.9,0.6-1.2,1l0,0c-0.2,0.3-0.6,0.3-0.9,0.1
										C315.9,117.6,315.9,117.2,316.1,116.9C316.1,116.9,316.1,116.9,316.1,116.9z"/>
								</g>
							</g>
							<g>
								<path class="st4" d="M331.6,125.2c-0.5,1-1.3,1.9-2.2,2.6c-0.9,0.7-2.1,1.1-3.3,1.1c-1.2,0-2.4-0.4-3.3-1.1
									c-0.5-0.3-0.9-0.8-1.3-1.1c-0.4-0.5-0.7-0.9-1-1.4c0.5,0.3,0.9,0.7,1.3,1c0.5,0.3,0.9,0.6,1.4,0.9c0.9,0.5,1.9,0.8,2.9,0.8
									c1,0,2-0.3,3-0.8C329.9,126.7,330.8,126,331.6,125.2z"/>
								<path class="st4" d="M327.5,130.6c-0.4,0.4-1,0.5-1.6,0.5c-0.6,0-1.1-0.2-1.6-0.5c0.6,0.1,1.1,0.2,1.6,0.2
									C326.5,130.8,327,130.7,327.5,130.6z"/>
							</g>
							<g>
								<path class="st4" d="M322.3,105.4c-0.7-0.6-1.5-0.8-2.3-0.9c-0.8,0-1.7,0.1-2.5,0.3c-0.8,0.2-1.5,0.7-2.2,1.2
									c-0.6,0.5-1.1,1.2-1.5,1.9c-0.2,0.3-0.1,0.8,0.3,1c0.3,0.2,0.6,0.1,0.8-0.1l0.1-0.1c0.5-0.4,1-0.9,1.5-1.2
									c0.5-0.3,1.1-0.5,1.6-0.7c0.6-0.1,1.2-0.2,1.8-0.2c0.6,0,1.2,0.1,1.9-0.1l0.2,0c0.4-0.1,0.6-0.5,0.5-0.9
									C322.4,105.7,322.4,105.5,322.3,105.4z"/>
								<path class="st4" d="M329.7,105.4c0.7-0.6,1.5-0.8,2.3-0.9c0.8,0,1.7,0.1,2.5,0.3c0.8,0.2,1.5,0.7,2.2,1.2
									c0.6,0.5,1.1,1.2,1.5,1.9c0.2,0.3,0.1,0.8-0.3,1c-0.3,0.2-0.6,0.1-0.8-0.1l-0.1-0.1c-0.5-0.4-1-0.9-1.5-1.2
									c-0.5-0.3-1.1-0.5-1.6-0.7c-0.6-0.1-1.2-0.2-1.8-0.2c-0.6,0-1.2,0.1-1.9-0.1l-0.2,0c-0.4-0.1-0.6-0.5-0.5-0.9
									C329.5,105.7,329.6,105.5,329.7,105.4z"/>
							</g>
							<path class="st4" d="M326.3,111.4c0.3,1.1,0.5,2.3,0.7,3.4c0.2,1.1,0.4,2.3,0.7,3.3c0.1,0.3,0.2,0.5,0.3,0.8
								c0.1,0.2,0.3,0.6,0.3,1c0,0.8-0.4,1.5-1.1,1.8c-0.6,0.4-1.4,0.3-1.9,0.1c-0.6-0.2-1.1-0.5-1.5-0.9c1.1,0.4,2.3,0.7,3.1,0.1
								c0.4-0.3,0.6-0.7,0.5-1.1c0-0.2-0.1-0.4-0.2-0.7c-0.1-0.3-0.2-0.6-0.3-0.9c-0.3-1.2-0.5-2.3-0.6-3.5
								C326.1,113.7,326.2,112.5,326.3,111.4z"/>
							<path class="st4" d="M293.8,121c0-0.7,0.2-1.5,0.8-2c0.7-0.5,1.6-0.5,2.3-0.2c0.8,0.3,1.4,0.8,1.9,1.4
								c0.5,0.6,0.9,1.2,1.2,1.9c0.1,0.3,0,0.6-0.3,0.7c-0.2,0.1-0.4,0-0.6-0.1l0,0c-0.5-0.5-1.1-1-1.7-1.2
								c-0.3-0.1-0.5-0.1-0.7,0.1c-0.2,0.1-0.4,0.5-0.5,0.8c-0.3,0.7-0.4,1.5,0.2,1.8c0.6,0.3,1.5,0.3,2.3,0.2
								c-0.7,0.3-1.6,0.6-2.5,0.3c-0.5-0.2-0.8-0.7-0.9-1.2c0-0.5,0-0.9,0.1-1.3c0.1-0.4,0.3-0.9,0.7-1.2c0.4-0.4,1.1-0.5,1.6-0.3
								c1,0.3,1.6,0.8,2.2,1.5l-0.9,0.5c-0.5-1.2-1.2-2.4-2.3-2.9c-0.6-0.3-1.2-0.4-1.7-0.1C294.3,119.6,294,120.3,293.8,121z"/>
						</g>
					</g>
					<path class="st4" d="M337.5,100.4c-0.7-2.9-1.9-5.5-3.9-7.7c-4.3-4.7-11.2-6-17.6-6.2c-4.3-0.1-8.7,0.2-12.6,2.1
						c-6.1,2.9-9.8,9.2-14.3,14.3c-6.7,7.6-15.8,13-25.7,15.3c-8.1,1.9-16.5,1.6-24.8,2.4c-8.3,0.7-16.8,2.6-23.2,8
						c-4.9,4.2-8.3,10.2-14.1,13.2c-3.2,1.6-6.8,2.1-10.4,2.6l-5.8,0.8c-8.6,1.1-13.5,10.8-8.9,18.2c0,0,0.1,0.1,0.1,0.2
						c3,4.8,7.8,8.5,9.6,13.8c1.7,4.9,0.5,10.2,0.9,15.4c0.6,8.1,5.2,15.6,11.6,20.6c6.4,5,14.3,7.7,22.4,8.6
						c2.9,0.3,5.9,0.4,8.9,0.3c-0.4-3.9,0.7-8,3.3-11.2c3.4-4.3,6.9-8.3,10.2-12.1c0-0.1,0.1-0.1,0.2-0.2l-0.6-0.6
						c7.7-11.2,34.1-36.5,42.2-35.8c2-0.5,3.8-0.4,5.5-0.1c0.6-0.1,1.2-0.1,1.8-0.2c3.1-0.1,5.6-0.8,7.6-1.7
						c3.2-10.1,0.3-28.9-0.3-32.4c-1.2,0.1-2.7-0.2-3.1-0.3c-1.4-0.6-2.8-1.8-3.6-3.1c-1-1.6-1.4-3.5-0.8-5.3c0.7-2,2.7-3.7,4.9-3.5
						c1,1.7,2.3,3.4,3.7,4.8c0.4,0.4,1,0.9,1.6,0.9c0.8,0,1.3-0.9,1.7-1.6c0.5-0.9,1.3-1.9,1.8-2.8c5.8,0.3,11.7-2.2,15.4-6.7
						c1.1-1.4,2.1-2.9,3-4.4c1.2-2,2.5-4.1,3.7-6.1c2.7,3.1,7.1,8.6,11.2,9.1C338.9,108.9,339,104.9,337.5,100.4z"/>
				</g>
			</g>
		</g>
	</g>
</g>
<g>
	<g>
		<g>
			<path class="st16" d="M142.3,377.2c-2.1,0.8-3.9,1.4-5.1,1.8c0,0,0,0,0,0c-2.8-1.5-5.4-1.7-6.7-1.8c-0.9-0.1-1.2,0.4-1.3,0.8
				c0,0.2,0.1,0.3,0.3,0.4c0.9,0.1,2.5,0.6,2.6,1.2c0.2,0.7-6.7,1.4-6.7,2.4c0,0.4,4.8,0,4.8,0s-5.1,1.4-4.7,1.9
				c0.4,0.6,5.1-0.1,5.1-0.1s-5,2-4.3,2.4c0.7,0.4,4.7-0.6,4.7-0.6c-1.7,0.9-2.3,1.6-2.5,1.9c-0.1,0.2,0,0.3,0.2,0.3
				c1.8-0.3,5-2.1,7.1-3.5l0,0l0,0.1c2.9,0.3,5.7,0.3,8.6,0.3C143.5,382.3,142.9,379.8,142.3,377.2z"/>
			<path class="st5" d="M173.4,344.3l-12.5,25.8l-23.2,7.8l0.9,7.8c0,0,27.5-1.7,32-6.1c4.4-4.4,12.8-25.8,13.2-28
				C184,349.5,173.4,344.3,173.4,344.3z"/>
		</g>
		<path class="st5" d="M181.2,340.5c0,0-5.8,5.9-5.6,10.6c0.2,4.7,0.6,30.3,0.6,30.3l-2.4,1.1l-4.9-1.8c0,0,2.4-27.1,2.4-30
			c0.1-2.9,0.9-7.3,3.7-8.6C177.8,341,181.2,340.5,181.2,340.5z"/>
	</g>
	<g>
		<g>
			<g>
				<path class="st22" d="M105.8,392.4c-10.3,1.3-17.4,2.3-17.4,2.3l-2.3,9.8l20.7,0.2C106.3,400.6,106,396.5,105.8,392.4z"/>
			</g>
			<path class="st5" d="M89.9,394.2c0,0-2.2-2.3-3.1-4.3c-0.9-2-0.4-11-4.9-10.4v20.8l1.9,1.9h-2.1v4.2c0,0,4.6,1.6,7.4,0.1
				c0,0-2.7-3-1.5-6.3C88.8,396.8,89.9,394.2,89.9,394.2z"/>
			<path class="st3" d="M100.5,391.7v14h99.1c0,0-3.5-20-11.5-22.5C180,380.6,100.5,391.7,100.5,391.7z"/>
		</g>
		<g>
			<g>
				<g>
					<path class="st23" d="M108.4,389.3l-14.4,8l-1.2,6.9l3.3,3.9l3.2-1.1c0,0,0,0,0.2-0.1c1-0.4,7-2.9,15.4-6.4
						C112.5,396.9,110.4,393.2,108.4,389.3z"/>
				</g>
				<path class="st5" d="M94.3,396.1c0,0-3-1-4.7-2.4c-1.7-1.4-5.4-9.6-9.1-7l9.6,18.5l2.5,0.8l-1.8,0.9l1.9,3.7
					c0,0,4.8-0.7,6.6-3.3c0,0-3.8-1.4-4.2-4.9C94.5,398.9,94.3,396.1,94.3,396.1z"/>
			</g>
			<g>
				<path class="st3" d="M100.3,392.6l5.8,11.9l36.6-14.5c0,0,42.1,23.4,53.4,19c11.3-4.4,11.9-26.2,7.3-28.8
					c-4.6-2.6-29.6,0.9-29.6,0.9l-1.3,1.1c0,0-24.9-10.6-30.9-10.2C135.7,372.2,100.3,392.6,100.3,392.6z"/>
				<g>
					<g>
						<path class="st4" d="M106.6,404.1c2.9-1.4,5.9-2.7,8.9-3.9c3-1.3,6-2.5,9-3.7c3-1.2,6-2.4,9.1-3.5c3.1-1.1,6.1-2.2,9.2-3.3
							l-0.1,0.3c-0.6-0.8-1.2-1.7-1.8-2.6c0.7,0.8,1.4,1.5,2.1,2.3l0.2,0.2l-0.2,0.1c-3,1.4-6,2.6-8.9,3.9c-3,1.2-6,2.4-9,3.6
							c-3,1.2-6.1,2.3-9.1,3.4C112.8,402,109.7,403.1,106.6,404.1z"/>
					</g>
					<g>
						<path class="st4" d="M176.5,405.6c-1.5-0.5-2.9-1.1-4.3-1.7l-4.3-1.8c-2.8-1.2-5.7-2.5-8.5-3.8c-2.8-1.3-5.6-2.7-8.4-4.1
							l-4.1-2.1c-1.4-0.7-2.7-1.5-4.1-2.2c1.5,0.5,2.9,1.1,4.3,1.7l4.3,1.8c2.8,1.2,5.7,2.5,8.5,3.8c2.8,1.3,5.6,2.7,8.4,4.1
							l4.1,2.1C173.8,404.1,175.2,404.8,176.5,405.6z"/>
					</g>
					<g>
						<path class="st4" d="M172.7,382.3c1.9,0.5,3.6,1.3,5.2,2.2c1.6,0.9,3.3,1.9,4.7,3.2c-1.9-0.5-3.6-1.3-5.2-2.2
							C175.7,384.6,174.1,383.6,172.7,382.3z"/>
					</g>
					<g>
						<path class="st4" d="M185.2,385.7c-1.6,0.2-3.1,0-4.6-0.2c-1.5-0.3-3-0.6-4.4-1.3c1.6-0.2,3.1,0,4.6,0.2
							C182.3,384.6,183.8,385,185.2,385.7z"/>
					</g>
				</g>
			</g>
		</g>
	</g>
	<g>
		<g>
			<g>
				<path class="st23" d="M203.2,342.8c-1.2-1.1-2.8-1.7-4.5-1.8c-1.5-0.1-2.7-0.4-3.7-0.8c-1.7-5.1-0.1-14.8,0.2-16.1
					c0,0,0-0.1,0-0.1l-13.3,7.5c0.2,0.4,0.3,0.9,0.4,1.5v0c0.1,1.2,0,2.7-0.3,4.1c-0.3,1.5-0.6,2.9-0.8,3.5c-1.1,1.3-2.5,2-4.4,3
					c0,0.5,0,1-0.1,1.5c-0.6,3.1,0.4,7.4,0.3,10.7c-0.2,3.8-0.3,7.5-0.3,11.2c0,4.7,0.2,9.1,0.6,13.6h25.2c-0.7-6.7,1-16.7,2.9-27.7
					C206.3,347.3,204.8,344.4,203.2,342.8z"/>
				<path class="st24" d="M182,337c7.2,0.9,10.9-7.7,11-8c-1.3,2.1-3.3,3.2-5.2,3.7c-2.3,0.6-4.6,0.4-5.5,0.3c0,0,0,0,0,0
					C182.4,334.1,182.2,335.7,182,337z"/>
			</g>
			<path class="st2" d="M181.1,340.8c0,0-2.8,5.8-0.8,7.2c2,1.3,14.8-7.7,14.8-7.7s6.9,0.8,8.9,5.7c1.9,4.9-0.8,35.2-0.8,35.2
				s-23.5,1.4-29.4,0c0,0,0.1-15-0.6-19.7c-0.7-4.7-0.3-12.6,1.2-15.8C175.1,343.9,181.1,340.8,181.1,340.8z"/>
		</g>
		<g>
			<g>
				<path class="st5" d="M195.3,339.8c0,0-10.9,5-9.8,10.6c1.1,5.5,5.8,60.1,5.8,60.1s14.2,0.5,19.6-2.3c5.4-2.8-6.7-40.1-6.1-43.6
					c0.6-3.5,3.8-19.3-0.8-22.2C199.4,339.5,195.3,339.8,195.3,339.8z"/>
				<g>
					<path class="st4" d="M192.1,405.2c3.2,1.1,6.4,1.8,9.7,1.9c1.6,0,3.3-0.1,4.9-0.5c1.6-0.3,3.2-0.9,4.8-1.5
						c-1.4,1-2.9,1.9-4.5,2.4c-0.8,0.3-1.7,0.4-2.5,0.6c-0.9,0.1-1.7,0.2-2.6,0.2c-1.7,0-3.5-0.3-5.1-0.8
						C195,406.9,193.4,406.2,192.1,405.2z"/>
				</g>
			</g>
			<g>
				<g>
					
						<rect x="151.8" y="343.5" transform="matrix(-0.7096 0.7047 -0.7047 -0.7096 507.8136 490.188)" class="st4" width="2.2" height="12.6"/>
					<path class="st23" d="M151.7,355.7c0,0,0.5,0.9,0.9,1.1c0.4,0.2,2.3,0.6,2.3,0.6c0,0,0,0,0,0c0.1,0.1,1.8,1.5,4.4,3.7
						c0.8-1.1,1.6-2.2,2.5-3.2c0.6-0.7,1.1-1.5,1.7-2.2c-1.1-0.5-2.1-1-2.8-1.3l-1.7-1.3c-0.7-0.9-2.9-4.4-3.9-4.3
						c-1.2,0.1-1.1,0.6-1.1,0.6s1.9,2.4,1.5,3.4c-0.4,0.9-4.5-3.6-4.5-3.6l-1.1-0.9c0,0-0.2,2.5,0.7,3.4c0,0-0.5,1.4,0.5,2.4
						C150.9,354,151,355.3,151.7,355.7z"/>
				</g>
				<g>
					<path class="st5" d="M194.2,343.8l-8.3,20.6l-26.5-11.3c0,0-4.6,5.8-4.1,6c0.5,0.2,23.9,22.9,33.6,21.3
						c9.8-1.7,16.4-30.4,16.4-30.4L194.2,343.8z"/>
					<g>
						<path class="st4" d="M188.7,380.5c0,0,3-0.3,4.9-3c1.9-2.7,8.9-16.7,8.9-16.7S198.7,385.1,188.7,380.5z"/>
						<g>
							<path class="st4" d="M190.1,366.4c-0.8-0.1-1.6-0.3-2.3-0.6c-0.7-0.3-1.4-0.6-2.1-1l-1.4-0.7l1.5-0.3c1-0.2,2.1-0.4,3.2-0.3
								c-0.9,0.6-1.9,1-2.9,1.4l0.1-1c0.7,0.3,1.4,0.7,2.1,1.1C188.9,365.3,189.5,365.8,190.1,366.4z"/>
						</g>
						<g>
							<path class="st4" d="M162.8,365.7c2.1,1,3.9,2.3,5.8,3.7c1.8,1.4,3.5,2.9,5,4.6c-2.1-1-3.9-2.3-5.8-3.7
								C166.1,368.9,164.3,367.4,162.8,365.7z"/>
						</g>
						<g>
							<path class="st4" d="M167.5,356.4c1.1,0,2,0.3,2.9,0.7c0.9,0.4,1.7,0.9,2.4,1.8c-1.1,0-2-0.3-2.9-0.7
								C169,357.7,168.2,357.2,167.5,356.4z"/>
						</g>
						<g>
							<path class="st4" d="M190.4,348.8c0.1-0.9,0.3-1.8,0.7-2.6c0.4-0.8,0.9-1.6,1.5-2.3c0.7-0.7,1.4-1.3,2.3-1.6
								c0.9-0.3,1.9-0.4,2.8-0.1c-0.9,0.2-1.7,0.5-2.4,1c-0.7,0.5-1.3,1-1.9,1.6c-0.6,0.6-1.1,1.3-1.6,2L190.4,348.8z"/>
						</g>
					</g>
				</g>
			</g>
		</g>
	</g>
	<g>
		<g>
			<path class="st23" d="M198.8,320c-0.3-1.1-1.5-2-2.7-1.7c-0.1,0-0.2,0.1-0.3,0.1c0.2-3.8-0.4-8-3.1-10.3
				c-5.7-5-13.9-3.2-15.6,1.2c-2,5.1-2.1,11.4-2,16.8c0,0.7,0,1.4,0.3,2.1c0.9,2.6,4.6,4.1,7,4.7c3.2,0.7,6.4-0.2,8.9-2.2
				c2-1.6,3.3-4,3.8-6.5c0.6,0,1.4-0.1,1.5-0.2c0.7-0.3,1.4-0.9,1.8-1.5C198.9,321.9,199.1,320.9,198.8,320z"/>
			<g>
				<g>
					<g>
						<g>
							<path class="st4" d="M179.3,318.4c0,0.8-0.3,1.5-0.7,1.5c-0.4,0-0.7-0.7-0.7-1.5c0-0.8,0.3-1.5,0.7-1.5
								C178.9,316.9,179.3,317.5,179.3,318.4z"/>
						</g>
						<g>
							<ellipse class="st4" cx="184.9" cy="318.4" rx="0.7" ry="1.5"/>
						</g>
					</g>
				</g>
				<g>
					<g>
						<path class="st4" d="M179,322.9c0.3,0.5,0.6,0.9,1.1,1.3c0.5,0.3,1,0.5,1.6,0.5c0.6,0,1.2-0.2,1.6-0.6
							c0.2-0.2,0.4-0.4,0.6-0.6c0.2-0.2,0.3-0.4,0.5-0.7c-0.2,0.2-0.4,0.3-0.6,0.5c-0.2,0.1-0.4,0.3-0.7,0.4c-0.5,0.3-1,0.4-1.4,0.4
							c-0.5,0-1-0.1-1.5-0.4C179.8,323.6,179.4,323.3,179,322.9z"/>
						<path class="st4" d="M180.9,325.6c0.2,0.2,0.5,0.3,0.8,0.3c0.3,0,0.6-0.1,0.8-0.3c-0.3,0-0.5,0.1-0.8,0.1
							C181.5,325.7,181.2,325.6,180.9,325.6z"/>
					</g>
				</g>
				<g>
					<g>
						<path class="st4" d="M183.5,313.2c0.3-0.3,0.7-0.4,1.1-0.4c0.4,0,0.8,0,1.2,0.2c0.4,0.1,0.8,0.3,1.1,0.6
							c0.3,0.3,0.5,0.6,0.7,0.9c0.1,0.2,0,0.4-0.1,0.5c-0.1,0.1-0.3,0.1-0.4,0l0,0c-0.2-0.2-0.5-0.4-0.7-0.6
							c-0.2-0.2-0.5-0.3-0.8-0.3c-0.3-0.1-0.6-0.1-0.9-0.1c-0.3,0-0.6,0-0.9-0.1l-0.1,0c-0.2,0-0.3-0.2-0.3-0.4
							C183.5,313.3,183.5,313.2,183.5,313.2z"/>
						<path class="st4" d="M179.9,313.2c-0.3-0.3-0.7-0.4-1.1-0.4c-0.4,0-0.8,0-1.2,0.2c-0.4,0.1-0.8,0.3-1.1,0.6
							c-0.3,0.3-0.5,0.6-0.7,0.9c-0.1,0.2,0,0.4,0.1,0.5c0.1,0.1,0.3,0.1,0.4,0l0,0c0.2-0.2,0.5-0.4,0.7-0.6
							c0.2-0.2,0.5-0.3,0.8-0.3c0.3-0.1,0.6-0.1,0.9-0.1c0.3,0,0.6,0,0.9-0.1l0.1,0c0.2,0,0.3-0.2,0.3-0.4
							C180,313.3,179.9,313.2,179.9,313.2z"/>
					</g>
				</g>
				<path class="st4" d="M180.2,315.9c-0.1,0.6-0.2,1.1-0.3,1.7c-0.1,0.6-0.2,1.1-0.4,1.6c0,0.1-0.1,0.3-0.1,0.4
					c0,0.1-0.1,0.3-0.1,0.5c0,0.4,0.2,0.7,0.5,0.9c0.3,0.2,0.7,0.1,1,0.1c0.3-0.1,0.5-0.3,0.8-0.5c-0.5,0.2-1.1,0.4-1.5,0.1
					c-0.2-0.1-0.3-0.3-0.3-0.5c0-0.1,0-0.2,0.1-0.3c0.1-0.1,0.1-0.3,0.1-0.4c0.2-0.6,0.2-1.1,0.3-1.7
					C180.3,317.1,180.3,316.5,180.2,315.9z"/>
				<path class="st4" d="M198,320.7c0-0.3-0.1-0.7-0.4-1c-0.3-0.3-0.8-0.2-1.1-0.1c-0.4,0.1-0.7,0.4-0.9,0.7c-0.2,0.3-0.4,0.6-0.6,1
					c-0.1,0.1,0,0.3,0.1,0.3c0.1,0,0.2,0,0.3-0.1l0,0c0.2-0.2,0.6-0.5,0.8-0.6c0.1,0,0.3,0,0.4,0c0.1,0.1,0.2,0.2,0.3,0.4
					c0.1,0.3,0.2,0.7-0.1,0.9c-0.3,0.2-0.7,0.1-1.1,0.1c0.4,0.2,0.8,0.3,1.2,0.2c0.2-0.1,0.4-0.3,0.4-0.6c0-0.2,0-0.5-0.1-0.7
					c-0.1-0.2-0.1-0.4-0.4-0.6c-0.2-0.2-0.5-0.2-0.8-0.2c-0.5,0.1-0.8,0.4-1.1,0.7l0.4,0.3c0.2-0.6,0.6-1.2,1.2-1.4
					c0.3-0.1,0.6-0.2,0.9-0.1C197.7,320,197.9,320.3,198,320.7z"/>
			</g>
		</g>
		<path class="st4" d="M199.4,314.5c-0.4-1.4-1.1-3-2.6-3.2c0.6-1.2,0.5-2.7,0-3.9c-0.5-1-1.4-1.9-2.4-2.5c-1.3-0.9-2.9-1.5-4.5-1.7
			c-2.4-0.4-4.9,0.1-7.4,0.6c-1.3,0.2-2.8,0.5-4.1,0.7c-1.3-1-3.3-0.5-4.3,0.8c-1,1.2-1.3,2.9-1.2,4.6c0.1,3.2,1.1,6.2,2.3,9.2
			c0.1-1.2,0.2-2.4,0.4-3.7c0.4-1.3,1.2-2.5,2.2-3.5c3.1,3.1,8,4.2,12,2.7c0.1,1,0.4,1.9,0.8,2.9c0.5,1.1,1.3,2.2,2.5,2.5
			c0.5,0.1,1.2-0.1,1.3-0.6c0.2-0.5,1.3-0.9,1.3-0.8c0.1-0.1,0.3-0.1,0.3-0.1c1.2-0.3,2.3,0.6,2.7,1.7c0.3,0.9,0.1,1.9-0.4,2.6
			c-0.4,0.6-1.1,1.2-1.8,1.5c-0.2,0.1-1,0.2-1.6,0.2c-0.3,1.3-0.8,2.6-1.5,3.7c1,0.1,2,0,2.9-0.4c1.2-0.7,2-2,2.6-3.3
			c0.6-1.1,1.1-2.3,1.3-3.5C200.7,318.7,200.1,316.6,199.4,314.5z"/>
	</g>
</g>
<g>
	<path class="st25" d="M131.4,150.2c-2.3-2.7-5.6-4.5-9.1-4.5c-4.2,0-8.5,2.1-12.3,0.2c-5-2.4-5.4-10.3-10.5-12.6
		c-3.5-1.6-7.5,0.3-11.4,1.1c-6.5,1.2-13.5-1.4-17.6-6.5c-1.6-2-2.8-4.3-4.6-6.1c-3.4-3.4-8.7-4.4-13.2-3.1
		c-4.6,1.3-8.3,4.8-10.6,8.9c-1.8,3.2-3.1,7.2-6.5,8.6c-3.9,1.6-8.5-1.2-12.5,0.3c-2.8,1.1-4.4,4.3-4.5,7.3c-0.1,2.2,0.4,4.3,1,6.3
		H131.4z"/>
	<path class="st25" d="M605.2,200.2c-0.7-1.9-2.6-3.4-4.4-4c-2.7-0.9-5.7-0.7-8.2-2.1c-2.8-1.6-5.1-5.1-8.2-4.8
		c-2.5,0.3-4.3,3.1-6.8,3.6c-5.1,1.2-8.5-7.4-13.7-7.4c-3.1,0-5.7,3.1-8.8,3.2c-4,0.1-6.7-4.5-9.1-8.1c-3.6-5.4-9.9-9.9-15.3-7
		c-3.6,1.9-5.4,6.4-7.4,10.4c-2,3.9-4.9,8.1-8.9,8.1c-4.2,0-8.4-4.6-12-2.2c-1.7,1.1-2.5,3.5-2.5,5.7c0,1.6,0.4,3.1,0.8,4.6H605.2z"
		/>
</g>
</svg>
