<?xml version="1.0" encoding="utf-8"?>
<!-- Generator: Adobe Illustrator 23.0.0, SVG Export Plug-In . SVG Version: 6.00 Build 0)  -->
<svg version="1.1" id="Layer_1" xmlns="http://www.w3.org/2000/svg" xmlns:xlink="http://www.w3.org/1999/xlink" x="0px" y="0px"
	 viewBox="0 0 300 300" style="enable-background:new 0 0 300 300;" xml:space="preserve">
<style type="text/css">
	.st0{fill:#122126;}
	.st1{fill:#FFE1BD;}
	.st2{fill:#192D35;}
	.st3{fill:#0055ff;}
	.st4{fill:#63a7ff;}
	.st5{fill:#E8C5A0;}
	.st6{fill:#B3C5CE;}
	.st7{fill:#E8F1F8;}
	.st8{opacity:0.24;fill:#474747;}
	.st9{fill:#D4DEDF;}
	.st10{fill:#632F00;}
	.st11{fill:#FFBF9D;}
	.st12{fill:#4C2E1E;}
	.st13{fill:#8C4200;}
	.st14{fill:#282C3B;}
	.st15{fill:#B4BCC5;}
	.st16{fill:#E8E8E8;}
	.st17{fill:#FFFFFF;}
	.st18{opacity:0.5;fill:#9D9D9D;}
	.st19{fill:#666666;}
	.st20{fill:#1A1A1A;}
	.st21{fill:#929497;}
	.st22{font-family:'Aileron-Bold';}
	.st23{font-size:3.0569px;}
	.st24{opacity:0.5;fill:none;stroke:#3558f4;stroke-width:0.5;stroke-miterlimit:10;}
	.st25{fill:#3558f4;}
	.st26{opacity:0.5;fill:none;stroke:#3558f4;stroke-width:0.3504;stroke-miterlimit:10;}
	
		.st27{fill:none;stroke:#3558f4;stroke-width:1.4061;stroke-linecap:round;stroke-linejoin:round;stroke-miterlimit:10;stroke-dasharray:2.8122;}
	.st28{opacity:0.5;}
	
		.st29{fill:none;stroke:#FFFFFF;stroke-width:1.4061;stroke-linecap:round;stroke-linejoin:round;stroke-miterlimit:10;stroke-dasharray:2.8122;}
	
		.st30{opacity:0.5;fill:none;stroke:#FFFFFF;stroke-width:1.4061;stroke-linecap:round;stroke-linejoin:round;stroke-miterlimit:10;stroke-dasharray:2.8122;}
	.st31{opacity:0.5;fill:none;stroke:#3558f4;stroke-width:0.4624;stroke-miterlimit:10;}
	.st32{fill:none;stroke:#E1F0FF;stroke-width:0.8438;stroke-linecap:round;stroke-linejoin:round;stroke-miterlimit:10;}
	.st33{fill:#FFCC99;}
	.st34{opacity:0.1;fill:#7F1E00;}
	.st35{fill:none;stroke:#3558f4;stroke-width:0.7605;stroke-linecap:round;stroke-linejoin:round;stroke-miterlimit:10;}
	.st36{fill:none;stroke:#3558f4;stroke-width:0.856;stroke-linecap:round;stroke-linejoin:round;stroke-miterlimit:10;}
	.st37{fill:none;stroke:#3558f4;stroke-width:0.8438;stroke-linecap:round;stroke-linejoin:round;stroke-miterlimit:10;}
	.st38{fill:none;stroke:#595A5B;stroke-width:0.8438;stroke-linecap:round;stroke-linejoin:round;stroke-miterlimit:10;}
	.st39{fill:none;stroke:#3558f4;stroke-width:0.8295;stroke-linecap:round;stroke-linejoin:round;stroke-miterlimit:10;}
	.st40{fill:none;stroke:#595A5B;stroke-width:0.7605;stroke-linecap:round;stroke-linejoin:round;stroke-miterlimit:10;}
	.st41{fill:none;stroke:#3558f4;stroke-width:0.9928;stroke-linecap:round;stroke-linejoin:round;stroke-miterlimit:10;}
</style>
<g>
	<path class="st0" d="M75.8,255.1c0,0,8.7,0.4,15.2-5.5c5.2-4.7,9.1-12.5,10.2-16c1.1-3.4,1.6-10.3-0.1-11.4
		c-1.7-1.1-31.6,27.4-31.6,27.4L75.8,255.1z"/>
	<path class="st0" d="M37.1,236.6c0,0,3.6-4.1,13.4-4.1c7.6,0,32.5,6.8,32.5,6.8l-10.8,11.6L37.1,236.6z"/>
	<polygon class="st1" points="82.4,253.1 77.3,250.9 75.6,254.1 77.9,256 81.7,256 	"/>
	<path class="st2" d="M77.9,256c0,0,1.7,0.2,3-1.3c1.3-1.5,0.5-2.1,1.4-2.2c0.8-0.1,4.3,1.5,7.8,1.2c3.5-0.4,4.6-0.9,4.8,0.4
		c0.2,1.3-0.3,6.2-4.5,6C86.1,259.9,77.9,256,77.9,256z"/>
	<path class="st2" d="M50.4,238.2c5.5,3.4,28.3,11,28.3,11s0.8,5.9-4.1,7.6c0,0-27.5-7.7-34-10.7c-6.5-3-4.5-8.2-3.6-9.6
		C38,235.2,43.6,234.1,50.4,238.2z"/>
	<path class="st3" d="M71.2,197.8c0.5,0.3,0.9,0.7,1.2,1.2c0.3,0.6,0.4,1.2,0.3,1.9c-0.3,1.7-0.7,4.4-1.1,7.2
		c-0.7,4.5-1.4,9.5-2.1,11.5c-0.1,0.5,1.9,2.8,1,3.9c0,0-0.3,9.2-0.3,9.2c0,0-0.9,0.9-0.9,0.9c-0.4,0.2-1.7,0.8-2.3,0.5
		c-0.7-0.3-17.5,5.1-17.3,5c7-8.1,12.9-12.6,13.3-13.4c0.9-1.5,0.3-17.2,0.6-20.4c0.2-1.5,0.7-3.5,1.5-4.7c0.8-1.3,2-2.1,2.8-2.7
		C69.1,196.8,69.8,197,71.2,197.8z"/>
	<path class="st4" d="M88.6,222.3c-0.9,2.3-1.1,4.8-0.6,7.3c1.1,4.8-0.1,5.1-0.1,5.1s-5.8,4-11.4,4.6c-5.1,0.5-9.3,0.9-9.2-3.4
		l1.6,1.3c0-0.3,0-0.5,0-0.8c0.2-9.6-1.8-10.1-2.3-20.9c-0.5-11.1-3.2-12.5-0.8-15.7c3.6-4.6,13.1-7,20.6-5.2c5.7,1.3,7.5,2.8,7.5,7
		c0,1.4-0.2,3.1-0.6,5.2C92.4,212,90.1,218.3,88.6,222.3z"/>
	<g>
		<path class="st1" d="M82.8,188.2c-2.1,1.4-3.5,2.6-6.3,2.6c-1,0-0.6-0.4-1.6-0.6c0.5,0.3-0.5,0.7-0.1,0.8c0.7,0.2,1.3,0.8,1.3,1.5
			l0.2,3.2l1.2,2.6l2.2-1.4l3.2-2l-0.3-4.9C82.5,189.8,82,189.1,82.8,188.2z"/>
		<path class="st5" d="M77.7,193.6l0.2,3l-0.4,1.6l-1.2-2.6l-0.2-3.2c0-0.7-0.6-1.4-1.3-1.5c-0.8-0.2-0.4-0.8-1.6-2
			c-0.1-0.1-0.1-0.2-0.2-0.2c0.1,0.1,0.3,1.2,2.9,1.5C77.8,190.4,77.5,191.7,77.7,193.6z"/>
	</g>
	<path class="st3" d="M82.8,192.5c0,0,0.8,0.4,1.5,1.6c0,0-1,0.5-2,1c-0.8,0.5-4.8,3.3-4.8,3.3l-1.2-2.4
		C76.3,196,80.5,193.1,82.8,192.5z"/>
	<path class="st3" d="M76.3,196c0,0-1.4,0.5-1.8,1.5c0,0-0.7-1.4,0.2-3.8c0,0,0.8-0.7,1.4-1L76.3,196z"/>
	<g>
		<polygon class="st6" points="82.4,235.6 55.4,235.3 71.5,241.3 		"/>
		<polygon class="st7" points="71.4,241.9 83,240.9 83,239.9 71.3,241 		"/>
	</g>
	<path class="st1" d="M73.6,233.3l-2.2,1.2c0,0-2.2-1.5-4.3,0.1c-2.1,1.6,0.4,6.2,2,5.8c1.6-0.5,6.2-3.9,6.2-3.9L73.6,233.3z"/>
	<polygon class="st8" points="43.5,241.7 40.8,242.5 70.2,242.7 83.2,239.2 55.7,239.5 	"/>
	<path class="st3" d="M84.2,232.1c-4.1,1.3-8.4,7.8-8.4,7.8l-0.4-0.6c0,0-2.1-1-2.7-2.9c-0.2-0.8-0.2-3-0.2-3s10.3-5.1,13.4-8.6
		c1.5-1.7,1.7-3.1,3.1-3.8c0-0.1-0.1-0.2-0.1-0.3c-1.6-4.6-1.5-11.1-2.2-14.4c-0.3-1.6-0.3-3.2,0.1-4.7c0.3-1,0.7-2,1.4-2.9
		c1-1.4,2.3-2.5,4.1-2.1c0.7,0.1,1.2,0.5,1.7,1c0.5,0.5,0.8,1.2,0.9,1.9c0.7,4.8,2.7,17.9,2.6,20.9c0,0.5-0.1,1-0.2,1.4
		c0,0.1-0.1,0.3-0.1,0.5C95.6,226.3,88.3,230.8,84.2,232.1z"/>
	<g>
		<path class="st9" d="M71.4,241.9l-28-2.6c-0.9-0.1-1.7-0.8-1.8-1.7l-2.2-19.5c-0.1-1,0.8-1.9,1.8-1.8l26.2,2.4
			c0.8,0.1,1.4,0.7,1.5,1.5L71.4,241.9z"/>
	</g>
	<g>
		<path class="st10" d="M69.9,180.1c-0.1,0,0,0.4-0.7,1.2c-0.6,0.7-0.7,2.2-0.7,2.1c0,0-1.2-3.4-0.9-4.2c0.3-0.8,1.1-1,1.3-0.8
			C69.1,178.7,69.9,180.1,69.9,180.1z"/>
		<path class="st11" d="M83.9,185.6c0.1,0.9,0.1,1.8,0.1,2.4c0,0.1,0,0.2,0,0.3c0,0.1,0,0.2-0.1,0.3c-0.7,2.7-4.1,6.5-6.5,6.8
			c-0.3,0-0.6,0-0.9,0c-3.3-0.2-5.3-2.9-6.4-5.8c0-0.1-0.1-0.2-0.1-0.3c-1-2.7-1.3-5.5-1.4-6.4c0-0.2,0-0.4,0-0.4
			c-0.2-1.1,0-1.9,0.1-2.2c0-0.1,0.1-0.2,0.1-0.2s0,0,0.1,0c0.9-0.3,7.2-2.2,7.3-2.2c0.1,0,6.5,0.4,6.5,0.4S83.5,182.5,83.9,185.6z"
			/>
		<path class="st12" d="M78.1,181.1"/>
		<path class="st13" d="M84.7,185.5c0.1,0.9,0.1,1.8,0.1,2.4c0,0.1,0,0.2,0,0.3c-0.4,2.7-3.7,6.9-7.4,7.2c-0.3,0-0.6,0.1-0.8,0.1
			c-4,0.2-5.4-2.9-6.5-5.8c0-0.1-0.1-0.2-0.1-0.3c0,0,1.4,2.2,2.1,2.3c0.7,0.1-0.2-0.8,1.7-1.5c1.2-0.5,3-0.4,3.9-0.3
			c0.8,0.1,2.2,0.5,2.7,0.6c0.1,0,0.2,0,0.3,0c0.7-0.3,2-2.6,2.2-4C82.9,185.7,84.2,185.4,84.7,185.5z"/>
		<path class="st13" d="M65.8,176.8c0,0,0.2,4.8,8.1,2.9c7.9-1.9,7.3,5.9,7.3,5.9s1.1-2.6,1.4-1.6c0.3,1,0,3.6,0,3.6
			s2.2,0.2,2.2-0.8c0-0.6,0.1-9.8-1.5-11.9c-1.6-2.2-3.4-2.1-3.4-2.1s-2-1.7-6.7-0.3c-4.7,1.4-7.1-0.4-7.1-0.2
			C66.2,172.4,65.5,173.8,65.8,176.8z"/>
	</g>
	<path class="st14" d="M81.1,183.9c-0.1-0.3-1.5-0.3-2.5-0.1c-1,0.1-3.7,0.5-4.3,0.8c-0.6,0.3-0.5,0.6-0.8,0.6
		c-0.3,0-0.3-0.2-0.9-0.4c-0.6-0.2-2.2,0-3.2,0.1c-1,0.1-2,0.3-2,0.7c0,0.3,0.2,0.9,0.4,1c0.2,0.1,0.2,0.1,0.9,1.4
		c0.4,0.7,1.1,1.1,2.4,0.9c1.7-0.3,1.9-1.7,2-2.3c0.2-0.6,0.3-0.7,0.5-0.7c0.3,0,0.4,0,0.7,0.5c0.3,0.5,0.5,1.8,2.2,1.8
		c2.2,0,3.2-0.6,3.6-1.6c0.5-1.4,0.4-1.4,0.6-1.6c0.1-0.1,0.6-0.2,0.6-0.4C81.2,184.3,81.2,184.1,81.1,183.9z M72.4,187.1
		c-0.1,0.7-0.6,1.4-1.7,1.5c-1,0.1-1.5-0.3-2-1.2c-0.4-0.8-0.4-1.5-0.3-1.7c0.2-0.2,0.7-0.2,2-0.4c1.3-0.1,1.7-0.1,1.9,0.3
		C72.4,185.8,72.5,186.4,72.4,187.1z M79.8,186.1c-0.3,1-0.8,1.5-2.2,1.7c-2,0.2-2.4-0.3-2.6-1c-0.3-0.7-0.3-1.3-0.3-1.4
		c0.1-0.4,0.5-0.5,1.8-0.7c1.3-0.2,3-0.5,3.2-0.3C79.8,184.6,80,185.2,79.8,186.1z"/>
	<polygon class="st1" points="62.6,249.8 67.8,247.8 69.4,251.1 67,252.9 63.2,252.8 	"/>
	<path class="st2" d="M67,252.9c0,0-1.7,0.2-2.9-1.4c-1.2-1.5-0.5-2.2-1.3-2.3c-0.8-0.1-4.4,1.4-7.9,0.9c-3.5-0.5-4.6-1-4.8,0.3
		c-0.2,1.3,0.1,6.2,4.3,6.1C58.7,256.5,67,252.9,67,252.9z"/>
	<path class="st2" d="M66,246.1c0,0,12.9-10.5,18.4-16.1c5.4-5.6,8.8-11.1,15.2-8.9c6.3,2.2-1.6,13.9-7.4,18.5
		c-5.8,4.6-20,14.7-20,14.7S64.4,251.6,66,246.1z"/>
	<circle class="st15" cx="54.1" cy="229.1" r="2.3"/>
</g>
<path class="st2" d="M165.2,68.7h-0.8c-0.8,0-1.4-0.6-1.4-1.4v-6.1c0-0.8,0.6-1.4,1.4-1.4h0.8V68.7z"/>
<path class="st2" d="M165.2,91.5h-0.8c-0.8,0-1.4-0.6-1.4-1.4V76.2c0-0.8,0.6-1.4,1.4-1.4h0.8V91.5z"/>
<path class="st2" d="M165.2,112.1h-0.8c-0.8,0-1.4-0.6-1.4-1.4V96.7c0-0.8,0.6-1.4,1.4-1.4h0.8V112.1z"/>
<path class="st4" d="M251.8,248.7h-75.5c-6.7,0-12.1-5.4-12.1-12.1V52c0-6.7,5.4-12.1,12.1-12.1h75.5c6.7,0,12.1,5.4,12.1,12.1
	v184.5C263.9,243.2,258.5,248.7,251.8,248.7z"/>
<path class="st16" d="M166.2,235.8v-183c0-6,4.9-10.9,10.9-10.9h74c6,0,10.9,4.9,10.9,10.9v183c0,6-4.9,10.9-10.9,10.9h-74
	C171,246.7,166.2,241.8,166.2,235.8z"/>
<path class="st17" d="M168.1,235.5V53.1c0-5.1,4.1-9.2,9.2-9.2h73.6c5.1,0,9.2,4.1,9.2,9.2v182.4c0,5.1-4.1,9.2-9.2,9.2h-73.6
	C172.2,244.7,168.1,240.6,168.1,235.5z"/>
<rect x="168.8" y="228.1" transform="matrix(-1 -1.224647e-16 1.224647e-16 -1 428.163 456.9975)" class="st15" width="90.5" height="0.7"/>
<rect x="173.4" y="195.4" class="st4" width="81.4" height="2"/>
<rect x="173.4" y="199" class="st15" width="76.6" height="2"/>
<rect x="173.4" y="202.6" class="st15" width="81.4" height="2"/>
<rect x="173.4" y="208.4" class="st15" width="46" height="1.7"/>
<path class="st18" d="M187.5,43.8c0.6,0.5,1.7,1.6,1.8,3.4c0.3,2.7,1.2,6,4.9,6h16.5c3.8,0,6.7,0,6.7,0h16.5c3.8,0,4.7-3.3,4.9-6
	c0.2-1.9,1.2-2.9,1.8-3.4H187.5z"/>
<path class="st17" d="M187.7,43.5c0.6,0.5,1.7,1.5,1.8,3.2c0.3,2.5,1.1,5.6,4.9,5.6h16.4c3.7,0,6.6,0,6.6,0h16.4
	c3.8,0,4.7-3.1,4.9-5.6c0.2-1.8,1.2-2.8,1.8-3.2H187.7z"/>
<g>
	<path class="st19" d="M220.4,47.3v0.3c0,0.3-0.3,0.6-0.6,0.6h-11.4c-0.3,0-0.6-0.3-0.6-0.6v-0.3c0-0.2,0.1-0.4,0.3-0.5
		c0.1-0.1,0.2-0.1,0.3-0.1h11.4c0.1,0,0.2,0,0.3,0.1C220.3,46.9,220.4,47.1,220.4,47.3z"/>
	<path class="st20" d="M220.2,47.1v0.2c0,0.3-0.2,0.5-0.5,0.5h-11.1c-0.3,0-0.5-0.2-0.5-0.5v-0.2c0-0.1,0-0.2,0.1-0.3
		c0.1-0.1,0.2-0.1,0.3-0.1h11.4c0.1,0,0.2,0,0.3,0.1C220.1,46.9,220.2,47,220.2,47.1z"/>
</g>
<g>
	<text transform="matrix(0.9735 0 0 1 179.9082 51.6838)" class="st21 st22 st23">8:30</text>
	<g>
		<rect x="240.6" y="50.8" class="st21" width="0.6" height="1"/>
		<rect x="241.5" y="50.4" class="st21" width="0.6" height="1.4"/>
		<rect x="242.3" y="50" class="st21" width="0.6" height="1.8"/>
		<rect x="243.2" y="49.5" class="st21" width="0.6" height="2.3"/>
	</g>
	<g>
		<path class="st21" d="M245.1,50.7c0.3-0.3,0.8-0.6,1.3-0.6c0.5,0,1,0.2,1.3,0.6l0.4-0.4c-0.5-0.5-1.1-0.7-1.8-0.7
			s-1.3,0.3-1.8,0.7L245.1,50.7z"/>
		<path class="st21" d="M245.7,51.2c0.2-0.2,0.5-0.3,0.8-0.3c0.3,0,0.6,0.1,0.8,0.3l0.4-0.4c-0.3-0.3-0.7-0.5-1.2-0.5
			c-0.5,0-0.9,0.2-1.2,0.5L245.7,51.2z"/>
		<path class="st21" d="M246.2,51.8c0.1-0.1,0.2-0.1,0.3-0.1c0.1,0,0.2,0,0.3,0.1l0.4-0.4c-0.2-0.2-0.4-0.3-0.7-0.3
			c-0.3,0-0.5,0.1-0.7,0.3L246.2,51.8z"/>
	</g>
	<g>
		<path class="st21" d="M252.7,51.5h-3.4c-0.1,0-0.2-0.1-0.2-0.2V50c0-0.1,0.1-0.2,0.2-0.2h3.4c0.1,0,0.2,0.1,0.2,0.2v1.3
			C253,51.4,252.9,51.5,252.7,51.5z"/>
		<path class="st21" d="M253.3,51h-0.1c-0.1,0-0.1,0-0.1-0.1v-0.5c0-0.1,0-0.1,0.1-0.1h0.1c0.1,0,0.1,0,0.1,0.1L253.3,51
			C253.4,51,253.3,51,253.3,51z"/>
	</g>
</g>
<g>
	<g>
		<g>
			<path class="st24" d="M251.9,89h-75.6c-1.6,0-2.9-1.2-2.9-2.6V63.1c0-1.4,1.3-2.6,2.9-2.6h75.6c1.6,0,2.9,1.2,2.9,2.6v23.2
				C254.8,87.8,253.5,89,251.9,89z"/>
		</g>
	</g>
</g>
<path class="st25" d="M195.2,76.4c-0.1-2.4-1.3-4.6-3.2-6.1c-0.2-0.2-0.5-0.3-0.7-0.5c-0.7-0.4-1.4-0.8-2.1-1
	c-0.6-0.2-1.3-0.3-1.9-0.3c0,0-0.1,0-0.1,0c0,0-0.1,0-0.1,0c-0.4,0-0.9,0-1.3,0.1l0,0c-0.9,0.1-1.8,0.4-2.6,0.8
	c-0.3,0.1-0.5,0.3-0.8,0.4c-2.3,1.5-3.7,3.9-3.8,6.6c0,0.1,0,0.3,0,0.4c0,0.1,0,0.3,0,0.4c0.1,2,0.9,3.9,2.4,5.4
	c0.2,0.2,0.4,0.4,0.6,0.6c1,0.9,2.3,1.5,3.6,1.7l0,0c0.3,0.1,0.6,0.1,0.9,0.1c0.3,0.1,0.7,0.2,1.1,0.2c0.5,0,1-0.1,1.4-0.3
	c0.4-0.1,0.8-0.2,1.2-0.3l0.1,0l0,0c0.9-0.3,1.7-0.8,2.4-1.4c0.2-0.2,0.4-0.4,0.6-0.6c1.4-1.4,2.2-3.4,2.3-5.4c0-0.1,0-0.3,0-0.4
	C195.2,76.7,195.2,76.6,195.2,76.4z M194.5,76.5C194.5,76.5,194.5,76.5,194.5,76.5l-2.3,0.1c-0.1-1.9-0.5-3.6-1.2-4.9c0,0,0,0,0,0
	c0.2-0.2,0.4-0.5,0.6-0.7c0,0,0,0,0,0C193.3,72.2,194.4,74.3,194.5,76.5z M183.8,81.8C183.8,81.8,183.8,81.8,183.8,81.8
	c0.9-0.3,1.9-0.5,2.9-0.5v3.2c-0.1,0-0.1,0-0.2,0C185.5,84.2,184.5,83.2,183.8,81.8z M190.5,70.9C190.5,70.9,190.5,70.9,190.5,70.9
	c-0.3-0.4-0.6-0.8-1-1.1c0.5,0.2,0.9,0.4,1.4,0.7C190.8,70.6,190.7,70.7,190.5,70.9z M187.5,69.6c0.9,0.1,1.8,0.8,2.4,1.8
	c-0.7,0.5-1.5,0.8-2.4,0.8V69.6z M186.8,69.6v2.6c-0.9-0.1-1.7-0.4-2.3-0.9c0,0,0,0,0,0C185.1,70.3,185.9,69.7,186.8,69.6z M184,72
	c0.8,0.6,1.7,1,2.8,1.1v3.5h-3.9C183,74.8,183.4,73.2,184,72z M186.8,77.3v3.1c-1.2,0-2.3,0.2-3.2,0.6c-0.4-1.1-0.6-2.3-0.6-3.7
	H186.8z M187.5,84.5v-3.2c1,0.1,2,0.3,2.8,0.7c-0.6,1.2-1.5,2.1-2.4,2.4C187.8,84.4,187.6,84.4,187.5,84.5z M191,82.4
	c0.2,0.1,0.4,0.3,0.6,0.4c-0.5,0.4-1,0.7-1.5,1C190.5,83.3,190.8,82.9,191,82.4z M190.7,81.2C190.7,81.2,190.7,81.2,190.7,81.2
	c-0.9-0.4-2-0.7-3.2-0.8v-3.1h3.9C191.3,78.8,191.1,80.1,190.7,81.2z M187.5,76.5v-3.5c1,0,2-0.4,2.8-1c0.6,1.2,1,2.7,1.1,4.4H187.5
	z M185.1,69.5c-0.5,0.3-0.9,0.8-1.2,1.3c0,0,0,0,0,0c-0.2-0.2-0.3-0.4-0.5-0.6c0,0,0,0,0.1,0C184,69.8,184.5,69.6,185.1,69.5z
	 M182.7,70.5c0.2,0.3,0.4,0.7,0.7,0.9c0,0,0,0,0,0c-0.8,1.4-1.2,3.1-1.3,5.1h-2.8c0,0,0,0,0-0.1C179.4,74.1,180.6,71.8,182.7,70.5z
	 M179.3,77.3h2.8c0,1.5,0.3,2.8,0.7,4c0,0,0,0,0,0c-0.5,0.2-1,0.5-1.4,0.9c0,0,0,0,0,0C180.1,80.9,179.4,79.2,179.3,77.3z M182,82.8
	c0.3-0.2,0.7-0.5,1.1-0.7c0,0,0,0,0,0c0.4,0.8,0.8,1.5,1.3,2C183.6,83.8,182.8,83.4,182,82.8z M192.3,82.2
	C192.3,82.2,192.3,82.2,192.3,82.2c-0.3-0.1-0.6-0.4-1-0.5c0.5-1.2,0.8-2.7,0.8-4.3h2.3C194.4,79.1,193.6,80.9,192.3,82.2z"/>
<g>
	<g>
		<g>
			<path class="st26" d="M252.7,190.1h-77.3c-1.2,0-2.1-0.8-2.1-1.8V172c0-1,1-1.8,2.1-1.8h77.3c1.2,0,2.1,0.8,2.1,1.8v16.3
				C254.8,189.3,253.8,190.1,252.7,190.1z"/>
		</g>
	</g>
</g>
<g>
	<g>
		<line class="st27" x1="174.2" y1="93.7" x2="207.7" y2="93.7"/>
		<line class="st27" x1="213.6" y1="93.7" x2="229.5" y2="93.7"/>
	</g>
	<line class="st27" x1="195.1" y1="98.3" x2="232" y2="98.3"/>
	<line class="st27" x1="174.2" y1="98.3" x2="193" y2="98.3"/>
	<line class="st27" x1="233" y1="93.7" x2="242.9" y2="93.7"/>
	<line class="st27" x1="234.7" y1="98.4" x2="242.9" y2="98.4"/>
	<g class="st28">
		<line class="st29" x1="174.2" y1="102.4" x2="207.7" y2="102.4"/>
		<line class="st29" x1="213.6" y1="102.4" x2="229.5" y2="102.4"/>
	</g>
	<line class="st30" x1="195.1" y1="107" x2="232" y2="107"/>
	<line class="st30" x1="174.2" y1="107" x2="193" y2="107"/>
	<line class="st27" x1="233" y1="102.4" x2="242.9" y2="102.4"/>
	<line class="st27" x1="234.7" y1="107" x2="242.9" y2="107"/>
	<g class="st28">
		<line class="st29" x1="174.2" y1="111.1" x2="210.7" y2="111.1"/>
		<line class="st29" x1="213.6" y1="111.1" x2="229.5" y2="111.1"/>
	</g>
	<line class="st30" x1="195.1" y1="115.7" x2="232" y2="115.7"/>
	<line class="st30" x1="174.2" y1="115.7" x2="193" y2="115.7"/>
	<line class="st27" x1="233" y1="111.1" x2="242.9" y2="111.1"/>
	<line class="st27" x1="234.7" y1="115.7" x2="242.9" y2="115.7"/>
	<g class="st28">
		<line class="st29" x1="174.2" y1="119.8" x2="187.2" y2="119.8"/>
		<line class="st29" x1="190.7" y1="119.8" x2="229.5" y2="119.8"/>
	</g>
	<line class="st30" x1="195.1" y1="124.4" x2="232" y2="124.4"/>
	<line class="st30" x1="174.2" y1="124.4" x2="193" y2="124.4"/>
	<line class="st27" x1="233" y1="119.8" x2="242.9" y2="119.8"/>
	<line class="st27" x1="234.7" y1="124.4" x2="242.9" y2="124.4"/>
	<g class="st28">
		<line class="st29" x1="174.2" y1="128.5" x2="207.7" y2="128.5"/>
		<line class="st29" x1="213.6" y1="128.5" x2="229.5" y2="128.5"/>
	</g>
	<line class="st30" x1="174.2" y1="137.1" x2="185.1" y2="137.1"/>
	<line class="st27" x1="233" y1="128.5" x2="242.9" y2="128.5"/>
	<line class="st27" x1="174.2" y1="141.2" x2="200.1" y2="141.2"/>
	<line class="st30" x1="186.8" y1="137.1" x2="200.9" y2="137.1"/>
	<line class="st27" x1="174.2" y1="145.8" x2="198.8" y2="145.8"/>
	<g>
		<line class="st27" x1="174.2" y1="149.9" x2="181.3" y2="149.9"/>
		<line class="st27" x1="186.5" y1="149.9" x2="200.1" y2="149.9"/>
	</g>
	<line class="st27" x1="174.2" y1="154.5" x2="200" y2="154.5"/>
	<g>
		<line class="st27" x1="174.2" y1="161.5" x2="207.7" y2="161.5"/>
		<line class="st27" x1="213.6" y1="161.5" x2="229.5" y2="161.5"/>
	</g>
	<line class="st27" x1="195.1" y1="166.1" x2="232" y2="166.1"/>
	<line class="st27" x1="174.2" y1="166.1" x2="193" y2="166.1"/>
	<line class="st27" x1="233" y1="161.5" x2="242.9" y2="161.5"/>
	<line class="st27" x1="234.7" y1="166.1" x2="242.9" y2="166.1"/>
</g>
<g>
	<g>
		<g>
			<path class="st31" d="M250.9,157.4h-37c-1.3,0-2.4-1.1-2.4-2.4v-21.5c0-1.3,1.1-2.4,2.4-2.4h37c1.3,0,2.4,1.1,2.4,2.4V155
				C253.3,156.3,252.2,157.4,250.9,157.4z"/>
		</g>
	</g>
</g>
<path class="st4" d="M92.6,149.5H59.2c-1.7,0-3.2,1.4-3.2,3.2v9c0,1.7,1.4,3.2,3.2,3.2h26.2l0,4.9l4.1-4.9h3c1.7,0,3.2-1.4,3.2-3.2
	v-9C95.7,151,94.3,149.5,92.6,149.5z"/>
<path class="st4" d="M144.8,91.6h-33.4c-1.7,0-3.2,1.4-3.2,3.2v9c0,1.7,1.4,3.2,3.2,3.2h26.2l0,4.9l4.1-4.9h3c1.7,0,3.2-1.4,3.2-3.2
	v-9C148,93,146.6,91.6,144.8,91.6z"/>
<path class="st4" d="M79,114.4h21.5c1.7,0,3.2,1.4,3.2,3.2v9c0,1.7-1.4,3.2-3.2,3.2h-2.1l0,4.9l-4.1-4.9H79c-1.7,0-3.2-1.4-3.2-3.2
	v-9C75.9,115.8,77.3,114.4,79,114.4z"/>
<line class="st30" x1="173.7" y1="142.9" x2="192.5" y2="142.9"/>
<line class="st30" x1="173.7" y1="151.6" x2="192.5" y2="151.6"/>
<line class="st30" x1="173.7" y1="160.2" x2="192.5" y2="160.2"/>
<line class="st32" x1="146" y1="168.4" x2="175" y2="168.4"/>
<line class="st32" x1="176.8" y1="168.4" x2="203.6" y2="168.4"/>
<path class="st2" d="M125.3,118.2c0,0-0.4-3.5-4.4-2.7c-4,0.8-7.8,4.3-7,9.1c0.8,4.8-1.8,4.8-2.4,4.6c0,0,3.2,3.3,7.3,1.4
	c4.2-2,4-9.2,4-9.2L125.3,118.2z"/>
<path class="st2" d="M135,116.4c0,0,4.3,2.4,1,10.8c-1,2.7-7.5-2.1-7.5-2.1L135,116.4z"/>
<path class="st33" d="M137.7,250.9c0,0,0.5,2.5,0.5,4.5c-0.3,1.4,0,1.8,0,1.8l5.2-0.4c0,0-2.3-1.1-2.1-6.5
	C141.5,244.8,137.7,250.9,137.7,250.9z"/>
<path class="st2" d="M138.2,255.8c0,0,2.3,0.8,4.5,0.2c2.6,1.2,4.5,1.7,6.9,2c2.4,0.3,2,2.3-2.1,2c-4.1-0.3-6.9-0.1-7.9,0
	c-0.9,0.1-2.4,0.2-2.4-0.4C137.1,259,137.4,255.6,138.2,255.8z"/>
<path class="st33" d="M121.7,250.9c0,0,0.5,2.5,0.5,4.5c-0.3,1.4,0,1.8,0,1.8l5.2-0.4c0,0-2.3-1.1-2.1-6.5
	C125.5,244.8,121.7,250.9,121.7,250.9z"/>
<path class="st2" d="M122.2,255.8c0,0,2.3,0.8,4.5,0.2c2.6,1.2,4.5,1.7,6.9,2c2.4,0.3,2,2.3-2.1,2c-4.1-0.3-6.9-0.1-7.9,0
	c-0.9,0.1-2.4,0.2-2.4-0.4C121.1,259,121.4,255.6,122.2,255.8z"/>
<path class="st2" d="M140.6,177.8c0,0,2.4,30.8,2.6,35.4c0.2,4.6,0.3,9.9,0.1,12.7c-0.2,2.8-0.7,26.3-0.7,26.3s-4.3,2-6.3,0.1
	c0,0-1.1-29.3-2.1-33.7c-1-4.4-4.8-22.8-4.8-22.8l4.5-22.7L140.6,177.8z"/>
<path class="st2" d="M122.7,215.8c0.8-6.6-0.5-29.4-0.5-35c0.1-5.6,15.9-2.8,15.9-2.8s-5.1,29.2-5.7,34c-0.6,4.8-1.3,9.9-1.6,14.5
	c-0.3,4.6-4,26.4-4,26.4s-5.1,1.3-5.7-0.3C119.8,244.1,122.7,215.8,122.7,215.8z"/>
<path class="st4" d="M136.1,141.9l7.6,2c0,0-0.8,6.4,0,8.3h-5.3c0,0-0.9,2.7-1.4,4c-0.5,1.3,3.6,18.2,4.2,22.2c0,0-2.2,3.7-19.6,1.8
	c0,0-0.7-4.1,1.6-10.3c2-5.5-6.8-19.3-6.8-19.3s1.4-10,10-11.8C131.4,137.9,131.4,140.6,136.1,141.9z"/>
<path class="st11" d="M134.7,117.7c0,0,3.8,11.2,1.8,14.9c-1.6,2.9-5.1,2.5-5.1,2.5v6.8c0,0-0.4,0.4-1,0.4c-1.1,0.1-4.1-1.9-4.1-1.9
	v-15.7L134.7,117.7z"/>
<path class="st11" d="M116,154.4c0,0-3.6,16.6-2.3,17.7c1.3,1.1,15.7,1.1,17.1,1.4c1.4,0.3,8.5,1.3,11.6-1.3c0.4-0.3-4,0.5-4.5-0.7
	c-0.5-1.2-2-1.6-2-1.6l-4.9,1.4c0,0-11-2.1-11.7-2.7c-0.7-0.7,3.2-14.1,3.2-14.1L116,154.4z"/>
<path class="st3" d="M115.4,154c0,0,2.5-11.4,6.3-12.9c3.8-1.5,5.4,4.1,3.9,9.5c-1.6,5.4-2,7.4-2,7.4S118.3,158,115.4,154z"/>
<g>
	<path class="st2" d="M235.7,253.7c-0.1,0.6,1,2.2-0.5,3.6c-1.5,1.4-5.1,2.8-2.7,2.8c2.3,0.1,4.6-0.5,5.8-1.1c1.2-0.6,0.2-1.5,1.7-2
		c1.9-0.6,1.9-0.7,1-2.8C239.7,251.3,236.1,251.7,235.7,253.7z"/>
	<path class="st4" d="M220.5,155.8c-0.8,2.1-1,4.4-0.5,6.6c1,4.4-0.1,4.7-0.1,4.7s-5.9,3.8-10.8,5.3c-3.5,1.1-6.5,0.9-6.4-3l0-0.1
		c0-0.2,0-0.5,0-0.7c0.2-8.8-1.7-9.2-2.1-19c-0.5-10.1,2.2-15.7,4.9-18.1c2.7-2.4,6.3-2.5,13.1-0.9c5.1,1.2,6.8,2.6,6.8,6.4
		c0,1.3-0.2,2.8-0.6,4.7C223.9,146.5,221.8,152.2,220.5,155.8z"/>
	<path class="st2" d="M208.1,134.3c0,0-5.3,17.5-4.3,25.9l2,3.6l2.1-3.9c0,0-1.7-16.7,1.6-25.2L208.1,134.3z"/>
	<path class="st3" d="M220.5,155.8c-0.8,2.1-1,4.4-0.5,6.6c1,4.4-0.1,4.7-0.1,4.7s-5.9,3.8-10.8,5.3l-4.6-0.4l-1.8-1.4l0-1.2
		c0-0.2,0-0.5,0-0.7c1.1,0.1,3.4,0.2,6.9-0.2c2.7-0.3,5.2-1.1,6.8-1.7c1.2-0.5,1.9-1.7,1.7-2.9c-0.3-1.7-0.7-4.2-0.6-6.1
		c0-1.9,0.9-5.2,1.6-7.5c0.6-1.8,0.7-3.7,0.6-5.6c-0.2-3.3,0-6.3,0-6.3l3.6-2l2,0.8c0,1.3-0.2,2.8-0.6,4.7
		C223.9,146.5,221.8,152.2,220.5,155.8z"/>
	<path class="st11" d="M219.3,118.6c-0.1,4.9-4.4,7.8-4.4,7.8l0.3,4.5l-2.9,1.9l-2,1.3l-1.1-2.4l-0.2-2.9c0-0.7-0.5-1.2-1.2-1.4
		c-0.7-0.2-1.8-0.6-2.8-1.7c-0.1-0.1-0.1-0.1-0.2-0.2c0,0,0,0,0,0c-1.9-2.5-2.6-12.3,3.8-15C215.3,107.6,219.4,113.7,219.3,118.6z"
		/>
	<path class="st5" d="M212.1,130l0.2,2.7l-2,1.3l-1.1-2.4l-0.2-2.9c0-0.7-0.5-1.2-1.2-1.4c-0.7-0.2-1.8-0.6-2.8-1.7
		c-0.1-0.1-0.1-0.1-0.2-0.2c0.1,0.1,1.7,1,4,1.2C210.6,126.9,212,128.3,212.1,130z"/>
	<path class="st2" d="M207.7,132.8l0,0.2c0.1,0.4,0.2,0.9,0.3,1.3l0,0l1.4,0.3l1.3-0.9l-1.4-1.7l-0.2,0.1
		C208.6,132.1,208.1,132.4,207.7,132.8L207.7,132.8z"/>
	<path class="st3" d="M215.1,128.8c0,0,0.7,0.4,1.4,1.4c0,0-0.9,0.4-1.8,0.9c-0.8,0.5-4.4,3-4.4,3l-1.1-2.2
		C209.3,131.9,213.1,129.3,215.1,128.8z"/>
	<path class="st3" d="M209.3,131.9c0,0-1.3,0.4-1.7,1.4c0,0-0.6-1.2,0.2-3.4c0,0,0.7-0.7,1.2-0.9L209.3,131.9z"/>
	<g>
		<g>
			<path class="st2" d="M203.9,113.5c0,0-0.5,1.3,0.2,2.3l2.8-3.8l-2,0L203.9,113.5z"/>
			<path class="st2" d="M212.4,120.1c0.2,0.1,0.5-0.3,0.5-0.3s1.4-3.1,1.9-3.6c0.9-0.9,2.9-0.8,3,1.9c0.1,2.1-2.3,6.5-3.1,7.8
				c-0.1,0.2-0.1,0.5,0.1,0.6c0.1,0.1,0.2,0.1,0.3,0.1h0c0.1,0,0.2,0,0.3-0.1c1.6-1.4,8.5-8,3-14.3c0,0-4.4,0.3-5,2.4
				c-0.7,2.1-1.1,5-1.1,5S212.1,120,212.4,120.1z"/>
			<path class="st2" d="M203.9,113.5c0,0,3.8-3,9.6,0.7l4.8-1.2c0,0,0.2-0.1,0.1-0.8c-0.1-0.7-0.6-7.7-9-6.1
				C204.7,107,201.7,110.3,203.9,113.5z"/>
			<path class="st2" d="M215.1,126.6L215.1,126.6c0.1,0,0.3,0,0.4-0.1c1.6-1.4,8.5-8,3-14.3c0,0,0.3,1.1,0.2,2
				C218.6,114.2,222.1,119.9,215.1,126.6z"/>
		</g>
	</g>
	<path class="st2" d="M227.4,191.9c0,0,4.1-13.6-7.6-24.9c0,0-6.3,2.8-11.3,3.1c-4,0.3-6-0.1-6-0.1s-0.3,12.1-0.3,18.7L227.4,191.9z
		"/>
	<path class="st2" d="M201.1,214.6c-0.3-6.1,4.3-5.4,6.9-1c8.5,14.2,0,32-0.9,42.3c-1-1.7-2.9-2.2-3.3-2.2c-0.7,0.1-1.1,0.6-1.1,0.6
		C202.8,241.7,201.4,221.1,201.1,214.6z"/>
	<path class="st2" d="M207.8,215.2c-0.8,2.5-7.3,5.4-6.6-3.7c0.3-4,1.1-26.2,1.3-28.4c0.2-2.1,0.5-5.3,1.5-5.7
		c5.2-2,12.4,4.5,11.1,12.6C214.2,195.5,209.4,210.1,207.8,215.2z"/>
	<path class="st2" d="M202.7,254.5c-0.3,0.5-1.6,1.7-3.4,2.6c-1.8,0.8-5.6,1.2-3.5,1.9c2.1,0.7,4.6,0.3,5.8,0.1
		c1.3-0.2,2.5-0.2,3.9-0.2c1.9,0,2-0.1,1.7-2.3C206.9,253.5,203.6,252.8,202.7,254.5z"/>
	<path class="st2" d="M222.9,216c-2-5.8,2.5-6.5,6.3-3c12.3,11.1,9.4,30.6,11.6,40.7c-1.2,0.8-3.2,1.1-3.9,1.1
		c-0.7,0-1.1-0.5-1.1-0.5C232.2,242.2,225,222.1,222.9,216z"/>
	<path class="st2" d="M229.5,214.3c0.2,2.6-4.8,7.7-7.5-0.9c-1.2-3.8-8.8-24.7-9.5-26.8c-0.7-2-1.5-5.1-0.7-5.8
		c4.1-3.8,13.2-0.5,15,7.5C228,193.6,229,208.9,229.5,214.3z"/>
	<path class="st11" d="M230.5,149.4c0,0,3.2,21.2,1.4,22.5c-1.7,1.3-19.8,2.3-21.6,2.6c-1.8,0.3-9.2,2.3-13-1.1
		c-0.5-0.4,4-0.7,4.6-2.1c0.7-1.5,2.6-1.9,2.6-1.9l5.6,2.5c0,0,12-4.7,15.2-5.3c-1.5-2-3.4-15.9-3.4-15.9L230.5,149.4z"/>
	<path class="st4" d="M231.5,150.3c0,0-2.5-15.5-7.2-17.6c-4.7-2.1-8,4.6-6.3,11.5c1.7,6.9,2.2,9.4,2.2,9.4S227.3,154.3,231.5,150.3
		z"/>
</g>
<g>
	<g>
		<g>
			<g>
				<path class="st34" d="M204.6,173.9h-68.8c-1.7,0-3.1-1.4-3.1-3.1v-28.1c0-1.7,1.4-3.1,3.1-3.1h68.8c1.7,0,3.1,1.4,3.1,3.1v28.1
					C207.8,172.5,206.4,173.9,204.6,173.9z"/>
			</g>
		</g>
	</g>
	<g>
		<g>
			<g>
				<path class="st17" d="M206,172.6h-68.8c-1.7,0-3.1-1.4-3.1-3.1v-28.1c0-1.7,1.4-3.1,3.1-3.1H206c1.7,0,3.1,1.4,3.1,3.1v28.1
					C209.1,171.2,207.7,172.6,206,172.6z"/>
			</g>
		</g>
	</g>
	<line class="st35" x1="140.5" y1="149.6" x2="203.6" y2="149.6"/>
	<line class="st36" x1="140.5" y1="152.1" x2="178.4" y2="152.1"/>
	<line class="st37" x1="203.6" y1="154.9" x2="172.4" y2="154.9"/>
	<line class="st38" x1="203.7" y1="147.1" x2="172.6" y2="147.1"/>
	<line class="st36" x1="169.9" y1="154.9" x2="166.2" y2="154.9"/>
	<line class="st35" x1="203.6" y1="158.2" x2="145" y2="158.2"/>
	<line class="st36" x1="163.9" y1="161.5" x2="203.6" y2="161.5"/>
	<line class="st36" x1="168.9" y1="165" x2="203.6" y2="165"/>
	<polyline class="st39" points="142.4,141.8 140.5,143.8 142.4,145.8 	"/>
	<polyline class="st39" points="147.2,141.8 149.1,143.8 147.2,145.8 	"/>
	<line class="st39" x1="144" y1="146.2" x2="145.5" y2="141.8"/>
	<path class="st4" d="M151.6,146.2c0,0.3-0.2,0.6-0.5,0.6c-0.3,0-0.5-0.3-0.5-0.6c0-0.3,0.2-0.6,0.5-0.6
		C151.4,145.7,151.6,145.9,151.6,146.2z"/>
	<path class="st4" d="M153.8,146.2c0,0.3-0.2,0.6-0.5,0.6s-0.5-0.3-0.5-0.6c0-0.3,0.2-0.6,0.5-0.6S153.8,145.9,153.8,146.2z"/>
	<ellipse class="st4" cx="155.5" cy="146.2" rx="0.5" ry="0.6"/>
	<line class="st37" x1="181.4" y1="152.1" x2="203.6" y2="152.1"/>
	<line class="st40" x1="183.7" y1="141.8" x2="203.7" y2="141.8"/>
	<line class="st38" x1="181.5" y1="144.3" x2="203.7" y2="144.3"/>
	<line class="st36" x1="163.2" y1="154.9" x2="159.5" y2="154.9"/>
	<line class="st36" x1="156.6" y1="154.9" x2="152.8" y2="154.9"/>
	<line class="st36" x1="149.9" y1="154.9" x2="146.2" y2="154.9"/>
	<line class="st36" x1="141.9" y1="154.9" x2="140.5" y2="154.9"/>
	<line class="st36" x1="141.9" y1="158.2" x2="140.5" y2="158.2"/>
	<line class="st36" x1="141.9" y1="161.5" x2="140.5" y2="161.5"/>
	<line class="st36" x1="141.9" y1="164.9" x2="140.5" y2="164.9"/>
	<line class="st41" x1="146" y1="161.5" x2="162.2" y2="161.5"/>
	<line class="st41" x1="146" y1="165" x2="167.4" y2="165"/>
</g>
<path class="st11" d="M194.1,137.8c0,0,1.7,2.4,2.9,2.9c1.2,0.4,2.5,0.5,2.8-0.1c0.3-0.6,0.8-3.3,0.6-3.8
	C200.1,136.3,195.2,135.3,194.1,137.8z"/>
<path class="st4" d="M120.6,252.1c0,0.2,0.1,0.4,0.1,0.6c0,0.1-0.1,0.2-0.1,0.3c0,0.4,0.4,0.6,0.8,0.6c1.2,0.2,2.4,0.2,3.7,0.2
	c0.6,0,1.2,0,1.7-0.3c0.2-0.1,0.4-0.3,0.5-0.5c0.1-0.2,0-0.5-0.2-0.6c0.2-0.1,0.2-0.4,0-0.6s-0.4-0.2-0.7-0.1
	c-1.1,0-2.2,0.2-3.3,0.2c-0.5,0-1.1,0-1.6-0.1C121.2,251.7,120.5,251.4,120.6,252.1z"/>
<path class="st4" d="M136.1,251.5c0,0.2,0.1,0.4,0.1,0.6c0,0.1-0.1,0.2-0.1,0.3c0,0.4,0.4,0.6,0.8,0.6c1.2,0.2,2.4,0.2,3.7,0.2
	c0.6,0,1.2,0,1.7-0.3c0.2-0.1,0.4-0.3,0.5-0.5c0.1-0.2,0-0.5-0.2-0.6c0.2-0.1,0.2-0.4,0-0.6c-0.2-0.1-0.4-0.2-0.7-0.1
	c-1.1,0-2.2,0.2-3.3,0.2c-0.5,0-1.1,0-1.6-0.1C136.7,251.1,136,250.8,136.1,251.5z"/>
<path class="st2" d="M135.3,119.6c0,0-2.9,6.3-5.7,7.4c0,0-0.8-1.2-1.6-0.5c-0.7,0.7,0.3,3.1,1.1,3.3c0.7,0.2-1.5,3.2-2.8,3.4
	c-1.3,0.2-6.1-5.9-5.1-10.7c1-4.8,3.5-5.4,3.5-5.4s3.5-3.8,10.5-0.7L135.3,119.6z"/>
<path class="st11" d="M150,171.6c0,0-1.6-2.1-2.7-2.4c-1.1-0.3-2.2-0.4-2.5,0.2c-0.3,0.5-0.6,3-0.4,3.4
	C144.7,173.2,149.1,173.9,150,171.6z"/>
<g>
	<path class="st17" d="M118.8,99.6c0,1-0.2,1.7-0.5,2.2s-0.8,0.7-1.5,0.7c-0.7,0-1.2-0.2-1.5-0.7c-0.3-0.5-0.5-1.2-0.5-2.2
		c0-1,0.2-1.8,0.5-2.2c0.3-0.5,0.8-0.7,1.5-0.7c0.7,0,1.2,0.3,1.5,0.8C118.7,97.9,118.8,98.6,118.8,99.6z M116,99.6
		c0,0.7,0.1,1.2,0.2,1.5s0.3,0.5,0.6,0.5c0.3,0,0.5-0.2,0.6-0.5c0.1-0.3,0.2-0.8,0.2-1.5c0-0.7-0.1-1.2-0.2-1.5
		c-0.1-0.3-0.3-0.5-0.6-0.5c-0.3,0-0.5,0.2-0.6,0.5C116.1,98.3,116,98.9,116,99.6z"/>
	<path class="st17" d="M122.4,102.4h-1.2v-3.3l0-0.5l0-0.6c-0.2,0.2-0.3,0.3-0.4,0.4l-0.7,0.5l-0.6-0.7l1.8-1.5h1V102.4z"/>
	<path class="st17" d="M128,99.6c0,1-0.2,1.7-0.5,2.2s-0.8,0.7-1.5,0.7c-0.7,0-1.2-0.2-1.5-0.7c-0.3-0.5-0.5-1.2-0.5-2.2
		c0-1,0.2-1.8,0.5-2.2c0.3-0.5,0.8-0.7,1.5-0.7c0.7,0,1.2,0.3,1.5,0.8C127.8,97.9,128,98.6,128,99.6z M125.2,99.6
		c0,0.7,0.1,1.2,0.2,1.5s0.3,0.5,0.6,0.5c0.3,0,0.5-0.2,0.6-0.5c0.1-0.3,0.2-0.8,0.2-1.5c0-0.7-0.1-1.2-0.2-1.5
		c-0.1-0.3-0.3-0.5-0.6-0.5c-0.3,0-0.5,0.2-0.6,0.5C125.2,98.3,125.2,98.9,125.2,99.6z"/>
	<path class="st17" d="M131.6,102.4h-1.2v-3.3l0-0.5l0-0.6c-0.2,0.2-0.3,0.3-0.4,0.4l-0.7,0.5l-0.6-0.7l1.8-1.5h1V102.4z"/>
	<path class="st17" d="M137.1,99.6c0,1-0.2,1.7-0.5,2.2s-0.8,0.7-1.5,0.7c-0.7,0-1.2-0.2-1.5-0.7c-0.3-0.5-0.5-1.2-0.5-2.2
		c0-1,0.2-1.8,0.5-2.2c0.3-0.5,0.8-0.7,1.5-0.7c0.7,0,1.2,0.3,1.5,0.8C137,97.9,137.1,98.6,137.1,99.6z M134.3,99.6
		c0,0.7,0.1,1.2,0.2,1.5s0.3,0.5,0.6,0.5c0.3,0,0.5-0.2,0.6-0.5c0.1-0.3,0.2-0.8,0.2-1.5c0-0.7-0.1-1.2-0.2-1.5
		c-0.1-0.3-0.3-0.5-0.6-0.5c-0.3,0-0.5,0.2-0.6,0.5C134.4,98.3,134.3,98.9,134.3,99.6z"/>
	<path class="st17" d="M140.7,102.4h-1.2v-3.3l0-0.5l0-0.6c-0.2,0.2-0.3,0.3-0.4,0.4l-0.7,0.5l-0.6-0.7l1.8-1.5h1V102.4z"/>
</g>
<g>
	<path class="st17" d="M85.8,124.5l-0.4-1.4h-2.1l-0.4,1.4h-1.3l2-5.7h1.5l2,5.7H85.8z M85.1,122.1c-0.4-1.2-0.6-1.9-0.6-2.1
		c0-0.2-0.1-0.3-0.1-0.4c-0.1,0.3-0.3,1.2-0.7,2.5H85.1z"/>
	<path class="st17" d="M87.9,118.8h1.8c0.8,0,1.4,0.1,1.8,0.3c0.4,0.2,0.6,0.6,0.6,1.1c0,0.3-0.1,0.6-0.2,0.8
		c-0.2,0.2-0.4,0.4-0.6,0.4v0c0.4,0.1,0.6,0.2,0.8,0.5c0.2,0.2,0.2,0.5,0.2,0.9c0,0.5-0.2,0.9-0.6,1.2c-0.4,0.3-0.9,0.4-1.5,0.4
		h-2.1V118.8z M89.1,121h0.7c0.3,0,0.6-0.1,0.7-0.2c0.1-0.1,0.2-0.3,0.2-0.5c0-0.2-0.1-0.4-0.2-0.5c-0.2-0.1-0.4-0.1-0.8-0.1h-0.6
		V121z M89.1,122v1.5h0.8c0.3,0,0.6-0.1,0.7-0.2c0.2-0.1,0.2-0.3,0.2-0.6c0-0.5-0.3-0.7-1-0.7H89.1z"/>
	<path class="st17" d="M95.7,119.7c-0.5,0-0.8,0.2-1.1,0.5s-0.4,0.8-0.4,1.4c0,1.3,0.5,1.9,1.4,1.9c0.4,0,0.9-0.1,1.5-0.3v1
		c-0.5,0.2-1,0.3-1.6,0.3c-0.8,0-1.5-0.3-1.9-0.8c-0.4-0.5-0.7-1.2-0.7-2.2c0-0.6,0.1-1.1,0.3-1.6c0.2-0.4,0.5-0.8,0.9-1
		c0.4-0.2,0.9-0.4,1.4-0.4c0.6,0,1.1,0.1,1.7,0.4l-0.4,1c-0.2-0.1-0.4-0.2-0.6-0.3S95.9,119.7,95.7,119.7z"/>
</g>
<g>
	<g>
		<g>
			<path class="st17" d="M62.9,158.7c0-0.3-0.1-0.5-0.3-0.6c-0.2-0.1-0.5-0.2-0.9-0.2v-1.1c0.4,0,0.7-0.1,0.9-0.2
				c0.2-0.1,0.3-0.3,0.3-0.6v0v-1.4c0-0.5,0.1-0.8,0.4-1c0.3-0.2,0.8-0.3,1.5-0.3v1c-0.3,0-0.5,0.1-0.6,0.2s-0.2,0.3-0.2,0.5v1.4
				c0,0.6-0.4,0.9-1.1,1v0.1c0.7,0.1,1.1,0.4,1.1,1v0v1.4c0,0.2,0.1,0.4,0.2,0.5c0.1,0.1,0.3,0.2,0.6,0.2v1c-0.7,0-1.3-0.1-1.5-0.3
				c-0.3-0.2-0.4-0.5-0.4-1V158.7z"/>
			<path class="st17" d="M70,160.2c0,0.3-0.1,0.6-0.2,0.8c-0.1,0.2-0.3,0.3-0.6,0.4c-0.3,0.1-0.7,0.1-1.2,0.1v-1
				c0.3,0,0.5-0.1,0.6-0.2s0.2-0.3,0.2-0.5v-1.4v0c0-0.3,0.1-0.5,0.3-0.6c0.2-0.2,0.4-0.3,0.8-0.3v-0.1c-0.7-0.1-1-0.4-1.1-1V155
				c0-0.2-0.1-0.4-0.2-0.5c-0.1-0.1-0.3-0.2-0.6-0.2v-1c0.5,0,0.9,0,1.2,0.1c0.3,0.1,0.5,0.2,0.6,0.4s0.2,0.4,0.2,0.8v1.4v0
				c0,0.3,0.1,0.4,0.3,0.6s0.5,0.2,0.9,0.2v1.1c-0.4,0-0.7,0.1-0.9,0.2s-0.3,0.3-0.3,0.6V160.2z"/>
		</g>
	</g>
	<g>
		<g>
			<path class="st17" d="M78.8,160.3l-3.8-2.2v-0.7l3.8-2.5v1.2l-2.6,1.6l2.6,1.4V160.3z"/>
			<path class="st17" d="M84.4,153.9l-2.1,7.5h-1.1l2.1-7.5H84.4z"/>
			<path class="st17" d="M86.8,159.1l2.6-1.4l-2.6-1.6v-1.2l3.8,2.5v0.7l-3.8,2.2V159.1z"/>
		</g>
	</g>
</g>
</svg>
