<?xml version="1.0" encoding="utf-8"?>
<!-- Generator: Adobe Illustrator 22.0.1, SVG Export Plug-In . SVG Version: 6.00 Build 0)  -->
<svg version="1.1" id="Слой_1" xmlns="http://www.w3.org/2000/svg" xmlns:xlink="http://www.w3.org/1999/xlink" x="0px" y="0px" width="647" height="432"
	 viewBox="0 0 647.8 432" style="enable-background:new 0 0 647.8 432;" xml:space="preserve">
<style type="text/css">
	.st0{opacity:0.5;fill:url(#SVGID_1_);}
	.st1{fill:url(#SVGID_2_);}
	.st2{fill:#FFFFFF;}
	.st3{fill:url(#SVGID_3_);}
	.st4{fill:url(#SVGID_4_);}
	.st5{fill:url(#SVGID_5_);}
	.st6{opacity:0.6;fill:#FFFFFF;}
	.st7{opacity:0.61;fill:#FFFFFF;}
	.st8{fill:url(#SVGID_6_);}
	.st9{fill:url(#SVGID_7_);}
	.st10{opacity:0.37;fill:#FFFFFF;}
	.st11{fill:url(#SVGID_8_);}
	.st12{fill:url(#SVGID_9_);}
	.st13{fill:url(#SVGID_10_);}
	.st14{fill:url(#SVGID_11_);}
	.st15{fill:url(#SVGID_12_);}
	.st16{fill:url(#SVGID_13_);}
	.st17{fill:url(#SVGID_14_);}
	.st18{fill:url(#SVGID_15_);}
	.st19{fill:url(#SVGID_16_);}
	.st20{fill:url(#SVGID_17_);}
	.st21{fill:url(#SVGID_18_);}
	.st22{fill:url(#SVGID_19_);}
	.st23{fill:url(#SVGID_20_);}
	.st24{fill:url(#SVGID_21_);}
	.st25{fill:url(#SVGID_22_);}
	.st26{fill:url(#SVGID_23_);}
	.st27{fill:url(#SVGID_24_);}
	.st28{fill:url(#SVGID_25_);}
	.st29{fill:url(#SVGID_26_);}
	.st30{fill:url(#SVGID_27_);}
	.st31{opacity:0.75;fill:#FFFFFF;}
	.st32{fill:url(#SVGID_28_);}
	.st33{fill:url(#SVGID_29_);}
	.st34{fill:url(#SVGID_30_);}
	.st35{fill:url(#SVGID_31_);}
	.st36{fill:url(#SVGID_32_);}
	.st37{fill:url(#SVGID_33_);}
	.st38{fill:url(#SVGID_34_);}
	.st39{fill:url(#SVGID_35_);}
	.st40{fill:url(#SVGID_36_);}
	.st41{fill:url(#SVGID_37_);}
	.st42{fill:url(#SVGID_38_);}
	.st43{fill:url(#SVGID_39_);}
	.st44{fill:url(#SVGID_40_);}
	.st45{fill:url(#SVGID_41_);}
	.st46{fill:url(#SVGID_42_);}
	.st47{fill:url(#SVGID_43_);}
	.st48{fill:url(#SVGID_44_);}
	.st49{fill:url(#SVGID_45_);}
	.st50{fill:url(#SVGID_46_);}
	.st51{fill:url(#SVGID_47_);}
	.st52{fill:url(#SVGID_48_);}
	.st53{fill:url(#SVGID_49_);}
	.st54{fill:url(#SVGID_50_);}
	.st55{fill:url(#SVGID_51_);}
	.st56{fill:url(#SVGID_52_);}
	.st57{fill:url(#SVGID_53_);}
	.st58{fill:url(#SVGID_54_);}
	.st59{fill:url(#SVGID_55_);}
	.st60{fill:url(#SVGID_56_);}
	.st61{fill:url(#SVGID_57_);}
	.st62{fill:url(#SVGID_58_);}
	.st63{fill:url(#SVGID_59_);}
	.st64{fill:url(#SVGID_60_);}
	.st65{fill:url(#SVGID_61_);}
	.st66{fill:url(#SVGID_62_);}
	.st67{fill:url(#SVGID_63_);}
	.st68{fill:url(#SVGID_64_);}
	.st69{fill:url(#SVGID_65_);}
	.st70{fill:url(#SVGID_66_);}
	.st71{fill:url(#SVGID_67_);}
	.st72{fill:url(#SVGID_68_);}
	.st73{fill:url(#SVGID_69_);}
	.st74{fill:url(#SVGID_70_);}
	.st75{fill:url(#SVGID_71_);}
	.st76{fill:url(#SVGID_72_);}
	.st77{fill:url(#SVGID_73_);}
	.st78{fill:url(#SVGID_74_);}
	.st79{fill:url(#SVGID_75_);}
	.st80{fill:url(#SVGID_76_);}
	.st81{fill:url(#SVGID_77_);}
	.st82{fill:url(#SVGID_78_);}
	.st83{fill:url(#SVGID_79_);}
	.st84{fill:url(#SVGID_80_);}
	.st85{fill:url(#SVGID_81_);}
	.st86{fill:url(#SVGID_82_);}
	.st87{fill:url(#SVGID_83_);}
	.st88{fill:url(#SVGID_84_);}
	.st89{fill:url(#SVGID_85_);}
	.st90{fill:url(#SVGID_86_);}
</style>
<linearGradient id="SVGID_1_" gradientUnits="userSpaceOnUse" x1="43.1796" y1="206.703" x2="619.8711" y2="206.703">
	<stop  offset="0" style="stop-color:#B37CFF"/>
	<stop  offset="1" style="stop-color:#F895E7"/>
</linearGradient>
<path class="st0" d="M190.8,381.4c0,0-51.2-6.6-75.5-1.4c-24.3,5.2-84.5-22.8-64.6-66.7s42.6-71.1,16.4-95.2s-34.3-69.8-7.4-95.5
	c26.9-25.7,35,0.7,56.5-8.7c21.4-9.5-5.8-58.8,54.8-72.8c60.6-14,107.7,28.2,135.2,23.4c27.5-4.8,69.9-34,99.6-32.7
	c29.7,1.2,26,44.2,65.5,41.7s70.4-6.8,96,29.8c25.6,36.6,19.4,83-5,101.3c-24.4,18.3-19.6,43,25.3,44.4c44.9,1.4,39.9,52.6,3.2,90.3
	c-36.7,37.8-68.1,38.2-104.7,40.7C449.6,382.5,190.8,381.4,190.8,381.4z"/>
<g>
	
		<linearGradient id="SVGID_2_" gradientUnits="userSpaceOnUse" x1="6404.8989" y1="-934.2322" x2="6585.0762" y2="-934.2322" gradientTransform="matrix(0.9241 0.3823 -0.3823 0.9241 -6213.0581 -1468.4857)">
		<stop  offset="0" style="stop-color:#A737D5"/>
		<stop  offset="1" style="stop-color:#EF497A"/>
	</linearGradient>
	<path class="st1" d="M102.8,21.1c-0.4-1.9,2.2-3.2,3.9-1.8c16.6,13.5,56.5,53.8,46.6,124.3c-12.5,88.5,8.9,120.7,35.4,140.4
		c0,0-36.5-9.3-59.4-42C72.9,161.6,110.8,54.8,102.8,21.1z"/>
	<path class="st2" d="M115.5,48.7c2.1,9.8,3.9,19.7,5.4,29.6c1.5,9.9,2.6,19.9,3.4,29.8c0.7,10,1.3,19.9,1.3,29.9
		c0.1,10-0.3,20-0.8,30c-0.4,10-0.9,20.1-0.1,30.2c0.7,10.1,2.9,20.4,7.1,29.9c1.1,2.4,2.2,4.8,3.4,7.1c1.2,2.3,2.5,4.6,3.9,6.9
		c2.8,4.5,5.9,8.8,9.4,13c7,8.2,15.5,15.5,24.8,21.7c1,0.7,2.4,0.5,3.1-0.4c0.7-0.8,0.6-2-0.4-2.7l0,0c-2.2-1.6-4.4-3.1-6.5-4.8
		c-1.1-0.8-2.1-1.7-3.1-2.5c-1-0.9-2-1.7-3-2.6c-4-3.5-7.6-7.3-11-11.3c-6.7-7.9-12.1-16.7-16.1-25.9c-2-4.6-3.5-9.3-4.7-14.1
		c-1.1-4.8-1.9-9.7-2.3-14.6c-0.8-9.9-0.4-19.8-0.1-29.8c0.3-10,0.5-20.1,0.2-30.1c-0.1-5-0.3-10.1-0.7-15.1c-0.1-2.5-0.3-5-0.5-7.5
		c-0.2-2.5-0.5-5-0.7-7.5c-1.1-10-2.5-20-4.3-29.9c-1.8-9.9-4-19.8-6.6-29.6c-0.1-0.3-0.4-0.5-0.7-0.4
		C115.6,48.2,115.4,48.4,115.5,48.7z"/>
</g>
<g>
	<g>
		
			<linearGradient id="SVGID_3_" gradientUnits="userSpaceOnUse" x1="-1859.3541" y1="3249.522" x2="-1686.5537" y2="3249.522" gradientTransform="matrix(0.6312 -0.7758 0.7758 0.6312 -1242.0271 -3282.0942)">
			<stop  offset="0" style="stop-color:#CE1567"/>
			<stop  offset="1" style="stop-color:#7A1DBC"/>
		</linearGradient>
		<path class="st3" d="M145.9,239.5c-2,2.2-5.6,1.5-6.8-1.2c-6.8-14.9-22.1-58.9,3.2-109.5c21.3-42.7,28.9-68,31.5-79.6
			c0.6-2.5,3.9-2.8,5-0.5C189.9,74.3,219.7,161.2,145.9,239.5z"/>
		<path class="st2" d="M142.2,237.9c-0.1,0-0.1,0-0.2,0c-0.6,0-1.2-0.5-1.1-1.2c0-0.7,1.4-73.3,28.4-134.1c0.3-0.6,0.9-0.8,1.5-0.6
			c0.6,0.3,0.8,0.9,0.6,1.5c-26.8,60.3-28.2,132.4-28.2,133.2C143.1,237.4,142.7,237.8,142.2,237.9z"/>
	</g>
</g>
<g>
	<linearGradient id="SVGID_4_" gradientUnits="userSpaceOnUse" x1="226.896" y1="50.8522" x2="31.5147" y2="559.7026">
		<stop  offset="0" style="stop-color:#53D8FF"/>
		<stop  offset="1" style="stop-color:#3840F7"/>
	</linearGradient>
	<path class="st4" d="M96.8,327.1H226c4.1,0,7.5-3.3,7.5-7.5V126.1c0-4.1-3.3-7.4-7.4-7.5l-130.3-0.3c-4.1,0-7.5,3.4-7.5,7.5
		l1,193.9C89.4,323.8,92.7,327.1,96.8,327.1z"/>
	<linearGradient id="SVGID_5_" gradientUnits="userSpaceOnUse" x1="150.0701" y1="161.4598" x2="170.1092" y2="265.5919">
		<stop  offset="0" style="stop-color:#53D8FF"/>
		<stop  offset="1" style="stop-color:#3840F7"/>
	</linearGradient>
	<path class="st5" d="M103.1,127.9l115.5,0.7c4.2,0,7.5,3.4,7.5,7.6l-0.8,173.7c0,4.1-3.3,7.5-7.4,7.5l-112.3,2
		c-4.2,0.1-7.6-3.3-7.7-7.5l-2.5-176.5C95.5,131.3,98.9,127.8,103.1,127.9z"/>
	<path class="st6" d="M107.8,137.6v0.8c0,1.3,1,2.3,2.3,2.3h89c1.3,0,2.3-1,2.3-2.3v-0.8c0-1.3-1-2.3-2.3-2.3h-89
		C108.9,135.3,107.8,136.3,107.8,137.6z"/>
	<path class="st6" d="M117.8,147.6L117.8,147.6c0.1,1.2,1,2.1,2.2,2.1l77.9,1.4c1.3,0,2.3-1,2.3-2.3v-0.2c0-1.2-1-2.2-2.2-2.3
		l-77.9-1.2C118.8,145.2,117.7,146.3,117.8,147.6z"/>
	<path class="st7" d="M109.8,313.5c-3.5,0-6.4-2.8-6.5-6.3l-2.5-142.1l0,0c-0.1-3.6,2.8-6.5,6.3-6.6l105.1-2c1.7,0,3.4,0.6,4.6,1.8
		c1.2,1.2,1.9,2.8,2,4.5l2.7,142.9c0,1.7-0.6,3.4-1.8,4.6s-2.8,1.9-4.6,2L109.8,313.5C109.9,313.5,109.9,313.5,109.8,313.5z
		 M103,165.1l2.5,142.1c0,2.3,2,4.2,4.3,4.2c0,0,0,0,0.1,0l105.3-1.3c1.2,0,2.2-0.5,3-1.3c0.8-0.8,1.2-1.9,1.2-3.1l-2.7-142.9
		c0-1.2-0.5-2.2-1.3-3c-0.8-0.8-1.9-1.2-3.1-1.2l-105.1,2C104.9,160.7,103,162.7,103,165.1L103,165.1z"/>
	<path class="st7" d="M218,172.9H103.3c-0.6,0-1.1-0.5-1.1-1.1c0-0.6,0.5-1.1,1.1-1.1H218c0.6,0,1.1,0.5,1.1,1.1
		C219,172.5,218.6,172.9,218,172.9z"/>
</g>
<g>
	<g>
		<linearGradient id="SVGID_6_" gradientUnits="userSpaceOnUse" x1="314.0532" y1="359.0556" x2="393.3658" y2="121.1169">
			<stop  offset="0" style="stop-color:#2B3582"/>
			<stop  offset="1" style="stop-color:#150E42"/>
		</linearGradient>
		<path class="st8" d="M518.8,367.7c0,3.4-2.8,6.2-6.2,6.2H176.8c-3.4,0-6.2-2.8-6.2-6.2l-2.8-193c0-3.4,4-10.1,11.4-9.6l328.2-8.5
			c4.3-0.1,8.4,1.5,11.5,4.6c3,3,4.7,7.2,4.6,11.4L518.8,367.7z"/>
		<linearGradient id="SVGID_7_" gradientUnits="userSpaceOnUse" x1="490.9195" y1="105.4636" x2="53.4313" y2="605.1495">
			<stop  offset="0" style="stop-color:#FDF53F"/>
			<stop  offset="1" style="stop-color:#D93C65"/>
		</linearGradient>
		<path class="st9" d="M512.7,361.7c0,3.2-2.6,5.9-5.9,5.9H184.9c-3.2,0-5.9-2.6-5.9-5.9l-2.6-175.2c0.3-10.5,9.6-14.3,15.2-14.1
			l314.5-8.4c3-0.1,5.9,1.1,8.1,3.2c2.1,2.1,3.3,5,3.2,8L512.7,361.7z"/>
		<g>
			<path class="st2" d="M182.5,278.2c-0.3,0-0.5-0.2-0.5-0.5l-0.2-14.2c0-0.3,0.2-0.5,0.5-0.5c0,0,0,0,0,0c0.3,0,0.5,0.2,0.5,0.5
				l0.2,14.2C183.1,277.9,182.8,278.2,182.5,278.2C182.5,278.2,182.5,278.2,182.5,278.2z"/>
			<path class="st2" d="M182,243.4c-0.3,0-0.5-0.2-0.5-0.5l-0.8-54.4c0-3.7,1.1-6.6,3.3-8.7c4-3.8,10.3-3.6,10.5-3.6l100.4-2.7
				c0,0,0,0,0,0c0.3,0,0.5,0.2,0.5,0.5c0,0.3-0.2,0.5-0.5,0.6l-100.5,2.7c-0.3,0-6.1-0.2-9.8,3.3c-2,1.9-3,4.6-3,7.9l0.8,54.4
				C182.6,243.1,182.3,243.4,182,243.4C182,243.4,182,243.4,182,243.4z"/>
		</g>
		<path class="st10" d="M193.2,352c0.3-14.5,0.2-142.7-0.6-153.8c-0.8-11.1,16.4-13.2,42.9-14.4c26.5-1.2,249.9-6.2,255.6-6.6
			c12.9-1,15.6,18.3,14.3,60.2c-1,31.5-2.6,83.4-3.3,107.3c-0.2,7.1-6,12.8-13.1,12.8c-53.8,0.1-259.8,0.7-273.5,1.1
			C199.7,359.1,193.1,357.8,193.2,352z"/>
	</g>
	<linearGradient id="SVGID_8_" gradientUnits="userSpaceOnUse" x1="498.1364" y1="344.9456" x2="146.0497" y2="430.5882">
		<stop  offset="0" style="stop-color:#2B3582"/>
		<stop  offset="1" style="stop-color:#150E42"/>
	</linearGradient>
	<path class="st11" d="M542,389.9H154.2c-2.2,0-4.1-1.8-4.1-4.1V377c0-2.2,1.8-4.1,4.1-4.1H542c2.2,0,4.1,1.8,4.1,4.1v8.8
		C546.1,388.1,544.3,389.9,542,389.9z"/>
</g>
<g>
	<linearGradient id="SVGID_9_" gradientUnits="userSpaceOnUse" x1="494.2062" y1="314.0266" x2="655.7716" y2="426.7466">
		<stop  offset="0" style="stop-color:#FDF53F"/>
		<stop  offset="1" style="stop-color:#D93C65"/>
	</linearGradient>
	<path class="st12" d="M525.3,384.9v-51.9c0-3.9,3.1-7,7-7.1c11.7-0.1,35.7-0.1,55.4,1.5c2.7,0.2,4.8,2.4,4.9,5.1l1.8,50.9
		c0.1,3.8-2.9,6.9-6.6,7l-55.7,1.1C528.4,391.6,525.3,388.7,525.3,384.9z"/>
	<path class="st2" d="M532.1,336.3c0,2.5,0,6.5,0.1,9.1c0,1.3,1.2,2.4,2.5,2.2l9.6-1.1c1.3-0.1,2.2-1.3,2-2.6l-1.2-7.9
		c-0.2-1.1-1.1-1.9-2.3-1.9h-8.5C533.1,334,532.1,335,532.1,336.3z"/>
	<path class="st10" d="M557.2,351.1l8,0.9c1.1,0.1,2.1-0.8,2-1.9l-1.7-23.8c-3.4-0.1-6.7-0.2-9.9-0.2v23.3
		C555.6,350.3,556.2,351,557.2,351.1z"/>
	<path class="st2" d="M560.4,347c0,0.4,0.4,0.8,0.8,0.8c0,0,0,0,0,0c0.4,0,0.8-0.4,0.8-0.9l-1.2-20.8c-0.5,0-1.1,0-1.6,0L560.4,347z
		"/>
	<g>
		<linearGradient id="SVGID_10_" gradientUnits="userSpaceOnUse" x1="539.5623" y1="335.4983" x2="522.3859" y2="360.4577">
			<stop  offset="0" style="stop-color:#2B3582"/>
			<stop  offset="1" style="stop-color:#150E42"/>
		</linearGradient>
		<path class="st13" d="M536.5,343.8c-0.1,0-0.3-0.1-0.3-0.3l-0.4-6.5c0-0.1,0.1-0.3,0.3-0.3c0.2,0,0.3,0.1,0.3,0.3l0.4,6.5
			C536.8,343.6,536.7,343.7,536.5,343.8C536.5,343.8,536.5,343.8,536.5,343.8z"/>
		<linearGradient id="SVGID_11_" gradientUnits="userSpaceOnUse" x1="540.1799" y1="335.9234" x2="523.0035" y2="360.8828">
			<stop  offset="0" style="stop-color:#2B3582"/>
			<stop  offset="1" style="stop-color:#150E42"/>
		</linearGradient>
		<path class="st14" d="M537.4,343.8c-0.1,0-0.3-0.1-0.3-0.3l-0.2-6.7c0-0.1,0.1-0.3,0.3-0.3c0.2,0,0.3,0.1,0.3,0.3l0.2,6.7
			C537.7,343.6,537.5,343.7,537.4,343.8C537.4,343.8,537.4,343.8,537.4,343.8z"/>
		<linearGradient id="SVGID_12_" gradientUnits="userSpaceOnUse" x1="540.925" y1="336.4362" x2="523.7487" y2="361.3955">
			<stop  offset="0" style="stop-color:#2B3582"/>
			<stop  offset="1" style="stop-color:#150E42"/>
		</linearGradient>
		<path class="st15" d="M538.5,343.8c-0.1,0-0.3-0.1-0.3-0.3c-0.1-1.1-0.3-6.6-0.3-6.7c0-0.1,0.1-0.3,0.3-0.3c0.1,0,0.3,0.1,0.3,0.3
			c0,0.1,0.2,4.4,0.3,6.7C538.8,343.6,538.7,343.7,538.5,343.8C538.5,343.8,538.5,343.8,538.5,343.8z M538.5,336.8L538.5,336.8
			L538.5,336.8z"/>
		<linearGradient id="SVGID_13_" gradientUnits="userSpaceOnUse" x1="542.2141" y1="337.3232" x2="525.0377" y2="362.2825">
			<stop  offset="0" style="stop-color:#2B3582"/>
			<stop  offset="1" style="stop-color:#150E42"/>
		</linearGradient>
		<path class="st16" d="M540.3,344c-0.3,0-0.5-0.2-0.5-0.5c-0.2-6.5-0.2-6.6-0.2-6.7c0.1-0.3,0.4-0.5,0.7-0.4
			c0.3,0.1,0.4,0.3,0.4,0.6c0,0.4,0.1,4.1,0.2,6.5C540.9,343.8,540.6,344,540.3,344C540.3,344,540.3,344,540.3,344z"/>
		<linearGradient id="SVGID_14_" gradientUnits="userSpaceOnUse" x1="543.064" y1="337.9081" x2="525.8875" y2="362.8676">
			<stop  offset="0" style="stop-color:#2B3582"/>
			<stop  offset="1" style="stop-color:#150E42"/>
		</linearGradient>
		<path class="st17" d="M541.5,343.8c-0.1,0-0.3-0.1-0.3-0.3v-6.5c0-0.1,0.1-0.3,0.3-0.3c0.1,0,0.3,0.1,0.3,0.3v6.5
			C541.7,343.6,541.6,343.8,541.5,343.8z"/>
		<linearGradient id="SVGID_15_" gradientUnits="userSpaceOnUse" x1="543.5916" y1="338.2712" x2="526.4152" y2="363.2307">
			<stop  offset="0" style="stop-color:#2B3582"/>
			<stop  offset="1" style="stop-color:#150E42"/>
		</linearGradient>
		<path class="st18" d="M542.4,343.8c-0.1,0-0.3-0.1-0.3-0.3c-0.1-2.3-0.2-6-0.3-6.4c0-0.1,0-0.2,0-0.3c0.1-0.1,0.2-0.2,0.4-0.1
			c0.1,0.1,0.3,0.2,0.4,6.8C542.7,343.6,542.6,343.8,542.4,343.8L542.4,343.8z"/>
		<linearGradient id="SVGID_16_" gradientUnits="userSpaceOnUse" x1="538.6785" y1="334.8901" x2="521.5021" y2="359.8496">
			<stop  offset="0" style="stop-color:#2B3582"/>
			<stop  offset="1" style="stop-color:#150E42"/>
		</linearGradient>
		<path class="st19" d="M535.1,344.4c-0.3,0-0.5-0.2-0.5-0.5l-0.4-6.9c0-0.3,0.2-0.5,0.5-0.6c0.3,0,0.5,0.2,0.6,0.5l0.4,6.9
			C535.6,344.1,535.4,344.3,535.1,344.4C535.1,344.4,535.1,344.4,535.1,344.4z"/>
	</g>
</g>
<g>
	<linearGradient id="SVGID_17_" gradientUnits="userSpaceOnUse" x1="563.2638" y1="351.3828" x2="645.3885" y2="408.8165">
		<stop  offset="0" style="stop-color:#FDF53F"/>
		<stop  offset="1" style="stop-color:#D93C65"/>
	</linearGradient>
	<path class="st20" d="M568.1,387.2v-34.1c0-2.6,2.1-4.6,4.6-4.7c7.7-0.1,23.5-0.1,36.5,1c1.8,0.1,3.1,1.6,3.2,3.4l1.2,33.5
		c0.1,2.5-1.9,4.6-4.4,4.6l-36.7,0.7C570.1,391.6,568.1,389.7,568.1,387.2z"/>
	<path class="st2" d="M572.6,355.2c0,1.7,0,4.3,0.1,6c0,0.9,0.8,1.6,1.7,1.5l6.3-0.7c0.8-0.1,1.4-0.9,1.3-1.7l-0.8-5.2
		c-0.1-0.7-0.7-1.3-1.5-1.3h-5.6C573.3,353.7,572.6,354.3,572.6,355.2z"/>
	<path class="st10" d="M589.1,365l5.3,0.6c0.7,0.1,1.4-0.5,1.3-1.3l-1.2-15.7c-2.2-0.1-4.4-0.1-6.5-0.2v15.3
		C588,364.4,588.5,364.9,589.1,365z"/>
	<path class="st2" d="M591.2,362.2c0,0.3,0.2,0.5,0.5,0.5c0,0,0,0,0,0c0.3,0,0.5-0.3,0.5-0.6l-0.8-13.7c-0.4,0-0.7,0-1.1,0
		L591.2,362.2z"/>
	<g>
		<linearGradient id="SVGID_18_" gradientUnits="userSpaceOnUse" x1="575.0543" y1="357.7712" x2="575.6809" y2="357.7712">
			<stop  offset="0" style="stop-color:#2B3582"/>
			<stop  offset="1" style="stop-color:#150E42"/>
		</linearGradient>
		<path class="st21" d="M575.5,360.1c-0.1,0-0.2-0.1-0.2-0.2l-0.3-4.3c0-0.1,0.1-0.2,0.2-0.2c0.1,0,0.2,0.1,0.2,0.2l0.3,4.3
			C575.7,360,575.6,360.1,575.5,360.1C575.5,360.1,575.5,360.1,575.5,360.1z"/>
		<linearGradient id="SVGID_19_" gradientUnits="userSpaceOnUse" x1="575.7466" y1="357.7299" x2="576.2433" y2="357.7299">
			<stop  offset="0" style="stop-color:#2B3582"/>
			<stop  offset="1" style="stop-color:#150E42"/>
		</linearGradient>
		<path class="st22" d="M576.1,360.1c-0.1,0-0.2-0.1-0.2-0.2l-0.1-4.4c0-0.1,0.1-0.2,0.2-0.2c0.1,0,0.2,0.1,0.2,0.2l0.1,4.4
			C576.2,360,576.2,360.1,576.1,360.1L576.1,360.1z"/>
		<linearGradient id="SVGID_20_" gradientUnits="userSpaceOnUse" x1="576.4382" y1="357.7301" x2="576.9973" y2="357.7301">
			<stop  offset="0" style="stop-color:#2B3582"/>
			<stop  offset="1" style="stop-color:#150E42"/>
		</linearGradient>
		<path class="st23" d="M576.8,360.1c-0.1,0-0.2-0.1-0.2-0.2c0-0.7-0.2-4.3-0.2-4.4c0-0.1,0.1-0.2,0.2-0.2c0.1,0,0.2,0.1,0.2,0.2
			c0,0.1,0.1,2.9,0.2,4.4C577,360,576.9,360.1,576.8,360.1C576.8,360.1,576.8,360.1,576.8,360.1z M576.8,355.5L576.8,355.5
			L576.8,355.5z"/>
		<linearGradient id="SVGID_21_" gradientUnits="userSpaceOnUse" x1="577.5262" y1="357.7712" x2="578.3517" y2="357.7712">
			<stop  offset="0" style="stop-color:#2B3582"/>
			<stop  offset="1" style="stop-color:#150E42"/>
		</linearGradient>
		<path class="st24" d="M578,360.3c-0.2,0-0.3-0.2-0.4-0.3c-0.1-4.3-0.1-4.3-0.1-4.4c0.1-0.2,0.2-0.3,0.4-0.2c0.2,0,0.3,0.2,0.3,0.4
			c0,0.3,0.1,2.7,0.1,4.2C578.4,360.1,578.2,360.3,578,360.3C578,360.3,578,360.3,578,360.3z"/>
		<linearGradient id="SVGID_22_" gradientUnits="userSpaceOnUse" x1="578.5872" y1="357.7713" x2="578.9404" y2="357.7713">
			<stop  offset="0" style="stop-color:#2B3582"/>
			<stop  offset="1" style="stop-color:#150E42"/>
		</linearGradient>
		<path class="st25" d="M578.8,360.1c-0.1,0-0.2-0.1-0.2-0.2v-4.3c0-0.1,0.1-0.2,0.2-0.2s0.2,0.1,0.2,0.2v4.3
			C578.9,360,578.9,360.1,578.8,360.1z"/>
		<linearGradient id="SVGID_23_" gradientUnits="userSpaceOnUse" x1="578.9995" y1="357.7662" x2="579.5587" y2="357.7662">
			<stop  offset="0" style="stop-color:#2B3582"/>
			<stop  offset="1" style="stop-color:#150E42"/>
		</linearGradient>
		<path class="st26" d="M579.4,360.1c-0.1,0-0.2-0.1-0.2-0.2c0-1.5-0.1-3.9-0.2-4.2c0-0.1,0-0.1,0-0.2c0.1-0.1,0.2-0.1,0.2-0.1
			c0.1,0.1,0.2,0.1,0.3,4.5C579.6,360,579.5,360.1,579.4,360.1L579.4,360.1z"/>
		<linearGradient id="SVGID_24_" gradientUnits="userSpaceOnUse" x1="573.9651" y1="357.8789" x2="574.9075" y2="357.8789">
			<stop  offset="0" style="stop-color:#2B3582"/>
			<stop  offset="1" style="stop-color:#150E42"/>
		</linearGradient>
		<path class="st27" d="M574.6,360.5c-0.2,0-0.3-0.1-0.4-0.3l-0.2-4.5c0-0.2,0.1-0.4,0.3-0.4c0.2,0,0.4,0.1,0.4,0.3l0.2,4.5
			C574.9,360.3,574.8,360.5,574.6,360.5C574.6,360.5,574.6,360.5,574.6,360.5z"/>
	</g>
</g>
<linearGradient id="SVGID_25_" gradientUnits="userSpaceOnUse" x1="361.9875" y1="263.4733" x2="475.5303" y2="263.4733">
	<stop  offset="0" style="stop-color:#CB236D"/>
	<stop  offset="1" style="stop-color:#4C246D"/>
</linearGradient>
<path class="st28" d="M474.5,283.6c-0.1,0-0.2,0-0.3-0.1l-111.4-38c-0.6-0.2-0.9-0.8-0.7-1.4c0.2-0.6,0.8-0.9,1.4-0.7l111.4,38
	c0.6,0.2,0.9,0.8,0.7,1.4C475.3,283.3,474.9,283.6,474.5,283.6z"/>
<linearGradient id="SVGID_26_" gradientUnits="userSpaceOnUse" x1="260.0796" y1="263.0711" x2="358.055" y2="263.0711">
	<stop  offset="0" style="stop-color:#CB236D"/>
	<stop  offset="1" style="stop-color:#4C246D"/>
</linearGradient>
<path class="st29" d="M261.2,284.8c-0.4,0-0.8-0.2-1-0.6c-0.2-0.5,0-1.2,0.6-1.4l95.5-41.2c0.5-0.2,1.8-0.2,1.9,0.4
	c0,0.3-1.6,2-2.1,2.2l-94.4,40.6C261.4,284.8,261.3,284.8,261.2,284.8z"/>
<g>
	<linearGradient id="SVGID_27_" gradientUnits="userSpaceOnUse" x1="380.8188" y1="446.7679" x2="367.1322" y2="292.9935">
		<stop  offset="0" style="stop-color:#53D8FF"/>
		<stop  offset="1" style="stop-color:#3840F7"/>
	</linearGradient>
	<path class="st30" d="M258.1,285.3l3.9,59.9c0.1,2,1.8,3.6,3.8,3.5c25.4-0.1,178.7-0.9,205.9-2.2c2-0.1,3.6-1.7,3.6-3.7l1.1-57
		c0-2.1-1.7-3.8-3.8-3.9l-210.6-0.6C259.7,281.3,258,283.1,258.1,285.3z"/>
	<path class="st31" d="M267,303.6l2.3,36.1c0.1,1.7,1.5,3,3.2,2.9l192.7-2.3c1.7,0,3.1-1.4,3.1-3.1v-33.8c0-1.7-1.4-3.1-3.1-3.1
		H270.1C268.3,300.3,266.9,301.8,267,303.6z"/>
	<g>
		<linearGradient id="SVGID_28_" gradientUnits="userSpaceOnUse" x1="291.8314" y1="285.5078" x2="294.6942" y2="340.9735">
			<stop  offset="0" style="stop-color:#53D8FF"/>
			<stop  offset="1" style="stop-color:#3840F7"/>
		</linearGradient>
		<path class="st32" d="M314.5,291.8c0-2.5-2-4.6-4.6-4.6l-37.9-0.7c-1.5-0.1-2.6,1.2-2.4,2.7c0.2,1.9,0.6,4.4,0.8,6.1
			c0.2,1.2,1.2,2,2.4,2l37.1-0.2c2.6,0,4.6-2.1,4.6-4.6V291.8z"/>
		<linearGradient id="SVGID_29_" gradientUnits="userSpaceOnUse" x1="325.6668" y1="283.7614" x2="328.5295" y2="339.227">
			<stop  offset="0" style="stop-color:#53D8FF"/>
			<stop  offset="1" style="stop-color:#3840F7"/>
		</linearGradient>
		<path class="st33" d="M324.9,297l2.4,0c2.6,0,4.6-2.1,4.6-4.6v-0.3c0-2.5-2-4.6-4.6-4.6l-2.4,0c-2.6,0-4.7,2-4.7,4.6v0.4
			C320.3,295,322.4,297.1,324.9,297z"/>
		<linearGradient id="SVGID_30_" gradientUnits="userSpaceOnUse" x1="343.7359" y1="282.8289" x2="346.5986" y2="338.2944">
			<stop  offset="0" style="stop-color:#53D8FF"/>
			<stop  offset="1" style="stop-color:#3840F7"/>
		</linearGradient>
		<path class="st34" d="M348.4,287.8l-6-0.1c-2.6,0-4.7,2-4.7,4.6l0,0c0,2.6,2.1,4.6,4.7,4.6l6,0c1.3,0,2.3-1.1,2.3-2.4v-4.4
			C350.7,288.9,349.7,287.9,348.4,287.8z"/>
	</g>
	<linearGradient id="SVGID_31_" gradientUnits="userSpaceOnUse" x1="352.7265" y1="277.5771" x2="268.6339" y2="367.0374">
		<stop  offset="0" style="stop-color:#53D8FF"/>
		<stop  offset="1" style="stop-color:#3840F7"/>
	</linearGradient>
	<path class="st35" d="M276.4,309.7v1.1c0,1.2,1,2.1,2.1,2.1l87.6-0.6c1.2,0,2.1-1,2.1-2.1l0,0c0-1.2-0.9-2.1-2.1-2.1l-87.6-0.5
		C277.3,307.6,276.4,308.6,276.4,309.7z"/>
	<linearGradient id="SVGID_32_" gradientUnits="userSpaceOnUse" x1="356.5928" y1="281.2115" x2="272.5002" y2="370.6718">
		<stop  offset="0" style="stop-color:#53D8FF"/>
		<stop  offset="1" style="stop-color:#3840F7"/>
	</linearGradient>
	<path class="st36" d="M277.5,321.5v1.1c0,0.5,0.4,0.9,0.9,0.9l80.9-1c0.6,0,1-0.6,0.8-1.2l-0.6-1.8c-0.1-0.4-0.5-0.6-0.9-0.6
		l-79.4,0.8C278.3,319.6,277.5,320.4,277.5,321.5z"/>
</g>
<path class="st10" d="M210,208.5l1.8,41.8c0.1,2.9,2.6,5.2,5.5,5.1l32.7-1.3c2.9-0.1,5.2-2.5,5.1-5.4l-0.8-40.5
	c-0.1-2.9-2.4-5.2-5.3-5.2h-33.8C212.3,203,209.9,205.5,210,208.5z"/>
<path class="st10" d="M269.8,208.5l2,40c0.1,3,2.7,5.4,5.7,5.3l30-0.6c3.1-0.1,5.6-2.7,5.5-5.8l-1.6-39.4c-0.1-3-2.6-5.4-5.6-5.4
	h-30.4C272.2,202.6,269.7,205.3,269.8,208.5z"/>
<g>
	<linearGradient id="SVGID_33_" gradientUnits="userSpaceOnUse" x1="530.0373" y1="108.6418" x2="362.5669" y2="323.3477">
		<stop  offset="0" style="stop-color:#53D8FF"/>
		<stop  offset="1" style="stop-color:#3840F7"/>
	</linearGradient>
	<path class="st37" d="M380.1,123.5l9.3,129.1c0.3,4.8,4.3,8.5,9.1,8.4l150.5-1c4.9,0,8.9-3.9,9-8.8l4-126.1c0.2-5.1-3.9-9.3-9-9.4
		l-163.8-1.9C383.9,113.6,379.7,118.1,380.1,123.5z"/>
	<path class="st31" d="M390.4,138.6l7.8,110c0.2,2.7,2.4,4.8,5.1,4.8l139.7-0.7c2.8,0,5.1-2.3,5.1-5.1l0.9-106.2
		c0-2.8-2.2-5.1-5-5.2l-148.4-3.1C392.6,133.1,390.2,135.6,390.4,138.6z"/>
	<path class="st31" d="M390.2,124.3L390.2,124.3c0.1,2.1,1.8,3.7,3.9,3.7l56.3,0c2.1,0,3.9-1.7,3.9-3.9v-1.5c0-2.2-1.8-3.9-4-3.9
		l-56.3,1.5C391.8,120.3,390.1,122.1,390.2,124.3z"/>
	<linearGradient id="SVGID_34_" gradientUnits="userSpaceOnUse" x1="481.3503" y1="128.0969" x2="442.9717" y2="199.218">
		<stop  offset="0" style="stop-color:#53D8FF"/>
		<stop  offset="1" style="stop-color:#3840F7"/>
	</linearGradient>
	<path class="st38" d="M443.9,139.2h0.9c0.8,0,1.4,0.6,1.4,1.4l1.9,108.6c0,0.8-0.6,1.5-1.4,1.5l0,0c-0.8,0-1.4-0.6-1.4-1.4
		l-2.8-108.6C442.4,139.9,443.1,139.2,443.9,139.2z"/>
	<g>
		<linearGradient id="SVGID_35_" gradientUnits="userSpaceOnUse" x1="439.6942" y1="105.6182" x2="401.3156" y2="176.7393">
			<stop  offset="0" style="stop-color:#53D8FF"/>
			<stop  offset="1" style="stop-color:#3840F7"/>
		</linearGradient>
		<path class="st39" d="M400.4,146.2l32,0.3c1.3,0,2.4,1.1,2.4,2.5l0,0c0,1.4-1.1,2.5-2.5,2.5l-32-0.2c-1.1,0-2.1-0.8-2.4-1.9l0-0.1
			C397.7,147.6,398.8,146.1,400.4,146.2z"/>
		<linearGradient id="SVGID_36_" gradientUnits="userSpaceOnUse" x1="446.6948" y1="109.396" x2="408.3162" y2="180.5171">
			<stop  offset="0" style="stop-color:#53D8FF"/>
			<stop  offset="1" style="stop-color:#3840F7"/>
		</linearGradient>
		<path class="st40" d="M408.3,155.4c6.2,0.2,18.8,0.3,24.1,0.4c1.3,0,2.4,1.1,2.4,2.5v0.4c0,1.4-1.1,2.5-2.5,2.5h-23.9
			c-1.1,0-2-0.7-2.3-1.7l-0.3-0.8C405.4,157,406.7,155.3,408.3,155.4z"/>
		<linearGradient id="SVGID_37_" gradientUnits="userSpaceOnUse" x1="450.6816" y1="111.5474" x2="412.303" y2="182.6685">
			<stop  offset="0" style="stop-color:#53D8FF"/>
			<stop  offset="1" style="stop-color:#3840F7"/>
		</linearGradient>
		<path class="st41" d="M407.8,166.1v0.4c0,1.3,1,2.3,2.3,2.3h22c1.2,0,2.3-1,2.3-2.3l0,0c0-1.3-1-2.3-2.3-2.3h-22.4
			C408.6,164.2,407.8,165.1,407.8,166.1z"/>
	</g>
	<linearGradient id="SVGID_38_" gradientUnits="userSpaceOnUse" x1="518.8799" y1="124.1548" x2="444.5383" y2="189.9082">
		<stop  offset="0" style="stop-color:#A737D5"/>
		<stop  offset="1" style="stop-color:#EF497A"/>
	</linearGradient>
	<circle class="st42" cx="473.7" cy="164.1" r="14.2"/>
	<linearGradient id="SVGID_39_" gradientUnits="userSpaceOnUse" x1="539.3219" y1="147.2668" x2="464.9803" y2="213.0202">
		<stop  offset="0" style="stop-color:#53D8FF"/>
		<stop  offset="1" style="stop-color:#3840F7"/>
	</linearGradient>
	<circle class="st43" cx="520.3" cy="164.1" r="14.2"/>
	<linearGradient id="SVGID_40_" gradientUnits="userSpaceOnUse" x1="537.9962" y1="145.7679" x2="463.6546" y2="211.5212">
		<stop  offset="0" style="stop-color:#53D8FF"/>
		<stop  offset="1" style="stop-color:#3840F7"/>
	</linearGradient>
	<circle class="st44" cx="473.7" cy="202.6" r="14.2"/>
	<linearGradient id="SVGID_41_" gradientUnits="userSpaceOnUse" x1="558.4382" y1="168.8799" x2="484.0966" y2="234.6333">
		<stop  offset="0" style="stop-color:#53D8FF"/>
		<stop  offset="1" style="stop-color:#3840F7"/>
	</linearGradient>
	<circle class="st45" cx="520.3" cy="202.6" r="14.2"/>
</g>
<g>
	
		<linearGradient id="SVGID_42_" gradientUnits="userSpaceOnUse" x1="11357.6563" y1="-4199.79" x2="11318.248" y2="-4223.6733" gradientTransform="matrix(0.9972 7.430000e-02 -0.2459 0.8948 -11771.8018 3015.7739)">
		<stop  offset="0" style="stop-color:#53D8FF"/>
		<stop  offset="1" style="stop-color:#3840F7"/>
	</linearGradient>
	<polygon class="st46" points="564.9,80.7 562.8,89.3 557.8,84.2 	"/>
	
		<linearGradient id="SVGID_43_" gradientUnits="userSpaceOnUse" x1="11335.7842" y1="-4208.6206" x2="11290.6885" y2="-4256.3037" gradientTransform="matrix(0.9972 7.430000e-02 -0.2459 0.8948 -11771.8018 3015.7739)">
		<stop  offset="0" style="stop-color:#53D8FF"/>
		<stop  offset="1" style="stop-color:#3840F7"/>
	</linearGradient>
	<path class="st47" d="M527.1,66.3l18.4,26.2c0.4,0.5,0.9,0.8,1.5,0.9c0.6,0.1,1.2-0.1,1.7-0.4l25.6-19.5c0.3-0.2,0.4-0.6,0.3-1
		c-0.1-0.4-0.4-0.6-0.8-0.7L527.1,66.3z"/>
	
		<linearGradient id="SVGID_44_" gradientUnits="userSpaceOnUse" x1="11354.7783" y1="-4200.1875" x2="11317.9668" y2="-4222.498" gradientTransform="matrix(0.9972 7.430000e-02 -0.2459 0.8948 -11771.8018 3015.7739)">
		<stop  offset="0" style="stop-color:#53D8FF"/>
		<stop  offset="1" style="stop-color:#3840F7"/>
	</linearGradient>
	<polygon class="st48" points="564.9,80.7 527.1,66.3 560.7,83.8 560.3,86.2 	"/>
	
		<linearGradient id="SVGID_45_" gradientUnits="userSpaceOnUse" x1="-14980.7139" y1="-3765.3162" x2="-14963.8916" y2="-3770.1882" gradientTransform="matrix(-0.9972 -7.430000e-02 -7.430000e-02 0.9972 -14649.6592 2730.9153)">
		<stop  offset="0" style="stop-color:#53D8FF"/>
		<stop  offset="1" style="stop-color:#3840F7"/>
	</linearGradient>
	<polygon class="st49" points="558.3,85.7 562.8,89.3 560.7,83.8 	"/>
</g>
<g>
	<linearGradient id="SVGID_46_" gradientUnits="userSpaceOnUse" x1="548.8613" y1="173.2718" x2="558.1454" y2="196.5608">
		<stop  offset="0" style="stop-color:#2B3582"/>
		<stop  offset="1" style="stop-color:#150E42"/>
	</linearGradient>
	<path class="st50" d="M554.4,185.8c0,0,3.1,1.5,3.7,3.3c0.5,1.4,3.9,1.6,4.3,4.3c0.2,1.4,1.2,2.6,2.7,2.8c3.5,0.5,9,2.4,9.9,8.5
		c0.7,4.7-1.7,6.5-4.2,7.1c-1.8,0.5-3.1,2.2-2.7,4.1c0.4,1.8-0.2,3.8-3.3,5.5c-6.9,3.7-13.8-8.7-13.8-8.7l-1.4-21.5L554.4,185.8z"/>
	<linearGradient id="SVGID_47_" gradientUnits="userSpaceOnUse" x1="529.7068" y1="186.7269" x2="546.8589" y2="225.7517">
		<stop  offset="0" style="stop-color:#F9B776"/>
		<stop  offset="1" style="stop-color:#F47960"/>
	</linearGradient>
	<path class="st51" d="M521.8,174.5c0,0,8.9,24.3,24.1,31.9c0,0-5,8.2-7.7,8.7c0,0-16.2-20.7-17.9-37.7L521.8,174.5z"/>
	<linearGradient id="SVGID_48_" gradientUnits="userSpaceOnUse" x1="582.8" y1="323.0316" x2="590.6567" y2="323.0316">
		<stop  offset="0" style="stop-color:#A737D5"/>
		<stop  offset="1" style="stop-color:#EF497A"/>
	</linearGradient>
	<path class="st52" d="M582.8,320.5l0.4,3.7c0.1,0.7,1.7,2.5,2.4,2.6c1.2,0.1,1.7,0.4,3.5,0.2c0.8-0.1,1.6-2.3,1.4-3
		c-0.5-1.4-1.3-3.6-2.5-4.8h-4.1C583.3,319.1,582.7,319.7,582.8,320.5z"/>
	<linearGradient id="SVGID_49_" gradientUnits="userSpaceOnUse" x1="549.5344" y1="353.4154" x2="560.8636" y2="221.0054">
		<stop  offset="0" style="stop-color:#F9B776"/>
		<stop  offset="1" style="stop-color:#F47960"/>
	</linearGradient>
	<path class="st53" d="M550.8,277.4l-0.7,4.1c0,0,2.3,23.4,2.7,32.7c0.1,1.5-0.3,2.9-1.1,4.2l-4,6.5l10.2-6l0.2-1.2l-1.7-2.3
		l2.2-26.2c0.1-1.5-0.2-3.1-0.9-4.4l-2.1-4L550.8,277.4z"/>
	<linearGradient id="SVGID_50_" gradientUnits="userSpaceOnUse" x1="546.2248" y1="320.933" x2="558.9632" y2="320.933">
		<stop  offset="0" style="stop-color:#A737D5"/>
		<stop  offset="1" style="stop-color:#EF497A"/>
	</linearGradient>
	<path class="st54" d="M547.1,325.8h3.3c0.6,0,1.2-0.3,1.6-0.8c1-1.3,3.1-3.9,4.1-4c1.4-0.1,1.2,4.7,1.2,4.7h0.8l1-6
		c0.2-1.5-0.5-3-1.9-3.7v0c0,0-0.3,2.3-2,3.3c-1.7,1-6.8,4.6-6.8,4.6s-0.6-0.1-1.3,0C545.9,324.3,546,325.8,547.1,325.8z"/>
	<linearGradient id="SVGID_51_" gradientUnits="userSpaceOnUse" x1="572.3238" y1="355.3855" x2="583.6559" y2="222.9408">
		<stop  offset="0" style="stop-color:#F9B776"/>
		<stop  offset="1" style="stop-color:#F47960"/>
	</linearGradient>
	<path class="st55" d="M564.8,279.3c0,0,13.5,25.6,15.7,31.5s2.9,10.7,2.9,11.2c0,0.7,0.9,1.4,3.4,1.4c1.3,0,1.9-0.5,2.2-1
		c0.3-0.4,0.3-1,0.1-1.4c-0.8-1.6-3.3-6.6-4.2-8.9c-1.1-2.7-3.5-15.2-4.8-19.5c-1.3-4.3-2.8-9-8.4-13.3
		C571.8,279.3,567.9,275.5,564.8,279.3z"/>
	<linearGradient id="SVGID_52_" gradientUnits="userSpaceOnUse" x1="549.8143" y1="219.8881" x2="555.4791" y2="272.4457">
		<stop  offset="0" style="stop-color:#FDF53F"/>
		<stop  offset="1" style="stop-color:#D93C65"/>
	</linearGradient>
	<path class="st56" d="M556.3,237.3c-3.5-14.8,5.3-23.1,5.3-23.1c-5.6-5.4-15.7-7.8-15.7-7.8s-9.7,7.1-8.5,12.6
		c0.7,3.3,6.8,19.5,6.8,19.5S549.8,241.1,556.3,237.3z"/>
	<linearGradient id="SVGID_53_" gradientUnits="userSpaceOnUse" x1="557.6957" y1="259.6849" x2="479.3282" y2="368.111">
		<stop  offset="0" style="stop-color:#53D8FF"/>
		<stop  offset="1" style="stop-color:#3840F7"/>
	</linearGradient>
	<path class="st57" d="M564,244.6c-1.4-4.3-7.7-7.3-7.7-7.3c-6.4,3.9-12.1,1.2-12.1,1.2s-1.3,4.9-0.4,9.4c0.9,4.5,6.4,33.6,6.4,33.6
		c8.7,1.8,22-1.8,22-1.8C566.7,269.8,565.4,248.9,564,244.6z"/>
	<linearGradient id="SVGID_54_" gradientUnits="userSpaceOnUse" x1="548.292" y1="222.8988" x2="550.4201" y2="207.3298">
		<stop  offset="0" style="stop-color:#F9B776"/>
		<stop  offset="1" style="stop-color:#F47960"/>
	</linearGradient>
	<path class="st58" d="M552.2,196.6l2.8,12.7c0.3,1.1-0.8,0.9-1.9,0.7c-1.9-0.4-4.3-1.1-5.1-2.5c-0.1-0.1-0.1-0.3-0.1-0.5l-1.2-8.8
		c-0.1-0.7,0.3-1.4,0.9-1.7l2.4-1C550.9,195.1,552,195.6,552.2,196.6z"/>
	<linearGradient id="SVGID_55_" gradientUnits="userSpaceOnUse" x1="557.0631" y1="230.4857" x2="571.2003" y2="230.4857">
		<stop  offset="0" style="stop-color:#F9B776"/>
		<stop  offset="1" style="stop-color:#F47960"/>
	</linearGradient>
	<path class="st59" d="M561.6,214.1c0,0,19.8,14.2,2.5,29c0,0-0.7,0.7-2,1.1c-0.7,0.2-2.6,1.7-3.6,2.4c-0.3,0.2-0.8,0.2-1-0.2l0,0
		c-0.2-0.3-0.2-0.6-0.1-0.9l2.5-5.2c0.7-0.6,1.7-0.7,2.5-0.1l0,0c0.5,0.4,1.2,0.2,1.4-0.3c1.3-2.7,3.9-10.7-6.5-19.7
		c-0.4-0.3-0.5-0.9-0.2-1.4C557.9,217.6,559.6,214.8,561.6,214.1z"/>
	<g>
		<linearGradient id="SVGID_56_" gradientUnits="userSpaceOnUse" x1="542.9204" y1="202.8256" x2="561.4886" y2="169.7803">
			<stop  offset="0" style="stop-color:#F9B776"/>
			<stop  offset="1" style="stop-color:#F47960"/>
		</linearGradient>
		<path class="st60" d="M548.9,184.4c0,0-3.4,1.4-5.6,6.3c-2.3,4.9-0.6,7.1,1.6,7.4c2.1,0.3,5.3,0.3,8.7-2.9
			C556.9,192.1,553.2,182.8,548.9,184.4z"/>
		<linearGradient id="SVGID_57_" gradientUnits="userSpaceOnUse" x1="546.9135" y1="174.0483" x2="556.1976" y2="197.3373">
			<stop  offset="0" style="stop-color:#2B3582"/>
			<stop  offset="1" style="stop-color:#150E42"/>
		</linearGradient>
		<path class="st61" d="M551.3,192.6c0,0,2.5-7.1-3.8-7.2l-1.5,1c0,0-2.3-3.9,1.5-5.8c3.8-1.9,8.2-0.3,9.8,4.8
			c1.6,5.1,1.9,8.5-0.8,11c-2.7,2.4-3.8-0.3-3.8-0.3s1.5-2.3,0.9-3.5c-0.6-1.2-2,0.3-2,0.3L551.3,192.6z"/>
		<linearGradient id="SVGID_58_" gradientUnits="userSpaceOnUse" x1="546.8729" y1="205.0465" x2="565.4412" y2="172.0012">
			<stop  offset="0" style="stop-color:#F9B776"/>
			<stop  offset="1" style="stop-color:#F47960"/>
		</linearGradient>
		<path class="st62" d="M552,193.4c0,0,1.3-3.7,3-2.2c1.7,1.5-1.4,3.4-2.6,4L552,193.4z"/>
	</g>
	<g>
		<linearGradient id="SVGID_59_" gradientUnits="userSpaceOnUse" x1="526.3175" y1="188.2166" x2="543.4696" y2="227.2414">
			<stop  offset="0" style="stop-color:#F9B776"/>
			<stop  offset="1" style="stop-color:#F47960"/>
		</linearGradient>
		<path class="st63" d="M520.9,178.9c-0.1,0.4,1.4,1.1,2.4-0.7c0-0.8,0.5-4.5,0-5.2c-2.7-3.7-7.9-8.3-7.9-8.3
			c-0.9,0.9-0.2,1.7-0.2,1.7l2.5,2.6c-0.5,1-1.2,1.8-1.5,2.9c-0.2,0.9-0.1,1.8,0.4,2.6c0.4,0.8,1.1,1.8,1.6,2.7
			C519.4,178.9,520.9,178.9,520.9,178.9z"/>
		<linearGradient id="SVGID_60_" gradientUnits="userSpaceOnUse" x1="518.4021" y1="173.9474" x2="521.9467" y2="173.9474">
			<stop  offset="0" style="stop-color:#F9B776"/>
			<stop  offset="1" style="stop-color:#F47960"/>
		</linearGradient>
		<path class="st64" d="M521.9,174.8l-0.7-1.9l-2.3-2c-0.5,0.2-0.7,0.6-0.2,1.5c0.5,0.8,1.2,4.7,1.2,4.7L521.9,174.8z"/>
	</g>
</g>
<g>
	<g>
		<linearGradient id="SVGID_61_" gradientUnits="userSpaceOnUse" x1="33.3578" y1="412.5635" x2="45.5319" y2="412.5635">
			<stop  offset="0" style="stop-color:#2B3582"/>
			<stop  offset="1" style="stop-color:#150E42"/>
		</linearGradient>
		<path class="st65" d="M35.1,408.3c0,0-1.4,2.1-1.7,8.1c0,0.6,0.4,1,1,1h10.6c0.4,0,0.7-0.4,0.6-0.8c-0.6-1.8-2.5-6.3-6.7-8.9
			L35.1,408.3z"/>
		<linearGradient id="SVGID_62_" gradientUnits="userSpaceOnUse" x1="34.5927" y1="406.9063" x2="39.5302" y2="406.9063">
			<stop  offset="0" style="stop-color:#F9B776"/>
			<stop  offset="1" style="stop-color:#F47960"/>
		</linearGradient>
		<path class="st66" d="M34.6,404.2l0.6,5c0.1,0.4,0.4,0.8,0.8,0.8c0.6,0.1,1.4,0.1,2.2,0c0.7-0.1,1.3-0.8,1.3-1.5v-4.8L34.6,404.2z
			"/>
		<linearGradient id="SVGID_63_" gradientUnits="userSpaceOnUse" x1="59.2475" y1="412.3688" x2="78.3492" y2="412.3688">
			<stop  offset="0" style="stop-color:#2B3582"/>
			<stop  offset="1" style="stop-color:#150E42"/>
		</linearGradient>
		<path class="st67" d="M61.2,407.7c0,0-2,3.1-2,7.5c0,1,0.9,1.8,1.9,1.8h16.4c0.8,0,1.1-1,0.5-1.4c-3.1-2.2-9.2-6.3-13.6-7.9H61.2z
			"/>
		<linearGradient id="SVGID_64_" gradientUnits="userSpaceOnUse" x1="59.5377" y1="404.7139" x2="64.4479" y2="404.7139">
			<stop  offset="0" style="stop-color:#F9B776"/>
			<stop  offset="1" style="stop-color:#F47960"/>
		</linearGradient>
		<path class="st68" d="M59.5,402.3l1.3,6.2c0.1,0.7,0.8,1.2,1.5,1c0.4-0.1,0.9-0.3,1.4-0.6c0.5-0.3,0.8-0.9,0.7-1.5l-1.3-7.5
			L59.5,402.3z"/>
		<linearGradient id="SVGID_65_" gradientUnits="userSpaceOnUse" x1="152.9671" y1="280.2487" x2="10.3132" y2="392.3338">
			<stop  offset="0" style="stop-color:#53D8FF"/>
			<stop  offset="1" style="stop-color:#3840F7"/>
		</linearGradient>
		<path class="st69" d="M36.9,316.1c0,0-4.4,3.9-5.3,8.6C30.8,329.5,34,406,34,406s4.4,0.7,6.7-0.6c0,0,2.7-49.7,4.8-61.1
			c0,0,10.8,51.4,13.8,60.7c0,0,4.3,0.5,5.7-0.3c0,0-2.8-66.7-6.4-78.5L36.9,316.1z"/>
		<linearGradient id="SVGID_66_" gradientUnits="userSpaceOnUse" x1="45.6957" y1="334.4756" x2="121.5061" y2="271.7079">
			<stop  offset="0" style="stop-color:#53D8FF"/>
			<stop  offset="1" style="stop-color:#3840F7"/>
		</linearGradient>
		<path class="st70" d="M45.4,342.6c-0.2,0-0.4-0.1-0.5-0.4l-1.8-7l-3.9-2.5c-0.2-0.1-0.3-0.4-0.1-0.7c0.1-0.2,0.4-0.3,0.7-0.1
			l4.1,2.6c0.1,0.1,0.2,0.2,0.2,0.3l1.9,7.2c0.1,0.3-0.1,0.5-0.3,0.6C45.5,342.6,45.4,342.6,45.4,342.6z"/>
		<linearGradient id="SVGID_67_" gradientUnits="userSpaceOnUse" x1="103.0741" y1="220.0072" x2="59.0552" y2="316.1969">
			<stop  offset="0" style="stop-color:#CB236D"/>
			<stop  offset="1" style="stop-color:#4C246D"/>
		</linearGradient>
		<path class="st71" d="M80.7,271.9c-18.7-1.6-23.6,2.3-23.6,2.3l9,14.2c0,0,18.4-0.4,31.5-10.5c-2.5-2.7-4.2-5.6-5.3-7.9
			C89,271.5,85.1,272.3,80.7,271.9z"/>
		<linearGradient id="SVGID_68_" gradientUnits="userSpaceOnUse" x1="92.3902" y1="260.937" x2="110.6389" y2="260.937">
			<stop  offset="0" style="stop-color:#F9B776"/>
			<stop  offset="1" style="stop-color:#F47960"/>
		</linearGradient>
		<path class="st72" d="M110,244.5c0-0.6-0.8-0.8-1.1-0.2l-2.4,5.1c-0.5,1-0.6,2.1-0.4,3.2l0.8,3c0.3,1.4-0.1,2.9-1,4.1
			c-2.2,2.7-6.9,7.7-13.5,10.5c1.1,2.3,2.8,5.2,5.3,7.9c4.8-3.7,9-8.8,11.2-15.6c1.1-0.3,1.8-1.4,1.8-2.5L110,244.5z"/>
		<linearGradient id="SVGID_69_" gradientUnits="userSpaceOnUse" x1="75.6007" y1="256.033" x2="65.6114" y2="350.6378">
			<stop  offset="0" style="stop-color:#CB236D"/>
			<stop  offset="1" style="stop-color:#4C246D"/>
		</linearGradient>
		<path class="st73" d="M86.9,280.1c-6.6-7.1-19.1-10.3-26.4-11.6c-3.2-0.6-6.3,1.2-7.4,4.2c-3.3,8.8-12.1,31.6-13.9,35.5
			c-1.4,3.2-2.9,6.4-3.8,8.3c-0.6,1.2-0.1,2.6,1.1,3.1c6.1,2.9,17.1,6.3,21.5,7.6c1,0.3,2-0.4,2-1.5c0-0.9,0.2-1.7,0.7-2.5
			l16.9-28.1C88,307,97.2,308,104.3,305.5c-1.2-3.7-2-7.4-2.3-11C91.5,292.6,86.9,280.1,86.9,280.1z"/>
		<linearGradient id="SVGID_70_" gradientUnits="userSpaceOnUse" x1="133.7114" y1="264.9155" x2="94.2809" y2="313.9709">
			<stop  offset="0" style="stop-color:#F9B776"/>
			<stop  offset="1" style="stop-color:#F47960"/>
		</linearGradient>
		<path class="st74" d="M119.2,292.5l-1.9-2.5c-6.1,4.2-11.2,5.2-15.4,4.5c0.4,3.7,1.2,7.4,2.3,11
			C113.6,302.1,119.2,292.5,119.2,292.5z"/>
		<linearGradient id="SVGID_71_" gradientUnits="userSpaceOnUse" x1="141.1872" y1="270.9245" x2="101.7567" y2="319.9799">
			<stop  offset="0" style="stop-color:#F9B776"/>
			<stop  offset="1" style="stop-color:#F47960"/>
		</linearGradient>
		<path class="st75" d="M117.9,292.5l10.6,0.4l9.8-5.5c-1.4-0.9-9.3,0.9-9.3,0.9s-8.3-1.3-10.5-1.3c-1.9,0-1.6,2.7-1.5,3.6
			c0,0.2,0.1,0.3,0.1,0.3L117.9,292.5z"/>
		<linearGradient id="SVGID_72_" gradientUnits="userSpaceOnUse" x1="89.3519" y1="235.2691" x2="51.1633" y2="305.4368">
			<stop  offset="0" style="stop-color:#F9B776"/>
			<stop  offset="1" style="stop-color:#F47960"/>
		</linearGradient>
		<path class="st76" d="M70.5,255.5l-5.6,13.7c0,0,6.4,4.5,11.6,4l2.8-12.3L70.5,255.5z"/>
		<g>
			
				<linearGradient id="SVGID_73_" gradientUnits="userSpaceOnUse" x1="-474.1783" y1="3164.6123" x2="-491.0555" y2="3186.9395" gradientTransform="matrix(0.817 -0.5767 0.5767 0.817 -1360.3119 -2610.7502)">
				<stop  offset="0" style="stop-color:#F9B776"/>
				<stop  offset="1" style="stop-color:#F47960"/>
			</linearGradient>
			<path class="st77" d="M80,246.2c0.1,0.2,4.1,14.4,4.1,14.4l-8.1,2.1l-5.7-12.9C70.2,249.8,77.8,243.2,80,246.2z"/>
			
				<linearGradient id="SVGID_74_" gradientUnits="userSpaceOnUse" x1="-487.0676" y1="3169.9983" x2="-466.9075" y2="3169.9983" gradientTransform="matrix(0.817 -0.5767 0.5767 0.817 -1360.3119 -2610.7502)">
				<stop  offset="0" style="stop-color:#2B3582"/>
				<stop  offset="1" style="stop-color:#150E42"/>
			</linearGradient>
			<path class="st78" d="M73.2,251.7l2.5,7c0,0.1,0.1,0.2,0.1,0.3c0.3,0.5,1.6,2,3.1,0.6c1.4-1.3,2.6-2.4,3.8-2.6
				c0.5-0.1,1,0.2,1.2,0.7c0.4,1.3,1.1,4.2,1.4,6.8c0.1,0.5-0.3,1-0.8,1.1c-1.6,0.3-5,0.8-7.8,0.6c-0.4,0-0.7-0.3-0.9-0.6
				c-0.8-1.7-3.2-6.8-4-8.2c-0.8-1.2-2.9-1.2-3.7-1.1c-0.3,0-0.6-0.1-0.8-0.3c-0.7-0.7-2.2-2.3-0.2-4.3c0.4-0.4,0.4-1.1,0-1.5
				c-0.9-0.8-1.8-2.2-0.3-4c1.5-1.8,3.4-1.5,4.5-1.1c0.5,0.2,1,0,1.3-0.5c0.1-0.2,0.4-0.4,0.8-0.4c0.6,0.1,1.1-0.4,1.1-1.1
				c0-1.2,0.4-2.6,2.4-3.2c3.6-1.1,5.8,2.3,6,4.9c0.2,2.6-3.7,3.5-6,3.4c-1.8-0.1-3.1,1.6-3.6,2.4C73.2,251.1,73.1,251.4,73.2,251.7
				z"/>
			
				<linearGradient id="SVGID_75_" gradientUnits="userSpaceOnUse" x1="-498.8967" y1="3182.2937" x2="-485.3598" y2="3168.4053" gradientTransform="matrix(0.817 -0.5767 0.5767 0.817 -1360.3119 -2610.7502)">
				<stop  offset="0" style="stop-color:#F9B776"/>
				<stop  offset="1" style="stop-color:#F47960"/>
			</linearGradient>
			<path class="st79" d="M72.7,260.1c0,0-0.6-4.5-2.4-4.7c-1.9-0.2-3.7,1.3-1.8,3.8C70.8,262.4,72.7,260.1,72.7,260.1z"/>
		</g>
	</g>
	<g>
		<linearGradient id="SVGID_76_" gradientUnits="userSpaceOnUse" x1="215.3205" y1="187.8909" x2="20.3905" y2="480.2855">
			<stop  offset="0" style="stop-color:#53D8FF"/>
			<stop  offset="1" style="stop-color:#3840F7"/>
		</linearGradient>
		<path class="st80" d="M114.6,226.3l108.1-0.7c2.5,0,4.5,1.9,4.5,4.2l-0.5,56.1c0,2.3-2.1,4.2-4.6,4.1l-107-3
			c-2.4-0.1-4.3-1.9-4.3-4.1l-0.7-52.4C110.2,228.2,112.1,226.3,114.6,226.3z"/>
		<path class="st2" d="M222.3,286.6l-107-3c-0.4,0-0.7-0.3-0.7-0.7l-0.7-52.4c0-0.2,0.1-0.4,0.2-0.5c0.1-0.1,0.3-0.2,0.5-0.2
			l108.1-0.7c0.2,0,0.4,0.1,0.5,0.2c0.2,0.1,0.2,0.3,0.2,0.5l-0.5,56.1C223.1,286.3,222.7,286.6,222.3,286.6z M222.8,229.8
			l-108.2,0.7l0.7,52.4l0.1,0l107,3L222.8,229.8z"/>
		<path class="st2" d="M120.8,237.5c0,1.8,1.1,3.3,2.5,3.3h92c1.4,0,2.5-1.5,2.5-3.3c0-1.8-1.1-3.3-2.5-3.3h-92
			C122,234.2,120.8,235.7,120.8,237.5z"/>
		<path class="st2" d="M121.3,244.2H160c1.4,0,2.5,1,2.5,2.3v30c0,1.3-1.2,2.4-2.6,2.3l-37.9-1c-1.3,0-2.4-1-2.4-2.3l-0.8-29
			C118.8,245.3,119.9,244.2,121.3,244.2z"/>
		<path class="st2" d="M170.6,245h43.2c0.9,0,1.7,0.9,1.7,2s-0.8,2-1.7,2h-43.2c-0.9,0-1.7-0.9-1.7-2S169.6,245,170.6,245z"/>
		<path class="st2" d="M168.9,255.3c0,1.1,0.8,2,1.7,2h43.2c0.9,0,1.7-0.9,1.7-2v-1.2c0-1.1-0.8-2-1.7-2l-43.2,1.2
			C169.6,253.4,168.9,254.3,168.9,255.3z"/>
	</g>
</g>
<g>
	<circle class="st2" cx="233.5" cy="109.2" r="33"/>
	<g>
		<linearGradient id="SVGID_77_" gradientUnits="userSpaceOnUse" x1="246.6452" y1="25.9216" x2="196.5952" y2="139.8814">
			<stop  offset="0" style="stop-color:#53D8FF"/>
			<stop  offset="1" style="stop-color:#3840F7"/>
		</linearGradient>
		<path class="st81" d="M206.3,107.6l6.9-3.6v1.5c0,0.1,0,0.2-0.1,0.3c-0.1,0.1-0.2,0.2-0.3,0.2l-3.2,1.6c-0.1,0.1-0.3,0.1-0.4,0.2
			c-0.1,0-0.3,0.1-0.5,0.1c0.2,0,0.3,0.1,0.5,0.1c0.1,0,0.3,0.1,0.4,0.2l3.2,1.6c0.1,0.1,0.2,0.2,0.3,0.2c0.1,0.1,0.1,0.2,0.1,0.3
			v1.5l-6.9-3.6V107.6z"/>
		<linearGradient id="SVGID_78_" gradientUnits="userSpaceOnUse" x1="254.5761" y1="29.4045" x2="204.5258" y2="143.3648">
			<stop  offset="0" style="stop-color:#53D8FF"/>
			<stop  offset="1" style="stop-color:#3840F7"/>
		</linearGradient>
		<path class="st82" d="M216.4,114v-13h2.2v5c0.3-0.3,0.7-0.6,1.2-0.8c0.4-0.2,0.9-0.3,1.5-0.3c0.5,0,0.9,0.1,1.3,0.2
			c0.4,0.2,0.7,0.4,0.9,0.7c0.3,0.3,0.4,0.7,0.6,1.1s0.2,0.9,0.2,1.4v5.7H222v-5.7c0-0.5-0.1-1-0.4-1.3c-0.3-0.3-0.6-0.4-1.1-0.4
			c-0.4,0-0.7,0.1-1,0.3c-0.3,0.2-0.6,0.4-0.9,0.7v6.5H216.4z"/>
		<linearGradient id="SVGID_79_" gradientUnits="userSpaceOnUse" x1="262.1845" y1="32.746" x2="212.1343" y2="146.7062">
			<stop  offset="0" style="stop-color:#53D8FF"/>
			<stop  offset="1" style="stop-color:#3840F7"/>
		</linearGradient>
		<path class="st83" d="M229.3,114.1c-0.8,0-1.4-0.2-1.8-0.7c-0.4-0.4-0.6-1-0.6-1.8v-5h-0.9c-0.1,0-0.2,0-0.3-0.1
			c-0.1-0.1-0.1-0.2-0.1-0.3v-0.9l1.4-0.2l0.5-2.4c0-0.1,0.1-0.2,0.2-0.3c0.1-0.1,0.2-0.1,0.3-0.1h1.1v2.8h2.4v1.5H229v4.9
			c0,0.3,0.1,0.5,0.2,0.7c0.1,0.2,0.3,0.2,0.6,0.2c0.1,0,0.2,0,0.3,0c0.1,0,0.2-0.1,0.2-0.1c0.1,0,0.1-0.1,0.2-0.1
			c0.1,0,0.1,0,0.2,0c0.1,0,0.1,0,0.2,0c0,0,0.1,0.1,0.1,0.1l0.6,1c-0.3,0.3-0.7,0.5-1.1,0.6C230.1,114,229.7,114.1,229.3,114.1z"/>
		<linearGradient id="SVGID_80_" gradientUnits="userSpaceOnUse" x1="271.3165" y1="36.7568" x2="221.2663" y2="150.7171">
			<stop  offset="0" style="stop-color:#53D8FF"/>
			<stop  offset="1" style="stop-color:#3840F7"/>
		</linearGradient>
		<path class="st84" d="M233.1,114v-9h1.3c0.3,0,0.5,0.1,0.6,0.4l0.1,0.7c0.2-0.2,0.3-0.3,0.5-0.5c0.2-0.1,0.4-0.3,0.6-0.4
			c0.2-0.1,0.4-0.2,0.6-0.2c0.2-0.1,0.5-0.1,0.7-0.1c0.6,0,1,0.2,1.4,0.5c0.4,0.3,0.6,0.7,0.8,1.2c0.1-0.3,0.3-0.6,0.5-0.8
			c0.2-0.2,0.4-0.4,0.7-0.5c0.3-0.1,0.5-0.2,0.8-0.3c0.3-0.1,0.6-0.1,0.9-0.1c0.5,0,0.9,0.1,1.3,0.2c0.4,0.2,0.7,0.4,1,0.7
			c0.3,0.3,0.5,0.6,0.6,1.1c0.1,0.4,0.2,0.9,0.2,1.4v5.7h-2.2v-5.7c0-0.6-0.1-1-0.4-1.3c-0.3-0.3-0.6-0.4-1.1-0.4
			c-0.2,0-0.4,0-0.6,0.1c-0.2,0.1-0.4,0.2-0.5,0.3c-0.1,0.1-0.3,0.3-0.3,0.5c-0.1,0.2-0.1,0.5-0.1,0.7v5.7h-2.2v-5.7
			c0-0.6-0.1-1-0.4-1.3c-0.2-0.3-0.6-0.4-1.1-0.4c-0.3,0-0.6,0.1-0.9,0.2c-0.3,0.2-0.5,0.4-0.8,0.6v6.6H233.1z"/>
		<linearGradient id="SVGID_81_" gradientUnits="userSpaceOnUse" x1="278.6558" y1="39.9801" x2="228.6055" y2="153.9404">
			<stop  offset="0" style="stop-color:#53D8FF"/>
			<stop  offset="1" style="stop-color:#3840F7"/>
		</linearGradient>
		<path class="st85" d="M250.1,101v13h-2.2v-13H250.1z"/>
		<linearGradient id="SVGID_82_" gradientUnits="userSpaceOnUse" x1="284.7726" y1="42.6667" x2="234.7226" y2="156.6265">
			<stop  offset="0" style="stop-color:#53D8FF"/>
			<stop  offset="1" style="stop-color:#3840F7"/>
		</linearGradient>
		<path class="st86" d="M253.4,112.1v-1.5c0-0.1,0-0.2,0.1-0.3c0.1-0.1,0.2-0.2,0.3-0.2l3.2-1.6c0.3-0.1,0.6-0.2,0.9-0.3
			c-0.2,0-0.3-0.1-0.5-0.1c-0.1,0-0.3-0.1-0.4-0.2l-3.2-1.6c-0.1-0.1-0.2-0.2-0.3-0.2c-0.1-0.1-0.1-0.2-0.1-0.3V104l6.9,3.6v0.9
			L253.4,112.1z"/>
	</g>
</g>
<g>
	<ellipse transform="matrix(0.1602 -0.9871 0.9871 0.1602 203.1452 391.2894)" class="st2" cx="331.5" cy="76.3" rx="29" ry="29"/>
	<g>
		<linearGradient id="SVGID_83_" gradientUnits="userSpaceOnUse" x1="340.4689" y1="15.2905" x2="307.4663" y2="119.9328">
			<stop  offset="0" style="stop-color:#53D8FF"/>
			<stop  offset="1" style="stop-color:#3840F7"/>
		</linearGradient>
		<path class="st87" d="M316.2,76.3l8.4-4.4v1.9c0,0.1,0,0.3-0.1,0.4c-0.1,0.1-0.2,0.2-0.3,0.3l-3.8,2c-0.2,0.1-0.3,0.2-0.5,0.2
			c-0.2,0.1-0.4,0.1-0.6,0.2c0.2,0,0.4,0.1,0.6,0.2c0.2,0.1,0.4,0.1,0.5,0.2l3.8,2c0.2,0.1,0.3,0.2,0.3,0.3c0.1,0.1,0.1,0.2,0.1,0.4
			v1.9l-8.4-4.4V76.3z"/>
		<linearGradient id="SVGID_84_" gradientUnits="userSpaceOnUse" x1="349.555" y1="18.1561" x2="316.5523" y2="122.7985">
			<stop  offset="0" style="stop-color:#53D8FF"/>
			<stop  offset="1" style="stop-color:#3840F7"/>
		</linearGradient>
		<path class="st88" d="M329.3,84c-0.1,0.2-0.1,0.3-0.2,0.4c-0.1,0.1-0.2,0.2-0.3,0.3c-0.1,0.1-0.3,0.1-0.4,0.2
			c-0.1,0-0.3,0.1-0.4,0.1h-1.1l6.2-15.8c0.1-0.3,0.3-0.5,0.5-0.7c0.2-0.2,0.5-0.2,0.8-0.2h1.1L329.3,84z"/>
		<linearGradient id="SVGID_85_" gradientUnits="userSpaceOnUse" x1="358.7255" y1="21.0484" x2="325.7228" y2="125.6907">
			<stop  offset="0" style="stop-color:#53D8FF"/>
			<stop  offset="1" style="stop-color:#3840F7"/>
		</linearGradient>
		<path class="st89" d="M337.6,81.8v-1.9c0-0.1,0-0.3,0.1-0.4c0.1-0.1,0.2-0.2,0.3-0.3l3.8-2c0.3-0.2,0.7-0.3,1.1-0.4
			c-0.2,0-0.4-0.1-0.6-0.2c-0.2-0.1-0.4-0.1-0.5-0.2l-3.8-2c-0.2-0.1-0.3-0.2-0.3-0.3c-0.1-0.1-0.1-0.2-0.1-0.4v-1.9l8.4,4.4v1.1
			L337.6,81.8z"/>
	</g>
</g>
<g>
	<g>
		<linearGradient id="SVGID_86_" gradientUnits="userSpaceOnUse" x1="482.4198" y1="20.1416" x2="355.1041" y2="217.3119">
			<stop  offset="0" style="stop-color:#CB236D"/>
			<stop  offset="1" style="stop-color:#4C246D"/>
		</linearGradient>
		<path class="st90" d="M409.3,25.9l90.6-0.8c1.8,0,3.2,1.4,3.2,3.2l-0.4,69.5c0,1.8-1.5,3.2-3.3,3.2c-16.4-0.5-89.1-2.6-92.3-2.5
			c-3.2,0.1-1.4-55.7-1-69.5C406.2,27.3,407.6,25.9,409.3,25.9z"/>
		<path class="st2" d="M499.5,98.4L499.5,98.4c-13-0.4-78.6-2.3-90.6-2.5l-0.2,0l0-0.2c-1.1-6.4-1.1-32.5,0.1-66.6
			c0-0.3,0.3-0.5,0.6-0.5l90.6-0.8c0.2,0,0.3,0.1,0.4,0.2c0.1,0.1,0.2,0.2,0.2,0.4l-0.4,69.5C500.1,98.1,499.9,98.4,499.5,98.4z
			 M409.1,95.5c12.4,0.2,77.5,2.1,90.4,2.5l0,0c0.1,0,0.2-0.1,0.2-0.2l0.4-69.5c0,0,0-0.1,0-0.1c0,0-0.1-0.1-0.1-0.1l-90.6,0.8
			c-0.1,0-0.2,0.1-0.2,0.2C408,62.9,408,88.8,409.1,95.5z"/>
	</g>
	<path class="st2" d="M420.3,89.4h59.4c1.8,0,3-2,2.1-3.6l-23.5-40c-1-1.7-3.4-1.5-4.2,0.2l-11.3,24.9c-0.7,1.5-2.6,1.9-3.8,0.8
		l-4.6-4.2c-1.1-1-2.8-0.8-3.6,0.4l-12.3,17.8C417.2,87.2,418.3,89.4,420.3,89.4z"/>
	<ellipse transform="matrix(0.9239 -0.3827 0.3827 0.9239 19.3611 186.6414)" class="st2" cx="478.8" cy="44.7" rx="8.5" ry="8.5"/>
</g>
</svg>
